<svg width="197" height="266" viewBox="0 0 197 266" fill="none" xmlns="http://www.w3.org/2000/svg">
<g clip-path="url(#clip0_1582_13904)">
<path d="M182.104 112.751C176.914 109.759 165.331 104.112 146.054 99.9109C127.511 95.8686 107.32 94.3349 86.0426 95.3489C83.0667 95.4901 80.203 95.6823 77.5279 95.9182C52.0183 98.1684 39.6998 104.667 38.7597 116.367C38.14 124.089 44.0649 130.613 56.3714 135.758C68.0028 140.62 86.0995 144.595 110.159 147.574C123.973 149.283 136.468 149.666 147.294 148.711C159.789 147.608 169.863 144.786 177.236 140.322C183.376 136.604 187.367 131.777 188.475 126.733C189.714 121.09 187.273 115.731 182.102 112.751H182.104Z" fill="#390176"/>
<path d="M147.081 146.281C136.424 147.221 124.101 146.841 110.456 145.153C86.6157 142.202 68.7345 138.283 57.3067 133.506C46.0826 128.814 40.6576 123.115 41.183 116.564C42.0093 106.265 53.6257 100.477 77.7402 98.3503C80.3823 98.1174 83.2146 97.9282 86.1576 97.787C107.224 96.782 127.201 98.2992 145.537 102.296C164.493 106.429 175.824 111.946 180.891 114.868C185.107 117.298 187.103 121.644 186.101 126.209C184.3 134.408 173.104 143.985 147.081 146.282V146.281Z" fill="#710125"/>
<path d="M41.1839 116.561C40.136 129.604 62.1338 139.169 110.457 145.15C183.179 154.151 195.665 123.383 180.892 114.865C166.118 106.348 132.967 95.5524 86.1585 97.7846C51.2988 99.4459 41.9219 107.383 41.1854 116.561H41.1839Z" fill="#710125"/>
<path d="M32.2589 265.179L32.1047 263.044C31.2095 250.628 31.4895 236.785 32.9355 221.899L32.955 221.701C33.3981 217.175 33.9535 212.5 34.6061 207.808C34.7214 206.981 34.8397 206.158 34.9594 205.338C35.1944 203.741 35.4504 202.069 35.7214 200.364C35.7573 200.138 35.9175 199.145 35.9175 199.145C36.1196 197.916 36.3202 196.707 36.5282 195.506C36.5282 195.506 36.5507 195.383 36.5552 195.352L36.5627 195.302C36.9174 193.252 37.2558 191.377 37.5971 189.57C37.8695 188.117 38.1614 186.608 38.4892 184.958C38.7063 183.866 38.9264 182.786 39.1479 181.717L39.1778 181.573C39.8215 178.477 40.5086 175.342 41.2197 172.255C42.6777 165.947 44.2585 159.739 45.9186 153.803C45.986 153.559 46.0564 153.308 46.1267 153.059L46.1806 152.868C46.221 152.719 46.2659 152.563 46.3108 152.406C46.3827 152.147 46.4561 151.89 46.5294 151.636L46.5668 151.504C46.8677 150.457 47.1611 149.451 47.447 148.485L47.6881 147.674C47.7704 147.396 47.8527 147.128 47.9336 146.863C48.209 145.949 48.4784 145.074 48.7389 144.24L49.1102 143.056L50.3212 142.808C50.6266 142.745 81.2199 136.514 111.265 133.863C148.396 130.587 168.449 133.907 172.572 144.012C172.976 145.001 173.374 145.991 173.765 146.98C173.949 147.444 174.132 147.907 174.311 148.371C174.868 149.796 175.432 151.274 176.031 152.885C176.214 153.373 176.396 153.866 176.576 154.36C176.923 155.305 177.295 156.329 177.705 157.484L178.143 158.734C178.501 159.759 178.853 160.778 179.196 161.794C179.341 162.216 179.485 162.647 179.627 163.075L180.091 164.469C180.098 164.49 180.104 164.511 180.11 164.532C180.208 164.827 180.304 165.12 180.399 165.413L180.567 165.929C180.745 166.482 180.917 167.021 181.091 167.556C181.568 169.063 181.979 170.383 182.35 171.603C182.492 172.073 182.634 172.542 182.772 173.004L182.842 173.242C182.958 173.629 183.073 174.015 183.187 174.401C183.58 175.734 183.982 177.128 184.378 178.541C184.595 179.315 184.808 180.081 185.014 180.841L185.131 181.266C185.255 181.717 185.378 182.172 185.498 182.627C185.872 184.026 186.245 185.456 186.609 186.874L186.922 188.117C187.005 188.451 187.088 188.783 187.169 189.112C188.264 193.546 189.287 198.059 190.207 202.521L190.387 203.397L190.556 204.24C190.588 204.389 190.621 204.557 190.655 204.727L190.698 204.944C190.884 205.877 191.065 206.798 191.237 207.71C192.369 213.636 193.35 219.61 194.153 225.467C196.102 239.645 196.373 248.34 196.384 248.703L196.442 250.689L32.2604 265.176L32.2589 265.179Z" fill="#390176"/>
<path d="M194.286 248.768L34.2001 262.894C33.2346 249.493 33.7151 235.509 35.0459 221.911V221.908C35.501 217.247 36.0564 212.632 36.6866 208.1C36.8018 207.279 36.9201 206.459 37.0369 205.643C37.2809 203.982 37.5353 202.334 37.7943 200.698C37.8587 200.291 37.9261 199.885 37.9904 199.48C38.1895 198.267 38.3901 197.063 38.5967 195.869C38.6087 195.799 38.6221 195.732 38.6311 195.664C38.9634 193.741 39.3048 191.84 39.6595 189.967C39.9499 188.415 40.2478 186.883 40.5472 185.373C40.7628 184.285 40.9828 183.211 41.2029 182.148C41.2149 182.1 41.2238 182.053 41.2328 182.005C41.899 178.806 42.5801 175.705 43.2657 172.731C44.848 165.887 46.4542 159.688 47.9407 154.373C48.026 154.062 48.1158 153.75 48.2012 153.444C48.2431 153.292 48.285 153.14 48.3299 152.988C48.4137 152.685 48.5006 152.383 48.5859 152.089C48.8853 151.049 49.1772 150.049 49.4616 149.087C49.5424 148.812 49.6248 148.542 49.7041 148.273C49.7835 148.007 49.8628 147.743 49.9436 147.483C50.2191 146.57 50.4855 145.701 50.7445 144.874C50.7445 144.874 161.401 122.187 170.631 144.812C171.034 145.798 171.428 146.78 171.817 147.761C172 148.221 172.179 148.679 172.356 149.135C172.943 150.638 173.512 152.135 174.067 153.624C174.25 154.11 174.429 154.597 174.606 155.084C174.989 156.126 175.362 157.161 175.73 158.195C175.874 158.608 176.02 159.021 176.166 159.433C176.52 160.451 176.871 161.463 177.212 162.473C177.357 162.896 177.499 163.32 177.639 163.741C177.788 164.19 177.937 164.637 178.086 165.084C178.094 165.109 178.104 165.138 178.112 165.166C178.269 165.641 178.422 166.114 178.576 166.587C178.749 167.13 178.923 167.67 179.097 168.207C179.523 169.551 179.941 170.889 180.344 172.219C180.484 172.684 180.625 173.152 180.763 173.611C180.901 174.075 181.038 174.537 181.174 174.998C181.583 176.381 181.977 177.753 182.36 179.115C182.574 179.881 182.787 180.643 182.992 181.398C183.031 181.541 183.07 181.682 183.109 181.825C183.233 182.274 183.353 182.723 183.471 183.171C183.851 184.593 184.219 186.005 184.577 187.401C184.667 187.758 184.755 188.113 184.844 188.464C184.941 188.852 185.038 189.238 185.132 189.621C186.275 194.245 187.278 198.703 188.153 202.954C188.213 203.247 188.273 203.538 188.333 203.83L188.501 204.664C188.55 204.896 188.595 205.131 188.641 205.365C188.825 206.29 189.005 207.205 189.177 208.109C190.42 214.614 191.361 220.552 192.075 225.76C194.03 239.989 194.286 248.771 194.286 248.771V248.768Z" fill="#FFA300"/>
<path d="M66.4262 260.049C66.4262 260.049 60.5955 181.313 85.231 154.746C85.231 154.746 120.393 184.232 121.694 255.172L66.4262 260.049Z" fill="#FFF3E0"/>
<g style="mix-blend-mode:multiply" opacity="0.6">
<path d="M194.284 248.768L167.715 251.113C167.373 246.234 166.772 241.256 166.068 236.57C163.477 237.355 159.401 238.531 156.823 239.18C156.047 239.376 150.606 252.419 150.606 252.419L145.4 253.143L147.563 241.091L109.359 244.019L109.151 257.398L105.444 257.197L108.794 241.303L97.1302 240.481L88.358 190.461L81.9615 246.3C75.318 245.199 69.0502 243.117 63.3753 240.597C60.9742 249.812 55.9339 255.168 48.0105 256.381L47.7366 261.699L34.1966 262.893C33.231 249.492 33.7116 235.508 35.0424 221.91V221.907C35.4974 217.246 36.0528 212.631 36.683 208.099H36.686C36.8013 207.278 36.9166 206.458 37.0348 205.642C37.2788 203.981 37.5333 202.333 37.7923 200.697C37.8566 200.29 37.924 199.884 37.9884 199.479C38.1875 198.266 38.3881 197.062 38.5946 195.868C38.6066 195.798 38.6201 195.731 38.6291 195.663C38.9629 193.737 39.3057 191.839 39.6575 189.966C39.9479 188.414 40.2458 186.882 40.5452 185.372C40.7607 184.285 40.9808 183.21 41.2008 182.147C41.2128 182.099 41.2218 182.052 41.2308 182.004C41.8969 178.805 42.5781 175.704 43.2637 172.73C44.8459 165.886 46.4522 159.687 47.9387 154.372C48.024 154.061 48.1138 153.749 48.1991 153.443C48.241 153.291 48.283 153.139 48.3279 152.987C48.4117 152.684 48.4985 152.382 48.5838 152.088C48.8832 151.048 49.1751 150.048 49.4596 149.086C49.5404 148.811 49.6227 148.541 49.7021 148.272C49.7814 148.006 49.8607 147.742 49.9416 147.482C50.217 146.569 50.4835 145.7 50.7425 144.873C50.7425 144.873 161.399 122.186 170.629 144.811C171.032 145.797 171.426 146.779 171.815 147.76C171.998 148.22 172.177 148.678 172.354 149.134C172.941 150.637 173.509 152.134 174.065 153.623C174.247 154.109 174.427 154.596 174.604 155.083C174.987 156.125 175.36 157.16 175.728 158.194C175.872 158.607 176.018 159.02 176.164 159.432C176.518 160.45 176.869 161.462 177.21 162.472C177.355 162.895 177.497 163.319 177.637 163.74C177.786 164.189 177.934 164.636 178.084 165.083C178.092 165.108 178.102 165.137 178.11 165.165C178.267 165.64 178.419 166.113 178.574 166.586C178.747 167.129 178.921 167.669 179.095 168.206C179.521 169.55 179.939 170.888 180.342 172.218C180.482 172.683 180.623 173.151 180.761 173.61C180.898 174.074 181.036 174.536 181.172 174.997C181.581 176.38 181.975 177.752 182.358 179.114C182.572 179.88 182.785 180.642 182.99 181.397C183.029 181.54 183.068 181.681 183.106 181.824C183.231 182.273 183.35 182.722 183.469 183.17C183.849 184.592 184.217 186.004 184.575 187.4C184.665 187.757 184.753 188.112 184.841 188.463C184.939 188.851 185.036 189.237 185.13 189.62C186.273 194.244 187.275 198.702 188.151 202.953C188.211 203.246 188.271 203.537 188.331 203.829L188.498 204.663C188.548 204.895 188.593 205.13 188.639 205.364C188.823 206.289 189.003 207.204 189.175 208.108C190.418 214.613 191.359 220.551 192.073 225.759C194.028 239.988 194.284 248.77 194.284 248.77V248.768Z" fill="#B2A8C1"/>
</g>
<path d="M76.9124 236.823C60.4084 233.096 49.2351 225.794 42.7668 220.326C35.6951 214.346 32.568 209.252 32.4378 209.039L32.1294 208.531L32.1399 207.936C32.4482 189.936 36.496 174.724 39.8387 165.133C43.4703 154.71 46.9987 148.605 47.1469 148.351L48.3699 146.251L49.9671 147.595C52.6766 148.573 73.7224 155.761 87.8252 160.565L89.4225 161.109L79.0875 237.315L76.9109 236.824L76.9124 236.823Z" fill="#390176"/>
<path d="M87.1705 162.505L77.3624 234.82C74.0541 234.073 70.9614 233.182 68.0768 232.186C43.7781 223.798 34.1871 207.97 34.1871 207.97C34.7186 176.841 46.4038 153.982 48.5714 150.004C48.7944 149.596 48.9157 149.387 48.9157 149.387H48.9187C49.022 149.514 87.1705 162.505 87.1705 162.505Z" fill="#DFDAE5"/>
<g style="mix-blend-mode:multiply" opacity="0.6">
<path d="M69.1935 219.665L68.0768 232.184V232.187C43.7781 223.799 34.1871 207.971 34.1871 207.971C34.7186 176.842 46.4038 153.983 48.5714 150.005L52.8871 152.948C52.8871 152.948 52.2075 156.072 52.0623 158.237C52.0623 158.237 63.514 164.266 65.1891 173.969C66.8642 183.668 71.0542 205.213 69.1935 219.665Z" fill="#B2A8C1"/>
</g>
<path d="M130.731 237.455C113.774 238.951 102.43 237.335 101.955 237.266L100.466 237.048L86.3646 160.242L89.3585 160.79C94.2371 161.684 99.5349 162.518 105.105 163.269C114.662 164.555 124.823 164.738 135.306 163.812C159.858 161.646 178.27 154.062 178.453 153.985L180.302 153.215L181.158 155.029C192.132 178.319 196.475 213.32 196.654 214.8L196.819 216.158L195.65 216.861C171.72 231.259 147.138 236.007 130.731 237.455Z" fill="#390176"/>
<path d="M194.57 215.055C181.711 222.791 168.662 227.75 156.577 230.884V230.887C126.397 238.719 102.257 235.183 102.257 235.183L88.9806 162.865C93.693 163.729 98.9548 164.568 104.824 165.359C120.266 167.436 135.085 166.419 147.377 164.417C166.313 161.339 179.258 155.933 179.258 155.933C190.212 179.183 194.569 215.057 194.569 215.057L194.57 215.055Z" fill="#DFDAE5"/>
<g style="mix-blend-mode:multiply" opacity="0.6">
<path d="M156.577 230.883C169.62 203.844 147.621 164.849 147.379 164.415C166.315 161.337 179.259 155.931 179.259 155.931C190.214 179.181 194.57 215.055 194.57 215.055C181.711 222.791 168.662 227.75 156.577 230.883Z" fill="#B2A8C1"/>
</g>
<path d="M141.348 150.661C140.761 150.712 140.167 150.761 139.567 150.804C138.212 150.902 136.866 150.981 135.564 151.04C112.752 152.091 87.2032 148.482 73.4387 142.261C69.9852 140.699 67.0661 139.517 64.7189 138.568C57.1982 135.521 53.0546 133.845 51.8466 127.171C49.3616 113.437 47.0264 107.524 45.48 103.613C43.3663 98.2636 42.5624 95.728 43.9352 86.6025L44.2196 84.6963C44.736 81.2324 45.224 77.9607 45.8049 74.7852C47.8856 63.4305 51.14 53.8648 60.2625 44.0844C61.4526 42.8091 62.7369 41.5578 64.0947 40.3486C63.1396 36.126 61.9525 26.4417 67.3386 15.449L67.6275 14.8587C72.7785 4.35121 74.7036 0.420105 79.1735 0.0250418C81.3052 -0.162726 83.2947 0.780619 84.9578 1.72847C89.7121 4.43683 92.7764 8.59476 95.2374 11.9355C96.0517 13.0411 96.8212 14.0836 97.5682 14.9714C99.8256 17.6482 102.168 21.4591 103.487 23.7168C108.056 23.3293 112.687 23.3879 117.258 23.8926C124.687 24.7128 131.718 26.4703 138.191 29.1185C140.287 27.011 143.375 22.6864 145.158 16.143C145.33 15.5121 145.499 14.8797 145.668 14.2503C148.02 5.50185 150.782 1.68341 157.337 1.10508C160.249 0.848216 161.981 1.58276 165.398 4.88447C175.673 14.8136 178.384 23.6823 179.919 33.7827C180.018 34.4346 180.115 35.0775 180.214 35.7099C181.449 43.6367 178.462 52.591 176.061 59.7863C175.245 62.2303 174.47 64.5586 173.967 66.5249C180.203 81.7987 185.416 103.749 181.762 120.739C177.768 139.316 165.3 148.545 141.345 150.658L141.348 150.661Z" fill="#390176"/>
<path d="M170.573 66.8C177.522 83.3852 181.926 104.571 178.597 120.055C174.657 138.377 162.051 145.907 139.333 147.56C138.044 147.653 136.74 147.731 135.42 147.791C113.512 148.802 88.0638 145.303 74.7723 139.295C60.6785 132.921 56.222 133.127 55.0394 126.59C53.7835 119.642 52.5605 114.648 51.4542 110.883C51.4497 110.876 51.4497 110.871 51.4497 110.871C47.7223 98.1948 45.2837 99.4626 47.1445 87.0879C47.7657 82.9465 48.3211 79.068 48.9977 75.3712C50.9467 64.7361 53.9317 55.6346 62.6335 46.3063C64.2023 44.6254 65.9238 43.0076 67.7755 41.4679H67.7681C67.7681 41.4679 63.7053 30.2454 70.256 16.8823C75.3082 6.56559 77.0267 2.9274 80.1284 3.2744C81.0446 3.37654 82.0805 3.82869 83.3604 4.55723C88.9695 7.75228 91.9439 13.3312 95.095 17.0701C98.2506 20.8119 101.715 27.157 101.715 27.157L101.712 27.166C106.593 26.6012 111.677 26.5486 116.907 27.1269C124.835 28.0027 132.176 29.9765 138.775 32.8966C138.775 32.8966 145.158 28.4954 148.288 17.0025C150.876 7.50293 155.741 1.46431 162.316 5.8701L162.329 5.88061C163.704 6.79992 165.151 8.1834 166.672 10.0821C175.811 21.5224 175.434 26.0454 177.018 36.2134C178.6 46.3814 172.286 59.0054 170.578 66.7985L170.573 66.8Z" fill="#FFA300"/>
<g style="mix-blend-mode:multiply" opacity="0.6">
<path d="M79.2841 10.9834C79.2841 10.9834 80.7691 31.1527 74.928 37.1702C74.928 37.1702 92.5636 27.9035 79.2841 10.9834Z" fill="#B2A8C1"/>
</g>
<g style="mix-blend-mode:multiply" opacity="0.6">
<path d="M164.076 17.6592C164.076 17.6592 161.792 33.3731 158.846 36.8986C155.9 40.4241 148.322 37.8269 148.322 37.8269C148.322 37.8269 154.32 40.9709 155.483 44.9516C156.645 48.9308 159.248 53.0527 159.248 53.0527C159.248 53.0527 171.134 37.8555 164.076 17.6592Z" fill="#B2A8C1"/>
</g>
<g style="mix-blend-mode:multiply" opacity="0.6">
<path d="M101.712 27.1579L96.2455 28.1343C90.575 9.85627 80.8373 4.42904 80.1262 3.27539C81.0424 3.37754 82.0782 3.82968 83.3581 4.55822C88.9672 7.75328 91.9417 13.3322 95.0928 17.0711C98.2484 20.8129 101.712 27.1579 101.712 27.1579Z" fill="#B2A8C1"/>
</g>
<path d="M142.142 115.526C132.916 122.259 135.292 146.96 135.292 146.96L135.418 147.789C113.51 148.8 88.0615 145.302 74.77 139.293C60.6762 132.92 56.2197 133.126 55.0371 126.588C49.5463 96.2314 44.7276 103.14 47.1407 87.0879C47.7619 82.9465 48.3173 79.068 48.9939 75.3712C55.6389 61.5169 68.4514 67.5721 73.053 58.9813C77.6502 50.3906 78.5349 41.3191 84.7233 40.5816C90.9117 39.847 94.6855 47.1655 96.8322 52.1225C98.9833 57.0811 103.54 61.209 111.327 55.603C119.11 49.997 122.36 42.9745 130.895 47.529C140.882 52.8571 130.126 64.1337 131.485 68.0918C132.842 72.0545 143.281 77.7295 148.717 88.4113C154.152 99.093 151.369 108.788 142.144 115.526H142.142Z" fill="#FFF3E0"/>
<g style="mix-blend-mode:multiply" opacity="0.6">
<path d="M170.573 66.7993C177.522 83.3844 181.926 104.571 178.597 120.055C174.657 138.376 162.051 145.907 139.333 147.559C138.044 147.652 136.74 147.73 135.42 147.79C113.512 148.801 88.0635 145.303 74.772 139.294C60.6781 132.921 56.2217 133.126 55.0391 126.589C53.7831 119.642 52.5601 114.647 51.4539 110.883C51.608 111.302 56.7037 124.838 72.1807 128.668C77.6686 130.026 78.6431 144.2 87.5081 141.983C95.0722 140.09 99.7158 132.742 106.912 131.289C122.01 128.244 132.787 133.541 140.792 130.287C154.738 124.62 165.232 110.671 163.711 92.3943C162.19 74.1177 164.456 63.9933 167.188 57.7969C172.618 45.4794 172.758 32.7352 171.21 24.7843C169.714 17.0874 162.579 6.13525 162.325 5.87988C163.699 6.79919 165.146 8.18267 166.667 10.0814C175.806 21.5217 175.429 26.0446 177.013 36.2126C178.595 46.3806 172.281 59.0046 170.573 66.7978V66.7993Z" fill="#B2A8C1"/>
</g>
<path d="M76.1144 60.4987C76.1144 60.4987 86.9748 52.3346 112.606 66.288C112.606 66.288 108.577 76.0324 93.0315 72.7097C71.1699 68.038 76.1158 60.4987 76.1158 60.4987H76.1144Z" fill="#FFA300"/>
<path d="M121.077 104.935C119.157 105.448 117.202 105.551 115.274 105.367C113.473 105.195 111.694 104.776 109.994 104.208C109.989 104.205 109.982 104.205 109.977 104.202C109.973 104.202 109.968 104.199 109.965 104.199C104.835 102.484 100.409 99.4496 98.1305 97.925C94.2878 95.3488 89.4751 97.1123 83.9438 94.3348C78.4125 91.5574 70.2676 91.4597 64.5896 93.1001C58.9117 94.7404 56.9462 92.6359 55.5285 86.6379C55.289 85.6254 55.1468 84.6881 55.072 83.7958C54.7052 79.3825 56.0555 76.0387 56.3294 70.287C56.6587 63.3712 62.5343 63.568 62.5343 63.568L121.079 104.94L121.077 104.935Z" fill="#FFF3E0"/>
<g style="mix-blend-mode:multiply" opacity="0.6">
<path d="M109.965 104.197C104.835 102.481 100.409 99.4468 98.1301 97.9221C94.2875 95.3459 89.4747 97.1095 83.9435 94.332C78.4122 91.5545 70.2673 91.4569 64.5893 93.0972C58.9113 94.7376 56.9458 92.6331 55.5282 86.635C55.2887 85.6226 55.1465 84.6852 55.0717 83.793C57.8785 87.0391 59.2392 89.4305 65.239 87.8472C71.2358 86.2685 79.026 87.7045 82.6636 89.3839C86.3012 91.0633 95.2126 91.7348 99.4235 95.1266C103.63 98.511 106.359 103.002 109.965 104.198V104.197Z" fill="#B2A8C1"/>
</g>
<path d="M86.3186 134.47C80.5343 134.981 74.5046 133.367 71.6558 130.548C68.5197 127.447 69.388 123.205 70.3939 118.293C70.9403 115.627 71.5585 112.603 71.6334 109.342C71.6484 108.752 71.6199 108.152 71.5496 107.554C70.6723 100.147 63.6456 94.4242 63.5753 94.3671L61.1307 92.4038L64.1381 91.5326C65.8462 91.0399 67.7189 90.7004 69.7068 90.5246C75.2605 90.0349 80.7139 90.8911 84.6659 92.8755C87.1733 94.1343 89.5535 94.3641 91.8543 94.5849C94.2734 94.8177 96.7763 95.0581 99.0292 96.5677L99.2957 96.7465C102.376 98.8119 108.785 103.113 115.425 103.745L118.732 103.712L116.58 106.665C116.565 106.685 115.05 108.642 112.842 111.422C109.346 115.825 102.827 123.899 98.387 128.578L98.3436 128.629L98.2942 128.673C97.902 129.089 97.4948 129.505 97.0487 129.947C93.7584 133.191 89.3978 134.196 86.3186 134.468V134.47Z" fill="#390176"/>
<path d="M115.275 105.366L115.301 105.669C115.301 105.669 113.803 107.606 111.576 110.412C110.088 112.286 108.276 114.544 106.365 116.872C103.226 120.697 99.8259 124.712 97.1778 127.497C97.1703 127.506 97.1628 127.51 97.1553 127.519C96.7197 127.982 96.3021 128.407 95.9129 128.793C89.5478 135.071 76.7847 133.339 72.7968 129.393C68.806 125.446 73.0483 118.565 73.2564 109.383C73.2744 108.699 73.2384 108.025 73.1606 107.367C73.1112 106.934 73.0408 106.512 72.9555 106.094C71.4122 98.5566 64.5875 93.1008 64.5875 93.1008C70.2655 91.4605 78.4104 91.5581 83.9417 94.3356C89.473 97.113 94.2857 95.3495 98.1284 97.9257C101.167 99.9596 108.02 104.678 115.273 105.369L115.275 105.366Z" fill="#BC0F0F"/>
<g style="mix-blend-mode:multiply" opacity="0.6">
<path d="M115.275 105.365L115.301 105.668C115.301 105.668 113.803 107.605 111.576 110.411C110.088 112.285 108.276 114.543 106.365 116.871C107.609 106.736 96.6658 101.227 94.594 100.928C90.9969 100.412 86.3817 101.261 81.7831 99.5847C77.1859 97.9128 74.9001 100.234 75.9345 105.828L72.9555 106.09C71.4122 98.5527 64.5875 93.0969 64.5875 93.0969C70.2655 91.4566 78.4104 91.5542 83.9417 94.3317C89.473 97.1091 94.2857 95.3456 98.1284 97.9218C101.167 99.9557 108.02 104.674 115.273 105.365H115.275Z" fill="#B2A8C1"/>
</g>
<path d="M111.194 104.417C109.867 103.982 108.58 103.443 107.324 102.847C104.814 101.641 102.453 100.156 100.178 98.5507L98.4695 97.3264C97.8363 96.9043 97.1641 96.5168 96.4486 96.2674C95.025 95.7206 93.5595 95.5253 92.1658 95.3331C90.7676 95.1453 89.4129 94.9726 88.127 94.6481C86.8396 94.3281 85.6211 93.864 84.4879 93.2421C78.2681 90.1191 69.6381 90.37 64.2535 91.9247C62.0485 92.5616 60.5426 92.5781 59.5172 91.9758C58.3151 91.2713 57.4768 89.5889 56.7119 86.3518C55.682 81.9895 56.0053 79.5395 56.5951 75.0917C56.7807 73.6857 56.9918 72.0904 57.1939 70.1887C57.4439 67.8333 58.5711 66.199 60.5456 65.3278C62.1264 64.6308 63.6862 64.6728 63.6967 64.6743L63.794 62.2364C60.9707 62.1237 55.4484 63.5868 54.7763 69.9303C54.5787 71.8005 54.3691 73.3778 54.185 74.7687C53.5787 79.3488 53.2135 82.1127 54.3467 86.9136C55.0053 89.7 55.9873 92.7299 58.2912 94.0803C59.9303 95.0416 62.038 95.1017 64.9272 94.2665C70.0303 92.7929 78.0151 92.7163 83.4011 95.4202C84.7783 96.0526 86.2394 96.4837 87.6959 96.7346C89.1539 96.9899 90.5985 97.0635 91.9877 97.1507C93.3768 97.2393 94.7256 97.3294 95.9591 97.708C96.5863 97.8747 97.1567 98.1586 97.7165 98.4695L99.5159 99.5706C101.938 101.029 104.45 102.366 107.083 103.403C108.4 103.916 109.743 104.367 111.111 104.706C112.483 105.037 113.876 105.264 115.274 105.361C113.885 105.163 112.523 104.836 111.194 104.412V104.417Z" fill="#390176"/>
<path d="M186.296 122.652C185.748 123.713 184.82 124.635 183.39 126.84C177.672 135.659 166.988 139.765 144.047 141.79C134.519 142.631 123.231 142.94 110.497 142.712C93.6761 142.41 77.2545 139.176 64.2549 133.608C52.6116 128.619 44.9008 122.163 43.6164 116.33L42.6179 109.573L38.7378 116.735L38.7932 117.022C38.8111 117.117 45.6328 150.634 45.6328 150.634L46.0085 151.098C46.3513 151.521 54.9364 161.513 102.67 167.934C112.559 169.265 123.057 169.456 133.871 168.501C159.17 166.269 178.173 158.421 178.362 158.343L179.437 157.894L188.01 128.365C188.401 125.825 188.267 124.003 187.95 122.72L186.294 122.649L186.296 122.652Z" fill="#390176"/>
<path d="M177.427 156.091C177.427 156.091 164.504 161.489 145.591 164.568C133.289 166.573 118.455 167.596 102.994 165.516C55.6662 159.148 47.8955 149.559 47.8955 149.559L41.246 116.875C44.195 130.151 73.3737 144.484 110.455 145.153C124.82 145.411 136.77 144.986 146.608 144.001C170.18 141.638 181.638 136.048 185.157 128.891C185.574 128.045 177.427 156.091 177.427 156.091Z" fill="#DFDAE5"/>
<g style="mix-blend-mode:multiply" opacity="0.6">
<path d="M177.428 156.092C177.428 156.092 164.504 161.489 145.592 164.568C153.813 155.413 146.737 144.204 146.608 144.001C170.181 141.638 181.639 136.049 185.158 128.891C185.574 128.045 177.428 156.092 177.428 156.092Z" fill="#B2A8C1"/>
</g>
<path d="M75.5769 147.043C74.3419 147.153 73.1474 147.022 72.0247 146.656C62.748 143.633 62.5295 124.706 65.0144 115.408C66.1895 111.01 68.6834 107.815 72.4273 105.91C74.7386 104.732 77.4945 104.035 81.0962 103.717C81.5857 103.673 82.0707 103.639 82.5498 103.61C85.2473 103.448 86.7143 103.864 87.8924 104.198C88.6873 104.423 89.2112 104.572 90.0016 104.502C91.0196 104.412 92.4012 103.968 94.3473 103.104C95.3458 102.661 96.4191 102.386 97.5358 102.287C104.982 101.63 112.404 108.943 112.716 109.255L113.745 110.283L112.841 111.423C111.369 113.279 109.149 116.051 106.748 118.955L106.321 119.474C103.099 123.363 100.429 126.426 98.3846 128.58L98.3412 128.631L98.2618 128.703C97.8562 129.085 97.4714 129.48 97.1152 129.878C96.5284 130.533 95.8936 131.262 95.217 132.037C89.9223 138.105 82.6725 146.417 75.5754 147.043H75.5769Z" fill="#390176"/>
<path d="M111.573 110.411C109.756 112.702 107.452 115.568 105.075 118.431V118.436C102.316 121.766 99.4658 125.087 97.1754 127.497C97.1679 127.506 97.1605 127.51 97.153 127.519C96.7129 127.934 96.2982 128.357 95.9105 128.793C90.3523 134.998 80.4814 147.708 72.525 145.112C68.2123 143.709 66.133 137.813 65.5133 131.3C64.9878 125.807 65.4998 119.87 66.5791 115.832C67.7587 111.418 70.2152 108.861 73.1597 107.365C76.0968 105.869 79.5188 105.429 82.6474 105.238C88.9077 104.861 87.5709 107.894 95.0033 104.596C102.436 101.295 111.575 110.413 111.575 110.413L111.573 110.411Z" fill="#FC2D81"/>
<g style="mix-blend-mode:multiply" opacity="0.6">
<path d="M111.574 110.411C109.757 112.702 107.453 115.568 105.076 118.431V118.436C102.317 121.766 99.467 125.087 97.1767 127.497C97.1692 127.506 97.1617 127.51 97.1542 127.519C96.7141 127.934 96.2995 128.357 95.9118 128.793C90.3536 134.998 80.4826 147.708 72.5263 145.112C68.2135 143.709 66.1343 137.813 65.5145 131.3C67.3214 136.871 72.7299 140.432 77.4109 139.063C82.0948 137.69 95.5285 122.09 99.8293 116.217C104.132 110.347 101.551 107.272 95.0031 104.596C102.435 101.295 111.574 110.413 111.574 110.413V110.411Z" fill="#B2A8C1"/>
</g>
<path d="M96.9155 126.516C96.884 126.427 96.1296 124.312 95.6326 121.951C94.8646 118.308 95.1131 116.133 96.414 115.109C96.8376 114.775 97.3331 114.581 97.884 114.532C100.628 114.29 104.025 117.97 104.677 118.711L104.935 119.004L105.011 119.88L104.701 120.258C102.354 123.09 100.411 125.32 98.9214 126.89L98.89 126.928L98.878 126.938L97.6086 128.458L96.914 126.517L96.9155 126.516Z" fill="#390176"/>
<path d="M104.004 119.395V119.398C102.821 120.828 101.613 122.252 100.473 123.559C99.5624 124.598 98.6942 125.563 97.9128 126.384C97.9068 126.392 97.9008 126.395 97.8948 126.402C97.8948 126.402 94.7093 117.508 96.9607 115.737C97.3649 115.419 97.8574 115.33 98.3843 115.407V115.41C100.785 115.749 104.004 119.396 104.004 119.396V119.395Z" fill="#F6F0F0"/>
<g style="mix-blend-mode:multiply" opacity="0.6">
<path d="M100.473 123.559C99.5624 124.598 98.6942 125.563 97.9128 126.384C97.9068 126.392 97.9008 126.395 97.8948 126.402C97.8948 126.402 94.7093 117.508 96.9607 115.737C97.3649 115.419 97.8574 115.33 98.3843 115.407V115.41C98.3843 115.41 96.9098 119.26 100.473 123.56V123.559Z" fill="#B2A8C1"/>
</g>
<path d="M166.472 26.5669C166.036 23.5025 165.211 20.5102 164.078 17.6592C165.021 20.5793 165.638 23.5956 165.867 26.633C165.987 28.1516 165.994 29.6733 165.946 31.1905C165.87 32.7061 165.722 34.2158 165.496 35.7104C165.015 38.6982 164.24 41.6289 163.171 44.4424C162.64 45.8499 162.038 47.2289 161.37 48.5673C161.039 49.2387 160.685 49.8967 160.319 50.5441C160.295 50.5876 160.268 50.6312 160.244 50.6748C159.203 48.7686 158.128 46.8864 157.029 45.0177C156.706 44.4604 156.309 43.8205 155.912 43.2482C155.499 42.6714 155.064 42.1126 154.596 41.5853C153.661 40.5308 152.62 39.5814 151.498 38.7583C150.383 37.9291 149.186 37.2216 147.941 36.6448C146.697 36.0709 145.407 35.5903 144.068 35.3454C146.392 36.7259 148.49 38.3332 150.345 40.1312C150.805 40.5849 151.255 41.0415 151.676 41.5252C152.104 41.9999 152.508 42.4926 152.89 43.0003C153.282 43.499 153.629 44.0278 153.974 44.5565C154.32 45.0973 154.602 45.6126 154.941 46.2209C156.255 48.5748 157.682 50.861 159.253 53.0512C160.035 54.1492 160.86 55.2172 161.72 56.2597C162.595 57.2932 163.475 58.3207 164.472 59.261C163.593 57.14 162.593 55.1211 161.554 53.1278C161.836 52.6185 162.086 52.1243 162.337 51.6091C162.68 50.8971 163.006 50.1806 163.306 49.455C163.914 48.0055 164.443 46.5289 164.899 45.0312C165.815 42.0374 166.413 38.9566 166.704 35.8561C166.836 34.3044 166.885 32.7482 166.86 31.195C166.807 29.6433 166.695 28.0946 166.473 26.5624L166.472 26.5669Z" fill="#390176"/>
<path d="M85.3145 29.652C84.6857 29.8203 84.0675 30.0246 83.4567 30.2424C83.7995 29.4162 84.0885 28.5705 84.31 27.7052C84.545 26.6883 84.7187 25.6608 84.7681 24.6244C84.8145 23.5894 84.7711 22.5559 84.6318 21.5405C84.3355 19.5111 83.6753 17.5718 82.7532 15.7963C81.8236 14.0252 80.6709 12.3834 79.2817 10.9834C80.5182 12.5171 81.4808 14.2491 82.2008 16.0501C82.9148 17.8557 83.3415 19.7574 83.4223 21.6531C83.4523 22.601 83.3939 23.5443 83.2576 24.4711C83.1169 25.398 82.8639 26.2992 82.566 27.178C81.9538 28.8289 81.0766 30.364 80.0107 31.764C78.4464 32.6112 76.9599 33.5921 75.5797 34.7052C74.1621 35.8664 72.8253 37.1417 71.743 38.6679C73.4526 37.9333 75.0453 37.1222 76.6246 36.3035L81.2966 33.8355C82.8505 33.0303 84.3983 32.2387 85.9686 31.4576C87.5509 30.702 89.1452 29.9945 90.8487 29.2269C89 28.9851 87.1183 29.2149 85.316 29.655L85.3145 29.652Z" fill="#390176"/>
<g style="mix-blend-mode:multiply" opacity="0.6">
<path d="M139.353 82.9446L147.586 66.7891L152.785 74.4981L146.779 89.0418L139.353 82.9446Z" fill="#B2A8C1"/>
</g>
<path d="M137.834 81.6963L147.586 66.7891L151.13 71.8738L145.248 87.7845L137.834 81.6963Z" fill="#390176"/>
<path d="M145.534 67.6797L149.007 72.2026L144.399 84.6674L140.079 81.1254L145.534 67.6797Z" fill="#2F4272"/>
<path d="M138.878 82.5519C138.577 82.3085 108.81 58.6708 71.2974 62.4607C67.793 62.8152 64.2811 63.404 60.8576 64.2092L58.205 64.8341L61.624 48.8768L62.5701 48.5253C62.7557 48.4562 67.2017 46.8309 74.9035 46.0047C84.3149 44.9953 94.2322 45.5931 104.397 47.7998C118.547 50.8717 132.744 57.0244 146.603 66.147L147.843 66.9626L140.865 84.1576L138.879 82.5503L138.878 82.5519Z" fill="#390176"/>
<path d="M145.534 67.6789L140.077 81.1261C140.077 81.1261 137.038 78.6731 131.651 75.442H131.648C118.53 67.5858 91.4965 55.163 60.496 62.4785L63.1321 50.1864C63.1321 50.1864 96.2269 37.9305 140.237 64.3411V64.3441C141.987 65.3941 143.752 66.5027 145.534 67.6774V67.6789Z" fill="#6777A5"/>
<g style="mix-blend-mode:multiply" opacity="0.6">
<path d="M145.533 67.6785L140.077 81.1257C140.077 81.1257 137.038 78.6727 131.65 75.4416C135.554 76.1926 138.813 76.4751 141.202 72.9585C144.602 67.9549 140.285 64.485 140.237 64.3438C141.987 65.3937 143.752 66.5023 145.533 67.677V67.6785Z" fill="#B2A8C1"/>
</g>
<path d="M67.1676 51.7372C63.8683 52.5138 61.7575 58.5644 66.19 58.5539C70.639 58.5434 79.0444 56.6627 94.77 58.94C110.702 61.2473 127.225 70.5876 133.525 73.2043C139.86 75.8346 142.195 70.0769 138.144 66.7796C136.029 65.0597 118.711 54.2953 97.9315 51.569C77.5011 48.8876 70.8141 50.8795 67.1676 51.7387V51.7372Z" fill="#390176"/>
<g style="mix-blend-mode:multiply" opacity="0.6">
<path d="M63.4466 64.7061C61.8778 69.929 66.3088 71.7045 68.1935 72.4511C70.7219 73.453 75.2696 74.2762 77.9881 72.8116C80.7081 71.347 83.7948 69.4423 83.44 65.391C83.0852 61.3398 65.3358 58.4166 63.4466 64.7061Z" fill="#B2A8C1"/>
</g>
<path d="M62.534 63.5635C60.9652 68.7864 65.3962 70.562 67.2809 71.3085C69.8093 72.3105 74.357 73.1336 77.0755 71.669C79.7955 70.2044 82.8822 68.2997 82.5274 64.2485C82.1726 60.1972 64.4232 57.274 62.534 63.5635Z" fill="#390176"/>
<path d="M84.0144 111.968C83.2569 112.688 82.5384 113.445 81.8528 114.228C81.1642 115.007 80.51 115.815 79.8858 116.643C79.2676 117.477 78.6718 118.324 78.1269 119.206C77.573 120.081 77.0685 120.984 76.6134 121.912C76.3754 122.372 76.1688 122.845 75.9563 123.315L75.6629 124.034C75.5596 124.271 75.4847 124.519 75.3904 124.759C75.2991 125.001 75.2093 125.243 75.1344 125.491C75.0566 125.737 74.9743 125.982 74.9009 126.23C74.7692 126.73 74.621 127.226 74.5162 127.732C74.389 128.233 74.3171 128.747 74.2213 129.256C74.1809 129.512 74.1539 129.77 74.118 130.027L74.0686 130.413L74.0387 130.801L73.9758 131.579L73.9563 132.36L73.9444 132.752L73.9548 133.142L73.9683 133.928L73.865 133.149L73.8171 132.758L73.7902 132.364L73.7438 131.576V130.786C73.7438 130.653 73.7453 130.521 73.7498 130.391L73.7752 129.996C73.7947 129.733 73.8052 129.468 73.8306 129.205C73.895 128.681 73.9533 128.155 74.0566 127.637C74.106 127.377 74.1435 127.114 74.2093 126.859L74.395 126.087C74.4638 125.832 74.5417 125.579 74.6135 125.324C74.6839 125.068 74.7677 124.818 74.8545 124.568C75.0162 124.064 75.2213 123.577 75.4159 123.084C75.6299 122.6 75.835 122.114 76.076 121.644C76.5506 120.7 77.07 119.778 77.6493 118.898C78.2317 118.019 78.8484 117.163 79.519 116.353C80.1837 115.537 80.8947 114.762 81.6402 114.023C82.3902 113.29 83.1701 112.586 84.0144 111.967V111.968Z" fill="#390176"/>
<path d="M73.2547 109.379C73.2547 109.379 65.258 116.35 68.665 126.99C68.665 126.99 66.8732 120.167 73.2547 109.379Z" fill="#FF71B2"/>
<g style="mix-blend-mode:multiply" opacity="0.6">
<path d="M114.51 96.6977C112.408 96.5144 116.03 114.632 119.589 113.468L120.04 104.172L114.51 96.6977Z" fill="#B2A8C1"/>
</g>
<path d="M114.51 96.6992C115.96 97.3812 117.103 98.5664 118.02 99.8582C118.933 101.167 119.598 102.643 120.04 104.174C120.215 104.949 120.418 105.723 120.481 106.514C120.516 106.909 120.58 107.3 120.58 107.696C120.586 108.091 120.582 108.487 120.573 108.88C120.573 109.274 120.532 109.666 120.475 110.056C120.424 110.447 120.361 110.834 120.294 111.219C120.221 111.603 120.103 111.984 119.986 112.359C119.868 112.735 119.743 113.107 119.588 113.471C119.36 112.694 119.242 111.944 119.1 111.205C119.019 110.836 118.942 110.471 118.878 110.107C118.842 109.926 118.815 109.744 118.785 109.564C118.752 109.383 118.7 109.205 118.667 109.026C118.589 108.668 118.516 108.312 118.453 107.958C118.381 107.603 118.287 107.256 118.209 106.906C118.128 106.558 118.071 106.203 117.96 105.864L117.698 104.829C117.305 103.463 116.872 102.117 116.348 100.776C115.823 99.4316 115.243 98.0977 114.511 96.7007L114.51 96.6992Z" fill="#390176"/>
<path d="M127.138 143.467L124.758 142.974L119.507 168.461L121.888 168.955L127.138 143.467Z" fill="#390176"/>
<path d="M149.822 234.241L147.55 233.77L143.356 254.126L145.628 254.597L149.822 234.241Z" fill="#390176"/>
<path d="M136.387 160.822C136.244 160.819 121.976 160.533 113.969 161.239C113.363 161.293 112.801 161.352 112.298 161.413L111.855 161.468L109.107 159.138L110.698 154.335L136.56 150.778L138.428 152.739L137.122 160.835L136.387 160.82V160.822Z" fill="#390176"/>
<path d="M135.626 151.012L137.568 153.008L136.423 160.107C136.423 160.107 119.847 159.763 112.204 160.707L109.418 158.697L111.298 154.97L135.626 151.013V151.012Z" fill="#A57F4C"/>
<path d="M134.279 158.661C123.832 158.174 110.139 159.012 110.002 159.021L109.066 159.08L109.96 150.961L110.608 150.88C112.157 150.687 113.714 150.521 115.233 150.387C128.178 149.245 135.535 150.594 135.842 150.651L136.586 150.792L135.01 158.695L134.279 158.661Z" fill="#390176"/>
<path d="M110.703 151.585L109.964 158.307C109.964 158.307 123.721 157.451 134.34 157.947L135.656 151.35C135.656 151.35 126.505 149.621 110.703 151.585Z" fill="#FFD18D"/>
<path d="M45.4158 254.299C43.7916 254.441 42.0956 254.323 40.3741 253.943C33.8713 252.51 29.2277 249.711 26.1784 245.389C23.3058 241.317 21.8672 235.857 21.7789 228.695C21.6381 217.19 24.8446 201.877 30.4313 179.313L30.4807 179.115L30.566 178.93C30.8115 178.397 36.6661 165.824 44.2826 162.713C45.2182 162.331 46.1613 162.097 47.0864 162.015C47.9711 161.936 48.8543 161.997 49.7121 162.195C54.2928 163.254 58.0217 168.02 61.1114 176.767C64.9781 187.712 66.8732 200.855 66.4466 213.777C66.014 226.876 63.2326 238.062 58.613 245.275C55.1236 250.725 50.5609 253.845 45.4188 254.299H45.4158Z" fill="#390176"/>
<path d="M40.8332 251.84C28.8067 249.188 24.0823 241.696 23.9236 228.668C23.7814 216.996 27.3007 200.882 32.5131 179.831C32.5131 179.831 38.1716 167.532 45.0906 164.706C46.4348 164.158 47.8225 163.969 49.2297 164.292C52.5709 165.064 56.0004 168.749 59.0871 177.487C70.1646 208.844 63.6364 256.866 40.8347 251.84H40.8332Z" fill="#FFA300"/>
<path d="M40.833 251.839C71.4204 223.195 49.0603 164.586 49.0603 164.586L49.2279 164.293C52.5692 165.065 55.9987 168.75 59.0854 177.488C70.1629 208.845 63.6347 256.867 40.833 251.841V251.839Z" fill="#FFF3E0"/>
<g style="mix-blend-mode:multiply" opacity="0.6">
<path d="M40.8344 251.84C28.8079 249.188 24.0835 241.696 23.9248 228.668C25.4637 230.716 37.9408 246.528 48.5273 234.984C59.8308 222.659 45.0409 164.941 45.0409 164.941L45.0903 164.706C46.4346 164.158 47.8222 163.969 49.2294 164.292C52.5706 165.064 56.0001 168.749 59.0869 177.487C70.1643 208.844 63.6361 256.866 40.8344 251.84Z" fill="#B2A8C1"/>
</g>
<path d="M58.9706 168.957L58.8927 168.843L58.8882 168.84C53.1354 160.404 43.5594 159.909 38.35 160.369C33.4819 160.799 28.0494 162.337 22.2008 164.94C10.7835 170.025 3.17745 177.049 0.786811 184.717C-0.602366 189.17 -0.145794 193.487 2.10713 197.203C3.70438 199.836 5.11152 201.884 6.53962 203.644C11.8583 210.206 17.9 213.09 25.0121 212.463C25.3399 212.435 25.6767 212.397 26.0135 212.352C28.4102 212.034 30.5553 211.84 32.6301 211.652C39.561 211.027 53.5755 209.429 55.9108 190.981C56.068 189.737 59.0753 179.394 59.5364 178.235C61.4316 173.474 58.9721 168.957 58.9721 168.957H58.9706Z" fill="#390176"/>
<path d="M59.0302 183.043C59.0302 183.043 59.0272 183.046 59.0257 183.052C56.1202 190.358 53.6831 198.552 48.1234 203.852C42.5577 209.155 36.1432 208.268 25.6601 209.662C18.0211 210.678 12.7772 207.038 8.63814 201.932C8.11421 201.285 7.60524 200.613 7.11724 199.924L7.11125 199.918C6.16218 198.591 5.27149 197.199 4.41822 195.791C-0.36456 187.901 4.61582 175.739 23.2994 167.419C42.2359 158.987 52.4301 163.889 56.8567 170.667L56.8596 170.67C59.7084 175.036 60.1694 180.178 59.0287 183.041L59.0302 183.043Z" fill="#FFA300"/>
<path d="M59.029 183.043C56.1204 190.352 53.6848 198.551 48.1206 203.852C42.555 209.155 36.1405 208.269 25.6573 209.663C18.0183 210.678 12.7745 207.038 8.63538 201.933C8.63837 201.933 8.63837 201.936 8.64136 201.936C13.8882 204.516 22.5167 207.656 40.3424 201.175C48.938 198.051 55.5096 178.118 56.8539 170.67L56.8569 170.673C59.7056 175.04 60.1667 180.181 59.026 183.045L59.029 183.043Z" fill="#FFF3E0"/>
<path d="M33.8324 211.509C33.533 211.274 33.3099 211.074 33.0644 210.848C32.8249 210.628 32.5944 210.402 32.3684 210.173C31.9178 209.711 31.4896 209.229 31.087 208.726C30.2816 207.72 29.5705 206.627 29.0212 205.442C28.4718 204.26 28.0886 202.979 27.9718 201.661C27.849 200.347 28.0107 199.007 28.4164 197.78C29.2083 195.42 30.2472 193.174 31.4717 191.05C32.6917 188.925 34.0644 186.894 35.6138 185.015C34.2306 187.017 33.042 189.144 32.0196 191.336C30.9926 193.524 30.1693 195.802 29.6035 198.118C29.334 199.229 29.2951 200.367 29.4867 201.468C29.6753 202.569 30.0855 203.628 30.6409 204.61C31.1962 205.594 31.8968 206.504 32.6812 207.336C33.0734 207.753 33.4881 208.149 33.9192 208.525C34.1348 208.712 34.3548 208.894 34.5764 209.068C34.7919 209.237 35.0404 209.421 35.229 209.546L33.8324 211.509Z" fill="#390176"/>
<path d="M20.639 212.37C20.3396 212.134 20.1166 211.934 19.8711 211.709C19.6316 211.488 19.401 211.263 19.175 211.033C18.7244 210.572 18.2963 210.09 17.8936 209.586C17.0882 208.58 16.3772 207.488 15.8278 206.303C15.2784 205.12 14.8952 203.839 14.7784 202.522C14.6557 201.207 14.8174 199.867 15.223 198.64C16.0149 196.28 17.0538 194.035 18.2783 191.911C19.4983 189.785 20.871 187.754 22.4204 185.875C21.0372 187.877 19.8486 190.004 18.8262 192.196C17.7993 194.385 16.976 196.662 16.4101 198.978C16.1407 200.09 16.1017 201.227 16.2933 202.328C16.482 203.429 16.8921 204.488 17.4475 205.47C18.0029 206.454 18.7035 207.365 19.4879 208.197C19.8801 208.613 20.2947 209.01 20.7258 209.385C20.9414 209.573 21.1615 209.755 21.383 209.929C21.5986 210.097 21.8471 210.282 22.0357 210.406L20.639 212.37Z" fill="#390176"/>
<path d="M10.9184 208.085C10.619 207.849 10.396 207.649 10.1505 207.424C9.91099 207.203 9.68045 206.978 9.45441 206.748C9.00383 206.287 8.5757 205.804 8.17302 205.301C7.36765 204.295 6.6566 203.203 6.10722 202.017C5.55783 200.835 5.17461 199.554 5.05785 198.237C4.9351 196.922 5.09677 195.582 5.50245 194.355C6.29434 191.995 7.33322 189.749 8.55774 187.625C9.77776 185.5 11.1505 183.469 12.6998 181.59C11.3166 183.592 10.128 185.719 9.10562 187.911C8.07871 190.099 7.25538 192.377 6.68953 194.693C6.42008 195.805 6.38116 196.942 6.57277 198.043C6.76139 199.144 7.17155 200.203 7.72692 201.185C8.2823 202.169 8.98287 203.079 9.76728 203.912C10.1595 204.328 10.5741 204.724 11.0053 205.1C11.2208 205.288 11.4409 205.469 11.6624 205.644C11.878 205.812 12.1265 205.997 12.3151 206.121L10.9184 208.085Z" fill="#390176"/>
<g style="mix-blend-mode:multiply" opacity="0.6">
<path d="M59.024 183.051C56.1184 190.357 53.6814 198.551 48.1217 203.851C42.556 209.154 36.1415 208.267 25.6583 209.661C18.0193 210.677 12.7755 207.037 8.63639 201.931C8.11245 201.284 7.60349 200.612 7.11548 199.923C7.33403 200.106 14.4281 205.979 20.7528 205.855C27.1732 205.73 38.7133 204.554 44.5724 200.183C50.3372 195.879 58.762 183.438 59.0225 183.052L59.024 183.051Z" fill="#B2A8C1"/>
</g>
<path d="M109.154 257.399L108.678 239.401L111.314 257.208L109.154 257.399Z" fill="#390176"/>
<path d="M107.073 231.318C107.082 227.395 107.089 223.472 107.098 219.549C108.097 219.622 108.597 219.654 109.597 219.708C110.568 219.761 111.308 220.057 111.82 220.606C112.332 221.156 112.597 221.915 112.613 222.888C112.649 225.096 112.668 226.2 112.704 228.408C112.722 229.514 112.459 230.319 111.911 230.821C111.362 231.323 110.562 231.548 109.517 231.485C108.538 231.426 108.05 231.393 107.073 231.318ZM108.791 221.249C108.802 224.117 108.812 226.986 108.823 229.854C109.145 229.875 109.306 229.884 109.628 229.903C110.119 229.932 110.466 229.831 110.67 229.604C110.874 229.377 110.972 229.009 110.966 228.502C110.942 226.229 110.929 225.093 110.905 222.82C110.9 222.356 110.802 221.994 110.61 221.73C110.418 221.467 110.074 221.323 109.574 221.296C109.261 221.278 109.104 221.269 108.791 221.251V221.249Z" fill="#390176"/>
<path d="M114.114 222.666C114.104 222.191 114.178 221.772 114.337 221.41C114.496 221.048 114.71 220.747 114.981 220.509C115.24 220.28 115.538 220.108 115.871 219.987C116.205 219.869 116.544 219.809 116.886 219.809C117.229 219.809 117.57 219.869 117.913 219.987C118.255 220.108 118.579 220.279 118.855 220.51C119.13 220.74 119.358 221.051 119.54 221.414C119.722 221.776 119.823 222.197 119.843 222.673C119.946 225.173 119.997 226.423 120.099 228.922C120.12 229.421 120.051 229.849 119.894 230.206C119.737 230.564 119.524 230.86 119.258 231.096C118.979 231.342 118.668 231.527 118.32 231.65C117.973 231.773 117.621 231.833 117.265 231.832C116.909 231.83 116.553 231.766 116.198 231.641C115.843 231.515 115.526 231.316 115.244 231.079C114.963 230.84 114.716 230.543 114.536 230.185C114.357 229.828 114.262 229.4 114.25 228.903C114.196 226.407 114.169 225.161 114.116 222.666H114.114ZM115.993 228.934C116.005 229.344 116.129 229.646 116.368 229.843C116.608 230.038 116.889 230.137 117.21 230.139C117.53 230.139 117.804 230.043 118.033 229.849C118.261 229.655 118.367 229.352 118.353 228.942C118.265 226.444 118.222 225.194 118.133 222.696C118.118 222.286 117.994 221.985 117.759 221.793C117.524 221.601 117.252 221.504 116.94 221.503C116.629 221.503 116.362 221.599 116.139 221.79C115.916 221.982 115.81 222.283 115.822 222.691C115.891 225.188 115.925 226.436 115.994 228.933L115.993 228.934Z" fill="#390176"/>
<path d="M121.247 222.639C121.225 222.163 121.289 221.739 121.439 221.368C121.588 220.997 121.796 220.685 122.061 220.431C122.316 220.187 122.608 219.998 122.94 219.861C123.271 219.725 123.608 219.647 123.951 219.63C124.293 219.612 124.636 219.654 124.98 219.756C125.325 219.858 125.653 220.015 125.934 220.231C126.214 220.447 126.45 220.748 126.641 221.102C126.831 221.457 126.941 221.873 126.973 222.349C126.988 222.589 126.997 222.708 127.012 222.948C126.328 222.996 125.986 223.019 125.302 223.059C125.287 222.819 125.281 222.7 125.266 222.46C125.242 222.05 125.109 221.754 124.871 221.574C124.632 221.392 124.356 221.311 124.045 221.326C123.733 221.342 123.47 221.452 123.251 221.656C123.033 221.861 122.936 222.167 122.957 222.577C123.085 225.078 123.15 226.33 123.28 228.831C123.301 229.241 123.434 229.538 123.678 229.723C123.922 229.906 124.205 229.992 124.525 229.977C124.846 229.962 125.118 229.851 125.341 229.643C125.564 229.436 125.663 229.128 125.639 228.716C125.587 227.824 125.56 227.378 125.507 226.487C124.958 226.519 124.683 226.534 124.133 226.559C124.1 225.96 124.084 225.661 124.051 225.062C125.287 225.002 125.904 224.966 127.139 224.879C127.236 226.37 127.284 227.115 127.382 228.607C127.414 229.106 127.356 229.54 127.208 229.906C127.06 230.273 126.853 230.582 126.594 230.832C126.322 231.093 126.015 231.296 125.671 231.437C125.326 231.578 124.976 231.658 124.62 231.674C124.263 231.691 123.906 231.646 123.548 231.538C123.19 231.429 122.867 231.248 122.581 231.024C122.293 230.798 122.039 230.515 121.85 230.165C121.662 229.815 121.557 229.391 121.534 228.892C121.419 226.391 121.362 225.141 121.249 222.64L121.247 222.639Z" fill="#390176"/>
<path d="M129.114 231.29C128.837 227.34 128.559 223.391 128.282 219.44C130.295 219.272 131.301 219.17 133.311 218.928C133.367 219.566 133.395 219.886 133.451 220.526C132.108 220.687 131.437 220.759 130.091 220.887C130.198 222.277 130.25 222.974 130.356 224.365C131.542 224.254 132.135 224.193 133.317 224.056C133.373 224.696 133.4 225.014 133.455 225.654C132.265 225.791 131.669 225.853 130.478 225.964C130.584 227.355 130.636 228.052 130.743 229.443C132.126 229.315 132.817 229.243 134.199 229.081C134.259 229.76 134.289 230.099 134.347 230.778C132.258 231.021 131.21 231.124 129.114 231.29Z" fill="#390176"/>
<path d="M135.482 230.641C135.121 226.692 134.762 222.741 134.401 218.792C135.048 218.71 135.371 218.666 136.018 218.574C137.126 220.963 137.687 222.152 138.831 224.524C138.844 224.523 138.85 224.521 138.864 224.52C139.478 221.876 139.774 220.551 140.349 217.897C141 217.784 141.325 217.726 141.974 217.605C142.437 221.55 142.9 225.495 143.362 229.438C142.666 229.564 142.317 229.626 141.618 229.743C141.298 226.863 141.136 225.423 140.816 222.543C140.802 222.546 140.796 222.546 140.783 222.549C140.335 224.699 140.105 225.773 139.633 227.916C139.286 227.97 139.112 227.997 138.765 228.05C137.874 226.117 137.436 225.146 136.567 223.204L136.535 223.208C136.814 226.091 136.954 227.532 137.234 230.413C136.533 230.509 136.183 230.554 135.482 230.641Z" fill="#390176"/>
<path d="M143.792 220.115C143.733 219.639 143.765 219.202 143.885 218.804C144.004 218.406 144.185 218.057 144.428 217.759C144.66 217.473 144.935 217.234 145.253 217.043C145.57 216.853 145.896 216.719 146.235 216.645C146.572 216.572 146.914 216.558 147.263 216.606C147.612 216.653 147.949 216.758 148.242 216.929C148.536 217.101 148.793 217.366 149.007 217.692C149.223 218.018 149.363 218.419 149.431 218.894C149.784 221.388 149.961 222.633 150.315 225.126C150.386 225.624 150.362 226.07 150.244 226.462C150.125 226.855 149.946 227.199 149.708 227.492C149.459 227.799 149.17 228.053 148.842 228.251C148.513 228.449 148.173 228.586 147.822 228.661C147.47 228.736 147.113 228.748 146.751 228.699C146.389 228.648 146.055 228.517 145.754 228.338C145.453 228.159 145.179 227.913 144.965 227.592C144.753 227.27 144.615 226.86 144.554 226.361C144.248 223.863 144.096 222.613 143.789 220.115H143.792ZM146.278 226.017C146.331 226.427 146.485 226.705 146.741 226.851C146.997 226.997 147.283 227.036 147.598 226.968C147.914 226.901 148.175 226.744 148.38 226.499C148.585 226.256 148.658 225.929 148.603 225.519C148.263 223.024 148.094 221.777 147.754 219.282C147.699 218.873 147.545 218.597 147.295 218.452C147.045 218.31 146.766 218.271 146.459 218.337C146.152 218.403 145.899 218.558 145.7 218.798C145.5 219.04 145.426 219.364 145.479 219.773C145.799 222.269 145.959 223.518 146.28 226.016L146.278 226.017Z" fill="#390176"/>
<path d="M156.404 217.685C155.738 217.878 155.406 217.973 154.738 218.159C154.714 218.008 154.702 217.931 154.677 217.779C154.615 217.393 154.472 217.085 154.249 216.854C154.025 216.623 153.702 216.565 153.279 216.68C153.051 216.741 152.873 216.834 152.746 216.961C152.618 217.087 152.517 217.228 152.454 217.383C152.386 217.545 152.353 217.727 152.349 217.917C152.344 218.108 152.356 218.302 152.386 218.502C152.422 218.733 152.46 218.924 152.499 219.074C152.539 219.224 152.6 219.352 152.684 219.456C152.768 219.559 152.88 219.64 153.02 219.694C153.159 219.75 153.346 219.792 153.579 219.822C154.124 219.89 154.398 219.923 154.945 219.986C155.34 220.026 155.669 220.109 155.931 220.237C156.193 220.364 156.422 220.536 156.584 220.75C156.75 220.968 156.88 221.257 156.98 221.58C157.081 221.903 157.166 222.278 157.236 222.708C157.319 223.203 157.346 223.677 157.316 224.13C157.286 224.582 157.184 224.991 157.009 225.351C156.826 225.726 156.557 226.056 156.204 226.337C155.85 226.618 155.398 226.834 154.849 226.98C154.433 227.091 154.034 227.12 153.653 227.068C153.271 227.017 152.931 226.897 152.635 226.708C152.338 226.519 152.09 226.274 151.889 225.975C151.689 225.676 151.56 225.326 151.502 224.929C151.464 224.677 151.446 224.552 151.41 224.3C152.093 224.133 152.434 224.048 153.115 223.872C153.147 224.084 153.163 224.19 153.196 224.402C153.243 224.712 153.377 224.965 153.599 225.167C153.822 225.367 154.151 225.41 154.587 225.294C154.877 225.216 155.097 225.114 155.246 224.988C155.394 224.862 155.5 224.709 155.566 224.53C155.63 224.351 155.654 224.151 155.636 223.932C155.618 223.713 155.588 223.471 155.546 223.206C155.497 222.899 155.445 222.648 155.392 222.455C155.338 222.263 155.269 222.108 155.183 222.012C155.093 221.913 154.969 221.841 154.829 221.799C154.69 221.757 154.509 221.719 154.284 221.688C153.77 221.62 153.512 221.584 152.999 221.512C152.225 221.404 151.677 221.132 151.356 220.702C151.036 220.273 150.822 219.687 150.714 218.948C150.65 218.506 150.648 218.072 150.71 217.644C150.771 217.217 150.906 216.828 151.096 216.481C151.283 216.142 151.538 215.834 151.862 215.571C152.187 215.308 152.593 215.111 153.079 214.981C153.49 214.87 153.876 214.844 154.241 214.903C154.605 214.963 154.931 215.083 155.222 215.265C155.804 215.651 156.154 216.184 156.266 216.866C156.322 217.196 156.349 217.362 156.403 217.692L156.404 217.685Z" fill="#390176"/>
<path d="M159.117 225.67C158.45 221.753 157.784 217.837 157.116 213.923C157.773 213.724 158.101 213.622 158.755 213.415C159.444 217.327 160.134 221.238 160.822 225.148C160.141 225.362 159.8 225.465 159.117 225.67Z" fill="#390176"/>
<path d="M166.269 214.417C165.614 214.66 165.288 214.78 164.632 215.015C164.603 214.864 164.588 214.788 164.559 214.638C164.484 214.255 164.332 213.956 164.101 213.739C163.87 213.523 163.549 213.488 163.133 213.634C162.908 213.712 162.734 213.819 162.613 213.954C162.49 214.089 162.396 214.24 162.338 214.399C162.276 214.567 162.249 214.752 162.252 214.944C162.254 215.136 162.273 215.33 162.311 215.528C162.354 215.758 162.397 215.947 162.442 216.096C162.487 216.245 162.553 216.368 162.64 216.466C162.727 216.565 162.841 216.637 162.981 216.682C163.122 216.727 163.309 216.757 163.541 216.769C164.085 216.798 164.357 216.811 164.902 216.834C165.296 216.846 165.625 216.904 165.89 217.014C166.155 217.122 166.387 217.28 166.556 217.483C166.728 217.69 166.867 217.969 166.978 218.286C167.089 218.603 167.186 218.976 167.272 219.401C167.37 219.892 167.414 220.367 167.399 220.823C167.385 221.28 167.299 221.698 167.137 222.072C166.969 222.461 166.713 222.812 166.372 223.12C166.032 223.428 165.591 223.677 165.049 223.865C164.64 224.006 164.245 224.065 163.865 224.043C163.484 224.02 163.143 223.922 162.842 223.754C162.541 223.586 162.287 223.358 162.076 223.072C161.866 222.785 161.725 222.444 161.654 222.049C161.609 221.798 161.586 221.674 161.54 221.424C162.212 221.206 162.547 221.095 163.218 220.87L163.317 221.396C163.374 221.702 163.516 221.949 163.743 222.135C163.971 222.32 164.3 222.339 164.728 222.19C165.014 222.091 165.228 221.973 165.372 221.834C165.516 221.696 165.616 221.535 165.673 221.351C165.731 221.166 165.746 220.965 165.722 220.745C165.697 220.526 165.659 220.286 165.607 220.023C165.547 219.716 165.487 219.468 165.427 219.279C165.367 219.09 165.293 218.94 165.204 218.85C165.113 218.756 164.986 218.693 164.845 218.66C164.706 218.627 164.525 218.605 164.302 218.588C163.788 218.557 163.532 218.54 163.019 218.506C162.246 218.453 161.694 218.219 161.36 217.812C161.028 217.403 160.794 216.831 160.661 216.096C160.582 215.658 160.565 215.22 160.612 214.786C160.658 214.352 160.778 213.953 160.956 213.591C161.13 213.236 161.371 212.907 161.685 212.62C161.999 212.333 162.395 212.106 162.872 211.938C163.275 211.797 163.658 211.743 164.022 211.776C164.385 211.809 164.713 211.907 165.008 212.067C165.599 212.413 165.965 212.922 166.101 213.6C166.167 213.927 166.2 214.091 166.266 214.418L166.269 214.417Z" fill="#390176"/>
<path d="M149.286 179.289C148.565 177.865 146.933 176.665 144.209 175.549C142.024 174.664 139.842 174.383 138.227 174.777C137.903 174.856 137.616 174.955 137.334 175.086C136.629 175.409 136.09 176.085 135.838 176.962C135.526 178.005 135.661 179.269 136.137 179.938C136.302 180.139 136.507 180.39 136.734 180.605C136.559 180.77 136.394 180.923 136.24 181.063C136.008 181.27 135.797 181.449 135.607 181.604C133.585 181.378 131.472 181.5 129.351 182.02C119.753 184.366 113.53 193.89 115.449 203.293C117.368 212.697 126.7 218.415 136.299 216.067C145.897 213.721 152.12 204.198 150.201 194.794C149.497 191.348 147.794 188.4 145.448 186.16C145.464 185.503 145.532 184.799 145.641 184.075C146.075 184.09 146.499 184.046 146.909 183.946C147.994 183.68 148.846 183.019 149.274 182.1C149.702 181.18 149.726 180.087 149.286 179.289ZM116.096 200.239C116.096 200.256 116.096 200.272 116.096 200.289C116.096 200.256 116.096 200.224 116.094 200.191C116.094 200.208 116.094 200.224 116.094 200.239H116.096Z" fill="#390176"/>
<path d="M137.166 214.507C132.571 215.934 128.092 215.575 127.903 215.559L127.453 215.521L126.543 212.187C125.76 211.613 122.914 209.349 122.074 206.27C121.788 205.223 121.598 204.357 121.472 203.549C121.29 202.368 121.252 201.311 121.359 200.318C121.489 199.088 121.841 197.954 122.435 196.85C123.933 194.062 124.373 191.975 123.903 189.872C123.394 187.59 123.67 186.267 124.721 185.941C125.18 185.798 125.695 185.901 126.296 186.252C127.498 186.955 128.516 187.972 128.992 188.486C130.192 188.14 133.658 187.17 135.36 186.973C135.849 186.055 137.202 183.601 138.403 182.157C139.267 181.119 140.012 180.53 140.749 180.302C141.711 180.003 142.615 180.311 143.436 181.214L143.537 181.326V181.331C143.593 181.393 143.645 181.459 143.699 181.528C144.813 182.953 145.403 185.469 145.876 187.493C146.06 188.278 146.219 188.957 146.37 189.39C146.783 190.577 147.055 191.491 147.171 191.891C147.819 192.391 149.693 194.146 149.672 197.655C149.672 197.813 149.668 197.978 149.66 198.147C149.563 200.626 148.65 206.932 142.311 211.904C140.901 213.01 139.171 213.887 137.165 214.509L137.166 214.507Z" fill="#390176"/>
<path d="M148.99 197.68C148.99 197.833 148.986 197.989 148.978 198.149C148.827 201.969 147.077 207.321 141.904 211.381C136.515 215.61 127.991 214.885 127.991 214.885L127.139 211.761C127.139 211.761 123.636 209.383 122.729 206.063C122.479 205.144 122.274 204.265 122.144 203.414C121.981 202.356 121.928 201.344 122.034 200.354C122.15 199.262 122.463 198.198 123.031 197.141C124.53 194.353 125.102 192.084 124.567 189.693C124.034 187.303 124.371 185.921 125.928 186.831C127.485 187.742 128.744 189.247 128.744 189.247C128.744 189.247 134.122 187.658 135.775 187.61C135.775 187.61 137.486 184.29 138.919 182.568C140.276 180.939 141.547 180.165 142.919 181.675C142.996 181.76 143.074 181.852 143.151 181.951C144.612 183.821 145.174 188.06 145.722 189.633C146.27 191.206 146.573 192.311 146.573 192.311C146.573 192.311 149.013 193.84 148.989 197.681L148.99 197.68Z" fill="#FFA300"/>
<path d="M148.982 198.149C148.831 201.969 147.081 207.321 141.908 211.382C136.519 215.61 127.995 214.886 127.995 214.886L127.143 211.762C127.143 211.762 123.64 209.384 122.733 206.064C122.172 204.005 121.845 202.141 122.038 200.356C123.009 199.01 123.591 199.177 124.272 200.257C124.955 201.335 124.869 201.685 126.82 200.99C128.77 200.294 130.08 200.299 133.728 201.026C137.376 201.753 138.086 199.557 140.557 197.28C143.029 195.002 144.798 195.382 146.535 195.845C148.271 196.308 148.982 198.149 148.982 198.149Z" fill="#FFF3E0"/>
<path d="M140.322 182.48C140.322 182.48 142.632 185.713 142.704 188.594C142.704 188.594 139.933 187.595 137.763 187.921C137.763 187.921 139.486 187.32 140.369 186.357C141.56 185.058 140.322 182.48 140.322 182.48Z" fill="#390176"/>
<g style="mix-blend-mode:multiply" opacity="0.6">
<path d="M148.99 197.682C148.99 197.835 148.986 197.991 148.978 198.151C148.827 201.971 147.077 207.323 141.904 211.383C136.515 215.612 127.991 214.888 127.991 214.888L127.139 211.763C127.139 211.763 123.636 209.385 122.729 206.065C122.479 205.146 122.274 204.267 122.144 203.416C122.632 202.522 123.651 203.339 124.301 204.415C124.952 205.49 126.472 207.574 126.786 207.649C127.1 207.722 127.341 206.839 126.879 206.449C126.415 206.056 125.654 204.577 125.654 204.577C125.654 204.577 130.501 202.723 130.545 203.175C130.588 203.626 129.558 205.806 130.409 206.527C131.259 207.246 132.657 206.702 134.185 205.764C135.714 204.825 136.028 203.797 137.387 203.189C138.747 202.581 139.275 201.745 141.202 200.521C143.128 199.3 146.345 199.318 146.345 199.318C147.121 196.057 145.308 192.902 143.649 190.745C141.99 188.588 137.765 187.926 137.765 187.926C139.628 187.347 141.339 187.513 142.621 187.724C143.902 187.936 144.182 187.908 144.11 186.769C144.037 185.63 143.709 183.99 142.922 181.68C142.999 181.764 143.077 181.855 143.154 181.955C144.615 183.825 145.177 188.064 145.725 189.637C146.273 191.209 146.576 192.315 146.576 192.315C146.576 192.315 149.016 193.844 148.992 197.685L148.99 197.682Z" fill="#DBB89E"/>
</g>
<path d="M136.392 197.931C136.055 198.036 135.744 198.121 135.467 198.184C134.977 198.295 133.491 198.631 133.22 197.638C133.021 196.907 133.48 195.686 134.482 195.031C134.703 194.886 134.944 194.774 135.197 194.694C135.26 194.675 135.326 194.657 135.393 194.64C137.082 194.242 137.795 194.913 138.229 195.544C138.281 195.619 138.321 195.704 138.347 195.791C138.395 195.947 138.401 196.118 138.36 196.295V196.304C138.356 196.315 138.348 196.345 138.348 196.345C138.167 197.009 137.423 197.61 136.393 197.93L136.392 197.931Z" fill="#390176"/>
<path d="M138.127 195.865C138.166 195.99 138.169 196.128 138.136 196.271C138.136 196.271 138.136 196.274 138.136 196.277C138.011 196.797 137.414 197.384 136.335 197.719C136.013 197.818 135.709 197.902 135.428 197.967C134.357 198.21 133.603 198.165 133.441 197.572C133.278 196.974 133.651 195.84 134.603 195.218C134.844 195.06 135.122 194.935 135.438 194.86C137.002 194.491 137.646 195.104 138.04 195.679C138.08 195.738 138.11 195.799 138.13 195.865H138.127Z" fill="#FFF3E0"/>
<path d="M138.127 195.865C138.145 196.002 138.148 196.137 138.136 196.271C138.136 196.271 138.136 196.274 138.136 196.277C138.012 196.797 137.415 197.384 136.336 197.719C136.014 197.818 135.71 197.902 135.428 197.967C134.915 197.764 134.508 197.337 134.352 196.767C134.205 196.227 134.312 195.67 134.602 195.218C134.843 195.06 135.122 194.935 135.437 194.86C137.002 194.491 137.645 195.104 138.039 195.679C138.08 195.738 138.109 195.799 138.129 195.865H138.127Z" fill="#390176"/>
<path d="M136.672 195.779C136.849 195.644 136.89 195.396 136.761 195.226C136.633 195.056 136.385 195.028 136.207 195.163C136.029 195.299 135.989 195.546 136.117 195.716C136.245 195.886 136.494 195.914 136.672 195.779Z" fill="#FFF3E0"/>
<path d="M125.897 203.57L125.349 203.194C126.213 201.998 127.761 197.606 127.776 197.562L128.418 197.756C128.354 197.941 126.821 202.29 125.897 203.568V203.57Z" fill="#390176"/>
<path d="M127.017 199.404C126.967 199.419 126.917 199.433 126.864 199.443C126.366 199.544 125.846 199.395 125.542 199.062C125.292 198.788 125.219 198.428 125.336 198.048C125.427 197.753 125.533 197.51 125.664 197.307C125.897 196.941 126.212 196.7 126.622 196.573C126.75 196.534 126.89 196.502 127.051 196.479C127.506 196.415 128.114 196.643 128.343 197.136C128.518 197.514 128.532 198.157 127.59 199.066C127.429 199.222 127.235 199.337 127.015 199.404H127.017Z" fill="#390176"/>
<path d="M127.439 198.907C127.266 199.076 127.053 199.178 126.833 199.221C126.112 199.367 125.315 198.889 125.556 198.102C125.641 197.823 125.742 197.599 125.857 197.42C126.164 196.938 126.576 196.771 127.077 196.701C127.764 196.603 129.04 197.363 127.441 198.907H127.439Z" fill="#FFF3E0"/>
<path d="M127.439 198.907C127.266 199.075 127.053 199.177 126.833 199.221C126.36 199.102 125.969 198.748 125.833 198.247C125.757 197.968 125.77 197.681 125.857 197.418C126.164 196.936 126.575 196.769 127.077 196.699C127.764 196.601 129.039 197.361 127.441 198.905L127.439 198.907Z" fill="#390176"/>
<path d="M127.496 197.478C127.597 197.401 127.62 197.26 127.547 197.162C127.473 197.065 127.331 197.049 127.23 197.126C127.128 197.203 127.105 197.345 127.179 197.442C127.252 197.539 127.394 197.555 127.496 197.478Z" fill="#FFF3E0"/>
<path d="M125.656 204.576C124.706 203.557 125.49 202.444 126.502 202.118C127.514 201.792 128.622 201.229 129.541 201.461C130.46 201.692 130.957 202.812 130.225 203.969C129.493 205.127 129.011 205.974 128.075 206.032C127.14 206.09 125.992 204.935 125.656 204.576Z" fill="#390176"/>
<path d="M126.443 204.447C126.383 204.465 126.317 204.46 126.262 204.427C126.235 204.411 125.591 204.022 125.719 203.406C125.781 203.104 126.168 202.541 127.218 202.348C127.343 202.326 127.457 202.407 127.474 202.529C127.491 202.65 127.404 202.768 127.28 202.79C126.448 202.942 126.192 203.335 126.163 203.475C126.1 203.782 126.506 204.035 126.509 204.038C126.614 204.101 126.644 204.238 126.575 204.346C126.543 204.396 126.495 204.43 126.443 204.447Z" fill="#FFF3E0"/>
<path d="M128.665 207.755C128.484 207.812 128.297 207.713 128.249 207.536L127.74 205.67C127.692 205.493 127.8 205.304 127.981 205.247C128.162 205.19 128.349 205.289 128.397 205.466L128.906 207.332C128.954 207.509 128.846 207.698 128.665 207.755Z" fill="#390176"/>
<path d="M133.214 207.717C132.262 208.013 131.279 207.96 129.566 207.738C128.592 207.612 128.219 207.95 127.824 208.306C127.545 208.558 127.23 208.844 126.74 208.874C125.625 208.943 124.86 206.461 124.652 205.698C124.604 205.521 124.712 205.332 124.893 205.275C125.074 205.218 125.261 205.317 125.309 205.494C125.703 206.931 126.379 208.222 126.728 208.201C126.957 208.187 127.116 208.054 127.376 207.818C127.803 207.43 128.388 206.901 129.683 207.068C131.53 207.307 132.457 207.34 133.411 206.936C134.208 206.597 135.705 204.955 136.214 204.351C136.339 204.205 136.553 204.18 136.695 204.295C136.837 204.411 136.852 204.623 136.729 204.768C136.53 205.004 134.755 207.086 133.655 207.553C133.506 207.616 133.36 207.671 133.213 207.716L133.214 207.717Z" fill="#390176"/>
<path d="M133.002 210.565C129.308 211.711 127.802 209.605 127.733 209.503C127.63 209.353 127.673 209.141 127.83 209.033C127.987 208.923 128.197 208.956 128.3 209.105C128.369 209.202 129.999 211.421 134.275 209.341C134.447 209.258 134.647 209.324 134.724 209.491C134.8 209.657 134.724 209.86 134.552 209.943C133.998 210.212 133.481 210.416 133.002 210.565Z" fill="#390176"/>
<path d="M133.873 192.848C133.252 193.622 133.671 194.579 135.03 193.963C136.388 193.347 136.787 192.195 135.901 191.996C135.015 191.798 134.496 192.075 133.874 192.848H133.873Z" fill="#FFF3E0"/>
<path d="M128.146 194.69C128.663 195.259 128.363 196.123 127.269 195.786C126.175 195.45 125.822 194.532 126.516 194.245C127.211 193.958 127.63 194.122 128.148 194.69H128.146Z" fill="#FFF3E0"/>
<path d="M129.083 189.106C128.947 189.151 128.793 189.21 128.648 189.27C128.501 189.33 128.354 189.395 128.211 189.464C127.922 189.6 127.639 189.754 127.363 189.92C127.089 190.09 126.827 190.279 126.579 190.488C126.333 190.7 126.107 190.936 125.907 191.199C126.059 190.909 126.245 190.632 126.459 190.374C126.676 190.12 126.914 189.878 127.167 189.656C127.422 189.435 127.69 189.226 127.967 189.033C128.106 188.935 128.246 188.842 128.392 188.752C128.538 188.66 128.679 188.576 128.842 188.49L129.082 189.109L129.083 189.106Z" fill="#390176"/>
<path d="M127.06 211.729C127.163 211.82 127.287 211.918 127.409 212.008C127.53 212.1 127.656 212.187 127.784 212.272C128.04 212.442 128.307 212.597 128.584 212.736C128.861 212.875 129.15 212.99 129.449 213.086C129.75 213.177 130.061 213.237 130.383 213.261C130.06 213.292 129.731 213.289 129.406 213.252C129.082 213.208 128.761 213.142 128.446 213.052C128.133 212.959 127.825 212.849 127.526 212.72C127.376 212.655 127.226 212.588 127.079 212.516C126.931 212.442 126.791 212.37 126.638 212.278L127.06 211.73V211.729Z" fill="#390176"/>
<path d="M146.602 192.316C146.403 192.017 146.187 191.717 145.969 191.422C145.75 191.128 145.524 190.839 145.289 190.558C145.055 190.276 144.81 190.003 144.549 189.744C144.287 189.487 144.017 189.237 143.695 189.049C144.045 189.186 144.359 189.396 144.665 189.614C144.969 189.833 145.259 190.07 145.539 190.318C145.82 190.564 146.094 190.82 146.361 191.081C146.629 191.344 146.889 191.608 147.147 191.888L146.6 192.316H146.602Z" fill="#390176"/>
</g>
<defs>
<clipPath id="clip0_1582_13904">
<rect width="196.819" height="265.179" fill="white"/>
</clipPath>
</defs>
</svg>
