<svg width="90" height="88" viewBox="0 0 90 88" fill="none" xmlns="http://www.w3.org/2000/svg">
<mask id="mask0_1582_13891" style="mask-type:alpha" maskUnits="userSpaceOnUse" x="0" y="0" width="90" height="88">
<path d="M81.701 0.816406C81.0568 0.816406 80.4168 0.919577 79.8053 1.122L5.01973 25.8768C2.55023 26.6942 0.882812 29.0026 0.882812 31.6038V81.3065C0.882812 84.6382 3.58371 87.3391 6.91543 87.3391H12.5675L87.0109 36.2769C88.6509 35.1519 89.6312 33.2909 89.6312 31.3021V5.34087C89.6312 2.84208 87.6055 0.816406 85.1067 0.816406H81.701Z" fill="url(#paint0_linear_1582_13891)"/>
</mask>
<g mask="url(#mask0_1582_13891)">
<path d="M79.5418 1.28549L0.882812 26.9678L13.4022 29.1935L89.6311 4.71121L89.9094 0.538086L82.4897 0.769224C81.4875 0.800445 80.4949 0.97428 79.5418 1.28549Z" fill="url(#paint1_linear_1582_13891)"/>
<path d="M15.3496 26.9678H0.882812V84.1153C0.882812 85.7532 2.1899 87.0918 3.82733 87.1308L10.3249 87.2855C11.7813 87.3202 13.2101 86.8853 14.4002 86.0452L17.2971 84.0004L15.3496 26.9678Z" fill="url(#paint2_linear_1582_13891)"/>
<mask id="mask1_1582_13891" style="mask-type:alpha" maskUnits="userSpaceOnUse" x="12" y="2" width="78" height="83">
<path d="M87.3372 36.0522L17.2889 84.0998C15.2873 85.4728 12.5664 84.0396 12.5664 81.6124V32.3721C12.5664 29.1413 14.6245 26.2695 17.684 25.2313L84.648 2.50705C87.0931 1.67729 89.63 3.49537 89.63 6.07746V31.6993C89.63 33.4395 88.7723 35.0679 87.3372 36.0522Z" fill="#D9D9D9"/>
</mask>
<g mask="url(#mask1_1582_13891)">
<path d="M89.63 34.4796L12.5664 87.3391V26.968L89.63 0.816406V34.4796Z" fill="url(#paint3_linear_1582_13891)"/>
<path d="M42.0223 50.5011L41.0955 49.5838C37.6578 46.22 35.2714 43.8778 35.2783 39.5251C35.2853 35.9727 37.0007 32.5634 39.0965 31.7696C40.2447 31.3337 41.3168 31.8021 42.0085 32.8952C42.6864 31.2686 43.7101 30.0194 44.7614 29.6225C46.5598 28.9394 47.9363 30.8522 47.9432 33.9752C47.9571 37.7944 46.0272 41.9324 42.9285 48.5493L42.0154 50.5011H42.0223Z" fill="white"/>
<path d="M50.1367 36.1103L52.0043 35.2319L52.0527 44.9718L50.1782 46.0584L50.1367 36.1103ZM57.5586 41.7707L52.779 44.5489L52.7236 34.3341L53.7819 30.7426L54.0517 26.6372C54.0725 26.3054 54.1555 25.9865 54.28 25.7263C54.4045 25.466 54.5636 25.2904 54.7296 25.2318L54.778 25.2123C55.0477 25.1147 55.3106 25.2253 55.4973 25.5246C55.691 25.8239 55.7948 26.2858 55.8017 26.8063L55.8294 30.7621L58.4232 29.617C58.7552 29.4739 59.0734 29.5975 59.3086 29.9749C59.5437 30.3457 59.6752 30.9313 59.6821 31.6014L59.7236 36.0387C59.7305 37.2163 59.5161 38.4721 59.1149 39.5456C58.7137 40.6256 58.1534 41.4259 57.5586 41.7772V41.7707Z" fill="white"/>
<path d="M66.8274 32.3166L66.8066 30.4168L69.1169 21.4187L70.2582 20.9697L70.3619 28.4324L70.9637 28.1331L70.9914 30.124L70.3896 30.4428L70.4242 32.7851L69.442 33.3316L69.4074 30.9568L66.8343 32.3101L66.8274 32.3166ZM69.3728 23.813L67.9549 29.6361L69.4351 28.8944L69.3659 23.813H69.3728Z" fill="white"/>
<path d="M62.7736 34.1578C63.2993 32.9086 63.7143 31.8936 64.0255 31.1064C64.3299 30.3126 64.5789 29.5253 64.7726 28.7446C64.9662 27.9703 65.0631 27.2547 65.0562 26.5975C65.0562 25.9989 64.9801 25.5565 64.8487 25.2702C64.7172 24.984 64.5166 24.8929 64.2469 25.01C63.9771 25.1271 63.7696 25.4134 63.6244 25.8818C63.4791 26.3373 63.4099 26.9163 63.4099 27.6125L62.2617 28.12C62.2686 26.6496 62.4623 25.4654 62.8289 24.5611C63.2024 23.6697 63.6728 23.1102 64.24 22.8955C64.8487 22.6612 65.319 22.8369 65.6441 23.416C65.9692 23.982 66.1352 24.8343 66.149 25.9794C66.1629 26.8838 66.0591 27.7947 65.8516 28.7186C65.6441 29.649 65.3951 30.5013 65.1184 31.2625C64.8348 32.0237 64.4682 32.9606 64.0048 34.0927L66.3565 32.85L66.3773 34.8735L62.3586 37.1116L62.3378 35.1988L62.7736 34.1578Z" fill="white"/>
</g>
</g>
<defs>
<linearGradient id="paint0_linear_1582_13891" x1="17.0189" y1="45.9473" x2="7.1503" y2="126.776" gradientUnits="userSpaceOnUse">
<stop stop-color="#291A87"/>
<stop offset="0.508576" stop-color="#FF8642"/>
<stop offset="1" stop-color="#D44ABE"/>
</linearGradient>
<linearGradient id="paint1_linear_1582_13891" x1="82.0951" y1="1.09156" x2="13.4404" y2="29.8343" gradientUnits="userSpaceOnUse">
<stop stop-color="#F5DFC1"/>
<stop offset="0.508576" stop-color="#FF8642"/>
<stop offset="1" stop-color="#D44ABE"/>
</linearGradient>
<linearGradient id="paint2_linear_1582_13891" x1="17.5753" y1="35.0358" x2="17.5753" y2="89.5646" gradientUnits="userSpaceOnUse">
<stop stop-color="#291A87"/>
<stop offset="0.508576" stop-color="#FF8642"/>
<stop offset="1" stop-color="#D44ABE"/>
</linearGradient>
<linearGradient id="paint3_linear_1582_13891" x1="115.503" y1="17.7871" x2="8.34166" y2="85.7821" gradientUnits="userSpaceOnUse">
<stop stop-color="#F3E0FA"/>
<stop offset="0.329161" stop-color="#FF8642"/>
<stop offset="0.606741" stop-color="#CA36FE"/>
<stop offset="1" stop-color="#492CE1"/>
</linearGradient>
</defs>
</svg>
