<svg width="24" height="25" viewBox="0 0 24 25" fill="none" xmlns="http://www.w3.org/2000/svg">
<path d="M7.67069 11.5213C7.1886 11.5213 6.71123 11.4264 6.26584 11.2419C5.82044 11.0574 5.41575 10.787 5.07486 10.4461C4.73397 10.1052 4.46356 9.7005 4.27908 9.2551C4.09459 8.80971 3.99963 8.33234 3.99963 7.85025C3.99963 7.36816 4.09459 6.89079 4.27908 6.4454C4.46356 6.00001 4.73397 5.59531 5.07486 5.25443C5.41575 4.91354 5.82044 4.64313 6.26584 4.45864C6.71123 4.27415 7.1886 4.1792 7.67069 4.1792C8.64431 4.1792 9.57806 4.56597 10.2665 5.25443C10.955 5.94288 11.3417 6.87663 11.3417 7.85025C11.3417 8.82388 10.955 9.75762 10.2665 10.4461C9.57806 11.1345 8.64431 11.5213 7.67069 11.5213ZM7.67069 19.6792C6.69706 19.6792 5.76332 19.2924 5.07486 18.604C4.3864 17.9155 3.99963 16.9818 3.99963 16.0081C3.99963 15.0345 4.3864 14.1008 5.07486 13.4123C5.76332 12.7239 6.69706 12.3371 7.67069 12.3371C8.64431 12.3371 9.57806 12.7239 10.2665 13.4123C10.955 14.1008 11.3417 15.0345 11.3417 16.0081C11.3417 16.9818 10.955 17.9155 10.2665 18.604C9.57806 19.2924 8.64431 19.6792 7.67069 19.6792ZM15.8286 11.5213C15.3465 11.5213 14.8691 11.4264 14.4237 11.2419C13.9783 11.0574 13.5736 10.787 13.2328 10.4461C12.8919 10.1052 12.6215 9.7005 12.437 9.2551C12.2525 8.80971 12.1575 8.33234 12.1575 7.85025C12.1575 7.36816 12.2525 6.89079 12.437 6.4454C12.6215 6.00001 12.8919 5.59531 13.2328 5.25443C13.5736 4.91354 13.9783 4.64313 14.4237 4.45864C14.8691 4.27415 15.3465 4.1792 15.8286 4.1792C16.8022 4.1792 17.736 4.56597 18.4244 5.25443C19.1129 5.94288 19.4996 6.87663 19.4996 7.85025C19.4996 8.82388 19.1129 9.75762 18.4244 10.4461C17.736 11.1345 16.8022 11.5213 15.8286 11.5213ZM15.8286 19.6792C14.855 19.6792 13.9212 19.2924 13.2328 18.604C12.5443 17.9155 12.1575 16.9818 12.1575 16.0081C12.1575 15.0345 12.5443 14.1008 13.2328 13.4123C13.9212 12.7239 14.855 12.3371 15.8286 12.3371C16.8022 12.3371 17.736 12.7239 18.4244 13.4123C19.1129 14.1008 19.4996 15.0345 19.4996 16.0081C19.4996 16.9818 19.1129 17.9155 18.4244 18.604C17.736 19.2924 16.8022 19.6792 15.8286 19.6792Z" fill="#F9F8F7" fill-opacity="0.2"/>
</svg>
