<svg width="41" height="33" viewBox="0 0 41 33" fill="none" xmlns="http://www.w3.org/2000/svg">
<path fill-rule="evenodd" clip-rule="evenodd" d="M8.67375 7.62109C8.67375 3.51105 12.0056 0.179199 16.1156 0.179199H33.5581C37.6681 0.179199 41 3.51105 41 7.62109V24.7374C41 28.8475 37.6681 32.1793 33.5581 32.1793H16.1156C12.0056 32.1793 8.67375 28.8475 8.67375 24.7374V24.3458C8.66591 21.0124 6.68997 19.9006 4.6267 19.9006C2.93521 19.9006 0.780151 21.0169 0.780151 24.3657V16.5516V16.1796V8.36548C0.780151 11.7143 2.93521 12.8306 4.6267 12.8306C6.68997 12.8306 8.66591 11.7188 8.67375 8.38539V7.62109Z" fill="#87087C"/>
<path d="M26.7752 13.27L20.7697 13.27L20.7697 11.77L29.4781 11.77L29.478 20.02H27.8947L27.8947 14.3307L21.0812 20.7856L19.9616 19.725L26.7752 13.27Z" fill="#F7F7F7"/>
</svg>
