<svg width="24" height="25" viewBox="0 0 24 25" fill="none" xmlns="http://www.w3.org/2000/svg">
<path d="M9.24687 15.1616H6.04957C5.63702 15.1616 5.3319 14.9809 5.13421 14.6197C4.93653 14.2585 4.95802 13.9099 5.19868 13.5738L12.9083 2.73693C13.0802 2.50171 13.3037 2.3379 13.5787 2.24549C13.8537 2.15308 14.1374 2.15728 14.4296 2.25809C14.7218 2.3589 14.9367 2.53532 15.0742 2.78734C15.2117 3.03936 15.2633 3.30818 15.2289 3.5938L14.4038 10.1211H18.4004C18.8474 10.1211 19.1611 10.3144 19.3416 10.7008C19.5221 11.0872 19.4662 11.4485 19.174 11.7845L10.6908 21.7141C10.5017 21.9325 10.2697 22.0753 9.99462 22.1425C9.71959 22.2097 9.45314 22.1845 9.1953 22.0669C8.93745 21.9493 8.73547 21.7687 8.58936 21.5251C8.44325 21.2815 8.38738 21.0168 8.42176 20.7312L9.24687 15.1616Z" fill="#F9F8F7" fill-opacity="0.2"/>
</svg>
