<svg width="24" height="25" viewBox="0 0 24 25" fill="none" xmlns="http://www.w3.org/2000/svg">
<path d="M10 14.6792H9.99937C9.99937 14.1736 10.0413 14.4064 7.34156 9.00701C6.79 7.9042 5.21062 7.90201 4.65812 9.00701C1.93562 14.4526 2.00062 14.1895 2.00062 14.6792H2C2 16.0598 3.79094 17.1792 6 17.1792C8.20906 17.1792 10 16.0598 10 14.6792ZM6 9.6792L8.25 14.1792H3.75L6 9.6792ZM21.9994 14.6792C21.9994 14.1736 22.0413 14.4064 19.3416 9.00701C18.79 7.9042 17.2106 7.90201 16.6581 9.00701C13.9356 14.4526 14.0006 14.1895 14.0006 14.6792H14C14 16.0598 15.7909 17.1792 18 17.1792C20.2091 17.1792 22 16.0598 22 14.6792H21.9994ZM15.75 14.1792L18 9.6792L20.25 14.1792H15.75ZM18.5 18.1792H13V8.96826C13.7347 8.6467 14.2863 7.98451 14.4497 7.1792H18.5C18.7763 7.1792 19 6.95545 19 6.6792V5.6792C19 5.40295 18.7763 5.1792 18.5 5.1792H13.9888C13.5325 4.57545 12.8153 4.1792 12 4.1792C11.1847 4.1792 10.4675 4.57545 10.0112 5.1792H5.5C5.22375 5.1792 5 5.40295 5 5.6792V6.6792C5 6.95545 5.22375 7.1792 5.5 7.1792H9.55031C9.71375 7.9842 10.265 8.6467 11 8.96826V18.1792H5.5C5.22375 18.1792 5 18.4029 5 18.6792V19.6792C5 19.9554 5.22375 20.1792 5.5 20.1792H18.5C18.7763 20.1792 19 19.9554 19 19.6792V18.6792C19 18.4029 18.7763 18.1792 18.5 18.1792Z" fill="#F9F8F7" fill-opacity="0.2"/>
</svg>
