<svg width="24" height="25" viewBox="0 0 24 25" fill="none" xmlns="http://www.w3.org/2000/svg">
<path d="M3 11.6792C3 9.7462 4.567 8.1792 6.5 8.1792C7.7035 8.1792 8.51959 8.613 9.19914 9.29256C9.9255 10.0189 10.4851 11.0114 11.1258 12.1648L11.1595 12.2254C11.7605 13.3075 12.4431 14.5365 13.3866 15.4801C14.3946 16.488 15.7035 17.1792 17.5 17.1792C20.5376 17.1792 23 14.7168 23 11.6792C23 8.64163 20.5376 6.1792 17.5 6.1792C15.9779 6.1792 14.6003 6.79747 13.6045 7.79657C13.4442 7.95733 13.432 8.20885 13.5553 8.3994C13.8131 8.79773 14.0428 9.18899 14.2479 9.55096C14.3438 9.72013 14.5906 9.72327 14.708 9.56826C15.347 8.72438 16.3598 8.1792 17.5 8.1792C19.433 8.1792 21 9.7462 21 11.6792C21 13.6122 19.433 15.1792 17.5 15.1792C16.2965 15.1792 15.4804 14.7454 14.8009 14.0658C14.0745 13.3395 13.5149 12.347 12.8742 11.1936L12.8405 11.133C12.2395 10.0509 11.5569 8.82185 10.6134 7.87834C9.60541 6.8704 8.2965 6.1792 6.5 6.1792C3.46243 6.1792 1 8.64163 1 11.6792C1 14.7168 3.46243 17.1792 6.5 17.1792C8.02208 17.1792 9.39974 16.5609 10.3956 15.5618C10.5558 15.401 10.568 15.1495 10.4447 14.959C10.1869 14.5607 9.95724 14.1694 9.75215 13.8074C9.65629 13.6383 9.40941 13.6351 9.29202 13.7901C8.65298 14.634 7.64016 15.1792 6.5 15.1792C4.567 15.1792 3 13.6122 3 11.6792Z" fill="#F9F8F7" fill-opacity="0.2"/>
</svg>
