<svg width="24" height="25" viewBox="0 0 24 25" fill="none" xmlns="http://www.w3.org/2000/svg">
<path d="M9.48404 16.3981C10.1767 17.0796 11.0156 17.4204 12.0009 17.4204C12.9862 17.4204 13.8251 17.0796 14.5178 16.3981C15.2104 15.7165 15.5567 14.8868 15.5567 13.909C15.5567 13.4423 15.466 12.996 15.2845 12.57C15.103 12.144 14.8456 11.7681 14.5122 11.4421L12.6238 9.58721C12.278 9.2475 11.7238 9.2475 11.3779 9.58721L9.48959 11.4421C9.15623 11.7681 8.89881 12.144 8.71731 12.57C8.53582 12.996 8.44507 13.4423 8.44507 13.909C8.44507 14.8868 8.79139 15.7165 9.48404 16.3981Z" fill="#F9F8F7" fill-opacity="0.2"/>
<path fill-rule="evenodd" clip-rule="evenodd" d="M12.0006 21.8235C9.78378 21.8235 7.89613 21.0568 6.33768 19.5233C4.77923 17.9899 4 16.1231 4 13.9229C4 12.8728 4.20418 11.8686 4.61255 10.9102C5.02091 9.95177 5.60012 9.10587 6.35018 8.37248L11.3777 3.43398C11.7235 3.09427 12.2777 3.09427 12.6236 3.43398L17.6511 8.37248C18.4011 9.10587 18.9803 9.95177 19.3887 10.9102C19.797 11.8686 20.0012 12.8728 20.0012 13.9229C20.0012 16.1231 19.222 17.9899 17.6636 19.5233C16.1051 21.0568 14.2175 21.8235 12.0006 21.8235ZM12.002 19.8234C10.3394 19.8234 8.92369 19.2584 7.75485 18.1285C6.58601 16.9986 6.00159 15.623 6.00159 14.0018C6.00159 13.2281 6.15472 12.4881 6.461 11.7819C6.76727 11.0757 7.20168 10.4525 7.76422 9.91206L11.3847 6.41802C11.7292 6.08563 12.2749 6.08563 12.6194 6.41802L16.2399 9.91206C16.8024 10.4525 17.2368 11.0757 17.5431 11.7819C17.8494 12.4881 18.0025 13.2281 18.0025 14.0018C18.0025 15.623 17.4181 16.9986 16.2493 18.1285C15.0804 19.2584 13.6647 19.8234 12.002 19.8234Z" fill="#F9F8F7" fill-opacity="0.2"/>
</svg>
