<svg width="125" height="166" viewBox="0 0 125 166" fill="none" xmlns="http://www.w3.org/2000/svg">
<rect x="17.9089" y="95.9932" width="101.601" height="68.8055" rx="6.32812" fill="#327A8E"/>
<rect x="3.76172" y="96.6362" width="91.312" height="68.1625" rx="6.32812" fill="#5EBAD0"/>
<path d="M95.226 122.729L84.0984 133.424C82.4433 135.015 81.5078 137.212 81.5078 139.508V143.603M81.5078 148.741V164.798" stroke="#3491AB" stroke-width="0.878906"/>
<path d="M95.542 122.679L104.645 113.576C106.228 111.993 108.374 111.104 110.612 111.104H119.978" stroke="#0C4757" stroke-width="0.878906"/>
<path d="M119.978 123.001L112.803 130.175C111.221 131.758 110.332 133.904 110.332 136.142V146.514C110.332 148.752 111.221 150.898 112.803 152.48L119.978 159.654" stroke="#0C4757" stroke-width="0.878906"/>
<path d="M65.6406 164.799L65.6406 138.714C65.6406 136.476 64.7517 134.33 63.1693 132.747L61.36 130.938C59.7776 129.356 58.8887 127.21 58.8887 124.972L58.8887 112.552L58.8887 96.6362" stroke="#3491AB" stroke-width="0.878906"/>
<path d="M58.8887 117.535L69.9213 106.502C71.5036 104.92 72.3926 102.774 72.3926 100.536V96.3145" stroke="#3491AB" stroke-width="0.878906"/>
<path d="M3.74421 109.011L10.4398 115.707C12.0222 117.289 12.9111 119.435 12.9111 121.673V164.799" stroke="#3491AB" stroke-width="0.878906"/>
<path d="M12.9111 148.723L27.0771 137.494C29.0961 135.893 30.2733 133.458 30.2733 130.881V96.6362" stroke="#3491AB" stroke-width="0.878906"/>
<path d="M123.711 45.5376H120.667L119.754 49.7994H122.798L123.711 45.5376Z" fill="#390176"/>
<path d="M39.638 44.8077C39.8895 43.4798 41.0499 42.5186 42.4014 42.5186H120.695C122.458 42.5186 123.786 44.1221 123.458 45.8544L114.932 90.8706C114.681 92.1984 113.52 93.1597 112.169 93.1597H33.8756C32.1125 93.1597 30.7842 91.5562 31.1123 89.8238L39.638 44.8077Z" fill="#327A8E"/>
<path d="M120.665 45.5376H123.709L122.796 51.017H119.752L120.665 45.5376Z" fill="#73EAF4" fill-opacity="0.57"/>
<path d="M93.1446 0.179688L120.362 43.7109L111.838 89.6774H31.1687H3.77148L6.51121 0.179688H93.1446Z" fill="url(#paint0_linear_1023_38306)"/>
<path d="M39.638 44.8077C39.8895 43.4798 41.0499 42.5186 42.4014 42.5186H116.967C118.73 42.5186 120.058 44.1221 119.73 45.8544L111.204 90.8706C110.953 92.1984 109.792 93.1597 108.441 93.1597H33.8756C32.1125 93.1597 30.7842 91.5562 31.1123 89.8238L39.638 44.8077Z" fill="#79CFE3"/>
<path d="M39.7316 47.1865C39.996 45.8736 41.1495 44.9292 42.4887 44.9292H114.491C116.267 44.9292 117.599 46.5556 117.248 48.2969L108.45 91.987C108.185 93.2999 107.032 94.2443 105.693 94.2443H33.6904C31.914 94.2443 30.5825 92.6179 30.9332 90.8765L39.7316 47.1865Z" fill="url(#paint1_linear_1023_38306)"/>
<path d="M42.4014 42.0615C40.8303 42.0615 39.4814 43.179 39.189 44.7226L30.6632 89.7388C30.2818 91.7526 31.826 93.6167 33.8756 93.6167H108.441C110.012 93.6167 111.361 92.4993 111.653 90.9556L120.179 45.9395C120.56 43.9257 119.016 42.0615 116.967 42.0615H42.4014Z" stroke="#390176" stroke-width="0.914062"/>
<path d="M42.4014 42.0615C40.8303 42.0615 39.4814 43.179 39.189 44.7226L30.6632 89.7388C30.2818 91.7526 31.826 93.6167 33.8756 93.6167H112.169C113.74 93.6167 115.089 92.4993 115.381 90.9556L123.907 45.9395C124.289 43.9257 122.744 42.0615 120.695 42.0615H42.4014Z" stroke="#390176" stroke-width="0.914062"/>
<path d="M3.98152 90.1338C3.5002 90.1338 3.06887 90.431 2.89744 90.8808L1.577 94.3451C1.28756 95.1045 1.84841 95.9185 2.66109 95.9185H112.542C113.023 95.9185 113.454 95.6213 113.626 95.1715L114.946 91.7071C115.236 90.9477 114.675 90.1338 113.862 90.1338H3.98152Z" fill="#5EBAD0" stroke="#390176" stroke-width="0.914062"/>
<path d="M3.37494 90.1338C2.8675 90.1338 2.41895 90.4636 2.26759 90.9479L1.18498 94.4123C0.951519 95.1593 1.50964 95.9185 2.29232 95.9185H80.5755C81.0829 95.9185 81.5315 95.5887 81.6828 95.1044L82.7654 91.64C82.9989 90.8929 82.4408 90.1338 81.6581 90.1338H3.37494Z" fill="#73EAF4" stroke="#390176" stroke-width="0.914062"/>
<path d="M37.1435 92.1707L37.5622 90.2866H51.5652L50.9725 92.0648C50.7811 92.639 50.2437 93.0263 49.6384 93.0263H37.8299C37.3801 93.0263 37.0459 92.6098 37.1435 92.1707Z" fill="#390176"/>
<g filter="url(#filter0_d_1023_38306)">
<path d="M34.733 34.3223C31.193 34.3223 28.3232 37.192 28.3232 40.732V69.1105C28.3232 72.6504 31.193 75.5202 34.733 75.5202H83.6495L91.4196 82.9596C91.8272 83.3499 92.5039 83.061 92.5039 82.4966V75.5202H93.8079C97.3479 75.5202 100.218 72.6504 100.218 69.1104V40.732C100.218 37.192 97.3479 34.3223 93.8079 34.3223H34.733Z" fill="#155C6C"/>
<path d="M83.8927 75.2663L83.7907 75.1686H83.6495H34.733C31.3871 75.1686 28.6748 72.4563 28.6748 69.1105V40.732C28.6748 37.3862 31.3871 34.6738 34.733 34.6738H93.8079C97.1538 34.6738 99.8661 37.3862 99.8661 40.732V69.1104C99.8661 72.4563 97.1538 75.1686 93.8079 75.1686H92.5039H92.1523V75.5202V82.4966C92.1523 82.7514 91.8468 82.8819 91.6627 82.7057L83.8927 75.2663Z" stroke="#73EAF4" stroke-width="0.703125"/>
</g>
<g filter="url(#filter1_f_1023_38306)">
<path d="M37.9375 71.5059L37.3799 70.9982C35.3993 69.2022 34.0917 68.0138 34.0917 66.5639C34.0917 65.3756 35.0224 64.4487 36.2069 64.4487C36.8761 64.4487 37.5183 64.7602 37.9375 65.2487C38.3567 64.7602 38.999 64.4487 39.6681 64.4487C40.8527 64.4487 41.7834 65.3756 41.7834 66.5639C41.7834 68.0138 40.4758 69.2022 38.4952 70.9982L37.9375 71.5059Z" fill="#73EAF4"/>
</g>
<path d="M37.9375 71.5059L37.3799 70.9982C35.3993 69.2022 34.0917 68.0138 34.0917 66.5639C34.0917 65.3756 35.0224 64.4487 36.2069 64.4487C36.8761 64.4487 37.5183 64.7602 37.9375 65.2487C38.3567 64.7602 38.999 64.4487 39.6681 64.4487C40.8527 64.4487 41.7834 65.3756 41.7834 66.5639C41.7834 68.0138 40.4758 69.2022 38.4952 70.9982L37.9375 71.5059Z" fill="#73EAF4"/>
<rect x="32.8088" y="42.6543" width="57.0467" height="1.28195" rx="0.640974" fill="#73EAF4"/>
<rect x="32.8088" y="47.7827" width="57.0467" height="1.28195" rx="0.640974" fill="#73EAF4"/>
<rect x="32.8088" y="52.9106" width="46.7911" height="1.28195" rx="0.640974" fill="#73EAF4"/>
<rect x="32.8088" y="58.0381" width="31.4077" height="1.28195" rx="0.640974" fill="#73EAF4"/>
<path d="M81.5078 96.2075H113.591C117.086 96.2075 119.919 99.0407 119.919 102.536V158.471C119.919 161.965 117.086 164.799 113.591 164.799H81.5078" stroke="#390176"/>
<rect x="3.77258" y="96.2075" width="91.4549" height="68.5912" rx="6.32812" stroke="#390176"/>
<circle cx="81.7167" cy="146.15" r="2.57217" stroke="#3491AB" stroke-width="0.878906"/>
<defs>
<filter id="filter0_d_1023_38306" x="25.5107" y="31.5098" width="77.5194" height="54.4414" filterUnits="userSpaceOnUse" color-interpolation-filters="sRGB">
<feFlood flood-opacity="0" result="BackgroundImageFix"/>
<feColorMatrix in="SourceAlpha" type="matrix" values="0 0 0 0 0 0 0 0 0 0 0 0 0 0 0 0 0 0 127 0" result="hardAlpha"/>
<feOffset/>
<feGaussianBlur stdDeviation="1.40625"/>
<feComposite in2="hardAlpha" operator="out"/>
<feColorMatrix type="matrix" values="0 0 0 0 0.45098 0 0 0 0 0.917647 0 0 0 0 0.956863 0 0 0 1 0"/>
<feBlend mode="normal" in2="BackgroundImageFix" result="effect1_dropShadow_1023_38306"/>
<feBlend mode="normal" in="SourceGraphic" in2="effect1_dropShadow_1023_38306" result="shape"/>
</filter>
<filter id="filter1_f_1023_38306" x="31.2792" y="61.6362" width="13.3167" height="12.6821" filterUnits="userSpaceOnUse" color-interpolation-filters="sRGB">
<feFlood flood-opacity="0" result="BackgroundImageFix"/>
<feBlend mode="normal" in="SourceGraphic" in2="BackgroundImageFix" result="shape"/>
<feGaussianBlur stdDeviation="1.40625" result="effect1_foregroundBlur_1023_38306"/>
</filter>
<linearGradient id="paint0_linear_1023_38306" x1="62.2786" y1="29.7596" x2="108.185" y2="85.4161" gradientUnits="userSpaceOnUse">
<stop stop-color="#21194B" stop-opacity="0"/>
<stop offset="1" stop-color="#73CDFF" stop-opacity="0.81"/>
</linearGradient>
<linearGradient id="paint1_linear_1023_38306" x1="74.0906" y1="44.9292" x2="74.0906" y2="94.2443" gradientUnits="userSpaceOnUse">
<stop stop-color="#B9E8F4"/>
<stop offset="1" stop-color="#EEFCFF" stop-opacity="0"/>
</linearGradient>
</defs>
</svg>
