<svg width="157" height="137" viewBox="0 0 157 137" fill="none" xmlns="http://www.w3.org/2000/svg">
<path d="M30.3339 123.405C29.1913 123.156 28.1956 122.176 27.5314 120.646C26.9084 119.213 26.6147 117.388 26.7059 115.507C26.915 111.176 29.0256 107.876 31.5144 107.979L45.5515 107.891H45.5693C45.7206 107.899 45.873 107.919 46.021 107.951C47.1636 108.2 48.1593 109.18 48.8235 110.71C49.4466 112.143 49.7403 113.968 49.649 115.849C49.4399 120.18 47.3294 123.481 44.8406 123.377L30.8034 123.465H30.7856C30.6343 123.457 30.4819 123.437 30.3339 123.405Z" fill="#390176"/>
<path d="M49.0291 114.988C49.0324 115.261 49.0291 115.538 49.0146 115.818C48.8243 119.743 46.963 122.842 44.8536 122.74L30.8176 122.828C28.7093 122.725 27.154 119.461 27.3431 115.536C27.352 115.351 27.3642 115.168 27.3809 114.987C27.7091 111.327 29.4948 108.518 31.5029 108.615L45.539 108.527C47.4971 108.621 48.9779 111.442 49.0279 114.987L49.0291 114.988Z" fill="#73EAF4"/>
<g style="mix-blend-mode:multiply" opacity="0.6">
<path d="M49.0291 114.987C49.0324 115.26 49.0291 115.537 49.0146 115.818C48.8243 119.743 46.963 122.842 44.8536 122.739L30.8176 122.827C28.7093 122.725 27.154 119.461 27.3431 115.536C27.352 115.35 27.3642 115.168 27.3809 114.986H49.0291V114.987Z" fill="#B2A8C1"/>
</g>
<path d="M113.553 123.405C112.411 123.156 111.415 122.176 110.751 120.646C110.128 119.213 109.834 117.388 109.925 115.507C110.135 111.176 112.245 107.876 114.734 107.979L128.771 107.891H128.789C128.94 107.899 129.093 107.919 129.24 107.951C130.383 108.2 131.379 109.18 132.043 110.71C132.666 112.143 132.96 113.968 132.869 115.849C132.659 120.18 130.549 123.481 128.06 123.377L114.023 123.465H114.005C113.854 123.457 113.701 123.437 113.553 123.405Z" fill="#390176"/>
<path d="M132.249 114.987C132.252 115.26 132.249 115.537 132.234 115.818C132.044 119.742 130.183 122.842 128.073 122.739L114.037 122.827C111.929 122.725 110.373 119.461 110.563 115.536C110.571 115.35 110.584 115.168 110.6 114.986C110.929 111.326 112.714 108.517 114.722 108.614L128.758 108.526C130.717 108.621 132.197 111.442 132.247 114.986L132.249 114.987Z" fill="#73EAF4"/>
<g style="mix-blend-mode:multiply" opacity="0.6">
<path d="M132.249 114.988C132.252 115.261 132.249 115.538 132.234 115.818C132.044 119.743 130.183 122.842 128.073 122.74L114.037 122.828C111.929 122.725 110.373 119.461 110.563 115.537C110.571 115.351 110.584 115.168 110.6 114.987H132.249V114.988Z" fill="#B2A8C1"/>
</g>
<path d="M75.4227 136.18C64.8767 136.18 55.0495 134.832 47.7523 132.386C44.1275 131.171 41.266 129.734 39.249 128.117C37.0684 126.369 35.9336 124.456 35.8757 122.433L35.7522 104.625C35.6398 100.519 40.0611 96.5933 48.2028 93.5698C56.1365 90.623 66.7325 88.8225 78.0394 88.5009C79.2354 88.4664 80.4436 88.4497 81.6296 88.4497C92.1756 88.4497 102.003 89.7973 109.3 92.2433C112.925 93.4585 115.786 94.8952 117.803 96.5121C119.984 98.2603 121.119 100.173 121.177 102.196L121.3 120.005C121.412 124.11 116.991 128.036 108.849 131.06C100.916 134.006 90.3198 135.807 79.0129 136.128C77.8169 136.163 76.6109 136.18 75.426 136.18H75.4216H75.4227Z" fill="#390176"/>
<path d="M36.5136 122.414C36.7383 130.298 55.7586 136.153 78.9954 135.49C102.233 134.828 120.889 127.899 120.664 120.015L120.541 102.213C120.316 94.3284 101.296 88.4739 78.0587 89.136C54.8207 89.7981 36.1653 96.7277 36.3901 104.612L36.5136 122.414Z" fill="#258399"/>
<path d="M75.298 118.378C64.7509 118.378 54.9237 117.032 47.6265 114.585C44.0017 113.37 41.1414 111.933 39.1243 110.316C36.9437 108.568 35.8089 106.655 35.7521 104.632C35.6353 100.524 40.0566 96.596 48.2028 93.5703C56.1364 90.6235 66.7324 88.823 78.0393 88.5014C79.2353 88.4669 80.4436 88.4502 81.6295 88.4502C92.1766 88.4502 102.004 89.7978 109.301 92.2438C112.926 93.459 115.786 94.8956 117.803 96.5126C119.984 98.2608 121.119 100.174 121.175 102.197C121.292 106.304 116.871 110.232 108.725 113.258C100.791 116.205 90.1951 118.006 78.8882 118.327C77.6922 118.362 76.484 118.378 75.298 118.378Z" fill="#390176"/>
<path d="M78.8653 117.693C102.103 117.032 120.759 110.104 120.535 102.219C120.31 94.3348 101.291 88.4794 78.053 89.1408C54.8154 89.8022 36.1594 96.73 36.3837 104.615C36.608 112.499 55.6277 118.354 78.8653 117.693Z" fill="#48C9CC"/>
<path d="M75.2642 115.793C65.4926 115.793 56.3974 114.622 49.6542 112.495C46.2999 111.438 43.6531 110.186 41.7862 108.774C39.7525 107.236 38.6955 105.546 38.6444 103.749C38.5409 100.112 42.6763 96.6399 50.2884 93.9703C57.678 91.3796 67.543 89.7872 78.0667 89.4867C79.2505 89.4534 80.4453 89.4355 81.6191 89.4355C91.3907 89.4355 100.486 90.6062 107.229 92.7328C110.583 93.79 113.23 95.0419 115.097 96.4541C117.131 97.992 118.188 99.6824 118.239 101.48C118.342 105.116 114.207 108.588 106.595 111.258C99.2053 113.849 89.3402 115.441 78.8166 115.741C77.6328 115.775 76.4379 115.793 75.2642 115.793Z" fill="#390176"/>
<path d="M78.7912 115.111C100.419 114.495 117.793 108.404 117.596 101.506C117.4 94.6086 99.7084 89.5159 78.0805 90.1315C56.4527 90.7471 39.079 96.8379 39.2753 103.736C39.4715 110.634 57.1634 115.726 78.7912 115.111Z" fill="#73EAF4"/>
<g style="mix-blend-mode:multiply" opacity="0.6">
<path d="M43.8572 100.487C43.7982 98.4309 45.0243 96.4401 47.2805 94.6084C40.4227 97.3515 36.284 100.875 36.3908 104.613C36.6155 112.497 55.6358 118.351 78.8727 117.689C96.0506 117.2 110.724 113.286 117.118 108.092C109.511 111.134 98.5594 113.216 86.3391 113.564C63.1011 114.226 44.0808 108.372 43.8572 100.487Z" fill="#B2A8C1"/>
</g>
<path d="M76.3338 109.556C68.7061 109.556 61.6136 108.733 56.3623 107.237C50.7684 105.644 47.7722 103.462 47.6977 100.924C47.6565 99.5188 48.5199 98.1667 50.2644 96.9059C51.8353 95.7708 54.0827 94.7337 56.9442 93.8234C62.7517 91.9761 70.4995 90.8333 78.7614 90.6051C79.756 90.5773 80.7607 90.564 81.7464 90.564C89.3741 90.564 96.4666 91.3874 101.718 92.8831C107.312 94.4766 110.308 96.6589 110.382 99.1961C110.424 100.602 109.56 101.954 107.816 103.214C106.245 104.35 103.998 105.387 101.136 106.297C95.3285 108.144 87.5806 109.287 79.3188 109.515C78.3242 109.543 77.3195 109.556 76.3338 109.556Z" fill="#390176"/>
<path d="M106.225 103.495C101.126 106.411 91.0061 108.576 79.3009 108.9C67.411 109.227 57.0409 107.567 51.8564 104.862C49.6457 103.709 48.3774 102.367 48.3351 100.908C48.1916 96.0257 61.8215 91.6891 78.7802 91.2217C95.7389 90.7543 109.603 94.332 109.746 99.214C109.791 100.726 108.513 102.186 106.225 103.495Z" fill="url(#paint0_linear_1023_38243)"/>
<path d="M104.027 103.219C99.3403 105.899 90.0382 107.89 79.2798 108.187C68.3511 108.487 58.8187 106.961 54.0536 104.474C52.0221 103.415 50.8561 102.181 50.8172 100.84C50.6848 96.3529 63.2133 92.3657 78.8014 91.9362C94.3894 91.5066 107.133 94.795 107.265 99.283C107.306 100.673 106.132 102.015 104.029 103.218L104.027 103.219Z" fill="url(#paint1_linear_1023_38243)"/>
<g style="mix-blend-mode:screen" opacity="0.6">
<path d="M99.9401 102.703C96.0205 104.944 88.2404 106.609 79.2409 106.858C70.1002 107.109 62.1276 105.833 58.1413 103.753C56.4413 102.867 55.4667 101.835 55.4345 100.713C55.3243 96.9594 65.8024 93.6254 78.8404 93.2659C91.8785 92.9065 102.537 95.6574 102.647 99.4109C102.681 100.574 101.699 101.696 99.9401 102.703Z" fill="url(#paint2_linear_1023_38243)"/>
</g>
<g opacity="0.4">
<path d="M106.224 103.496C101.125 106.411 91.0051 108.577 79.2999 108.901C67.41 109.228 57.0399 107.568 51.8553 104.862C56.9542 101.946 67.074 99.7802 78.7792 99.4574C90.6702 99.1303 101.039 100.791 106.224 103.496Z" fill="url(#paint3_linear_1023_38243)"/>
</g>
<g style="mix-blend-mode:screen" opacity="0.51">
<path d="M156.608 0.179688H0L51.4804 101.901C51.5154 103.19 52.5656 104.377 54.3961 105.396C58.689 107.788 69.2835 109.255 79.1287 108.966C88.8209 108.68 99.2082 106.765 103.43 104.188C105.325 103.031 106.383 101.74 106.346 100.403L156.608 0.179688Z" fill="url(#paint4_linear_1023_38243)"/>
<path d="M129.704 35.5166H28.9124L59.4695 99.7445C59.4961 100.915 60.2932 101.992 61.6825 102.917C64.9407 105.088 71.4578 106.421 78.93 106.158C86.2861 105.898 92.6459 104.161 95.8503 101.821C97.2885 100.771 98.0912 99.5989 98.0632 98.3853L129.704 35.5166Z" fill="url(#paint5_linear_1023_38243)"/>
</g>
<g style="mix-blend-mode:multiply" opacity="0.6">
<path d="M106.223 103.495C101.124 106.41 91.0044 108.576 79.2992 108.9C67.4093 109.227 57.0391 107.567 51.8546 104.861C56.9535 101.945 67.0733 99.7792 78.7785 99.4565C90.6695 99.1293 101.039 100.79 106.223 103.495Z" fill="#B2A8C1"/>
</g>
<path d="M42.8847 134.457C41.7154 134.457 40.5338 133.712 39.5581 132.359C38.6436 131.091 37.9683 129.371 37.6568 127.514C36.9381 123.238 38.2965 119.563 40.7508 119.133L54.4464 116.054L54.4631 116.051C54.6121 116.025 54.7646 116.013 54.917 116.013C56.0863 116.013 57.2678 116.757 58.2435 118.11C59.1581 119.378 59.8334 121.098 60.1449 122.956C60.8636 127.231 59.5052 130.907 57.0509 131.336L43.3553 134.415L43.3386 134.419C43.1895 134.444 43.0371 134.457 42.8847 134.457Z" fill="#390176"/>
<path d="M56.9264 130.711L43.2319 133.79C41.3873 134.101 39.4381 131.893 38.5647 128.689C38.4524 128.277 38.3578 127.849 38.2832 127.408C37.6313 123.533 38.7906 120.109 40.8722 119.759L47.8957 118.18L54.5666 116.679C56.6482 116.329 58.8633 119.187 59.5153 123.061C59.5809 123.45 59.6277 123.834 59.6566 124.209C59.9258 127.591 58.7999 130.395 56.9264 130.711Z" fill="#73EAF4"/>
<g style="mix-blend-mode:multiply" opacity="0.6">
<path d="M56.9271 130.71L43.2326 133.789C41.388 134.1 39.4388 131.892 38.5654 128.688L52.1575 125.801C52.053 122.987 50.6445 119.447 47.8976 118.18L54.5685 116.679C56.65 116.329 58.8651 119.187 59.5171 123.062C59.5827 123.45 59.6295 123.834 59.6584 124.209C59.9276 127.591 58.8017 130.395 56.9282 130.711L56.9271 130.71Z" fill="#B2A8C1"/>
</g>
<path d="M42.8838 134.456C41.7145 134.456 40.5329 133.711 39.5572 132.358C38.6427 131.09 37.9674 129.37 37.6558 127.513C36.9349 123.226 38.3022 119.544 40.7677 119.129C40.9167 119.103 41.0692 119.091 41.2216 119.091C42.3909 119.091 43.5724 119.835 44.5481 121.188C45.4627 122.456 46.138 124.176 46.4495 126.034C47.1704 130.32 45.8031 134.003 43.3377 134.418C43.1886 134.443 43.0362 134.456 42.8838 134.456Z" fill="#390176"/>
<path d="M43.2401 133.785C45.3215 133.435 46.4804 130.01 45.8287 126.135C45.177 122.26 42.9614 119.403 40.88 119.754C38.7986 120.104 37.6396 123.529 38.2914 127.403C38.9431 131.278 41.1587 134.135 43.2401 133.785Z" fill="#579DC4"/>
<g style="mix-blend-mode:multiply" opacity="0.6">
<path d="M43.3428 131.452C41.2612 131.803 39.0461 128.945 38.3942 125.07C38.3096 124.568 38.2562 124.074 38.2306 123.593C38.0493 124.733 38.0526 126.041 38.2829 127.407C38.9349 131.282 41.15 134.139 43.2316 133.789C45.0439 133.484 46.1565 130.849 45.984 127.616C45.6514 129.708 44.6901 131.226 43.3428 131.452Z" fill="#B2A8C1"/>
</g>
<path d="M117.441 134.455C118.611 134.455 119.792 133.711 120.768 132.357C121.682 131.09 122.358 129.37 122.669 127.512C123.388 123.237 122.03 119.561 119.575 119.132L105.88 116.052L105.863 116.049C105.714 116.023 105.562 116.011 105.409 116.011C104.24 116.011 103.058 116.756 102.083 118.109C101.168 119.376 100.493 121.097 100.181 122.954C99.4625 127.23 100.821 130.905 103.275 131.335L116.971 134.414L116.987 134.417C117.137 134.443 117.289 134.455 117.441 134.455Z" fill="#390176"/>
<path d="M103.398 130.711L117.092 133.79C118.937 134.1 120.886 131.892 121.759 128.689C121.872 128.277 121.966 127.848 122.041 127.408C122.693 123.533 121.534 120.109 119.452 119.758L112.428 118.179L105.757 116.679C103.676 116.328 101.461 119.186 100.809 123.061C100.743 123.449 100.696 123.833 100.668 124.208C100.398 127.59 101.524 130.394 103.398 130.711Z" fill="#73EAF4"/>
<g style="mix-blend-mode:multiply" opacity="0.6">
<path d="M103.397 130.71L117.091 133.789C118.936 134.1 120.885 131.892 121.758 128.688L108.166 125.801C108.271 122.987 109.679 119.447 112.426 118.18L105.755 116.679C103.674 116.329 101.459 119.187 100.807 123.062C100.741 123.45 100.694 123.834 100.665 124.209C100.396 127.591 101.522 130.395 103.396 130.711L103.397 130.71Z" fill="#B2A8C1"/>
</g>
<path d="M117.44 134.456C118.61 134.456 119.791 133.711 120.767 132.358C121.682 131.09 122.357 129.37 122.668 127.513C123.389 123.226 122.022 119.544 119.557 119.129C119.407 119.103 119.255 119.091 119.103 119.091C117.933 119.091 116.752 119.835 115.776 121.188C114.862 122.456 114.186 124.176 113.875 126.034C113.154 130.32 114.521 134.003 116.987 134.418C117.136 134.443 117.288 134.456 117.44 134.456Z" fill="#390176"/>
<path d="M122.048 127.418C122.7 123.543 121.541 120.118 119.46 119.768C117.378 119.418 115.163 122.275 114.511 126.149C113.859 130.024 115.018 133.449 117.1 133.799C119.181 134.149 121.397 131.292 122.048 127.418Z" fill="#579DC4"/>
<g style="mix-blend-mode:multiply" opacity="0.6">
<path d="M116.981 131.452C119.062 131.803 121.278 128.945 121.93 125.07C122.014 124.568 122.067 124.074 122.093 123.593C122.274 124.733 122.271 126.041 122.041 127.407C121.389 131.282 119.174 134.139 117.092 133.789C115.28 133.484 114.167 130.849 114.34 127.616C114.672 129.708 115.634 131.226 116.981 131.452Z" fill="#B2A8C1"/>
</g>
<g filter="url(#filter0_f_1023_38243)">
<path d="M108.743 25.4854L112.788 22.1191L112.782 22.0301L112.857 22.019L112.78 21.9878L112.507 17.3029L108.134 11.4517L102.049 7.01819L95.1535 5.15088L90.6276 6.89021L89.2603 11.5563L91.0426 14.5353L87.9241 15.835L76.2033 13.6439L76.1421 13.6328L64.1332 15.8784L64.072 15.8896L53.6852 22.3228L53.6317 22.3551L46.2321 32.1568L42.8711 43.9704L44.0037 56.2003L49.4775 67.195L58.5526 75.4699L69.9452 79.8844L70.003 79.9067H82.2823L93.6749 75.4921L93.7328 75.4699L102.808 67.195L108.282 56.2003L109.414 43.9704L106.071 32.2168L106.054 32.1568L103.088 28.2285L104.306 25.1326L108.743 25.4854ZM108.739 44.0328L108.733 44.0973L98.5268 50.9244L103.614 39.9064L108.683 43.8358L108.739 44.0316V44.0328ZM107.534 56.2036L101.804 59.2339L98.4812 51.4731L107.607 56.0568L107.534 56.2036ZM102.266 66.7854L102.175 66.8689L91.0504 66.5629L101.658 59.5833L102.38 66.5573L102.265 66.7866L102.266 66.7854ZM50.0126 66.7687L49.9992 66.742L52.517 61.7177L57.4578 63.8765L50.0137 66.7699L50.0126 66.7687ZM44.6734 56.0445L55.5264 50.0164L52.3968 61.3938L44.7914 56.2815L44.6734 56.0434V56.0445ZM43.5486 44.0328L43.5798 43.9226L50.788 39.8886L55.4686 49.559L43.5486 44.0361V44.0328ZM46.8407 32.4594L46.9664 32.2936L53.0454 30.4386L50.7958 39.4402L46.8118 32.5607L46.8407 32.4594ZM95.3426 5.89202L97.9405 9.14812L96.5108 11.1712L91.3441 7.32978L95.1913 5.85084L95.3437 5.89202H95.3426ZM111.97 21.9311L107.772 22.5832L106.583 19.6876L111.999 21.9066L111.97 21.9311ZM101.693 19.8946L101.268 13.6261L104.482 16.5306L104.489 16.5795L104.521 16.5817L106.221 19.4517L104.107 24.4471L104.037 24.4416L101.693 19.8957V19.8946ZM72.9847 64.5554L81.0018 62.3876L75.7494 72.0557L72.9836 64.5554H72.9847ZM52.5971 61.5096L55.7667 49.9852L65.0299 57.5413L57.7304 63.753L52.5982 61.5107L52.5971 61.5096ZM53.2935 30.3629L53.3058 30.3596L53.308 30.3284L61.0647 23.42L60.2014 34.5337L60.1758 34.5426L60.1791 34.5571L51.0061 39.5158L53.2935 30.3629ZM81.6938 23.3844L72.6509 30.1403L61.4497 23.1785L73.9237 18.5748L81.6938 23.3844ZM87.9386 16.5539L87.9864 16.5339L88.1143 16.6129L90.1537 22.5398L82.1555 23.2409L87.9386 16.5539ZM98.0462 51.2917L92.1396 57.0394L84.6387 47.3935L98.0462 51.2917ZM81.1297 62.1238L72.9079 64.3473L72.8823 64.2783L72.8345 64.3272L65.3358 57.5101L84.1826 47.4013L81.1297 62.1238ZM63.2921 47.8965L64.9865 57.2185L55.9448 49.8428L63.2921 47.8965ZM61.295 23.3443L72.4017 30.2472L60.4328 34.4536L61.295 23.3443ZM85.0559 31.3711L72.9535 30.1926L81.8429 23.5513L85.0559 31.3711ZM65.229 57.3142L63.5068 47.8397L63.6748 47.7952L83.8755 47.3133L65.2302 57.3142H65.229ZM63.4968 47.5771L60.4395 34.6873L72.6142 30.4085L84.1303 47.0841L63.4968 47.5771ZM72.8846 30.4096L85.1116 31.6003L84.246 46.8604L72.8846 30.4096ZM63.2509 47.5059L51.0562 39.7428L60.2325 34.783L63.2509 47.5059ZM85.333 31.6315L95.4116 33.481L84.4674 46.8571L85.3318 31.6315H85.333ZM85.3452 31.4078V31.3989L85.3063 31.3956L82.052 23.4734L90.2393 22.7557L95.4205 33.2551L85.3463 31.4067L85.3452 31.4078ZM63.1486 47.7039L55.7645 49.6603L51.1074 40.0388L63.1486 47.7039ZM65.0877 57.7827L64.873 72.1515L57.9051 63.8943L65.0877 57.7827ZM65.3103 57.7872L72.6765 64.4841L65.0955 72.1748L65.3103 57.7872ZM84.3984 47.448L92.0094 57.2352L90.6065 66.4995L81.35 62.1494L84.3984 47.448ZM92.2308 57.2586L98.2208 51.4297L101.611 59.3462L90.8412 66.4327L92.2308 57.2575V57.2586ZM84.6309 47.1587L84.8012 47.0674L84.5775 47.073L95.633 33.56L103.433 39.7662L98.1975 51.1036L84.6298 47.1587H84.6309ZM90.483 22.749L97.9738 22.7189L98.1963 22.8569L98.2319 22.9048L95.5841 33.0871L90.483 22.7479V22.749ZM96.7378 18.9765L98.0283 21.9689L92.8672 18.7729L96.7378 18.9776V18.9765ZM96.5831 15.3243L101.037 13.5215L101.462 19.7856L96.9158 18.7785L96.5842 15.3254L96.5831 15.3243ZM91.8726 14.6232L91.8614 14.6054L96.5442 11.4561L100.851 13.3557L96.4485 15.1384L91.8726 14.6232ZM98.0784 9.3373L100.804 13.0931L96.7623 11.3103L96.8768 11.2335L96.7422 11.228L98.0784 9.33841V9.3373ZM104.437 16.1923L101.365 13.4169L103.992 12.7358L104.438 16.1934L104.437 16.1923ZM104.339 24.4661L106.35 19.7143L107.561 22.66L104.401 24.4705L104.339 24.4661ZM106.354 19.1368L106.328 19.198L104.792 16.604L108.317 16.8766L106.404 19.257L106.354 19.1357V19.1368ZM104.685 16.3725L104.209 12.6802L107.586 11.879L107.659 11.9313L107.846 12.1806L108.409 16.6608L104.685 16.3725ZM104.18 12.4588V12.4565L104.151 12.4643L102.319 8.04198L107.349 11.7076L104.18 12.4599V12.4588ZM103.934 12.52L101.239 13.2188V13.1999L101.176 13.2244L98.2464 9.18818L101.604 7.58795L101.755 7.62913L101.975 7.78937L103.934 12.52ZM98.1129 9.00568L98.0762 8.95449L98.0717 8.96006L95.7042 5.99106L101.274 7.49893L98.1129 9.00457V9.00568ZM91.1539 7.46888L96.1782 11.2035L91.8815 11.0266L91.116 7.59574L91.1527 7.46888H91.1539ZM91.8948 11.2502L96.1904 11.4261L91.748 14.4129L91.6701 14.2827L91.8948 11.2502ZM91.9994 14.8602L96.3628 15.3521L96.6899 18.7506L92.4745 18.5281L91.887 18.1642L91.6623 15.0015L92.0005 14.8602H91.9994ZM97.6156 22.4975L90.3829 22.5264L88.4114 16.7976L97.6156 22.4986V22.4975ZM81.9052 23.1863L76.5237 14.3817L87.7105 16.4738L81.9052 23.1863ZM76.1421 14.3105L76.2289 14.3272L81.5503 23.0339L74.0783 18.409L76.0932 14.3194L76.141 14.3105H76.1421ZM73.8736 18.3222L65.2813 16.3414L75.8206 14.3706L73.8736 18.3222ZM64.3167 16.5217L64.734 16.4438L73.5465 18.4747L61.4007 22.9571L64.1287 16.6385L64.3167 16.5217ZM61.1448 22.9894L61.0992 22.9604L61.0937 23.0328L54.5874 22.5476L63.7983 16.8433L61.146 22.9894H61.1448ZM54.089 22.8569L54.2659 22.7479L60.9268 23.2442L53.3347 30.0057L53.9321 23.065L54.089 22.858V22.8569ZM64.7974 72.4085L59.0176 74.9346L58.9097 74.8923L58.8096 74.8011L57.8884 64.2226L64.7974 72.4096V72.4085ZM64.8652 72.6222V72.7268L64.9654 72.6233L69.5224 79.0053L59.3125 75.0492L64.8652 72.6233V72.6222ZM65.1245 72.4619L72.7933 64.6833L75.6036 72.3061L70.1855 79.239H70.1287L69.9018 79.1511L65.1256 72.4619H65.1245ZM75.6949 72.551L75.7104 72.5944L75.7527 72.5176L81.7728 79.239H70.4681L75.6949 72.551ZM82.1588 79.239H82.072L75.8662 72.3095L81.2721 62.3575L90.5119 66.6998L84.0735 73.8196L84.0402 73.8151L82.2245 79.2112L82.1588 79.2368V79.239ZM84.1926 74.0611L92.6491 75.1739L82.4948 79.1088L84.1926 74.0611ZM93.0819 75.0058L84.3417 73.8563L90.6499 66.88L93.3456 74.9046L93.0819 75.007V75.0058ZM95.8989 33.4855L105.442 32.4528L105.447 32.4583L105.518 32.7065L103.513 39.5425L95.9 33.4855H95.8989ZM95.7654 33.2763L98.4044 23.1307L105.287 32.2458L95.7665 33.2763H95.7654ZM98.6914 22.4051L98.6536 22.3551L98.3588 22.1725L97.0003 19.0244L101.507 20.0237L103.828 24.5239L103.815 24.5573L98.8872 22.6644L98.6914 22.4051ZM108.524 24.7988L104.795 24.5017L107.739 22.8146L111.635 22.2093L108.523 24.7988H108.524ZM106.546 19.4339L108.581 16.9022L111.796 17.4664L111.851 17.5399L112.093 21.7052L106.546 19.4328V19.4339ZM111.603 17.2072L108.741 16.7042L108.756 16.6864L108.635 16.6775L108.116 12.5411L111.604 17.2072H111.603ZM89.9834 11.4639L90.987 8.03753L91.679 11.1423L91.4709 13.951L89.9834 11.4639ZM91.4442 15.0917L91.6523 18.0195L88.7429 16.2179L91.4442 15.0917ZM53.6807 23.3989L53.0955 30.1904L47.1934 31.9909L53.6807 23.3989ZM46.7261 32.8589L50.6824 39.6905L50.6167 39.7261L50.6189 39.7284L43.6655 43.6199L46.7261 32.8601V32.8589ZM43.572 44.292L55.4586 49.7994L44.6389 55.8086L43.572 44.2909V44.292ZM44.9916 56.6855L52.32 61.6108L49.8746 66.4928L44.9927 56.6855H44.9916ZM50.1884 66.939L57.6503 64.039L58.5682 74.5796L50.1884 66.939ZM93.5281 74.7532L90.8501 66.7799L101.938 67.0859L93.5281 74.7543V74.7532ZM102.565 66.1845L101.868 59.452L107.364 56.5453L102.565 66.1834V66.1845ZM107.645 55.8275L98.4789 51.2238L108.704 44.3833L107.644 55.8275H107.645ZM108.58 43.4752L103.7 39.6916L105.632 33.1082L108.58 43.4741V43.4752ZM99.1409 22.9994L103.734 24.7632L102.617 27.6031L99.1409 22.9994Z" fill="#53FFFF"/>
</g>
<path d="M108.743 25.4854L112.788 22.1191L112.782 22.0301L112.857 22.019L112.78 21.9878L112.507 17.3029L108.134 11.4517L102.049 7.01819L95.1535 5.15088L90.6276 6.89021L89.2603 11.5563L91.0426 14.5353L87.9241 15.835L76.2033 13.6439L76.1421 13.6328L64.1332 15.8784L64.072 15.8896L53.6852 22.3228L53.6317 22.3551L46.2321 32.1568L42.8711 43.9704L44.0037 56.2003L49.4775 67.195L58.5526 75.4699L69.9452 79.8844L70.003 79.9067H82.2823L93.6749 75.4921L93.7328 75.4699L102.808 67.195L108.282 56.2003L109.414 43.9704L106.071 32.2168L106.054 32.1568L103.088 28.2285L104.306 25.1326L108.743 25.4854ZM108.739 44.0328L108.733 44.0973L98.5268 50.9244L103.614 39.9064L108.683 43.8358L108.739 44.0316V44.0328ZM107.534 56.2036L101.804 59.2339L98.4812 51.4731L107.607 56.0568L107.534 56.2036ZM102.266 66.7854L102.175 66.8689L91.0504 66.5629L101.658 59.5833L102.38 66.5573L102.265 66.7866L102.266 66.7854ZM50.0126 66.7687L49.9992 66.742L52.517 61.7177L57.4578 63.8765L50.0137 66.7699L50.0126 66.7687ZM44.6734 56.0445L55.5264 50.0164L52.3968 61.3938L44.7914 56.2815L44.6734 56.0434V56.0445ZM43.5486 44.0328L43.5798 43.9226L50.788 39.8886L55.4686 49.559L43.5486 44.0361V44.0328ZM46.8407 32.4594L46.9664 32.2936L53.0454 30.4386L50.7958 39.4402L46.8118 32.5607L46.8407 32.4594ZM95.3426 5.89202L97.9405 9.14812L96.5108 11.1712L91.3441 7.32978L95.1913 5.85084L95.3437 5.89202H95.3426ZM111.97 21.9311L107.772 22.5832L106.583 19.6876L111.999 21.9066L111.97 21.9311ZM101.693 19.8946L101.268 13.6261L104.482 16.5306L104.489 16.5795L104.521 16.5817L106.221 19.4517L104.107 24.4471L104.037 24.4416L101.693 19.8957V19.8946ZM72.9847 64.5554L81.0018 62.3876L75.7494 72.0557L72.9836 64.5554H72.9847ZM52.5971 61.5096L55.7667 49.9852L65.0299 57.5413L57.7304 63.753L52.5982 61.5107L52.5971 61.5096ZM53.2935 30.3629L53.3058 30.3596L53.308 30.3284L61.0647 23.42L60.2014 34.5337L60.1758 34.5426L60.1791 34.5571L51.0061 39.5158L53.2935 30.3629ZM81.6938 23.3844L72.6509 30.1403L61.4497 23.1785L73.9237 18.5748L81.6938 23.3844ZM87.9386 16.5539L87.9864 16.5339L88.1143 16.6129L90.1537 22.5398L82.1555 23.2409L87.9386 16.5539ZM98.0462 51.2917L92.1396 57.0394L84.6387 47.3935L98.0462 51.2917ZM81.1297 62.1238L72.9079 64.3473L72.8823 64.2783L72.8345 64.3272L65.3358 57.5101L84.1826 47.4013L81.1297 62.1238ZM63.2921 47.8965L64.9865 57.2185L55.9448 49.8428L63.2921 47.8965ZM61.295 23.3443L72.4017 30.2472L60.4328 34.4536L61.295 23.3443ZM85.0559 31.3711L72.9535 30.1926L81.8429 23.5513L85.0559 31.3711ZM65.229 57.3142L63.5068 47.8397L63.6748 47.7952L83.8755 47.3133L65.2302 57.3142H65.229ZM63.4968 47.5771L60.4395 34.6873L72.6142 30.4085L84.1303 47.0841L63.4968 47.5771ZM72.8846 30.4096L85.1116 31.6003L84.246 46.8604L72.8846 30.4096ZM63.2509 47.5059L51.0562 39.7428L60.2325 34.783L63.2509 47.5059ZM85.333 31.6315L95.4116 33.481L84.4674 46.8571L85.3318 31.6315H85.333ZM85.3452 31.4078V31.3989L85.3063 31.3956L82.052 23.4734L90.2393 22.7557L95.4205 33.2551L85.3463 31.4067L85.3452 31.4078ZM63.1486 47.7039L55.7645 49.6603L51.1074 40.0388L63.1486 47.7039ZM65.0877 57.7827L64.873 72.1515L57.9051 63.8943L65.0877 57.7827ZM65.3103 57.7872L72.6765 64.4841L65.0955 72.1748L65.3103 57.7872ZM84.3984 47.448L92.0094 57.2352L90.6065 66.4995L81.35 62.1494L84.3984 47.448ZM92.2308 57.2586L98.2208 51.4297L101.611 59.3462L90.8412 66.4327L92.2308 57.2575V57.2586ZM84.6309 47.1587L84.8012 47.0674L84.5775 47.073L95.633 33.56L103.433 39.7662L98.1975 51.1036L84.6298 47.1587H84.6309ZM90.483 22.749L97.9738 22.7189L98.1963 22.8569L98.2319 22.9048L95.5841 33.0871L90.483 22.7479V22.749ZM96.7378 18.9765L98.0283 21.9689L92.8672 18.7729L96.7378 18.9776V18.9765ZM96.5831 15.3243L101.037 13.5215L101.462 19.7856L96.9158 18.7785L96.5842 15.3254L96.5831 15.3243ZM91.8726 14.6232L91.8614 14.6054L96.5442 11.4561L100.851 13.3557L96.4485 15.1384L91.8726 14.6232ZM98.0784 9.3373L100.804 13.0931L96.7623 11.3103L96.8768 11.2335L96.7422 11.228L98.0784 9.33841V9.3373ZM104.437 16.1923L101.365 13.4169L103.992 12.7358L104.438 16.1934L104.437 16.1923ZM104.339 24.4661L106.35 19.7143L107.561 22.66L104.401 24.4705L104.339 24.4661ZM106.354 19.1368L106.328 19.198L104.792 16.604L108.317 16.8766L106.404 19.257L106.354 19.1357V19.1368ZM104.685 16.3725L104.209 12.6802L107.586 11.879L107.659 11.9313L107.846 12.1806L108.409 16.6608L104.685 16.3725ZM104.18 12.4588V12.4565L104.151 12.4643L102.319 8.04198L107.349 11.7076L104.18 12.4599V12.4588ZM103.934 12.52L101.239 13.2188V13.1999L101.176 13.2244L98.2464 9.18818L101.604 7.58795L101.755 7.62913L101.975 7.78937L103.934 12.52ZM98.1129 9.00568L98.0762 8.95449L98.0717 8.96006L95.7042 5.99106L101.274 7.49893L98.1129 9.00457V9.00568ZM91.1539 7.46888L96.1782 11.2035L91.8815 11.0266L91.116 7.59574L91.1527 7.46888H91.1539ZM91.8948 11.2502L96.1904 11.4261L91.748 14.4129L91.6701 14.2827L91.8948 11.2502ZM91.9994 14.8602L96.3628 15.3521L96.6899 18.7506L92.4745 18.5281L91.887 18.1642L91.6623 15.0015L92.0005 14.8602H91.9994ZM97.6156 22.4975L90.3829 22.5264L88.4114 16.7976L97.6156 22.4986V22.4975ZM81.9052 23.1863L76.5237 14.3817L87.7105 16.4738L81.9052 23.1863ZM76.1421 14.3105L76.2289 14.3272L81.5503 23.0339L74.0783 18.409L76.0932 14.3194L76.141 14.3105H76.1421ZM73.8736 18.3222L65.2813 16.3414L75.8206 14.3706L73.8736 18.3222ZM64.3167 16.5217L64.734 16.4438L73.5465 18.4747L61.4007 22.9571L64.1287 16.6385L64.3167 16.5217ZM61.1448 22.9894L61.0992 22.9604L61.0937 23.0328L54.5874 22.5476L63.7983 16.8433L61.146 22.9894H61.1448ZM54.089 22.8569L54.2659 22.7479L60.9268 23.2442L53.3347 30.0057L53.9321 23.065L54.089 22.858V22.8569ZM64.7974 72.4085L59.0176 74.9346L58.9097 74.8923L58.8096 74.8011L57.8884 64.2226L64.7974 72.4096V72.4085ZM64.8652 72.6222V72.7268L64.9654 72.6233L69.5224 79.0053L59.3125 75.0492L64.8652 72.6233V72.6222ZM65.1245 72.4619L72.7933 64.6833L75.6036 72.3061L70.1855 79.239H70.1287L69.9018 79.1511L65.1256 72.4619H65.1245ZM75.6949 72.551L75.7104 72.5944L75.7527 72.5176L81.7728 79.239H70.4681L75.6949 72.551ZM82.1588 79.239H82.072L75.8662 72.3095L81.2721 62.3575L90.5119 66.6998L84.0735 73.8196L84.0402 73.8151L82.2245 79.2112L82.1588 79.2368V79.239ZM84.1926 74.0611L92.6491 75.1739L82.4948 79.1088L84.1926 74.0611ZM93.0819 75.0058L84.3417 73.8563L90.6499 66.88L93.3456 74.9046L93.0819 75.007V75.0058ZM95.8989 33.4855L105.442 32.4528L105.447 32.4583L105.518 32.7065L103.513 39.5425L95.9 33.4855H95.8989ZM95.7654 33.2763L98.4044 23.1307L105.287 32.2458L95.7665 33.2763H95.7654ZM98.6914 22.4051L98.6536 22.3551L98.3588 22.1725L97.0003 19.0244L101.507 20.0237L103.828 24.5239L103.815 24.5573L98.8872 22.6644L98.6914 22.4051ZM108.524 24.7988L104.795 24.5017L107.739 22.8146L111.635 22.2093L108.523 24.7988H108.524ZM106.546 19.4339L108.581 16.9022L111.796 17.4664L111.851 17.5399L112.093 21.7052L106.546 19.4328V19.4339ZM111.603 17.2072L108.741 16.7042L108.756 16.6864L108.635 16.6775L108.116 12.5411L111.604 17.2072H111.603ZM89.9834 11.4639L90.987 8.03753L91.679 11.1423L91.4709 13.951L89.9834 11.4639ZM91.4442 15.0917L91.6523 18.0195L88.7429 16.2179L91.4442 15.0917ZM53.6807 23.3989L53.0955 30.1904L47.1934 31.9909L53.6807 23.3989ZM46.7261 32.8589L50.6824 39.6905L50.6167 39.7261L50.6189 39.7284L43.6655 43.6199L46.7261 32.8601V32.8589ZM43.572 44.292L55.4586 49.7994L44.6389 55.8086L43.572 44.2909V44.292ZM44.9916 56.6855L52.32 61.6108L49.8746 66.4928L44.9927 56.6855H44.9916ZM50.1884 66.939L57.6503 64.039L58.5682 74.5796L50.1884 66.939ZM93.5281 74.7532L90.8501 66.7799L101.938 67.0859L93.5281 74.7543V74.7532ZM102.565 66.1845L101.868 59.452L107.364 56.5453L102.565 66.1834V66.1845ZM107.645 55.8275L98.4789 51.2238L108.704 44.3833L107.644 55.8275H107.645ZM108.58 43.4752L103.7 39.6916L105.632 33.1082L108.58 43.4741V43.4752ZM99.1409 22.9994L103.734 24.7632L102.617 27.6031L99.1409 22.9994Z" fill="#53FFFF"/>
<ellipse cx="78.9879" cy="126.723" rx="7.89686" ry="7.89686" fill="#390176"/>
<circle cx="78.9883" cy="126.723" r="6.92194" fill="#477DA7"/>
<circle cx="78.9893" cy="126.723" r="5.75204" fill="#579DC4"/>
<defs>
<filter id="filter0_f_1023_38243" x="39.3747" y="1.65449" width="76.9782" height="81.7486" filterUnits="userSpaceOnUse" color-interpolation-filters="sRGB">
<feFlood flood-opacity="0" result="BackgroundImageFix"/>
<feBlend mode="normal" in="SourceGraphic" in2="BackgroundImageFix" result="shape"/>
<feGaussianBlur stdDeviation="1.74819" result="effect1_foregroundBlur_1023_38243"/>
</filter>
<linearGradient id="paint0_linear_1023_38243" x1="48.334" y1="100.061" x2="109.747" y2="100.061" gradientUnits="userSpaceOnUse">
<stop stop-color="#84CFE3"/>
<stop offset="1" stop-color="#BACFE3"/>
</linearGradient>
<linearGradient id="paint1_linear_1023_38243" x1="50.815" y1="100.062" x2="107.266" y2="100.062" gradientUnits="userSpaceOnUse">
<stop stop-color="#84CFE3"/>
<stop offset="1" stop-color="#BACFE3"/>
</linearGradient>
<linearGradient id="paint2_linear_1023_38243" x1="55.4333" y1="100.062" x2="102.648" y2="100.062" gradientUnits="userSpaceOnUse">
<stop stop-color="white" stop-opacity="0"/>
<stop offset="0.22" stop-color="white" stop-opacity="0.24"/>
<stop offset="0.6" stop-color="white" stop-opacity="0.64"/>
<stop offset="0.87" stop-color="white" stop-opacity="0.9"/>
<stop offset="1" stop-color="white"/>
</linearGradient>
<linearGradient id="paint3_linear_1023_38243" x1="51.8553" y1="104.179" x2="106.224" y2="104.179" gradientUnits="userSpaceOnUse">
<stop stop-color="#86CFE4"/>
<stop offset="0.31" stop-color="#6CC9DF"/>
<stop offset="0.96" stop-color="#2BB9D4"/>
<stop offset="1" stop-color="#28B9D4"/>
</linearGradient>
<linearGradient id="paint4_linear_1023_38243" x1="78.3024" y1="13.108" x2="78.3015" y2="92.4019" gradientUnits="userSpaceOnUse">
<stop stop-color="#7F38FE" stop-opacity="0"/>
<stop offset="1" stop-color="#5FC4FD" stop-opacity="0.63"/>
</linearGradient>
<linearGradient id="paint5_linear_1023_38243" x1="78.3028" y1="40.9377" x2="78.3022" y2="91.122" gradientUnits="userSpaceOnUse">
<stop stop-color="#5FC4FD" stop-opacity="0"/>
<stop offset="1" stop-color="#5FC4FD"/>
</linearGradient>
</defs>
</svg>
