<svg width="180" height="181" viewBox="0 0 180 181" fill="none" xmlns="http://www.w3.org/2000/svg">
<g clip-path="url(#clip0_1543_13663)">
<g clip-path="url(#clip1_1543_13663)">
<path d="M170.324 123.284C170.271 121.748 169.39 120.922 167.872 122.207C165.432 124.274 160.703 125.963 157.896 126.84L158.816 126.458L158.31 125.468L158.104 125.59C160.156 123.548 161.935 120.649 163.108 118.034C163.758 116.593 163.664 114.139 163.108 112.191C162.254 109.262 160.309 107.506 158.135 112.191C156.247 116.245 153.107 119.584 149.178 121.715C149.231 121.64 149.287 121.565 149.337 121.484L148.364 120.947C148.141 121.434 147.874 121.937 147.602 122.421L147.577 122.463C149.801 118.27 148.967 112.47 147.577 108.216C147.209 107.097 146.49 106.128 145.525 105.453C143.232 103.834 140.071 104.184 140.071 107.183C140.071 109.362 139.713 113.271 139.371 116.504C139.201 118.129 139.035 119.584 138.918 120.566C134.07 117.558 130.136 113.276 127.893 110.272C136.7 104.285 143.096 95.3626 145.942 85.0952C148.788 74.8279 147.899 63.8827 143.432 54.2106C143.193 53.6959 142.943 53.1895 142.687 52.6859C142.748 52.5134 142.81 52.3437 142.865 52.174C143.638 49.7758 143.563 47.7476 142.64 46.1478L142.57 46.0309C142.128 45.2519 141.459 44.0834 139.39 43.488L139.24 43.4435H139.224L139.199 43.4213L139.071 43.3851C138.189 43.0737 137.277 42.8592 136.349 42.7452L135.696 42.6589C129.703 36.1507 121.924 31.5588 113.333 29.4595C104.743 27.3601 95.7242 27.8467 87.4091 30.8584C79.0939 33.87 71.8527 39.2724 66.594 46.3877C61.3353 53.5031 58.2934 62.0144 57.8499 70.8536C57.5736 70.8146 57.295 70.7942 57.016 70.7924C56.2845 70.7859 55.5617 70.9517 54.9061 71.2765L49.3465 74.1477C47.0559 74.1282 42.6888 73.3576 42.7083 67.796C44.5318 67.5901 45.9801 67.3453 46.5416 67.1199C48.6265 66.2853 46.1246 64.3238 46.5416 62.9466C46.9586 61.5695 50.0303 61.2773 52.2486 60.4427C54.4669 59.608 58.6422 51.2615 55.8624 48.201C54.4252 46.6208 53.2104 45.8557 52.2208 45.6414C51.8333 45.5404 51.4261 45.5438 51.0404 45.6513C50.6546 45.7588 50.3042 45.9666 50.0247 46.2535C49.5577 46.7209 49.58 47.2718 49.7746 47.8394C50.0525 48.6212 50.6391 49.4363 50.7197 50.1041C50.8281 51.0166 49.8135 52.3298 47.8092 52.3298C47.1927 52.3221 46.5811 52.2179 45.9968 52.021C45.88 51.9848 45.7661 51.9403 45.6521 51.893L45.855 51.9487L46.133 50.8747C45.8687 50.8215 45.6013 50.7852 45.3324 50.7662C45.0711 50.7468 44.8126 50.7384 44.5541 50.7412C44.2955 50.744 44.1176 50.7412 43.9008 50.7746C43.032 49.9904 42.4926 48.9057 42.3914 47.7392C42.3639 47.1916 42.4806 46.6463 42.7299 46.158C42.9792 45.6698 43.3523 45.2556 43.8118 44.957C46.6862 42.9205 47.7675 45.3243 49.7273 44.957C50.7558 44.7623 51.7065 44.5953 52.2125 44.0361C52.6711 43.5298 52.7684 42.7062 52.2402 41.2539C51.1283 38.1935 46.4916 36.4129 43.8063 37.5814C41.121 38.75 37.2209 38.7416 35.553 45.6971C35.553 45.6971 34.997 38.1852 38.0548 36.5159C41.1126 34.8466 41.7437 33.6252 40.2787 32.3426C38.0548 30.3951 33.6071 31.2297 30.5493 34.8466C27.4915 38.4634 28.9898 42.4614 29.1594 45.1406C29.1594 45.1406 24.9897 41.802 26.3796 37.6287C26.702 36.6605 26.6353 36.0373 26.3323 35.709C25.3288 34.624 21.7373 36.7941 21.0979 40.4109C20.3418 44.7066 22.1487 48.0258 24.7395 50.527C24.6005 50.6327 24.4615 50.744 24.3197 50.8692L25.1064 51.6537C25.2343 51.5202 25.3844 51.3755 25.529 51.2448L25.5456 51.2615C25.5456 51.2615 23.8778 55.1565 25.5456 58.4951C26.5466 60.4907 28.2205 62.0675 30.2713 62.9466C30.272 62.9568 30.272 62.9671 30.2713 62.9772C30.0906 62.9772 29.9072 62.9606 29.7154 62.9466V64.0595L29.9155 64.04C29.6375 65.0027 29.3846 66.3993 29.7154 67.3981C29.91 67.9824 31.7752 68.2328 34.2048 68.2606C34.1659 72.2503 35.5113 78.36 43.1475 82.0324C43.0878 82.9852 43.0971 83.9411 43.1753 84.8925C43.5255 89.4358 45.1906 94.8583 47.862 100.161C52.6934 109.737 59.5178 116.429 64.4576 116.429C65.1882 116.436 65.9103 116.27 66.5647 115.945L75.1821 111.493C75.8936 111.122 76.4992 110.577 76.9417 109.907C86.1899 116.382 97.5327 119.139 108.718 117.631C109.076 117.583 109.429 117.53 109.785 117.475L110.18 117.408C110.402 117.369 110.625 117.333 110.847 117.291L111.172 117.227C111.417 117.183 111.664 117.135 111.906 117.085L112.143 117.032C112.421 116.974 112.699 116.916 112.96 116.852L113.121 116.81C113.416 116.74 113.71 116.668 114.002 116.593L114.111 116.565L115.036 116.312L115.109 116.29C115.428 116.198 115.742 116.103 116.057 116.011L116.12 115.992C116.437 115.892 116.752 115.789 117.066 115.683L117.149 115.655L117.377 115.574C119.879 121.375 124.76 124.956 126.884 126.303C126.587 128.478 128.552 131.625 129.744 133.303C129.664 133.278 129.586 133.253 129.514 133.225L129.216 134.299C129.503 134.348 129.793 134.379 130.084 134.39C130.248 134.39 130.409 134.404 130.57 134.39L130.614 134.446C130.614 134.446 129.225 134.724 125.611 133.055C124.897 132.702 124.091 132.576 123.304 132.693C122.953 132.75 122.618 132.879 122.32 133.072C120.754 134.087 120.585 136.83 124.221 140.289C129.781 145.575 136.144 143.349 136.144 143.349C141.256 148.043 145.172 145.194 146.512 143.905C146.498 143.961 146.487 144.022 146.473 144.078L147.56 144.312C147.613 143.925 147.646 143.549 147.669 143.179C154.618 141.109 154.015 135.692 154.763 133.458C154.809 133.566 154.868 133.668 154.938 133.762L155.791 132.613C155.7 132.54 155.611 132.476 155.513 132.412C157.006 131.333 160.334 131.603 165.351 130.006C168.893 128.879 170.383 125.418 170.308 123.301L170.324 123.284Z" fill="#390176"/>
<path d="M141.798 147.617C139.741 147.617 137.703 146.802 135.727 145.188C134.781 145.389 133.816 145.488 132.849 145.486C129.198 145.488 125.691 144.057 123.081 141.502C119.979 138.55 119.49 136.179 119.626 134.71C119.67 134.099 119.855 133.505 120.166 132.977C120.478 132.449 120.908 132.001 121.422 131.667C121.911 131.349 122.461 131.135 123.037 131.041C123.312 130.994 123.591 130.971 123.871 130.971C124.717 130.977 125.551 131.167 126.317 131.528L126.803 131.747C125.983 130.264 125.324 128.654 125.211 127.171C122.962 125.627 119.025 122.427 116.51 117.597C116.198 117.694 115.884 117.789 115.567 117.875L115.492 117.9C115.173 117.989 114.853 118.078 114.53 118.162L114.422 118.19C114.116 118.27 113.81 118.346 113.505 118.418L113.341 118.46C113.063 118.526 112.785 118.588 112.49 118.649L112.245 118.702L111.5 118.849L111.147 118.916C110.961 118.952 110.772 118.983 110.591 119.013L110.313 119.061L110.052 119.105C109.685 119.163 109.316 119.219 108.94 119.269C106.867 119.547 104.777 119.686 102.686 119.687C93.6363 119.704 84.7805 117.065 77.2141 112.097C76.8256 112.44 76.395 112.733 75.9326 112.968L65.828 118.187L65.714 117.962C65.2999 118.041 64.8792 118.081 64.4575 118.081C58.8228 118.081 51.5564 111.173 46.3748 100.896C43.595 95.4036 41.8771 89.7669 41.5129 85.0038C41.4601 84.325 41.4351 83.66 41.4434 83.0173C34.6634 79.3393 32.9149 73.7332 32.5952 69.8576C29.757 69.6851 28.5395 69.1259 28.1475 67.9101C27.8696 67.0392 27.8306 65.9625 28.0614 64.6911V63.6366C26.3511 62.5604 24.9632 61.0416 24.0445 59.2408C22.8019 56.7535 23.0632 54.077 23.4552 52.3743L22.3183 50.3906C19.7469 47.3302 18.7823 43.8831 19.4467 40.1216C20.0861 36.4797 23.2161 33.7587 25.5845 33.7587C26.1323 33.7385 26.6718 33.8961 27.1227 34.208C27.5736 34.5199 27.9116 34.9693 28.0864 35.4892C28.4171 34.8757 28.8113 34.2984 29.2622 33.7671C31.4444 31.1908 34.4355 29.6522 37.2681 29.6522C38.763 29.6124 40.2207 30.1221 41.3656 31.085C42.5887 32.159 42.7555 33.2412 42.6721 33.9618C42.5331 35.2166 41.5991 36.1876 40.4482 37.0055C40.918 36.8219 41.3739 36.6689 41.8048 36.5242C42.2829 36.3629 42.7333 36.2126 43.1224 36.0429C43.9358 35.7001 44.8113 35.5296 45.6938 35.5421C48.7516 35.5421 52.6211 37.4618 53.7886 40.6752C54.0165 41.2984 54.6448 43.0234 53.8859 44.4924C54.9116 45.0043 55.9624 45.8612 57.0688 47.077C58.4253 48.5683 58.7756 50.8803 58.0834 53.7543C57.2856 57.0929 54.9784 61.1855 52.8212 62.0007C52.0707 62.2789 51.2756 62.4987 50.5084 62.7046C49.7996 62.8966 48.6765 63.197 48.2012 63.4669C48.2651 63.6422 48.3707 63.8731 48.4486 64.0456C48.8127 64.8385 49.3075 65.9264 48.8461 67.0782C48.6883 67.4469 48.4552 67.7785 48.1617 68.0516C47.8683 68.3247 47.5209 68.5333 47.142 68.664C46.2825 68.9488 45.3955 69.1427 44.4957 69.2427C45.1156 72.1 47.6313 72.4228 48.9434 72.4673L54.1305 69.788C54.8049 69.4472 55.536 69.2331 56.2876 69.1565C57.2639 57.5352 62.5624 46.7038 71.1351 38.8048C79.7079 30.9059 90.9304 26.5148 102.583 26.5H102.688C109.02 26.5088 115.283 27.806 121.098 30.3126C126.912 32.8193 132.157 36.4831 136.513 41.0814H136.574C137.597 41.2164 138.602 41.4579 139.574 41.802L140.074 41.9384L140.116 41.9801C140.952 42.2234 141.73 42.6352 142.402 43.1902C143.073 43.7451 143.624 44.4316 144.022 45.2074L144.088 45.3215C145.239 47.3135 145.375 49.7507 144.494 52.5691C144.658 52.9002 144.808 53.2118 144.947 53.5095C149.458 63.2615 150.463 74.2741 147.792 84.6825C145.12 95.091 138.937 104.256 130.289 110.625C132.429 113.245 134.875 115.598 137.575 117.633C137.622 117.216 137.67 116.779 137.717 116.328C138.17 112.052 138.406 108.889 138.406 107.183C138.406 104.579 140.141 102.829 142.721 102.829C144.076 102.854 145.392 103.294 146.49 104.09C147.753 104.971 148.693 106.241 149.167 107.706C149.87 109.86 151.096 114.495 150.418 118.991C153.106 117.07 155.25 114.485 156.642 111.487C157.087 110.533 158.432 107.629 160.842 107.629C161.849 107.629 163.692 108.163 164.734 111.724L164.798 111.952V111.966C165.354 114.011 165.504 116.826 164.648 118.721C163.872 120.447 162.942 122.099 161.868 123.657C164.075 122.747 165.776 121.818 166.819 120.933C167.625 120.251 168.434 119.904 169.226 119.904C170.48 119.904 171.775 120.816 171.989 122.842L172.017 122.897V123.256C172.114 126.316 170.007 130.281 165.902 131.603C163.811 132.25 161.674 132.732 159.508 133.044C158.641 133.186 157.84 133.322 157.284 133.469L156.172 134.966C156.153 135.08 156.13 135.197 156.111 135.317C155.875 136.683 155.555 138.555 154.443 140.325C153.314 142.153 151.574 143.522 149.259 144.409C149.259 144.451 149.003 146.315 149.003 146.315L146.807 145.856C145.376 146.978 143.615 147.597 141.798 147.617ZM44.6597 49.0607C44.921 49.0607 45.1878 49.0607 45.4519 49.0914C45.7899 49.1152 46.126 49.1608 46.4582 49.2277L48.19 49.5921L47.9121 50.6549C48.5959 50.6271 48.9211 50.3572 49.024 50.2209C48.9628 50.0568 48.8183 49.773 48.7182 49.5755C48.5153 49.1935 48.3379 48.7985 48.1873 48.393C47.9592 47.7804 47.911 47.1153 48.0483 46.4761C47.7246 46.3746 47.4064 46.2567 47.0948 46.1228C46.7555 45.9451 46.3858 45.8328 46.0051 45.7917C45.88 45.7917 45.502 45.7917 44.7653 46.3147C44.5361 46.4527 44.349 46.6509 44.2245 46.8878C44.1 47.1248 44.0429 47.3913 44.0592 47.6585C44.1069 48.1661 44.3 48.6491 44.6152 49.0496L44.6597 49.0607Z" fill="#390176"/>
<path d="M137.372 44.5842C137.843 45.1585 138.15 45.8501 138.258 46.5853C138.367 47.3204 138.274 48.0712 137.989 48.7575C134.473 57.104 121.516 69.0118 104.159 79.0388C87.7577 88.5149 71.8654 93.7426 62.6003 93.3504C61.483 91.1349 60.5532 88.8297 59.8205 86.4589C56.7768 76.6481 57.1832 66.0897 60.9722 56.5424C64.7612 46.9951 71.7039 39.0352 80.6441 33.9885C89.5842 28.9417 99.9821 27.1128 110.106 28.8064C120.229 30.5 129.468 35.6138 136.282 43.296C136.655 43.7134 137.016 44.139 137.372 44.5842Z" fill="url(#paint0_radial_1543_13663)"/>
<path d="M147.58 73.1015C147.578 82.6401 144.543 91.9306 138.915 99.6283C133.287 107.326 125.357 113.032 116.274 115.919C107.19 118.807 97.4247 118.726 88.3901 115.69C79.3554 112.653 71.5206 106.818 66.0196 99.0287C65.7101 98.5928 65.4081 98.1495 65.1134 97.6988C69.3888 98.1857 75.3987 97.2537 82.3761 95.0724C90.0929 92.6631 98.9994 88.7235 108.056 83.4902C126.264 72.9624 139.632 60.3619 142.337 52.0098C142.723 52.7331 143.087 53.4704 143.449 54.216C146.184 60.1349 147.594 66.5804 147.58 73.1015Z" fill="url(#paint1_radial_1543_13663)"/>
<path d="M67.4863 98.3806C66.671 98.3838 65.8562 98.341 65.0456 98.2526C61.7738 97.877 59.5555 96.7196 58.4463 94.8055L57.365 92.9136L59.1802 93.9875C60.3616 94.6942 61.9795 95.1254 63.9865 95.2673C64.4785 95.3035 65.0012 95.3202 65.5377 95.3202C75.1642 95.3202 90.6005 89.856 105.826 81.0615C124.072 70.5198 138.169 57.3294 140.112 48.9884C140.126 48.9272 140.137 48.8744 140.145 48.8187C140.261 47.8757 140.216 46.9199 140.012 45.992C139.958 45.6948 139.839 45.4132 139.664 45.167C139.49 44.9208 139.263 44.7162 139 44.5675L138.844 44.4841L138.764 44.3171L138.172 43.1431L139.406 43.4936C141.471 44.0834 142.144 45.2575 142.586 46.0365L142.655 46.1534C143.578 47.7531 143.653 49.7702 142.881 52.1796C140.059 60.8879 126.182 73.6637 108.341 83.9716C92.9467 92.8607 77.2991 98.3806 67.4863 98.3806Z" fill="#390176"/>
<path d="M142.336 52.0097C139.631 60.3562 126.263 72.9651 108.05 83.4901C90.815 93.4559 74.1138 98.7254 65.1072 97.6987C62.1105 97.3565 59.9645 96.3077 58.9276 94.5271L58.8943 94.4658C60.1702 95.2282 61.877 95.6761 63.9452 95.8236C73.1186 96.4746 89.3444 91.2246 106.104 81.5426C125.023 70.6114 138.714 57.4405 140.652 49.1134C140.668 49.0467 140.682 48.9771 140.693 48.9048C140.86 47.9644 140.721 46.7875 140.557 45.8917C140.489 45.5133 140.338 45.1547 140.115 44.8416C139.892 44.5285 139.602 44.2686 139.267 44.0804L139.239 44.0276C141.185 44.584 141.716 45.6663 142.158 46.4314C143.02 47.9226 143.042 49.8201 142.336 52.0097Z" fill="#455399"/>
<path d="M65.5384 96.4331C64.9824 96.4331 64.4265 96.4164 63.9066 96.3802C61.7272 96.2244 59.9454 95.7403 58.625 94.9446L58.4971 94.8667L58.4248 94.7387C58.0705 94.0968 57.8448 93.3917 57.7604 92.6632C57.5325 90.8437 58.0607 88.6708 59.331 86.203L59.9509 84.9955L60.354 86.2948C61.0503 88.5307 61.9231 90.7077 62.9643 92.8051C63.1792 92.8051 63.3961 92.8051 63.6147 92.8051C73.2413 92.8051 88.6776 87.3437 103.894 78.5492C120.423 68.9979 133.552 57.3489 137.349 48.866C137.65 48.1798 137.753 47.4234 137.647 46.6818C137.542 45.9402 137.232 45.2427 136.752 44.6677C136.474 44.3283 136.174 43.9889 135.882 43.655L134.895 42.5421L136.371 42.7369C137.297 42.8503 138.207 43.064 139.087 43.374L139.215 43.4102L139.24 43.4324C139.347 43.4782 139.452 43.5302 139.554 43.5882C139.96 43.8168 140.31 44.132 140.581 44.5114C140.851 44.8907 141.035 45.325 141.119 45.7834C141.349 46.8377 141.395 47.9239 141.255 48.994C141.255 49.0719 141.227 49.1582 141.208 49.2388C139.17 57.9888 125.182 71.1625 106.396 82.0158C90.9987 90.9132 75.3484 96.4331 65.5384 96.4331Z" fill="#390176"/>
<path d="M140.694 48.9049C140.682 48.9772 140.669 49.0468 140.652 49.1136C138.706 57.4407 125.024 70.6115 106.104 81.5427C89.3448 91.2248 73.1162 96.4747 63.9456 95.8237C61.8774 95.6762 60.1706 95.2283 58.8946 94.466C58.5757 93.8877 58.3726 93.2526 58.297 92.5964C58.0802 90.8575 58.6167 88.7764 59.8092 86.4589C60.5419 88.8297 61.4718 91.1349 62.589 93.3503C71.8542 93.7426 87.7492 88.5149 104.147 79.0388C121.279 69.1453 134.125 57.4128 137.842 49.1024C138.187 48.3216 138.306 47.4594 138.187 46.614C138.067 45.7685 137.712 44.9736 137.163 44.3199C136.874 43.9749 136.58 43.6336 136.282 43.296C137.174 43.406 138.051 43.6122 138.898 43.9109H138.912C139.035 43.9559 139.154 44.0108 139.268 44.075C139.603 44.2632 139.892 44.5231 140.115 44.8362C140.338 45.1493 140.489 45.5079 140.557 45.8862C140.721 46.7877 140.86 47.9645 140.694 48.9049Z" fill="white"/>
<path opacity="0.6" d="M99.5115 112.993C89.3846 112.261 80.4475 106.627 80.4475 106.627C81.0035 105.65 80.4475 103.152 80.4475 103.152C80.4475 103.152 82.1154 102.595 83.5943 100.425C84.4672 99.1892 84.8578 97.676 84.6923 96.1714C86.1749 95.691 87.6954 95.1568 89.254 94.5689C90.6133 95.1113 92.0679 95.3741 93.5309 95.3417C94.994 95.3092 96.4355 94.9822 97.7695 94.3801C99.1035 93.7779 100.303 92.913 101.295 91.837C102.288 90.7609 103.054 89.4958 103.548 88.117C105.499 87.1024 107.464 86.0238 109.441 84.8813C127.071 74.6929 140.161 62.557 143.435 54.216C143.088 53.4704 142.724 52.7331 142.324 52.0098C139.619 60.3563 126.251 72.9652 108.037 83.4902C106.72 84.2525 105.407 84.9852 104.098 85.6881C104.321 83.7681 104.03 81.8234 103.255 80.053C102.48 78.2826 101.248 76.7504 99.6865 75.6131C98.1249 74.4759 96.2893 73.7746 94.3677 73.581C92.4462 73.3875 90.5078 73.7087 88.751 74.5117C86.9943 75.3147 85.4825 76.5707 84.3704 78.1509C83.2583 79.7312 82.5859 81.579 82.4221 83.5049C82.2583 85.4308 82.609 87.3657 83.4382 89.1114C84.2675 90.857 85.5455 92.3507 87.1413 93.4393C85.4568 94.0625 83.8055 94.6217 82.2238 95.1086L82.171 95.1253C81.6892 95.2737 81.2129 95.4165 80.7422 95.5538L80.4642 95.6344L79.2689 95.9683L78.9659 96.049C78.5517 96.1575 78.1458 96.2632 77.74 96.3634L77.5454 96.4107C76.6003 96.6407 75.6801 96.8428 74.785 97.0172L74.5265 97.0673L73.5035 97.2509L73.1422 97.3093C72.8364 97.3594 72.5334 97.4039 72.2359 97.4484L71.8801 97.4985L70.9016 97.6154L70.6876 97.6404C70.2956 97.6794 69.9148 97.7127 69.5395 97.7406L69.2921 97.7545C69.0141 97.7712 68.7361 97.7879 68.4582 97.7962H68.0912H67.4046H67.0321C66.8042 97.7962 66.5818 97.7962 66.3594 97.7712L66.0453 97.7573C65.7284 97.735 65.417 97.71 65.1168 97.6766C65.4115 98.1273 65.7136 98.5706 66.023 99.0065C69.8712 104.465 74.8878 108.996 80.7072 112.269C86.5265 115.541 93.0021 117.473 99.6619 117.923C106.322 118.374 112.998 117.332 119.205 114.872C125.411 112.413 130.991 108.599 135.538 103.708C125.289 110.149 109.633 113.721 99.5115 112.993Z" fill="#1E1D91" fill-opacity="0.5"/>
<path d="M94.0147 94.3715C100.031 94.3715 104.909 89.4899 104.909 83.4681C104.909 77.4463 100.031 72.5647 94.0147 72.5647C87.9981 72.5647 83.1206 77.4463 83.1206 83.4681C83.1206 89.4899 87.9981 94.3715 94.0147 94.3715Z" fill="#390176"/>
<path d="M94.0147 92.7967C99.1624 92.7967 103.335 88.6202 103.335 83.4681C103.335 78.316 99.1624 74.1394 94.0147 74.1394C88.867 74.1394 84.694 78.316 84.694 83.4681C84.694 88.6202 88.867 92.7967 94.0147 92.7967Z" fill="white"/>
<g style="mix-blend-mode:multiply" opacity="0.6">
<path d="M95.1044 90.9799C93.5453 90.9799 92.011 90.5884 90.6422 89.8412C89.2734 89.0941 88.1137 88.0153 87.2693 86.7034C86.4249 85.3916 85.9228 83.8887 85.8089 82.3324C85.6951 80.7761 85.9731 79.2161 86.6176 77.7952C85.8174 78.8384 85.2465 80.0392 84.9426 81.3188C84.6387 82.5983 84.6086 83.9278 84.8542 85.2198C85.0998 86.5119 85.6157 87.7373 86.3678 88.8158C87.12 89.8943 88.0916 90.8013 89.2187 91.4775C90.3458 92.1537 91.6031 92.5837 92.908 92.7393C94.2129 92.8949 95.5359 92.7726 96.7902 92.3804C98.0445 91.9882 99.2018 91.3349 100.186 90.4635C101.17 89.5921 101.959 88.5223 102.502 87.3242C101.632 88.4618 100.513 89.3834 99.2299 90.0175C97.947 90.6515 96.5352 90.9809 95.1044 90.9799Z" fill="#B2A8C1"/>
</g>
<path d="M77.1392 101.925C76.7222 97.6296 75.1127 92.527 72.6081 87.5608C70.1368 82.6614 67.0318 78.3796 63.8656 75.4806L63.2762 74.9436L66.3702 73.3299C66.8426 73.0924 67.3649 72.9713 67.8935 72.9766C71.3294 72.9766 76.0551 77.5839 79.3825 84.1805C83.3076 91.9706 83.7441 99.399 80.3805 101.099L77.2198 102.746L77.1392 101.925Z" fill="#390176"/>
<path d="M80.1299 100.601L77.6948 101.872C77.2862 97.6739 75.7322 92.5185 73.1053 87.3102C71.954 85.0149 70.6297 82.8106 69.1441 80.7164C67.7122 78.6667 66.0686 76.7737 64.2405 75.0686L66.6283 73.8222C68.2073 73.0237 70.445 73.9223 72.7439 76.0034C74.8816 77.9287 77.0832 80.875 78.8762 84.4307C82.6151 91.8341 83.1683 99.065 80.1299 100.601Z" fill="#8FFFFF"/>
<g style="mix-blend-mode:multiply" opacity="0.6">
<path d="M69.1441 80.7164C67.7122 78.6667 66.0686 76.7737 64.2405 75.0686L66.6283 73.8222C68.2073 73.0237 70.445 73.9223 72.7439 76.0034C72.7439 76.0034 69.8724 74.2145 68.7605 74.2145C66.8146 74.2145 65.3774 75.1688 65.9806 75.8838C66.5839 76.5988 68.2156 78.3877 69.1441 80.7164Z" fill="#B2A8C1"/>
</g>
<g style="mix-blend-mode:multiply" opacity="0.6">
<path d="M80.1296 100.601L77.6945 101.872C77.2858 97.6739 75.7319 92.5185 73.105 87.3103C73.105 87.3103 75.4817 90.0479 76.5742 92.5658C77.6667 95.0837 81.0024 93.1222 80.7245 90.6183C80.5076 88.6707 79.0177 84.7339 78.8926 84.4335C82.6147 91.8341 83.1679 99.065 80.1296 100.601Z" fill="#B2A8C1"/>
</g>
<path d="M50.7022 74.0754L46.5324 76.2288C44.7756 77.1164 43.8388 79.2892 43.6859 82.2884C30.9682 76.5794 34.7182 64.3378 34.7182 64.3378L42.8742 65.7706C41.3036 75.55 50.7022 74.0754 50.7022 74.0754Z" fill="#390176"/>
<path d="M48.3619 74.6542L46.277 75.7281C44.5507 76.6017 43.4972 78.5687 43.1942 81.4372C38.5352 79.1419 35.7721 75.6586 34.9798 71.0763C34.6423 69.0514 34.6932 66.9808 35.1299 64.975L42.2463 66.2242C42.0438 67.558 42.1138 68.919 42.452 70.225C42.6764 71.0418 43.0736 71.8009 43.6167 72.4507C44.3305 73.2656 45.2504 73.873 46.2798 74.2091C46.9536 74.4398 47.6526 74.5893 48.3619 74.6542Z" fill="white"/>
<path d="M48.3619 74.6542L46.277 75.7281C44.5507 76.6017 43.4972 78.5687 43.1942 81.4372C38.5352 79.1419 35.7721 75.6586 34.9798 71.0763C34.6423 69.0514 34.6932 66.9808 35.1299 64.975L42.2463 66.2242C42.0438 67.558 42.1138 68.919 42.452 70.225C42.452 70.225 38.1099 70.6284 38.8382 72.9765C39.5665 75.3247 44.3478 77.2555 46.2687 74.2063C46.946 74.4388 47.6487 74.5892 48.3619 74.6542Z" fill="#B2A8C1"/>
<path d="M34.8188 69.3764C30.1431 69.3764 28.9951 68.7532 28.6615 67.7516C28.2084 66.3911 28.5781 64.6189 28.9033 63.5227C27.0335 62.4819 25.5182 60.9043 24.5529 58.9933C23.1269 56.1415 23.8051 53.0144 24.2471 51.5954C20.6806 48.2986 19.2435 44.4731 20.0051 40.2163C20.6 36.8387 23.4465 34.3153 25.5953 34.3153C25.9236 34.3021 26.2502 34.3689 26.5471 34.5099C26.8439 34.6509 27.102 34.862 27.2994 35.1249C27.7914 35.8065 27.8359 36.7636 27.4356 37.9711C27.1001 39.0061 27.1454 40.1271 27.5635 41.1316C27.4245 38.956 27.7163 36.4659 29.7011 34.1178C31.7777 31.6611 34.6103 30.1977 37.2817 30.1977C38.6398 30.165 39.9629 30.6311 41.0011 31.5081C41.835 32.2426 42.2159 33.0466 42.113 33.9035C41.9768 35.1388 40.9177 36.2127 38.5688 37.4953C37.9516 37.832 37.4568 38.6611 37.1121 39.888C38.6661 38.1631 40.4813 37.5538 41.9713 37.053C42.4633 36.8888 42.9247 36.7358 43.3361 36.5549C44.0798 36.2443 44.8793 36.0899 45.6851 36.1015C48.5567 36.1015 52.1732 37.8848 53.2573 40.8673C53.8133 42.3669 53.8133 43.4687 53.3296 44.3367C53.2498 44.4797 53.1568 44.6147 53.0516 44.7401C54.1913 45.163 55.3978 46.0728 56.6654 47.4556C57.933 48.8383 58.1971 50.9416 57.5494 53.6348C56.7988 56.7536 54.5944 60.7461 52.6291 61.4889C51.9063 61.7671 51.128 61.973 50.3719 62.1761C49.5212 62.4042 47.7505 62.88 47.5921 63.2639C47.5615 63.4309 47.8144 63.9873 47.9507 64.285C48.287 65.0278 48.7095 65.9543 48.337 66.8808C48.2066 67.1782 48.0156 67.4451 47.7763 67.6645C47.5369 67.8839 47.2546 68.051 46.9471 68.155C45.4321 68.7615 39.3138 69.3792 34.8188 69.3792V69.3764ZM46.0048 45.2354C45.4332 45.2772 44.8885 45.4949 44.4453 45.8586C44.0999 46.0689 43.8255 46.378 43.6575 46.746C43.4896 47.114 43.4357 47.524 43.5029 47.923C43.7031 49.2139 44.8928 50.4854 46.3078 50.9416C46.7817 51.1027 47.2778 51.189 47.7783 51.1976C48.0707 51.2156 48.3637 51.1739 48.6395 51.0749C48.9153 50.9759 49.168 50.8217 49.3823 50.6217C49.4944 50.5189 49.5671 50.3801 49.588 50.2294C49.4989 49.9099 49.371 49.6024 49.2071 49.3141C48.7985 48.5044 48.1508 47.2302 48.7735 46.0645C48.2659 45.9713 47.7719 45.8153 47.303 45.5998C46.898 45.3951 46.4571 45.2713 46.0048 45.2354Z" fill="#390176"/>
<path d="M52.2401 60.4426C50.0162 61.2773 46.9584 61.5555 46.5331 62.9466C46.1078 64.3377 48.618 66.2852 46.5331 67.1199C44.4482 67.9545 30.2711 69.0674 29.7152 67.3981C29.1592 65.7288 30.2711 62.9466 30.2711 62.9466C28.2204 62.0675 26.5464 60.4906 25.5455 58.4951C23.8776 55.1565 25.5455 51.2614 25.5455 51.2614C22.5405 48.6879 20.2638 45.1406 21.0977 40.4109C21.7371 36.794 25.3286 34.6239 26.3321 35.709C26.6351 36.0373 26.7019 36.6605 26.3794 37.6287C24.9895 41.802 29.1592 45.1406 29.1592 45.1406C28.9897 42.4613 27.4913 38.4633 30.5491 34.8465C33.6069 31.2296 38.0546 30.395 40.2785 32.3425C41.7435 33.6251 41.1124 34.8465 38.0546 36.5158C34.9968 38.1851 35.5528 45.697 35.5528 45.697C37.2207 38.7416 41.1124 38.7416 43.7978 37.573C46.4831 36.4045 51.1198 38.1851 52.2317 41.2455C52.7599 42.6978 52.6626 43.5213 52.2039 44.0277C51.698 44.5841 50.7473 44.7539 49.7188 44.9486C47.7729 45.3159 46.6776 42.912 43.8033 44.9486C43.3438 45.2472 42.9707 45.6613 42.7214 46.1496C42.4721 46.6379 42.3554 47.1832 42.3828 47.7308C42.444 49.0106 43.2362 50.3266 44.4288 51.203C44.8998 51.5521 45.4247 51.8219 45.9827 52.0015C46.567 52.1984 47.1786 52.3026 47.7951 52.3103C49.7994 52.3103 50.814 51.0082 50.7056 50.0845C50.625 49.4168 50.0301 48.6016 49.7605 47.8198L51.6341 47.3663L52.2039 45.7721V45.6414C53.1935 45.8556 54.4083 46.6207 55.8455 48.201C58.6253 51.2614 54.4556 59.608 52.2401 60.4426Z" fill="white"/>
<path d="M52.2038 45.6413V45.7582L51.6339 47.3663L49.7575 47.8393C49.563 47.2828 49.5407 46.7264 50.0077 46.2534C50.2872 45.9665 50.6376 45.7587 51.0233 45.6512C51.4091 45.5437 51.8163 45.5403 52.2038 45.6413Z" fill="white"/>
<path d="M52.1987 44.0277C51.6928 44.5841 50.7421 44.7538 49.7135 44.9486C47.7677 45.3158 46.6724 42.912 43.7981 44.9486C43.3386 45.2472 42.9655 45.6613 42.7162 46.1496C42.4669 46.6379 42.3501 47.1831 42.3776 47.7308C42.1163 46.298 42.3637 44.1585 44.3624 43.2793C46.3611 42.4001 47.3674 42.7757 49.3133 43.6104C51.1785 44.4116 52.1209 44.0611 52.1987 44.0277Z" fill="#B2A8C1"/>
<path d="M40.2784 32.3425C40.2784 32.3425 36.8147 31.7694 35.2747 32.6708C32.4087 34.3401 30.3933 36.1597 29.5427 41.3512C29.451 41.9077 29.3759 42.4892 29.312 43.1207C29.248 43.7523 29.198 44.4228 29.1591 45.1406C28.9895 42.4613 27.4912 38.4633 30.549 34.8465C33.6068 31.2296 38.0545 30.395 40.2784 32.3425Z" fill="#B2A8C1"/>
<path d="M47.7897 52.3188C47.7007 52.3716 46.5109 53.0644 43.6616 53.3398C40.6956 53.618 39.4919 54.6141 38.847 56.0691C38.2021 57.5242 36.6732 57.5465 37.0179 56.9789L38.1298 54.2524L40.665 52.0099L42.9917 50.8804L44.4122 51.2115C44.8832 51.5606 45.4081 51.8303 45.9661 52.0099C46.554 52.208 47.1694 52.3122 47.7897 52.3188Z" fill="#B2A8C1"/>
<path d="M32.912 66.1461C32.078 64.755 34.5159 63.044 34.5159 63.044C28.6116 61.6084 27.3523 55.2956 27.0744 53.0698V53.0531C26.9632 52.1628 27.7443 50.5492 28.4643 50.0094C30.9494 48.1704 34.2046 47.4582 34.2046 47.4582C31.6555 47.5945 29.0953 48.7352 27.4469 49.631C27.4999 49.4758 27.5611 49.3235 27.6303 49.1748C24.2945 49.1748 22.3487 43.6104 22.3487 40.55C22.3487 37.4896 26.3321 35.709 26.3321 35.709C25.3286 34.6239 21.7371 36.794 21.0977 40.4109C20.2638 45.1406 22.5405 48.6879 25.5455 51.2614C25.5455 51.2614 23.8776 55.1565 25.5455 58.4951C26.5464 60.4906 28.2203 62.0675 30.2711 62.9466C30.2711 62.9466 29.1592 65.7288 29.7152 67.3981C30.2711 69.0674 44.4482 67.9545 46.5331 67.1199C43.1973 67.5372 33.7459 67.5372 32.912 66.1461Z" fill="#B2A8C1"/>
<path opacity="0.6" d="M80.5018 70.8508C76.157 70.8508 71.5814 68.0047 70.3916 65.459C69.9468 64.5102 70.0024 63.6283 70.5445 62.9745C70.7721 62.6692 71.0685 62.422 71.4095 62.2528C71.7505 62.0836 72.1265 61.9972 72.5071 62.0007C73.2452 62.052 73.9723 62.2075 74.667 62.4626C76.3164 63.0243 78.0451 63.3183 79.7874 63.3334H80.0654C80.9744 63.3167 81.8445 63.275 82.684 63.236C83.5235 63.1971 84.3852 63.1553 85.1052 63.1553C86.4951 63.1553 87.8294 63.2805 88.2964 64.1959C88.6801 64.9415 88.3743 65.9319 87.3124 67.4121C86.5491 68.5034 85.5276 69.3887 84.3392 69.9887C83.1508 70.5888 81.8324 70.8849 80.5018 70.8508Z" fill="#B2A8C1"/>
<path d="M66.0576 114.954L66.116 114.923C70.1523 112.79 69.1738 102.298 63.9922 92.0122C63.0621 90.164 62.0214 88.3737 60.876 86.6509L60.8482 86.6092C56.6785 80.3826 51.7916 76.3568 48.3891 76.3568C47.8331 76.349 47.2833 76.474 46.7851 76.7213L46.282 75.728L54.8994 71.2765C55.555 70.9517 56.2778 70.7859 57.0093 70.7924C59.2165 70.7924 61.8462 72.1307 64.6177 74.6569C67.278 77.0857 69.8771 80.4327 72.1371 84.3417L72.1788 84.3862L72.201 84.4557C72.6791 85.2904 73.1517 86.1612 73.5909 87.0599C76.1567 92.1457 77.8051 97.3873 78.236 101.819C78.7225 106.813 77.63 110.249 75.1782 111.496L66.5608 115.947L66.0576 114.954Z" fill="#390176"/>
<path d="M74.9276 110.998L66.3102 115.449C70.7579 113.198 69.9489 102.593 64.4866 91.7617C63.5394 89.8842 62.4792 88.066 61.3121 86.3169C60.3743 84.9069 59.3532 83.5542 58.2543 82.2661C53.9678 77.2832 49.4811 74.7709 46.5457 76.251L55.1631 71.7995C57.159 70.7923 59.8721 71.6298 62.7492 73.8361C63.244 74.2144 63.7444 74.6345 64.2448 75.0908C66.7966 77.4195 69.4013 80.7303 71.6891 84.7005C72.1756 85.5351 72.6482 86.4199 73.104 87.3213C75.731 92.5296 77.2738 97.685 77.6935 101.883C78.1327 106.407 77.2404 109.829 74.9276 110.998Z" fill="#8FFFFF"/>
<g style="mix-blend-mode:multiply" opacity="0.6">
<path d="M62.7348 73.7972C62.5513 73.6943 59.0404 71.6995 57.3725 72.2559C56.2355 72.6371 53.0554 74.2424 52.1576 74.7793C51.2597 75.3163 53.4891 76.6824 54.5927 77.542C56.1514 78.8062 57.3976 80.4134 58.2342 82.2384C53.9478 77.2555 49.4611 74.7432 46.5256 76.2233L55.1431 71.7718C57.1445 70.7646 59.8576 71.6021 62.7348 73.7972Z" fill="#B2A8C1"/>
</g>
<g style="mix-blend-mode:multiply" opacity="0.6">
<path d="M74.9282 110.998L66.3107 115.449C70.7584 113.199 69.9495 102.593 64.4872 91.7618C63.5399 89.8843 62.4798 88.0661 61.3126 86.317C61.4488 86.484 64.8791 90.0869 67.1502 94.8417C68.5846 97.8325 75.1561 95.9295 74.6975 92.8274C74.5807 92.0233 73.213 87.9446 71.6813 84.7034C72.1678 85.538 72.6404 86.4228 73.0963 87.3242C75.7232 92.5324 77.266 97.6878 77.6858 101.886C78.1333 106.407 77.241 109.829 74.9282 110.998Z" fill="#B2A8C1"/>
</g>
<path d="M80.5018 70.0161C76.157 70.0161 71.5814 67.17 70.3916 64.6243C69.9468 63.6755 70.0024 62.7936 70.5445 62.1398C70.7721 61.8345 71.0685 61.5872 71.4095 61.4181C71.7505 61.2489 72.1265 61.1625 72.5071 61.166C73.2452 61.2173 73.9723 61.3728 74.667 61.6278C76.3164 62.1896 78.0451 62.4836 79.7874 62.4987H80.0654C80.9744 62.482 81.8445 62.4402 82.684 62.4013C83.5235 62.3623 84.3852 62.3206 85.1052 62.3206C86.4951 62.3206 87.8294 62.4458 88.2964 63.3611C88.6801 64.1068 88.3743 65.0972 87.3124 66.5773C86.5491 67.6687 85.5276 68.5539 84.3392 69.154C83.1508 69.754 81.8324 70.0502 80.5018 70.0161Z" fill="#390176"/>
<path d="M86.8488 66.2492C81.2253 74.0699 68.452 65.5203 70.9733 62.496C71.2595 62.107 71.6829 61.8414 72.1575 61.7532C73.6836 61.4917 75.7713 63.1276 80.0633 63.0553C82.971 63.0052 85.5785 62.6852 86.9239 63.0553C88.1164 63.3585 88.3166 64.2071 86.8488 66.2492Z" fill="#7C9BD1"/>
<path opacity="0.6" d="M86.8488 66.2491C81.2253 74.0698 68.452 65.5201 70.9733 62.4959C71.2595 62.1068 71.6829 61.8412 72.1575 61.7531C72.1325 61.8254 71.9157 64.6048 74.3313 65.5897C81.8368 68.6501 87.2881 65.2224 86.9239 63.0412C88.1164 63.3584 88.3166 64.2069 86.8488 66.2491Z" fill="#667BB3"/>
<path d="M64.4568 116.429C59.517 116.429 52.6926 109.737 47.8613 100.161C45.1898 94.8583 43.5247 89.4358 43.1745 84.8925C42.8103 80.1795 43.9167 76.9243 46.2851 75.728C46.9386 75.4029 47.6597 75.237 48.3894 75.2439C53.3319 75.2439 60.1564 81.935 64.9849 91.5113C67.6591 96.8141 69.3242 102.237 69.6745 106.78C70.0359 111.493 68.9323 114.748 66.5639 115.944C65.9095 116.27 65.1875 116.436 64.4568 116.429Z" fill="#390176"/>
<path d="M66.3109 115.449C61.9271 117.675 54.0796 110.959 48.6173 100.426C48.5283 100.256 48.4422 100.086 48.356 99.9137C42.8964 89.0826 42.0792 78.4769 46.5324 76.2261C50.4242 74.2563 57.0958 79.3477 62.344 87.9113C63.089 89.1271 63.809 90.4153 64.4873 91.7591C69.9496 102.593 70.7669 113.199 66.3109 115.449Z" fill="#50CCC9"/>
<path opacity="0.6" d="M62.344 87.9141L48.6173 100.434C48.5283 100.264 48.4422 100.094 48.356 99.922C42.8964 89.0909 42.0792 78.4852 46.5324 76.2344C50.4353 74.2535 57.0846 79.3449 62.344 87.9141Z" fill="#B2A8C1"/>
<path d="M65.2463 113.335C64.7951 113.557 64.298 113.669 63.7952 113.663C60.7374 113.663 56.6205 110.294 52.9817 105.124C52.8705 104.969 52.7621 104.81 52.6537 104.649C51.4923 102.945 50.4448 101.166 49.5181 99.3235C44.7368 89.839 43.8556 80.2266 47.6 78.3375C48.0512 78.1154 48.5483 78.003 49.0511 78.0092C51.867 78.0092 55.5975 80.8804 59.0167 85.3875C60.6589 87.5723 62.1018 89.9001 63.3282 92.343C65.7189 97.0727 67.2061 101.919 67.5174 105.953C67.8121 109.771 66.9837 112.469 65.2463 113.335Z" fill="#4A6899"/>
<path opacity="0.6" d="M52.6537 104.649C51.4923 102.945 50.4448 101.166 49.5181 99.3235C44.7368 89.839 43.8556 80.2266 47.6 78.3375C48.0512 78.1154 48.5483 78.003 49.0511 78.0092C51.867 78.0092 55.5975 80.8804 59.0167 85.3875L59.039 86.5004L51.8114 95.4201C51.8114 95.4201 50.1435 91.1912 48.4756 92.0258C46.8077 92.8605 49.3151 99.6713 52.6537 104.649Z" fill="#1D1C91"/>
<path d="M67.7321 105.587C67.4207 101.553 65.9335 96.7205 63.5429 91.9769C62.3165 89.534 60.8735 87.2062 59.2314 85.0214C55.8122 80.5143 52.0817 77.6431 49.2657 77.6431C48.763 77.6369 48.2658 77.7493 47.8146 77.9714L-40.2856 105.587L-1.39094 175.128L65.4609 112.963C67.1983 112.098 68.0267 109.399 67.7321 105.587Z" fill="url(#paint2_linear_1543_13663)" style="mix-blend-mode:color-dodge"/>
<path d="M68.1119 106.58C67.7561 107.837 67.1056 108.73 66.1883 109.195C65.722 109.426 65.2077 109.545 64.6872 109.54C61.2291 109.54 56.445 104.838 53.0509 98.1052C51.1828 94.3993 50.0097 90.6155 49.7484 87.4438C49.4705 84.1052 50.2488 81.7904 51.9389 80.9363C52.4053 80.7054 52.9197 80.5881 53.44 80.5941C54.4748 80.6399 55.4801 80.9523 56.3588 81.5011C57.0343 82.166 57.7126 82.8922 58.3826 83.7074C60.5077 86.289 62.3328 89.1041 63.8227 92.0984C65.977 96.3719 67.3447 100.604 67.8756 104.207C67.9961 104.993 68.075 105.785 68.1119 106.58Z" fill="#390176"/>
<path d="M67.8764 104.207C67.8347 106.432 67.1981 108.063 65.9305 108.7C62.8727 110.238 57.3353 105.383 53.5381 97.8493C49.7408 90.3152 49.1348 82.9674 52.1815 81.4344C53.7688 80.6331 56.0316 81.5652 58.3749 83.7075C60.5001 86.2891 62.3252 89.1042 63.8151 92.0985C65.9778 96.372 67.3454 100.604 67.8764 104.207Z" fill="url(#paint3_linear_1543_13663)"/>
<path opacity="0.6" d="M54.1021 98.1329C50.3049 90.6015 49.6989 83.251 52.7456 81.718C53.6295 81.2728 54.722 81.3646 55.9201 81.9016C54.5052 81.1282 53.2098 80.9251 52.1896 81.4398C49.1318 82.9783 49.7489 90.3428 53.5461 97.8547C56.2398 103.191 59.8091 107.181 62.7446 108.505C59.9231 106.955 56.6262 103.135 54.1021 98.1329Z" fill="#B2A8C1"/>
<path d="M64.7122 106.264C67.2149 105 66.7153 98.961 63.5963 92.7758C60.4772 86.5905 55.92 82.6012 53.4173 83.8654C50.9146 85.1296 51.4142 91.1685 54.5332 97.3538C57.6522 103.539 62.2095 107.528 64.7122 106.264Z" fill="url(#paint4_linear_1543_13663)"/>
<g opacity="0.4">
<path d="M62.3596 101.6C63.8206 100.862 63.5297 97.3375 61.7098 93.7284C59.8898 90.1194 57.23 87.7919 55.769 88.5299C54.3079 89.2679 54.5989 92.7919 56.4188 96.401C58.2388 100.01 60.8986 102.338 62.3596 101.6Z" fill="url(#paint5_linear_1543_13663)"/>
</g>
<path d="M124.52 112.366C119.63 115.097 114.27 116.882 108.719 117.628C108.719 117.628 118.81 111.493 110.749 93.4086C110.749 93.4086 112.461 92.9217 116.864 90.07C121.59 87.0096 122.98 85.8967 122.98 85.8967C124.191 87.9343 125.179 90.0965 125.927 92.3458C127.731 97.6626 128.932 105.428 124.52 112.366Z" fill="#390176"/>
<g opacity="0.8">
<path d="M58.7521 92.5515C59.6327 92.3596 59.91 90.1971 59.3716 87.7213C58.8331 85.2454 57.6828 83.3939 56.8022 83.5858C55.9216 83.7776 55.6443 85.9401 56.1827 88.416C56.7212 90.8918 57.8715 92.7433 58.7521 92.5515Z" fill="url(#paint6_linear_1543_13663)"/>
</g>
<g opacity="0.6">
<path d="M60.6983 106.584C61.1123 106.494 61.2425 105.477 60.9892 104.311C60.7358 103.146 60.1947 102.275 59.7807 102.365C59.3666 102.455 59.2364 103.473 59.4898 104.638C59.7432 105.803 60.2843 106.675 60.6983 106.584Z" fill="url(#paint7_linear_1543_13663)"/>
</g>
<path d="M68.0741 105.917C67.7572 101.814 66.2477 96.9059 63.8265 92.0983C59.4789 83.4735 53.4022 77.4529 49.0546 77.4529C48.4641 77.4459 47.8803 77.5784 47.3505 77.8396C45.324 78.8662 44.4206 81.7736 44.8098 86.0332C45.1851 90.1174 46.6806 94.9362 49.024 99.5741C53.3716 108.199 59.4455 114.219 63.7959 114.219C64.3864 114.226 64.97 114.093 65.5 113.833C67.4458 112.848 68.3854 109.966 68.0741 105.917ZM65.247 113.335C64.7959 113.557 64.2987 113.67 63.7959 113.663C59.7124 113.663 53.7108 107.631 49.5216 99.3237C44.7375 89.8392 43.8591 80.2267 47.6007 78.3376C48.0528 78.1154 48.5509 78.0029 49.0546 78.0093C53.1353 78.0093 59.1397 84.0411 63.3289 92.3487C65.7196 97.0784 67.2207 101.925 67.5209 105.959C67.8128 109.771 66.9844 112.469 65.247 113.335Z" fill="#390176"/>
<path opacity="0.6" d="M118.808 97.3066C118.808 97.3066 122.291 108.727 117.073 115.669C114.357 116.586 111.558 117.238 108.717 117.617C108.717 117.617 118.808 111.482 110.746 93.3976C110.746 93.3976 112.458 92.9108 116.862 90.059C121.587 86.9986 122.977 85.8857 122.977 85.8857C124.188 87.9233 125.176 90.0855 125.924 92.3349C125.924 92.3349 121.309 96.1937 118.808 97.3066Z" fill="#2F0165"/>
<path d="M127.914 126.901C127.516 126.689 118.154 121.629 116.178 111.744C115.649 109.095 115.11 104.232 117.442 101.372C118.312 100.311 119.477 99.7022 120.642 99.7022C121.104 99.6995 121.561 99.8033 121.976 100.005C123.483 100.759 124.2 102.671 124.953 104.693C125.468 106.071 126.001 107.492 126.81 108.733C128.923 111.974 134.316 118.379 141.14 121.809L142.978 122.736L140.926 122.861C140.846 122.861 132.826 123.398 128.52 126.834L128.242 127.062L127.914 126.901Z" fill="#390176"/>
<path d="M140.892 122.316C140.892 122.316 132.672 122.819 128.174 126.408C128.174 126.408 118.67 121.372 116.724 111.635C114.778 101.897 119.504 99.3932 121.727 100.506C123.14 101.213 123.793 103.194 124.605 105.35C125.051 106.638 125.633 107.875 126.342 109.039C128.639 112.397 131.386 115.424 134.506 118.034C136.465 119.7 138.607 121.136 140.892 122.316Z" fill="white"/>
<path d="M140.892 122.316C140.892 122.316 132.672 122.819 128.174 126.408C128.174 126.408 118.67 121.372 116.724 111.635C114.778 101.897 119.504 99.3932 121.727 100.506C123.14 101.213 123.793 103.194 124.605 105.35C124.605 105.35 122.144 101.758 120.713 105.35C120.26 106.482 120.524 109.913 122.156 113.721C123.487 116.826 127.404 119.45 130.495 119.842C134.706 120.376 134.517 118.034 134.517 118.034C136.472 119.699 138.611 121.136 140.892 122.316Z" fill="#B2A8C1"/>
<path d="M141.798 147.06C139.802 147.06 137.809 146.226 135.868 144.584C134.879 144.816 133.866 144.932 132.849 144.929C129.341 144.93 125.972 143.555 123.465 141.098C119.551 137.376 120.034 134.699 120.424 133.723C120.963 132.373 122.283 131.533 123.868 131.533C124.638 131.54 125.397 131.715 126.092 132.048C126.884 132.412 127.557 132.677 128.115 132.869C126.803 130.829 125.299 127.861 125.891 125.657C126.103 124.867 126.673 123.81 128.193 123.242C131.979 121.829 136.027 121.131 137.767 120.872C138.075 118.298 138.965 110.555 138.965 107.183C138.965 104.91 140.477 103.383 142.723 103.383C144.969 103.383 147.677 104.924 148.642 107.871C149.398 110.183 150.776 115.435 149.62 120.171C152.889 118.145 155.497 115.21 157.126 111.724C158.237 109.342 159.438 108.185 160.82 108.185C161.468 108.185 162.413 108.463 163.247 109.751C164.556 111.782 165.22 116.042 164.117 118.493C163.091 120.765 161.794 122.906 160.256 124.867C162.716 123.968 165.515 122.744 167.15 121.359C167.853 120.763 168.539 120.46 169.201 120.46C170.088 120.46 171.127 121.044 171.383 122.686C171.789 125.309 170.043 129.677 165.704 131.057C163.635 131.697 161.518 132.172 159.374 132.479C157.173 132.835 156.103 133.035 155.844 133.725C155.696 134.211 155.588 134.708 155.522 135.211C155.049 137.963 154.265 142.537 147.635 144.342C146.926 145.116 144.855 147.06 141.798 147.06Z" fill="#390176"/>
<path d="M170.327 123.292C170.402 125.41 168.912 128.871 165.371 129.997C159.811 131.764 156.333 131.241 155.113 132.78C154.982 132.947 154.878 133.135 154.807 133.336C153.973 135.548 154.807 141.335 147.163 143.316L147.024 143.352C147.024 143.352 142.512 149.194 136.152 143.352C136.152 143.352 129.789 145.578 124.229 140.291C120.593 136.833 120.763 134.09 122.328 133.074C122.626 132.882 122.961 132.753 123.312 132.696C124.1 132.578 124.905 132.705 125.619 133.058C129.233 134.727 130.623 134.449 130.623 134.449C130.623 134.449 123.754 126.086 128.577 124.286C130.536 123.575 132.544 123.005 134.584 122.58C137 122.065 138.754 121.859 138.754 121.859C138.754 121.859 139.054 119.461 139.365 116.504C139.707 113.271 140.066 109.362 140.066 107.183C140.066 104.184 143.226 103.845 145.52 105.453C146.484 106.128 147.204 107.097 147.571 108.216C148.961 112.47 149.795 118.27 147.571 122.463C147.602 122.463 147.866 122.355 148.3 122.154C152.634 120.074 156.113 116.552 158.143 112.191C160.317 107.506 162.263 109.262 163.116 112.191C163.672 114.139 163.764 116.59 163.116 118.034C161.626 121.328 159.188 125.084 156.445 126.99C156.186 127.171 155.918 127.338 155.641 127.491C155.902 127.424 164.309 125.22 167.872 122.204C169.39 120.919 170.271 121.745 170.324 123.281L170.327 123.292Z" fill="white"/>
<path d="M154.857 132.515L152.166 130.971L147.877 129.825L145.375 129.908C145.375 129.908 148.711 130.328 151.413 131.597C151.847 131.799 152.233 132.092 152.546 132.455C152.858 132.818 153.09 133.244 153.225 133.704C153.36 134.164 153.396 134.647 153.33 135.122C153.264 135.597 153.097 136.052 152.842 136.457C151.847 138.043 150.421 139.415 149.656 139.874C148.266 140.709 147.154 138.989 147.154 138.989L147.199 141.872L147.024 143.352L147.163 143.316C154.796 141.335 153.979 135.548 154.807 133.336C154.878 133.135 154.981 132.947 155.113 132.779L154.857 132.515Z" fill="#B2A8C1"/>
<path d="M147.163 140.431V143.316L147.024 143.352C147.024 143.352 142.512 149.194 136.152 143.352C136.152 143.352 129.789 145.578 124.229 140.291C120.593 136.833 120.763 134.09 122.328 133.074C122.626 132.882 122.961 132.753 123.312 132.696C123.312 132.696 121.864 133.753 122.42 135.144C122.976 136.535 125.455 140.102 129.219 140.545C132.983 140.987 134.412 140.937 136.338 140.545C136.338 140.545 138.543 143.213 141.044 143.213C143.546 143.213 147.118 143.299 146.86 138.388L147.163 140.431Z" fill="#B2A8C1"/>
<path d="M170.324 123.284C170.291 123.184 169.918 122.107 169.123 122.903C168.328 123.698 162.452 129.024 151.193 128.884L154.176 127.911L156.45 126.99C156.191 127.171 155.923 127.338 155.647 127.491C155.908 127.424 164.314 125.22 167.878 122.204C169.39 120.922 170.263 121.748 170.324 123.284Z" fill="#B2A8C1"/>
<path d="M163.116 112.191C163.055 112.116 162.129 110.967 160.784 111.774C159.394 112.609 158.838 117.617 155.224 120.12C151.61 122.624 147.996 124.85 144.383 126.241C144.541 126.155 146.607 125.017 148.299 122.16C152.635 120.078 156.114 116.554 158.143 112.191C160.317 107.506 162.262 109.262 163.116 112.191Z" fill="#B2A8C1"/>
<path d="M140.074 107.183C140.074 109.362 139.715 113.271 139.373 116.504C139.062 119.461 138.762 121.859 138.762 121.859C138.762 121.859 138.345 121.909 137.65 122.018C137.43 122.051 137.18 122.09 136.905 122.138H136.872L136.469 122.21H136.432C135.876 122.307 135.276 122.424 134.609 122.566C132.556 122.992 130.536 123.567 128.566 124.285C123.754 126.085 130.623 134.449 130.623 134.449L133.958 133.174C133.958 133.174 131.871 126.241 134.095 125.685C136.318 125.128 135.999 126.628 135.999 126.628L136.141 126.553V126.583C136.141 126.583 139.871 124.736 141.158 121.503C143.26 116.217 141.592 108.983 142.148 107.036C142.704 105.088 145.389 105.431 145.517 105.444C143.235 103.845 140.074 104.184 140.074 107.183Z" fill="#B2A8C1"/>
<path d="M146.481 144.07C146.666 143.321 146.797 142.559 146.873 141.791C146.954 141.013 146.981 140.23 146.953 139.449C146.92 138.664 146.816 137.883 146.642 137.117C146.455 136.344 146.175 135.597 145.808 134.891C146.266 135.556 146.639 136.274 146.92 137.031C147.192 137.796 147.393 138.585 147.52 139.387C147.643 140.194 147.71 141.009 147.72 141.825C147.736 142.651 147.689 143.478 147.581 144.298L146.481 144.07Z" fill="#390176"/>
<path d="M154.947 133.753C154.791 133.606 154.669 132.919 153.835 132.515C153.612 132.373 153.384 132.237 153.151 132.109C152.917 131.981 152.678 131.859 152.439 131.739C151.466 131.273 150.454 130.893 149.415 130.604C148.889 130.473 148.364 130.326 147.827 130.239C147.549 130.192 147.294 130.125 147.021 130.095L146.21 129.989C145.932 129.944 145.668 129.928 145.395 129.908L144.561 129.85C144.005 129.828 143.463 129.83 142.913 129.819C143.469 129.783 144.025 129.736 144.561 129.711H145.395C145.673 129.711 145.951 129.711 146.229 129.711L147.063 129.75C147.341 129.75 147.619 129.8 147.897 129.825C148.453 129.869 149.009 129.972 149.548 130.061C150.64 130.272 151.711 130.578 152.751 130.974C153.012 131.077 153.276 131.18 153.532 131.299C153.787 131.419 154.046 131.539 154.299 131.672C154.552 131.806 154.802 131.95 155.047 132.095C155.305 132.249 155.553 132.419 155.789 132.604L154.947 133.753Z" fill="#390176"/>
<path d="M149.345 121.483C149.008 121.984 148.664 122.438 148.297 122.894C147.93 123.35 147.552 123.782 147.146 124.193C146.745 124.611 146.315 125 145.859 125.356C145.407 125.714 144.911 126.012 144.383 126.241C144.858 125.936 145.291 125.569 145.67 125.15C146.049 124.739 146.4 124.301 146.718 123.84C147.04 123.384 147.332 122.905 147.61 122.421C147.888 121.937 148.149 121.433 148.372 120.947L149.345 121.483Z" fill="#390176"/>
<path d="M158.816 126.458C157.576 126.981 156.333 127.463 155.069 127.902C154.44 128.122 153.801 128.322 153.156 128.5C152.516 128.693 151.859 128.822 151.193 128.884C151.837 128.731 152.463 128.515 153.064 128.239C153.67 127.974 154.266 127.691 154.852 127.39C156.025 126.789 157.184 126.141 158.307 125.468L158.816 126.458Z" fill="#390176"/>
<path d="M129.521 133.216C129.751 133.298 129.985 133.366 130.222 133.42C130.468 133.476 130.717 133.519 130.967 133.55C131.47 133.616 131.98 133.624 132.485 133.573C132.996 133.519 133.495 133.385 133.964 133.175C134.44 132.951 134.873 132.645 135.242 132.271C134.933 132.718 134.546 133.106 134.1 133.417C133.639 133.729 133.131 133.966 132.596 134.118C132.052 134.274 131.493 134.367 130.928 134.396C130.65 134.411 130.372 134.411 130.094 134.396C129.803 134.385 129.514 134.354 129.227 134.304L129.521 133.216Z" fill="#390176"/>
<path d="M138.762 121.609C138.716 121.945 138.648 122.278 138.559 122.605C138.479 122.925 138.379 123.237 138.267 123.545C138.048 124.159 137.768 124.75 137.434 125.309C137.097 125.863 136.69 126.37 136.221 126.817C135.758 127.255 135.234 127.623 134.665 127.911C135.175 127.552 135.631 127.12 136.016 126.628C136.392 126.145 136.703 125.615 136.941 125.051C137.172 124.493 137.346 123.913 137.461 123.32C137.52 123.022 137.57 122.725 137.6 122.427C137.634 122.138 137.651 121.847 137.65 121.556L138.762 121.609Z" fill="#390176"/>
<path d="M29.7146 62.9468C30.3067 62.9885 30.921 63.0136 31.527 63.0302C32.133 63.0469 32.7446 63.0553 33.3534 63.0553C34.5728 63.0553 35.7941 63.0191 37.0172 62.9468C35.82 63.2009 34.6154 63.4216 33.4034 63.6089C32.7974 63.7035 32.1859 63.787 31.5743 63.8649C30.9627 63.9428 30.354 64.0096 29.7229 64.0597L29.7146 62.9468Z" fill="#390176"/>
<path d="M45.835 51.9376C45.6239 51.8763 45.4095 51.8271 45.1928 51.7901C44.9677 51.7512 44.7397 51.7206 44.509 51.7039C44.0467 51.6618 43.5815 51.6618 43.1191 51.7039C42.1889 51.7832 41.2865 52.0611 40.4727 52.5191C40.059 52.7505 39.6745 53.0307 39.3274 53.3537C39.144 53.504 38.9883 53.6848 38.8187 53.8545C38.6492 54.0242 38.5018 54.2134 38.3656 54.411C37.7938 55.1987 37.3379 56.0644 37.0118 56.9817C37.2496 56.0241 37.6241 55.1058 38.1238 54.2552C38.2461 54.0354 38.4018 53.8406 38.5407 53.6319C38.6797 53.4233 38.8465 53.2341 39.0217 53.0533C39.3632 52.677 39.7465 52.3409 40.1642 52.0517C41.0123 51.4664 41.975 51.0681 42.9885 50.8831C43.4953 50.7871 44.0098 50.7368 44.5257 50.7329C44.7842 50.7329 45.0427 50.7329 45.304 50.758C45.573 50.777 45.8404 50.8132 46.1046 50.8665L45.835 51.9376Z" fill="#390176"/>
<path d="M24.3218 50.869C24.7094 50.5388 25.118 50.2339 25.5449 49.9565C25.9646 49.6782 26.3788 49.439 26.8292 49.2136C28.5642 48.309 30.4472 47.7229 32.3888 47.4831C32.8642 47.408 33.3506 47.3941 33.8315 47.3635C34.3125 47.3329 34.7934 47.3635 35.2715 47.3635C34.7934 47.4108 34.3152 47.4274 33.8427 47.4998C33.3701 47.5721 32.8975 47.6361 32.4361 47.7557C31.5103 47.9596 30.605 48.2473 29.7313 48.6154C28.8633 48.9766 28.0305 49.4171 27.2434 49.9314C26.8486 50.1846 26.4734 50.46 26.1064 50.7438C25.7538 51.0255 25.4187 51.3284 25.1029 51.6508L24.3218 50.869Z" fill="#390176"/>
<g style="mix-blend-mode:screen">
<path d="M101.852 37.4338C103.398 37.4338 104.651 36.1794 104.651 34.6321C104.651 33.0848 103.398 31.8304 101.852 31.8304C100.306 31.8304 99.0527 33.0848 99.0527 34.6321C99.0527 36.1794 100.306 37.4338 101.852 37.4338Z" fill="url(#paint8_linear_1543_13663)"/>
</g>
<path d="M124.732 47.422C124.19 47.6325 123.59 47.6385 123.044 47.4388C122.498 47.2392 122.043 46.8476 121.764 46.337C117.658 38.8417 108.604 37.2893 108.512 37.2754C107.923 37.1364 107.407 36.7795 107.07 36.2761C106.733 35.7728 106.598 35.1603 106.693 34.5616C106.788 33.963 107.106 33.4224 107.582 33.0485C108.059 32.6746 108.659 32.4949 109.263 32.5457C109.727 32.618 120.713 34.4403 125.972 44.0416C126.277 44.6007 126.348 45.2581 126.17 45.8695C125.991 46.4809 125.577 46.9962 125.019 47.3024C124.927 47.35 124.831 47.39 124.732 47.422Z" fill="url(#paint9_linear_1543_13663)"/>
</g>
</g>
<defs>
<radialGradient id="paint0_radial_1543_13663" cx="0" cy="0" r="1" gradientUnits="userSpaceOnUse" gradientTransform="translate(114.266 35.2249) scale(78.2908 78.3575)">
<stop stop-color="#56C1FC"/>
<stop offset="1" stop-color="#3A8CFC"/>
</radialGradient>
<radialGradient id="paint1_radial_1543_13663" cx="0" cy="0" r="1" gradientUnits="userSpaceOnUse" gradientTransform="translate(115.628 50.6854) scale(70.0348 70.0944)">
<stop stop-color="#5577E5"/>
<stop offset="1" stop-color="#3F3EE5"/>
</radialGradient>
<linearGradient id="paint2_linear_1543_13663" x1="13.0715" y1="125.271" x2="65.8491" y2="97.3644" gradientUnits="userSpaceOnUse">
<stop stop-color="#140F34" stop-opacity="0"/>
<stop offset="0.49" stop-color="#150788" stop-opacity="0.42"/>
<stop offset="1" stop-color="#4B36FF" stop-opacity="0.79"/>
</linearGradient>
<linearGradient id="paint3_linear_1543_13663" x1="50.2495" y1="95.0671" x2="67.8764" y2="95.0671" gradientUnits="userSpaceOnUse">
<stop stop-color="#30A4E4"/>
<stop offset="1" stop-color="#9DD0E4"/>
</linearGradient>
<linearGradient id="paint4_linear_1543_13663" x1="51.8233" y1="95.0665" x2="66.3034" y2="95.0665" gradientUnits="userSpaceOnUse">
<stop stop-color="#85D0E4"/>
<stop offset="1" stop-color="#C3E2FF"/>
</linearGradient>
<linearGradient id="paint5_linear_1543_13663" x1="54.8362" y1="95.0665" x2="63.2896" y2="95.0665" gradientUnits="userSpaceOnUse">
<stop stop-color="#87D0E5"/>
<stop offset="0.3" stop-color="#6ECAE1"/>
<stop offset="0.95" stop-color="#2DBBD6"/>
<stop offset="1" stop-color="#28BAD5"/>
</linearGradient>
<linearGradient id="paint6_linear_1543_13663" x1="57.1311" y1="93.9831" x2="56.925" y2="84.6623" gradientUnits="userSpaceOnUse">
<stop stop-color="white" stop-opacity="0"/>
<stop offset="0.22" stop-color="white" stop-opacity="0.24"/>
<stop offset="0.6" stop-color="white" stop-opacity="0.64"/>
<stop offset="0.87" stop-color="white" stop-opacity="0.9"/>
<stop offset="1" stop-color="white"/>
</linearGradient>
<linearGradient id="paint7_linear_1543_13663" x1="61.3293" y1="101.031" x2="61.4407" y2="105.418" gradientUnits="userSpaceOnUse">
<stop stop-color="white" stop-opacity="0"/>
<stop offset="0.22" stop-color="white" stop-opacity="0.24"/>
<stop offset="0.6" stop-color="white" stop-opacity="0.64"/>
<stop offset="0.87" stop-color="white" stop-opacity="0.9"/>
<stop offset="1" stop-color="white"/>
</linearGradient>
<linearGradient id="paint8_linear_1543_13663" x1="129.591" y1="47.8288" x2="97.2819" y2="32.4814" gradientUnits="userSpaceOnUse">
<stop stop-color="white" stop-opacity="0"/>
<stop offset="0.22" stop-color="white" stop-opacity="0.24"/>
<stop offset="0.6" stop-color="white" stop-opacity="0.64"/>
<stop offset="0.87" stop-color="white" stop-opacity="0.9"/>
<stop offset="1" stop-color="white"/>
</linearGradient>
<linearGradient id="paint9_linear_1543_13663" x1="130.334" y1="46.2628" x2="98.0259" y2="30.918" gradientUnits="userSpaceOnUse">
<stop stop-color="white" stop-opacity="0"/>
<stop offset="0.22" stop-color="white" stop-opacity="0.24"/>
<stop offset="0.6" stop-color="white" stop-opacity="0.64"/>
<stop offset="0.87" stop-color="white" stop-opacity="0.9"/>
<stop offset="1" stop-color="white"/>
</linearGradient>
<clipPath id="clip0_1543_13663">
<rect width="180" height="180" fill="white" transform="translate(0 0.5)"/>
</clipPath>
<clipPath id="clip1_1543_13663">
<rect width="208" height="149" fill="white" transform="translate(-36 26.5)"/>
</clipPath>
</defs>
</svg>
