<svg width="106" height="105" viewBox="0 0 106 105" fill="none" xmlns="http://www.w3.org/2000/svg">
<g clip-path="url(#clip0_1079_31468)">
<g clip-path="url(#clip1_1079_31468)">
<path d="M99.8557 71.624C99.8249 70.7281 99.3109 70.2461 98.4255 70.9959C97.0018 72.2017 94.2435 73.1868 92.6057 73.6981L93.1425 73.4757L92.8473 72.898L92.7273 72.9694C93.9241 71.7781 94.9619 70.087 95.6462 68.5615C96.0256 67.7208 95.9705 66.2893 95.6462 65.1533C95.1483 63.4443 94.0132 62.4202 92.7452 65.1533C91.644 67.518 89.8123 69.4656 87.5205 70.7086C87.5513 70.6648 87.5837 70.621 87.6129 70.5739L87.0454 70.2607C86.9157 70.5447 86.76 70.8384 86.6011 71.1208L86.5865 71.1452C87.8837 68.6994 87.3973 65.3156 86.5865 62.8341C86.3721 62.1816 85.9522 61.6161 85.3898 61.2225C84.052 60.278 82.2083 60.4825 82.2083 62.232C82.2083 63.5028 81.9991 65.783 81.7996 67.6688C81.7007 68.6166 81.6034 69.4654 81.5353 70.0383C78.7073 68.2839 76.4128 65.7862 75.1042 64.0335C80.2414 60.5412 83.9727 55.3365 85.6328 49.3472C87.2929 43.3579 86.7741 36.9732 84.1687 31.3312C84.0293 31.0309 83.8833 30.7355 83.7342 30.4418C83.7698 30.3412 83.8055 30.2422 83.8379 30.1432C84.2887 28.7442 84.245 27.5611 83.7066 26.6279L83.6661 26.5597C83.4082 26.1053 83.0174 25.4237 81.811 25.0763L81.7234 25.0504H81.7137L81.6991 25.0374L81.6245 25.0163C81.1104 24.8347 80.5781 24.7095 80.037 24.643L79.6559 24.5927C76.1603 20.7963 71.6221 18.1177 66.611 16.893C61.5999 15.6684 56.3391 15.9523 51.4886 17.709C46.6381 19.4658 42.414 22.6172 39.3464 26.7678C36.2789 30.9185 34.5044 35.8834 34.2457 41.0396C34.0846 41.0169 33.922 41.0049 33.7593 41.0039C33.3326 41.0001 32.9109 41.0968 32.5285 41.2863L29.2854 42.9612C27.9492 42.9498 25.4017 42.5003 25.4131 39.256C26.4768 39.1359 27.3217 38.9931 27.6492 38.8616C28.8654 38.3747 27.406 37.2306 27.6492 36.4272C27.8925 35.6238 29.6843 35.4534 30.9783 34.9666C32.2723 34.4797 34.7079 29.6108 33.0863 27.8256C32.248 26.9038 31.5394 26.4575 30.9621 26.3325C30.7361 26.2736 30.4985 26.2756 30.2735 26.3383C30.0485 26.401 29.8441 26.5222 29.681 26.6896C29.4086 26.9622 29.4216 27.2835 29.5351 27.6146C29.6973 28.0707 30.0394 28.5462 30.0864 28.9357C30.1497 29.468 29.5578 30.2341 28.3887 30.2341C28.029 30.2296 27.6723 30.1688 27.3314 30.0539C27.2633 30.0328 27.1968 30.0068 27.1303 29.9793L27.2487 30.0117L27.4109 29.3853C27.2567 29.3542 27.1007 29.3331 26.9438 29.322C26.7914 29.3106 26.6406 29.3057 26.4898 29.3074C26.339 29.309 26.2352 29.3074 26.1087 29.3268C25.602 28.8694 25.2873 28.2367 25.2282 27.5562C25.2122 27.2367 25.2803 26.9187 25.4257 26.6339C25.5712 26.349 25.7888 26.1074 26.0569 25.9333C27.7335 24.7453 28.3643 26.1475 29.5075 25.9333C30.1075 25.8197 30.6621 25.7223 30.9572 25.3961C31.2248 25.1007 31.2815 24.6203 30.9734 23.7731C30.3248 21.9879 27.62 20.9492 26.0536 21.6308C24.4872 22.3125 22.2121 22.3076 21.2392 26.365C21.2392 26.365 20.9149 21.983 22.6986 21.0093C24.4823 20.0355 24.8504 19.323 23.9958 18.5748C22.6986 17.4388 20.1041 17.9257 18.3204 20.0355C16.5367 22.1453 17.4107 24.4775 17.5096 26.0404C17.5096 26.0404 15.0773 24.0928 15.888 21.6584C16.0761 21.0936 16.0372 20.7301 15.8605 20.5386C15.2751 19.9057 13.18 21.1715 12.8071 23.2814C12.366 25.7872 13.42 27.7234 14.9313 29.1824C14.8502 29.2441 14.7692 29.309 14.6865 29.382L15.1454 29.8397C15.22 29.7618 15.3075 29.6774 15.3918 29.6011L15.4016 29.6108C15.4016 29.6108 14.4286 31.883 15.4016 33.8305C15.9854 34.9946 16.9619 35.9144 18.1582 36.4272C18.1586 36.4331 18.1586 36.4391 18.1582 36.4451C18.0528 36.4451 17.9458 36.4353 17.8339 36.4272V37.0764L17.9507 37.065C17.7885 37.6266 17.641 38.4413 17.8339 39.0239C17.9474 39.3647 19.0355 39.5108 20.4527 39.527C20.43 41.8543 21.2149 45.4183 25.6693 47.5606C25.6345 48.1164 25.6399 48.674 25.6855 49.229C25.8898 51.8792 26.8611 55.0424 28.4195 58.1357C31.2377 63.7218 35.2187 67.625 38.1002 67.625C38.5264 67.6292 38.9476 67.5324 39.3293 67.3426L44.3562 64.7459C44.7712 64.5297 45.1245 64.2114 45.3826 63.8209C50.7774 67.5977 57.394 69.2059 63.9187 68.3261C64.1279 68.2985 64.3338 68.2677 64.5414 68.2352L64.7716 68.1963C64.9013 68.1736 65.0311 68.1525 65.1608 68.1281L65.3505 68.0908C65.4932 68.0648 65.6375 68.0373 65.7786 68.008L65.9164 67.9772C66.0786 67.9431 66.2408 67.909 66.3932 67.8717L66.4872 67.8474C66.6591 67.8068 66.831 67.7646 67.0013 67.7208L67.0645 67.7045L67.6045 67.5569L67.6467 67.5439C67.8331 67.4903 68.0164 67.4351 68.1996 67.3816L68.2369 67.3702C68.4218 67.3118 68.605 67.2517 68.7882 67.1901L68.8369 67.1738L68.9698 67.1268C70.4293 70.5106 73.2767 72.5993 74.5156 73.3848C74.3421 74.654 75.4885 76.4895 76.1842 77.4682C76.1371 77.4536 76.0917 77.439 76.0496 77.4227L75.8761 78.0492C76.0434 78.0782 76.2124 78.0961 76.382 78.1027C76.4777 78.1027 76.5717 78.1109 76.6658 78.1027L76.6917 78.1352C76.6917 78.1352 75.8809 78.2975 73.7729 77.3237C73.3562 77.1178 72.8867 77.0441 72.427 77.1127C72.2226 77.1461 72.0272 77.2212 71.853 77.3335C70.9401 77.9258 70.8411 79.5261 72.9621 81.5434C76.2053 84.627 79.917 83.3286 79.917 83.3286C82.8991 86.0665 85.1838 84.4046 85.9654 83.6532C85.9573 83.6857 85.9508 83.7214 85.9427 83.7538L86.5768 83.8902C86.6076 83.6646 86.627 83.4455 86.64 83.2296C90.6939 82.0221 90.342 78.8623 90.7782 77.5591C90.8052 77.6219 90.8395 77.6812 90.8804 77.736L91.3782 77.0657C91.3247 77.0235 91.2728 76.9862 91.216 76.9488C92.0868 76.3191 94.0278 76.4766 96.9548 75.545C99.0206 74.8877 99.8898 72.8687 99.846 71.6337L99.8557 71.624Z" fill="#390176"/>
<path d="M83.2152 85.8182C82.0153 85.8182 80.8267 85.3427 79.6737 84.4014C79.122 84.5184 78.5594 84.5766 77.9954 84.575C75.8654 84.5761 73.8198 83.7418 72.2973 82.251C70.4876 80.529 70.2022 79.1463 70.2817 78.2894C70.3073 77.9325 70.4152 77.5865 70.5969 77.2784C70.7787 76.9703 71.0293 76.7086 71.3292 76.5139C71.6146 76.3283 71.9354 76.204 72.2713 76.1487C72.4321 76.1217 72.5948 76.1082 72.7578 76.1081C73.2513 76.1115 73.7382 76.2223 74.1847 76.4327L74.4685 76.5609C73.9902 75.6959 73.6059 74.7562 73.5394 73.8912C72.2275 72.9905 69.9314 71.1241 68.4639 68.3066C68.2823 68.3635 68.099 68.4186 67.9142 68.4689L67.8704 68.4835C67.6839 68.5355 67.4974 68.5874 67.3093 68.6361L67.2461 68.6523C67.0677 68.6994 66.8894 68.7432 66.711 68.7854L66.6153 68.8098C66.4531 68.8487 66.291 68.8844 66.1191 68.9201L65.9764 68.951L65.5418 69.037L65.3359 69.0759C65.2273 69.097 65.117 69.1149 65.0116 69.1327L64.8494 69.1603L64.697 69.1863C64.483 69.2204 64.2673 69.2528 64.0484 69.282C62.8389 69.444 61.6201 69.5254 60.3999 69.5255C55.1211 69.5355 49.9552 67.9962 45.5415 65.0981C45.3148 65.2984 45.0636 65.4691 44.7939 65.6061L38.8996 68.6507L38.8331 68.5193C38.5915 68.5656 38.3461 68.589 38.1001 68.589C34.8132 68.589 30.5745 64.5593 27.5519 58.5641C25.9303 55.3604 24.9282 52.0724 24.7158 49.2939C24.685 48.8979 24.6704 48.51 24.6752 48.1351C20.7202 45.9896 19.7003 42.7193 19.5138 40.4586C17.8582 40.358 17.1479 40.0318 16.9193 39.3225C16.7571 38.8145 16.7344 38.1865 16.869 37.4448V36.8297C15.8714 36.2019 15.0618 35.3159 14.5259 34.2654C13.801 32.8145 13.9535 31.2533 14.1821 30.26L13.5189 29.1029C12.0189 27.3176 11.4563 25.3068 11.8438 23.1126C12.2168 20.9881 14.0427 19.4009 15.4242 19.4009C15.7437 19.3891 16.0585 19.481 16.3215 19.663C16.5845 19.8449 16.7817 20.1071 16.8836 20.4104C17.0766 20.0525 17.3065 19.7157 17.5696 19.4058C18.8425 17.9029 20.5873 17.0054 22.2396 17.0054C23.1117 16.9822 23.962 17.2795 24.6298 17.8413C25.3433 18.4677 25.4406 19.099 25.392 19.5194C25.3109 20.2513 24.766 20.8177 24.0947 21.2949C24.3688 21.1878 24.6347 21.0985 24.886 21.0141C25.1649 20.92 25.4276 20.8323 25.6547 20.7333C26.1291 20.5334 26.6398 20.4339 27.1546 20.4412C28.9383 20.4412 31.1955 21.561 31.8766 23.4355C32.0096 23.7991 32.376 24.8053 31.9333 25.6622C32.5317 25.9608 33.1446 26.4607 33.79 27.1699C34.5814 28.0398 34.7857 29.3885 34.3819 31.065C33.9165 33.0125 32.5706 35.3999 31.3123 35.8754C30.8745 36.0377 30.4107 36.1659 29.9631 36.286C29.5496 36.398 28.8945 36.5733 28.6172 36.7307C28.6545 36.8329 28.7162 36.9676 28.7616 37.0683C28.974 37.5308 29.2626 38.1654 28.9935 38.8373C28.9014 39.0523 28.7655 39.2458 28.5943 39.4051C28.4231 39.5644 28.2204 39.6861 27.9994 39.7623C27.498 39.9285 26.9806 40.0416 26.4557 40.0999C26.8173 41.7667 28.2848 41.9549 29.0502 41.9809L32.076 40.418C32.4694 40.2192 32.8959 40.0943 33.3344 40.0496C33.9038 33.2705 36.9947 26.9522 41.9954 22.3445C46.9962 17.7368 53.5426 15.1753 60.3399 15.1667H60.4015C64.0947 15.1718 67.7483 15.9285 71.1402 17.3907C74.5321 18.8529 77.5916 20.9901 80.1326 23.6725H80.1683C80.7646 23.7512 81.351 23.8921 81.918 24.0928L82.2099 24.1724L82.2342 24.1967C82.722 24.3387 83.1758 24.5789 83.5675 24.9026C83.9593 25.2263 84.2809 25.6268 84.5125 26.0793L84.5514 26.1459C85.2227 27.3079 85.3022 28.7296 84.7881 30.3736C84.8838 30.5668 84.9714 30.7485 85.0525 30.9222C87.6837 36.6109 88.2699 43.0349 86.7117 49.1065C85.1535 55.1781 81.5467 60.5242 76.502 64.2396C77.75 65.7677 79.177 67.1402 80.7521 68.3277C80.7796 68.0843 80.8072 67.8295 80.8348 67.5666C81.0991 65.0721 81.2369 63.2268 81.2369 62.232C81.2369 60.7129 82.2488 59.6921 83.7536 59.6921C84.5443 59.7066 85.3117 59.9632 85.9524 60.4273C86.6889 60.9413 87.2373 61.6822 87.514 62.5371C87.9242 63.7932 88.6394 66.4971 88.2437 69.1197C89.8116 67.9994 91.0625 66.4913 91.8744 64.7427C92.1338 64.186 92.9187 62.4916 94.3245 62.4916C94.9116 62.4916 95.9866 62.8033 96.5947 64.8806L96.632 65.0137V65.0218C96.9563 66.2147 97.0439 67.8571 96.5445 68.9623C96.0921 69.9691 95.5493 70.9328 94.9229 71.8414C96.2104 71.3107 97.2028 70.7687 97.8109 70.2526C98.2812 69.8549 98.753 69.6521 99.2152 69.6521C99.9465 69.6521 100.702 70.1844 100.827 71.3659L100.843 71.3984V71.6077C100.9 73.3929 99.6708 75.7056 97.2758 76.4765C96.0566 76.8543 94.8095 77.1354 93.5462 77.3172C93.0403 77.4 92.5733 77.4795 92.249 77.5655L91.6003 78.4387C91.589 78.5052 91.576 78.5734 91.5647 78.6432C91.4268 79.44 91.2403 80.5323 90.5917 81.5645C89.9334 82.6307 88.9183 83.4292 87.5675 83.9469C87.5675 83.9713 87.4183 85.0587 87.4183 85.0587L86.1373 84.7909C85.3025 85.4453 84.2756 85.8064 83.2152 85.8182ZM26.5514 28.3271C26.7038 28.3271 26.8595 28.3271 27.0135 28.3449C27.2107 28.3589 27.4068 28.3854 27.6005 28.4245L28.6108 28.6371L28.4486 29.257C28.8475 29.2408 29.0372 29.0834 29.0972 29.0039C29.0616 28.9081 28.9772 28.7426 28.9189 28.6273C28.8005 28.4045 28.697 28.1741 28.6091 27.9376C28.4761 27.5802 28.448 27.1922 28.5281 26.8194C28.3393 26.7602 28.1536 26.6914 27.9719 26.6133C27.7739 26.5096 27.5583 26.4441 27.3362 26.4201C27.2632 26.4201 27.0427 26.4201 26.613 26.7253C26.4793 26.8057 26.3702 26.9213 26.2975 27.0596C26.2249 27.1978 26.1916 27.3533 26.2011 27.5091C26.2289 27.8052 26.3416 28.087 26.5254 28.3206L26.5514 28.3271Z" fill="#390176"/>
<path d="M80.6336 25.7158C80.9085 26.0508 81.0872 26.4543 81.1506 26.8831C81.214 27.3119 81.1597 27.7499 80.9936 28.1502C78.9423 33.019 71.3842 39.9652 61.2592 45.8143C51.692 51.342 42.4215 54.3915 37.0168 54.1627C36.3651 52.8704 35.8227 51.5257 35.3953 50.1427C33.6198 44.4197 33.8569 38.2607 36.0671 32.6914C38.2773 27.1221 42.3273 22.4789 47.5424 19.5349C52.7574 16.591 58.8228 15.5241 64.7283 16.5121C70.6338 17.5 76.0229 20.483 79.9979 24.9644C80.2152 25.2078 80.426 25.4561 80.6336 25.7158Z" fill="url(#paint0_radial_1079_31468)"/>
<path d="M86.588 42.3509C86.5868 47.9151 84.8166 53.3346 81.5335 57.8249C78.2505 62.3153 73.6249 65.6435 68.3263 67.3279C63.0277 69.0123 57.331 68.9654 52.0608 67.1941C46.7906 65.4228 42.2202 62.0189 39.0114 57.4751C38.8308 57.2209 38.6546 56.9623 38.4827 56.6994C40.9767 56.9834 44.4825 56.4397 48.5526 55.1673C53.0541 53.7619 58.2496 51.4638 63.5326 48.411C74.1538 42.2698 81.9519 34.9195 83.5297 30.0474C83.7551 30.4694 83.9675 30.8995 84.1783 31.3344C85.7737 34.7871 86.5961 38.5469 86.588 42.3509Z" fill="url(#paint1_radial_1079_31468)"/>
<path d="M39.8669 57.097C39.3913 57.0988 38.9159 57.0739 38.4431 57.0223C36.5346 56.8032 35.2406 56.1281 34.5936 55.0115L33.9628 53.9079L35.0216 54.5344C35.7108 54.9466 36.6546 55.1981 37.8253 55.2809C38.1123 55.302 38.4172 55.3117 38.7302 55.3117C44.3456 55.3117 53.3502 52.1243 62.2314 46.9942C72.8754 40.8448 81.0983 33.1505 82.2318 28.2849C82.2399 28.2492 82.2464 28.2184 82.2512 28.1859C82.3186 27.6358 82.2923 27.0783 82.1734 26.537C82.1419 26.3636 82.0728 26.1993 81.9708 26.0557C81.8688 25.9121 81.7364 25.7927 81.5832 25.706L81.4923 25.6573L81.4453 25.56L81.0999 24.8751L81.8199 25.0796C83.0247 25.4236 83.4171 26.1085 83.675 26.563L83.7155 26.6311C84.2539 27.5643 84.2976 28.7409 83.8469 30.1464C82.201 35.2262 74.1061 42.6788 63.699 48.6918C54.7188 53.8771 45.591 57.097 39.8669 57.097Z" fill="#390176"/>
<path d="M83.5293 30.0474C81.9515 34.9162 74.1534 42.2714 63.5289 48.411C53.4753 54.2244 43.7329 57.2982 38.479 56.6994C36.731 56.4997 35.4792 55.8879 34.8743 54.8492L34.8549 54.8135C35.5992 55.2582 36.5948 55.5195 37.8012 55.6055C43.1524 55.9853 52.6174 52.9228 62.3938 47.2749C73.4302 40.8984 81.4164 33.2154 82.5466 28.3579C82.5563 28.319 82.5644 28.2784 82.5709 28.2362C82.6682 27.6876 82.5871 27.0011 82.4915 26.4785C82.4516 26.2578 82.3634 26.0487 82.2334 25.866C82.1033 25.6834 81.9345 25.5318 81.7391 25.422L81.7229 25.3912C82.8579 25.7158 83.1677 26.3471 83.4255 26.7934C83.9282 27.6633 83.9411 28.7701 83.5293 30.0474Z" fill="#455399"/>
<path d="M38.7307 55.9609C38.4064 55.9609 38.082 55.9512 37.7788 55.9301C36.5075 55.8392 35.4681 55.5568 34.6978 55.0926L34.6233 55.0472L34.5811 54.9726C34.3744 54.5981 34.2428 54.1868 34.1935 53.7618C34.0606 52.7004 34.3687 51.4329 35.1097 49.9934L35.4713 49.289L35.7065 50.0469C36.1126 51.3512 36.6218 52.6211 37.2291 53.8446C37.3545 53.8446 37.481 53.8446 37.6086 53.8446C43.224 53.8446 52.2285 50.6588 61.105 45.5287C70.7468 39.9571 78.4054 33.1618 80.6205 28.2135C80.7956 27.8132 80.8558 27.372 80.7942 26.9393C80.7326 26.5067 80.5517 26.0999 80.2718 25.7645C80.1097 25.5665 79.9345 25.3685 79.7643 25.1737L79.1886 24.5245L80.0497 24.6381C80.5896 24.7043 81.1208 24.8289 81.6339 25.0098L81.7085 25.0309L81.7231 25.0439C81.7859 25.0706 81.8471 25.1009 81.9064 25.1348C82.1431 25.2681 82.3475 25.452 82.5053 25.6733C82.6631 25.8946 82.7703 26.1479 82.8193 26.4153C82.9537 27.0303 82.9806 27.6639 82.8988 28.2881C82.8988 28.3336 82.8825 28.3839 82.8712 28.431C81.6826 33.5351 73.5229 41.2197 62.5644 47.5508C53.5826 52.741 44.4532 55.9609 38.7307 55.9609Z" fill="#390176"/>
<path d="M82.5712 28.2362C82.5647 28.2784 82.5566 28.319 82.5469 28.3579C81.4118 33.2154 73.4304 40.8984 62.3941 47.2749C52.6177 52.9228 43.151 55.9853 37.8015 55.6055C36.5951 55.5195 35.5994 55.2582 34.8551 54.8135C34.669 54.4762 34.5506 54.1057 34.5065 53.7229C34.38 52.7086 34.693 51.4946 35.3886 50.1427C35.816 51.5257 36.3584 52.8704 37.0102 54.1627C42.4148 54.3915 51.6869 51.342 61.2525 45.8143C71.2462 40.0431 78.7394 33.1992 80.9075 28.3514C81.109 27.8959 81.1787 27.393 81.1088 26.8998C81.0388 26.4066 80.832 25.943 80.5118 25.5616C80.3432 25.3604 80.1718 25.1613 79.9978 24.9644C80.5178 25.0285 81.0294 25.1488 81.5236 25.323H81.5318C81.6034 25.3493 81.6728 25.3813 81.7393 25.4188C81.9348 25.5285 82.1035 25.6802 82.2336 25.8628C82.3637 26.0455 82.4518 26.2546 82.4917 26.4753C82.5874 27.0011 82.6685 27.6877 82.5712 28.2362Z" fill="white"/>
<g style="mix-blend-mode:multiply" opacity="0.6">
<path d="M58.5483 65.6207C52.641 65.1939 47.4277 61.9074 47.4277 61.9074C47.752 61.3377 47.4277 59.8803 47.4277 59.8803C47.4277 59.8803 48.4006 59.5558 49.2633 58.2899C49.7725 57.5688 50.0003 56.6861 49.9038 55.8084C50.7686 55.5282 51.6556 55.2166 52.5648 54.8736C53.3577 55.19 54.2062 55.3433 55.0596 55.3244C55.9131 55.3054 56.754 55.1147 57.5321 54.7634C58.3103 54.4122 59.0098 53.9077 59.5889 53.28C60.168 52.6523 60.6149 51.9143 60.9028 51.11C62.0412 50.5181 63.1871 49.889 64.3405 49.2225C74.6245 43.2793 82.2604 36.2 84.1706 31.3344C83.9679 30.8995 83.7555 30.4694 83.522 30.0474C81.9442 34.9163 74.1461 42.2714 63.5217 48.411C62.753 48.8557 61.9871 49.2831 61.2239 49.6931C61.3539 48.5731 61.1841 47.4387 60.7319 46.406C60.2797 45.3733 59.5614 44.4794 58.6504 43.8161C57.7395 43.1527 56.6687 42.7436 55.5478 42.6307C54.4269 42.5178 53.2961 42.7051 52.2714 43.1736C51.2466 43.642 50.3647 44.3746 49.716 45.2964C49.0672 46.2183 48.675 47.2961 48.5795 48.4196C48.4839 49.5431 48.6885 50.6717 49.1722 51.69C49.656 52.7083 50.4015 53.5796 51.3324 54.2147C50.3497 54.5782 49.3865 54.9044 48.4638 55.1884L48.433 55.1982C48.152 55.2847 47.8741 55.368 47.5995 55.4481L47.4374 55.4952L46.7401 55.6899L46.5634 55.737C46.3217 55.8003 46.085 55.8619 45.8483 55.9204L45.7347 55.948C45.1834 56.0821 44.6467 56.2001 44.1245 56.3018L43.9737 56.331L43.377 56.4381L43.1662 56.4722C42.9878 56.5014 42.8111 56.5273 42.6376 56.5533L42.43 56.5825L41.8592 56.6507L41.7344 56.6653C41.5057 56.688 41.2836 56.7075 41.0646 56.7237L40.9203 56.7318C40.7582 56.7416 40.596 56.7513 40.4339 56.7562H40.2198H39.8193H39.602C39.469 56.7562 39.3393 56.7562 39.2096 56.7416L39.0263 56.7335C38.8415 56.7205 38.6599 56.7059 38.4847 56.6864C38.6566 56.9493 38.8328 57.2079 39.0134 57.4622C41.2582 60.6464 44.1845 63.2894 47.5791 65.1984C50.9737 67.1073 54.7511 68.2343 58.6361 68.497C62.521 68.7598 66.4155 68.1518 70.0359 66.7173C73.6563 65.2828 76.9113 63.058 79.5638 60.2049C73.5851 63.962 64.4524 66.0459 58.5483 65.6207Z" fill="#B2A8C1"/>
</g>
<path d="M55.3418 54.7583C58.8516 54.7583 61.6967 51.9107 61.6967 48.398C61.6967 44.8853 58.8516 42.0377 55.3418 42.0377C51.8321 42.0377 48.9869 44.8853 48.9869 48.398C48.9869 51.9107 51.8321 54.7583 55.3418 54.7583Z" fill="#390176"/>
<path d="M55.3418 53.8397C58.3447 53.8397 60.7789 51.4034 60.7789 48.398C60.7789 45.3926 58.3447 42.9563 55.3418 42.9563C52.339 42.9563 49.9048 45.3926 49.9048 48.398C49.9048 51.4034 52.339 53.8397 55.3418 53.8397Z" fill="white"/>
<g style="mix-blend-mode:multiply" opacity="0.6">
<path d="M55.9775 52.78C55.068 52.7799 54.173 52.5515 53.3745 52.1157C52.576 51.6799 51.8995 51.0506 51.407 50.2853C50.9144 49.5201 50.6215 48.6434 50.5551 47.7356C50.4887 46.8277 50.6509 45.9177 51.0269 45.0888C50.56 45.6974 50.2271 46.3978 50.0498 47.1443C49.8725 47.8907 49.8549 48.6662 49.9982 49.4199C50.1415 50.1736 50.4424 50.8884 50.8811 51.5175C51.3199 52.1466 51.8867 52.6758 52.5441 53.0702C53.2016 53.4647 53.935 53.7155 54.6962 53.8063C55.4574 53.897 56.2292 53.8257 56.9608 53.5969C57.6925 53.3681 58.3676 52.987 58.9418 52.4787C59.516 51.9704 59.9763 51.3463 60.2925 50.6474C59.7855 51.311 59.1324 51.8486 58.384 52.2185C57.6357 52.5884 56.8121 52.7805 55.9775 52.78Z" fill="#B2A8C1"/>
</g>
<path d="M45.4977 59.1646C45.2545 56.6588 44.3156 53.6823 42.8546 50.7854C41.413 47.9274 39.6017 45.4297 37.7548 43.7385L37.411 43.4253L39.2158 42.484C39.4914 42.3455 39.796 42.2748 40.1044 42.2779C42.1087 42.2779 44.8653 44.9655 46.8063 48.8135C49.096 53.3577 49.3506 57.691 47.3885 58.6826L45.5448 59.6434L45.4977 59.1646Z" fill="#390176"/>
<path d="M47.2424 58.3921L45.8219 59.1338C45.5835 56.6847 44.677 53.6774 43.1447 50.6393C42.473 49.3003 41.7006 48.0145 40.8339 46.7929C39.9987 45.5972 39.0399 44.4929 37.9735 43.4983L39.3664 42.7712C40.2875 42.3055 41.5928 42.8297 42.9339 44.0436C44.1808 45.1667 45.4651 46.8854 46.511 48.9595C48.692 53.2782 49.0147 57.4962 47.2424 58.3921Z" fill="#8FFFFF"/>
<g style="mix-blend-mode:multiply" opacity="0.6">
<path d="M40.8339 46.7929C39.9987 45.5972 39.0399 44.4929 37.9735 43.4983L39.3664 42.7712C40.2875 42.3055 41.5928 42.8297 42.9339 44.0436C42.9339 44.0436 41.2588 43.0001 40.6102 43.0001C39.4751 43.0001 38.6367 43.5568 38.9886 43.9738C39.3405 44.3909 40.2923 45.4345 40.8339 46.7929Z" fill="#B2A8C1"/>
</g>
<g style="mix-blend-mode:multiply" opacity="0.6">
<path d="M47.2421 58.3921L45.8216 59.1338C45.5832 56.6848 44.6768 53.6775 43.1444 50.6393C43.1444 50.6393 44.5308 52.2363 45.1681 53.705C45.8054 55.1738 47.7513 54.0296 47.5891 52.569C47.4626 51.4329 46.5935 49.1365 46.5205 48.9612C48.6918 53.2782 49.0145 57.4962 47.2421 58.3921Z" fill="#B2A8C1"/>
</g>
<path d="M30.0762 42.9189L27.6439 44.1751C26.6191 44.6928 26.0726 45.9603 25.9834 47.7099C18.5648 44.3796 20.7523 37.2386 20.7523 37.2386L25.5099 38.0745C24.5937 43.7791 30.0762 42.9189 30.0762 42.9189Z" fill="#390176"/>
<path d="M28.7111 43.2565L27.4949 43.883C26.4879 44.3926 25.8733 45.54 25.6966 47.2133C22.9788 45.8743 21.367 43.8424 20.9049 41.1694C20.708 39.9883 20.7377 38.7804 20.9924 37.6103L25.1436 38.339C25.0255 39.1171 25.0663 39.911 25.2636 40.6728C25.3945 41.1493 25.6262 41.5921 25.943 41.9712C26.3594 42.4465 26.896 42.8008 27.4965 42.9969C27.8896 43.1315 28.2973 43.2187 28.7111 43.2565Z" fill="white"/>
<path d="M28.7111 43.2565L27.4949 43.883C26.4879 44.3926 25.8733 45.54 25.6966 47.2133C22.9788 45.8743 21.367 43.8424 20.9049 41.1694C20.708 39.9883 20.7377 38.7804 20.9924 37.6103L25.1436 38.339C25.0255 39.1171 25.0663 39.911 25.2636 40.6728C25.2636 40.6728 22.7307 40.9081 23.1556 42.2779C23.5804 43.6477 26.3695 44.774 27.49 42.9952C27.8851 43.1309 28.2951 43.2186 28.7111 43.2565Z" fill="#B2A8C1"/>
<path d="M20.8108 40.1778C18.0833 40.1778 17.4136 39.8143 17.219 39.23C16.9547 38.4364 17.1704 37.4026 17.3601 36.7631C16.2694 36.156 15.3855 35.2357 14.8223 34.121C13.9905 32.4575 14.3861 30.6333 14.644 29.8056C12.5635 27.8824 11.7252 25.6509 12.1695 23.1678C12.5165 21.1975 14.177 19.7255 15.4304 19.7255C15.6219 19.7178 15.8125 19.7567 15.9856 19.839C16.1587 19.9213 16.3093 20.0444 16.4245 20.1978C16.7115 20.5954 16.7374 21.1537 16.5039 21.858C16.3082 22.4618 16.3346 23.1157 16.5785 23.7017C16.4974 22.4326 16.6677 20.98 17.8255 19.6103C19.0368 18.1772 20.6892 17.3235 22.2475 17.3235C23.0397 17.3045 23.8115 17.5764 24.4171 18.0879C24.9036 18.5164 25.1257 18.9854 25.0658 19.4853C24.9863 20.2059 24.3685 20.8323 22.9983 21.5805C22.6383 21.7769 22.3496 22.2605 22.1486 22.9762C23.055 21.97 24.1139 21.6146 24.983 21.3225C25.2701 21.2267 25.5392 21.1375 25.7792 21.032C26.213 20.8507 26.6794 20.7607 27.1495 20.7674C28.8245 20.7674 30.9342 21.8077 31.5666 23.5475C31.8909 24.4223 31.8909 25.065 31.6088 25.5713C31.5622 25.6547 31.5079 25.7335 31.4466 25.8067C32.1114 26.0533 32.8152 26.584 33.5546 27.3906C34.2941 28.1973 34.4481 29.4242 34.0703 30.9952C33.6325 32.8145 32.3466 35.1434 31.2001 35.5768C30.7785 35.7391 30.3245 35.8592 29.8834 35.9776C29.3872 36.1107 28.3543 36.3882 28.2618 36.6122C28.244 36.7096 28.3916 37.0342 28.471 37.2078C28.6672 37.6412 28.9137 38.1816 28.6964 38.722C28.6203 38.8955 28.5089 39.0512 28.3693 39.1792C28.2297 39.3072 28.065 39.4046 27.8856 39.4653C27.0019 39.8191 23.4328 40.1794 20.8108 40.1794V40.1778ZM27.3359 26.0955C27.0025 26.12 26.6848 26.2469 26.4262 26.4591C26.2248 26.5818 26.0647 26.7621 25.9667 26.9768C25.8687 27.1914 25.8373 27.4306 25.8765 27.6633C25.9933 28.4163 26.6873 29.158 27.5127 29.4242C27.7892 29.5181 28.0786 29.5685 28.3705 29.5735C28.5411 29.584 28.712 29.5597 28.8729 29.5019C29.0337 29.4442 29.1811 29.3542 29.3061 29.2376C29.3715 29.1776 29.414 29.0967 29.4261 29.0087C29.3742 28.8223 29.2995 28.643 29.204 28.4748C28.9656 28.0025 28.5878 27.2592 28.951 26.5792C28.6549 26.5249 28.3668 26.4338 28.0932 26.3081C27.857 26.1887 27.5998 26.1165 27.3359 26.0955Z" fill="#390176"/>
<path d="M30.9733 34.9665C29.6761 35.4534 27.8923 35.6157 27.6442 36.4272C27.3961 37.2387 28.8604 38.3747 27.6442 38.8616C26.4281 39.3485 18.1581 39.9977 17.8338 39.0239C17.5095 38.0501 18.1581 36.4272 18.1581 36.4272C16.9618 35.9144 15.9853 34.9946 15.4015 33.8305C14.4285 31.883 15.4015 29.6108 15.4015 29.6108C13.6485 28.1096 12.3205 26.0404 12.807 23.2814C13.1799 21.1715 15.275 19.9056 15.8604 20.5386C16.0371 20.7301 16.076 21.0936 15.8879 21.6584C15.0771 24.0928 17.5095 26.0404 17.5095 26.0404C17.4106 24.4775 16.5365 22.1453 18.3203 20.0355C20.104 17.9256 22.6985 17.4388 23.9957 18.5748C24.8503 19.323 24.4822 20.0355 22.6985 21.0092C20.9148 21.983 21.2391 26.3649 21.2391 26.3649C22.212 22.3076 24.4822 22.3076 26.0486 21.626C27.6151 20.9443 30.3198 21.983 30.9684 23.7682C31.2765 24.6154 31.2198 25.0958 30.9522 25.3912C30.6571 25.7158 30.1025 25.8148 29.5026 25.9284C28.3675 26.1426 27.7286 24.7404 26.0519 25.9284C25.7838 26.1025 25.5662 26.3441 25.4208 26.629C25.2753 26.9138 25.2072 27.2319 25.2233 27.5513C25.2589 28.2979 25.7211 29.0655 26.4167 29.5768C26.6915 29.7804 26.9977 29.9378 27.3232 30.0425C27.664 30.1574 28.0208 30.2182 28.3804 30.2227C29.5496 30.2227 30.1414 29.4631 30.0782 28.9243C30.0312 28.5348 29.6842 28.0593 29.5269 27.6033L30.6198 27.3387L30.9522 26.4088V26.3325C31.5295 26.4575 32.2381 26.9038 33.0765 27.8256C34.698 29.6108 32.2657 34.4797 30.9733 34.9665Z" fill="white"/>
<path d="M30.9522 26.3325V26.4006L30.6198 27.3387L29.5252 27.6146C29.4117 27.29 29.3987 26.9654 29.6712 26.6895C29.8342 26.5222 30.0386 26.401 30.2636 26.3382C30.4886 26.2755 30.7262 26.2735 30.9522 26.3325Z" fill="white"/>
<path d="M30.9491 25.3912C30.654 25.7158 30.0994 25.8148 29.4994 25.9284C28.3643 26.1426 27.7254 24.7404 26.0487 25.9284C25.7807 26.1026 25.5631 26.3442 25.4176 26.629C25.2722 26.9138 25.2041 27.2319 25.2201 27.5513C25.0677 26.7155 25.212 25.4675 26.3779 24.9546C27.5438 24.4418 28.1308 24.6609 29.2659 25.1478C30.354 25.6152 30.9037 25.4107 30.9491 25.3912Z" fill="#B2A8C1"/>
<path d="M23.9957 18.5748C23.9957 18.5748 21.9753 18.2405 21.0769 18.7663C19.4051 19.7401 18.2294 20.8015 17.7332 23.8299C17.6797 24.1545 17.636 24.4937 17.5987 24.8621C17.5614 25.2305 17.5322 25.6216 17.5095 26.0404C17.4106 24.4775 16.5365 22.1453 18.3203 20.0355C20.104 17.9256 22.6985 17.4388 23.9957 18.5748Z" fill="#B2A8C1"/>
<path d="M28.3772 30.2276C28.3253 30.2584 27.6313 30.6625 25.9692 30.8232C24.239 30.9855 23.5368 31.5665 23.1606 32.4153C22.7844 33.2641 21.8926 33.2771 22.0937 32.946L22.7423 31.3555L24.2211 30.0474L25.5784 29.3885L26.407 29.5816C26.6818 29.7853 26.988 29.9426 27.3135 30.0474C27.6564 30.163 28.0154 30.2237 28.3772 30.2276Z" fill="#B2A8C1"/>
<path d="M19.6986 38.2936C19.2121 37.4821 20.6342 36.484 20.6342 36.484C17.19 35.6466 16.4555 31.9641 16.2933 30.6657V30.656C16.2285 30.1367 16.6841 29.1954 17.1041 28.8805C18.5538 27.8077 20.4526 27.3923 20.4526 27.3923C18.9656 27.4718 17.4722 28.1372 16.5106 28.6598C16.5415 28.5692 16.5773 28.4804 16.6176 28.3936C14.6718 28.3936 13.5367 25.1477 13.5367 23.3625C13.5367 21.5773 15.8604 20.5386 15.8604 20.5386C15.275 19.9056 13.1799 21.1715 12.807 23.2814C12.3205 26.0404 13.6485 28.1096 15.4015 29.6108C15.4015 29.6108 14.4285 31.883 15.4015 33.8305C15.9853 34.9946 16.9618 35.9144 18.1581 36.4272C18.1581 36.4272 17.5095 38.0501 17.8338 39.0239C18.1581 39.9977 26.4281 39.3485 27.6442 38.8616C25.6984 39.105 20.1851 39.105 19.6986 38.2936Z" fill="#B2A8C1"/>
<g style="mix-blend-mode:multiply" opacity="0.6">
<path d="M47.4593 41.038C44.9248 41.038 42.2557 39.3777 41.5617 37.8927C41.3022 37.3393 41.3347 36.8248 41.6509 36.4434C41.7837 36.2654 41.9565 36.1211 42.1554 36.0224C42.3543 35.9237 42.5737 35.8734 42.7957 35.8754C43.2263 35.9053 43.6504 35.996 44.0556 36.1448C45.0178 36.4725 46.0262 36.644 47.0426 36.6528H47.2047C47.735 36.643 48.2425 36.6187 48.7322 36.596C49.2219 36.5733 49.7246 36.5489 50.1446 36.5489C50.9554 36.5489 51.7337 36.6219 52.0062 37.1559C52.2299 37.5908 52.0516 38.1686 51.4321 39.032C50.9869 39.6687 50.391 40.185 49.6978 40.5351C49.0045 40.8851 48.2355 41.0579 47.4593 41.038Z" fill="#B2A8C1"/>
</g>
<path d="M39.0335 66.7649L39.0675 66.747C41.422 65.5022 40.8512 59.3821 37.8286 53.3821C37.2861 52.304 36.679 51.2596 36.0109 50.2547L35.9947 50.2303C33.5623 46.5982 30.7116 44.2498 28.7268 44.2498C28.4025 44.2452 28.0818 44.3181 27.7912 44.4624L27.4977 43.883L32.5245 41.2863C32.907 41.0968 33.3286 41.0001 33.7553 41.0039C35.0428 41.0039 36.5768 41.7845 38.1935 43.2582C39.7453 44.675 41.2615 46.6274 42.5798 48.9076L42.6041 48.9336L42.6171 48.9742C42.896 49.461 43.1717 49.969 43.4279 50.4932C44.9246 53.46 45.8862 56.5176 46.1375 59.1029C46.4213 62.0161 45.784 64.0205 44.3538 64.7475L39.327 67.3442L39.0335 66.7649Z" fill="#390176"/>
<path d="M44.2076 64.457L39.1808 67.0537C41.7753 65.7408 41.3034 59.5541 38.117 53.236C37.5645 52.1408 36.9461 51.0802 36.2652 50.0599C35.7182 49.2374 35.1226 48.4483 34.4815 47.6969C31.9811 44.7902 29.3639 43.3247 27.6515 44.1881L32.6783 41.5914C33.8426 41.0039 35.4253 41.4924 37.1036 42.7794C37.3922 43.0001 37.6841 43.2452 37.976 43.5113C39.4646 44.8697 40.984 46.801 42.3185 49.117C42.6023 49.6039 42.8779 50.12 43.1439 50.6458C44.6763 53.6839 45.5762 56.6913 45.8211 59.1403C46.0773 61.7792 45.5568 63.7754 44.2076 64.457Z" fill="#8FFFFF"/>
<g style="mix-blend-mode:multiply" opacity="0.6">
<path d="M37.0951 42.7567C36.9881 42.6966 34.94 41.533 33.9671 41.8576C33.3039 42.0799 31.4488 43.0163 30.9251 43.3296C30.4013 43.6428 31.7018 44.4397 32.3455 44.9411C33.2548 45.6786 33.9817 46.6161 34.4698 47.6807C31.9693 44.774 29.3521 43.3085 27.6398 44.1719L32.6666 41.5752C33.8341 40.9877 35.4168 41.4762 37.0951 42.7567Z" fill="#B2A8C1"/>
</g>
<g style="mix-blend-mode:multiply" opacity="0.6">
<path d="M44.2078 64.457L39.181 67.0537C41.7755 65.7408 41.3036 59.5541 38.1173 53.236C37.5647 52.1408 36.9463 51.0802 36.2654 50.0599C36.3449 50.1573 38.3459 52.259 39.6707 55.0326C40.5074 56.7773 44.3408 55.6672 44.0733 53.8576C44.0052 53.3886 43.2073 51.0093 42.3139 49.1186C42.5976 49.6055 42.8733 50.1216 43.1392 50.6474C44.6716 53.6856 45.5716 56.6929 45.8164 59.1419C46.0775 61.7792 45.557 63.7754 44.2078 64.457Z" fill="#B2A8C1"/>
</g>
<path d="M47.4593 40.5511C44.9248 40.5511 42.2557 38.8908 41.5617 37.4058C41.3022 36.8524 41.3347 36.3379 41.6509 35.9565C41.7837 35.7785 41.9565 35.6342 42.1554 35.5355C42.3543 35.4369 42.5737 35.3865 42.7957 35.3885C43.2263 35.4184 43.6504 35.5091 44.0556 35.6579C45.0178 35.9856 46.0262 36.1571 47.0426 36.1659H47.2047C47.735 36.1562 48.2425 36.1318 48.7322 36.1091C49.2219 36.0864 49.7246 36.062 50.1446 36.062C50.9554 36.062 51.7337 36.1351 52.0062 36.669C52.2299 37.104 52.0516 37.6817 51.4321 38.5451C50.9869 39.1818 50.391 39.6982 49.6978 40.0482C49.0045 40.3982 48.2355 40.571 47.4593 40.5511Z" fill="#390176"/>
<path d="M51.1617 38.3536C47.8813 42.9157 40.4302 37.9284 41.901 36.1643C42.0679 35.9373 42.3149 35.7824 42.5918 35.731C43.482 35.5784 44.6998 36.5327 47.2035 36.4905C48.8996 36.4613 50.4207 36.2746 51.2055 36.4905C51.9012 36.6674 52.0179 37.1624 51.1617 38.3536Z" fill="#7C9BD1"/>
<g style="mix-blend-mode:multiply" opacity="0.6">
<path d="M51.1617 38.3536C47.8813 42.9157 40.4302 37.9284 41.901 36.1643C42.0679 35.9373 42.3149 35.7824 42.5918 35.731C42.5772 35.7732 42.4507 37.3945 43.8598 37.969C48.238 39.7542 51.4179 37.7548 51.2055 36.4824C51.9012 36.6674 52.0179 37.1624 51.1617 38.3536Z" fill="#B2A8C1"/>
</g>
<path d="M38.0999 67.625C35.2184 67.625 31.2374 63.7218 28.4191 58.1357C26.8608 55.0424 25.8895 51.8792 25.6852 49.229C25.4728 46.4797 26.1182 44.5809 27.4997 43.883C27.881 43.6934 28.3016 43.5966 28.7272 43.6006C31.6104 43.6006 35.5913 47.5038 38.408 53.09C39.9679 56.1833 40.9392 59.3464 41.1435 61.9967C41.3543 64.7459 40.7106 66.6448 39.329 67.3426C38.9473 67.5324 38.5261 67.6292 38.0999 67.625Z" fill="#390176"/>
<path d="M39.1813 67.0537C36.6241 68.3521 32.0464 64.4343 28.86 58.2899C28.8081 58.1909 28.7579 58.0919 28.7076 57.9912C25.5229 51.6731 25.0461 45.4865 27.6439 44.1735C29.914 43.0245 33.8058 45.9944 36.8673 50.9899C37.3019 51.6991 37.7219 52.4505 38.1175 53.2344C41.3039 59.5541 41.7806 65.7408 39.1813 67.0537Z" fill="#50CCC9"/>
<g style="mix-blend-mode:multiply" opacity="0.6">
<path d="M36.8673 50.9915L28.86 58.2947C28.8081 58.1957 28.7579 58.0967 28.7076 57.9961C25.5229 51.678 25.0461 45.4913 27.6439 44.1784C29.9205 43.0228 33.7993 45.9928 36.8673 50.9915Z" fill="#B2A8C1"/>
</g>
<path d="M38.5604 65.8203C38.2972 65.9498 38.0072 66.0154 37.7139 66.0118C35.9302 66.0118 33.5287 64.0464 31.4061 61.031C31.3412 60.9401 31.278 60.8476 31.2147 60.7535C30.5372 59.7595 29.9262 58.7218 29.3856 57.6472C26.5965 52.1145 26.0825 46.5073 28.2667 45.4053C28.5299 45.2758 28.8199 45.2102 29.1132 45.2138C30.7558 45.2138 32.932 46.8887 34.9265 49.5178C35.8844 50.7923 36.7261 52.1502 37.4415 53.5752C38.8361 56.3342 39.7036 59.1614 39.8852 61.5146C40.0571 63.7413 39.5739 65.3156 38.5604 65.8203Z" fill="#4A6899"/>
<g style="mix-blend-mode:multiply" opacity="0.6">
<path d="M31.2147 60.7535C30.5372 59.7595 29.9262 58.7218 29.3856 57.6472C26.5965 52.1145 26.0825 46.5073 28.2667 45.4053C28.5299 45.2758 28.8199 45.2102 29.1132 45.2138C30.7558 45.2138 32.932 46.8887 34.9265 49.5178L34.9395 50.167L30.7234 55.3702C30.7234 55.3702 29.7505 52.9033 28.7775 53.3902C27.8046 53.8771 29.2672 57.85 31.2147 60.7535Z" fill="#B2A8C1"/>
</g>
<path d="M40.232 61.8798C40.0244 62.6133 39.645 63.1343 39.1098 63.4053C38.8378 63.5404 38.5378 63.6093 38.2342 63.6066C36.217 63.6066 33.4263 60.8638 31.4463 56.9363C30.3567 54.7745 29.6724 52.5673 29.5199 50.7172C29.3578 48.7697 29.8118 47.4194 30.7977 46.9211C31.0698 46.7864 31.3698 46.718 31.6734 46.7215C32.277 46.7482 32.8634 46.9305 33.376 47.2506C33.77 47.6385 34.1657 48.0621 34.5565 48.5376C35.7962 50.0436 36.8608 51.6857 37.7299 53.4324C38.9866 55.9252 39.7844 58.3937 40.0941 60.4954C40.1644 60.9541 40.2104 61.4162 40.232 61.8798Z" fill="#390176"/>
<path d="M40.0945 60.4955C40.0701 61.7938 39.6988 62.7449 38.9594 63.1165C37.1757 64.014 33.9455 61.182 31.7305 56.7871C29.5154 52.3921 29.1619 48.1059 30.9391 47.2117C31.865 46.7443 33.185 47.288 34.552 48.5376C35.7917 50.0436 36.8563 51.6858 37.7254 53.4324C38.9869 55.9253 39.7847 58.3938 40.0945 60.4955Z" fill="url(#paint2_linear_1079_31468)"/>
<g style="mix-blend-mode:multiply" opacity="0.6">
<path d="M32.0596 56.9525C29.8445 52.5592 29.491 48.2714 31.2682 47.3772C31.7839 47.1175 32.4212 47.1711 33.1201 47.4843C32.2947 47.0331 31.539 46.9146 30.9439 47.2149C29.1602 48.1124 29.5202 52.4083 31.7353 56.7903C33.3065 59.9031 35.3886 62.2304 37.101 63.0029C35.4551 62.0989 33.5319 59.8706 32.0596 56.9525Z" fill="#B2A8C1"/>
</g>
<path d="M38.2488 61.6957C39.7087 60.9583 39.4172 57.4356 37.5978 53.8275C35.7784 50.2195 33.12 47.8924 31.6601 48.6298C30.2001 49.3672 30.4916 52.89 32.311 56.498C34.1305 60.1061 36.7889 62.4332 38.2488 61.6957Z" fill="url(#paint3_linear_1079_31468)"/>
<g opacity="0.4">
<path d="M36.8764 58.9748C37.7286 58.5443 37.5589 56.4886 36.4973 54.3833C35.4356 52.278 33.8841 50.9203 33.0318 51.3508C32.1796 51.7813 32.3493 53.837 33.4109 55.9423C34.4725 58.0476 36.0241 59.4053 36.8764 58.9748Z" fill="url(#paint4_linear_1079_31468)"/>
</g>
<path d="M73.1365 65.2555C70.284 66.8486 67.1571 67.8897 63.9196 68.3245C63.9196 68.3245 69.8058 64.7459 65.1033 54.1968C65.1033 54.1968 66.1022 53.9127 68.6707 52.2492C71.4274 50.464 72.2382 49.8148 72.2382 49.8148C72.9444 51.0034 73.5207 52.2647 73.957 53.5768C75.0094 56.6782 75.7099 61.2079 73.1365 65.2555Z" fill="#390176"/>
<g style="mix-blend-mode:screen" opacity="0.8">
<path d="M34.772 53.6967C35.2857 53.5848 35.4474 52.3233 35.1333 50.879C34.8192 49.4348 34.1482 48.3548 33.6345 48.4667C33.1209 48.5786 32.9591 49.8401 33.2732 51.2843C33.5873 52.7285 34.2583 53.8086 34.772 53.6967Z" fill="url(#paint5_linear_1079_31468)"/>
</g>
<g style="mix-blend-mode:screen" opacity="0.6">
<path d="M35.9073 61.8825C36.1488 61.8299 36.2248 61.2363 36.0769 60.5566C35.9291 59.877 35.6135 59.3687 35.372 59.4213C35.1305 59.4739 35.0545 60.0676 35.2023 60.7472C35.3501 61.4268 35.6658 61.9351 35.9073 61.8825Z" fill="url(#paint6_linear_1079_31468)"/>
</g>
<path d="M40.2097 61.4935C40.0249 59.0997 39.1444 56.2368 37.732 53.4324C35.1959 48.4013 31.6511 44.8892 29.115 44.8892C28.7706 44.8852 28.43 44.9624 28.121 45.1148C26.9389 45.7137 26.4119 47.4096 26.6389 49.8944C26.8578 52.2769 27.7302 55.0878 29.0972 57.7932C31.6333 62.8244 35.1764 66.3364 37.7141 66.3364C38.0586 66.3401 38.399 66.2628 38.7082 66.1108C39.8433 65.5363 40.3913 63.8549 40.2097 61.4935ZM38.5606 65.8203C38.2975 65.95 38.0074 66.0156 37.7141 66.0118C35.3321 66.0118 31.8311 62.4933 29.3874 57.6472C26.5967 52.1146 26.0843 46.5073 28.2669 45.4053C28.5307 45.2757 28.8212 45.2101 29.115 45.2138C31.4955 45.2138 34.998 48.7323 37.4417 53.5785C38.8363 56.3375 39.7119 59.1646 39.887 61.5179C40.0573 63.7413 39.5741 65.3156 38.5606 65.8203Z" fill="#390176"/>
<g style="mix-blend-mode:multiply" opacity="0.6">
<path d="M69.8044 56.4705C69.8044 56.4705 71.8362 63.1327 68.7925 67.1819C67.208 67.7166 65.5756 68.097 63.9181 68.318C63.9181 68.318 69.8044 64.7394 65.1018 54.1903C65.1018 54.1903 66.1007 53.9063 68.6693 52.2428C71.4259 50.4575 72.2367 49.8083 72.2367 49.8083C72.9429 50.9969 73.5192 52.2582 73.9556 53.5703C73.9556 53.5703 71.2638 55.8214 69.8044 56.4705Z" fill="#B2A8C1"/>
</g>
<path d="M75.1164 73.7338C74.8845 73.6104 69.4231 70.6583 68.2702 64.892C67.9621 63.3469 67.6475 60.51 69.008 58.8417C69.5155 58.2233 70.195 57.8679 70.8744 57.8679C71.144 57.8663 71.4103 57.9269 71.6527 58.0448C72.5316 58.4846 72.95 59.5996 73.3894 60.7794C73.6894 61.5828 74.0008 62.4121 74.4726 63.136C75.705 65.0267 78.8509 68.7627 82.8318 70.7638L83.9036 71.3042L82.7069 71.3773C82.6599 71.3773 77.9817 71.6905 75.4699 73.6948L75.3077 73.8279L75.1164 73.7338Z" fill="#390176"/>
<path d="M82.6866 71.0592C82.6866 71.0592 77.8916 71.3529 75.2679 73.4465C75.2679 73.4465 69.7238 70.509 68.5887 64.8287C67.4536 59.1484 70.2103 57.6878 71.5075 58.3369C72.3313 58.7492 72.7124 59.9047 73.1859 61.1625C73.4461 61.9139 73.7859 62.6353 74.1993 63.3145C75.5392 65.2736 77.1417 67.0391 78.9619 68.5615C80.1043 69.5333 81.354 70.3713 82.6866 71.0592Z" fill="white"/>
<path d="M82.6866 71.0592C82.6866 71.0592 77.8916 71.3529 75.2679 73.4465C75.2679 73.4465 69.7238 70.509 68.5887 64.8287C67.4536 59.1484 70.2103 57.6878 71.5075 58.3369C72.3313 58.7492 72.7124 59.9047 73.1859 61.1625C73.1859 61.1625 71.7508 59.0673 70.9157 61.1625C70.6514 61.823 70.8054 63.8241 71.7573 66.0459C72.534 67.8571 74.8188 69.3875 76.6219 69.6164C79.0786 69.928 78.9683 68.5615 78.9683 68.5615C80.1088 69.5329 81.3563 70.3709 82.6866 71.0592Z" fill="#B2A8C1"/>
<path d="M83.2152 85.4936C82.0509 85.4936 80.8882 85.0067 79.7564 84.0492C79.1791 84.1843 78.5882 84.2519 77.9953 84.2504C75.9487 84.2508 73.9835 83.4485 72.521 82.0156C70.2378 79.8442 70.52 78.2829 70.747 77.7132C71.0616 76.9261 71.8318 76.436 72.7561 76.436C73.2053 76.4397 73.6481 76.5422 74.0533 76.7362C74.5155 76.9488 74.9079 77.103 75.2338 77.215C74.4685 76.0254 73.5912 74.2937 73.9366 73.0083C74.0598 72.5474 74.3922 71.9307 75.2792 71.5996C77.4878 70.7752 79.8488 70.3678 80.8639 70.2169C81.0439 68.7156 81.5628 64.199 81.5628 62.232C81.5628 60.906 82.4449 60.015 83.7551 60.015C85.0654 60.015 86.6448 60.9142 87.2074 62.6329C87.6485 63.9815 88.4528 67.0456 87.7782 69.8079C89.6851 68.6263 91.2066 66.914 92.1564 64.8806C92.8051 63.4914 93.5056 62.8162 94.3115 62.8162C94.6893 62.8162 95.2407 62.9785 95.7271 63.73C96.4909 64.9147 96.8784 67.3994 96.2347 68.8292C95.6362 70.1549 94.8799 71.4033 93.9823 72.5474C95.4174 72.0232 97.0503 71.3091 98.0038 70.5009C98.414 70.1536 98.8146 69.9767 99.2005 69.9767C99.7178 69.9767 100.324 70.3175 100.473 71.275C100.71 72.8055 99.6918 75.3535 97.1606 76.1585C95.9535 76.5316 94.7189 76.8089 93.4683 76.9878C92.184 77.1955 91.5597 77.3124 91.4089 77.7149C91.3225 77.9981 91.2595 78.2879 91.2208 78.5815C90.9451 80.1866 90.4879 82.8547 86.6204 83.908C86.2069 84.3592 84.9989 85.4936 83.2152 85.4936Z" fill="#390176"/>
<path d="M99.8573 71.6288C99.901 72.8639 99.0319 74.8828 96.966 75.5401C93.7229 76.5707 91.6943 76.2656 90.9825 77.163C90.9058 77.2608 90.8455 77.3705 90.8041 77.4876C90.3176 78.7779 90.8041 82.1536 86.3448 83.3091L86.2637 83.3302C86.2637 83.3302 83.6319 86.7384 79.9218 83.3302C79.9218 83.3302 76.21 84.6286 72.9669 81.545C70.8459 79.5277 70.9448 77.9275 71.8578 77.3351C72.0319 77.2228 72.2273 77.1477 72.4318 77.1144C72.8914 77.0458 73.361 77.1194 73.7777 77.3253C75.8857 78.2991 76.6965 78.1368 76.6965 78.1368C76.6965 78.1368 72.6896 73.2583 75.503 72.2082C76.6459 71.7935 77.817 71.461 79.0072 71.2133C80.4164 70.9131 81.4396 70.793 81.4396 70.793C81.4396 70.793 81.6147 69.394 81.7963 67.6688C81.9958 65.783 82.205 63.5027 82.205 62.232C82.205 60.4825 84.0487 60.2845 85.3865 61.2225C85.9489 61.6161 86.3688 62.1816 86.5832 62.8341C87.3939 65.3156 87.8804 68.6994 86.5832 71.1452C86.601 71.1452 86.7551 71.0819 87.008 70.965C89.5364 69.7513 91.5657 67.6972 92.75 65.1533C94.018 62.4202 95.1531 63.4443 95.6509 65.1533C95.9752 66.2893 96.0288 67.7191 95.6509 68.5615C94.7818 70.483 93.3597 72.674 91.7592 73.7857C91.6083 73.8913 91.4518 73.9888 91.2906 74.0778C91.443 74.0389 96.3466 72.7535 98.4254 70.9942C99.3108 70.2444 99.8248 70.7265 99.8556 71.6223L99.8573 71.6288Z" fill="white"/>
<path d="M90.8332 77.0089L89.2635 76.1081L86.7614 75.4395L85.302 75.4882C85.302 75.4882 87.2479 75.7332 88.8241 76.4733C89.0774 76.5913 89.3026 76.7619 89.4849 76.9739C89.6671 77.1858 89.8022 77.4342 89.881 77.7024C89.9599 77.9707 89.9807 78.2526 89.9422 78.5296C89.9037 78.8065 89.8066 79.0721 89.6576 79.3086C89.077 80.2337 88.2452 81.0338 87.7992 81.3016C86.9885 81.7884 86.3398 80.7855 86.3398 80.7855L86.3658 82.4668L86.2636 83.3302L86.3447 83.3091C90.7975 82.1536 90.3208 78.7779 90.804 77.4876C90.8454 77.3705 90.9057 77.2608 90.9824 77.163L90.8332 77.0089Z" fill="#B2A8C1"/>
<path d="M86.3448 81.6261V83.3091L86.2637 83.3302C86.2637 83.3302 83.6319 86.7384 79.9218 83.3302C79.9218 83.3302 76.21 84.6286 72.9669 81.545C70.8459 79.5277 70.9448 77.9274 71.8578 77.3351C72.0319 77.2228 72.2273 77.1477 72.4318 77.1143C72.4318 77.1143 71.587 77.7311 71.9113 78.5425C72.2356 79.354 73.682 81.4346 75.8776 81.6927C78.0732 81.9507 78.9067 81.9215 80.0304 81.6927C80.0304 81.6927 81.3163 83.2491 82.7757 83.2491C84.2351 83.2491 86.3189 83.2994 86.168 80.4349L86.3448 81.6261Z" fill="#B2A8C1"/>
<path d="M99.8557 71.6239C99.8362 71.5655 99.6189 70.9374 99.1551 71.4016C98.6914 71.8658 95.2634 74.9721 88.6961 74.8909L90.436 74.3229L91.7624 73.7857C91.6115 73.8913 91.4551 73.9888 91.2938 74.0778C91.4462 74.0389 96.3498 72.7535 98.4287 70.9942C99.3108 70.2461 99.82 70.7281 99.8557 71.6239Z" fill="#B2A8C1"/>
<path d="M95.651 65.1533C95.6153 65.1094 95.0753 64.4392 94.2905 64.9098C93.4797 65.3967 93.1554 68.318 91.0474 69.7787C88.9393 71.2393 86.8313 72.5377 84.7233 73.3491C84.8157 73.2988 86.0205 72.635 87.008 70.9683C89.5369 69.7537 91.5663 67.6985 92.75 65.1533C94.0181 62.4202 95.1531 63.4443 95.651 65.1533Z" fill="#B2A8C1"/>
<path d="M82.2097 62.232C82.2097 63.5027 82.0005 65.783 81.801 67.6688C81.6194 69.394 81.4443 70.793 81.4443 70.793C81.4443 70.793 81.2011 70.8222 80.7957 70.8855C80.6676 70.905 80.5216 70.9277 80.3611 70.9553H80.3416L80.1065 70.9975H80.0854C79.7611 71.0543 79.4109 71.1225 79.0217 71.2052C77.8239 71.4538 76.6457 71.789 75.4964 72.2082C72.6895 73.2583 76.6964 78.1368 76.6964 78.1368L78.6422 77.3935C78.6422 77.3935 77.4244 73.3491 78.7217 73.0246C80.0189 72.7 79.8325 73.5747 79.8325 73.5747L79.9152 73.5309V73.5488C79.9152 73.5488 82.0913 72.4711 82.8421 70.5853C84.068 67.5017 83.095 63.282 83.4194 62.146C83.7437 61.0099 85.3101 61.2095 85.3847 61.2176C84.0534 60.2845 82.2097 60.4825 82.2097 62.232Z" fill="#B2A8C1"/>
<path d="M85.947 83.7489C86.0548 83.3119 86.1312 82.8677 86.1756 82.4197C86.2229 81.9659 86.2387 81.5093 86.2226 81.0532C86.2035 80.5953 86.1427 80.1401 86.041 79.6932C85.9321 79.2423 85.7688 78.8063 85.5546 78.3948C85.8216 78.7823 86.0395 79.2016 86.2032 79.6429C86.3622 80.0893 86.4794 80.5494 86.5534 81.0175C86.6249 81.4882 86.6639 81.9632 86.6702 82.4392C86.6791 82.9215 86.652 83.4038 86.5891 83.882L85.947 83.7489Z" fill="#390176"/>
<path d="M90.8853 77.7311C90.7945 77.645 90.7232 77.2442 90.2367 77.0088C90.107 76.9261 89.974 76.8466 89.8378 76.7719C89.7016 76.6972 89.5621 76.6258 89.4227 76.5561C88.8551 76.2842 88.2647 76.0626 87.6584 75.8939C87.352 75.8176 87.0455 75.7316 86.7325 75.6813C86.5704 75.6537 86.4212 75.6147 86.2623 75.5969L85.7888 75.5352C85.6266 75.5093 85.4726 75.4995 85.3137 75.4882L84.8272 75.4541C84.5029 75.4411 84.1867 75.4427 83.8656 75.4362C84.1899 75.4151 84.5142 75.3875 84.8272 75.3729H85.3137C85.4758 75.3729 85.638 75.3729 85.8001 75.3729L86.2866 75.3956C86.4487 75.3956 86.6109 75.4249 86.7731 75.4395C87.0974 75.4654 87.4217 75.5255 87.7363 75.5774C88.3732 75.7005 88.9982 75.8786 89.6043 76.1097C89.7567 76.1698 89.9108 76.2298 90.06 76.2996C90.2092 76.3694 90.36 76.4392 90.5075 76.5171C90.6551 76.595 90.801 76.6794 90.9437 76.7638C91.0943 76.8533 91.2389 76.9525 91.3767 77.0608L90.8853 77.7311Z" fill="#390176"/>
<path d="M87.6177 70.5739C87.4215 70.866 87.2205 71.1306 87.0064 71.3967C86.7924 71.6629 86.5718 71.9145 86.3351 72.1547C86.1014 72.3984 85.8504 72.6252 85.5843 72.833C85.321 73.0419 85.0316 73.2155 84.7233 73.3491C85.0005 73.1712 85.253 72.9573 85.4741 72.7129C85.6956 72.4729 85.8998 72.2174 86.0854 71.9485C86.2735 71.6824 86.4437 71.4032 86.6059 71.1208C86.7681 70.8384 86.9205 70.5447 87.0502 70.2607L87.6177 70.5739Z" fill="#390176"/>
<path d="M93.1424 73.4757C92.4192 73.7808 91.6943 74.0616 90.9565 74.318C90.5901 74.4462 90.2171 74.5631 89.8409 74.667C89.4676 74.7794 89.0842 74.8544 88.6961 74.8909C89.0713 74.8016 89.4369 74.6755 89.7874 74.5144C90.1409 74.3597 90.4884 74.1947 90.83 74.0194C91.5143 73.6688 92.1905 73.2907 92.8456 72.8979L93.1424 73.4757Z" fill="#390176"/>
<path d="M76.0541 77.4179C76.1879 77.4654 76.3244 77.5049 76.4628 77.5363C76.6063 77.5691 76.7513 77.5946 76.8974 77.6126C77.191 77.651 77.4881 77.6554 77.7827 77.6256C78.0807 77.5943 78.3719 77.516 78.6454 77.3935C78.9232 77.2632 79.1758 77.0846 79.3913 76.8661C79.2107 77.1269 78.985 77.3533 78.7249 77.5347C78.456 77.7168 78.1599 77.8549 77.8476 77.9437C77.5305 78.0346 77.2041 78.0891 76.8747 78.106C76.7126 78.1147 76.5502 78.1147 76.3882 78.106C76.2185 78.0993 76.0495 78.0815 75.8823 78.0524L76.0541 77.4179Z" fill="#390176"/>
<path d="M81.4445 70.6469C81.4174 70.8429 81.3779 71.037 81.3261 71.2279C81.2791 71.4146 81.2207 71.5963 81.1559 71.7765C81.0277 72.1346 80.8648 72.4792 80.6694 72.8054C80.4732 73.1284 80.2355 73.4241 79.9624 73.6851C79.6921 73.9405 79.3862 74.1554 79.0543 74.3229C79.3522 74.1135 79.6177 73.8614 79.8424 73.5747C80.0619 73.293 80.2435 72.9836 80.3824 72.6545C80.5169 72.329 80.6184 71.9908 80.6856 71.645C80.7197 71.4714 80.7489 71.2977 80.7667 71.1241C80.7865 70.9555 80.7962 70.7858 80.7959 70.6161L81.4445 70.6469Z" fill="#390176"/>
<path d="M17.8334 36.4272C18.1788 36.4516 18.5371 36.4662 18.8906 36.4759C19.2441 36.4856 19.6009 36.4905 19.956 36.4905C20.6673 36.4905 21.3797 36.4694 22.0932 36.4272C21.3949 36.5754 20.6922 36.7042 19.9852 36.8135C19.6317 36.8687 19.2749 36.9173 18.9182 36.9628C18.5615 37.0082 18.2063 37.0472 17.8382 37.0764L17.8334 36.4272Z" fill="#390176"/>
<path d="M27.237 30.0052C27.1139 29.9695 26.9889 29.9407 26.8625 29.9192C26.7311 29.8965 26.5982 29.8786 26.4636 29.8689C26.1939 29.8444 25.9225 29.8444 25.6528 29.8689C25.1102 29.9151 24.5838 30.0773 24.1091 30.3444C23.8677 30.4794 23.6434 30.6429 23.441 30.8313C23.334 30.9189 23.2431 31.0244 23.1442 31.1234C23.0453 31.2224 22.9594 31.3328 22.8799 31.448C22.5464 31.9075 22.2804 32.4125 22.0902 32.9476C22.2289 32.389 22.4473 31.8533 22.7388 31.3571C22.8102 31.2289 22.901 31.1153 22.9821 30.9936C23.0631 30.8719 23.1604 30.7615 23.2626 30.656C23.4618 30.4365 23.6854 30.2405 23.9291 30.0718C24.4238 29.7304 24.9854 29.498 25.5766 29.3901C25.8723 29.3341 26.1724 29.3048 26.4733 29.3025C26.6241 29.3025 26.7749 29.3025 26.9273 29.3171C27.0842 29.3282 27.2402 29.3493 27.3943 29.3804L27.237 30.0052Z" fill="#390176"/>
<path d="M14.6876 29.382C14.9137 29.1894 15.1521 29.0115 15.4011 28.8497C15.646 28.6874 15.8876 28.5478 16.1503 28.4164C17.1624 27.8886 18.2608 27.5468 19.3934 27.4069C19.6707 27.3631 19.9545 27.3549 20.235 27.3371C20.5155 27.3192 20.796 27.3371 21.075 27.3371C20.796 27.3647 20.5171 27.3744 20.2415 27.4166C19.9658 27.4588 19.6901 27.4961 19.421 27.5659C18.8809 27.6848 18.3528 27.8527 17.8432 28.0674C17.3369 28.2781 16.851 28.5351 16.3919 28.8351C16.1616 28.9828 15.9427 29.1434 15.7287 29.309C15.523 29.4733 15.3275 29.65 15.1433 29.8381L14.6876 29.382Z" fill="#390176"/>
<g style="mix-blend-mode:screen">
<path d="M59.9136 21.5448C60.8155 21.5448 61.5466 20.8131 61.5466 19.9105C61.5466 19.0079 60.8155 18.2762 59.9136 18.2762C59.0118 18.2762 58.2807 19.0079 58.2807 19.9105C58.2807 20.8131 59.0118 21.5448 59.9136 21.5448Z" fill="url(#paint7_linear_1079_31468)"/>
</g>
<path d="M73.2606 27.3712C72.9443 27.4939 72.5942 27.4974 72.2756 27.381C71.957 27.2645 71.6915 27.0361 71.5287 26.7382C69.1337 22.366 63.8523 21.4604 63.7987 21.4523C63.4549 21.3713 63.1543 21.163 62.9575 20.8694C62.7606 20.5758 62.682 20.2185 62.7374 19.8693C62.7928 19.5201 62.9782 19.2048 63.2562 18.9866C63.5343 18.7685 63.8845 18.6637 64.2366 18.6933C64.5074 18.7355 70.9158 19.7985 73.9838 25.3993C74.1618 25.7254 74.2032 26.1089 74.0989 26.4655C73.9947 26.8222 73.7532 27.1228 73.4276 27.3014C73.3739 27.3291 73.318 27.3525 73.2606 27.3712Z" fill="url(#paint8_linear_1079_31468)"/>
<path style="mix-blend-mode:color-dodge" opacity="0.45" d="M39.8853 61.5179C39.7037 59.1646 38.8362 56.3456 37.4416 53.5785C36.7262 52.1534 35.8845 50.7955 34.9266 49.5211C32.9321 46.8919 30.7559 45.2171 29.1133 45.2171C28.82 45.2134 28.53 45.2791 28.2668 45.4086L-23.125 61.5179L-0.436422 102.083L38.5605 65.8203C39.574 65.3156 40.0572 63.7413 39.8853 61.5179Z" fill="url(#paint9_linear_1079_31468)"/>
</g>
</g>
<defs>
<radialGradient id="paint0_radial_1079_31468" cx="0" cy="0" r="1" gradientUnits="userSpaceOnUse" gradientTransform="translate(67.1552 20.2562) scale(45.6697 45.7085)">
<stop stop-color="#56C1FC"/>
<stop offset="1" stop-color="#3A8CFC"/>
</radialGradient>
<radialGradient id="paint1_radial_1079_31468" cx="0" cy="0" r="1" gradientUnits="userSpaceOnUse" gradientTransform="translate(67.9497 29.2749) scale(40.8536 40.8884)">
<stop stop-color="#5577E5"/>
<stop offset="1" stop-color="#3F3EE5"/>
</radialGradient>
<linearGradient id="paint2_linear_1079_31468" x1="29.8121" y1="55.1641" x2="40.0945" y2="55.1641" gradientUnits="userSpaceOnUse">
<stop stop-color="#30A4E4"/>
<stop offset="1" stop-color="#9DD0E4"/>
</linearGradient>
<linearGradient id="paint3_linear_1079_31468" x1="30.7303" y1="55.1638" x2="39.177" y2="55.1638" gradientUnits="userSpaceOnUse">
<stop stop-color="#85D0E4"/>
<stop offset="1" stop-color="#BBD0E4"/>
</linearGradient>
<linearGradient id="paint4_linear_1079_31468" x1="32.4877" y1="55.1638" x2="37.4189" y2="55.1638" gradientUnits="userSpaceOnUse">
<stop stop-color="#87D0E5"/>
<stop offset="0.3" stop-color="#6ECAE1"/>
<stop offset="0.95" stop-color="#2DBBD6"/>
<stop offset="1" stop-color="#28BAD5"/>
</linearGradient>
<linearGradient id="paint5_linear_1079_31468" x1="33.8264" y1="54.5318" x2="33.7062" y2="49.0946" gradientUnits="userSpaceOnUse">
<stop stop-color="white" stop-opacity="0"/>
<stop offset="0.22" stop-color="white" stop-opacity="0.24"/>
<stop offset="0.6" stop-color="white" stop-opacity="0.64"/>
<stop offset="0.87" stop-color="white" stop-opacity="0.9"/>
<stop offset="1" stop-color="white"/>
</linearGradient>
<linearGradient id="paint6_linear_1079_31468" x1="36.2754" y1="58.6428" x2="36.3403" y2="61.2024" gradientUnits="userSpaceOnUse">
<stop stop-color="white" stop-opacity="0"/>
<stop offset="0.22" stop-color="white" stop-opacity="0.24"/>
<stop offset="0.6" stop-color="white" stop-opacity="0.64"/>
<stop offset="0.87" stop-color="white" stop-opacity="0.9"/>
<stop offset="1" stop-color="white"/>
</linearGradient>
<linearGradient id="paint7_linear_1079_31468" x1="76.0949" y1="27.6086" x2="57.2478" y2="18.6559" gradientUnits="userSpaceOnUse">
<stop stop-color="white" stop-opacity="0"/>
<stop offset="0.22" stop-color="white" stop-opacity="0.24"/>
<stop offset="0.6" stop-color="white" stop-opacity="0.64"/>
<stop offset="0.87" stop-color="white" stop-opacity="0.9"/>
<stop offset="1" stop-color="white"/>
</linearGradient>
<linearGradient id="paint8_linear_1079_31468" x1="76.5283" y1="26.695" x2="57.6817" y2="17.7438" gradientUnits="userSpaceOnUse">
<stop stop-color="white" stop-opacity="0"/>
<stop offset="0.22" stop-color="white" stop-opacity="0.24"/>
<stop offset="0.6" stop-color="white" stop-opacity="0.64"/>
<stop offset="0.87" stop-color="white" stop-opacity="0.9"/>
<stop offset="1" stop-color="white"/>
</linearGradient>
<linearGradient id="paint9_linear_1079_31468" x1="6.625" y1="71.4583" x2="38.7858" y2="56.7222" gradientUnits="userSpaceOnUse">
<stop stop-color="#A79DFF" stop-opacity="0"/>
<stop offset="1" stop-color="#9D92FF"/>
</linearGradient>
<clipPath id="clip0_1079_31468">
<rect width="105" height="105" fill="white" transform="translate(0.5)"/>
</clipPath>
<clipPath id="clip1_1079_31468">
<rect width="121.333" height="86.9167" fill="white" transform="translate(-20.5 15.1667)"/>
</clipPath>
</defs>
</svg>
