<svg width="1462" height="809" viewBox="0 0 1462 809" fill="none" xmlns="http://www.w3.org/2000/svg">
<mask id="mask0_873_18220" style="mask-type:alpha" maskUnits="userSpaceOnUse" x="0" y="0" width="1462" height="809">
<rect width="1462" height="809" transform="matrix(1 0 0 -1 0 809)" fill="url(#paint0_linear_873_18220)"/>
</mask>
<g mask="url(#mask0_873_18220)">
<path d="M21.676 433.5L1441.32 433.5" stroke="#3C356D"/>
<path d="M12 317.5H1450" stroke="#3C356D"/>
<path d="M12 85.5H1450" stroke="#3C356D"/>
<path d="M12 201.5H1450" stroke="#3C356D"/>
<path d="M115.14 463.573L1348.57 463.573" stroke="#3C356D"/>
<path d="M188.734 484.24L1274.97 484.24" stroke="#3C356D"/>
<path d="M269.761 506.972L1193.95 506.972" stroke="#3C356D"/>
<path d="M310.804 518.339L1152.9 518.339" stroke="#3C356D"/>
<path d="M345 557.5H1117" stroke="#3C356D"/>
<path d="M345 624.5H1117" stroke="#3C356D"/>
<path d="M345 691.5H1117" stroke="#3C356D"/>
<path d="M345 758.5H1117" stroke="#3C356D"/>
<path d="M12.5312 -610V412.066C12.5312 425.516 21.4826 437.322 34.4329 440.952L323.578 522.015C336.528 525.646 345.479 537.452 345.479 550.902V963" stroke="#3C356D"/>
<path d="M1450.47 -610.5V412.066C1450.47 425.516 1441.52 437.322 1428.57 440.952L1139.42 522.015C1126.47 525.646 1117.52 537.452 1117.52 550.902V963" stroke="#3C356D"/>
<path d="M132.123 -610.5V413.23C132.123 426.123 140.361 437.575 152.586 441.673L389.537 521.122C401.762 525.221 410 536.672 410 549.566V962.5" stroke="#3C356D"/>
<path d="M1330.88 -610V413.23C1330.88 426.123 1322.64 437.575 1310.41 441.673L1073.46 521.122C1061.24 525.221 1053 536.672 1053 549.566V962.5" stroke="#3C356D"/>
<path d="M252.069 -611L252.069 414.913C252.069 426.973 259.291 437.861 270.402 442.551L455.667 520.761C466.778 525.451 474 536.339 474 548.399V962.5" stroke="#3C356D"/>
<path d="M1210.93 -610.5V414.913C1210.93 426.973 1203.71 437.861 1192.6 442.551L1007.33 520.761C996.222 525.451 989 536.339 989 548.399V962.5" stroke="#3C356D"/>
<path d="M370 -610.5V417.08C370 427.961 375.892 437.99 385.397 443.286L522.603 519.744C532.108 525.041 538 535.069 538 545.95V962.5" stroke="#3C356D"/>
<path d="M1093 -610.5L1093 417.08C1093 427.961 1087.11 437.99 1077.6 443.286L940.397 519.744C930.892 525.041 925 535.069 925 545.95V962.5" stroke="#3C356D"/>
<path d="M489 -609V420.807C489 429.738 492.979 438.204 499.854 443.903L591.146 519.579C598.021 525.279 602 533.745 602 542.676V962.5" stroke="#3C356D"/>
<path d="M974 -610.5V420.807C974 429.738 970.021 438.204 963.146 443.903L871.854 519.579C864.979 525.279 861 533.745 861 542.676V962.5" stroke="#3C356D"/>
<path d="M609 -611V426.547C609 432.141 610.564 437.623 613.516 442.375L662.484 521.215C665.436 525.967 667 531.45 667 537.044V963.5" stroke="#3C356D"/>
<path d="M854 -610.5V426.547C854 432.141 852.436 437.623 849.484 442.375L800.516 521.215C797.564 525.967 796 531.45 796 537.044V963.5" stroke="#3C356D"/>
<path d="M731 962.5L731 392.842L731 -611" stroke="#3C356D"/>
</g>
<defs>
<linearGradient id="paint0_linear_873_18220" x1="731" y1="0" x2="731" y2="726.319" gradientUnits="userSpaceOnUse">
<stop stop-color="#D9D9D9" stop-opacity="0"/>
<stop offset="0.215" stop-color="#D9D9D9"/>
<stop offset="0.725957" stop-color="#D9D9D9"/>
<stop offset="1" stop-color="#737373" stop-opacity="0"/>
</linearGradient>
</defs>
</svg>
