<svg width="1440" height="1451" viewBox="0 0 1440 1451" fill="none" xmlns="http://www.w3.org/2000/svg">
<mask id="mask0_611_12135" style="mask-type:alpha" maskUnits="userSpaceOnUse" x="0" y="0" width="1440" height="1451">
<rect width="1440" height="1451" fill="url(#paint0_linear_611_12135)"/>
</mask>
<g mask="url(#mask0_611_12135)">
<path d="M10.676 250L1430.32 250" stroke="#3C356D"/>
<path d="M1 366H1439" stroke="#3C356D"/>
<path d="M1 482H1439" stroke="#3C356D"/>
<path d="M104.14 219.927L1337.57 219.927" stroke="#3C356D"/>
<path d="M177.734 199.261L1263.97 199.26" stroke="#3C356D"/>
<path d="M258.761 176.528L1182.95 176.527" stroke="#3C356D"/>
<path d="M299.804 165.161L1141.9 165.161" stroke="#3C356D"/>
<path d="M334 126H1106" stroke="#3C356D"/>
<path d="M334 59H1106" stroke="#3C356D"/>
<path d="M1.53125 599.156V271.434C1.53125 257.984 10.4826 246.178 23.4329 242.548L312.578 161.485C325.528 157.854 334.479 146.048 334.479 132.598V-279.5" stroke="#3C356D"/>
<path d="M1439.47 599.156V271.434C1439.47 257.984 1430.52 246.178 1417.57 242.548L1128.42 161.485C1115.47 157.854 1106.52 146.048 1106.52 132.598V-279.5" stroke="#3C356D"/>
<path d="M121.123 599.156V270.27C121.123 257.377 129.361 245.925 141.586 241.827L378.537 162.378C390.762 158.279 399 146.828 399 133.934V-279" stroke="#3C356D"/>
<path d="M1319.88 599.156V270.27C1319.88 257.377 1311.64 245.925 1299.41 241.827L1062.46 162.378C1050.24 158.279 1042 146.828 1042 133.934V-279" stroke="#3C356D"/>
<path d="M241.069 599.156V268.587C241.069 256.527 248.291 245.639 259.402 240.949L444.667 162.739C455.778 158.049 463 147.161 463 135.101V-279" stroke="#3C356D"/>
<path d="M1199.93 599.156V268.587C1199.93 256.527 1192.71 245.639 1181.6 240.949L996.333 162.739C985.222 158.049 978 147.161 978 135.101V-279" stroke="#3C356D"/>
<path d="M359 599V266.42C359 255.539 364.892 245.51 374.397 240.214L511.603 163.756C521.108 158.459 527 148.431 527 137.55V-279" stroke="#3C356D"/>
<path d="M1082 599V266.42C1082 255.539 1076.11 245.51 1066.6 240.214L929.397 163.756C919.892 158.459 914 148.431 914 137.55V-279" stroke="#3C356D"/>
<path d="M478 599V262.693C478 253.762 481.979 245.296 488.854 239.597L580.146 163.921C587.021 158.221 591 149.755 591 140.824V-279" stroke="#3C356D"/>
<path d="M963 599V262.693C963 253.762 959.021 245.296 952.146 239.597L860.854 163.921C853.979 158.221 850 149.755 850 140.824V-279" stroke="#3C356D"/>
<path d="M598 599V256.953C598 251.359 599.564 245.877 602.516 241.125L651.484 162.285C654.436 157.533 656 152.05 656 146.456V-280" stroke="#3C356D"/>
<path d="M843 599V256.953C843 251.359 841.436 245.877 838.484 241.125L789.516 162.285C786.564 157.533 785 152.05 785 146.456V-280" stroke="#3C356D"/>
<path d="M720 -279L720 290.658L720 599" stroke="#3C356D"/>
<path d="M10.676 715.156L1430.32 715.155" stroke="#3C356D"/>
<path d="M1 599.156H1439" stroke="#3C356D"/>
<path d="M104.14 745.229L1337.57 745.229" stroke="#3C356D"/>
<path d="M177.734 765.895L1263.97 765.895" stroke="#3C356D"/>
<path d="M258.761 788.628L1182.95 788.628" stroke="#3C356D"/>
<path d="M299.804 799.995L1141.9 799.995" stroke="#3C356D"/>
<path d="M334 839.156H1106" stroke="#3C356D"/>
<path d="M334 906.156H1106" stroke="#3C356D"/>
<path d="M334 973.156H1106" stroke="#3C356D"/>
<path d="M334 1040.16H1106" stroke="#3C356D"/>
<path d="M334 1107.16H1106" stroke="#3C356D"/>
<path d="M334 1174.16H1106" stroke="#3C356D"/>
<path d="M1.53125 366V693.722C1.53125 707.171 10.4826 718.977 23.4329 722.608L312.578 803.671C325.528 807.302 334.479 819.108 334.479 832.557V1244.66" stroke="#3C356D"/>
<path d="M1439.47 366V693.722C1439.47 707.171 1430.52 718.977 1417.57 722.608L1128.42 803.671C1115.47 807.302 1106.52 819.108 1106.52 832.557V1244.66" stroke="#3C356D"/>
<path d="M121.123 366V694.885C121.123 707.779 129.361 719.23 141.586 723.329L378.537 802.778C390.762 806.877 399 818.328 399 831.221V1244.16" stroke="#3C356D"/>
<path d="M1319.88 366V694.885C1319.88 707.779 1311.64 719.23 1299.41 723.329L1062.46 802.778C1050.24 806.877 1042 818.328 1042 831.221V1244.16" stroke="#3C356D"/>
<path d="M241.069 366V696.569C241.069 708.629 248.291 719.516 259.402 724.207L444.667 802.416C455.778 807.107 463 817.995 463 830.055V1244.16" stroke="#3C356D"/>
<path d="M1199.93 366V696.569C1199.93 708.629 1192.71 719.516 1181.6 724.207L996.333 802.416C985.222 807.107 978 817.995 978 830.055V1244.16" stroke="#3C356D"/>
<path d="M359 366.156V698.736C359 709.617 364.892 719.645 374.397 724.942L511.603 801.4C521.108 806.696 527 816.725 527 827.606V1244.16" stroke="#3C356D"/>
<path d="M1082 366.156V698.736C1082 709.617 1076.11 719.645 1066.6 724.942L929.397 801.4C919.892 806.696 914 816.725 914 827.606V1244.16" stroke="#3C356D"/>
<path d="M478 366.156V702.463C478 711.393 481.979 719.859 488.854 725.559L580.146 801.235C587.021 806.934 591 815.4 591 824.331V1244.16" stroke="#3C356D"/>
<path d="M963 366.156V702.463C963 711.393 959.021 719.859 952.146 725.559L860.854 801.235C853.979 806.934 850 815.4 850 824.331V1244.16" stroke="#3C356D"/>
<path d="M598 366.156V708.202C598 713.796 599.564 719.279 602.516 724.031L651.484 802.87C654.436 807.622 656 813.105 656 818.699V1245.16" stroke="#3C356D"/>
<path d="M843 366.156V708.202C843 713.796 841.436 719.279 838.484 724.031L789.516 802.87C786.564 807.622 785 813.105 785 818.699V1245.16" stroke="#3C356D"/>
<path d="M720 1244.16L720 674.498L720 366.156" stroke="#3C356D"/>
</g>
<defs>
<linearGradient id="paint0_linear_611_12135" x1="720" y1="-21.045" x2="720" y2="1107.5" gradientUnits="userSpaceOnUse">
<stop stop-color="#D9D9D9" stop-opacity="0"/>
<stop offset="0.169369" stop-color="#D9D9D9"/>
<stop offset="0.736397" stop-color="#D9D9D9"/>
<stop offset="0.987273" stop-color="#D9D9D9" stop-opacity="0"/>
</linearGradient>
</defs>
</svg>
