<svg width="1462" height="1182" viewBox="0 0 1462 1182" fill="none" xmlns="http://www.w3.org/2000/svg">
<mask id="mask0_611_10652" style="mask-type:alpha" maskUnits="userSpaceOnUse" x="0" y="0" width="1462" height="1182">
<rect width="1462" height="1182" transform="matrix(1 0 0 -1 0 1182)" fill="url(#paint0_linear_611_10652)"/>
</mask>
<g mask="url(#mask0_611_10652)">
<path d="M21.676 636L1441.32 636" stroke="#3C356D"/>
<path d="M12 520H1450" stroke="#3C356D"/>
<path d="M12 288H1450" stroke="#3C356D"/>
<path d="M12 56H1450" stroke="#3C356D"/>
<path d="M12 404H1450" stroke="#3C356D"/>
<path d="M12 172H1450" stroke="#3C356D"/>
<path d="M115.14 666.073L1348.57 666.073" stroke="#3C356D"/>
<path d="M188.734 686.739L1274.97 686.739" stroke="#3C356D"/>
<path d="M269.761 709.473L1193.95 709.473" stroke="#3C356D"/>
<path d="M310.804 720.839L1152.9 720.839" stroke="#3C356D"/>
<path d="M345 760H1117" stroke="#3C356D"/>
<path d="M345 827H1117" stroke="#3C356D"/>
<path d="M345 894H1117" stroke="#3C356D"/>
<path d="M345 961H1117" stroke="#3C356D"/>
<path d="M345 1028H1117" stroke="#3C356D"/>
<path d="M345 1095H1117" stroke="#3C356D"/>
<path d="M12.5312 -407.5V614.566C12.5312 628.016 21.4826 639.822 34.4329 643.452L323.578 724.515C336.528 728.146 345.479 739.952 345.479 753.402V1165.5" stroke="#3C356D"/>
<path d="M1450.47 -408V614.566C1450.47 628.016 1441.52 639.822 1428.57 643.452L1139.42 724.515C1126.47 728.146 1117.52 739.952 1117.52 753.402V1165.5" stroke="#3C356D"/>
<path d="M132.123 -408V615.73C132.123 628.623 140.361 640.075 152.586 644.173L389.537 723.622C401.762 727.721 410 739.172 410 752.066V1165" stroke="#3C356D"/>
<path d="M1330.88 -407.5V615.73C1330.88 628.623 1322.64 640.075 1310.41 644.173L1073.46 723.622C1061.24 727.721 1053 739.172 1053 752.066V1165" stroke="#3C356D"/>
<path d="M252.069 -408.5L252.069 617.413C252.069 629.473 259.291 640.361 270.402 645.051L455.667 723.261C466.778 727.951 474 738.839 474 750.899V1165" stroke="#3C356D"/>
<path d="M1210.93 -408V617.413C1210.93 629.473 1203.71 640.361 1192.6 645.051L1007.33 723.261C996.222 727.951 989 738.839 989 750.899V1165" stroke="#3C356D"/>
<path d="M370 -408V619.58C370 630.461 375.892 640.49 385.397 645.786L522.603 722.244C532.108 727.541 538 737.569 538 748.45V1165" stroke="#3C356D"/>
<path d="M1093 -408L1093 619.58C1093 630.461 1087.11 640.49 1077.6 645.786L940.397 722.244C930.892 727.541 925 737.569 925 748.45V1165" stroke="#3C356D"/>
<path d="M489 -406.5V623.307C489 632.238 492.979 640.704 499.854 646.403L591.146 722.079C598.021 727.779 602 736.245 602 745.176V1165" stroke="#3C356D"/>
<path d="M974 -408V623.307C974 632.238 970.021 640.704 963.146 646.403L871.854 722.079C864.979 727.779 861 736.245 861 745.176V1165" stroke="#3C356D"/>
<path d="M609 -408.5V629.047C609 634.641 610.564 640.123 613.516 644.875L662.484 723.715C665.436 728.467 667 733.95 667 739.544V1166" stroke="#3C356D"/>
<path d="M854 -408V629.047C854 634.641 852.436 640.123 849.484 644.875L800.516 723.715C797.564 728.467 796 733.95 796 739.544V1166" stroke="#3C356D"/>
<path d="M731 1165L731 595.342L731 -408.5" stroke="#3C356D"/>
</g>
<defs>
<linearGradient id="paint0_linear_611_10652" x1="731" y1="0" x2="731" y2="935.516" gradientUnits="userSpaceOnUse">
<stop stop-color="#D9D9D9" stop-opacity="0"/>
<stop offset="0.215" stop-color="#D9D9D9"/>
<stop offset="0.725957" stop-color="#D9D9D9"/>
<stop offset="1" stop-color="#737373" stop-opacity="0"/>
</linearGradient>
</defs>
</svg>
