<svg width="1462" height="1309" viewBox="0 0 1462 1309" fill="none" xmlns="http://www.w3.org/2000/svg">
<mask id="mask0_611_10873" style="mask-type:alpha" maskUnits="userSpaceOnUse" x="0" y="0" width="1462" height="1309">
<rect y="0.342773" width="1462" height="1308" fill="url(#paint0_linear_611_10873)"/>
</mask>
<g mask="url(#mask0_611_10873)">
<path d="M21.676 553.343L1441.32 553.343" stroke="#3C356D"/>
<path d="M12 669.343H1450" stroke="#3C356D"/>
<path d="M12 901.343H1450" stroke="#3C356D"/>
<path d="M12 1133.34H1450" stroke="#3C356D"/>
<path d="M12 785.343H1450" stroke="#3C356D"/>
<path d="M12 1017.34H1450" stroke="#3C356D"/>
<path d="M12 1249.34H1450" stroke="#3C356D"/>
<path d="M115.14 523.27L1348.57 523.269" stroke="#3C356D"/>
<path d="M188.734 502.604L1274.97 502.603" stroke="#3C356D"/>
<path d="M269.761 479.87L1193.95 479.87" stroke="#3C356D"/>
<path d="M310.804 468.504L1152.9 468.504" stroke="#3C356D"/>
<path d="M345 429.343H1117" stroke="#3C356D"/>
<path d="M345 362.343H1117" stroke="#3C356D"/>
<path d="M345 295.343H1117" stroke="#3C356D"/>
<path d="M345 228.343H1117" stroke="#3C356D"/>
<path d="M345 161.343H1117" stroke="#3C356D"/>
<path d="M345 94.3428H1117" stroke="#3C356D"/>
<path d="M12.5312 1596.84V574.777C12.5312 561.327 21.4826 549.521 34.4329 545.89L323.578 464.827C336.528 461.197 345.479 449.391 345.479 435.941V23.8428" stroke="#3C356D"/>
<path d="M1450.47 1597.34V574.777C1450.47 561.327 1441.52 549.521 1428.57 545.89L1139.42 464.827C1126.47 461.197 1117.52 449.391 1117.52 435.941V23.8428" stroke="#3C356D"/>
<path d="M132.123 1597.34V573.613C132.123 560.72 140.361 549.268 152.586 545.169L389.537 465.721C401.762 461.622 410 450.17 410 437.277V24.3428" stroke="#3C356D"/>
<path d="M1330.88 1596.84V573.613C1330.88 560.72 1322.64 549.268 1310.41 545.169L1073.46 465.721C1061.24 461.622 1053 450.17 1053 437.277V24.3428" stroke="#3C356D"/>
<path d="M252.069 1597.84L252.069 571.93C252.069 559.87 259.291 548.982 270.402 544.291L455.667 466.082C466.778 461.391 474 450.504 474 438.444V24.3428" stroke="#3C356D"/>
<path d="M1210.93 1597.34V571.93C1210.93 559.87 1203.71 548.982 1192.6 544.291L1007.33 466.082C996.222 461.391 989 450.504 989 438.444V24.3428" stroke="#3C356D"/>
<path d="M370 1597.34V569.762C370 558.881 375.892 548.853 385.397 543.557L522.603 467.098C532.108 461.802 538 451.774 538 440.893V24.3428" stroke="#3C356D"/>
<path d="M1093 1597.34L1093 569.762C1093 558.881 1087.11 548.853 1077.6 543.557L940.397 467.098C930.892 461.802 925 451.774 925 440.893V24.3428" stroke="#3C356D"/>
<path d="M489 1595.84V566.036C489 557.105 492.979 548.639 499.854 542.939L591.146 467.264C598.021 461.564 602 453.098 602 444.167V24.3428" stroke="#3C356D"/>
<path d="M974 1597.34V566.036C974 557.105 970.021 548.639 963.146 542.939L871.854 467.264C864.979 461.564 861 453.098 861 444.167V24.3428" stroke="#3C356D"/>
<path d="M609 1597.84V560.296C609 554.702 610.564 549.219 613.516 544.467L662.484 465.628C665.436 460.876 667 455.393 667 449.799V23.3428" stroke="#3C356D"/>
<path d="M854 1597.34V560.296C854 554.702 852.436 549.219 849.484 544.467L800.516 465.628C797.564 460.876 796 455.393 796 449.799V23.3428" stroke="#3C356D"/>
<path d="M731 24.3428L731 594L731 1597.84" stroke="#3C356D"/>
</g>
<defs>
<linearGradient id="paint0_linear_611_10873" x1="731" y1="0.342773" x2="731" y2="1174.66" gradientUnits="userSpaceOnUse">
<stop stop-color="#D9D9D9" stop-opacity="0"/>
<stop offset="0.215" stop-color="#D9D9D9"/>
<stop offset="0.725957" stop-color="#D9D9D9"/>
<stop offset="1" stop-color="#737373" stop-opacity="0"/>
</linearGradient>
</defs>
</svg>
