<svg width="1120" height="350" viewBox="0 0 1120 350" fill="none" xmlns="http://www.w3.org/2000/svg">
<rect width="1120" height="350" fill="url(#paint0_radial_769_34392)"/>
<rect width="1120" height="350" fill="url(#paint1_radial_769_34392)"/>
<g clip-path="url(#clip0_769_34392)">
<g opacity="0.25">
<ellipse cx="200.552" cy="115.482" rx="200.552" ry="115.482" transform="matrix(0.870398 0.492349 -0.482083 0.876125 121.423 34.026)" stroke="#F7F7F7" stroke-width="1.50123"/>
<ellipse cx="132.246" cy="76.1501" rx="132.246" ry="76.1501" transform="matrix(0.870398 0.492349 -0.482083 0.876125 142.953 136.575)" stroke="#F7F7F7" stroke-width="1.50123"/>
<ellipse cx="68.9309" cy="39.6917" rx="68.9309" ry="39.6917" transform="matrix(0.870398 0.492349 -0.482083 0.876125 162.91 231.633)" stroke="#F7F7F7" stroke-width="1.50123"/>
<ellipse cx="280.325" cy="166.995" rx="280.325" ry="166.995" transform="matrix(0.870398 0.492349 -0.482083 0.876125 88.3751 -71.3789)" stroke="#F7F7F7" stroke-width="1.50123"/>
<path d="M118.431 288.081C102.102 287.92 63.1716 303.946 38.076 369.335" stroke="white" stroke-opacity="0.73" stroke-width="1.50123"/>
<path d="M152.727 11.9687C206.991 51.8647 222.455 169.353 152.882 260.012" stroke="#F7F7F7" stroke-width="1.50123"/>
<path d="M504.459 330.205C462.076 293.337 345.518 276.946 272.985 335.511" stroke="#F7F7F7" stroke-width="1.50123"/>
<path d="M239.564 276.234C301.808 166.233 375.423 130.987 413.849 125.225" stroke="#F7F7F7" stroke-width="1.50123"/>
<path d="M17.0139 61.5801C70.0804 61.6964 167.525 136.295 127.279 260.707" stroke="#F7F7F7" stroke-width="1.50123"/>
<path d="M72.658 227.565C63.6066 217.413 31.9318 201.883 -22.3556 220.977" stroke="white" stroke-opacity="0.73" stroke-width="1.50123"/>
</g>
<ellipse cx="200.168" cy="115.701" rx="200.168" ry="115.701" transform="matrix(0.871257 0.490826 -0.48233 0.875989 121.691 34.3805)" fill="url(#paint2_radial_769_34392)"/>
<path fill-rule="evenodd" clip-rule="evenodd" d="M364.119 258.223C399.312 222.637 390.072 155.596 343.48 108.482C296.889 61.3677 230.589 52.0219 195.396 87.6074C195.27 87.7352 195.144 87.8633 195.019 87.9919L195.017 87.99L175.69 107.532L175.693 107.535C140.227 144.075 148.925 211.403 195.308 258.306C241.691 305.21 308.274 314.007 344.411 278.145L344.414 278.148L344.84 277.717L344.897 277.659L344.954 277.601L363.74 258.605L363.739 258.604C363.866 258.478 363.993 258.351 364.119 258.223Z" fill="url(#paint3_linear_769_34392)"/>
<path d="M358.812 255.109C376.137 237.591 382.53 212.581 379.118 186.528C375.706 160.479 362.492 133.241 340.389 110.89C318.287 88.5396 291.35 75.1774 265.589 71.7267C239.825 68.2756 215.091 74.7392 197.767 92.2569C180.442 109.775 174.049 134.785 177.462 160.837C180.873 186.887 194.087 214.125 216.19 236.475C238.292 258.826 265.229 272.188 290.99 275.639C316.754 279.09 341.488 272.626 358.812 255.109Z" fill="url(#paint4_radial_769_34392)" stroke="url(#paint5_linear_769_34392)" stroke-width="5"/>
<g style="mix-blend-mode:soft-light">
<path d="M259.559 81.9288L307.18 129.684C308.986 131.495 311.318 132.675 313.834 133.052L322.886 134.408C326.623 134.968 330.402 133.706 333.073 131.005L339.054 124.957" stroke="white" stroke-opacity="0.77" stroke-width="1.5"/>
<path d="M332.364 117.782C351.837 137.474 363.589 161.204 366.873 183.625C370.157 206.046 364.972 227.106 350.653 241.585C336.334 256.064 315.507 261.306 293.334 257.984C271.161 254.663 247.694 242.779 228.221 223.087C208.747 203.395 196.995 179.665 193.711 157.244C190.427 134.823 195.612 113.763 209.931 99.2842C224.25 84.8054 245.077 79.5632 267.25 82.8846C289.423 86.2061 312.89 98.0901 332.364 117.782Z" stroke="white" stroke-opacity="0.77" stroke-width="1.5"/>
<path d="M259.235 192.724L247.41 204.681C244.738 207.382 243.49 211.203 244.043 214.981L244.443 217.71C244.996 221.488 243.748 225.309 241.076 228.01L237.652 231.473" stroke="white" stroke-opacity="0.77" stroke-width="1.5"/>
<path d="M221.535 215.912L241.085 196.143C243.804 193.394 243.804 188.937 241.086 186.188V186.188C238.367 183.438 233.959 183.438 231.24 186.187L212.786 204.848" stroke="white" stroke-opacity="0.77" stroke-width="1.5"/>
<path d="M205.881 103.311L224.261 121.897C226.072 123.728 227.252 126.1 227.627 128.661L230.536 148.521C230.911 151.082 232.092 153.454 233.902 155.285C237.626 159.051 240.868 162.329 244.897 166.404" stroke="white" stroke-opacity="0.77" stroke-width="1.5"/>
<path d="M346.671 245.683L328.292 227.097C326.481 225.266 324.136 224.072 321.602 223.693L301.963 220.751C299.429 220.371 297.084 219.178 295.273 217.347L284.278 206.228" stroke="white" stroke-opacity="0.77" stroke-width="1.5"/>
<path d="M213.551 95.5553L231.93 114.141C233.741 115.972 236.086 117.166 238.62 117.545L258.259 120.487C260.793 120.866 263.138 122.06 264.949 123.891L274.96 134.014" stroke="white" stroke-opacity="0.77" stroke-width="1.5"/>
<path d="M354.342 237.926L335.962 219.34C334.151 217.509 332.971 215.138 332.596 212.576L329.687 192.717C329.312 190.155 328.132 187.783 326.321 185.952L316.31 175.829" stroke="white" stroke-opacity="0.77" stroke-width="1.5"/>
<path d="M246.519 82.357L325.715 162.441L328.911 165.672L332.106 168.904L345.52 182.468C347.33 184.299 348.511 186.67 348.886 189.232L350.022 196.991C350.394 199.528 351.555 201.88 353.338 203.704L365.249 215.892" stroke="white" stroke-opacity="0.77" stroke-width="1.5"/>
<path d="M351.995 141.737L328.618 165.375" stroke="white" stroke-opacity="0.77" stroke-width="1.5"/>
<path d="M199.555 180.391L212.111 167.695C214.782 164.994 216.031 161.173 215.477 157.395L214.776 152.604C214.4 150.043 213.22 147.671 211.409 145.84L194.014 128.25" stroke="white" stroke-opacity="0.77" stroke-width="1.5"/>
<path d="M249.451 240.449L261.277 228.491C263.948 225.79 267.726 224.528 271.463 225.087L288.206 227.595C290.739 227.975 293.085 229.168 294.896 231L321.152 257.55" stroke="white" stroke-opacity="0.77" stroke-width="1.5"/>
<path d="M301.683 148.807C309.737 156.952 314.586 166.755 315.939 175.995C317.292 185.235 315.15 193.858 309.303 199.769C303.457 205.681 294.93 207.847 285.792 206.479C276.654 205.11 266.96 200.207 258.905 192.062C250.85 183.917 246.002 174.114 244.649 164.874C243.295 155.634 245.438 147.011 251.284 141.1C257.131 135.188 265.658 133.022 274.796 134.391C283.934 135.759 293.628 140.662 301.683 148.807Z" stroke="white" stroke-opacity="0.77" stroke-width="1.5"/>
</g>
<path d="M227.05 124.717L229.083 138.591" stroke="url(#paint6_linear_769_34392)" stroke-width="2" stroke-linecap="round"/>
<path d="M309.831 200.303C297.727 212.542 274.691 209.091 258.378 192.595" stroke="url(#paint7_linear_769_34392)" stroke-width="2" stroke-linecap="round"/>
<path d="M227.695 223.62C188.545 184.031 180.356 128.125 209.406 98.7511" stroke="url(#paint8_linear_769_34392)" stroke-width="2" stroke-linecap="round"/>
<path d="M339.055 124.957L333.074 131.005C330.403 133.706 326.625 134.968 322.888 134.409L313.835 133.053C311.319 132.676 308.987 131.496 307.181 129.684L284.761 107.201" stroke="url(#paint9_linear_769_34392)" stroke-width="2" stroke-linecap="round"/>
<path d="M354.343 237.926L335.963 219.341C334.152 217.509 332.972 215.138 332.597 212.576L329.688 192.717C329.313 190.155 328.133 187.784 326.322 185.952L324.911 184.526" stroke="url(#paint10_linear_769_34392)" stroke-width="2" stroke-linecap="round"/>
<path d="M246.521 82.3572L325.717 162.441L328.913 165.673L332.108 168.904" stroke="url(#paint11_linear_769_34392)" stroke-width="2" stroke-linecap="round"/>
<g clip-path="url(#clip1_769_34392)">
<path fill-rule="evenodd" clip-rule="evenodd" d="M272.366 138.079C276.185 138.034 278.954 138.655 280.983 140.016C282.157 140.761 283.117 142.103 283.504 143.444C283.89 144.785 283.606 146.028 282.724 146.91C282.39 147.244 281.992 147.514 281.53 147.721C282.443 149.302 283.42 150.756 284.404 151.883L284.764 152.29C279.048 150.01 273.234 149.683 268.471 151.505C268.534 151.377 268.962 150.374 269.203 148.086C268.772 147.941 268.333 147.741 267.982 147.58C266.888 147.011 265.608 145.54 264.99 144.111C264.461 142.914 264.41 141.813 264.847 141.057C265.021 140.755 265.228 140.484 265.49 140.222C266.802 138.91 269.312 138.127 272.366 138.079ZM280.571 140.94C282.36 142.157 283.716 145.278 280.746 146.65C280.459 146.745 280.204 146.872 280.005 147.007C280.462 147.893 280.991 148.899 281.688 149.93C277.698 148.803 273.742 148.664 270.236 149.548C270.253 149.393 270.272 149.232 270.292 149.065C270.355 148.536 270.425 147.945 270.453 147.284C269.52 147.066 268.746 146.817 268.275 146.584C267.093 145.975 265.092 143.306 265.917 141.841C266.743 140.376 269.236 139.291 272.728 139.252C276.22 139.214 278.758 139.747 280.571 140.94Z" fill="#5E12A0"/>
<path d="M280.746 146.65C283.716 145.278 282.36 142.157 280.571 140.94C278.758 139.747 276.22 139.214 272.728 139.252C269.236 139.291 266.743 140.376 265.917 141.841C265.092 143.306 267.093 145.975 268.275 146.584C268.746 146.817 269.52 147.066 270.453 147.284C270.416 148.153 270.306 148.902 270.236 149.548C273.742 148.664 277.698 148.803 281.688 149.93C280.991 148.899 280.462 147.893 280.005 147.007C280.204 146.872 280.459 146.745 280.746 146.65Z" fill="url(#paint12_radial_769_34392)"/>
<path d="M299.658 190.421C307.023 183.056 304.99 169.081 295.116 159.207C285.243 149.334 271.268 147.3 263.903 154.665C256.537 162.031 258.571 176.005 268.444 185.879C278.318 195.753 292.293 197.786 299.658 190.421Z" fill="url(#paint13_radial_769_34392)"/>
<path opacity="0.6" d="M278.002 140.566C273.631 139.82 271.432 140.676 269.052 141.969C267.172 142.953 266.467 141.484 268.432 139.966C267.213 140.417 266.33 141.108 265.918 141.841C265.092 143.306 267.093 145.974 268.275 146.584C268.746 146.816 269.52 147.066 270.453 147.283C270.385 148.503 270.252 149.468 270.119 150.241C270.461 150.154 270.883 150.051 271.418 149.965C272.804 149.73 274.647 149.806 274.647 149.806C271.775 149.607 271.358 148.617 271.468 145.053C271.497 143.937 272.611 142.951 274.26 142.645C275.91 142.338 278.75 142.888 278.75 142.888L280.467 146.8C280.571 146.761 280.674 146.721 280.778 146.681C281.726 146.245 282.21 145.633 282.416 144.979C282.501 144.063 282.406 141.343 278.002 140.566Z" fill="white" fill-opacity="0.7"/>
<path d="M270.562 143.529C271.295 143.308 272.363 143.135 273.798 143.043C275.505 142.936 277.187 143.045 278.392 143.247C279.028 145.553 280.494 148.117 281.567 149.858C282.054 150.011 282.565 150.14 283.052 150.293C282.419 149.326 281.522 147.856 280.721 146.291C280.848 146.228 280.967 146.109 281.087 145.989C281.373 145.703 281.643 145.305 281.617 144.755C281.616 144.372 281.479 143.806 280.816 143.19C280.208 142.582 279.083 142.172 277.416 141.985C276.219 141.838 274.768 141.818 273.381 141.862C269.506 142.091 267.563 143.01 267.782 144.518C267.929 145.523 268.68 146.179 269.335 146.548C269.243 147.983 269.078 149.107 268.969 149.856C269.383 149.697 269.805 149.595 270.252 149.468C270.471 148.161 270.641 146.137 270.562 143.529ZM279.645 143.593C279.876 143.682 280.06 143.818 280.156 143.914C280.444 144.202 280.468 144.369 280.484 144.481C280.485 144.672 280.358 144.927 280.191 145.094C279.95 144.567 279.798 144.08 279.645 143.593ZM268.987 144.721C268.962 144.553 269.089 144.298 269.464 144.052C269.481 144.547 269.466 145.009 269.451 145.471C269.204 145.271 269.004 145.024 268.987 144.721Z" fill="#5E12A0"/>
<path d="M262.848 153.611C255.046 161.412 257.2 176.209 267.658 186.667C278.116 197.125 292.913 199.278 300.714 191.477C308.515 183.676 306.362 168.879 295.904 158.421C285.446 147.963 270.625 145.833 262.848 153.611ZM299.658 190.421C292.287 197.793 278.327 195.762 268.445 185.88C258.563 175.997 256.531 162.038 263.903 154.666C271.275 147.294 285.234 149.326 295.117 159.208C304.999 169.09 307.006 183.074 299.658 190.421Z" fill="#5E12A0"/>
<path opacity="0.6" d="M299.658 190.421C307.023 183.056 304.99 169.081 295.116 159.207C285.243 149.334 271.268 147.3 263.903 154.665C256.537 162.031 258.571 176.005 268.444 185.879C278.318 195.753 292.293 197.786 299.658 190.421Z" fill="url(#paint14_linear_769_34392)"/>
<path opacity="0.25" d="M297.388 188.342C288.545 194.051 274.428 189.811 265.866 178.864C262.073 174.021 260.018 168.721 259.654 163.777C258.904 169.707 260.932 176.698 265.765 182.866C274.351 193.79 288.468 198.03 297.287 192.345C302.238 189.185 304.456 183.577 304.016 177.364C303.447 181.9 301.209 185.865 297.388 188.342Z" fill="white" fill-opacity="0.7"/>
<path opacity="0.6" d="M266.282 152.798C262.183 155.426 259.938 159.718 259.537 164.661C259.553 164.772 259.569 164.884 259.569 164.884C259.763 163.027 260.531 160.788 260.531 160.788C259.672 167.659 261.901 172.274 261.901 172.274C259.503 166.869 261.166 159.705 264.433 156.054C267.7 152.403 271.342 151.512 277.084 151.719C282.857 151.958 290.668 156.428 295.362 161.457C300.08 166.461 302.105 172.303 302.105 172.303C301.147 168.72 300.271 166.27 299.077 164.074C298.661 163.467 298.244 162.86 297.748 162.268C289.219 151.353 275.125 147.089 266.282 152.798Z" fill="url(#paint15_linear_769_34392)"/>
<path d="M294.289 159.716C303.659 169.086 305.593 182.376 298.603 189.366C291.613 196.356 278.3 194.446 268.929 185.076L294.289 159.716Z" fill="url(#paint16_linear_769_34392)"/>
<g opacity="0.6">
<path opacity="0.6" d="M293.287 160.718C302.434 169.864 304.526 182.74 298.102 189.867C298.269 189.7 298.436 189.533 298.603 189.366C305.593 182.376 303.659 169.086 294.289 159.716L293.287 160.718Z" fill="url(#paint17_linear_769_34392)"/>
</g>
<g opacity="0.7">
<path opacity="0.7" d="M270.718 183.286L268.929 185.076C278.3 194.446 291.589 196.38 298.579 189.39C298.889 189.08 299.176 188.794 299.43 188.475C292.23 194.396 279.673 192.241 270.718 183.286Z" fill="url(#paint18_linear_769_34392)"/>
</g>
<path d="M294.424 159.899C292.473 157.948 288.825 159.358 285.077 162.338C282.388 164.515 280.251 167.292 278.587 171.259C277.113 174.652 274.758 176.686 272.904 178.029C268.806 181.04 266.785 182.932 269.088 185.235C272.414 188.561 281.63 187.661 287.777 178.635C290.882 174.059 291.359 170.576 292.602 167.286C293.972 163.741 296.151 161.626 294.424 159.899Z" fill="url(#paint19_linear_769_34392)"/>
<path d="M277.872 160.333C279.058 159.147 278.731 156.897 277.141 155.308C275.551 153.718 273.301 153.391 272.116 154.576C270.93 155.762 271.257 158.012 272.847 159.602C274.437 161.192 276.686 161.519 277.872 160.333Z" fill="white"/>
<path d="M283.521 158.97C284.022 158.469 283.884 157.519 283.212 156.848C282.541 156.177 281.591 156.039 281.091 156.539C280.59 157.04 280.728 157.99 281.399 158.661C282.071 159.332 283.021 159.471 283.521 158.97Z" fill="white"/>
<g opacity="0.6">
<path opacity="0.6" d="M279.442 148.4C279.418 148.424 279.394 148.448 279.394 148.448C279.219 148.559 278.932 148.463 278.732 148.215C277.475 146.529 276.975 144.215 276.959 144.104C276.894 143.848 277.085 143.657 277.308 143.69C277.555 143.698 277.811 143.954 277.844 144.178C277.852 144.233 278.328 146.38 279.417 147.85C279.585 148.066 279.561 148.281 279.442 148.4Z" fill="url(#paint20_linear_769_34392)"/>
</g>
<path opacity="0.2" d="M294.236 186.76C294.604 186.392 294.503 185.692 294.008 185.197C293.513 184.702 292.813 184.601 292.445 184.969C292.076 185.338 292.178 186.038 292.672 186.533C293.167 187.027 293.867 187.129 294.236 186.76Z" fill="white"/>
<g opacity="0.4">
<path opacity="0.6" d="M293.533 186.826C292.919 186.736 292.343 186.161 292.254 185.546C292.238 185.435 292.253 185.355 292.237 185.243C292.174 185.371 292.166 185.506 292.191 185.674C292.28 186.288 292.855 186.864 293.47 186.953C293.972 187.026 294.37 186.756 294.441 186.302C294.33 186.668 293.98 186.891 293.533 186.826Z" fill="url(#paint21_linear_769_34392)"/>
</g>
<path opacity="0.3" d="M293.32 185.373C293.399 185.294 293.378 185.144 293.272 185.038C293.166 184.932 293.016 184.91 292.937 184.989C292.858 185.068 292.879 185.218 292.985 185.324C293.091 185.43 293.241 185.452 293.32 185.373Z" fill="white"/>
<path opacity="0.2" d="M297.271 182.831C297.64 182.462 297.538 181.762 297.044 181.267C296.549 180.772 295.849 180.671 295.48 181.04C295.112 181.408 295.213 182.108 295.708 182.603C296.203 183.098 296.902 183.199 297.271 182.831Z" fill="white"/>
<g opacity="0.4">
<path opacity="0.6" d="M296.569 182.894C295.955 182.804 295.379 182.229 295.29 181.615C295.274 181.503 295.29 181.423 295.273 181.311C295.21 181.439 295.202 181.574 295.227 181.742C295.316 182.356 295.892 182.932 296.506 183.021C297.008 183.094 297.406 182.824 297.477 182.37C297.366 182.736 297.016 182.959 296.569 182.894Z" fill="url(#paint22_linear_769_34392)"/>
</g>
<path opacity="0.3" d="M296.357 181.442C296.436 181.363 296.414 181.213 296.309 181.107C296.203 181.001 296.053 180.979 295.973 181.058C295.894 181.137 295.916 181.287 296.022 181.393C296.128 181.499 296.278 181.521 296.357 181.442Z" fill="white"/>
<path opacity="0.2" d="M297.631 186.628C297.907 186.351 297.831 185.826 297.46 185.455C297.089 185.084 296.564 185.008 296.287 185.284C296.011 185.561 296.087 186.086 296.458 186.457C296.829 186.828 297.354 186.905 297.631 186.628Z" fill="white"/>
<g opacity="0.4">
<path opacity="0.6" d="M297.09 186.659C296.643 186.594 296.195 186.147 296.13 185.7C296.122 185.644 296.138 185.564 296.13 185.509C296.09 185.612 296.106 185.724 296.123 185.835C296.188 186.282 296.635 186.73 297.082 186.795C297.473 186.852 297.744 186.645 297.798 186.271C297.703 186.557 297.425 186.708 297.09 186.659Z" fill="url(#paint23_linear_769_34392)"/>
</g>
<path opacity="0.3" d="M296.902 185.566C296.954 185.514 296.94 185.414 296.869 185.343C296.798 185.272 296.698 185.258 296.646 185.311C296.593 185.363 296.608 185.463 296.678 185.534C296.749 185.605 296.849 185.619 296.902 185.566Z" fill="white"/>
<path opacity="0.2" d="M300.229 183.071C300.505 182.794 300.429 182.269 300.058 181.898C299.687 181.527 299.162 181.451 298.885 181.727C298.609 182.004 298.685 182.529 299.056 182.9C299.427 183.271 299.952 183.347 300.229 183.071Z" fill="white"/>
<g opacity="0.4">
<path opacity="0.6" d="M299.688 183.102C299.241 183.037 298.793 182.589 298.728 182.143C298.72 182.087 298.736 182.007 298.728 181.951C298.688 182.055 298.704 182.167 298.721 182.278C298.786 182.725 299.234 183.173 299.68 183.238C300.071 183.295 300.342 183.088 300.396 182.713C300.302 183 300.023 183.151 299.688 183.102Z" fill="url(#paint24_linear_769_34392)"/>
</g>
<path opacity="0.3" d="M299.501 182.008C299.553 181.956 299.539 181.856 299.468 181.785C299.398 181.714 299.298 181.7 299.245 181.752C299.192 181.805 299.207 181.905 299.277 181.976C299.348 182.046 299.448 182.061 299.501 182.008Z" fill="white"/>
<path opacity="0.2" d="M291.075 189.282C291.681 188.676 291.514 187.526 290.701 186.713C289.889 185.901 288.739 185.733 288.133 186.339C287.526 186.945 287.694 188.095 288.506 188.908C289.319 189.72 290.469 189.888 291.075 189.282Z" fill="white"/>
<g opacity="0.4">
<path opacity="0.6" d="M289.912 189.358C288.907 189.212 287.98 188.284 287.833 187.279C287.809 187.112 287.817 186.976 287.848 186.817C287.769 187.024 287.778 187.271 287.786 187.519C287.932 188.524 288.86 189.451 289.865 189.597C290.703 189.719 291.347 189.266 291.425 188.485C291.243 189.115 290.67 189.496 289.912 189.358Z" fill="url(#paint25_linear_769_34392)"/>
</g>
<path opacity="0.3" d="M289.538 186.981C289.67 186.849 289.633 186.599 289.457 186.422C289.28 186.246 289.03 186.209 288.898 186.341C288.767 186.473 288.803 186.723 288.98 186.9C289.156 187.076 289.406 187.112 289.538 186.981Z" fill="white"/>
<path opacity="0.2" d="M297.267 175.863C297.873 175.257 297.706 174.107 296.893 173.294C296.081 172.482 294.931 172.314 294.325 172.92C293.719 173.527 293.886 174.676 294.699 175.489C295.511 176.301 296.661 176.469 297.267 175.863Z" fill="white"/>
<g opacity="0.4">
<path opacity="0.6" d="M296.078 175.964C295.073 175.817 294.146 174.89 294 173.885C293.975 173.717 293.983 173.582 294.014 173.422C293.935 173.63 293.944 173.877 293.952 174.124C294.099 175.129 295.026 176.057 296.031 176.203C296.869 176.325 297.514 175.872 297.591 175.091C297.409 175.72 296.86 176.077 296.078 175.964Z" fill="url(#paint26_linear_769_34392)"/>
</g>
<path opacity="0.3" d="M295.729 173.562C295.86 173.43 295.824 173.181 295.647 173.004C295.471 172.827 295.221 172.791 295.089 172.923C294.957 173.054 294.994 173.304 295.17 173.481C295.347 173.658 295.597 173.694 295.729 173.562Z" fill="white"/>
</g>
</g>
<defs>
<radialGradient id="paint0_radial_769_34392" cx="0" cy="0" r="1" gradientUnits="userSpaceOnUse" gradientTransform="translate(10.5 341.86) rotate(-36.5712) scale(597.671 778.603)">
<stop stop-color="#F530E4"/>
<stop offset="0.352923" stop-color="#7E1BFD"/>
<stop offset="0.77" stop-color="#4C1E98" stop-opacity="0.446602"/>
<stop offset="1" stop-color="#232047" stop-opacity="0"/>
</radialGradient>
<radialGradient id="paint1_radial_769_34392" cx="0" cy="0" r="1" gradientUnits="userSpaceOnUse" gradientTransform="translate(1133.12 367.572) rotate(-119.21) scale(299.921 902.287)">
<stop offset="0.012061" stop-color="#8A03A0"/>
<stop offset="0.428159" stop-color="#3D25BE" stop-opacity="0.4"/>
<stop offset="1" stop-color="#361FB3" stop-opacity="0"/>
</radialGradient>
<radialGradient id="paint2_radial_769_34392" cx="0" cy="0" r="1" gradientUnits="userSpaceOnUse" gradientTransform="translate(149.135 247.046) rotate(-78.211) scale(258.878 413.258)">
<stop stop-color="#FFD0B6"/>
<stop offset="0.235951" stop-color="#FA7733"/>
<stop offset="0.58259" stop-color="#E9318E" stop-opacity="0.65"/>
<stop offset="1" stop-color="#6A1BD4" stop-opacity="0"/>
</radialGradient>
<linearGradient id="paint3_linear_769_34392" x1="353.959" y1="280.759" x2="207.354" y2="94.3656" gradientUnits="userSpaceOnUse">
<stop stop-color="#310057"/>
<stop offset="0.567637" stop-color="#FF2EDE"/>
<stop offset="1" stop-color="#FF8642"/>
</linearGradient>
<radialGradient id="paint4_radial_769_34392" cx="0" cy="0" r="1" gradientUnits="userSpaceOnUse" gradientTransform="translate(323.714 103.173) rotate(126.466) scale(172.233 211.734)">
<stop stop-color="#FFD4BC"/>
<stop offset="0.32" stop-color="#FB902D"/>
<stop offset="0.71" stop-color="#E134C6"/>
<stop offset="1" stop-color="#B434E1"/>
</radialGradient>
<linearGradient id="paint5_linear_769_34392" x1="338.632" y1="112.668" x2="216.605" y2="233.341" gradientUnits="userSpaceOnUse">
<stop stop-color="#FFDCBD"/>
<stop offset="0.445474" stop-color="#FF43BB"/>
<stop offset="1" stop-color="#F9B4FF"/>
</linearGradient>
<linearGradient id="paint6_linear_769_34392" x1="229.483" y1="138.481" x2="226.244" y2="125.877" gradientUnits="userSpaceOnUse">
<stop stop-color="white"/>
<stop offset="1" stop-color="#EB578E" stop-opacity="0"/>
</linearGradient>
<linearGradient id="paint7_linear_769_34392" x1="311.73" y1="198.185" x2="287.116" y2="216.06" gradientUnits="userSpaceOnUse">
<stop stop-color="#FFD8F6"/>
<stop offset="1" stop-color="white" stop-opacity="0"/>
</linearGradient>
<linearGradient id="paint8_linear_769_34392" x1="207.239" y1="101.089" x2="174.18" y2="163.192" gradientUnits="userSpaceOnUse">
<stop stop-color="white"/>
<stop offset="1" stop-color="white" stop-opacity="0"/>
</linearGradient>
<linearGradient id="paint9_linear_769_34392" x1="285.232" y1="104.108" x2="316.337" y2="144.555" gradientUnits="userSpaceOnUse">
<stop stop-color="#FFD8F6"/>
<stop offset="1" stop-color="white" stop-opacity="0"/>
</linearGradient>
<linearGradient id="paint10_linear_769_34392" x1="334.433" y1="194.365" x2="330.787" y2="208.53" gradientUnits="userSpaceOnUse">
<stop stop-color="#FFD8F6"/>
<stop offset="1" stop-color="white" stop-opacity="0"/>
</linearGradient>
<linearGradient id="paint11_linear_769_34392" x1="332.456" y1="168.783" x2="294.336" y2="175.101" gradientUnits="userSpaceOnUse">
<stop stop-color="#FFD8F6"/>
<stop offset="1" stop-color="white" stop-opacity="0"/>
</linearGradient>
<radialGradient id="paint12_radial_769_34392" cx="0" cy="0" r="1" gradientUnits="userSpaceOnUse" gradientTransform="translate(276.278 150.845) rotate(-60.548) scale(25.4344 34.0966)">
<stop stop-color="#FFEAFF" stop-opacity="0.6"/>
<stop offset="0.6807" stop-color="#A087C9" stop-opacity="0.19"/>
<stop offset="1" stop-color="#AB80FF" stop-opacity="0.06"/>
</radialGradient>
<radialGradient id="paint13_radial_769_34392" cx="0" cy="0" r="1" gradientUnits="userSpaceOnUse" gradientTransform="translate(278.285 151.388) rotate(-45) scale(36.8935 49.4582)">
<stop stop-color="#FFEAFF" stop-opacity="0.6"/>
<stop offset="0.6807" stop-color="#A087C9" stop-opacity="0.21"/>
<stop offset="1" stop-color="#F1EAFF" stop-opacity="0"/>
</radialGradient>
<linearGradient id="paint14_linear_769_34392" x1="297.265" y1="192.306" x2="270.205" y2="150.222" gradientUnits="userSpaceOnUse">
<stop stop-color="#81FFFF"/>
<stop offset="0.6202" stop-color="white" stop-opacity="0"/>
</linearGradient>
<linearGradient id="paint15_linear_769_34392" x1="279.038" y1="151.003" x2="271.522" y2="168.178" gradientUnits="userSpaceOnUse">
<stop offset="0.2888" stop-color="white"/>
<stop offset="0.7796" stop-color="white" stop-opacity="0"/>
</linearGradient>
<linearGradient id="paint16_linear_769_34392" x1="277.421" y1="193.546" x2="302.764" y2="168.203" gradientUnits="userSpaceOnUse">
<stop stop-color="#0002E9"/>
<stop offset="0.9952" stop-color="#FF00C7"/>
</linearGradient>
<linearGradient id="paint17_linear_769_34392" x1="296.973" y1="160.012" x2="291.826" y2="189.754" gradientUnits="userSpaceOnUse">
<stop offset="0.2888" stop-color="white"/>
<stop offset="0.7796" stop-color="white" stop-opacity="0"/>
</linearGradient>
<linearGradient id="paint18_linear_769_34392" x1="277.421" y1="193.546" x2="290.979" y2="179.988" gradientUnits="userSpaceOnUse">
<stop stop-color="#000292"/>
<stop offset="0.9952" stop-color="#7D00C7"/>
</linearGradient>
<linearGradient id="paint19_linear_769_34392" x1="277.572" y1="190.104" x2="288.789" y2="165.082" gradientUnits="userSpaceOnUse">
<stop stop-color="#070993"/>
<stop offset="1" stop-color="#BE00C7"/>
</linearGradient>
<linearGradient id="paint20_linear_769_34392" x1="277.223" y1="143.527" x2="277.792" y2="149.46" gradientUnits="userSpaceOnUse">
<stop offset="0.2888" stop-color="white"/>
<stop offset="0.7796" stop-color="white" stop-opacity="0"/>
</linearGradient>
<linearGradient id="paint21_linear_769_34392" x1="292.692" y1="186.57" x2="293.701" y2="185.561" gradientUnits="userSpaceOnUse">
<stop offset="0.2888" stop-color="white"/>
<stop offset="0.7796" stop-color="white" stop-opacity="0"/>
</linearGradient>
<linearGradient id="paint22_linear_769_34392" x1="295.72" y1="182.635" x2="296.729" y2="181.625" gradientUnits="userSpaceOnUse">
<stop offset="0.2888" stop-color="white"/>
<stop offset="0.7796" stop-color="white" stop-opacity="0"/>
</linearGradient>
<linearGradient id="paint23_linear_769_34392" x1="296.464" y1="186.469" x2="297.222" y2="185.711" gradientUnits="userSpaceOnUse">
<stop offset="0.2888" stop-color="white"/>
<stop offset="0.7796" stop-color="white" stop-opacity="0"/>
</linearGradient>
<linearGradient id="paint24_linear_769_34392" x1="299.05" y1="182.921" x2="299.808" y2="182.163" gradientUnits="userSpaceOnUse">
<stop offset="0.2888" stop-color="white"/>
<stop offset="0.7796" stop-color="white" stop-opacity="0"/>
</linearGradient>
<linearGradient id="paint25_linear_769_34392" x1="288.546" y1="188.944" x2="290.194" y2="187.296" gradientUnits="userSpaceOnUse">
<stop offset="0.2888" stop-color="white"/>
<stop offset="0.7796" stop-color="white" stop-opacity="0"/>
</linearGradient>
<linearGradient id="paint26_linear_769_34392" x1="294.72" y1="175.54" x2="296.369" y2="173.891" gradientUnits="userSpaceOnUse">
<stop offset="0.2888" stop-color="white"/>
<stop offset="0.7796" stop-color="white" stop-opacity="0"/>
</linearGradient>
<clipPath id="clip0_769_34392">
<rect width="804" height="344" fill="white" transform="translate(0 3)"/>
</clipPath>
<clipPath id="clip1_769_34392">
<rect width="47.6755" height="62.6324" fill="white" transform="translate(241 164.712) rotate(-45)"/>
</clipPath>
</defs>
</svg>
