<svg width="296" height="296" viewBox="0 0 296 296" fill="none" xmlns="http://www.w3.org/2000/svg">
<path fill-rule="evenodd" clip-rule="evenodd" d="M235.535 217.08C268.051 184.201 259.513 122.26 216.466 78.73C173.419 35.2 112.163 26.5652 79.6471 59.4436C79.5304 59.5616 79.4142 59.68 79.2986 59.7988L79.2969 59.7971L61.4405 77.8527L61.4426 77.8549C28.6749 111.616 36.711 173.822 79.5656 217.157C122.42 260.492 183.938 268.62 217.326 235.487L217.328 235.489L217.722 235.091L217.775 235.038L217.827 234.984L235.185 217.433L235.184 217.432C235.301 217.315 235.418 217.198 235.535 217.08Z" fill="url(#paint0_linear_1632_16736)"/>
<path d="M230.632 214.203C246.638 198.018 252.545 174.91 249.392 150.84C246.24 126.772 234.032 101.606 213.61 80.9553C193.189 60.305 168.302 47.9593 144.5 44.7711C120.696 41.5825 97.8438 47.5545 81.8374 63.7395C65.8309 79.9245 59.9243 103.032 63.0769 127.103C66.2291 151.17 78.4376 176.337 98.8589 196.987C119.28 217.637 144.168 229.983 167.969 233.171C191.773 236.36 214.625 230.388 230.632 214.203Z" fill="url(#paint1_radial_1632_16736)" stroke="url(#paint2_linear_1632_16736)" stroke-width="4.61964"/>
<g style="mix-blend-mode:soft-light">
<path d="M138.929 54.1975L182.927 98.3197C184.596 99.9932 186.75 101.084 189.075 101.432L197.439 102.685C200.892 103.202 204.383 102.035 206.851 99.5399L212.377 93.952" stroke="white" stroke-opacity="0.77" stroke-width="1.38589"/>
<path d="M206.195 87.323C224.188 105.517 235.045 127.441 238.08 148.157C241.114 168.873 236.323 188.33 223.094 201.708C209.864 215.085 190.621 219.928 170.135 216.86C149.648 213.791 127.967 202.811 109.975 184.617C91.9826 166.423 81.1248 144.499 78.0905 123.783C75.0563 103.067 79.8467 83.6098 93.0765 70.2324C106.306 56.855 125.549 52.0116 146.035 55.0803C166.522 58.1491 188.203 69.1291 206.195 87.323Z" stroke="white" stroke-opacity="0.77" stroke-width="1.38589"/>
<path d="M138.63 156.564L127.704 167.611C125.236 170.107 124.082 173.637 124.594 177.128L124.963 179.649C125.474 183.14 124.321 186.67 121.853 189.166L118.689 192.365" stroke="white" stroke-opacity="0.77" stroke-width="1.38589"/>
<path d="M103.798 177.988L121.861 159.724C124.373 157.183 124.373 153.065 121.861 150.525V150.525C119.349 147.985 115.276 147.985 112.764 150.525L95.7136 167.766" stroke="white" stroke-opacity="0.77" stroke-width="1.38589"/>
<path d="M89.3346 73.9529L106.316 91.1248C107.989 92.8166 109.08 95.0078 109.426 97.3745L112.114 115.723C112.46 118.09 113.551 120.282 115.224 121.973C118.665 125.453 121.66 128.481 125.383 132.246" stroke="white" stroke-opacity="0.77" stroke-width="1.38589"/>
<path d="M219.414 205.494L202.433 188.322C200.76 186.63 198.593 185.527 196.252 185.177L178.107 182.459C175.766 182.108 173.599 181.005 171.926 179.314L161.767 169.041" stroke="white" stroke-opacity="0.77" stroke-width="1.38589"/>
<path d="M96.4207 66.7871L113.402 83.959C115.075 85.6508 117.242 86.7535 119.583 87.1041L137.728 89.8223C140.069 90.1729 142.236 91.2756 143.909 92.9674L153.158 102.32" stroke="white" stroke-opacity="0.77" stroke-width="1.38589"/>
<path d="M226.502 198.328L209.52 181.156C207.847 179.464 206.757 177.273 206.41 174.906L203.722 156.557C203.376 154.191 202.285 151.999 200.612 150.308L191.363 140.954" stroke="white" stroke-opacity="0.77" stroke-width="1.38589"/>
<path d="M126.881 54.5932L200.052 128.585L203.005 131.571L205.957 134.556L218.35 147.088C220.023 148.78 221.114 150.971 221.46 153.338L222.51 160.506C222.854 162.851 223.927 165.023 225.574 166.709L236.579 177.97" stroke="white" stroke-opacity="0.77" stroke-width="1.38589"/>
<path d="M224.334 109.456L202.735 131.296" stroke="white" stroke-opacity="0.77" stroke-width="1.38589"/>
<path d="M83.4894 145.17L95.0904 133.439C97.5584 130.944 98.7121 127.414 98.2008 123.922L97.5525 119.497C97.2058 117.13 96.1154 114.939 94.4424 113.247L78.3706 96.9948" stroke="white" stroke-opacity="0.77" stroke-width="1.38589"/>
<path d="M129.59 200.658L140.516 189.61C142.984 187.115 146.475 185.948 149.928 186.465L165.397 188.783C167.738 189.133 169.905 190.236 171.578 191.928L195.836 216.459" stroke="white" stroke-opacity="0.77" stroke-width="1.38589"/>
<path d="M177.848 115.988C185.29 123.513 189.77 132.571 191.02 141.108C192.27 149.645 190.291 157.612 184.889 163.073C179.488 168.535 171.609 170.537 163.166 169.272C154.724 168.008 145.767 163.478 138.325 155.952C130.883 148.427 126.403 139.37 125.153 130.833C123.903 122.296 125.882 114.329 131.284 108.867C136.685 103.405 144.564 101.404 153.007 102.668C161.449 103.933 170.406 108.463 177.848 115.988Z" stroke="white" stroke-opacity="0.77" stroke-width="1.38589"/>
</g>
<path d="M108.893 93.7302L110.771 106.549" stroke="url(#paint3_linear_1632_16736)" stroke-width="1.84785" stroke-linecap="round"/>
<path d="M185.377 163.566C174.194 174.874 152.91 171.686 137.838 156.445" stroke="url(#paint4_linear_1632_16736)" stroke-width="1.84785" stroke-linecap="round"/>
<path d="M109.489 185.11C73.3169 148.532 65.7513 96.8793 92.591 69.7402" stroke="url(#paint5_linear_1632_16736)" stroke-width="1.84785" stroke-linecap="round"/>
<path d="M212.378 93.9522L206.852 99.5401C204.384 102.036 200.893 103.202 197.44 102.685L189.076 101.432C186.751 101.084 184.597 99.9934 182.929 98.3199L162.214 77.5469" stroke="url(#paint6_linear_1632_16736)" stroke-width="1.84785" stroke-linecap="round"/>
<path d="M226.502 198.328L209.521 181.156C207.848 179.464 206.757 177.273 206.41 174.906L203.723 156.558C203.376 154.191 202.286 152 200.613 150.308L199.309 148.99" stroke="url(#paint7_linear_1632_16736)" stroke-width="1.84785" stroke-linecap="round"/>
<path d="M126.883 54.5933L200.054 128.585L203.007 131.571L205.959 134.556" stroke="url(#paint8_linear_1632_16736)" stroke-width="1.84785" stroke-linecap="round"/>
<g clip-path="url(#clip0_1632_16736)">
<path fill-rule="evenodd" clip-rule="evenodd" d="M150.762 106.076C154.29 106.034 156.848 106.608 158.723 107.866C159.808 108.554 160.695 109.794 161.052 111.032C161.409 112.271 161.147 113.42 160.332 114.235C160.023 114.544 159.655 114.793 159.228 114.984C160.072 116.445 160.975 117.788 161.884 118.829L162.216 119.206C156.936 117.099 151.564 116.797 147.163 118.48C147.222 118.362 147.617 117.435 147.84 115.321C147.441 115.188 147.036 115.002 146.711 114.854C145.701 114.328 144.518 112.97 143.947 111.649C143.458 110.543 143.411 109.526 143.814 108.827C143.976 108.548 144.167 108.298 144.409 108.055C145.621 106.843 147.94 106.12 150.762 106.076ZM158.343 108.719C159.996 109.844 161.249 112.728 158.504 113.995C158.239 114.082 158.004 114.2 157.82 114.324C158.242 115.143 158.731 116.073 159.374 117.025C155.688 115.984 152.033 115.856 148.794 116.672C148.81 116.529 148.827 116.381 148.845 116.226C148.904 115.737 148.968 115.191 148.995 114.58C148.132 114.379 147.417 114.149 146.982 113.934C145.89 113.371 144.041 110.906 144.804 109.552C145.566 108.198 147.87 107.195 151.096 107.16C154.323 107.125 156.667 107.617 158.343 108.719Z" fill="#5E12A0"/>
<path d="M158.504 113.994C161.249 112.727 159.996 109.844 158.342 108.719C156.667 107.617 154.323 107.124 151.096 107.16C147.869 107.195 145.566 108.198 144.804 109.552C144.041 110.905 145.89 113.371 146.982 113.934C147.417 114.149 148.132 114.379 148.994 114.58C148.96 115.383 148.859 116.075 148.794 116.672C152.033 115.856 155.688 115.983 159.374 117.025C158.731 116.073 158.242 115.143 157.82 114.324C158.004 114.2 158.239 114.082 158.504 113.994Z" fill="url(#paint9_radial_1632_16736)"/>
<path d="M175.977 154.436C182.782 147.631 180.904 134.719 171.781 125.597C162.659 116.474 149.747 114.596 142.942 121.401C136.137 128.205 138.016 141.117 147.138 150.24C156.261 159.362 169.173 161.241 175.977 154.436Z" fill="url(#paint10_radial_1632_16736)"/>
<path opacity="0.6" d="M155.969 108.374C151.93 107.685 149.899 108.475 147.699 109.67C145.963 110.579 145.311 109.221 147.127 107.819C146.001 108.236 145.185 108.875 144.804 109.552C144.041 110.905 145.89 113.371 146.982 113.933C147.417 114.148 148.132 114.379 148.995 114.58C148.931 115.707 148.808 116.598 148.685 117.312C149.002 117.232 149.392 117.137 149.885 117.058C151.167 116.84 152.869 116.911 152.869 116.911C150.216 116.727 149.83 115.813 149.932 112.52C149.959 111.488 150.988 110.578 152.512 110.294C154.036 110.011 156.66 110.519 156.66 110.519L158.247 114.133C158.342 114.097 158.438 114.06 158.534 114.024C159.409 113.621 159.857 113.055 160.047 112.451C160.126 111.604 160.038 109.092 155.969 108.374Z" fill="white" fill-opacity="0.7"/>
<path d="M149.096 111.111C149.773 110.907 150.76 110.747 152.085 110.663C153.662 110.564 155.217 110.664 156.329 110.851C156.917 112.981 158.272 115.35 159.263 116.959C159.713 117.1 160.185 117.219 160.635 117.36C160.05 116.467 159.222 115.109 158.481 113.664C158.599 113.605 158.709 113.495 158.819 113.385C159.084 113.12 159.333 112.752 159.31 112.244C159.309 111.89 159.182 111.367 158.569 110.798C158.007 110.237 156.968 109.858 155.428 109.684C154.322 109.549 152.981 109.53 151.699 109.571C148.119 109.782 146.324 110.632 146.527 112.025C146.662 112.954 147.356 113.56 147.961 113.9C147.876 115.226 147.724 116.265 147.623 116.957C148.006 116.81 148.396 116.716 148.808 116.599C149.011 115.391 149.168 113.52 149.096 111.111ZM157.487 111.171C157.701 111.252 157.871 111.378 157.959 111.467C158.225 111.733 158.248 111.887 158.263 111.991C158.263 112.167 158.146 112.403 157.992 112.557C157.769 112.07 157.628 111.62 157.487 111.171ZM147.64 112.212C147.617 112.058 147.735 111.822 148.08 111.595C148.096 112.051 148.083 112.479 148.069 112.906C147.84 112.721 147.655 112.492 147.64 112.212Z" fill="#5E12A0"/>
<path d="M141.967 120.426C134.76 127.634 136.749 141.305 146.411 150.968C156.074 160.63 169.745 162.619 176.953 155.412C184.161 148.204 182.171 134.533 172.509 124.87C162.847 115.208 149.153 113.24 141.967 120.426ZM175.978 154.437C169.167 161.248 156.269 159.371 147.139 150.24C138.008 141.11 136.131 128.212 142.942 121.401C149.753 114.59 162.651 116.467 171.782 125.597C180.912 134.728 182.767 147.648 175.978 154.437Z" fill="#5E12A0"/>
<path opacity="0.6" d="M175.977 154.436C182.782 147.631 180.904 134.719 171.781 125.597C162.659 116.474 149.747 114.596 142.942 121.401C136.137 128.205 138.016 141.117 147.138 150.24C156.261 159.362 169.173 161.241 175.977 154.436Z" fill="url(#paint11_linear_1632_16736)"/>
<path opacity="0.25" d="M173.88 152.515C165.71 157.79 152.666 153.873 144.756 143.758C141.252 139.284 139.353 134.387 139.016 129.818C138.324 135.298 140.198 141.757 144.663 147.456C152.595 157.549 165.639 161.466 173.787 156.214C178.362 153.294 180.41 148.113 180.004 142.373C179.478 146.563 177.41 150.226 173.88 152.515Z" fill="white" fill-opacity="0.7"/>
<path opacity="0.6" d="M145.141 119.675C141.353 122.103 139.279 126.069 138.908 130.635C138.923 130.739 138.938 130.842 138.938 130.842C139.118 129.126 139.827 127.057 139.827 127.057C139.034 133.406 141.093 137.669 141.093 137.669C138.877 132.676 140.414 126.057 143.432 122.684C146.451 119.31 149.816 118.487 155.121 118.678C160.455 118.899 167.671 123.029 172.008 127.675C176.368 132.299 178.239 137.696 178.239 137.696C177.353 134.386 176.544 132.122 175.441 130.093C175.056 129.532 174.672 128.971 174.213 128.425C166.333 118.34 153.311 114.4 145.141 119.675Z" fill="url(#paint12_linear_1632_16736)"/>
<path d="M171.016 126.067C179.674 134.725 181.461 147.003 175.003 153.461C168.544 159.92 156.244 158.155 147.586 149.497L171.016 126.067Z" fill="url(#paint13_linear_1632_16736)"/>
<g opacity="0.6">
<path opacity="0.6" d="M170.091 126.992C178.542 135.443 180.475 147.339 174.54 153.924C174.695 153.77 174.849 153.615 175.003 153.461C181.461 147.003 179.675 134.724 171.017 126.066L170.091 126.992Z" fill="url(#paint14_linear_1632_16736)"/>
</g>
<g opacity="0.7">
<path opacity="0.7" d="M149.239 147.844L147.586 149.497C156.244 158.155 168.522 159.942 174.981 153.483C175.267 153.197 175.532 152.932 175.767 152.638C169.114 158.109 157.513 156.118 149.239 147.844Z" fill="url(#paint15_linear_1632_16736)"/>
</g>
<path d="M171.142 126.236C169.339 124.434 165.969 125.736 162.506 128.489C160.021 130.501 158.047 133.067 156.509 136.732C155.148 139.866 152.972 141.746 151.259 142.987C147.472 145.769 145.606 147.517 147.733 149.645C150.806 152.718 159.32 151.886 165 143.547C167.869 139.319 168.31 136.1 169.458 133.061C170.724 129.786 172.737 127.832 171.142 126.236Z" fill="url(#paint16_linear_1632_16736)"/>
<path d="M155.849 126.637C156.945 125.541 156.642 123.463 155.174 121.994C153.705 120.525 151.626 120.223 150.53 121.318C149.435 122.414 149.737 124.493 151.206 125.961C152.675 127.43 154.754 127.733 155.849 126.637Z" fill="white"/>
<path d="M161.068 125.377C161.531 124.915 161.403 124.037 160.783 123.417C160.163 122.797 159.285 122.669 158.823 123.132C158.36 123.594 158.488 124.472 159.108 125.092C159.728 125.712 160.606 125.84 161.068 125.377Z" fill="white"/>
<g opacity="0.6">
<path opacity="0.6" d="M157.3 115.612C157.278 115.634 157.256 115.656 157.256 115.656C157.094 115.759 156.828 115.669 156.644 115.441C155.483 113.883 155.02 111.745 155.005 111.642C154.946 111.406 155.122 111.23 155.328 111.26C155.557 111.268 155.793 111.504 155.823 111.711C155.831 111.762 156.271 113.745 157.276 115.103C157.431 115.303 157.41 115.501 157.3 115.612Z" fill="url(#paint17_linear_1632_16736)"/>
</g>
<path opacity="0.2" d="M170.968 151.054C171.308 150.713 171.214 150.066 170.758 149.609C170.301 149.152 169.654 149.058 169.313 149.399C168.972 149.74 169.066 150.387 169.523 150.844C169.98 151.301 170.627 151.395 170.968 151.054Z" fill="white"/>
<g opacity="0.4">
<path opacity="0.6" d="M170.319 151.114C169.751 151.031 169.219 150.5 169.137 149.932C169.122 149.829 169.136 149.755 169.121 149.652C169.063 149.77 169.056 149.895 169.078 150.05C169.161 150.617 169.693 151.149 170.26 151.232C170.724 151.299 171.092 151.05 171.157 150.63C171.055 150.969 170.731 151.174 170.319 151.114Z" fill="url(#paint18_linear_1632_16736)"/>
</g>
<path opacity="0.3" d="M170.122 149.772C170.195 149.699 170.175 149.56 170.077 149.462C169.979 149.364 169.84 149.344 169.767 149.417C169.694 149.49 169.714 149.629 169.812 149.727C169.91 149.825 170.049 149.845 170.122 149.772Z" fill="white"/>
<path opacity="0.2" d="M173.772 147.423C174.113 147.082 174.019 146.435 173.562 145.979C173.105 145.522 172.458 145.428 172.118 145.768C171.777 146.109 171.871 146.756 172.328 147.213C172.785 147.67 173.431 147.764 173.772 147.423Z" fill="white"/>
<g opacity="0.4">
<path opacity="0.6" d="M173.124 147.481C172.556 147.399 172.024 146.867 171.942 146.299C171.927 146.196 171.941 146.123 171.926 146.019C171.868 146.137 171.861 146.262 171.883 146.417C171.966 146.985 172.498 147.516 173.065 147.599C173.53 147.667 173.897 147.417 173.962 146.997C173.86 147.336 173.537 147.541 173.124 147.481Z" fill="url(#paint19_linear_1632_16736)"/>
</g>
<path opacity="0.3" d="M172.928 146.14C173.001 146.067 172.981 145.928 172.883 145.83C172.785 145.732 172.646 145.712 172.573 145.785C172.5 145.858 172.52 145.997 172.618 146.095C172.716 146.192 172.855 146.213 172.928 146.14Z" fill="white"/>
<path opacity="0.2" d="M174.104 150.931C174.36 150.676 174.289 150.191 173.947 149.848C173.604 149.505 173.119 149.435 172.863 149.69C172.608 149.946 172.678 150.431 173.021 150.774C173.364 151.117 173.849 151.187 174.104 150.931Z" fill="white"/>
<g opacity="0.4">
<path opacity="0.6" d="M173.605 150.961C173.192 150.901 172.778 150.487 172.718 150.074C172.711 150.023 172.725 149.949 172.718 149.897C172.681 149.993 172.696 150.096 172.711 150.199C172.771 150.612 173.185 151.026 173.598 151.086C173.959 151.138 174.209 150.948 174.259 150.601C174.172 150.866 173.914 151.006 173.605 150.961Z" fill="url(#paint20_linear_1632_16736)"/>
</g>
<path opacity="0.3" d="M173.431 149.951C173.48 149.902 173.466 149.81 173.401 149.745C173.336 149.679 173.243 149.666 173.195 149.715C173.146 149.763 173.159 149.856 173.225 149.921C173.29 149.986 173.382 150 173.431 149.951Z" fill="white"/>
<path opacity="0.2" d="M176.505 147.645C176.76 147.389 176.69 146.904 176.347 146.561C176.004 146.219 175.519 146.148 175.264 146.404C175.008 146.659 175.079 147.144 175.421 147.487C175.764 147.83 176.249 147.9 176.505 147.645Z" fill="white"/>
<g opacity="0.4">
<path opacity="0.6" d="M176.005 147.674C175.592 147.614 175.179 147.2 175.119 146.787C175.111 146.736 175.126 146.662 175.118 146.611C175.082 146.706 175.096 146.81 175.112 146.913C175.172 147.325 175.585 147.739 175.998 147.799C176.359 147.852 176.609 147.661 176.66 147.315C176.572 147.58 176.315 147.719 176.005 147.674Z" fill="url(#paint21_linear_1632_16736)"/>
</g>
<path opacity="0.3" d="M175.832 146.663C175.881 146.615 175.868 146.522 175.802 146.457C175.737 146.392 175.645 146.378 175.596 146.427C175.547 146.475 175.561 146.568 175.626 146.633C175.691 146.698 175.784 146.712 175.832 146.663Z" fill="white"/>
<path opacity="0.2" d="M168.047 153.383C168.607 152.823 168.453 151.761 167.702 151.01C166.951 150.259 165.889 150.105 165.329 150.665C164.769 151.225 164.923 152.287 165.674 153.038C166.425 153.789 167.487 153.943 168.047 153.383Z" fill="white"/>
<g opacity="0.4">
<path opacity="0.6" d="M166.973 153.454C166.045 153.319 165.188 152.462 165.053 151.533C165.03 151.379 165.037 151.253 165.066 151.106C164.993 151.297 165.001 151.526 165.009 151.754C165.144 152.683 166.001 153.54 166.93 153.675C167.704 153.788 168.299 153.369 168.371 152.647C168.203 153.229 167.674 153.581 166.973 153.454Z" fill="url(#paint22_linear_1632_16736)"/>
</g>
<path opacity="0.3" d="M166.627 151.258C166.749 151.136 166.716 150.905 166.553 150.742C166.389 150.578 166.158 150.545 166.037 150.667C165.915 150.788 165.948 151.019 166.112 151.182C166.275 151.346 166.506 151.379 166.627 151.258Z" fill="white"/>
<path opacity="0.2" d="M173.769 140.985C174.328 140.425 174.174 139.363 173.423 138.612C172.673 137.861 171.61 137.707 171.05 138.267C170.49 138.827 170.645 139.889 171.395 140.64C172.146 141.391 173.209 141.545 173.769 140.985Z" fill="white"/>
<g opacity="0.4">
<path opacity="0.6" d="M172.67 141.079C171.742 140.943 170.885 140.087 170.75 139.158C170.727 139.003 170.734 138.878 170.763 138.731C170.69 138.922 170.698 139.15 170.706 139.379C170.841 140.307 171.698 141.164 172.627 141.3C173.401 141.412 173.996 140.994 174.068 140.272C173.9 140.853 173.393 141.184 172.67 141.079Z" fill="url(#paint23_linear_1632_16736)"/>
</g>
<path opacity="0.3" d="M172.347 138.86C172.469 138.738 172.435 138.507 172.272 138.344C172.109 138.18 171.878 138.147 171.756 138.269C171.634 138.39 171.668 138.621 171.831 138.785C171.994 138.948 172.225 138.981 172.347 138.86Z" fill="white"/>
</g>
<defs>
<linearGradient id="paint0_linear_1632_16736" x1="226.148" y1="237.902" x2="90.6953" y2="65.6877" gradientUnits="userSpaceOnUse">
<stop stop-color="#310057"/>
<stop offset="0.567637" stop-color="#FF2EDE"/>
<stop offset="1" stop-color="#FF8642"/>
</linearGradient>
<radialGradient id="paint1_radial_1632_16736" cx="0" cy="0" r="1" gradientUnits="userSpaceOnUse" gradientTransform="translate(198.203 73.8251) rotate(126.466) scale(159.131 195.627)">
<stop stop-color="#FFD4BC"/>
<stop offset="0.32" stop-color="#FB902D"/>
<stop offset="0.71" stop-color="#E134C6"/>
<stop offset="1" stop-color="#B434E1"/>
</radialGradient>
<linearGradient id="paint2_linear_1632_16736" x1="211.986" y1="82.5977" x2="99.2429" y2="194.091" gradientUnits="userSpaceOnUse">
<stop stop-color="#FFDCBD"/>
<stop offset="0.445474" stop-color="#FF43BB"/>
<stop offset="1" stop-color="#F9B4FF"/>
</linearGradient>
<linearGradient id="paint3_linear_1632_16736" x1="111.141" y1="106.448" x2="108.148" y2="94.8022" gradientUnits="userSpaceOnUse">
<stop stop-color="white"/>
<stop offset="1" stop-color="#EB578E" stop-opacity="0"/>
</linearGradient>
<linearGradient id="paint4_linear_1632_16736" x1="187.131" y1="161.61" x2="164.39" y2="178.125" gradientUnits="userSpaceOnUse">
<stop stop-color="#FFD8F6"/>
<stop offset="1" stop-color="white" stop-opacity="0"/>
</linearGradient>
<linearGradient id="paint5_linear_1632_16736" x1="90.5896" y1="71.9" x2="60.0453" y2="129.279" gradientUnits="userSpaceOnUse">
<stop stop-color="white"/>
<stop offset="1" stop-color="white" stop-opacity="0"/>
</linearGradient>
<linearGradient id="paint6_linear_1632_16736" x1="162.649" y1="74.6889" x2="191.388" y2="112.059" gradientUnits="userSpaceOnUse">
<stop stop-color="#FFD8F6"/>
<stop offset="1" stop-color="white" stop-opacity="0"/>
</linearGradient>
<linearGradient id="paint7_linear_1632_16736" x1="208.107" y1="158.08" x2="204.738" y2="171.167" gradientUnits="userSpaceOnUse">
<stop stop-color="#FFD8F6"/>
<stop offset="1" stop-color="white" stop-opacity="0"/>
</linearGradient>
<linearGradient id="paint8_linear_1632_16736" x1="206.281" y1="134.444" x2="171.061" y2="140.282" gradientUnits="userSpaceOnUse">
<stop stop-color="#FFD8F6"/>
<stop offset="1" stop-color="white" stop-opacity="0"/>
</linearGradient>
<radialGradient id="paint9_radial_1632_16736" cx="0" cy="0" r="1" gradientUnits="userSpaceOnUse" gradientTransform="translate(154.376 117.871) rotate(-60.548) scale(23.4996 31.5028)">
<stop stop-color="#FFEAFF" stop-opacity="0.6"/>
<stop offset="0.6807" stop-color="#A087C9" stop-opacity="0.19"/>
<stop offset="1" stop-color="#AB80FF" stop-opacity="0.06"/>
</radialGradient>
<radialGradient id="paint10_radial_1632_16736" cx="0" cy="0" r="1" gradientUnits="userSpaceOnUse" gradientTransform="translate(156.23 118.373) rotate(-45) scale(34.0869 45.6958)">
<stop stop-color="#FFEAFF" stop-opacity="0.6"/>
<stop offset="0.6807" stop-color="#A087C9" stop-opacity="0.21"/>
<stop offset="1" stop-color="#F1EAFF" stop-opacity="0"/>
</radialGradient>
<linearGradient id="paint11_linear_1632_16736" x1="173.767" y1="156.178" x2="148.765" y2="117.295" gradientUnits="userSpaceOnUse">
<stop stop-color="#81FFFF"/>
<stop offset="0.6202" stop-color="white" stop-opacity="0"/>
</linearGradient>
<linearGradient id="paint12_linear_1632_16736" x1="156.926" y1="118.017" x2="149.982" y2="133.885" gradientUnits="userSpaceOnUse">
<stop offset="0.2888" stop-color="white"/>
<stop offset="0.7796" stop-color="white" stop-opacity="0"/>
</linearGradient>
<linearGradient id="paint13_linear_1632_16736" x1="155.432" y1="157.323" x2="178.847" y2="133.908" gradientUnits="userSpaceOnUse">
<stop stop-color="#0002E9"/>
<stop offset="0.9952" stop-color="#FF00C7"/>
</linearGradient>
<linearGradient id="paint14_linear_1632_16736" x1="173.497" y1="126.341" x2="168.741" y2="153.82" gradientUnits="userSpaceOnUse">
<stop offset="0.2888" stop-color="white"/>
<stop offset="0.7796" stop-color="white" stop-opacity="0"/>
</linearGradient>
<linearGradient id="paint15_linear_1632_16736" x1="155.432" y1="157.323" x2="167.959" y2="144.797" gradientUnits="userSpaceOnUse">
<stop stop-color="#000292"/>
<stop offset="0.9952" stop-color="#7D00C7"/>
</linearGradient>
<linearGradient id="paint16_linear_1632_16736" x1="155.571" y1="154.144" x2="165.935" y2="131.025" gradientUnits="userSpaceOnUse">
<stop stop-color="#070993"/>
<stop offset="1" stop-color="#BE00C7"/>
</linearGradient>
<linearGradient id="paint17_linear_1632_16736" x1="155.25" y1="111.11" x2="155.775" y2="116.591" gradientUnits="userSpaceOnUse">
<stop offset="0.2888" stop-color="white"/>
<stop offset="0.7796" stop-color="white" stop-opacity="0"/>
</linearGradient>
<linearGradient id="paint18_linear_1632_16736" x1="169.542" y1="150.878" x2="170.474" y2="149.946" gradientUnits="userSpaceOnUse">
<stop offset="0.2888" stop-color="white"/>
<stop offset="0.7796" stop-color="white" stop-opacity="0"/>
</linearGradient>
<linearGradient id="paint19_linear_1632_16736" x1="172.339" y1="147.242" x2="173.271" y2="146.309" gradientUnits="userSpaceOnUse">
<stop offset="0.2888" stop-color="white"/>
<stop offset="0.7796" stop-color="white" stop-opacity="0"/>
</linearGradient>
<linearGradient id="paint20_linear_1632_16736" x1="173.026" y1="150.785" x2="173.726" y2="150.085" gradientUnits="userSpaceOnUse">
<stop offset="0.2888" stop-color="white"/>
<stop offset="0.7796" stop-color="white" stop-opacity="0"/>
</linearGradient>
<linearGradient id="paint21_linear_1632_16736" x1="175.416" y1="147.507" x2="176.116" y2="146.806" gradientUnits="userSpaceOnUse">
<stop offset="0.2888" stop-color="white"/>
<stop offset="0.7796" stop-color="white" stop-opacity="0"/>
</linearGradient>
<linearGradient id="paint22_linear_1632_16736" x1="165.711" y1="153.072" x2="167.234" y2="151.549" gradientUnits="userSpaceOnUse">
<stop offset="0.2888" stop-color="white"/>
<stop offset="0.7796" stop-color="white" stop-opacity="0"/>
</linearGradient>
<linearGradient id="paint23_linear_1632_16736" x1="171.416" y1="140.687" x2="172.939" y2="139.164" gradientUnits="userSpaceOnUse">
<stop offset="0.2888" stop-color="white"/>
<stop offset="0.7796" stop-color="white" stop-opacity="0"/>
</linearGradient>
<clipPath id="clip0_1632_16736">
<rect width="44.0487" height="57.8677" fill="white" transform="translate(121.782 130.682) rotate(-45)"/>
</clipPath>
</defs>
</svg>
