<svg width="252" height="253" viewBox="0 0 252 253" fill="none" xmlns="http://www.w3.org/2000/svg">
<path fill-rule="evenodd" clip-rule="evenodd" d="M200.486 185.587C228.223 157.541 220.941 104.703 184.22 67.5701C147.499 30.4375 95.2455 23.0717 67.5085 51.1181C67.4089 51.2188 67.3097 51.3199 67.211 51.4213L67.2096 51.4199L51.9775 66.822L51.9793 66.8238C24.0273 95.6231 30.8823 148.687 67.4388 185.653C103.995 222.62 156.472 229.553 184.954 201.289L184.955 201.291L185.291 200.951L185.336 200.906L185.381 200.861L200.187 185.889L200.186 185.888C200.287 185.788 200.387 185.688 200.486 185.587Z" fill="url(#paint0_linear_1079_32060)"/>
<path d="M196.104 182.931C209.683 169.201 214.707 149.585 212.027 129.12C209.347 108.656 198.964 87.2453 181.584 69.6703C164.204 52.0953 143.03 41.5957 122.793 38.885C102.554 36.1741 83.1552 41.2542 69.5763 54.9846C55.9973 68.715 50.9729 88.331 53.6532 108.796C56.3334 129.259 66.7162 150.67 84.0962 168.245C101.476 185.82 122.65 196.32 142.887 199.031C163.126 201.742 182.525 196.662 196.104 182.931Z" fill="url(#paint1_radial_1079_32060)" stroke="url(#paint2_linear_1079_32060)" stroke-width="3.37269"/>
<g style="mix-blend-mode:soft-light">
<path d="M118.077 46.6428L155.108 83.777C156.857 85.5317 159.116 86.6751 161.554 87.0403L166.916 87.8435C170.536 88.3857 174.196 87.1626 176.784 84.546L180.731 80.5548" stroke="white" stroke-opacity="0.77" stroke-width="1.45314"/>
<path d="M175.363 74.9967C190.692 90.4982 199.94 109.174 202.523 126.814C205.107 144.453 201.026 161.004 189.778 172.378C178.529 183.752 162.161 187.878 144.717 185.265C127.273 182.652 108.803 173.301 93.4738 157.799C78.1443 142.298 68.8971 123.622 66.3135 105.982C63.7298 88.3425 67.8107 71.7917 79.0591 60.4178C90.3074 49.044 106.675 44.9179 124.12 47.531C141.564 50.1441 160.033 59.4952 175.363 74.9967Z" stroke="white" stroke-opacity="0.77" stroke-width="1.45314"/>
<path d="M117.823 133.965L109.262 142.621C106.679 145.233 105.471 148.928 106.007 152.582V152.582C106.542 156.237 105.334 159.932 102.751 162.544L100.812 164.504" stroke="white" stroke-opacity="0.77" stroke-width="1.45314"/>
<path d="M88.1096 152.241L103.518 136.66C105.661 134.494 105.661 130.981 103.518 128.814V128.814C101.375 126.647 97.901 126.647 95.7581 128.814L81.2135 143.521" stroke="white" stroke-opacity="0.77" stroke-width="1.45314"/>
<path d="M75.7719 63.4952L89.7541 77.6342C91.5083 79.4081 92.6516 81.7056 93.0151 84.1872L95.099 98.4143C95.4624 100.896 96.6061 103.194 98.3603 104.968C101.088 107.726 103.53 110.195 106.522 113.221" stroke="white" stroke-opacity="0.77" stroke-width="1.45314"/>
<path d="M186.735 175.704L172.752 161.565C170.998 159.791 168.726 158.635 166.272 158.268L152.202 156.16C149.748 155.792 147.476 154.636 145.722 152.862L137.56 144.608" stroke="white" stroke-opacity="0.77" stroke-width="1.45314"/>
<path d="M81.8166 57.3825L95.7987 71.5214C97.553 73.2953 99.825 74.4515 102.279 74.8191L116.349 76.9267C118.803 77.2943 121.075 78.4505 122.829 80.2244L130.216 87.6936" stroke="white" stroke-opacity="0.77" stroke-width="1.45314"/>
<path d="M192.78 169.591L178.798 155.452C177.044 153.678 175.9 151.381 175.537 148.899L173.453 134.672C173.089 132.19 171.946 129.893 170.192 128.119L162.806 120.65" stroke="white" stroke-opacity="0.77" stroke-width="1.45314"/>
<path d="M107.801 46.9804L170.218 110.098L172.737 112.645L175.255 115.192L185.323 125.373C187.078 127.146 188.221 129.444 188.584 131.926L189.272 136.623C189.632 139.081 190.758 141.359 192.485 143.126L201.377 152.225" stroke="white" stroke-opacity="0.77" stroke-width="1.45314"/>
<path d="M190.931 93.7805L172.506 112.411" stroke="white" stroke-opacity="0.77" stroke-width="1.45314"/>
<path d="M70.7856 124.245L79.9147 115.014C82.5025 112.398 83.7122 108.697 83.176 105.036L82.8863 103.058C82.5228 100.576 81.3795 98.2788 79.6252 96.5049L66.4191 83.1507" stroke="white" stroke-opacity="0.77" stroke-width="1.45314"/>
<path d="M110.111 171.579L118.665 162.93C121.253 160.314 124.913 159.091 128.533 159.633L139.951 161.343C142.405 161.711 144.677 162.867 146.432 164.641L166.622 185.057" stroke="white" stroke-opacity="0.77" stroke-width="1.45314"/>
<path d="M151.182 99.4488C157.512 105.85 161.318 113.55 162.38 120.8C163.442 128.051 161.759 134.8 157.188 139.422C152.618 144.043 145.943 145.745 138.773 144.671C131.602 143.597 123.987 139.748 117.658 133.347C111.328 126.946 107.522 119.246 106.46 111.996C105.398 104.745 107.081 97.9959 111.651 93.3743C116.222 88.7527 122.896 87.0509 130.067 88.125C137.237 89.1991 144.852 93.048 151.182 99.4488Z" stroke="white" stroke-opacity="0.77" stroke-width="1.45314"/>
</g>
<path d="M92.4563 80.3659L94.0579 91.3009" stroke="url(#paint3_linear_1079_32060)" stroke-width="1.93752" stroke-linecap="round"/>
<path d="M157.699 139.938C148.16 149.584 130.004 146.865 117.147 133.864" stroke="url(#paint4_linear_1079_32060)" stroke-width="1.93752" stroke-linecap="round"/>
<path d="M92.9645 158.316C62.1082 127.114 55.6545 83.0518 78.5497 59.9012" stroke="url(#paint5_linear_1079_32060)" stroke-width="1.93752" stroke-linecap="round"/>
<path d="M180.732 80.5551L176.785 84.5463C174.197 87.163 170.537 88.3861 166.917 87.8438L161.555 87.0406C159.117 86.6754 156.858 85.532 155.109 83.7773L137.94 66.5608" stroke="url(#paint6_linear_1079_32060)" stroke-width="1.93752" stroke-linecap="round"/>
<path d="M192.781 169.591L178.799 155.452C177.044 153.678 175.901 151.381 175.537 148.899L173.454 134.672C173.09 132.19 171.947 129.893 170.193 128.119L169.584 127.504" stroke="url(#paint7_linear_1079_32060)" stroke-width="1.93752" stroke-linecap="round"/>
<path d="M107.802 46.9803L170.22 110.098L172.738 112.645L175.257 115.192" stroke="url(#paint8_linear_1079_32060)" stroke-width="1.93752" stroke-linecap="round"/>
<g clip-path="url(#clip0_1079_32060)">
<path fill-rule="evenodd" clip-rule="evenodd" d="M128.711 92.9264C131.464 92.8937 133.46 93.3416 134.923 94.3227C135.769 94.8595 136.461 95.827 136.74 96.7934C137.018 97.7598 136.814 98.6559 136.178 99.2922C135.937 99.5329 135.65 99.7276 135.317 99.8761C135.975 101.016 136.68 102.064 137.389 102.876L137.648 103.17C133.528 101.527 129.338 101.291 125.904 102.604C125.95 102.512 126.258 101.789 126.432 100.139C126.121 100.035 125.805 99.8906 125.551 99.775C124.763 99.3647 123.84 98.3047 123.395 97.2746C123.013 96.4114 122.977 95.6181 123.291 95.073C123.417 94.8548 123.566 94.6599 123.755 94.4707C124.701 93.5249 126.51 92.9607 128.711 92.9264ZM134.626 94.9887C135.916 95.8659 136.893 98.1158 134.752 99.1044C134.545 99.1728 134.362 99.2643 134.218 99.3616C134.547 100 134.929 100.726 135.431 101.469C132.555 100.656 129.704 100.556 127.176 101.193C127.188 101.082 127.202 100.966 127.216 100.846C127.262 100.464 127.312 100.038 127.333 99.5614C126.66 99.4044 126.102 99.2247 125.762 99.0571C124.91 98.618 123.468 96.6943 124.063 95.6383C124.658 94.5823 126.455 93.7998 128.973 93.7721C131.49 93.7444 133.319 94.1287 134.626 94.9887Z" fill="#5E12A0"/>
<path d="M134.752 99.1043C136.893 98.1157 135.916 95.8658 134.626 94.9886C133.319 94.1286 131.49 93.7443 128.973 93.772C126.455 93.7997 124.658 94.5822 124.063 95.6382C123.468 96.6942 124.91 98.6179 125.762 99.057C126.102 99.2246 126.66 99.4043 127.333 99.5613C127.306 100.188 127.227 100.728 127.176 101.193C129.704 100.556 132.555 100.656 135.431 101.468C134.929 100.726 134.547 100 134.218 99.3615C134.362 99.2642 134.545 99.1727 134.752 99.1043Z" fill="url(#paint9_radial_1079_32060)"/>
<path d="M148.385 130.656C153.694 125.347 152.228 115.273 145.111 108.156C137.994 101.039 127.92 99.573 122.611 104.882C117.302 110.191 118.768 120.265 125.885 127.382C133.002 134.499 143.075 135.965 148.385 130.656Z" fill="url(#paint10_radial_1079_32060)"/>
<path opacity="0.6" d="M132.774 94.7189C129.623 94.1815 128.039 94.798 126.322 95.7302C124.968 96.4393 124.459 95.3803 125.876 94.2863C124.997 94.6116 124.361 95.1099 124.063 95.6379C123.468 96.6939 124.911 98.6175 125.762 99.0567C126.102 99.2243 126.66 99.404 127.333 99.561C127.284 100.44 127.188 101.135 127.092 101.693C127.339 101.63 127.643 101.556 128.028 101.494C129.028 101.324 130.355 101.38 130.355 101.38C128.286 101.236 127.985 100.523 128.064 97.9536C128.085 97.149 128.888 96.4384 130.077 96.2175C131.266 95.9965 133.314 96.3929 133.314 96.3929L134.551 99.2126C134.626 99.1841 134.7 99.1556 134.775 99.1271C135.458 98.8128 135.808 98.3711 135.956 97.9003C136.017 97.2394 135.949 95.2792 132.774 94.7189Z" fill="white" fill-opacity="0.7"/>
<path d="M127.412 96.8547C127.94 96.6952 128.71 96.5709 129.744 96.5047C130.974 96.4275 132.187 96.5056 133.055 96.6516C133.514 98.3139 134.571 100.162 135.344 101.417C135.695 101.527 136.063 101.62 136.414 101.73C135.958 101.033 135.312 99.9741 134.734 98.846C134.826 98.8003 134.912 98.7143 134.998 98.6283C135.204 98.422 135.399 98.1351 135.38 97.7384C135.38 97.4625 135.281 97.0542 134.802 96.6103C134.365 96.1724 133.553 95.877 132.352 95.7415C131.489 95.6357 130.443 95.6214 129.443 95.6532C126.65 95.8181 125.249 96.481 125.408 97.5678C125.513 98.2922 126.055 98.7651 126.527 99.0307C126.46 100.065 126.342 100.875 126.263 101.415C126.562 101.301 126.866 101.227 127.188 101.136C127.346 100.194 127.468 98.7344 127.412 96.8547ZM133.958 96.9012C134.125 96.9649 134.258 97.063 134.327 97.1321C134.534 97.3396 134.552 97.4603 134.564 97.5408C134.564 97.6787 134.473 97.8625 134.352 97.9828C134.179 97.603 134.069 97.2521 133.958 96.9012ZM126.276 97.7138C126.258 97.5931 126.35 97.4094 126.619 97.2319C126.632 97.5883 126.621 97.9216 126.611 98.255C126.432 98.1108 126.288 97.9323 126.276 97.7138Z" fill="#5E12A0"/>
<path d="M121.85 104.122C116.227 109.745 117.779 120.412 125.318 127.95C132.856 135.489 143.522 137.041 149.146 131.417C154.769 125.794 153.217 115.128 145.678 107.589C138.14 100.051 127.457 98.5159 121.85 104.122ZM148.385 130.656C143.071 135.97 133.009 134.506 125.885 127.383C118.762 120.259 117.297 110.197 122.611 104.883C127.925 99.569 137.988 101.033 145.111 108.157C152.235 115.28 153.681 125.36 148.385 130.656Z" fill="#5E12A0"/>
<path opacity="0.6" d="M148.385 130.656C153.694 125.347 152.228 115.273 145.111 108.156C137.994 101.039 127.92 99.573 122.611 104.882C117.302 110.191 118.768 120.265 125.885 127.382C133.002 134.499 143.075 135.965 148.385 130.656Z" fill="url(#paint11_linear_1079_32060)"/>
<path opacity="0.25" d="M146.748 129.158C140.374 133.273 130.198 130.217 124.026 122.325C121.292 118.835 119.811 115.014 119.548 111.45C119.008 115.725 120.47 120.764 123.954 125.211C130.142 133.084 140.318 136.141 146.676 132.043C150.245 129.765 151.843 125.723 151.526 121.244C151.116 124.514 149.502 127.372 146.748 129.158Z" fill="white" fill-opacity="0.7"/>
<path opacity="0.6" d="M124.326 103.536C121.371 105.431 119.753 108.525 119.464 112.087C119.475 112.168 119.487 112.248 119.487 112.248C119.627 110.91 120.18 109.296 120.18 109.296C119.561 114.249 121.168 117.575 121.168 117.575C119.439 113.679 120.638 108.515 122.993 105.884C125.348 103.252 127.973 102.609 132.112 102.759C136.274 102.931 141.904 106.153 145.288 109.778C148.689 113.385 150.149 117.596 150.149 117.596C149.458 115.014 148.826 113.247 147.966 111.664C147.666 111.227 147.366 110.789 147.008 110.363C140.86 102.495 130.701 99.421 124.326 103.536Z" fill="url(#paint12_linear_1079_32060)"/>
<path d="M144.514 108.523C151.269 115.278 152.663 124.857 147.624 129.896C142.585 134.934 132.989 133.558 126.234 126.803L144.514 108.523Z" fill="url(#paint13_linear_1079_32060)"/>
<g opacity="0.6">
<path opacity="0.6" d="M143.792 109.245C150.385 115.838 151.893 125.119 147.263 130.257C147.384 130.136 147.504 130.016 147.624 129.895C152.663 124.857 151.269 115.277 144.514 108.523L143.792 109.245Z" fill="url(#paint14_linear_1079_32060)"/>
</g>
<g opacity="0.7">
<path opacity="0.7" d="M127.524 125.513L126.234 126.803C132.989 133.558 142.568 134.952 147.607 129.913C147.83 129.689 148.037 129.483 148.22 129.254C143.03 133.522 133.979 131.968 127.524 125.513Z" fill="url(#paint15_linear_1079_32060)"/>
</g>
<path d="M144.612 108.655C143.206 107.249 140.576 108.265 137.875 110.413C135.936 111.982 134.395 113.984 133.196 116.843C132.133 119.289 130.436 120.756 129.1 121.723C126.145 123.894 124.689 125.258 126.349 126.918C128.746 129.315 135.389 128.667 139.82 122.161C142.059 118.862 142.403 116.351 143.299 113.979C144.286 111.424 145.857 109.9 144.612 108.655Z" fill="url(#paint16_linear_1079_32060)"/>
<path d="M132.681 108.968C133.535 108.113 133.299 106.491 132.154 105.345C131.008 104.199 129.386 103.963 128.531 104.818C127.676 105.673 127.912 107.295 129.058 108.441C130.204 109.586 131.826 109.822 132.681 108.968Z" fill="white"/>
<path d="M136.753 107.985C137.114 107.624 137.014 106.939 136.53 106.456C136.046 105.972 135.362 105.872 135.001 106.233C134.64 106.594 134.739 107.279 135.223 107.762C135.707 108.246 136.392 108.346 136.753 107.985Z" fill="white"/>
<g opacity="0.6">
<path opacity="0.6" d="M133.812 100.366C133.795 100.383 133.778 100.4 133.778 100.4C133.652 100.481 133.445 100.411 133.3 100.232C132.395 99.0173 132.034 97.3494 132.022 97.269C131.976 97.0849 132.113 96.9473 132.274 96.9707C132.452 96.977 132.637 97.1614 132.66 97.3225C132.666 97.3626 133.009 98.9098 133.794 99.9694C133.915 100.125 133.898 100.28 133.812 100.366Z" fill="url(#paint17_linear_1079_32060)"/>
</g>
<path opacity="0.2" d="M144.476 128.017C144.742 127.752 144.668 127.247 144.312 126.891C143.955 126.534 143.451 126.461 143.185 126.726C142.919 126.992 142.992 127.497 143.349 127.854C143.705 128.21 144.21 128.283 144.476 128.017Z" fill="white"/>
<g opacity="0.4">
<path opacity="0.6" d="M143.97 128.065C143.527 128 143.112 127.585 143.048 127.142C143.036 127.062 143.047 127.004 143.035 126.924C142.99 127.016 142.984 127.113 143.002 127.234C143.066 127.677 143.481 128.092 143.924 128.156C144.286 128.209 144.573 128.014 144.624 127.687C144.544 127.951 144.292 128.111 143.97 128.065Z" fill="url(#paint18_linear_1079_32060)"/>
</g>
<path opacity="0.3" d="M143.816 127.017C143.873 126.96 143.857 126.852 143.781 126.775C143.705 126.699 143.596 126.683 143.54 126.74C143.483 126.797 143.498 126.905 143.575 126.982C143.651 127.058 143.759 127.074 143.816 127.017Z" fill="white"/>
<path opacity="0.2" d="M146.664 125.184C146.93 124.919 146.857 124.414 146.5 124.058C146.144 123.701 145.639 123.628 145.373 123.894C145.107 124.159 145.181 124.664 145.537 125.021C145.894 125.377 146.398 125.45 146.664 125.184Z" fill="white"/>
<g opacity="0.4">
<path opacity="0.6" d="M146.158 125.23C145.715 125.166 145.3 124.751 145.236 124.308C145.224 124.228 145.236 124.17 145.224 124.09C145.178 124.182 145.173 124.279 145.19 124.4C145.255 124.843 145.67 125.258 146.112 125.322C146.475 125.375 146.762 125.18 146.812 124.853C146.733 125.117 146.48 125.277 146.158 125.23Z" fill="url(#paint19_linear_1079_32060)"/>
</g>
<path opacity="0.3" d="M146.005 124.184C146.062 124.127 146.046 124.018 145.97 123.942C145.894 123.866 145.786 123.85 145.729 123.907C145.672 123.964 145.687 124.072 145.764 124.148C145.84 124.225 145.948 124.241 146.005 124.184Z" fill="white"/>
<path opacity="0.2" d="M146.923 127.922C147.123 127.722 147.068 127.344 146.8 127.076C146.533 126.809 146.154 126.754 145.955 126.953C145.755 127.153 145.811 127.531 146.078 127.799C146.345 128.066 146.724 128.121 146.923 127.922Z" fill="white"/>
<g opacity="0.4">
<path opacity="0.6" d="M146.533 127.945C146.211 127.898 145.888 127.575 145.842 127.253C145.836 127.213 145.847 127.155 145.841 127.115C145.813 127.19 145.824 127.27 145.836 127.351C145.883 127.673 146.206 127.995 146.528 128.042C146.81 128.083 147.005 127.934 147.044 127.664C146.976 127.871 146.775 127.98 146.533 127.945Z" fill="url(#paint20_linear_1079_32060)"/>
</g>
<path opacity="0.3" d="M146.398 127.156C146.436 127.118 146.425 127.046 146.374 126.995C146.323 126.944 146.251 126.934 146.213 126.972C146.175 127.01 146.186 127.082 146.237 127.133C146.288 127.184 146.36 127.194 146.398 127.156Z" fill="white"/>
<path opacity="0.2" d="M148.796 125.358C148.995 125.158 148.94 124.78 148.673 124.512C148.405 124.245 148.027 124.19 147.828 124.389C147.628 124.589 147.683 124.967 147.951 125.235C148.218 125.502 148.596 125.557 148.796 125.358Z" fill="white"/>
<g opacity="0.4">
<path opacity="0.6" d="M148.406 125.381C148.084 125.334 147.761 125.011 147.714 124.689C147.708 124.649 147.72 124.591 147.714 124.551C147.685 124.626 147.697 124.706 147.709 124.787C147.756 125.109 148.078 125.432 148.4 125.478C148.682 125.519 148.877 125.37 148.917 125.1C148.848 125.307 148.647 125.416 148.406 125.381Z" fill="url(#paint21_linear_1079_32060)"/>
</g>
<path opacity="0.3" d="M148.271 124.592C148.309 124.554 148.299 124.482 148.248 124.431C148.197 124.38 148.125 124.37 148.087 124.408C148.049 124.446 148.059 124.518 148.11 124.569C148.161 124.619 148.233 124.63 148.271 124.592Z" fill="white"/>
<path opacity="0.2" d="M142.198 129.835C142.635 129.398 142.514 128.569 141.928 127.983C141.342 127.398 140.514 127.277 140.077 127.714C139.64 128.151 139.76 128.98 140.346 129.565C140.932 130.151 141.761 130.272 142.198 129.835Z" fill="white"/>
<g opacity="0.4">
<path opacity="0.6" d="M141.359 129.89C140.635 129.784 139.966 129.116 139.861 128.391C139.843 128.27 139.849 128.173 139.872 128.058C139.814 128.207 139.821 128.385 139.827 128.564C139.932 129.288 140.601 129.957 141.325 130.062C141.929 130.15 142.394 129.823 142.45 129.26C142.319 129.714 141.906 129.989 141.359 129.89Z" fill="url(#paint22_linear_1079_32060)"/>
</g>
<path opacity="0.3" d="M141.09 128.176C141.185 128.081 141.158 127.901 141.031 127.774C140.904 127.646 140.724 127.62 140.629 127.715C140.534 127.81 140.56 127.99 140.687 128.118C140.815 128.245 140.995 128.271 141.09 128.176Z" fill="white"/>
<path opacity="0.2" d="M146.661 120.162C147.098 119.725 146.977 118.896 146.392 118.31C145.806 117.725 144.977 117.604 144.54 118.041C144.103 118.478 144.224 119.307 144.81 119.892C145.395 120.478 146.224 120.599 146.661 120.162Z" fill="white"/>
<g opacity="0.4">
<path opacity="0.6" d="M145.804 120.235C145.08 120.129 144.411 119.461 144.306 118.736C144.288 118.615 144.294 118.518 144.316 118.403C144.259 118.552 144.266 118.73 144.272 118.909C144.377 119.633 145.046 120.302 145.77 120.407C146.374 120.495 146.839 120.169 146.895 119.605C146.764 120.059 146.368 120.317 145.804 120.235Z" fill="url(#paint23_linear_1079_32060)"/>
</g>
<path opacity="0.3" d="M145.552 118.504C145.647 118.409 145.621 118.229 145.493 118.101C145.366 117.974 145.186 117.948 145.091 118.043C144.996 118.138 145.022 118.318 145.15 118.445C145.277 118.572 145.457 118.599 145.552 118.504Z" fill="white"/>
</g>
<defs>
<linearGradient id="paint0_linear_1079_32060" x1="192.479" y1="203.35" x2="76.9329" y2="56.4446" gradientUnits="userSpaceOnUse">
<stop stop-color="#310057"/>
<stop offset="0.567637" stop-color="#FF2EDE"/>
<stop offset="1" stop-color="#FF8642"/>
</linearGradient>
<radialGradient id="paint1_radial_1079_32060" cx="0" cy="0" r="1" gradientUnits="userSpaceOnUse" gradientTransform="translate(168.641 63.386) rotate(126.466) scale(135.744 166.876)">
<stop stop-color="#FFD4BC"/>
<stop offset="0.32" stop-color="#FB902D"/>
<stop offset="0.71" stop-color="#E134C6"/>
<stop offset="1" stop-color="#B434E1"/>
</radialGradient>
<linearGradient id="paint2_linear_1079_32060" x1="180.398" y1="70.8693" x2="84.2241" y2="165.977" gradientUnits="userSpaceOnUse">
<stop stop-color="#FFDCBD"/>
<stop offset="0.445474" stop-color="#FF43BB"/>
<stop offset="1" stop-color="#F9B4FF"/>
</linearGradient>
<linearGradient id="paint3_linear_1079_32060" x1="94.3738" y1="91.2142" x2="91.8204" y2="81.2804" gradientUnits="userSpaceOnUse">
<stop stop-color="white"/>
<stop offset="1" stop-color="#EB578E" stop-opacity="0"/>
</linearGradient>
<linearGradient id="paint4_linear_1079_32060" x1="159.196" y1="138.269" x2="139.797" y2="152.357" gradientUnits="userSpaceOnUse">
<stop stop-color="#FFD8F6"/>
<stop offset="1" stop-color="white" stop-opacity="0"/>
</linearGradient>
<linearGradient id="paint5_linear_1079_32060" x1="76.8424" y1="61.7436" x2="50.787" y2="110.69" gradientUnits="userSpaceOnUse">
<stop stop-color="white"/>
<stop offset="1" stop-color="white" stop-opacity="0"/>
</linearGradient>
<linearGradient id="paint6_linear_1079_32060" x1="138.312" y1="64.1229" x2="162.827" y2="96.001" gradientUnits="userSpaceOnUse">
<stop stop-color="#FFD8F6"/>
<stop offset="1" stop-color="white" stop-opacity="0"/>
</linearGradient>
<linearGradient id="paint7_linear_1079_32060" x1="177.089" y1="135.258" x2="174.215" y2="146.422" gradientUnits="userSpaceOnUse">
<stop stop-color="#FFD8F6"/>
<stop offset="1" stop-color="white" stop-opacity="0"/>
</linearGradient>
<linearGradient id="paint8_linear_1079_32060" x1="175.531" y1="115.096" x2="145.487" y2="120.076" gradientUnits="userSpaceOnUse">
<stop stop-color="#FFD8F6"/>
<stop offset="1" stop-color="white" stop-opacity="0"/>
</linearGradient>
<radialGradient id="paint9_radial_1079_32060" cx="0" cy="0" r="1" gradientUnits="userSpaceOnUse" gradientTransform="translate(131.531 102.128) rotate(-60.548) scale(18.3339 24.5779)">
<stop stop-color="#FFEAFF" stop-opacity="0.6"/>
<stop offset="0.6807" stop-color="#A087C9" stop-opacity="0.19"/>
<stop offset="1" stop-color="#AB80FF" stop-opacity="0.06"/>
</radialGradient>
<radialGradient id="paint10_radial_1079_32060" cx="0" cy="0" r="1" gradientUnits="userSpaceOnUse" gradientTransform="translate(132.978 102.52) rotate(-45) scale(26.594 35.651)">
<stop stop-color="#FFEAFF" stop-opacity="0.6"/>
<stop offset="0.6807" stop-color="#A087C9" stop-opacity="0.21"/>
<stop offset="1" stop-color="#F1EAFF" stop-opacity="0"/>
</radialGradient>
<linearGradient id="paint11_linear_1079_32060" x1="146.66" y1="132.015" x2="127.154" y2="101.679" gradientUnits="userSpaceOnUse">
<stop stop-color="#81FFFF"/>
<stop offset="0.6202" stop-color="white" stop-opacity="0"/>
</linearGradient>
<linearGradient id="paint12_linear_1079_32060" x1="133.521" y1="102.243" x2="128.103" y2="114.623" gradientUnits="userSpaceOnUse">
<stop offset="0.2888" stop-color="white"/>
<stop offset="0.7796" stop-color="white" stop-opacity="0"/>
</linearGradient>
<linearGradient id="paint13_linear_1079_32060" x1="132.355" y1="132.909" x2="150.623" y2="114.641" gradientUnits="userSpaceOnUse">
<stop stop-color="#0002E9"/>
<stop offset="0.9952" stop-color="#FF00C7"/>
</linearGradient>
<linearGradient id="paint14_linear_1079_32060" x1="146.449" y1="108.736" x2="142.739" y2="130.175" gradientUnits="userSpaceOnUse">
<stop offset="0.2888" stop-color="white"/>
<stop offset="0.7796" stop-color="white" stop-opacity="0"/>
</linearGradient>
<linearGradient id="paint15_linear_1079_32060" x1="132.355" y1="132.909" x2="142.129" y2="123.136" gradientUnits="userSpaceOnUse">
<stop stop-color="#000292"/>
<stop offset="0.9952" stop-color="#7D00C7"/>
</linearGradient>
<linearGradient id="paint16_linear_1079_32060" x1="132.464" y1="130.428" x2="140.55" y2="112.391" gradientUnits="userSpaceOnUse">
<stop stop-color="#070993"/>
<stop offset="1" stop-color="#BE00C7"/>
</linearGradient>
<linearGradient id="paint17_linear_1079_32060" x1="132.213" y1="96.8536" x2="132.623" y2="101.13" gradientUnits="userSpaceOnUse">
<stop offset="0.2888" stop-color="white"/>
<stop offset="0.7796" stop-color="white" stop-opacity="0"/>
</linearGradient>
<linearGradient id="paint18_linear_1079_32060" x1="143.363" y1="127.88" x2="144.091" y2="127.153" gradientUnits="userSpaceOnUse">
<stop offset="0.2888" stop-color="white"/>
<stop offset="0.7796" stop-color="white" stop-opacity="0"/>
</linearGradient>
<linearGradient id="paint19_linear_1079_32060" x1="145.546" y1="125.044" x2="146.273" y2="124.316" gradientUnits="userSpaceOnUse">
<stop offset="0.2888" stop-color="white"/>
<stop offset="0.7796" stop-color="white" stop-opacity="0"/>
</linearGradient>
<linearGradient id="paint20_linear_1079_32060" x1="146.082" y1="127.807" x2="146.628" y2="127.261" gradientUnits="userSpaceOnUse">
<stop offset="0.2888" stop-color="white"/>
<stop offset="0.7796" stop-color="white" stop-opacity="0"/>
</linearGradient>
<linearGradient id="paint21_linear_1079_32060" x1="147.946" y1="125.25" x2="148.493" y2="124.704" gradientUnits="userSpaceOnUse">
<stop offset="0.2888" stop-color="white"/>
<stop offset="0.7796" stop-color="white" stop-opacity="0"/>
</linearGradient>
<linearGradient id="paint22_linear_1079_32060" x1="140.375" y1="129.591" x2="141.563" y2="128.403" gradientUnits="userSpaceOnUse">
<stop offset="0.2888" stop-color="white"/>
<stop offset="0.7796" stop-color="white" stop-opacity="0"/>
</linearGradient>
<linearGradient id="paint23_linear_1079_32060" x1="144.825" y1="119.929" x2="146.014" y2="118.741" gradientUnits="userSpaceOnUse">
<stop offset="0.2888" stop-color="white"/>
<stop offset="0.7796" stop-color="white" stop-opacity="0"/>
</linearGradient>
<clipPath id="clip0_1079_32060">
<rect width="34.366" height="45.1474" fill="white" transform="translate(106.102 112.124) rotate(-45)"/>
</clipPath>
</defs>
</svg>
