<svg width="247" height="247" viewBox="0 0 247 247" fill="none" xmlns="http://www.w3.org/2000/svg">
<path fill-rule="evenodd" clip-rule="evenodd" d="M50.6218 181.002C23.4255 153.503 30.5663 101.694 66.5713 65.2856C102.576 28.8768 153.811 21.6545 181.008 49.1543C181.105 49.253 181.202 49.352 181.299 49.4514L181.301 49.4497L196.236 64.5516L196.234 64.5534C223.641 92.7913 216.92 144.821 181.076 181.067C145.232 217.313 93.7783 224.111 65.8519 196.398L65.8502 196.4L65.5207 196.067L65.4768 196.022L65.4328 195.978L50.915 181.298L50.9157 181.297C50.8174 181.199 50.7195 181.101 50.6218 181.002Z" fill="url(#paint0_linear_1023_35394)"/>
<path d="M54.5611 178.763C41.1111 165.163 36.1592 145.756 38.8034 125.568C41.4472 105.381 51.6844 84.2856 68.798 66.98C85.9116 49.6744 106.774 39.3222 126.737 36.6482C146.702 33.9738 165.894 38.9805 179.344 52.5805C192.794 66.1806 197.746 85.5868 195.101 105.776C192.458 125.962 182.221 147.058 165.107 164.363C147.993 181.669 127.131 192.021 107.168 194.695C87.2028 197.369 68.0111 192.363 54.5611 178.763Z" fill="url(#paint1_radial_1023_35394)" stroke="url(#paint2_linear_1023_35394)" stroke-width="4.33308"/>
<g style="mix-blend-mode:soft-light">
<path d="M131.427 44.7673L94.8871 81.4098C93.3217 82.9795 91.3013 84.0024 89.1205 84.329L83.046 85.239C79.8075 85.7241 76.5332 84.6299 74.2182 82.2892L69.9944 78.0183" stroke="white" stroke-opacity="0.77" stroke-width="1.29992"/>
<path d="M75.2125 72.5237C60.1733 87.7316 51.0995 106.056 48.5641 123.366C46.0286 140.676 50.0325 156.926 61.0787 168.096C72.125 179.265 88.1953 183.313 105.314 180.749C122.433 178.185 140.554 169.009 155.593 153.801C170.632 138.593 179.706 120.269 182.242 102.959C184.777 85.6484 180.773 69.3985 169.727 58.229C158.681 47.0596 142.61 43.0114 125.492 45.5757C108.373 48.14 90.2518 57.3158 75.2125 72.5237Z" stroke="white" stroke-opacity="0.77" stroke-width="1.29992"/>
<path d="M131.677 130.386L140.417 139.224C142.732 141.565 143.814 144.876 143.334 148.15L143.19 149.131C142.711 152.406 143.793 155.717 146.108 158.058L148.356 160.331" stroke="white" stroke-opacity="0.77" stroke-width="1.29992"/>
<path d="M160.809 148.306L145.701 133.03C143.6 130.905 143.6 127.461 145.701 125.336V125.336C147.802 123.211 151.209 123.211 153.31 125.336L167.571 139.756" stroke="white" stroke-opacity="0.77" stroke-width="1.29992"/>
<path d="M172.905 61.2913L158.963 75.3894C157.394 76.9763 156.371 79.0315 156.046 81.2515L153.907 95.8582C153.582 98.0781 152.559 100.133 150.989 101.72C148.22 104.521 145.773 106.995 142.754 110.048" stroke="white" stroke-opacity="0.77" stroke-width="1.29992"/>
<path d="M64.1053 171.313L78.0471 157.215C79.6163 155.628 81.6488 154.594 83.8442 154.265L98.2893 152.101C100.485 151.772 102.517 150.738 104.086 149.151L112.322 140.823" stroke="white" stroke-opacity="0.77" stroke-width="1.29992"/>
<path d="M166.979 55.2973L153.038 69.3954C151.468 70.9823 149.436 72.0166 147.24 72.3455L132.795 74.5093C130.6 74.8381 128.567 75.8724 126.998 77.4593L119.524 85.0176" stroke="white" stroke-opacity="0.77" stroke-width="1.29992"/>
<path d="M58.1774 165.319L72.1192 151.221C73.6884 149.634 74.7112 147.579 75.0364 145.359L77.1758 130.752C77.501 128.532 78.5238 126.477 80.093 124.89L87.5676 117.332" stroke="white" stroke-opacity="0.77" stroke-width="1.29992"/>
<path d="M141.5 45.0983L80.2996 106.986L77.83 109.483L75.3605 111.98L65.2567 122.197C63.6874 123.784 62.6647 125.839 62.3395 128.059L61.5692 133.318C61.2471 135.517 60.2405 137.555 58.6953 139.136L49.7485 148.292" stroke="white" stroke-opacity="0.77" stroke-width="1.29992"/>
<path d="M59.9931 90.9857L78.0586 109.253" stroke="white" stroke-opacity="0.77" stroke-width="1.29992"/>
<path d="M177.796 120.856L168.491 111.448C166.176 109.107 165.094 105.796 165.573 102.521L165.979 99.7534C166.304 97.5334 167.327 95.4782 168.896 93.8913L182.077 80.5626" stroke="white" stroke-opacity="0.77" stroke-width="1.29992"/>
<path d="M139.235 167.268L130.495 158.431C128.18 156.09 124.906 154.996 121.667 155.481L109.652 157.281C107.457 157.61 105.424 158.644 103.855 160.231L83.8264 180.484" stroke="white" stroke-opacity="0.77" stroke-width="1.29992"/>
<path d="M98.9232 96.4992C92.7083 102.784 88.9694 110.346 87.926 117.47C86.8825 124.594 88.5355 131.233 93.0341 135.782C97.5327 140.331 104.098 142.002 111.144 140.946C118.189 139.891 125.667 136.11 131.882 129.826C138.097 123.541 141.836 115.979 142.879 108.855C143.923 101.731 142.27 95.0919 137.771 90.5431C133.272 85.9943 126.707 84.3231 119.661 85.3784C112.616 86.4337 105.138 90.2146 98.9232 96.4992Z" stroke="white" stroke-opacity="0.77" stroke-width="1.29992"/>
</g>
<path d="M156.548 77.8324L154.978 88.5542" stroke="url(#paint3_linear_1023_35394)" stroke-width="1.73323" stroke-linecap="round"/>
<path d="M92.5769 136.243C101.931 145.701 119.733 143.034 132.339 130.287" stroke="url(#paint4_linear_1023_35394)" stroke-width="1.73323" stroke-linecap="round"/>
<path d="M156.05 154.263C186.305 123.669 192.633 80.4657 170.184 57.7664" stroke="url(#paint5_linear_1023_35394)" stroke-width="1.73323" stroke-linecap="round"/>
<path d="M69.9952 78.0169L74.219 82.2878C76.5339 84.6286 79.8083 85.7227 83.0467 85.2376L89.1213 84.3277C91.302 84.001 93.3225 82.9782 94.8878 81.4085L111.953 64.2954" stroke="url(#paint6_linear_1023_35394)" stroke-width="1.73323" stroke-linecap="round"/>
<path d="M58.1794 165.319L72.1211 151.221C73.6904 149.634 74.7132 147.579 75.0383 145.359L77.1778 130.752C77.5029 128.532 78.5257 126.477 80.095 124.89L80.9236 124.052" stroke="url(#paint7_linear_1023_35394)" stroke-width="1.73323" stroke-linecap="round"/>
<path d="M141.5 45.0983L80.2989 106.986L77.8294 109.483L75.3599 111.98" stroke="url(#paint8_linear_1023_35394)" stroke-width="1.73323" stroke-linecap="round"/>
<g clip-path="url(#clip0_1023_35394)">
<path fill-rule="evenodd" clip-rule="evenodd" d="M138.422 102.636C138.831 105.592 138.62 107.799 137.763 109.505C137.3 110.488 136.353 111.364 135.352 111.794C134.35 112.225 133.358 112.127 132.588 111.528C132.296 111.302 132.048 111.02 131.843 110.682C130.707 111.544 129.675 112.444 128.897 113.317L128.616 113.635C129.826 108.982 129.511 104.443 127.634 100.928C127.739 100.964 128.559 101.198 130.356 101.161C130.426 100.813 130.539 100.453 130.629 100.165C130.963 99.2615 131.978 98.1256 133.025 97.507C133.902 96.9796 134.75 96.8327 135.379 97.0972C135.631 97.203 135.861 97.3367 136.09 97.5145C137.235 98.4036 138.087 100.273 138.422 102.636ZM137.006 109.276C136.237 110.782 133.95 112.138 132.597 109.969C132.495 109.756 132.372 109.571 132.248 109.43C131.605 109.871 130.877 110.379 130.146 111.02C130.63 107.817 130.351 104.737 129.323 102.105C129.445 102.103 129.572 102.102 129.703 102.101C130.119 102.098 130.585 102.094 131.1 102.052C131.177 101.307 131.295 100.683 131.429 100.295C131.786 99.319 133.66 97.5072 134.876 98.004C136.092 98.5007 137.178 100.327 137.548 103.031C137.919 105.735 137.754 107.754 137.006 109.276Z" fill="#5E12A0"/>
<path d="M132.597 109.969C133.95 112.138 136.237 110.782 137.006 109.276C137.754 107.754 137.919 105.735 137.548 103.031C137.177 100.327 136.092 98.5007 134.876 98.0039C133.66 97.5072 131.786 99.3189 131.429 100.295C131.295 100.683 131.177 101.307 131.1 102.052C130.422 102.108 129.831 102.096 129.323 102.105C130.351 104.737 130.63 107.817 130.146 111.02C130.877 110.379 131.605 109.871 132.248 109.43C132.372 109.571 132.495 109.756 132.597 109.969Z" fill="url(#paint9_radial_1023_35394)"/>
<path d="M100.51 128.907C106.94 133.898 117.575 130.956 124.265 122.337C130.955 113.718 131.167 102.685 124.737 97.6948C118.308 92.7043 107.672 95.6459 100.982 104.265C94.2919 112.884 94.0806 123.917 100.51 128.907Z" fill="url(#paint10_radial_1023_35394)"/>
<path opacity="0.6" d="M137.045 107.248C137.196 103.786 136.318 102.165 135.083 100.446C134.137 99.0854 135.207 98.3949 136.576 99.7703C136.107 98.8695 135.484 98.2523 134.876 98.004C133.66 97.5072 131.787 99.319 131.43 100.295C131.295 100.683 131.178 101.307 131.1 102.052C130.148 102.118 129.387 102.109 128.775 102.081C128.875 102.339 128.996 102.656 129.115 103.062C129.433 104.114 129.554 105.549 129.554 105.549C129.428 103.304 130.154 102.884 132.928 102.621C133.796 102.534 134.669 103.301 135.068 104.55C135.467 105.799 135.318 108.055 135.318 108.055L132.453 109.768C132.494 109.845 132.535 109.921 132.575 109.997C133.006 110.69 133.528 111.005 134.055 111.101C134.774 111.078 136.873 110.738 137.045 107.248Z" fill="white" fill-opacity="0.7"/>
<path d="M134.021 101.77C134.265 102.316 134.503 103.128 134.714 104.231C134.964 105.543 135.044 106.859 135.005 107.812C133.279 108.531 131.435 109.918 130.19 110.92C130.119 111.312 130.069 111.721 129.998 112.113C130.685 111.528 131.737 110.689 132.872 109.915C132.934 110.007 133.038 110.088 133.142 110.169C133.392 110.363 133.727 110.533 134.151 110.46C134.448 110.422 134.873 110.26 135.286 109.686C135.698 109.155 135.905 108.243 135.888 106.932C135.885 105.99 135.759 104.863 135.589 103.792C135.033 100.81 134.13 99.3937 132.983 99.711C132.218 99.9226 131.783 100.569 131.561 101.113C130.44 101.182 129.552 101.164 128.961 101.152C129.124 101.458 129.245 101.775 129.386 102.109C130.421 102.152 132.007 102.086 134.021 101.77ZM134.859 108.817C134.813 109.005 134.725 109.161 134.66 109.245C134.465 109.496 134.338 109.531 134.253 109.555C134.104 109.574 133.894 109.5 133.749 109.387C134.134 109.149 134.496 108.983 134.859 108.817ZM132.944 100.665C133.071 100.629 133.281 100.703 133.508 100.969C133.127 101.031 132.767 101.064 132.407 101.098C132.538 100.887 132.71 100.707 132.944 100.665Z" fill="#5E12A0"/>
<path d="M125.452 96.7736C118.642 91.4878 107.38 94.6025 100.294 103.732C93.2082 112.861 92.9845 124.543 99.7946 129.829C106.605 135.115 117.866 132 124.952 122.871C132.038 113.742 132.241 102.043 125.452 96.7736ZM100.51 128.908C94.0745 123.913 94.2855 112.892 100.982 104.265C107.678 95.6385 118.301 92.7001 124.737 97.695C131.172 102.69 130.961 113.711 124.265 122.337C117.569 130.964 106.924 133.886 100.51 128.908Z" fill="#5E12A0"/>
<path opacity="0.6" d="M100.51 128.907C106.94 133.898 117.575 130.956 124.265 122.337C130.955 113.718 131.167 102.685 124.737 97.6948C118.308 92.7043 107.672 95.6459 100.982 104.265C94.2919 112.884 94.0806 123.917 100.51 128.907Z" fill="url(#paint11_linear_1023_35394)"/>
<path opacity="0.25" d="M101.9 126.944C96.6098 120.646 98.5181 109.288 106.169 101.581C109.552 98.1673 113.461 96.0559 117.258 95.2905C112.588 95.2888 107.366 97.5441 103.056 101.894C95.4261 109.617 93.5177 120.975 98.7869 127.257C101.721 130.787 106.285 131.958 111.058 131.011C107.486 131.012 104.194 129.664 101.9 126.944Z" fill="white" fill-opacity="0.7"/>
<path opacity="0.6" d="M126.417 99.3568C123.979 96.4355 120.433 95.1143 116.562 95.2861C116.477 95.3096 116.392 95.3331 116.392 95.3331C117.851 95.3023 119.661 95.6786 119.661 95.6786C114.25 95.6842 110.89 97.8633 110.89 97.8633C114.846 95.4757 120.562 96.0651 123.712 98.2414C126.862 100.418 127.909 103.154 128.309 107.625C128.688 112.125 125.985 118.617 122.545 122.747C119.127 126.894 114.795 129.035 114.795 129.035C117.479 127.941 119.293 127.023 120.879 125.883C121.309 125.501 121.739 125.119 122.149 124.677C129.778 116.998 131.707 105.655 126.417 99.3568Z" fill="url(#paint12_linear_1023_35394)"/>
<path d="M123.79 121.745C117.441 129.925 107.327 132.723 101.225 127.986C95.1228 123.25 95.3029 112.742 101.652 104.562L123.79 121.745Z" fill="url(#paint13_linear_1023_35394)"/>
<g opacity="0.6">
<path opacity="0.6" d="M122.916 121.066C116.718 129.051 106.941 131.931 100.788 127.647C100.933 127.76 101.079 127.873 101.225 127.986C107.327 132.723 117.441 129.925 123.79 121.745L122.916 121.066Z" fill="url(#paint14_linear_1023_35394)"/>
</g>
<g opacity="0.7">
<path opacity="0.7" d="M103.214 105.774L101.652 104.562C95.3029 112.742 95.102 123.234 101.204 127.97C101.475 128.18 101.725 128.374 101.996 128.54C96.7025 123.537 97.1466 113.592 103.214 105.774Z" fill="url(#paint15_linear_1023_35394)"/>
</g>
<path d="M123.661 121.868C124.983 120.165 123.534 117.474 120.858 114.86C118.907 112.988 116.545 111.602 113.308 110.7C110.533 109.889 108.726 108.262 107.504 106.955C104.769 104.072 103.105 102.691 101.544 104.701C99.2908 107.605 100.889 114.661 108.486 118.545C112.338 120.505 115.085 120.535 117.757 121.177C120.639 121.893 122.491 123.376 123.661 121.868Z" fill="url(#paint16_linear_1023_35394)"/>
<path d="M121.708 109.078C122.743 109.882 124.455 109.408 125.532 108.021C126.61 106.633 126.644 104.857 125.608 104.053C124.573 103.25 122.861 103.723 121.784 105.111C120.707 106.499 120.673 108.275 121.708 109.078Z" fill="white"/>
<path d="M123.317 113.325C123.754 113.664 124.477 113.464 124.931 112.878C125.386 112.292 125.401 111.542 124.963 111.203C124.526 110.864 123.803 111.064 123.349 111.649C122.894 112.235 122.88 112.985 123.317 113.325Z" fill="white"/>
<g opacity="0.6">
<path opacity="0.6" d="M131.112 109.13C131.092 109.114 131.071 109.097 131.071 109.097C130.967 108.972 131.014 108.74 131.187 108.561C132.371 107.422 134.116 106.808 134.201 106.785C134.392 106.71 134.559 106.839 134.556 107.015C134.573 107.208 134.4 107.431 134.23 107.478C134.187 107.49 132.57 108.069 131.537 109.056C131.386 109.208 131.217 109.211 131.112 109.13Z" fill="url(#paint17_linear_1023_35394)"/>
</g>
<path opacity="0.2" d="M102.818 124.346C103.14 124.596 103.673 124.449 104.008 124.017C104.343 123.585 104.354 123.033 104.032 122.783C103.71 122.533 103.177 122.68 102.842 123.112C102.507 123.543 102.496 124.096 102.818 124.346Z" fill="white"/>
<g opacity="0.4">
<path opacity="0.6" d="M102.699 123.808C102.709 123.323 103.099 122.82 103.566 122.691C103.651 122.667 103.714 122.672 103.799 122.648C103.694 122.612 103.588 122.619 103.461 122.654C102.994 122.783 102.603 123.286 102.594 123.771C102.587 124.168 102.835 124.45 103.194 124.46C102.899 124.41 102.692 124.16 102.699 123.808Z" fill="url(#paint18_linear_1023_35394)"/>
</g>
<path opacity="0.3" d="M103.805 123.501C103.874 123.554 103.988 123.523 104.06 123.43C104.132 123.338 104.134 123.219 104.065 123.166C103.996 123.112 103.882 123.144 103.81 123.236C103.738 123.329 103.736 123.447 103.805 123.501Z" fill="white"/>
<path opacity="0.2" d="M106.162 126.316C106.484 126.566 107.016 126.418 107.351 125.987C107.687 125.555 107.697 125.002 107.375 124.752C107.053 124.502 106.52 124.65 106.185 125.081C105.85 125.513 105.84 126.066 106.162 126.316Z" fill="white"/>
<g opacity="0.4">
<path opacity="0.6" d="M106.044 125.777C106.053 125.292 106.443 124.79 106.911 124.661C106.996 124.637 107.059 124.642 107.144 124.618C107.039 124.581 106.933 124.589 106.806 124.624C106.338 124.753 105.948 125.256 105.939 125.741C105.931 126.137 106.18 126.419 106.539 126.43C106.244 126.38 106.037 126.13 106.044 125.777Z" fill="url(#paint19_linear_1023_35394)"/>
</g>
<path opacity="0.3" d="M107.149 125.471C107.218 125.525 107.332 125.493 107.404 125.401C107.476 125.308 107.478 125.19 107.409 125.136C107.34 125.082 107.226 125.114 107.154 125.207C107.082 125.299 107.08 125.418 107.149 125.471Z" fill="white"/>
<path opacity="0.2" d="M103.253 126.965C103.494 127.152 103.894 127.042 104.145 126.718C104.397 126.394 104.405 125.98 104.163 125.792C103.921 125.605 103.522 125.715 103.271 126.039C103.019 126.363 103.011 126.777 103.253 126.965Z" fill="white"/>
<g opacity="0.4">
<path opacity="0.6" d="M103.175 126.549C103.182 126.196 103.486 125.805 103.826 125.711C103.868 125.699 103.931 125.704 103.974 125.692C103.89 125.672 103.805 125.695 103.72 125.719C103.38 125.813 103.076 126.203 103.07 126.556C103.064 126.865 103.25 127.054 103.546 127.06C103.314 127.015 103.17 126.813 103.175 126.549Z" fill="url(#paint20_linear_1023_35394)"/>
</g>
<path opacity="0.3" d="M104.004 126.296C104.05 126.332 104.126 126.311 104.174 126.249C104.222 126.188 104.224 126.109 104.178 126.073C104.132 126.037 104.056 126.058 104.008 126.12C103.96 126.182 103.958 126.261 104.004 126.296Z" fill="white"/>
<path opacity="0.2" d="M106.264 128.632C106.506 128.819 106.905 128.709 107.157 128.385C107.408 128.061 107.416 127.647 107.174 127.459C106.933 127.272 106.533 127.382 106.282 127.706C106.031 128.03 106.023 128.444 106.264 128.632Z" fill="white"/>
<g opacity="0.4">
<path opacity="0.6" d="M106.187 128.216C106.194 127.863 106.497 127.472 106.837 127.378C106.88 127.366 106.943 127.371 106.985 127.359C106.901 127.338 106.816 127.362 106.731 127.385C106.391 127.479 106.088 127.87 106.081 128.223C106.075 128.531 106.262 128.721 106.558 128.727C106.326 128.681 106.182 128.48 106.187 128.216Z" fill="url(#paint21_linear_1023_35394)"/>
</g>
<path opacity="0.3" d="M107.017 127.964C107.063 128 107.139 127.978 107.187 127.917C107.235 127.855 107.236 127.776 107.19 127.74C107.144 127.705 107.068 127.726 107.02 127.787C106.972 127.849 106.971 127.928 107.017 127.964Z" fill="white"/>
<path opacity="0.2" d="M100.555 122.142C101.084 122.552 101.959 122.31 102.51 121.601C103.06 120.892 103.078 119.984 102.549 119.573C102.019 119.162 101.144 119.405 100.594 120.114C100.043 120.823 100.026 121.731 100.555 122.142Z" fill="white"/>
<g opacity="0.4">
<path opacity="0.6" d="M100.382 121.248C100.397 120.454 101.026 119.645 101.791 119.433C101.918 119.398 102.024 119.391 102.151 119.399C101.982 119.358 101.791 119.389 101.601 119.42C100.836 119.632 100.207 120.441 100.192 121.235C100.179 121.896 100.593 122.352 101.207 122.335C100.701 122.256 100.349 121.849 100.382 121.248Z" fill="url(#paint22_linear_1023_35394)"/>
</g>
<path opacity="0.3" d="M102.189 120.726C102.304 120.815 102.494 120.762 102.613 120.608C102.733 120.454 102.737 120.257 102.622 120.167C102.507 120.078 102.317 120.131 102.197 120.285C102.077 120.439 102.074 120.636 102.189 120.726Z" fill="white"/>
<path opacity="0.2" d="M111.563 125.632C112.092 126.042 112.967 125.8 113.518 125.091C114.068 124.382 114.086 123.474 113.556 123.063C113.027 122.652 112.152 122.895 111.602 123.604C111.051 124.313 111.034 125.221 111.563 125.632Z" fill="white"/>
<g opacity="0.4">
<path opacity="0.6" d="M111.369 124.72C111.384 123.926 112.012 123.117 112.777 122.905C112.905 122.87 113.01 122.863 113.137 122.871C112.969 122.83 112.778 122.861 112.587 122.892C111.822 123.104 111.194 123.913 111.179 124.707C111.166 125.368 111.58 125.823 112.193 125.807C111.687 125.728 111.357 125.337 111.369 124.72Z" fill="url(#paint23_linear_1023_35394)"/>
</g>
<path opacity="0.3" d="M113.196 124.214C113.311 124.303 113.501 124.251 113.621 124.096C113.741 123.942 113.745 123.745 113.63 123.656C113.515 123.566 113.324 123.619 113.205 123.773C113.085 123.927 113.081 124.125 113.196 124.214Z" fill="white"/>
</g>
<defs>
<linearGradient id="paint0_linear_1023_35394" x1="58.4736" y1="198.418" x2="171.767" y2="54.3769" gradientUnits="userSpaceOnUse">
<stop stop-color="#310057"/>
<stop offset="0.567637" stop-color="#FF2EDE"/>
<stop offset="1" stop-color="#FF8642"/>
</linearGradient>
<radialGradient id="paint1_radial_1023_35394" cx="0" cy="0" r="1" gradientUnits="userSpaceOnUse" gradientTransform="translate(81.8496 61.183) rotate(53.5339) scale(133.098 163.623)">
<stop stop-color="#FFD4BC"/>
<stop offset="0.32" stop-color="#FB902D"/>
<stop offset="0.71" stop-color="#E134C6"/>
<stop offset="1" stop-color="#B434E1"/>
</radialGradient>
<linearGradient id="paint2_linear_1023_35394" x1="70.3214" y1="68.5204" x2="164.621" y2="161.774" gradientUnits="userSpaceOnUse">
<stop stop-color="#FFDCBD"/>
<stop offset="0.445474" stop-color="#FF43BB"/>
<stop offset="1" stop-color="#F9B4FF"/>
</linearGradient>
<linearGradient id="paint3_linear_1023_35394" x1="154.668" y1="88.4693" x2="157.172" y2="78.7291" gradientUnits="userSpaceOnUse">
<stop stop-color="white"/>
<stop offset="1" stop-color="#EB578E" stop-opacity="0"/>
</linearGradient>
<linearGradient id="paint4_linear_1023_35394" x1="91.1096" y1="134.607" x2="110.13" y2="148.42" gradientUnits="userSpaceOnUse">
<stop stop-color="#FFD8F6"/>
<stop offset="1" stop-color="white" stop-opacity="0"/>
</linearGradient>
<linearGradient id="paint5_linear_1023_35394" x1="171.858" y1="59.5729" x2="197.405" y2="107.565" gradientUnits="userSpaceOnUse">
<stop stop-color="white"/>
<stop offset="1" stop-color="white" stop-opacity="0"/>
</linearGradient>
<linearGradient id="paint6_linear_1023_35394" x1="111.589" y1="61.905" x2="87.5516" y2="93.1618" gradientUnits="userSpaceOnUse">
<stop stop-color="#FFD8F6"/>
<stop offset="1" stop-color="white" stop-opacity="0"/>
</linearGradient>
<linearGradient id="paint7_linear_1023_35394" x1="73.565" y1="131.655" x2="76.3828" y2="142.602" gradientUnits="userSpaceOnUse">
<stop stop-color="#FFD8F6"/>
<stop offset="1" stop-color="white" stop-opacity="0"/>
</linearGradient>
<linearGradient id="paint8_linear_1023_35394" x1="75.0909" y1="111.886" x2="104.549" y2="116.769" gradientUnits="userSpaceOnUse">
<stop stop-color="#FFD8F6"/>
<stop offset="1" stop-color="white" stop-opacity="0"/>
</linearGradient>
<radialGradient id="paint9_radial_1023_35394" cx="0" cy="0" r="1" gradientUnits="userSpaceOnUse" gradientTransform="translate(128.908 106.915) rotate(22.2703) scale(19.8742 26.6428)">
<stop stop-color="#FFEAFF" stop-opacity="0.6"/>
<stop offset="0.6807" stop-color="#A087C9" stop-opacity="0.19"/>
<stop offset="1" stop-color="#AB80FF" stop-opacity="0.06"/>
</radialGradient>
<radialGradient id="paint10_radial_1023_35394" cx="0" cy="0" r="1" gradientUnits="userSpaceOnUse" gradientTransform="translate(128.683 108.524) rotate(37.8183) scale(28.8283 38.6462)">
<stop stop-color="#FFEAFF" stop-opacity="0.6"/>
<stop offset="0.6807" stop-color="#A087C9" stop-opacity="0.21"/>
<stop offset="1" stop-color="#F1EAFF" stop-opacity="0"/>
</radialGradient>
<linearGradient id="paint11_linear_1023_35394" x1="98.8145" y1="127.237" x2="128.798" y2="102.147" gradientUnits="userSpaceOnUse">
<stop stop-color="#81FFFF"/>
<stop offset="0.6202" stop-color="white" stop-opacity="0"/>
</linearGradient>
<linearGradient id="paint12_linear_1023_35394" x1="129.055" y1="109.071" x2="115.006" y2="104.921" gradientUnits="userSpaceOnUse">
<stop offset="0.2888" stop-color="white"/>
<stop offset="0.7796" stop-color="white" stop-opacity="0"/>
</linearGradient>
<linearGradient id="paint13_linear_1023_35394" x1="95.9149" y1="111.973" x2="118.038" y2="129.145" gradientUnits="userSpaceOnUse">
<stop stop-color="#0002E9"/>
<stop offset="0.9952" stop-color="#FF00C7"/>
</linearGradient>
<linearGradient id="paint14_linear_1023_35394" x1="123.822" y1="123.855" x2="100.262" y2="122.77" gradientUnits="userSpaceOnUse">
<stop offset="0.2888" stop-color="white"/>
<stop offset="0.7796" stop-color="white" stop-opacity="0"/>
</linearGradient>
<linearGradient id="paint15_linear_1023_35394" x1="95.9149" y1="111.973" x2="107.751" y2="121.16" gradientUnits="userSpaceOnUse">
<stop stop-color="#000292"/>
<stop offset="0.9952" stop-color="#7D00C7"/>
</linearGradient>
<linearGradient id="paint16_linear_1023_35394" x1="98.598" y1="111.754" x2="119.093" y2="118.005" gradientUnits="userSpaceOnUse">
<stop stop-color="#070993"/>
<stop offset="1" stop-color="#BE00C7"/>
</linearGradient>
<linearGradient id="paint17_linear_1023_35394" x1="134.673" y1="106.934" x2="130.13" y2="107.954" gradientUnits="userSpaceOnUse">
<stop offset="0.2888" stop-color="white"/>
<stop offset="0.7796" stop-color="white" stop-opacity="0"/>
</linearGradient>
<linearGradient id="paint18_linear_1023_35394" x1="102.815" y1="123.131" x2="103.696" y2="123.815" gradientUnits="userSpaceOnUse">
<stop offset="0.2888" stop-color="white"/>
<stop offset="0.7796" stop-color="white" stop-opacity="0"/>
</linearGradient>
<linearGradient id="paint19_linear_1023_35394" x1="106.162" y1="125.093" x2="107.043" y2="125.777" gradientUnits="userSpaceOnUse">
<stop offset="0.2888" stop-color="white"/>
<stop offset="0.7796" stop-color="white" stop-opacity="0"/>
</linearGradient>
<linearGradient id="paint20_linear_1023_35394" x1="103.262" y1="126.045" x2="103.923" y2="126.558" gradientUnits="userSpaceOnUse">
<stop offset="0.2888" stop-color="white"/>
<stop offset="0.7796" stop-color="white" stop-opacity="0"/>
</linearGradient>
<linearGradient id="paint21_linear_1023_35394" x1="106.265" y1="127.704" x2="106.927" y2="128.217" gradientUnits="userSpaceOnUse">
<stop offset="0.2888" stop-color="white"/>
<stop offset="0.7796" stop-color="white" stop-opacity="0"/>
</linearGradient>
<linearGradient id="paint22_linear_1023_35394" x1="100.569" y1="120.148" x2="102.008" y2="121.265" gradientUnits="userSpaceOnUse">
<stop offset="0.2888" stop-color="white"/>
<stop offset="0.7796" stop-color="white" stop-opacity="0"/>
</linearGradient>
<linearGradient id="paint23_linear_1023_35394" x1="111.565" y1="123.626" x2="113.004" y2="124.742" gradientUnits="userSpaceOnUse">
<stop offset="0.2888" stop-color="white"/>
<stop offset="0.7796" stop-color="white" stop-opacity="0"/>
</linearGradient>
<clipPath id="clip0_1023_35394">
<rect width="37.2532" height="48.9404" fill="white" transform="translate(114.711 80.9207) rotate(37.8183)"/>
</clipPath>
</defs>
</svg>
