<svg width="38" height="38" viewBox="0 0 38 38" fill="none" xmlns="http://www.w3.org/2000/svg">
<circle cx="19" cy="19" r="19" fill="url(#paint0_radial_318_2040)"/>
<path d="M19.5 9C20.1267 9 20.7469 9.05278 21.3604 9.15833C21.974 9.26389 22.5776 9.42222 23.1714 9.63333C23.9828 9.92361 24.7415 10.3161 25.4474 10.8109C26.1533 11.3057 26.7701 11.8797 27.2979 12.5328C27.8257 13.1859 28.2413 13.9083 28.5448 14.7C28.8483 15.4917 29 16.3361 29 17.2333C29 17.5632 28.901 17.8535 28.7031 18.1042C28.5052 18.3549 28.2776 18.5693 28.0203 18.7474C27.9873 18.7672 27.9411 18.7936 27.8818 18.8266C27.8224 18.8595 27.7564 18.8958 27.6839 18.9354C27.6113 18.975 27.5519 19.008 27.5057 19.0344C27.4595 19.0608 27.4233 19.0839 27.3969 19.1036L22.6667 23.8339V28.3167C22.6667 28.5806 22.5743 28.8049 22.3896 28.9896C22.2049 29.1743 21.9806 29.2667 21.7167 29.2667H17.2833C17.0194 29.2667 16.7951 29.1743 16.6104 28.9896C16.4257 28.8049 16.3333 28.5806 16.3333 28.3167V23.8339L11.6031 19.1036C11.5899 19.0905 11.5569 19.0674 11.5042 19.0344C11.4514 19.0014 11.3887 18.9684 11.3161 18.9354C11.2436 18.9024 11.1809 18.8694 11.1281 18.8365C11.0753 18.8035 11.0259 18.7738 10.9797 18.7474C10.7224 18.5693 10.4948 18.3549 10.2969 18.1042C10.099 17.8535 10 17.5632 10 17.2333C10 16.3427 10.1517 15.5016 10.4552 14.7099C10.7587 13.9182 11.1743 13.1925 11.7021 12.5328C12.2299 11.8731 12.8467 11.2991 13.5526 10.8109C14.2585 10.3227 15.0172 9.93021 15.8286 9.63333C16.4224 9.42222 17.026 9.26389 17.6396 9.15833C18.2531 9.05278 18.8733 9 19.5 9ZM18.8667 20.3901C18.0816 20.3769 17.3031 20.334 16.5312 20.2615C15.7594 20.1889 14.9842 20.0734 14.2057 19.9151L17.2339 22.9333H18.8667V20.3901ZM21.7661 22.9333L24.7943 19.9151C24.0224 20.0668 23.2505 20.179 22.4786 20.2516C21.7068 20.3241 20.925 20.3703 20.1333 20.3901V22.9333H21.7661Z" fill="#5AB6E9"/>
<defs>
<radialGradient id="paint0_radial_318_2040" cx="0" cy="0" r="1" gradientUnits="userSpaceOnUse" gradientTransform="translate(19 19) rotate(90) scale(17.5)">
<stop stop-color="#2994D0" stop-opacity="0.58"/>
<stop offset="1" stop-color="#154B6A" stop-opacity="0"/>
</radialGradient>
</defs>
</svg>
