<svg width="416" height="569" viewBox="0 0 416 569" fill="none" xmlns="http://www.w3.org/2000/svg">
<rect width="416" height="568" transform="matrix(-1 0 0 1 416 0)" fill="url(#paint0_radial_1076_25618)" fill-opacity="0.7"/>
<g clip-path="url(#clip0_1076_25618)">
<g opacity="0.25">
<ellipse cx="195.572" cy="112.614" rx="195.572" ry="112.614" transform="matrix(-0.87439 0.485224 0.474911 0.880033 329.123 288.586)" stroke="#F7F7F7" stroke-width="1.36013"/>
<ellipse cx="128.963" cy="74.2592" rx="128.963" ry="74.2592" transform="matrix(-0.87439 0.485224 0.474911 0.880033 307.311 388.413)" stroke="#F7F7F7" stroke-width="1.36013"/>
<ellipse cx="67.2193" cy="38.7062" rx="67.2193" ry="38.7062" transform="matrix(-0.87439 0.485224 0.474911 0.880033 287.094 480.95)" stroke="#F7F7F7" stroke-width="1.36013"/>
<ellipse cx="273.365" cy="162.848" rx="273.365" ry="162.848" transform="matrix(-0.87439 0.485224 0.474911 0.880033 362.19 186.066)" stroke="#F7F7F7" stroke-width="1.36013"/>
<path d="M330.018 536.349C345.942 536.322 383.777 552.259 407.728 616.222" stroke="white" stroke-opacity="0.73" stroke-width="1.36013"/>
<path d="M298.773 266.828C245.541 305.299 229.525 419.744 296.647 508.703" stroke="#F7F7F7" stroke-width="1.36013"/>
<path d="M-46.7446 574.351C-5.12202 538.737 108.668 523.682 178.932 581.368" stroke="#F7F7F7" stroke-width="1.36013"/>
<path d="M211.993 523.831C152.173 416.069 80.6689 381.114 43.2447 375.189" stroke="#F7F7F7" stroke-width="1.36013"/>
<path d="M430.718 316.287C378.97 315.978 283.354 387.946 321.608 509.585" stroke="#F7F7F7" stroke-width="1.36013"/>
<path d="M375.135 477.701C384.043 467.874 415.054 452.983 467.839 472.034" stroke="white" stroke-opacity="0.73" stroke-width="1.36013"/>
</g>
<ellipse cx="195.197" cy="112.828" rx="195.197" ry="112.828" transform="matrix(-0.87489 0.484322 0.475791 0.879558 328.735 288.837)" fill="url(#paint1_radial_1076_25618)"/>
<path fill-rule="evenodd" clip-rule="evenodd" d="M106.979 486.4C77.3187 456.409 85.1065 399.907 124.373 360.2C163.64 320.493 219.517 312.616 249.177 342.607C249.284 342.715 249.39 342.823 249.495 342.931L249.497 342.93L265.785 359.4L265.783 359.402C295.673 390.198 288.343 446.941 249.252 486.471C210.161 526 154.045 533.414 123.589 503.191L123.587 503.193L123.228 502.829L123.18 502.781L123.132 502.732L107.299 486.723L107.299 486.722C107.192 486.615 107.085 486.508 106.979 486.4Z" fill="url(#paint2_linear_1076_25618)"/>
<path d="M111.441 483.79C96.835 469.021 91.4462 447.936 94.3225 425.975C97.1985 404.016 108.337 381.056 126.968 362.216C145.599 343.376 168.304 332.112 190.02 329.204C211.739 326.294 232.591 331.743 247.197 346.512C261.803 361.281 267.192 382.366 264.315 404.327C261.439 426.286 250.301 449.246 231.67 468.086C213.039 486.926 190.333 498.189 168.617 501.098C146.899 504.007 126.047 498.559 111.441 483.79Z" fill="url(#paint3_radial_1076_25618)" stroke="url(#paint4_linear_1076_25618)" stroke-width="4.25353"/>
<g style="mix-blend-mode:soft-light">
<path d="M195.105 337.823L154.992 378.049C153.455 379.59 151.472 380.594 149.331 380.914L141.78 382.045C138.601 382.522 135.387 381.448 133.114 379.15L128.107 374.087" stroke="white" stroke-opacity="0.77" stroke-width="1.27606"/>
<path d="M133.748 368.044C117.336 384.639 107.433 404.637 104.665 423.532C101.898 442.427 106.267 460.174 118.333 472.375C130.4 484.576 147.95 488.994 166.636 486.195C185.322 483.396 205.099 473.381 221.51 456.785C237.921 440.19 247.825 420.192 250.593 401.297C253.36 382.402 248.991 364.655 236.924 352.454C224.858 340.253 207.308 335.835 188.621 338.635C169.935 341.434 150.159 351.449 133.748 368.044Z" stroke="white" stroke-opacity="0.77" stroke-width="1.27606"/>
<path d="M195.377 431.199L205.31 441.243C207.582 443.541 208.644 446.791 208.174 450.005L207.851 452.21C207.38 455.424 208.442 458.674 210.715 460.972L213.567 463.856" stroke="white" stroke-opacity="0.77" stroke-width="1.27606"/>
<path d="M227.149 450.742L210.672 434.082C208.381 431.765 208.381 428.008 210.672 425.691V425.691C212.963 423.374 216.678 423.374 218.97 425.691L234.523 441.417" stroke="white" stroke-opacity="0.77" stroke-width="1.27606"/>
<path d="M240.34 355.844L224.872 371.486C223.332 373.044 222.328 375.061 222.009 377.24L219.566 393.915C219.247 396.094 218.243 398.112 216.702 399.67C213.573 402.834 210.846 405.592 207.458 409.018" stroke="white" stroke-opacity="0.77" stroke-width="1.27606"/>
<path d="M121.684 475.833L137.152 460.192C138.692 458.634 140.688 457.619 142.843 457.296L159.333 454.826C161.488 454.503 163.483 453.488 165.024 451.93L174.269 442.582" stroke="white" stroke-opacity="0.77" stroke-width="1.27606"/>
<path d="M233.878 349.307L218.41 364.948C216.869 366.506 214.874 367.522 212.719 367.844L196.229 370.315C194.074 370.637 192.079 371.653 190.538 373.21L182.123 381.72" stroke="white" stroke-opacity="0.77" stroke-width="1.27606"/>
<path d="M115.219 469.297L130.687 453.655C132.228 452.097 133.232 450.08 133.551 447.901L135.993 431.226C136.312 429.047 137.316 427.029 138.857 425.471L147.272 416.962" stroke="white" stroke-opacity="0.77" stroke-width="1.27606"/>
<path d="M206.091 338.184L139.345 405.678L136.652 408.402L133.959 411.125L122.676 422.534C121.136 424.092 120.132 426.11 119.813 428.289L118.864 434.766C118.548 436.924 117.56 438.925 116.043 440.477L106.027 450.727" stroke="white" stroke-opacity="0.77" stroke-width="1.27606"/>
<path d="M117.199 388.228L136.901 408.15" stroke="white" stroke-opacity="0.77" stroke-width="1.27606"/>
<path d="M245.674 420.806L235.126 410.14C232.853 407.842 231.791 404.592 232.262 401.377L232.841 397.419C233.161 395.24 234.165 393.222 235.705 391.664L250.343 376.862" stroke="white" stroke-opacity="0.77" stroke-width="1.27606"/>
<path d="M203.62 471.423L193.687 461.379C191.415 459.081 188.201 458.007 185.022 458.483L170.989 460.585C168.834 460.908 166.838 461.923 165.298 463.481L143.192 485.835" stroke="white" stroke-opacity="0.77" stroke-width="1.27606"/>
<path d="M159.606 394.191C152.819 401.055 148.733 409.316 147.593 417.102C146.453 424.888 148.258 432.153 153.184 437.134C158.109 442.114 165.294 443.94 172.994 442.786C180.694 441.633 188.863 437.502 195.651 430.638C202.438 423.774 206.524 415.513 207.664 407.728C208.804 399.942 206.999 392.676 202.073 387.696C197.148 382.715 189.963 380.89 182.263 382.043C174.563 383.196 166.394 387.328 159.606 394.191Z" stroke="white" stroke-opacity="0.77" stroke-width="1.27606"/>
</g>
<path d="M222.502 373.884L220.789 385.577" stroke="url(#paint5_linear_1076_25618)" stroke-width="1.70141" stroke-linecap="round"/>
<path d="M152.735 437.586C162.936 447.901 182.351 444.993 196.099 431.091" stroke="url(#paint6_linear_1076_25618)" stroke-width="1.70141" stroke-linecap="round"/>
<path d="M221.959 457.239C254.954 423.873 261.855 376.756 237.373 352" stroke="url(#paint7_linear_1076_25618)" stroke-width="1.70141" stroke-linecap="round"/>
<path d="M128.108 374.085L133.115 379.148C135.387 381.446 138.602 382.52 141.781 382.044L149.332 380.913C151.473 380.592 153.456 379.588 154.993 378.047L173.867 359.12" stroke="url(#paint8_linear_1076_25618)" stroke-width="1.70141" stroke-linecap="round"/>
<path d="M115.221 469.296L130.689 453.655C132.23 452.097 133.234 450.08 133.553 447.9L135.995 431.225C136.315 429.046 137.319 427.029 138.859 425.471L140.026 424.291" stroke="url(#paint9_linear_1076_25618)" stroke-width="1.70141" stroke-linecap="round"/>
<path d="M206.09 338.184L139.345 405.678L136.652 408.402L133.958 411.125" stroke="url(#paint10_linear_1076_25618)" stroke-width="1.70141" stroke-linecap="round"/>
<g clip-path="url(#clip1_1076_25618)">
<path fill-rule="evenodd" clip-rule="evenodd" d="M200.799 401.84C201.2 404.742 200.992 406.909 200.151 408.584C199.697 409.549 198.768 410.408 197.784 410.831C196.801 411.253 195.828 411.157 195.071 410.57C194.785 410.347 194.542 410.07 194.34 409.739C193.225 410.585 192.212 411.468 191.449 412.325L191.173 412.638C192.36 408.07 192.051 403.614 190.208 400.164C190.311 400.2 191.116 400.429 192.88 400.393C192.949 400.051 193.06 399.698 193.148 399.415C193.476 398.528 194.473 397.413 195.501 396.806C196.361 396.288 197.194 396.144 197.812 396.403C198.059 396.507 198.284 396.638 198.509 396.813C199.634 397.686 200.47 399.521 200.799 401.84ZM199.408 408.359C198.654 409.837 196.409 411.168 195.08 409.039C194.98 408.83 194.859 408.648 194.737 408.51C194.107 408.943 193.392 409.442 192.674 410.07C193.149 406.926 192.875 403.902 191.867 401.319C191.986 401.317 192.11 401.316 192.239 401.315C192.648 401.312 193.105 401.309 193.61 401.267C193.687 400.536 193.802 399.923 193.934 399.542C194.284 398.584 196.123 396.806 197.317 397.293C198.511 397.781 199.577 399.574 199.941 402.228C200.305 404.882 200.142 406.864 199.408 408.359Z" fill="#5E12A0"/>
<path d="M195.08 409.039C196.409 411.168 198.654 409.837 199.408 408.359C200.142 406.864 200.305 404.882 199.941 402.228C199.577 399.574 198.511 397.781 197.317 397.293C196.123 396.806 194.284 398.584 193.934 399.542C193.802 399.923 193.687 400.536 193.61 401.267C192.946 401.322 192.365 401.31 191.867 401.319C192.875 403.903 193.149 406.926 192.674 410.071C193.392 409.442 194.107 408.943 194.737 408.51C194.859 408.648 194.98 408.83 195.08 409.039Z" fill="url(#paint11_radial_1076_25618)"/>
<path d="M163.583 427.629C169.894 432.528 180.334 429.641 186.902 421.18C193.469 412.719 193.676 401.888 187.365 396.99C181.053 392.091 170.613 394.978 164.046 403.439C157.479 411.9 157.271 422.73 163.583 427.629Z" fill="url(#paint12_radial_1076_25618)"/>
<path opacity="0.6" d="M199.447 406.368C199.595 402.97 198.733 401.378 197.521 399.691C196.592 398.355 197.642 397.677 198.986 399.027C198.526 398.143 197.915 397.537 197.318 397.293C196.124 396.806 194.285 398.584 193.934 399.542C193.803 399.923 193.687 400.536 193.611 401.267C192.676 401.332 191.929 401.323 191.328 401.296C191.427 401.548 191.546 401.86 191.662 402.258C191.975 403.291 192.093 404.7 192.093 404.7C191.969 402.496 192.682 402.084 195.405 401.825C196.257 401.74 197.114 402.493 197.506 403.72C197.897 404.946 197.751 407.16 197.751 407.16L194.939 408.842C194.979 408.917 195.019 408.992 195.059 409.067C195.482 409.746 195.995 410.056 196.511 410.15C197.217 410.127 199.278 409.794 199.447 406.368Z" fill="white" fill-opacity="0.7"/>
<path d="M196.479 400.99C196.717 401.527 196.951 402.323 197.158 403.406C197.404 404.694 197.483 405.985 197.444 406.922C195.75 407.627 193.939 408.988 192.717 409.972C192.648 410.357 192.599 410.758 192.529 411.143C193.204 410.569 194.236 409.746 195.35 408.986C195.411 409.077 195.513 409.156 195.615 409.235C195.861 409.426 196.189 409.593 196.606 409.521C196.897 409.483 197.315 409.325 197.72 408.761C198.124 408.24 198.328 407.344 198.311 406.058C198.308 405.133 198.184 404.027 198.017 402.975C197.472 400.048 196.585 398.658 195.459 398.969C194.708 399.177 194.281 399.812 194.063 400.345C192.963 400.413 192.092 400.396 191.511 400.384C191.671 400.684 191.79 400.996 191.929 401.323C192.944 401.365 194.502 401.3 196.479 400.99ZM197.301 407.908C197.255 408.093 197.17 408.246 197.106 408.328C196.914 408.575 196.789 408.609 196.706 408.632C196.56 408.651 196.354 408.579 196.211 408.468C196.589 408.234 196.945 408.071 197.301 407.908ZM195.421 399.905C195.546 399.871 195.752 399.943 195.975 400.204C195.6 400.265 195.247 400.298 194.894 400.331C195.022 400.123 195.191 399.947 195.421 399.905Z" fill="#5E12A0"/>
<path d="M188.066 396.086C181.381 390.897 170.327 393.954 163.371 402.916C156.415 411.878 156.195 423.345 162.88 428.534C169.565 433.723 180.62 430.665 187.576 421.704C194.532 412.742 194.731 401.258 188.066 396.086ZM163.582 427.63C157.265 422.726 157.472 411.908 164.045 403.44C170.618 394.971 181.047 392.087 187.364 396.99C193.681 401.893 193.474 412.712 186.901 421.18C180.328 429.648 169.879 432.517 163.582 427.63Z" fill="#5E12A0"/>
<path opacity="0.6" d="M163.583 427.629C169.894 432.528 180.334 429.641 186.902 421.18C193.469 412.719 193.676 401.888 187.365 396.99C181.053 392.091 170.613 394.978 164.046 403.439C157.479 411.9 157.271 422.73 163.583 427.629Z" fill="url(#paint13_linear_1076_25618)"/>
<path opacity="0.25" d="M164.947 425.703C159.754 419.52 161.627 408.37 169.137 400.804C172.459 397.454 176.295 395.381 180.023 394.63C175.438 394.628 170.313 396.842 166.082 401.112C158.592 408.693 156.718 419.843 161.891 426.01C164.771 429.475 169.251 430.624 173.937 429.694C170.431 429.696 167.199 428.373 164.947 425.703Z" fill="white" fill-opacity="0.7"/>
<path opacity="0.6" d="M189.014 398.621C186.621 395.754 183.139 394.457 179.339 394.625C179.256 394.649 179.173 394.672 179.173 394.672C180.605 394.641 182.382 395.011 182.382 395.011C177.071 395.016 173.772 397.155 173.772 397.155C177.655 394.812 183.267 395.39 186.359 397.526C189.451 399.663 190.478 402.349 190.871 406.738C191.243 411.155 188.59 417.528 185.213 421.582C181.857 425.653 177.605 427.754 177.605 427.754C180.24 426.681 182.021 425.78 183.578 424.661C184 424.286 184.422 423.911 184.825 423.476C192.313 415.938 194.207 404.804 189.014 398.621Z" fill="url(#paint14_linear_1076_25618)"/>
<path d="M186.435 420.599C180.202 428.628 170.274 431.375 164.284 426.725C158.294 422.076 158.471 411.761 164.704 403.731L186.435 420.599Z" fill="url(#paint15_linear_1076_25618)"/>
<g opacity="0.6">
<path opacity="0.6" d="M185.577 419.932C179.493 427.77 169.895 430.597 163.855 426.392C163.998 426.503 164.141 426.614 164.284 426.725C170.274 431.375 180.203 428.629 186.435 420.599L185.577 419.932Z" fill="url(#paint16_linear_1076_25618)"/>
</g>
<g opacity="0.7">
<path opacity="0.7" d="M166.237 404.921L164.704 403.731C158.471 411.761 158.274 422.06 164.264 426.709C164.529 426.916 164.775 427.106 165.041 427.269C159.845 422.357 160.281 412.595 166.237 404.921Z" fill="url(#paint17_linear_1076_25618)"/>
</g>
<path d="M186.309 420.719C187.606 419.048 186.184 416.406 183.556 413.84C181.641 412.002 179.323 410.642 176.145 409.756C173.422 408.96 171.647 407.363 170.448 406.081C167.763 403.25 166.129 401.894 164.598 403.868C162.385 406.718 163.954 413.645 171.412 417.457C175.193 419.382 177.889 419.411 180.512 420.041C183.341 420.744 185.16 422.199 186.309 420.719Z" fill="url(#paint18_linear_1076_25618)"/>
<path d="M184.391 408.165C185.407 408.953 187.088 408.488 188.145 407.126C189.203 405.764 189.236 404.02 188.22 403.232C187.204 402.443 185.523 402.908 184.466 404.27C183.408 405.632 183.375 407.376 184.391 408.165Z" fill="white"/>
<path d="M185.97 412.333C186.399 412.666 187.109 412.47 187.555 411.894C188.002 411.319 188.016 410.583 187.587 410.25C187.158 409.917 186.448 410.113 186.002 410.688C185.555 411.264 185.541 412 185.97 412.333Z" fill="white"/>
<g opacity="0.6">
<path opacity="0.6" d="M193.623 408.215C193.603 408.199 193.582 408.183 193.582 408.183C193.481 408.06 193.527 407.833 193.696 407.657C194.858 406.539 196.571 405.936 196.655 405.913C196.843 405.839 197.006 405.966 197.003 406.139C197.02 406.328 196.85 406.547 196.683 406.594C196.641 406.605 195.054 407.173 194.039 408.143C193.891 408.291 193.725 408.294 193.623 408.215Z" fill="url(#paint19_linear_1076_25618)"/>
</g>
<path opacity="0.2" d="M165.848 423.152C166.164 423.397 166.687 423.253 167.016 422.829C167.345 422.405 167.356 421.863 167.039 421.617C166.723 421.372 166.2 421.516 165.871 421.94C165.542 422.364 165.532 422.906 165.848 423.152Z" fill="white"/>
<g opacity="0.4">
<path opacity="0.6" d="M165.731 422.623C165.74 422.147 166.123 421.654 166.582 421.527C166.666 421.504 166.728 421.509 166.811 421.485C166.708 421.449 166.604 421.457 166.479 421.491C166.02 421.618 165.637 422.111 165.628 422.587C165.621 422.977 165.864 423.254 166.217 423.264C165.927 423.215 165.725 422.97 165.731 422.623Z" fill="url(#paint20_linear_1076_25618)"/>
</g>
<path opacity="0.3" d="M166.817 422.322C166.884 422.375 166.997 422.344 167.067 422.253C167.137 422.162 167.14 422.046 167.072 421.993C167.004 421.941 166.892 421.972 166.822 422.062C166.751 422.153 166.749 422.269 166.817 422.322Z" fill="white"/>
<path opacity="0.2" d="M169.13 425.085C169.446 425.33 169.969 425.186 170.298 424.762C170.627 424.338 170.638 423.796 170.321 423.55C170.005 423.305 169.482 423.45 169.153 423.873C168.824 424.297 168.814 424.84 169.13 425.085Z" fill="white"/>
<g opacity="0.4">
<path opacity="0.6" d="M169.015 424.557C169.024 424.081 169.407 423.587 169.866 423.461C169.949 423.437 170.011 423.442 170.095 423.419C169.992 423.383 169.888 423.39 169.763 423.425C169.304 423.551 168.921 424.045 168.912 424.521C168.904 424.91 169.148 425.187 169.5 425.197C169.211 425.148 169.008 424.903 169.015 424.557Z" fill="url(#paint21_linear_1076_25618)"/>
</g>
<path opacity="0.3" d="M170.1 424.256C170.167 424.309 170.279 424.278 170.35 424.187C170.42 424.096 170.423 423.98 170.355 423.927C170.287 423.875 170.175 423.906 170.105 423.996C170.034 424.087 170.032 424.204 170.1 424.256Z" fill="white"/>
<path opacity="0.2" d="M166.275 425.723C166.512 425.907 166.904 425.798 167.151 425.481C167.398 425.163 167.405 424.756 167.168 424.572C166.931 424.388 166.539 424.496 166.292 424.814C166.045 425.132 166.038 425.539 166.275 425.723Z" fill="white"/>
<g opacity="0.4">
<path opacity="0.6" d="M166.199 425.314C166.205 424.968 166.503 424.584 166.837 424.492C166.879 424.48 166.941 424.485 166.983 424.473C166.9 424.453 166.817 424.476 166.733 424.499C166.399 424.591 166.102 424.975 166.095 425.321C166.089 425.624 166.272 425.81 166.563 425.816C166.335 425.771 166.194 425.574 166.199 425.314Z" fill="url(#paint22_linear_1076_25618)"/>
</g>
<path opacity="0.3" d="M167.013 425.066C167.058 425.101 167.132 425.081 167.179 425.02C167.226 424.959 167.228 424.882 167.183 424.847C167.138 424.812 167.063 424.832 167.016 424.893C166.969 424.954 166.967 425.031 167.013 425.066Z" fill="white"/>
<path opacity="0.2" d="M169.231 427.359C169.468 427.543 169.86 427.434 170.107 427.116C170.354 426.799 170.362 426.392 170.124 426.208C169.887 426.024 169.495 426.132 169.248 426.45C169.002 426.768 168.994 427.175 169.231 427.359Z" fill="white"/>
<g opacity="0.4">
<path opacity="0.6" d="M169.155 426.95C169.162 426.604 169.46 426.22 169.793 426.128C169.835 426.117 169.897 426.121 169.939 426.109C169.856 426.089 169.773 426.112 169.689 426.135C169.356 426.228 169.058 426.611 169.051 426.957C169.045 427.26 169.229 427.446 169.519 427.452C169.292 427.408 169.15 427.21 169.155 426.95Z" fill="url(#paint23_linear_1076_25618)"/>
</g>
<path opacity="0.3" d="M169.97 426.703C170.015 426.738 170.09 426.718 170.137 426.657C170.184 426.596 170.185 426.519 170.14 426.484C170.095 426.449 170.02 426.47 169.973 426.53C169.926 426.591 169.925 426.668 169.97 426.703Z" fill="white"/>
<path opacity="0.2" d="M163.626 420.988C164.146 421.391 165.005 421.154 165.545 420.457C166.086 419.761 166.103 418.87 165.583 418.467C165.064 418.064 164.205 418.301 163.665 418.998C163.124 419.694 163.107 420.585 163.626 420.988Z" fill="white"/>
<g opacity="0.4">
<path opacity="0.6" d="M163.457 420.111C163.472 419.332 164.089 418.537 164.839 418.329C164.965 418.295 165.068 418.287 165.193 418.296C165.028 418.256 164.84 418.286 164.653 418.316C163.902 418.524 163.285 419.319 163.27 420.098C163.258 420.747 163.664 421.194 164.266 421.178C163.77 421.1 163.425 420.701 163.457 420.111Z" fill="url(#paint24_linear_1076_25618)"/>
</g>
<path opacity="0.3" d="M165.23 419.598C165.343 419.685 165.53 419.634 165.647 419.483C165.765 419.331 165.768 419.137 165.656 419.05C165.543 418.962 165.356 419.014 165.238 419.165C165.121 419.316 165.117 419.51 165.23 419.598Z" fill="white"/>
<path opacity="0.2" d="M174.432 424.414C174.952 424.817 175.811 424.579 176.351 423.883C176.892 423.187 176.909 422.295 176.389 421.892C175.87 421.489 175.011 421.727 174.471 422.423C173.93 423.119 173.913 424.01 174.432 424.414Z" fill="white"/>
<g opacity="0.4">
<path opacity="0.6" d="M174.242 423.519C174.257 422.74 174.873 421.945 175.624 421.738C175.749 421.703 175.853 421.696 175.978 421.704C175.812 421.664 175.625 421.694 175.438 421.725C174.687 421.932 174.07 422.727 174.055 423.506C174.043 424.155 174.449 424.602 175.051 424.586C174.555 424.509 174.23 424.125 174.242 423.519Z" fill="url(#paint25_linear_1076_25618)"/>
</g>
<path opacity="0.3" d="M176.036 423.022C176.149 423.11 176.335 423.058 176.453 422.907C176.57 422.755 176.574 422.562 176.461 422.474C176.348 422.386 176.161 422.438 176.044 422.59C175.926 422.741 175.923 422.935 176.036 423.022Z" fill="white"/>
</g>
</g>
<defs>
<radialGradient id="paint0_radial_1076_25618" cx="0" cy="0" r="1" gradientUnits="userSpaceOnUse" gradientTransform="translate(18.7541 520.018) rotate(-56.0697) scale(489.723 506.877)">
<stop stop-color="#F530E4"/>
<stop offset="0.188404" stop-color="#7E1BFD"/>
<stop offset="0.77" stop-color="#4C1E98" stop-opacity="0.446602"/>
<stop offset="1" stop-color="#232047" stop-opacity="0"/>
</radialGradient>
<radialGradient id="paint1_radial_1076_25618" cx="0" cy="0" r="1" gradientUnits="userSpaceOnUse" gradientTransform="translate(145.432 240.911) rotate(-78.211) scale(252.45 402.996)">
<stop stop-color="#FFD0B6"/>
<stop offset="0.235951" stop-color="#FA7733"/>
<stop offset="0.58259" stop-color="#E9318E" stop-opacity="0.65"/>
<stop offset="1" stop-color="#6A1BD4" stop-opacity="0"/>
</radialGradient>
<linearGradient id="paint2_linear_1076_25618" x1="115.542" y1="505.394" x2="239.099" y2="348.303" gradientUnits="userSpaceOnUse">
<stop stop-color="#310057"/>
<stop offset="0.567637" stop-color="#FF2EDE"/>
<stop offset="1" stop-color="#FF8642"/>
</linearGradient>
<radialGradient id="paint3_radial_1076_25618" cx="0" cy="0" r="1" gradientUnits="userSpaceOnUse" gradientTransform="translate(141.036 355.726) rotate(53.5339) scale(145.157 178.447)">
<stop stop-color="#FFD4BC"/>
<stop offset="0.32" stop-color="#FB902D"/>
<stop offset="0.71" stop-color="#E134C6"/>
<stop offset="1" stop-color="#B434E1"/>
</radialGradient>
<linearGradient id="paint4_linear_1076_25618" x1="128.463" y1="363.728" x2="231.306" y2="465.43" gradientUnits="userSpaceOnUse">
<stop stop-color="#FFDCBD"/>
<stop offset="0.445474" stop-color="#FF43BB"/>
<stop offset="1" stop-color="#F9B4FF"/>
</linearGradient>
<linearGradient id="paint5_linear_1076_25618" x1="220.451" y1="385.485" x2="223.182" y2="374.862" gradientUnits="userSpaceOnUse">
<stop stop-color="white"/>
<stop offset="1" stop-color="#EB578E" stop-opacity="0"/>
</linearGradient>
<linearGradient id="paint6_linear_1076_25618" x1="151.135" y1="435.802" x2="171.879" y2="450.866" gradientUnits="userSpaceOnUse">
<stop stop-color="#FFD8F6"/>
<stop offset="1" stop-color="white" stop-opacity="0"/>
</linearGradient>
<linearGradient id="paint7_linear_1076_25618" x1="239.198" y1="353.97" x2="267.06" y2="406.31" gradientUnits="userSpaceOnUse">
<stop stop-color="white"/>
<stop offset="1" stop-color="white" stop-opacity="0"/>
</linearGradient>
<linearGradient id="paint8_linear_1076_25618" x1="173.47" y1="356.513" x2="147.255" y2="390.602" gradientUnits="userSpaceOnUse">
<stop stop-color="#FFD8F6"/>
<stop offset="1" stop-color="white" stop-opacity="0"/>
</linearGradient>
<linearGradient id="paint9_linear_1076_25618" x1="132.001" y1="432.583" x2="135.074" y2="444.521" gradientUnits="userSpaceOnUse">
<stop stop-color="#FFD8F6"/>
<stop offset="1" stop-color="white" stop-opacity="0"/>
</linearGradient>
<linearGradient id="paint10_linear_1076_25618" x1="133.665" y1="411.023" x2="165.792" y2="416.348" gradientUnits="userSpaceOnUse">
<stop stop-color="#FFD8F6"/>
<stop offset="1" stop-color="white" stop-opacity="0"/>
</linearGradient>
<radialGradient id="paint11_radial_1076_25618" cx="0" cy="0" r="1" gradientUnits="userSpaceOnUse" gradientTransform="translate(191.459 406.041) rotate(22.2703) scale(19.5094 26.1537)">
<stop stop-color="#FFEAFF" stop-opacity="0.6"/>
<stop offset="0.6807" stop-color="#A087C9" stop-opacity="0.19"/>
<stop offset="1" stop-color="#AB80FF" stop-opacity="0.06"/>
</radialGradient>
<radialGradient id="paint12_radial_1076_25618" cx="0" cy="0" r="1" gradientUnits="userSpaceOnUse" gradientTransform="translate(191.238 407.62) rotate(37.8183) scale(28.299 37.9368)">
<stop stop-color="#FFEAFF" stop-opacity="0.6"/>
<stop offset="0.6807" stop-color="#A087C9" stop-opacity="0.21"/>
<stop offset="1" stop-color="#F1EAFF" stop-opacity="0"/>
</radialGradient>
<linearGradient id="paint13_linear_1076_25618" x1="161.918" y1="425.989" x2="191.351" y2="401.36" gradientUnits="userSpaceOnUse">
<stop stop-color="#81FFFF"/>
<stop offset="0.6202" stop-color="white" stop-opacity="0"/>
</linearGradient>
<linearGradient id="paint14_linear_1076_25618" x1="191.603" y1="408.157" x2="177.812" y2="404.084" gradientUnits="userSpaceOnUse">
<stop offset="0.2888" stop-color="white"/>
<stop offset="0.7796" stop-color="white" stop-opacity="0"/>
</linearGradient>
<linearGradient id="paint15_linear_1076_25618" x1="159.072" y1="411.006" x2="180.789" y2="427.862" gradientUnits="userSpaceOnUse">
<stop stop-color="#0002E9"/>
<stop offset="0.9952" stop-color="#FF00C7"/>
</linearGradient>
<linearGradient id="paint16_linear_1076_25618" x1="186.467" y1="422.67" x2="163.339" y2="421.605" gradientUnits="userSpaceOnUse">
<stop offset="0.2888" stop-color="white"/>
<stop offset="0.7796" stop-color="white" stop-opacity="0"/>
</linearGradient>
<linearGradient id="paint17_linear_1076_25618" x1="159.072" y1="411.006" x2="170.69" y2="420.024" gradientUnits="userSpaceOnUse">
<stop stop-color="#000292"/>
<stop offset="0.9952" stop-color="#7D00C7"/>
</linearGradient>
<linearGradient id="paint18_linear_1076_25618" x1="161.705" y1="410.791" x2="181.824" y2="416.928" gradientUnits="userSpaceOnUse">
<stop stop-color="#070993"/>
<stop offset="1" stop-color="#BE00C7"/>
</linearGradient>
<linearGradient id="paint19_linear_1076_25618" x1="197.119" y1="406.059" x2="192.658" y2="407.061" gradientUnits="userSpaceOnUse">
<stop offset="0.2888" stop-color="white"/>
<stop offset="0.7796" stop-color="white" stop-opacity="0"/>
</linearGradient>
<linearGradient id="paint20_linear_1076_25618" x1="165.845" y1="421.959" x2="166.71" y2="422.63" gradientUnits="userSpaceOnUse">
<stop offset="0.2888" stop-color="white"/>
<stop offset="0.7796" stop-color="white" stop-opacity="0"/>
</linearGradient>
<linearGradient id="paint21_linear_1076_25618" x1="169.13" y1="423.885" x2="169.995" y2="424.557" gradientUnits="userSpaceOnUse">
<stop offset="0.2888" stop-color="white"/>
<stop offset="0.7796" stop-color="white" stop-opacity="0"/>
</linearGradient>
<linearGradient id="paint22_linear_1076_25618" x1="166.284" y1="424.819" x2="166.933" y2="425.323" gradientUnits="userSpaceOnUse">
<stop offset="0.2888" stop-color="white"/>
<stop offset="0.7796" stop-color="white" stop-opacity="0"/>
</linearGradient>
<linearGradient id="paint23_linear_1076_25618" x1="169.232" y1="426.448" x2="169.881" y2="426.952" gradientUnits="userSpaceOnUse">
<stop offset="0.2888" stop-color="white"/>
<stop offset="0.7796" stop-color="white" stop-opacity="0"/>
</linearGradient>
<linearGradient id="paint24_linear_1076_25618" x1="163.641" y1="419.031" x2="165.053" y2="420.128" gradientUnits="userSpaceOnUse">
<stop offset="0.2888" stop-color="white"/>
<stop offset="0.7796" stop-color="white" stop-opacity="0"/>
</linearGradient>
<linearGradient id="paint25_linear_1076_25618" x1="174.434" y1="422.445" x2="175.847" y2="423.541" gradientUnits="userSpaceOnUse">
<stop offset="0.2888" stop-color="white"/>
<stop offset="0.7796" stop-color="white" stop-opacity="0"/>
</linearGradient>
<clipPath id="clip0_1076_25618">
<rect width="416" height="568" fill="white" transform="matrix(-1 0 0 1 416 0.179199)"/>
</clipPath>
<clipPath id="clip1_1076_25618">
<rect width="36.5693" height="48.0419" fill="white" transform="translate(177.523 380.523) rotate(37.8183)"/>
</clipPath>
</defs>
</svg>
