<svg width="608" height="390" viewBox="0 0 608 390" fill="none" xmlns="http://www.w3.org/2000/svg">
<rect width="608" height="390" fill="url(#paint0_radial_1079_32045)"/>
<rect width="608" height="390" fill="url(#paint1_radial_1079_32045)"/>
<g clip-path="url(#clip0_1079_32045)">
<g opacity="0.25">
<ellipse cx="183.43" cy="105.623" rx="183.43" ry="105.623" transform="matrix(0.870398 0.492349 -0.482083 0.876125 3.49095 96.4062)" stroke="#F7F7F7" stroke-width="1.68772"/>
<ellipse cx="120.956" cy="69.6489" rx="120.956" ry="69.6489" transform="matrix(0.870398 0.492349 -0.482083 0.876125 23.1833 190.2)" stroke="#F7F7F7" stroke-width="1.68772"/>
<ellipse cx="63.046" cy="36.3031" rx="63.046" ry="36.3031" transform="matrix(0.870398 0.492349 -0.482083 0.876125 41.4365 277.143)" stroke="#F7F7F7" stroke-width="1.68772"/>
<ellipse cx="256.393" cy="152.738" rx="256.393" ry="152.738" transform="matrix(0.870398 0.492349 -0.482083 0.876125 -26.7352 0)" stroke="#F7F7F7" stroke-width="1.68772"/>
<path d="M0.754487 328.772C-14.1799 328.625 -49.787 343.282 -72.7401 403.089" stroke="white" stroke-opacity="0.73" stroke-width="1.68772"/>
<path d="M32.1231 76.2317C81.7545 112.722 95.8981 220.18 32.2646 303.099" stroke="#F7F7F7" stroke-width="1.68772"/>
<path d="M353.826 367.299C315.062 333.579 208.455 318.587 142.114 372.152" stroke="#F7F7F7" stroke-width="1.68772"/>
<path d="M111.546 317.936C168.476 217.326 235.807 185.089 270.952 179.82" stroke="#F7F7F7" stroke-width="1.68772"/>
<path d="M-92.0041 121.608C-43.4681 121.714 45.6576 189.944 8.84765 303.734" stroke="#F7F7F7" stroke-width="1.68772"/>
</g>
<ellipse cx="183.079" cy="105.823" rx="183.079" ry="105.823" transform="matrix(0.871257 0.490826 -0.48233 0.875989 3.73679 96.7302)" fill="url(#paint2_radial_1079_32045)"/>
<path fill-rule="evenodd" clip-rule="evenodd" d="M213.486 262.587C241.223 234.541 233.941 181.703 197.22 144.57C160.499 107.437 108.246 100.072 80.5085 128.118C80.4089 128.219 80.3097 128.32 80.211 128.421L80.2096 128.42L64.9775 143.822L64.9793 143.824C37.0273 172.623 43.8823 225.687 80.4388 262.653C116.995 299.62 169.472 306.553 197.954 278.289L197.955 278.291L198.291 277.951L198.336 277.906L198.381 277.861L213.187 262.889L213.186 262.888C213.287 262.788 213.387 262.688 213.486 262.587Z" fill="url(#paint3_linear_1079_32045)"/>
<path d="M209.104 259.931C222.683 246.201 227.707 226.585 225.027 206.12C222.347 185.656 211.964 164.245 194.584 146.67C177.204 129.095 156.03 118.596 135.793 115.885C115.554 113.174 96.1552 118.254 82.5763 131.985C68.9973 145.715 63.9729 165.331 66.6532 185.796C69.3334 206.259 79.7162 227.67 97.0962 245.245C114.476 262.82 135.65 273.32 155.887 276.031C176.126 278.742 195.525 273.662 209.104 259.931Z" fill="url(#paint4_radial_1079_32045)" stroke="url(#paint5_linear_1079_32045)" stroke-width="3.37269"/>
<g style="mix-blend-mode:soft-light">
<path d="M131.077 123.643L168.108 160.777C169.857 162.532 172.116 163.675 174.554 164.04L179.916 164.843C183.536 165.386 187.196 164.163 189.784 161.546L193.731 157.555" stroke="white" stroke-opacity="0.77" stroke-width="1.45314"/>
<path d="M188.363 151.997C203.692 167.498 212.94 186.174 215.523 203.814C218.107 221.453 214.026 238.004 202.778 249.378C191.529 260.752 175.161 264.878 157.717 262.265C140.273 259.652 121.803 250.301 106.474 234.799C91.1443 219.298 81.8971 200.622 79.3135 182.982C76.7298 165.343 80.8107 148.792 92.0591 137.418C103.307 126.044 119.675 121.918 137.12 124.531C154.564 127.144 173.033 136.495 188.363 151.997Z" stroke="white" stroke-opacity="0.77" stroke-width="1.45314"/>
<path d="M130.823 210.965L122.262 219.621C119.679 222.233 118.471 225.928 119.007 229.582V229.582C119.542 233.237 118.334 236.932 115.751 239.544L113.812 241.504" stroke="white" stroke-opacity="0.77" stroke-width="1.45314"/>
<path d="M101.11 229.241L116.518 213.66C118.661 211.494 118.661 207.981 116.518 205.814V205.814C114.375 203.647 110.901 203.647 108.758 205.814L94.2135 220.521" stroke="white" stroke-opacity="0.77" stroke-width="1.45314"/>
<path d="M88.7719 140.495L102.754 154.634C104.508 156.408 105.652 158.706 106.015 161.187L108.099 175.414C108.462 177.896 109.606 180.194 111.36 181.968C114.088 184.726 116.53 187.195 119.522 190.221" stroke="white" stroke-opacity="0.77" stroke-width="1.45314"/>
<path d="M199.735 252.704L185.752 238.565C183.998 236.791 181.726 235.635 179.272 235.268L165.202 233.16C162.748 232.792 160.476 231.636 158.722 229.862L150.56 221.608" stroke="white" stroke-opacity="0.77" stroke-width="1.45314"/>
<path d="M94.8166 134.382L108.799 148.521C110.553 150.295 112.825 151.452 115.279 151.819L129.349 153.927C131.803 154.294 134.075 155.451 135.829 157.224L143.216 164.694" stroke="white" stroke-opacity="0.77" stroke-width="1.45314"/>
<path d="M205.78 246.591L191.798 232.452C190.044 230.678 188.9 228.381 188.537 225.899L186.453 211.672C186.089 209.19 184.946 206.893 183.192 205.119L175.806 197.65" stroke="white" stroke-opacity="0.77" stroke-width="1.45314"/>
<path d="M120.801 123.98L183.218 187.098L185.737 189.645L188.255 192.192L198.323 202.373C200.078 204.146 201.221 206.444 201.584 208.926L202.272 213.623C202.632 216.081 203.758 218.359 205.485 220.126L214.377 229.225" stroke="white" stroke-opacity="0.77" stroke-width="1.45314"/>
<path d="M203.931 170.78L185.506 189.411" stroke="white" stroke-opacity="0.77" stroke-width="1.45314"/>
<path d="M83.7856 201.245L92.9147 192.014C95.5025 189.398 96.7122 185.697 96.176 182.036L95.8863 180.058C95.5228 177.576 94.3795 175.279 92.6252 173.505L79.4191 160.151" stroke="white" stroke-opacity="0.77" stroke-width="1.45314"/>
<path d="M123.111 248.579L131.665 239.93C134.253 237.314 137.913 236.091 141.533 236.633L152.951 238.343C155.405 238.711 157.677 239.867 159.432 241.641L179.622 262.057" stroke="white" stroke-opacity="0.77" stroke-width="1.45314"/>
<path d="M164.182 176.449C170.512 182.85 174.318 190.55 175.38 197.8C176.442 205.051 174.759 211.8 170.188 216.422C165.618 221.043 158.943 222.745 151.773 221.671C144.602 220.597 136.987 216.748 130.658 210.347C124.328 203.946 120.522 196.246 119.46 188.996C118.398 181.745 120.081 174.996 124.651 170.374C129.222 165.753 135.896 164.051 143.067 165.125C150.237 166.199 157.852 170.048 164.182 176.449Z" stroke="white" stroke-opacity="0.77" stroke-width="1.45314"/>
</g>
<path d="M105.456 157.366L107.058 168.301" stroke="url(#paint6_linear_1079_32045)" stroke-width="1.93752" stroke-linecap="round"/>
<path d="M170.699 216.938C161.16 226.584 143.004 223.865 130.147 210.864" stroke="url(#paint7_linear_1079_32045)" stroke-width="1.93752" stroke-linecap="round"/>
<path d="M105.964 235.316C75.1082 204.114 68.6545 160.052 91.5497 136.901" stroke="url(#paint8_linear_1079_32045)" stroke-width="1.93752" stroke-linecap="round"/>
<path d="M193.732 157.555L189.785 161.546C187.197 164.163 183.537 165.386 179.917 164.844L174.555 164.041C172.117 163.675 169.858 162.532 168.109 160.777L150.94 143.561" stroke="url(#paint9_linear_1079_32045)" stroke-width="1.93752" stroke-linecap="round"/>
<path d="M205.781 246.591L191.799 232.452C190.044 230.678 188.901 228.381 188.537 225.899L186.454 211.672C186.09 209.19 184.947 206.893 183.193 205.119L182.584 204.504" stroke="url(#paint10_linear_1079_32045)" stroke-width="1.93752" stroke-linecap="round"/>
<path d="M120.802 123.98L183.22 187.098L185.738 189.645L188.257 192.192" stroke="url(#paint11_linear_1079_32045)" stroke-width="1.93752" stroke-linecap="round"/>
<g clip-path="url(#clip1_1079_32045)">
<path fill-rule="evenodd" clip-rule="evenodd" d="M141.711 169.926C144.464 169.894 146.46 170.342 147.923 171.323C148.769 171.859 149.461 172.827 149.74 173.793C150.018 174.76 149.814 175.656 149.178 176.292C148.937 176.533 148.65 176.728 148.317 176.876C148.975 178.016 149.68 179.064 150.389 179.876L150.648 180.17C146.528 178.527 142.338 178.291 138.904 179.604C138.95 179.512 139.258 178.789 139.432 177.139C139.121 177.035 138.805 176.891 138.551 176.775C137.763 176.365 136.84 175.305 136.395 174.275C136.013 173.411 135.977 172.618 136.291 172.073C136.417 171.855 136.566 171.66 136.755 171.471C137.701 170.525 139.51 169.961 141.711 169.926ZM147.626 171.989C148.916 172.866 149.893 175.116 147.752 176.104C147.545 176.173 147.362 176.264 147.218 176.362C147.547 177 147.929 177.726 148.431 178.469C145.555 177.656 142.704 177.556 140.176 178.193C140.188 178.082 140.202 177.966 140.216 177.846C140.262 177.464 140.312 177.038 140.333 176.561C139.66 176.404 139.102 176.225 138.762 176.057C137.91 175.618 136.468 173.694 137.063 172.638C137.658 171.582 139.455 170.8 141.973 170.772C144.49 170.744 146.319 171.129 147.626 171.989Z" fill="#5E12A0"/>
<path d="M147.752 176.104C149.893 175.116 148.916 172.866 147.626 171.989C146.319 171.129 144.49 170.744 141.973 170.772C139.455 170.8 137.658 171.582 137.063 172.638C136.468 173.694 137.91 175.618 138.762 176.057C139.102 176.225 139.66 176.404 140.333 176.561C140.306 177.188 140.227 177.728 140.176 178.193C142.704 177.556 145.555 177.656 148.431 178.468C147.929 177.726 147.547 177 147.218 176.362C147.362 176.264 147.545 176.173 147.752 176.104Z" fill="url(#paint12_radial_1079_32045)"/>
<path d="M161.385 207.656C166.694 202.347 165.228 192.273 158.111 185.156C150.994 178.039 140.92 176.573 135.611 181.882C130.302 187.191 131.768 197.265 138.885 204.382C146.002 211.499 156.075 212.965 161.385 207.656Z" fill="url(#paint13_radial_1079_32045)"/>
<path opacity="0.6" d="M145.774 171.719C142.623 171.182 141.039 171.798 139.322 172.73C137.968 173.439 137.459 172.38 138.876 171.286C137.997 171.612 137.361 172.11 137.063 172.638C136.468 173.694 137.911 175.618 138.762 176.057C139.102 176.224 139.66 176.404 140.333 176.561C140.284 177.44 140.188 178.135 140.092 178.693C140.339 178.63 140.643 178.556 141.028 178.494C142.028 178.324 143.355 178.38 143.355 178.38C141.286 178.236 140.985 177.523 141.064 174.954C141.085 174.149 141.888 173.438 143.077 173.217C144.266 172.997 146.314 173.393 146.314 173.393L147.551 176.213C147.626 176.184 147.7 176.156 147.775 176.127C148.458 175.813 148.808 175.371 148.956 174.9C149.017 174.239 148.949 172.279 145.774 171.719Z" fill="white" fill-opacity="0.7"/>
<path d="M140.412 173.855C140.94 173.695 141.71 173.571 142.744 173.505C143.974 173.428 145.187 173.506 146.055 173.652C146.514 175.314 147.571 177.162 148.344 178.417C148.695 178.527 149.063 178.62 149.414 178.73C148.958 178.033 148.312 176.974 147.734 175.846C147.826 175.8 147.912 175.714 147.998 175.628C148.204 175.422 148.399 175.135 148.38 174.738C148.38 174.462 148.281 174.054 147.802 173.61C147.365 173.172 146.553 172.877 145.352 172.742C144.489 172.636 143.443 172.621 142.443 172.653C139.65 172.818 138.249 173.481 138.408 174.568C138.513 175.292 139.055 175.765 139.527 176.031C139.46 177.065 139.342 177.875 139.263 178.415C139.562 178.301 139.866 178.227 140.188 178.136C140.346 177.194 140.468 175.734 140.412 173.855ZM146.958 173.901C147.125 173.965 147.258 174.063 147.327 174.132C147.534 174.34 147.552 174.46 147.564 174.541C147.564 174.679 147.473 174.862 147.352 174.983C147.179 174.603 147.069 174.252 146.958 173.901ZM139.276 174.714C139.258 174.593 139.35 174.409 139.619 174.232C139.632 174.588 139.621 174.922 139.611 175.255C139.432 175.111 139.288 174.932 139.276 174.714Z" fill="#5E12A0"/>
<path d="M134.85 181.122C129.227 186.745 130.779 197.412 138.318 204.95C145.856 212.489 156.522 214.041 162.146 208.417C167.769 202.794 166.217 192.128 158.678 184.589C151.14 177.051 140.457 175.516 134.85 181.122ZM161.385 207.656C156.071 212.97 146.009 211.506 138.885 204.383C131.762 197.259 130.297 187.197 135.611 181.883C140.925 176.569 150.988 178.033 158.111 185.157C165.235 192.28 166.681 202.36 161.385 207.656Z" fill="#5E12A0"/>
<path opacity="0.6" d="M161.385 207.656C166.694 202.347 165.228 192.273 158.111 185.156C150.994 178.039 140.92 176.573 135.611 181.882C130.302 187.191 131.768 197.265 138.885 204.382C146.002 211.499 156.075 212.965 161.385 207.656Z" fill="url(#paint14_linear_1079_32045)"/>
<path opacity="0.25" d="M159.748 206.158C153.374 210.273 143.198 207.217 137.026 199.325C134.292 195.835 132.811 192.014 132.548 188.45C132.008 192.725 133.47 197.764 136.954 202.211C143.142 210.084 153.318 213.141 159.676 209.043C163.245 206.765 164.843 202.723 164.526 198.244C164.116 201.514 162.502 204.372 159.748 206.158Z" fill="white" fill-opacity="0.7"/>
<path opacity="0.6" d="M137.326 180.536C134.371 182.431 132.753 185.525 132.464 189.087C132.475 189.168 132.487 189.248 132.487 189.248C132.627 187.91 133.18 186.296 133.18 186.296C132.561 191.249 134.168 194.575 134.168 194.575C132.439 190.679 133.638 185.515 135.993 182.884C138.348 180.252 140.973 179.609 145.112 179.759C149.274 179.931 154.904 183.153 158.288 186.778C161.689 190.385 163.149 194.596 163.149 194.596C162.458 192.014 161.826 190.247 160.966 188.664C160.666 188.227 160.366 187.789 160.008 187.363C153.86 179.495 143.701 176.421 137.326 180.536Z" fill="url(#paint15_linear_1079_32045)"/>
<path d="M157.514 185.523C164.269 192.278 165.663 201.857 160.624 206.896C155.585 211.934 145.989 210.558 139.234 203.803L157.514 185.523Z" fill="url(#paint16_linear_1079_32045)"/>
<g opacity="0.6">
<path opacity="0.6" d="M156.792 186.245C163.385 192.838 164.893 202.119 160.263 207.257C160.384 207.136 160.504 207.016 160.624 206.895C165.663 201.857 164.269 192.277 157.514 185.523L156.792 186.245Z" fill="url(#paint17_linear_1079_32045)"/>
</g>
<g opacity="0.7">
<path opacity="0.7" d="M140.524 202.513L139.234 203.803C145.989 210.558 155.568 211.952 160.607 206.913C160.83 206.689 161.037 206.483 161.22 206.254C156.03 210.522 146.979 208.968 140.524 202.513Z" fill="url(#paint18_linear_1079_32045)"/>
</g>
<path d="M157.612 185.655C156.206 184.249 153.576 185.265 150.875 187.413C148.936 188.982 147.395 190.984 146.196 193.843C145.133 196.289 143.436 197.756 142.1 198.723C139.145 200.894 137.689 202.258 139.349 203.918C141.746 206.315 148.389 205.667 152.82 199.161C155.059 195.862 155.403 193.351 156.299 190.979C157.286 188.424 158.857 186.9 157.612 185.655Z" fill="url(#paint19_linear_1079_32045)"/>
<path d="M145.681 185.968C146.535 185.113 146.299 183.491 145.154 182.345C144.008 181.199 142.386 180.963 141.531 181.818C140.676 182.673 140.912 184.295 142.058 185.441C143.204 186.586 144.826 186.822 145.681 185.968Z" fill="white"/>
<path d="M149.753 184.985C150.114 184.624 150.014 183.939 149.53 183.456C149.046 182.972 148.362 182.872 148.001 183.233C147.64 183.594 147.739 184.279 148.223 184.762C148.707 185.246 149.392 185.346 149.753 184.985Z" fill="white"/>
<g opacity="0.6">
<path opacity="0.6" d="M146.812 177.366C146.795 177.383 146.778 177.4 146.778 177.4C146.652 177.481 146.445 177.411 146.3 177.232C145.395 176.017 145.034 174.349 145.022 174.269C144.976 174.085 145.113 173.947 145.274 173.971C145.452 173.977 145.637 174.161 145.66 174.322C145.666 174.363 146.009 175.91 146.794 176.969C146.915 177.125 146.898 177.28 146.812 177.366Z" fill="url(#paint20_linear_1079_32045)"/>
</g>
<path opacity="0.2" d="M157.476 205.017C157.742 204.752 157.668 204.247 157.312 203.891C156.955 203.534 156.451 203.461 156.185 203.726C155.919 203.992 155.992 204.497 156.349 204.854C156.705 205.21 157.21 205.283 157.476 205.017Z" fill="white"/>
<g opacity="0.4">
<path opacity="0.6" d="M156.97 205.065C156.527 205 156.112 204.585 156.048 204.142C156.036 204.062 156.047 204.004 156.035 203.924C155.99 204.016 155.984 204.113 156.002 204.234C156.066 204.677 156.481 205.092 156.924 205.156C157.286 205.209 157.573 205.014 157.624 204.687C157.544 204.951 157.292 205.111 156.97 205.065Z" fill="url(#paint21_linear_1079_32045)"/>
</g>
<path opacity="0.3" d="M156.816 204.017C156.873 203.96 156.857 203.852 156.781 203.775C156.705 203.699 156.596 203.683 156.54 203.74C156.483 203.797 156.498 203.905 156.575 203.982C156.651 204.058 156.759 204.074 156.816 204.017Z" fill="white"/>
<path opacity="0.2" d="M159.664 202.184C159.93 201.919 159.857 201.414 159.5 201.058C159.144 200.701 158.639 200.628 158.373 200.894C158.107 201.159 158.181 201.664 158.537 202.021C158.894 202.377 159.398 202.45 159.664 202.184Z" fill="white"/>
<g opacity="0.4">
<path opacity="0.6" d="M159.158 202.23C158.715 202.166 158.3 201.751 158.236 201.308C158.224 201.228 158.236 201.17 158.224 201.09C158.178 201.182 158.173 201.279 158.19 201.4C158.255 201.843 158.67 202.258 159.112 202.322C159.475 202.375 159.762 202.18 159.812 201.853C159.733 202.117 159.48 202.277 159.158 202.23Z" fill="url(#paint22_linear_1079_32045)"/>
</g>
<path opacity="0.3" d="M159.005 201.184C159.062 201.127 159.046 201.018 158.97 200.942C158.894 200.866 158.786 200.85 158.729 200.907C158.672 200.964 158.687 201.072 158.764 201.148C158.84 201.225 158.948 201.241 159.005 201.184Z" fill="white"/>
<path opacity="0.2" d="M159.923 204.922C160.123 204.722 160.068 204.344 159.8 204.076C159.533 203.809 159.154 203.754 158.955 203.953C158.755 204.153 158.811 204.531 159.078 204.799C159.345 205.066 159.724 205.121 159.923 204.922Z" fill="white"/>
<g opacity="0.4">
<path opacity="0.6" d="M159.533 204.945C159.211 204.898 158.888 204.575 158.842 204.253C158.836 204.213 158.847 204.155 158.841 204.115C158.813 204.19 158.824 204.27 158.836 204.351C158.883 204.673 159.206 204.995 159.528 205.042C159.81 205.083 160.005 204.934 160.044 204.664C159.976 204.871 159.775 204.98 159.533 204.945Z" fill="url(#paint23_linear_1079_32045)"/>
</g>
<path opacity="0.3" d="M159.398 204.156C159.436 204.118 159.425 204.046 159.374 203.995C159.323 203.944 159.251 203.934 159.213 203.972C159.175 204.01 159.186 204.082 159.237 204.133C159.288 204.184 159.36 204.194 159.398 204.156Z" fill="white"/>
<path opacity="0.2" d="M161.796 202.358C161.995 202.158 161.94 201.78 161.673 201.512C161.405 201.245 161.027 201.19 160.828 201.389C160.628 201.589 160.683 201.967 160.951 202.235C161.218 202.502 161.596 202.557 161.796 202.358Z" fill="white"/>
<g opacity="0.4">
<path opacity="0.6" d="M161.406 202.381C161.084 202.334 160.761 202.011 160.714 201.689C160.708 201.649 160.72 201.591 160.714 201.551C160.685 201.626 160.697 201.706 160.709 201.787C160.756 202.109 161.078 202.432 161.4 202.478C161.682 202.519 161.877 202.37 161.917 202.1C161.848 202.307 161.647 202.416 161.406 202.381Z" fill="url(#paint24_linear_1079_32045)"/>
</g>
<path opacity="0.3" d="M161.271 201.592C161.309 201.554 161.299 201.482 161.248 201.431C161.197 201.38 161.125 201.37 161.087 201.408C161.049 201.446 161.059 201.518 161.11 201.569C161.161 201.619 161.233 201.63 161.271 201.592Z" fill="white"/>
<path opacity="0.2" d="M155.198 206.835C155.635 206.398 155.514 205.569 154.928 204.983C154.342 204.398 153.514 204.277 153.077 204.714C152.64 205.151 152.76 205.98 153.346 206.565C153.932 207.151 154.761 207.272 155.198 206.835Z" fill="white"/>
<g opacity="0.4">
<path opacity="0.6" d="M154.359 206.89C153.635 206.784 152.966 206.116 152.861 205.391C152.843 205.27 152.849 205.173 152.872 205.058C152.814 205.207 152.821 205.385 152.827 205.564C152.932 206.288 153.601 206.957 154.325 207.062C154.929 207.15 155.394 206.823 155.45 206.26C155.319 206.714 154.906 206.989 154.359 206.89Z" fill="url(#paint25_linear_1079_32045)"/>
</g>
<path opacity="0.3" d="M154.09 205.176C154.185 205.081 154.158 204.901 154.031 204.774C153.904 204.646 153.724 204.62 153.629 204.715C153.534 204.81 153.56 204.99 153.687 205.118C153.815 205.245 153.995 205.271 154.09 205.176Z" fill="white"/>
<path opacity="0.2" d="M159.661 197.162C160.098 196.725 159.977 195.896 159.392 195.31C158.806 194.725 157.977 194.604 157.54 195.041C157.103 195.478 157.224 196.307 157.81 196.892C158.395 197.478 159.224 197.599 159.661 197.162Z" fill="white"/>
<g opacity="0.4">
<path opacity="0.6" d="M158.804 197.235C158.08 197.129 157.411 196.461 157.306 195.736C157.288 195.615 157.294 195.518 157.316 195.403C157.259 195.552 157.266 195.73 157.272 195.909C157.377 196.633 158.046 197.302 158.77 197.407C159.374 197.495 159.839 197.169 159.895 196.605C159.764 197.059 159.368 197.317 158.804 197.235Z" fill="url(#paint26_linear_1079_32045)"/>
</g>
<path opacity="0.3" d="M158.552 195.504C158.647 195.409 158.621 195.229 158.493 195.101C158.366 194.974 158.186 194.948 158.091 195.043C157.996 195.138 158.022 195.318 158.15 195.445C158.277 195.572 158.457 195.599 158.552 195.504Z" fill="white"/>
</g>
</g>
<defs>
<radialGradient id="paint0_radial_1079_32045" cx="0" cy="0" r="1" gradientUnits="userSpaceOnUse" gradientTransform="translate(5.70002 380.93) rotate(-46.3316) scale(292.294 441.586)">
<stop stop-color="#F530E4"/>
<stop offset="0.352923" stop-color="#7E1BFD"/>
<stop offset="0.77" stop-color="#4C1E98" stop-opacity="0.446602"/>
<stop offset="1" stop-color="#232047" stop-opacity="0"/>
</radialGradient>
<radialGradient id="paint1_radial_1079_32045" cx="0" cy="0" r="1" gradientUnits="userSpaceOnUse" gradientTransform="translate(608 390) rotate(-130.146) scale(219.779 255.732)">
<stop offset="0.012061" stop-color="#8A03A0"/>
<stop offset="0.428159" stop-color="#3D25BE" stop-opacity="0.4"/>
<stop offset="1" stop-color="#361FB3" stop-opacity="0"/>
</radialGradient>
<radialGradient id="paint2_radial_1079_32045" cx="0" cy="0" r="1" gradientUnits="userSpaceOnUse" gradientTransform="translate(136.403 225.955) rotate(-78.211) scale(236.777 377.977)">
<stop stop-color="#FFD0B6"/>
<stop offset="0.235951" stop-color="#FA7733"/>
<stop offset="0.58259" stop-color="#E9318E" stop-opacity="0.65"/>
<stop offset="1" stop-color="#6A1BD4" stop-opacity="0"/>
</radialGradient>
<linearGradient id="paint3_linear_1079_32045" x1="205.479" y1="280.35" x2="89.9329" y2="133.445" gradientUnits="userSpaceOnUse">
<stop stop-color="#310057"/>
<stop offset="0.567637" stop-color="#FF2EDE"/>
<stop offset="1" stop-color="#FF8642"/>
</linearGradient>
<radialGradient id="paint4_radial_1079_32045" cx="0" cy="0" r="1" gradientUnits="userSpaceOnUse" gradientTransform="translate(181.641 140.386) rotate(126.466) scale(135.744 166.876)">
<stop stop-color="#FFD4BC"/>
<stop offset="0.32" stop-color="#FB902D"/>
<stop offset="0.71" stop-color="#E134C6"/>
<stop offset="1" stop-color="#B434E1"/>
</radialGradient>
<linearGradient id="paint5_linear_1079_32045" x1="193.398" y1="147.869" x2="97.2241" y2="242.977" gradientUnits="userSpaceOnUse">
<stop stop-color="#FFDCBD"/>
<stop offset="0.445474" stop-color="#FF43BB"/>
<stop offset="1" stop-color="#F9B4FF"/>
</linearGradient>
<linearGradient id="paint6_linear_1079_32045" x1="107.374" y1="168.214" x2="104.82" y2="158.28" gradientUnits="userSpaceOnUse">
<stop stop-color="white"/>
<stop offset="1" stop-color="#EB578E" stop-opacity="0"/>
</linearGradient>
<linearGradient id="paint7_linear_1079_32045" x1="172.196" y1="215.269" x2="152.797" y2="229.357" gradientUnits="userSpaceOnUse">
<stop stop-color="#FFD8F6"/>
<stop offset="1" stop-color="white" stop-opacity="0"/>
</linearGradient>
<linearGradient id="paint8_linear_1079_32045" x1="89.8424" y1="138.744" x2="63.787" y2="187.69" gradientUnits="userSpaceOnUse">
<stop stop-color="white"/>
<stop offset="1" stop-color="white" stop-opacity="0"/>
</linearGradient>
<linearGradient id="paint9_linear_1079_32045" x1="151.312" y1="141.123" x2="175.827" y2="173.001" gradientUnits="userSpaceOnUse">
<stop stop-color="#FFD8F6"/>
<stop offset="1" stop-color="white" stop-opacity="0"/>
</linearGradient>
<linearGradient id="paint10_linear_1079_32045" x1="190.089" y1="212.258" x2="187.215" y2="223.422" gradientUnits="userSpaceOnUse">
<stop stop-color="#FFD8F6"/>
<stop offset="1" stop-color="white" stop-opacity="0"/>
</linearGradient>
<linearGradient id="paint11_linear_1079_32045" x1="188.531" y1="192.096" x2="158.487" y2="197.076" gradientUnits="userSpaceOnUse">
<stop stop-color="#FFD8F6"/>
<stop offset="1" stop-color="white" stop-opacity="0"/>
</linearGradient>
<radialGradient id="paint12_radial_1079_32045" cx="0" cy="0" r="1" gradientUnits="userSpaceOnUse" gradientTransform="translate(144.531 179.128) rotate(-60.548) scale(18.3339 24.5779)">
<stop stop-color="#FFEAFF" stop-opacity="0.6"/>
<stop offset="0.6807" stop-color="#A087C9" stop-opacity="0.19"/>
<stop offset="1" stop-color="#AB80FF" stop-opacity="0.06"/>
</radialGradient>
<radialGradient id="paint13_radial_1079_32045" cx="0" cy="0" r="1" gradientUnits="userSpaceOnUse" gradientTransform="translate(145.978 179.52) rotate(-45) scale(26.594 35.651)">
<stop stop-color="#FFEAFF" stop-opacity="0.6"/>
<stop offset="0.6807" stop-color="#A087C9" stop-opacity="0.21"/>
<stop offset="1" stop-color="#F1EAFF" stop-opacity="0"/>
</radialGradient>
<linearGradient id="paint14_linear_1079_32045" x1="159.66" y1="209.015" x2="140.154" y2="178.679" gradientUnits="userSpaceOnUse">
<stop stop-color="#81FFFF"/>
<stop offset="0.6202" stop-color="white" stop-opacity="0"/>
</linearGradient>
<linearGradient id="paint15_linear_1079_32045" x1="146.521" y1="179.243" x2="141.103" y2="191.623" gradientUnits="userSpaceOnUse">
<stop offset="0.2888" stop-color="white"/>
<stop offset="0.7796" stop-color="white" stop-opacity="0"/>
</linearGradient>
<linearGradient id="paint16_linear_1079_32045" x1="145.355" y1="209.909" x2="163.623" y2="191.641" gradientUnits="userSpaceOnUse">
<stop stop-color="#0002E9"/>
<stop offset="0.9952" stop-color="#FF00C7"/>
</linearGradient>
<linearGradient id="paint17_linear_1079_32045" x1="159.449" y1="185.736" x2="155.739" y2="207.175" gradientUnits="userSpaceOnUse">
<stop offset="0.2888" stop-color="white"/>
<stop offset="0.7796" stop-color="white" stop-opacity="0"/>
</linearGradient>
<linearGradient id="paint18_linear_1079_32045" x1="145.355" y1="209.909" x2="155.129" y2="200.136" gradientUnits="userSpaceOnUse">
<stop stop-color="#000292"/>
<stop offset="0.9952" stop-color="#7D00C7"/>
</linearGradient>
<linearGradient id="paint19_linear_1079_32045" x1="145.464" y1="207.428" x2="153.55" y2="189.391" gradientUnits="userSpaceOnUse">
<stop stop-color="#070993"/>
<stop offset="1" stop-color="#BE00C7"/>
</linearGradient>
<linearGradient id="paint20_linear_1079_32045" x1="145.213" y1="173.854" x2="145.623" y2="178.13" gradientUnits="userSpaceOnUse">
<stop offset="0.2888" stop-color="white"/>
<stop offset="0.7796" stop-color="white" stop-opacity="0"/>
</linearGradient>
<linearGradient id="paint21_linear_1079_32045" x1="156.363" y1="204.88" x2="157.091" y2="204.153" gradientUnits="userSpaceOnUse">
<stop offset="0.2888" stop-color="white"/>
<stop offset="0.7796" stop-color="white" stop-opacity="0"/>
</linearGradient>
<linearGradient id="paint22_linear_1079_32045" x1="158.546" y1="202.044" x2="159.273" y2="201.316" gradientUnits="userSpaceOnUse">
<stop offset="0.2888" stop-color="white"/>
<stop offset="0.7796" stop-color="white" stop-opacity="0"/>
</linearGradient>
<linearGradient id="paint23_linear_1079_32045" x1="159.082" y1="204.807" x2="159.628" y2="204.261" gradientUnits="userSpaceOnUse">
<stop offset="0.2888" stop-color="white"/>
<stop offset="0.7796" stop-color="white" stop-opacity="0"/>
</linearGradient>
<linearGradient id="paint24_linear_1079_32045" x1="160.946" y1="202.25" x2="161.493" y2="201.704" gradientUnits="userSpaceOnUse">
<stop offset="0.2888" stop-color="white"/>
<stop offset="0.7796" stop-color="white" stop-opacity="0"/>
</linearGradient>
<linearGradient id="paint25_linear_1079_32045" x1="153.375" y1="206.591" x2="154.563" y2="205.403" gradientUnits="userSpaceOnUse">
<stop offset="0.2888" stop-color="white"/>
<stop offset="0.7796" stop-color="white" stop-opacity="0"/>
</linearGradient>
<linearGradient id="paint26_linear_1079_32045" x1="157.825" y1="196.929" x2="159.014" y2="195.741" gradientUnits="userSpaceOnUse">
<stop offset="0.2888" stop-color="white"/>
<stop offset="0.7796" stop-color="white" stop-opacity="0"/>
</linearGradient>
<clipPath id="clip0_1079_32045">
<rect width="402" height="390" fill="white"/>
</clipPath>
<clipPath id="clip1_1079_32045">
<rect width="34.366" height="45.1474" fill="white" transform="translate(119.102 189.124) rotate(-45)"/>
</clipPath>
</defs>
</svg>
