<svg width="342" height="638" viewBox="0 0 342 638" fill="none" xmlns="http://www.w3.org/2000/svg">
<rect width="342" height="641" transform="matrix(-1 0 0 1 342 -1.8208)" fill="url(#paint0_radial_1023_35379)" fill-opacity="0.7"/>
<g clip-path="url(#clip0_1023_35379)">
<g opacity="0.25">
<ellipse cx="176.034" cy="101.364" rx="176.034" ry="101.364" transform="matrix(-0.87439 0.485224 0.474911 0.880033 288.917 366.956)" stroke="#F7F7F7" stroke-width="1.36013"/>
<ellipse cx="116.079" cy="66.8405" rx="116.079" ry="66.8405" transform="matrix(-0.87439 0.485224 0.474911 0.880033 269.284 456.81)" stroke="#F7F7F7" stroke-width="1.36013"/>
<ellipse cx="60.5039" cy="34.8393" rx="60.5039" ry="34.8393" transform="matrix(-0.87439 0.485224 0.474911 0.880033 251.087 540.102)" stroke="#F7F7F7" stroke-width="1.36013"/>
<ellipse cx="246.055" cy="146.579" rx="246.055" ry="146.579" transform="matrix(-0.87439 0.485224 0.474911 0.880033 318.681 274.678)" stroke="#F7F7F7" stroke-width="1.36013"/>
<path d="M289.723 589.966C304.056 589.942 338.111 604.287 359.669 661.86" stroke="white" stroke-opacity="0.73" stroke-width="1.36013"/>
<path d="M261.599 347.372C213.685 382 199.27 485.011 259.685 565.083" stroke="#F7F7F7" stroke-width="1.36013"/>
<path d="M-49.4003 624.172C-11.9359 592.116 90.4864 578.565 153.731 630.488" stroke="#F7F7F7" stroke-width="1.36013"/>
<path d="M183.489 578.699C129.645 481.703 65.2842 450.24 31.5988 444.907" stroke="#F7F7F7" stroke-width="1.36013"/>
<path d="M380.362 391.889C333.784 391.611 247.72 456.389 282.153 565.876" stroke="#F7F7F7" stroke-width="1.36013"/>
<path d="M330.333 537.178C338.35 528.333 366.263 514.929 413.775 532.077" stroke="white" stroke-opacity="0.73" stroke-width="1.36013"/>
</g>
<ellipse cx="175.697" cy="101.556" rx="175.697" ry="101.556" transform="matrix(-0.87489 0.484322 0.475791 0.879558 288.568 367.182)" fill="url(#paint1_radial_1023_35379)"/>
<path fill-rule="evenodd" clip-rule="evenodd" d="M87.6218 548.002C60.4255 520.503 67.5663 468.694 103.571 432.286C139.576 395.877 190.811 388.655 218.008 416.154C218.105 416.253 218.202 416.352 218.299 416.451L218.301 416.45L233.236 431.552L233.234 431.553C260.641 459.791 253.92 511.821 218.076 548.067C182.232 584.313 130.778 591.111 102.852 563.398L102.85 563.4L102.521 563.067L102.477 563.022L102.433 562.978L87.915 548.298L87.9157 548.297C87.8174 548.199 87.7195 548.101 87.6218 548.002Z" fill="url(#paint2_linear_1023_35379)"/>
<path d="M91.5611 545.763C78.1111 532.163 73.1592 512.756 75.8034 492.568C78.4472 472.381 88.6844 451.286 105.798 433.98C122.912 416.674 143.774 406.322 163.737 403.648C183.702 400.974 202.894 405.98 216.344 419.581C229.794 433.181 234.746 452.587 232.101 472.776C229.458 492.962 219.221 514.058 202.107 531.363C184.993 548.669 164.131 559.021 144.168 561.695C124.203 564.369 105.011 559.363 91.5611 545.763Z" fill="url(#paint3_radial_1023_35379)" stroke="url(#paint4_linear_1023_35379)" stroke-width="4.33308"/>
<g style="mix-blend-mode:soft-light">
<path d="M168.427 411.767L131.887 448.41C130.322 449.98 128.301 451.002 126.12 451.329L120.046 452.239C116.808 452.724 113.533 451.63 111.218 449.289L106.994 445.018" stroke="white" stroke-opacity="0.77" stroke-width="1.29992"/>
<path d="M112.213 439.524C97.1733 454.732 88.0995 473.056 85.5641 490.366C83.0286 507.676 87.0325 523.926 98.0787 535.096C109.125 546.265 125.195 550.313 142.314 547.749C159.433 545.185 177.554 536.009 192.593 520.801C207.632 505.593 216.706 487.269 219.242 469.959C221.777 452.648 217.773 436.398 206.727 425.229C195.681 414.06 179.61 410.011 162.492 412.576C145.373 415.14 127.252 424.316 112.213 439.524Z" stroke="white" stroke-opacity="0.77" stroke-width="1.29992"/>
<path d="M168.677 497.386L177.417 506.224C179.732 508.565 180.814 511.876 180.334 515.15L180.19 516.131C179.711 519.406 180.793 522.717 183.108 525.058L185.356 527.331" stroke="white" stroke-opacity="0.77" stroke-width="1.29992"/>
<path d="M197.809 515.306L182.701 500.03C180.6 497.905 180.6 494.461 182.701 492.336V492.336C184.802 490.211 188.209 490.211 190.31 492.336L204.571 506.756" stroke="white" stroke-opacity="0.77" stroke-width="1.29992"/>
<path d="M209.905 428.291L195.963 442.389C194.394 443.976 193.371 446.032 193.046 448.251L190.907 462.858C190.582 465.078 189.559 467.133 187.989 468.72C185.22 471.521 182.773 473.995 179.754 477.048" stroke="white" stroke-opacity="0.77" stroke-width="1.29992"/>
<path d="M101.105 538.313L115.047 524.215C116.616 522.628 118.649 521.594 120.844 521.265L135.289 519.101C137.485 518.772 139.517 517.738 141.086 516.151L149.322 507.823" stroke="white" stroke-opacity="0.77" stroke-width="1.29992"/>
<path d="M203.979 422.297L190.038 436.395C188.468 437.982 186.436 439.017 184.24 439.345L169.795 441.509C167.6 441.838 165.567 442.872 163.998 444.459L156.524 452.018" stroke="white" stroke-opacity="0.77" stroke-width="1.29992"/>
<path d="M95.1774 532.319L109.119 518.221C110.688 516.634 111.711 514.579 112.036 512.359L114.176 497.752C114.501 495.532 115.524 493.477 117.093 491.89L124.568 484.332" stroke="white" stroke-opacity="0.77" stroke-width="1.29992"/>
<path d="M178.5 412.098L117.3 473.986L114.83 476.483L112.361 478.98L102.257 489.197C100.687 490.784 99.6647 492.839 99.3395 495.059L98.5692 500.318C98.2471 502.517 97.2405 504.555 95.6953 506.136L86.7485 515.292" stroke="white" stroke-opacity="0.77" stroke-width="1.29992"/>
<path d="M96.9931 457.986L115.059 476.253" stroke="white" stroke-opacity="0.77" stroke-width="1.29992"/>
<path d="M214.796 487.856L205.491 478.448C203.176 476.107 202.094 472.796 202.573 469.521L202.979 466.753C203.304 464.533 204.327 462.478 205.896 460.891L219.077 447.563" stroke="white" stroke-opacity="0.77" stroke-width="1.29992"/>
<path d="M176.235 534.268L167.495 525.431C165.18 523.09 161.906 521.996 158.667 522.481L146.652 524.281C144.457 524.61 142.424 525.644 140.855 527.231L120.826 547.484" stroke="white" stroke-opacity="0.77" stroke-width="1.29992"/>
<path d="M135.923 463.499C129.708 469.784 125.969 477.346 124.926 484.47C123.883 491.594 125.535 498.233 130.034 502.782C134.533 507.331 141.098 509.002 148.144 507.946C155.189 506.891 162.667 503.11 168.882 496.826C175.097 490.541 178.836 482.979 179.879 475.855C180.923 468.731 179.27 462.092 174.771 457.543C170.272 452.994 163.707 451.323 156.661 452.378C149.616 453.434 142.138 457.215 135.923 463.499Z" stroke="white" stroke-opacity="0.77" stroke-width="1.29992"/>
</g>
<path d="M193.548 444.832L191.978 455.554" stroke="url(#paint5_linear_1023_35379)" stroke-width="1.73323" stroke-linecap="round"/>
<path d="M129.577 503.243C138.931 512.701 156.733 510.034 169.339 497.287" stroke="url(#paint6_linear_1023_35379)" stroke-width="1.73323" stroke-linecap="round"/>
<path d="M193.05 521.263C223.305 490.669 229.633 447.466 207.184 424.766" stroke="url(#paint7_linear_1023_35379)" stroke-width="1.73323" stroke-linecap="round"/>
<path d="M106.995 445.017L111.219 449.288C113.534 451.629 116.808 452.723 120.047 452.238L126.121 451.328C128.302 451.001 130.322 449.978 131.888 448.408L148.953 431.295" stroke="url(#paint8_linear_1023_35379)" stroke-width="1.73323" stroke-linecap="round"/>
<path d="M95.1794 532.319L109.121 518.221C110.69 516.634 111.713 514.579 112.038 512.359L114.178 497.752C114.503 495.532 115.526 493.477 117.095 491.89L117.924 491.052" stroke="url(#paint9_linear_1023_35379)" stroke-width="1.73323" stroke-linecap="round"/>
<path d="M178.5 412.098L117.299 473.986L114.829 476.483L112.36 478.98" stroke="url(#paint10_linear_1023_35379)" stroke-width="1.73323" stroke-linecap="round"/>
<g clip-path="url(#clip1_1023_35379)">
<path fill-rule="evenodd" clip-rule="evenodd" d="M175.422 469.636C175.831 472.592 175.62 474.799 174.763 476.505C174.3 477.488 173.353 478.364 172.352 478.794C171.35 479.225 170.358 479.127 169.588 478.528C169.296 478.302 169.048 478.02 168.843 477.682C167.707 478.544 166.675 479.444 165.897 480.317L165.616 480.635C166.826 475.982 166.511 471.443 164.634 467.928C164.739 467.964 165.559 468.198 167.356 468.161C167.426 467.813 167.539 467.453 167.629 467.165C167.963 466.261 168.978 465.126 170.025 464.507C170.902 463.98 171.75 463.833 172.379 464.097C172.631 464.203 172.861 464.337 173.09 464.515C174.235 465.404 175.087 467.273 175.422 469.636ZM174.006 476.276C173.237 477.782 170.95 479.138 169.597 476.969C169.495 476.756 169.372 476.571 169.248 476.43C168.605 476.871 167.877 477.379 167.146 478.02C167.63 474.817 167.351 471.737 166.323 469.105C166.445 469.103 166.572 469.102 166.703 469.101C167.119 469.098 167.585 469.094 168.1 469.052C168.177 468.307 168.295 467.683 168.429 467.295C168.786 466.319 170.66 464.507 171.876 465.004C173.092 465.501 174.178 467.327 174.548 470.031C174.919 472.735 174.754 474.754 174.006 476.276Z" fill="#5E12A0"/>
<path d="M169.597 476.969C170.95 479.138 173.237 477.782 174.006 476.276C174.754 474.754 174.919 472.735 174.548 470.031C174.177 467.327 173.092 465.501 171.876 465.004C170.66 464.507 168.786 466.319 168.429 467.295C168.295 467.683 168.177 468.307 168.1 469.052C167.422 469.108 166.831 469.096 166.323 469.105C167.351 471.737 167.63 474.817 167.146 478.02C167.877 477.379 168.605 476.871 169.248 476.43C169.372 476.571 169.495 476.756 169.597 476.969Z" fill="url(#paint11_radial_1023_35379)"/>
<path d="M137.51 495.907C143.94 500.898 154.575 497.956 161.265 489.337C167.955 480.718 168.167 469.685 161.737 464.695C155.308 459.704 144.672 462.646 137.982 471.265C131.292 479.884 131.081 490.917 137.51 495.907Z" fill="url(#paint12_radial_1023_35379)"/>
<path opacity="0.6" d="M174.045 474.248C174.196 470.786 173.318 469.165 172.083 467.446C171.137 466.085 172.207 465.395 173.576 466.77C173.107 465.87 172.484 465.252 171.876 465.004C170.66 464.507 168.787 466.319 168.43 467.295C168.295 467.683 168.178 468.307 168.1 469.052C167.148 469.118 166.387 469.109 165.775 469.081C165.875 469.339 165.996 469.656 166.115 470.062C166.433 471.114 166.554 472.549 166.554 472.549C166.428 470.304 167.154 469.884 169.928 469.621C170.796 469.534 171.669 470.301 172.068 471.55C172.467 472.799 172.318 475.055 172.318 475.055L169.453 476.768C169.494 476.845 169.535 476.921 169.575 476.997C170.006 477.69 170.528 478.005 171.055 478.101C171.774 478.078 173.873 477.738 174.045 474.248Z" fill="white" fill-opacity="0.7"/>
<path d="M171.021 468.77C171.265 469.316 171.503 470.128 171.714 471.231C171.964 472.543 172.044 473.859 172.005 474.812C170.279 475.531 168.435 476.918 167.19 477.92C167.119 478.312 167.069 478.721 166.998 479.113C167.685 478.528 168.737 477.689 169.872 476.915C169.934 477.007 170.038 477.088 170.142 477.169C170.392 477.363 170.727 477.533 171.151 477.46C171.448 477.422 171.873 477.26 172.286 476.686C172.698 476.155 172.905 475.243 172.888 473.932C172.885 472.99 172.759 471.863 172.589 470.792C172.033 467.81 171.13 466.394 169.983 466.711C169.218 466.923 168.783 467.569 168.561 468.113C167.44 468.182 166.552 468.164 165.961 468.152C166.124 468.458 166.245 468.775 166.386 469.109C167.421 469.152 169.007 469.086 171.021 468.77ZM171.859 475.817C171.813 476.005 171.725 476.161 171.66 476.245C171.465 476.496 171.338 476.531 171.253 476.555C171.104 476.574 170.894 476.5 170.749 476.387C171.134 476.149 171.496 475.983 171.859 475.817ZM169.944 467.665C170.071 467.629 170.281 467.703 170.508 467.969C170.127 468.031 169.767 468.064 169.407 468.098C169.538 467.887 169.71 467.707 169.944 467.665Z" fill="#5E12A0"/>
<path d="M162.452 463.774C155.642 458.488 144.38 461.603 137.294 470.732C130.208 479.861 129.985 491.543 136.795 496.829C143.605 502.115 154.866 499 161.952 489.871C169.038 480.742 169.241 469.043 162.452 463.774ZM137.51 495.908C131.075 490.913 131.286 479.892 137.982 471.265C144.678 462.638 155.301 459.7 161.737 464.695C168.172 469.69 167.961 480.711 161.265 489.337C154.569 497.964 143.924 500.886 137.51 495.908Z" fill="#5E12A0"/>
<path opacity="0.6" d="M137.51 495.907C143.94 500.898 154.575 497.956 161.265 489.337C167.955 480.718 168.167 469.685 161.737 464.695C155.308 459.704 144.672 462.646 137.982 471.265C131.292 479.884 131.081 490.917 137.51 495.907Z" fill="url(#paint13_linear_1023_35379)"/>
<path opacity="0.25" d="M138.9 493.944C133.61 487.646 135.518 476.288 143.169 468.581C146.552 465.167 150.461 463.056 154.258 462.29C149.588 462.289 144.366 464.544 140.056 468.894C132.426 476.617 130.518 487.975 135.787 494.257C138.721 497.787 143.285 498.958 148.058 498.011C144.486 498.012 141.194 496.664 138.9 493.944Z" fill="white" fill-opacity="0.7"/>
<path opacity="0.6" d="M163.417 466.357C160.979 463.435 157.433 462.114 153.562 462.286C153.477 462.31 153.392 462.333 153.392 462.333C154.851 462.302 156.661 462.679 156.661 462.679C151.25 462.684 147.89 464.863 147.89 464.863C151.846 462.476 157.562 463.065 160.712 465.241C163.862 467.418 164.909 470.154 165.309 474.625C165.688 479.125 162.985 485.617 159.545 489.747C156.127 493.894 151.795 496.035 151.795 496.035C154.479 494.941 156.293 494.023 157.879 492.883C158.309 492.501 158.739 492.119 159.149 491.677C166.778 483.998 168.707 472.655 163.417 466.357Z" fill="url(#paint14_linear_1023_35379)"/>
<path d="M160.79 488.745C154.441 496.925 144.327 499.723 138.225 494.986C132.123 490.25 132.303 479.742 138.652 471.562L160.79 488.745Z" fill="url(#paint15_linear_1023_35379)"/>
<g opacity="0.6">
<path opacity="0.6" d="M159.916 488.066C153.718 496.051 143.941 498.931 137.788 494.647C137.933 494.76 138.079 494.873 138.225 494.986C144.327 499.723 154.441 496.925 160.79 488.745L159.916 488.066Z" fill="url(#paint16_linear_1023_35379)"/>
</g>
<g opacity="0.7">
<path opacity="0.7" d="M140.214 472.774L138.652 471.562C132.303 479.742 132.102 490.234 138.204 494.97C138.475 495.18 138.725 495.374 138.996 495.54C133.702 490.537 134.147 480.592 140.214 472.774Z" fill="url(#paint17_linear_1023_35379)"/>
</g>
<path d="M160.661 488.868C161.983 487.165 160.534 484.474 157.858 481.86C155.907 479.988 153.545 478.602 150.308 477.7C147.533 476.889 145.726 475.262 144.504 473.955C141.769 471.072 140.105 469.691 138.544 471.701C136.291 474.605 137.889 481.661 145.486 485.545C149.338 487.505 152.085 487.535 154.757 488.177C157.639 488.893 159.491 490.376 160.661 488.868Z" fill="url(#paint18_linear_1023_35379)"/>
<path d="M158.708 476.078C159.743 476.882 161.455 476.408 162.532 475.021C163.61 473.633 163.644 471.857 162.608 471.053C161.573 470.25 159.861 470.723 158.784 472.111C157.707 473.499 157.673 475.275 158.708 476.078Z" fill="white"/>
<path d="M160.317 480.325C160.754 480.664 161.477 480.464 161.931 479.878C162.386 479.292 162.401 478.542 161.963 478.203C161.526 477.864 160.803 478.064 160.349 478.649C159.894 479.235 159.88 479.985 160.317 480.325Z" fill="white"/>
<g opacity="0.6">
<path opacity="0.6" d="M168.112 476.13C168.092 476.114 168.071 476.097 168.071 476.097C167.967 475.972 168.014 475.74 168.187 475.561C169.371 474.422 171.116 473.808 171.201 473.785C171.392 473.71 171.559 473.839 171.556 474.015C171.573 474.208 171.4 474.431 171.23 474.478C171.187 474.49 169.57 475.069 168.537 476.056C168.386 476.208 168.217 476.211 168.112 476.13Z" fill="url(#paint19_linear_1023_35379)"/>
</g>
<path opacity="0.2" d="M139.818 491.346C140.14 491.596 140.673 491.449 141.008 491.017C141.343 490.585 141.354 490.033 141.032 489.783C140.71 489.533 140.177 489.68 139.842 490.112C139.507 490.543 139.496 491.096 139.818 491.346Z" fill="white"/>
<g opacity="0.4">
<path opacity="0.6" d="M139.699 490.808C139.709 490.323 140.099 489.82 140.566 489.691C140.651 489.667 140.714 489.672 140.799 489.648C140.694 489.612 140.588 489.619 140.461 489.654C139.994 489.783 139.603 490.286 139.594 490.771C139.587 491.168 139.835 491.45 140.194 491.46C139.899 491.41 139.692 491.16 139.699 490.808Z" fill="url(#paint20_linear_1023_35379)"/>
</g>
<path opacity="0.3" d="M140.805 490.501C140.874 490.554 140.988 490.523 141.06 490.43C141.132 490.338 141.134 490.219 141.065 490.166C140.996 490.112 140.882 490.144 140.81 490.236C140.738 490.329 140.736 490.447 140.805 490.501Z" fill="white"/>
<path opacity="0.2" d="M143.162 493.316C143.484 493.566 144.016 493.418 144.351 492.987C144.687 492.555 144.697 492.002 144.375 491.752C144.053 491.502 143.52 491.65 143.185 492.081C142.85 492.513 142.84 493.066 143.162 493.316Z" fill="white"/>
<g opacity="0.4">
<path opacity="0.6" d="M143.044 492.777C143.053 492.292 143.443 491.79 143.911 491.661C143.996 491.637 144.059 491.642 144.144 491.618C144.039 491.581 143.933 491.589 143.806 491.624C143.338 491.753 142.948 492.256 142.939 492.741C142.931 493.137 143.18 493.419 143.539 493.43C143.244 493.38 143.037 493.13 143.044 492.777Z" fill="url(#paint21_linear_1023_35379)"/>
</g>
<path opacity="0.3" d="M144.149 492.471C144.218 492.525 144.332 492.493 144.404 492.401C144.476 492.308 144.478 492.19 144.409 492.136C144.34 492.082 144.226 492.114 144.154 492.207C144.082 492.299 144.08 492.418 144.149 492.471Z" fill="white"/>
<path opacity="0.2" d="M140.253 493.965C140.494 494.152 140.894 494.042 141.145 493.718C141.397 493.394 141.405 492.98 141.163 492.792C140.921 492.605 140.522 492.715 140.271 493.039C140.019 493.363 140.011 493.777 140.253 493.965Z" fill="white"/>
<g opacity="0.4">
<path opacity="0.6" d="M140.175 493.549C140.182 493.196 140.486 492.805 140.826 492.711C140.868 492.699 140.931 492.704 140.974 492.692C140.89 492.672 140.805 492.695 140.72 492.719C140.38 492.813 140.076 493.203 140.07 493.556C140.064 493.865 140.25 494.054 140.546 494.06C140.314 494.015 140.17 493.813 140.175 493.549Z" fill="url(#paint22_linear_1023_35379)"/>
</g>
<path opacity="0.3" d="M141.004 493.296C141.05 493.332 141.126 493.311 141.174 493.249C141.222 493.188 141.224 493.109 141.178 493.073C141.132 493.037 141.056 493.058 141.008 493.12C140.96 493.182 140.958 493.261 141.004 493.296Z" fill="white"/>
<path opacity="0.2" d="M143.264 495.632C143.506 495.819 143.905 495.709 144.157 495.385C144.408 495.061 144.416 494.647 144.174 494.459C143.933 494.272 143.533 494.382 143.282 494.706C143.031 495.03 143.023 495.444 143.264 495.632Z" fill="white"/>
<g opacity="0.4">
<path opacity="0.6" d="M143.187 495.216C143.194 494.863 143.497 494.472 143.837 494.378C143.88 494.366 143.943 494.371 143.985 494.359C143.901 494.338 143.816 494.362 143.731 494.385C143.391 494.479 143.088 494.87 143.081 495.223C143.075 495.531 143.262 495.721 143.558 495.727C143.326 495.681 143.182 495.48 143.187 495.216Z" fill="url(#paint23_linear_1023_35379)"/>
</g>
<path opacity="0.3" d="M144.017 494.964C144.063 495 144.139 494.978 144.187 494.917C144.235 494.855 144.236 494.776 144.19 494.74C144.144 494.705 144.068 494.726 144.02 494.787C143.972 494.849 143.971 494.928 144.017 494.964Z" fill="white"/>
<path opacity="0.2" d="M137.555 489.142C138.084 489.552 138.959 489.31 139.51 488.601C140.06 487.892 140.078 486.984 139.549 486.573C139.019 486.162 138.144 486.405 137.594 487.114C137.043 487.823 137.026 488.731 137.555 489.142Z" fill="white"/>
<g opacity="0.4">
<path opacity="0.6" d="M137.382 488.248C137.397 487.454 138.026 486.645 138.791 486.433C138.918 486.398 139.024 486.391 139.151 486.399C138.982 486.358 138.791 486.389 138.601 486.42C137.836 486.632 137.207 487.441 137.192 488.235C137.179 488.896 137.593 489.352 138.207 489.335C137.701 489.256 137.349 488.849 137.382 488.248Z" fill="url(#paint24_linear_1023_35379)"/>
</g>
<path opacity="0.3" d="M139.189 487.726C139.304 487.815 139.494 487.762 139.613 487.608C139.733 487.454 139.737 487.257 139.622 487.167C139.507 487.078 139.317 487.131 139.197 487.285C139.077 487.439 139.074 487.636 139.189 487.726Z" fill="white"/>
<path opacity="0.2" d="M148.563 492.632C149.092 493.042 149.967 492.8 150.518 492.091C151.068 491.382 151.086 490.474 150.556 490.063C150.027 489.652 149.152 489.895 148.602 490.604C148.051 491.313 148.034 492.221 148.563 492.632Z" fill="white"/>
<g opacity="0.4">
<path opacity="0.6" d="M148.369 491.72C148.384 490.926 149.012 490.117 149.777 489.905C149.905 489.87 150.01 489.863 150.137 489.871C149.969 489.83 149.778 489.861 149.587 489.892C148.822 490.104 148.194 490.913 148.179 491.707C148.166 492.368 148.58 492.823 149.193 492.807C148.687 492.728 148.357 492.337 148.369 491.72Z" fill="url(#paint25_linear_1023_35379)"/>
</g>
<path opacity="0.3" d="M150.196 491.214C150.311 491.303 150.501 491.251 150.621 491.096C150.741 490.942 150.745 490.745 150.63 490.656C150.515 490.566 150.324 490.619 150.205 490.773C150.085 490.927 150.081 491.125 150.196 491.214Z" fill="white"/>
</g>
</g>
<defs>
<radialGradient id="paint0_radial_1023_35379" cx="0" cy="0" r="1" gradientUnits="userSpaceOnUse" gradientTransform="translate(15.418 586.852) rotate(-63.8913) scale(510.661 450.985)">
<stop stop-color="#F530E4"/>
<stop offset="0.188404" stop-color="#7E1BFD"/>
<stop offset="0.77" stop-color="#4C1E98" stop-opacity="0.446602"/>
<stop offset="1" stop-color="#232047" stop-opacity="0"/>
</radialGradient>
<radialGradient id="paint1_radial_1023_35379" cx="0" cy="0" r="1" gradientUnits="userSpaceOnUse" gradientTransform="translate(130.903 216.844) rotate(-78.211) scale(227.23 362.736)">
<stop stop-color="#FFD0B6"/>
<stop offset="0.235951" stop-color="#FA7733"/>
<stop offset="0.58259" stop-color="#E9318E" stop-opacity="0.65"/>
<stop offset="1" stop-color="#6A1BD4" stop-opacity="0"/>
</radialGradient>
<linearGradient id="paint2_linear_1023_35379" x1="95.4736" y1="565.418" x2="208.767" y2="421.377" gradientUnits="userSpaceOnUse">
<stop stop-color="#310057"/>
<stop offset="0.567637" stop-color="#FF2EDE"/>
<stop offset="1" stop-color="#FF8642"/>
</linearGradient>
<radialGradient id="paint3_radial_1023_35379" cx="0" cy="0" r="1" gradientUnits="userSpaceOnUse" gradientTransform="translate(118.85 428.183) rotate(53.5339) scale(133.098 163.623)">
<stop stop-color="#FFD4BC"/>
<stop offset="0.32" stop-color="#FB902D"/>
<stop offset="0.71" stop-color="#E134C6"/>
<stop offset="1" stop-color="#B434E1"/>
</radialGradient>
<linearGradient id="paint4_linear_1023_35379" x1="107.321" y1="435.52" x2="201.621" y2="528.774" gradientUnits="userSpaceOnUse">
<stop stop-color="#FFDCBD"/>
<stop offset="0.445474" stop-color="#FF43BB"/>
<stop offset="1" stop-color="#F9B4FF"/>
</linearGradient>
<linearGradient id="paint5_linear_1023_35379" x1="191.668" y1="455.469" x2="194.172" y2="445.729" gradientUnits="userSpaceOnUse">
<stop stop-color="white"/>
<stop offset="1" stop-color="#EB578E" stop-opacity="0"/>
</linearGradient>
<linearGradient id="paint6_linear_1023_35379" x1="128.11" y1="501.607" x2="147.13" y2="515.42" gradientUnits="userSpaceOnUse">
<stop stop-color="#FFD8F6"/>
<stop offset="1" stop-color="white" stop-opacity="0"/>
</linearGradient>
<linearGradient id="paint7_linear_1023_35379" x1="208.858" y1="426.573" x2="234.405" y2="474.565" gradientUnits="userSpaceOnUse">
<stop stop-color="white"/>
<stop offset="1" stop-color="white" stop-opacity="0"/>
</linearGradient>
<linearGradient id="paint8_linear_1023_35379" x1="148.589" y1="428.905" x2="124.552" y2="460.162" gradientUnits="userSpaceOnUse">
<stop stop-color="#FFD8F6"/>
<stop offset="1" stop-color="white" stop-opacity="0"/>
</linearGradient>
<linearGradient id="paint9_linear_1023_35379" x1="110.565" y1="498.655" x2="113.383" y2="509.602" gradientUnits="userSpaceOnUse">
<stop stop-color="#FFD8F6"/>
<stop offset="1" stop-color="white" stop-opacity="0"/>
</linearGradient>
<linearGradient id="paint10_linear_1023_35379" x1="112.091" y1="478.886" x2="141.549" y2="483.769" gradientUnits="userSpaceOnUse">
<stop stop-color="#FFD8F6"/>
<stop offset="1" stop-color="white" stop-opacity="0"/>
</linearGradient>
<radialGradient id="paint11_radial_1023_35379" cx="0" cy="0" r="1" gradientUnits="userSpaceOnUse" gradientTransform="translate(165.908 473.915) rotate(22.2703) scale(19.8742 26.6428)">
<stop stop-color="#FFEAFF" stop-opacity="0.6"/>
<stop offset="0.6807" stop-color="#A087C9" stop-opacity="0.19"/>
<stop offset="1" stop-color="#AB80FF" stop-opacity="0.06"/>
</radialGradient>
<radialGradient id="paint12_radial_1023_35379" cx="0" cy="0" r="1" gradientUnits="userSpaceOnUse" gradientTransform="translate(165.683 475.524) rotate(37.8183) scale(28.8283 38.6462)">
<stop stop-color="#FFEAFF" stop-opacity="0.6"/>
<stop offset="0.6807" stop-color="#A087C9" stop-opacity="0.21"/>
<stop offset="1" stop-color="#F1EAFF" stop-opacity="0"/>
</radialGradient>
<linearGradient id="paint13_linear_1023_35379" x1="135.815" y1="494.237" x2="165.798" y2="469.147" gradientUnits="userSpaceOnUse">
<stop stop-color="#81FFFF"/>
<stop offset="0.6202" stop-color="white" stop-opacity="0"/>
</linearGradient>
<linearGradient id="paint14_linear_1023_35379" x1="166.055" y1="476.071" x2="152.006" y2="471.921" gradientUnits="userSpaceOnUse">
<stop offset="0.2888" stop-color="white"/>
<stop offset="0.7796" stop-color="white" stop-opacity="0"/>
</linearGradient>
<linearGradient id="paint15_linear_1023_35379" x1="132.915" y1="478.973" x2="155.038" y2="496.145" gradientUnits="userSpaceOnUse">
<stop stop-color="#0002E9"/>
<stop offset="0.9952" stop-color="#FF00C7"/>
</linearGradient>
<linearGradient id="paint16_linear_1023_35379" x1="160.822" y1="490.855" x2="137.262" y2="489.77" gradientUnits="userSpaceOnUse">
<stop offset="0.2888" stop-color="white"/>
<stop offset="0.7796" stop-color="white" stop-opacity="0"/>
</linearGradient>
<linearGradient id="paint17_linear_1023_35379" x1="132.915" y1="478.973" x2="144.751" y2="488.16" gradientUnits="userSpaceOnUse">
<stop stop-color="#000292"/>
<stop offset="0.9952" stop-color="#7D00C7"/>
</linearGradient>
<linearGradient id="paint18_linear_1023_35379" x1="135.598" y1="478.754" x2="156.093" y2="485.005" gradientUnits="userSpaceOnUse">
<stop stop-color="#070993"/>
<stop offset="1" stop-color="#BE00C7"/>
</linearGradient>
<linearGradient id="paint19_linear_1023_35379" x1="171.673" y1="473.934" x2="167.13" y2="474.954" gradientUnits="userSpaceOnUse">
<stop offset="0.2888" stop-color="white"/>
<stop offset="0.7796" stop-color="white" stop-opacity="0"/>
</linearGradient>
<linearGradient id="paint20_linear_1023_35379" x1="139.815" y1="490.131" x2="140.696" y2="490.815" gradientUnits="userSpaceOnUse">
<stop offset="0.2888" stop-color="white"/>
<stop offset="0.7796" stop-color="white" stop-opacity="0"/>
</linearGradient>
<linearGradient id="paint21_linear_1023_35379" x1="143.162" y1="492.093" x2="144.043" y2="492.777" gradientUnits="userSpaceOnUse">
<stop offset="0.2888" stop-color="white"/>
<stop offset="0.7796" stop-color="white" stop-opacity="0"/>
</linearGradient>
<linearGradient id="paint22_linear_1023_35379" x1="140.262" y1="493.045" x2="140.923" y2="493.558" gradientUnits="userSpaceOnUse">
<stop offset="0.2888" stop-color="white"/>
<stop offset="0.7796" stop-color="white" stop-opacity="0"/>
</linearGradient>
<linearGradient id="paint23_linear_1023_35379" x1="143.265" y1="494.704" x2="143.927" y2="495.217" gradientUnits="userSpaceOnUse">
<stop offset="0.2888" stop-color="white"/>
<stop offset="0.7796" stop-color="white" stop-opacity="0"/>
</linearGradient>
<linearGradient id="paint24_linear_1023_35379" x1="137.569" y1="487.148" x2="139.008" y2="488.265" gradientUnits="userSpaceOnUse">
<stop offset="0.2888" stop-color="white"/>
<stop offset="0.7796" stop-color="white" stop-opacity="0"/>
</linearGradient>
<linearGradient id="paint25_linear_1023_35379" x1="148.565" y1="490.626" x2="150.004" y2="491.742" gradientUnits="userSpaceOnUse">
<stop offset="0.2888" stop-color="white"/>
<stop offset="0.7796" stop-color="white" stop-opacity="0"/>
</linearGradient>
<clipPath id="clip0_1023_35379">
<rect width="342" height="639" fill="white" transform="matrix(-1 0 0 1 342 -2)"/>
</clipPath>
<clipPath id="clip1_1023_35379">
<rect width="37.2532" height="48.9404" fill="white" transform="translate(151.711 447.921) rotate(37.8183)"/>
</clipPath>
</defs>
</svg>
