<svg width="1392" height="471" viewBox="0 0 1392 471" fill="none" xmlns="http://www.w3.org/2000/svg">
<rect width="1392" height="488" transform="translate(0 -9)" fill="url(#paint0_radial_869_13134)"/>
<rect width="1392" height="488" transform="translate(0 -9)" fill="url(#paint1_radial_869_13134)"/>
<g clip-path="url(#clip0_869_13134)">
<g opacity="0.25">
<ellipse cx="267.184" cy="153.85" rx="267.184" ry="153.85" transform="matrix(0.870398 0.492349 -0.482083 0.876125 115.891 56.3125)" stroke="#F7F7F7" stroke-width="2"/>
<ellipse cx="176.184" cy="101.45" rx="176.184" ry="101.45" transform="matrix(0.870398 0.492349 -0.482083 0.876125 144.574 192.933)" stroke="#F7F7F7" stroke-width="2"/>
<ellipse cx="91.8327" cy="52.879" rx="91.8327" ry="52.879" transform="matrix(0.870398 0.492349 -0.482083 0.876125 171.163 319.573)" stroke="#F7F7F7" stroke-width="2"/>
<ellipse cx="373.461" cy="222.478" rx="373.461" ry="222.478" transform="matrix(0.870398 0.492349 -0.482083 0.876125 71.8633 -84.1123)" stroke="#F7F7F7" stroke-width="2"/>
<path d="M111.905 394.776C90.1512 394.561 38.2861 415.911 4.85254 503.026" stroke="white" stroke-opacity="0.73" stroke-width="2"/>
<path d="M157.595 26.9271C229.888 80.0782 250.49 236.601 157.802 357.381" stroke="#F7F7F7" stroke-width="2"/>
<path d="M626.184 450.895C569.72 401.778 414.436 379.941 317.804 457.964" stroke="#F7F7F7" stroke-width="2"/>
<path d="M273.281 378.992C356.205 232.444 454.278 185.488 505.47 177.812" stroke="#F7F7F7" stroke-width="2"/>
<path d="M-23.208 93.0215C47.4894 93.1765 177.31 192.56 123.692 358.306" stroke="#F7F7F7" stroke-width="2"/>
<path d="M50.9239 314.153C38.8652 300.629 -3.33322 279.939 -75.6573 305.377" stroke="white" stroke-opacity="0.73" stroke-width="2"/>
</g>
<ellipse cx="266.672" cy="154.142" rx="266.672" ry="154.142" transform="matrix(0.870905 0.491451 -0.482959 0.875643 115.888 57)" fill="url(#paint2_radial_869_13134)"/>
<path fill-rule="evenodd" clip-rule="evenodd" d="M429.401 335.14C475.676 288.349 463.526 200.197 402.263 138.247C341 76.2969 253.823 64.0081 207.548 110.799C207.383 110.967 207.218 111.135 207.053 111.304L207.052 111.303L181.639 136.999L181.643 137.002C135.009 185.049 146.445 273.578 207.434 335.251C268.423 396.923 355.972 408.491 403.489 361.337L403.492 361.34L404.053 360.773L404.128 360.697L404.203 360.622L428.905 335.644L428.902 335.641C429.069 335.475 429.236 335.308 429.401 335.14Z" fill="url(#paint3_linear_869_13134)"/>
<path d="M421.869 330.486C444.44 307.663 452.807 275.042 448.345 240.974C443.884 206.909 426.596 171.25 397.644 141.974C368.692 112.697 333.429 95.2153 299.74 90.7028C266.049 86.1899 233.789 94.6496 211.218 117.473C188.646 140.296 180.279 172.917 184.741 206.985C189.203 241.05 206.49 276.709 235.442 305.985C264.394 335.262 299.658 352.744 333.346 357.256C367.037 361.769 399.297 353.309 421.869 330.486Z" fill="url(#paint4_radial_869_13134)" stroke="url(#paint5_linear_869_13134)" stroke-width="5"/>
<g style="mix-blend-mode:soft-light">
<path d="M291.919 103.333L355.412 167.004C357.218 168.815 359.55 169.995 362.066 170.372L377.059 172.618C380.796 173.178 384.575 171.915 387.246 169.214L396.448 159.91" stroke="white" stroke-opacity="0.77" stroke-width="1.5"/>
<path d="M387.817 150.308C413.454 176.233 428.933 207.481 433.259 237.018C437.586 266.555 430.759 294.328 411.866 313.431C392.973 332.535 365.507 339.438 336.297 335.062C307.086 330.687 276.185 315.034 250.548 289.109C224.91 263.183 209.431 231.936 205.105 202.399C200.779 172.862 207.606 145.089 226.499 125.985C245.392 106.882 272.858 99.9792 302.068 104.355C331.278 108.73 362.179 124.383 387.817 150.308Z" stroke="white" stroke-opacity="0.77" stroke-width="1.5"/>
<path d="M291.494 249.016L274.607 266.091C271.936 268.792 270.688 272.613 271.241 276.391L272.32 283.761C272.874 287.54 271.625 291.361 268.954 294.062L263.114 299.967" stroke="white" stroke-opacity="0.77" stroke-width="1.5"/>
<path d="M241.922 279.506L267.628 253.513C271.203 249.898 271.204 244.037 267.629 240.422V240.422C264.054 236.807 258.257 236.807 254.682 240.422L230.417 264.958" stroke="white" stroke-opacity="0.77" stroke-width="1.5"/>
<path d="M221.337 131.448L246.383 156.775C248.194 158.606 249.374 160.977 249.749 163.539L253.938 192.136C254.313 194.698 255.494 197.07 257.305 198.901C262.577 204.233 267.028 208.734 272.64 214.409" stroke="white" stroke-opacity="0.77" stroke-width="1.5"/>
<path d="M406.463 318.652L381.418 293.326C379.607 291.495 377.262 290.301 374.728 289.922L346.447 285.685C343.914 285.306 341.569 284.112 339.758 282.281L324.422 266.773" stroke="white" stroke-opacity="0.77" stroke-width="1.5"/>
<path d="M231.423 121.25L256.469 146.576C258.28 148.408 260.625 149.601 263.158 149.981L291.439 154.217C293.972 154.596 296.318 155.79 298.128 157.621L312.17 171.82" stroke="white" stroke-opacity="0.77" stroke-width="1.5"/>
<path d="M416.55 308.453L391.505 283.127C389.694 281.296 388.514 278.924 388.139 276.363L383.95 247.765C383.575 245.204 382.394 242.832 380.584 241.001L366.542 226.802" stroke="white" stroke-opacity="0.77" stroke-width="1.5"/>
<path d="M274.775 103.896L378.909 209.198L383.111 213.447L387.313 217.696L405.828 236.419C407.638 238.25 408.819 240.621 409.194 243.183L411.05 255.857C411.422 258.394 412.583 260.746 414.366 262.57L430.892 279.481" stroke="white" stroke-opacity="0.77" stroke-width="1.5"/>
<path d="M413.464 181.975L382.725 213.056" stroke="white" stroke-opacity="0.77" stroke-width="1.5"/>
<path d="M213.021 232.801L230.868 214.754C233.539 212.053 234.788 208.233 234.234 204.454L232.853 195.022C232.477 192.46 231.297 190.089 229.486 188.258L205.736 164.241" stroke="white" stroke-opacity="0.77" stroke-width="1.5"/>
<path d="M278.629 311.77L295.515 294.695C298.187 291.994 301.965 290.731 305.702 291.291L330.816 295.053C333.349 295.433 335.695 296.626 337.505 298.457L372.908 334.256" stroke="white" stroke-opacity="0.77" stroke-width="1.5"/>
<path d="M347.473 191.103C358.096 201.845 364.497 214.781 366.285 226.986C368.073 239.19 365.246 250.61 357.494 258.449C349.742 266.288 338.448 269.146 326.378 267.338C314.308 265.53 301.516 259.057 290.893 248.315C280.27 237.572 273.869 224.637 272.081 212.432C270.294 200.228 273.121 188.807 280.873 180.969C288.625 173.13 299.919 170.272 311.988 172.08C324.058 173.888 336.85 180.361 347.473 191.103Z" stroke="white" stroke-opacity="0.77" stroke-width="1.5"/>
</g>
<path d="M249.167 159.594L251.839 177.837" stroke="url(#paint6_linear_869_13134)" stroke-width="2" stroke-linecap="round"/>
<path d="M358.016 258.983C342.1 275.076 311.81 270.538 290.361 248.848" stroke="url(#paint7_linear_869_13134)" stroke-width="2" stroke-linecap="round"/>
<path d="M250.015 289.641C198.536 237.585 187.769 164.075 225.966 125.451" stroke="url(#paint8_linear_869_13134)" stroke-width="2" stroke-linecap="round"/>
<path d="M396.442 159.91L387.24 169.214C384.569 171.915 380.79 173.178 377.053 172.618L362.06 170.372C359.544 169.995 357.212 168.815 355.406 167.004L325.05 136.562" stroke="url(#paint9_linear_869_13134)" stroke-width="2" stroke-linecap="round"/>
<path d="M416.545 308.452L391.499 283.126C389.689 281.295 388.508 278.923 388.133 276.362L383.945 247.764C383.569 245.203 382.389 242.831 380.578 241L377.845 238.236" stroke="url(#paint10_linear_869_13134)" stroke-width="2" stroke-linecap="round"/>
<path d="M274.768 103.896L378.903 209.198L383.104 213.447L387.306 217.696" stroke="url(#paint11_linear_869_13134)" stroke-width="2" stroke-linecap="round"/>
<g clip-path="url(#clip1_869_13134)">
<path fill-rule="evenodd" clip-rule="evenodd" d="M309.966 182.205C314.393 182.152 317.602 182.872 319.953 184.45C321.314 185.313 322.427 186.868 322.875 188.422C323.323 189.976 322.994 191.417 321.971 192.44C321.584 192.827 321.123 193.14 320.587 193.379C321.646 195.211 322.778 196.896 323.918 198.202L324.335 198.675C317.711 196.032 310.973 195.654 305.453 197.764C305.526 197.617 306.022 196.453 306.301 193.802C305.802 193.634 305.293 193.402 304.886 193.216C303.618 192.556 302.135 190.852 301.419 189.196C300.805 187.808 300.746 186.532 301.252 185.656C301.454 185.305 301.694 184.992 301.998 184.688C303.519 183.167 306.427 182.26 309.966 182.205ZM319.476 185.52C321.55 186.931 323.121 190.548 319.678 192.138C319.346 192.248 319.051 192.395 318.82 192.551C319.35 193.578 319.963 194.745 320.77 195.939C316.146 194.633 311.562 194.472 307.498 195.496C307.518 195.317 307.54 195.131 307.563 194.937C307.636 194.324 307.717 193.638 307.75 192.872C306.668 192.62 305.771 192.331 305.225 192.062C303.855 191.356 301.537 188.263 302.493 186.565C303.45 184.867 306.339 183.609 310.386 183.564C314.434 183.52 317.374 184.138 319.476 185.52Z" fill="#5E12A0"/>
<path d="M319.678 192.138C323.121 190.548 321.55 186.931 319.476 185.52C317.374 184.138 314.434 183.52 310.386 183.564C306.339 183.609 303.45 184.867 302.493 186.565C301.537 188.263 303.855 191.356 305.225 192.062C305.771 192.331 306.668 192.62 307.75 192.872C307.706 193.88 307.579 194.748 307.498 195.496C311.562 194.472 316.146 194.633 320.77 195.939C319.963 194.745 319.35 193.578 318.82 192.551C319.051 192.395 319.346 192.248 319.678 192.138Z" fill="url(#paint12_radial_869_13134)"/>
<path d="M341.597 242.867C350.133 234.331 347.777 218.134 336.333 206.691C324.89 195.248 308.694 192.891 300.158 201.427C291.622 209.963 293.979 226.16 305.422 237.603C316.865 249.046 333.061 251.403 341.597 242.867Z" fill="url(#paint13_radial_869_13134)"/>
<path opacity="0.6" d="M316.499 185.087C311.433 184.223 308.885 185.214 306.126 186.713C303.948 187.853 303.13 186.15 305.408 184.391C303.995 184.914 302.972 185.715 302.493 186.564C301.537 188.262 303.856 191.355 305.225 192.061C305.771 192.33 306.668 192.619 307.75 192.872C307.671 194.286 307.517 195.403 307.362 196.299C307.759 196.199 308.249 196.08 308.868 195.98C310.475 195.707 312.61 195.796 312.61 195.796C309.282 195.565 308.799 194.418 308.926 190.287C308.96 188.994 310.25 187.851 312.162 187.496C314.074 187.141 317.366 187.778 317.366 187.778L319.356 192.312C319.476 192.266 319.596 192.22 319.716 192.174C320.814 191.669 321.376 190.959 321.614 190.202C321.713 189.139 321.603 185.988 316.499 185.087Z" fill="white" fill-opacity="0.7"/>
<path d="M307.877 188.521C308.726 188.264 309.964 188.064 311.627 187.958C313.604 187.834 315.555 187.959 316.951 188.194C317.688 190.867 319.387 193.838 320.631 195.856C321.195 196.033 321.787 196.182 322.351 196.359C321.618 195.239 320.578 193.536 319.649 191.722C319.797 191.649 319.935 191.511 320.074 191.372C320.405 191.04 320.718 190.579 320.689 189.941C320.688 189.498 320.529 188.841 319.76 188.128C319.056 187.424 317.751 186.949 315.819 186.731C314.433 186.561 312.75 186.538 311.143 186.589C306.652 186.854 304.4 187.92 304.654 189.667C304.824 190.832 305.695 191.592 306.454 192.019C306.347 193.682 306.157 194.985 306.03 195.853C306.51 195.67 306.999 195.551 307.516 195.404C307.771 193.889 307.968 191.543 307.877 188.521ZM318.403 188.595C318.671 188.698 318.884 188.855 318.995 188.967C319.329 189.3 319.357 189.494 319.376 189.624C319.376 189.845 319.229 190.141 319.036 190.334C318.757 189.724 318.58 189.159 318.403 188.595ZM306.05 189.902C306.022 189.708 306.169 189.412 306.603 189.127C306.623 189.7 306.606 190.236 306.589 190.772C306.302 190.54 306.07 190.253 306.05 189.902Z" fill="#5E12A0"/>
<path d="M298.935 200.205C289.894 209.246 292.389 226.396 304.51 238.516C316.63 250.637 333.78 253.132 342.821 244.091C351.862 235.049 349.367 217.9 337.246 205.78C325.126 193.659 307.949 191.191 298.935 200.205ZM341.598 242.867C333.054 251.411 316.875 249.057 305.422 237.604C293.969 226.15 291.615 209.972 300.158 201.428C308.702 192.885 324.881 195.239 336.334 206.692C347.787 218.145 350.113 234.351 341.598 242.867Z" fill="#5E12A0"/>
<path opacity="0.6" d="M341.597 242.867C350.133 234.331 347.777 218.134 336.333 206.691C324.89 195.248 308.694 192.891 300.158 201.427C291.622 209.963 293.979 226.16 305.422 237.603C316.865 249.046 333.061 251.403 341.597 242.867Z" fill="url(#paint14_linear_869_13134)"/>
<path opacity="0.25" d="M338.966 240.458C328.717 247.074 312.356 242.16 302.434 229.473C298.038 223.86 295.656 217.718 295.233 211.987C294.365 218.86 296.716 226.962 302.317 234.111C312.267 246.771 328.628 251.686 338.85 245.097C344.588 241.434 347.158 234.935 346.648 227.735C345.988 232.991 343.395 237.586 338.966 240.458Z" fill="white" fill-opacity="0.7"/>
<path opacity="0.6" d="M302.916 199.263C298.165 202.309 295.563 207.283 295.098 213.011C295.117 213.141 295.135 213.27 295.135 213.27C295.361 211.118 296.25 208.523 296.25 208.523C295.255 216.487 297.839 221.835 297.839 221.835C295.059 215.571 296.986 207.268 300.773 203.037C304.559 198.805 308.78 197.773 315.434 198.012C322.126 198.289 331.178 203.47 336.618 209.298C342.086 215.098 344.433 221.869 344.433 221.869C343.322 217.716 342.307 214.876 340.924 212.331C340.441 211.628 339.959 210.924 339.384 210.239C329.499 197.588 313.165 192.646 302.916 199.263Z" fill="url(#paint15_linear_869_13134)"/>
<path d="M335.374 207.281C346.235 218.141 348.476 233.543 340.375 241.644C332.273 249.745 316.844 247.532 305.983 236.672L335.374 207.281Z" fill="url(#paint16_linear_869_13134)"/>
<g opacity="0.6">
<path opacity="0.6" d="M334.213 208.442C344.814 219.042 347.239 233.964 339.794 242.225C339.988 242.031 340.181 241.837 340.375 241.644C348.476 233.543 346.235 218.141 335.375 207.28L334.213 208.442Z" fill="url(#paint17_linear_869_13134)"/>
</g>
<g opacity="0.7">
<path opacity="0.7" d="M308.057 234.598L305.983 236.672C316.844 247.532 332.246 249.773 340.347 241.672C340.706 241.312 341.038 240.981 341.333 240.612C332.988 247.474 318.435 244.976 308.057 234.598Z" fill="url(#paint18_linear_869_13134)"/>
</g>
<path d="M335.531 207.493C333.27 205.232 329.042 206.866 324.699 210.319C321.582 212.843 319.105 216.062 317.177 220.658C315.468 224.591 312.739 226.949 310.59 228.505C305.841 231.995 303.499 234.188 306.168 236.856C310.023 240.711 320.703 239.668 327.827 229.208C331.426 223.904 331.979 219.867 333.42 216.054C335.007 211.946 337.533 209.495 335.531 207.493Z" fill="url(#paint19_linear_869_13134)"/>
<path d="M316.348 207.996C317.723 206.622 317.343 204.014 315.501 202.172C313.659 200.33 311.051 199.95 309.677 201.324C308.302 202.699 308.682 205.306 310.524 207.149C312.367 208.991 314.974 209.37 316.348 207.996Z" fill="white"/>
<path d="M322.895 206.416C323.476 205.836 323.316 204.735 322.538 203.957C321.76 203.179 320.659 203.019 320.078 203.599C319.498 204.179 319.658 205.28 320.436 206.058C321.214 206.836 322.315 206.996 322.895 206.416Z" fill="white"/>
<g opacity="0.6">
<path opacity="0.6" d="M318.168 194.166C318.14 194.194 318.112 194.222 318.112 194.222C317.909 194.35 317.577 194.239 317.345 193.951C315.889 191.998 315.308 189.316 315.289 189.187C315.215 188.891 315.436 188.669 315.695 188.707C315.981 188.717 316.278 189.014 316.316 189.273C316.325 189.337 316.877 191.825 318.138 193.528C318.333 193.779 318.306 194.028 318.168 194.166Z" fill="url(#paint20_linear_869_13134)"/>
</g>
<path opacity="0.2" d="M335.313 238.624C335.74 238.197 335.622 237.385 335.049 236.812C334.476 236.239 333.665 236.121 333.237 236.549C332.81 236.976 332.928 237.787 333.501 238.361C334.074 238.934 334.885 239.052 335.313 238.624Z" fill="white"/>
<g opacity="0.4">
<path opacity="0.6" d="M334.499 238.7C333.787 238.596 333.12 237.929 333.016 237.217C332.997 237.088 333.016 236.995 332.997 236.866C332.923 237.014 332.914 237.171 332.943 237.365C333.046 238.077 333.713 238.744 334.425 238.848C335.008 238.932 335.469 238.619 335.551 238.093C335.422 238.518 335.017 238.775 334.499 238.7Z" fill="url(#paint21_linear_869_13134)"/>
</g>
<path opacity="0.3" d="M334.252 237.016C334.344 236.924 334.318 236.75 334.196 236.628C334.073 236.505 333.899 236.48 333.807 236.571C333.716 236.663 333.741 236.837 333.864 236.959C333.987 237.082 334.16 237.108 334.252 237.016Z" fill="white"/>
<path opacity="0.2" d="M338.831 234.07C339.259 233.642 339.14 232.831 338.567 232.258C337.994 231.684 337.183 231.566 336.755 231.994C336.328 232.421 336.446 233.233 337.019 233.806C337.592 234.379 338.403 234.497 338.831 234.07Z" fill="white"/>
<g opacity="0.4">
<path opacity="0.6" d="M338.018 234.143C337.306 234.039 336.639 233.372 336.535 232.66C336.516 232.531 336.534 232.439 336.516 232.309C336.442 232.457 336.433 232.614 336.462 232.808C336.565 233.52 337.232 234.187 337.944 234.291C338.527 234.375 338.988 234.062 339.069 233.536C338.941 233.961 338.535 234.218 338.018 234.143Z" fill="url(#paint22_linear_869_13134)"/>
</g>
<path opacity="0.3" d="M337.772 232.46C337.863 232.368 337.838 232.194 337.715 232.072C337.592 231.949 337.418 231.923 337.327 232.015C337.235 232.107 337.26 232.281 337.383 232.403C337.506 232.526 337.68 232.552 337.772 232.46Z" fill="white"/>
<path opacity="0.2" d="M339.248 238.47C339.568 238.15 339.48 237.541 339.05 237.112C338.62 236.682 338.011 236.593 337.691 236.914C337.37 237.234 337.459 237.843 337.889 238.273C338.318 238.703 338.927 238.791 339.248 238.47Z" fill="white"/>
<g opacity="0.4">
<path opacity="0.6" d="M338.621 238.507C338.103 238.432 337.584 237.913 337.509 237.395C337.499 237.33 337.518 237.238 337.508 237.173C337.462 237.293 337.481 237.423 337.5 237.552C337.575 238.07 338.094 238.589 338.612 238.664C339.065 238.73 339.378 238.491 339.442 238.056C339.332 238.389 339.009 238.564 338.621 238.507Z" fill="url(#paint23_linear_869_13134)"/>
</g>
<path opacity="0.3" d="M338.403 237.241C338.464 237.18 338.447 237.064 338.365 236.982C338.283 236.9 338.167 236.883 338.106 236.944C338.045 237.005 338.062 237.121 338.144 237.203C338.226 237.285 338.342 237.302 338.403 237.241Z" fill="white"/>
<path opacity="0.2" d="M342.258 234.348C342.579 234.027 342.491 233.419 342.061 232.989C341.631 232.559 341.022 232.471 340.702 232.791C340.381 233.112 340.47 233.72 340.899 234.15C341.329 234.58 341.938 234.669 342.258 234.348Z" fill="white"/>
<g opacity="0.4">
<path opacity="0.6" d="M341.632 234.385C341.114 234.309 340.595 233.79 340.52 233.272C340.51 233.208 340.529 233.115 340.519 233.051C340.473 233.171 340.492 233.3 340.511 233.43C340.586 233.947 341.105 234.466 341.623 234.542C342.076 234.608 342.389 234.368 342.453 233.934C342.343 234.266 342.02 234.441 341.632 234.385Z" fill="url(#paint24_linear_869_13134)"/>
</g>
<path opacity="0.3" d="M341.415 233.117C341.476 233.056 341.459 232.94 341.377 232.858C341.295 232.776 341.179 232.759 341.118 232.82C341.057 232.881 341.074 232.997 341.156 233.079C341.238 233.161 341.354 233.178 341.415 233.117Z" fill="white"/>
<path opacity="0.2" d="M331.65 241.546C332.352 240.844 332.158 239.511 331.217 238.57C330.275 237.628 328.942 237.434 328.24 238.136C327.537 238.839 327.731 240.172 328.673 241.113C329.614 242.055 330.947 242.249 331.65 241.546Z" fill="white"/>
<g opacity="0.4">
<path opacity="0.6" d="M330.302 241.635C329.137 241.465 328.062 240.39 327.893 239.226C327.865 239.032 327.873 238.874 327.91 238.69C327.818 238.93 327.828 239.216 327.838 239.503C328.008 240.668 329.083 241.742 330.247 241.912C331.218 242.053 331.965 241.528 332.055 240.623C331.845 241.353 331.181 241.794 330.302 241.635Z" fill="url(#paint25_linear_869_13134)"/>
</g>
<path opacity="0.3" d="M329.869 238.88C330.021 238.727 329.979 238.437 329.775 238.232C329.57 238.028 329.28 237.986 329.127 238.138C328.975 238.291 329.017 238.581 329.222 238.785C329.426 238.99 329.716 239.032 329.869 238.88Z" fill="white"/>
<path opacity="0.2" d="M338.826 225.994C339.528 225.292 339.335 223.959 338.393 223.017C337.451 222.076 336.119 221.882 335.416 222.584C334.714 223.287 334.908 224.62 335.849 225.561C336.791 226.503 338.124 226.697 338.826 225.994Z" fill="white"/>
<g opacity="0.4">
<path opacity="0.6" d="M337.449 226.111C336.284 225.942 335.209 224.867 335.039 223.702C335.011 223.508 335.02 223.351 335.056 223.166C334.965 223.406 334.975 223.693 334.985 223.979C335.154 225.144 336.229 226.219 337.394 226.388C338.365 226.53 339.112 226.005 339.202 225.099C338.991 225.829 338.355 226.243 337.449 226.111Z" fill="url(#paint26_linear_869_13134)"/>
</g>
<path opacity="0.3" d="M337.043 223.328C337.196 223.175 337.154 222.886 336.949 222.681C336.744 222.476 336.454 222.434 336.302 222.587C336.149 222.739 336.191 223.029 336.396 223.234C336.601 223.439 336.89 223.481 337.043 223.328Z" fill="white"/>
</g>
</g>
<defs>
<radialGradient id="paint0_radial_869_13134" cx="0" cy="0" r="1" gradientUnits="userSpaceOnUse" gradientTransform="translate(22.2444 508) rotate(-40.7496) scale(828.029 1044)">
<stop stop-color="#F530E4"/>
<stop offset="0.38" stop-color="#7E1BFD"/>
<stop offset="0.77" stop-color="#4C1E98" stop-opacity="0.446602"/>
<stop offset="1" stop-color="#232047" stop-opacity="0"/>
</radialGradient>
<radialGradient id="paint1_radial_869_13134" cx="0" cy="0" r="1" gradientUnits="userSpaceOnUse" gradientTransform="translate(1408.31 512.5) rotate(-116.491) scale(407.818 788.043)">
<stop offset="0.012061" stop-color="#8A03A0"/>
<stop offset="0.428159" stop-color="#3D25BE" stop-opacity="0.4"/>
<stop offset="1" stop-color="#361FB3" stop-opacity="0"/>
</radialGradient>
<radialGradient id="paint2_radial_869_13134" cx="0" cy="0" r="1" gradientUnits="userSpaceOnUse" gradientTransform="translate(198.684 329.125) rotate(-78.211) scale(344.889 550.56)">
<stop stop-color="#FFD0B6"/>
<stop offset="0.235951" stop-color="#FA7733"/>
<stop offset="0.58259" stop-color="#E9318E" stop-opacity="0.65"/>
<stop offset="1" stop-color="#6A1BD4" stop-opacity="0"/>
</radialGradient>
<linearGradient id="paint3_linear_869_13134" x1="416.044" y1="364.774" x2="223.273" y2="119.685" gradientUnits="userSpaceOnUse">
<stop stop-color="#310057"/>
<stop offset="0.567637" stop-color="#FF2EDE"/>
<stop offset="1" stop-color="#FF8642"/>
</linearGradient>
<radialGradient id="paint4_radial_869_13134" cx="0" cy="0" r="1" gradientUnits="userSpaceOnUse" gradientTransform="translate(376.271 131.266) rotate(126.466) scale(226.469 278.407)">
<stop stop-color="#FFD4BC"/>
<stop offset="0.32" stop-color="#FB902D"/>
<stop offset="0.71" stop-color="#E134C6"/>
<stop offset="1" stop-color="#B434E1"/>
</radialGradient>
<linearGradient id="paint5_linear_869_13134" x1="395.886" y1="143.751" x2="235.435" y2="302.423" gradientUnits="userSpaceOnUse">
<stop stop-color="#FFDCBD"/>
<stop offset="0.445474" stop-color="#FF43BB"/>
<stop offset="1" stop-color="#F9B4FF"/>
</linearGradient>
<linearGradient id="paint6_linear_869_13134" x1="252.366" y1="177.692" x2="248.106" y2="161.119" gradientUnits="userSpaceOnUse">
<stop stop-color="white"/>
<stop offset="1" stop-color="#EB578E" stop-opacity="0"/>
</linearGradient>
<linearGradient id="paint7_linear_869_13134" x1="360.513" y1="256.198" x2="328.148" y2="279.701" gradientUnits="userSpaceOnUse">
<stop stop-color="#FFD8F6"/>
<stop offset="1" stop-color="white" stop-opacity="0"/>
</linearGradient>
<linearGradient id="paint8_linear_869_13134" x1="223.117" y1="128.525" x2="179.648" y2="210.184" gradientUnits="userSpaceOnUse">
<stop stop-color="white"/>
<stop offset="1" stop-color="white" stop-opacity="0"/>
</linearGradient>
<linearGradient id="paint9_linear_869_13134" x1="325.67" y1="132.495" x2="366.569" y2="185.679" gradientUnits="userSpaceOnUse">
<stop stop-color="#FFD8F6"/>
<stop offset="1" stop-color="white" stop-opacity="0"/>
</linearGradient>
<linearGradient id="paint10_linear_869_13134" x1="390.366" y1="251.173" x2="385.571" y2="269.799" gradientUnits="userSpaceOnUse">
<stop stop-color="#FFD8F6"/>
<stop offset="1" stop-color="white" stop-opacity="0"/>
</linearGradient>
<linearGradient id="paint11_linear_869_13134" x1="387.764" y1="217.536" x2="337.64" y2="225.844" gradientUnits="userSpaceOnUse">
<stop stop-color="#FFD8F6"/>
<stop offset="1" stop-color="white" stop-opacity="0"/>
</linearGradient>
<radialGradient id="paint12_radial_869_13134" cx="0" cy="0" r="1" gradientUnits="userSpaceOnUse" gradientTransform="translate(314.5 197) rotate(-60.548) scale(29.4775 39.5167)">
<stop stop-color="#FFEAFF" stop-opacity="0.6"/>
<stop offset="0.6807" stop-color="#A087C9" stop-opacity="0.19"/>
<stop offset="1" stop-color="#AB80FF" stop-opacity="0.06"/>
</radialGradient>
<radialGradient id="paint13_radial_869_13134" cx="0" cy="0" r="1" gradientUnits="userSpaceOnUse" gradientTransform="translate(316.826 197.629) rotate(-45) scale(42.7581 57.3202)">
<stop stop-color="#FFEAFF" stop-opacity="0.6"/>
<stop offset="0.6807" stop-color="#A087C9" stop-opacity="0.21"/>
<stop offset="1" stop-color="#F1EAFF" stop-opacity="0"/>
</radialGradient>
<linearGradient id="paint14_linear_869_13134" x1="338.824" y1="245.052" x2="307.463" y2="196.277" gradientUnits="userSpaceOnUse">
<stop stop-color="#81FFFF"/>
<stop offset="0.6202" stop-color="white" stop-opacity="0"/>
</linearGradient>
<linearGradient id="paint15_linear_869_13134" x1="317.699" y1="197.183" x2="308.988" y2="217.088" gradientUnits="userSpaceOnUse">
<stop offset="0.2888" stop-color="white"/>
<stop offset="0.7796" stop-color="white" stop-opacity="0"/>
</linearGradient>
<linearGradient id="paint16_linear_869_13134" x1="315.825" y1="246.489" x2="345.197" y2="217.117" gradientUnits="userSpaceOnUse">
<stop stop-color="#0002E9"/>
<stop offset="0.9952" stop-color="#FF00C7"/>
</linearGradient>
<linearGradient id="paint17_linear_869_13134" x1="338.485" y1="207.624" x2="332.52" y2="242.094" gradientUnits="userSpaceOnUse">
<stop offset="0.2888" stop-color="white"/>
<stop offset="0.7796" stop-color="white" stop-opacity="0"/>
</linearGradient>
<linearGradient id="paint18_linear_869_13134" x1="315.825" y1="246.489" x2="331.539" y2="230.775" gradientUnits="userSpaceOnUse">
<stop stop-color="#000292"/>
<stop offset="0.9952" stop-color="#7D00C7"/>
</linearGradient>
<linearGradient id="paint19_linear_869_13134" x1="316" y1="242.5" x2="329" y2="213.5" gradientUnits="userSpaceOnUse">
<stop stop-color="#070993"/>
<stop offset="1" stop-color="#BE00C7"/>
</linearGradient>
<linearGradient id="paint20_linear_869_13134" x1="315.596" y1="188.519" x2="316.256" y2="195.394" gradientUnits="userSpaceOnUse">
<stop offset="0.2888" stop-color="white"/>
<stop offset="0.7796" stop-color="white" stop-opacity="0"/>
</linearGradient>
<linearGradient id="paint21_linear_869_13134" x1="333.524" y1="238.404" x2="334.694" y2="237.234" gradientUnits="userSpaceOnUse">
<stop offset="0.2888" stop-color="white"/>
<stop offset="0.7796" stop-color="white" stop-opacity="0"/>
</linearGradient>
<linearGradient id="paint22_linear_869_13134" x1="337.033" y1="233.843" x2="338.203" y2="232.673" gradientUnits="userSpaceOnUse">
<stop offset="0.2888" stop-color="white"/>
<stop offset="0.7796" stop-color="white" stop-opacity="0"/>
</linearGradient>
<linearGradient id="paint23_linear_869_13134" x1="337.895" y1="238.287" x2="338.774" y2="237.408" gradientUnits="userSpaceOnUse">
<stop offset="0.2888" stop-color="white"/>
<stop offset="0.7796" stop-color="white" stop-opacity="0"/>
</linearGradient>
<linearGradient id="paint24_linear_869_13134" x1="340.893" y1="234.174" x2="341.771" y2="233.296" gradientUnits="userSpaceOnUse">
<stop offset="0.2888" stop-color="white"/>
<stop offset="0.7796" stop-color="white" stop-opacity="0"/>
</linearGradient>
<linearGradient id="paint25_linear_869_13134" x1="328.719" y1="241.155" x2="330.629" y2="239.245" gradientUnits="userSpaceOnUse">
<stop offset="0.2888" stop-color="white"/>
<stop offset="0.7796" stop-color="white" stop-opacity="0"/>
</linearGradient>
<linearGradient id="paint26_linear_869_13134" x1="335.875" y1="225.62" x2="337.785" y2="223.709" gradientUnits="userSpaceOnUse">
<stop offset="0.2888" stop-color="white"/>
<stop offset="0.7796" stop-color="white" stop-opacity="0"/>
</linearGradient>
<clipPath id="clip0_869_13134">
<rect width="873.955" height="488" fill="white" transform="translate(0 -9)"/>
</clipPath>
<clipPath id="clip1_869_13134">
<rect width="55.2541" height="72.5885" fill="white" transform="translate(273.615 213.071) rotate(-45)"/>
</clipPath>
</defs>
</svg>
