<svg width="928" height="341" viewBox="0 0 928 341" fill="none" xmlns="http://www.w3.org/2000/svg">
<rect width="926" height="344" transform="translate(2 -1)" fill="url(#paint0_radial_1017_25218)"/>
<rect width="926" height="344" transform="translate(2 -1)" fill="url(#paint1_radial_1017_25218)"/>
<g clip-path="url(#clip0_1017_25218)">
<g opacity="0.25">
<ellipse cx="200.552" cy="115.482" rx="200.552" ry="115.482" transform="matrix(0.870398 0.492349 -0.482083 0.876125 27.0584 29.8468)" stroke="#F7F7F7" stroke-width="1.50123"/>
<ellipse cx="132.246" cy="76.1501" rx="132.246" ry="76.1501" transform="matrix(0.870398 0.492349 -0.482083 0.876125 48.5889 132.396)" stroke="#F7F7F7" stroke-width="1.50123"/>
<ellipse cx="68.9309" cy="39.6917" rx="68.9309" ry="39.6917" transform="matrix(0.870398 0.492349 -0.482083 0.876125 68.5459 227.454)" stroke="#F7F7F7" stroke-width="1.50123"/>
<ellipse cx="280.325" cy="166.995" rx="280.325" ry="166.995" transform="matrix(0.870398 0.492349 -0.482083 0.876125 -5.98914 -75.5581)" stroke="#F7F7F7" stroke-width="1.50123"/>
<path d="M24.0665 283.902C7.73808 283.741 -31.1926 299.767 -56.2883 365.156" stroke="white" stroke-opacity="0.73" stroke-width="1.50123"/>
<path d="M58.3632 7.78951C112.627 47.6855 128.091 165.174 58.5179 255.833" stroke="#F7F7F7" stroke-width="1.50123"/>
<path d="M410.095 326.026C367.712 289.158 251.154 272.767 178.62 331.332" stroke="#F7F7F7" stroke-width="1.50123"/>
<path d="M145.2 272.054C207.444 162.054 281.059 126.808 319.484 121.046" stroke="#F7F7F7" stroke-width="1.50123"/>
<path d="M-77.3504 57.4009C-24.2839 57.5172 73.161 132.116 32.9151 256.528" stroke="#F7F7F7" stroke-width="1.50123"/>
</g>
<ellipse cx="200.168" cy="115.701" rx="200.168" ry="115.701" transform="matrix(0.871257 0.490826 -0.48233 0.875989 27.3271 30.2013)" fill="url(#paint2_radial_1017_25218)"/>
<path fill-rule="evenodd" clip-rule="evenodd" d="M269.755 254.044C304.948 218.458 295.708 151.417 249.116 104.303C202.524 57.1885 136.225 47.8427 101.032 83.4282C100.906 83.556 100.78 83.6841 100.655 83.8127L100.653 83.8108L81.3261 103.353L81.3284 103.355C45.8627 139.896 54.5605 207.224 100.944 254.127C147.327 301.03 213.909 309.827 250.047 273.966L250.049 273.968L250.476 273.537L250.533 273.48L250.589 273.422L269.376 254.426L269.375 254.425C269.502 254.299 269.629 254.171 269.755 254.044Z" fill="url(#paint3_linear_1017_25218)"/>
<path d="M264.448 250.93C281.773 233.412 288.165 208.402 284.753 182.349C281.342 156.3 268.128 129.062 246.025 106.711C223.922 84.3604 196.986 70.9982 171.225 67.5475C145.46 64.0964 120.727 70.56 103.402 88.0777C86.078 105.595 79.6851 130.605 83.0973 156.658C86.5091 182.707 99.7227 209.946 121.825 232.296C143.928 254.647 170.865 268.009 196.626 271.46C222.39 274.911 247.124 268.447 264.448 250.93Z" fill="url(#paint4_radial_1017_25218)" stroke="url(#paint5_linear_1017_25218)" stroke-width="5"/>
<g style="mix-blend-mode:soft-light">
<path d="M165.194 77.7496L212.816 125.505C214.622 127.316 216.953 128.496 219.47 128.873L228.522 130.229C232.259 130.789 236.037 129.526 238.709 126.825L244.69 120.777" stroke="white" stroke-opacity="0.77" stroke-width="1.5"/>
<path d="M237.999 113.603C257.473 133.295 269.225 157.024 272.509 179.446C275.793 201.867 270.608 222.927 256.289 237.405C241.97 251.884 221.143 257.127 198.97 253.805C176.797 250.484 153.33 238.6 133.856 218.908C114.383 199.216 102.631 175.486 99.3468 153.065C96.0628 130.643 101.248 109.584 115.567 95.105C129.886 80.6262 150.713 75.384 172.886 78.7054C195.059 82.0269 218.526 93.9109 237.999 113.603Z" stroke="white" stroke-opacity="0.77" stroke-width="1.5"/>
<path d="M164.871 188.544L153.046 200.502C150.374 203.203 149.126 207.024 149.679 210.802L150.079 213.53C150.632 217.309 149.383 221.13 146.712 223.831L143.288 227.293" stroke="white" stroke-opacity="0.77" stroke-width="1.5"/>
<path d="M127.171 211.733L146.721 191.964C149.44 189.215 149.44 184.758 146.721 182.008V182.008C144.002 179.259 139.594 179.259 136.875 182.008L118.421 200.668" stroke="white" stroke-opacity="0.77" stroke-width="1.5"/>
<path d="M111.517 99.1319L129.896 117.718C131.707 119.549 132.888 121.92 133.263 124.482L136.172 144.341C136.547 146.903 137.727 149.275 139.538 151.106C143.262 154.872 146.504 158.15 150.533 162.225" stroke="white" stroke-opacity="0.77" stroke-width="1.5"/>
<path d="M252.307 241.503L233.927 222.918C232.117 221.087 229.771 219.893 227.238 219.514L207.598 216.572C205.065 216.192 202.72 214.999 200.909 213.168L189.913 202.049" stroke="white" stroke-opacity="0.77" stroke-width="1.5"/>
<path d="M119.186 91.3761L137.566 109.962C139.377 111.793 141.722 112.986 144.255 113.366L163.895 116.308C166.428 116.687 168.774 117.881 170.585 119.712L180.595 129.835" stroke="white" stroke-opacity="0.77" stroke-width="1.5"/>
<path d="M259.977 233.747L241.598 215.161C239.787 213.33 238.607 210.959 238.232 208.397L235.323 188.537C234.948 185.976 233.767 183.604 231.957 181.773L221.946 171.65" stroke="white" stroke-opacity="0.77" stroke-width="1.5"/>
<path d="M152.155 78.1778L231.351 158.262L234.546 161.493L237.742 164.725L251.155 178.288C252.966 180.12 254.146 182.491 254.522 185.053L255.658 192.811C256.03 195.349 257.191 197.7 258.974 199.525L270.885 211.713" stroke="white" stroke-opacity="0.77" stroke-width="1.5"/>
<path d="M257.631 137.558L234.254 161.196" stroke="white" stroke-opacity="0.77" stroke-width="1.5"/>
<path d="M105.19 176.212L117.746 163.516C120.418 160.815 121.666 156.994 121.113 153.215L120.411 148.425C120.036 145.864 118.856 143.492 117.045 141.661L99.6499 124.071" stroke="white" stroke-opacity="0.77" stroke-width="1.5"/>
<path d="M155.087 236.27L166.913 224.312C169.584 221.611 173.362 220.349 177.099 220.908L193.842 223.416C196.375 223.796 198.721 224.989 200.531 226.82L226.788 253.371" stroke="white" stroke-opacity="0.77" stroke-width="1.5"/>
<path d="M207.318 144.628C215.373 152.773 220.221 162.576 221.575 171.816C222.928 181.056 220.785 189.679 214.939 195.59C209.093 201.502 200.565 203.668 191.427 202.299C182.29 200.931 172.595 196.028 164.541 187.883C156.486 179.738 151.638 169.935 150.284 160.695C148.931 151.455 151.074 142.832 156.92 136.921C162.766 131.009 171.294 128.843 180.432 130.211C189.569 131.58 199.264 136.483 207.318 144.628Z" stroke="white" stroke-opacity="0.77" stroke-width="1.5"/>
</g>
<path d="M132.686 120.537L134.718 134.412" stroke="url(#paint6_linear_1017_25218)" stroke-width="2" stroke-linecap="round"/>
<path d="M215.467 196.123C203.363 208.362 180.326 204.912 164.014 188.416" stroke="url(#paint7_linear_1017_25218)" stroke-width="2" stroke-linecap="round"/>
<path d="M133.331 219.441C94.1802 179.851 85.9917 123.946 115.041 94.5719" stroke="url(#paint8_linear_1017_25218)" stroke-width="2" stroke-linecap="round"/>
<path d="M244.691 120.778L238.71 126.826C236.039 129.527 232.26 130.789 228.523 130.23L219.471 128.874C216.955 128.497 214.623 127.316 212.817 125.505L190.397 103.022" stroke="url(#paint9_linear_1017_25218)" stroke-width="2" stroke-linecap="round"/>
<path d="M259.978 233.747L241.599 215.161C239.788 213.33 238.608 210.959 238.233 208.397L235.324 188.538C234.949 185.976 233.768 183.604 231.958 181.773L230.547 180.347" stroke="url(#paint10_linear_1017_25218)" stroke-width="2" stroke-linecap="round"/>
<path d="M152.157 78.178L231.353 158.262L234.549 161.493L237.744 164.725" stroke="url(#paint11_linear_1017_25218)" stroke-width="2" stroke-linecap="round"/>
<g clip-path="url(#clip1_1017_25218)">
<path fill-rule="evenodd" clip-rule="evenodd" d="M178.687 136.475C182.18 136.433 184.712 137.001 186.568 138.246C187.642 138.927 188.52 140.155 188.874 141.381C189.227 142.607 188.968 143.744 188.16 144.552C187.855 144.857 187.491 145.104 187.068 145.293C187.903 146.739 188.797 148.068 189.697 149.099L190.026 149.472C184.799 147.387 179.481 147.088 175.125 148.753C175.183 148.637 175.574 147.719 175.795 145.627C175.4 145.494 174.999 145.311 174.678 145.164C173.677 144.644 172.506 143.299 171.941 141.992C171.457 140.896 171.411 139.89 171.81 139.198C171.97 138.921 172.158 138.674 172.399 138.434C173.599 137.234 175.894 136.518 178.687 136.475ZM186.191 139.091C187.828 140.204 189.068 143.059 186.351 144.313C186.089 144.4 185.856 144.516 185.674 144.64C186.092 145.45 186.576 146.371 187.213 147.313C183.563 146.282 179.946 146.156 176.739 146.964C176.755 146.822 176.772 146.675 176.79 146.523C176.847 146.038 176.912 145.497 176.938 144.893C176.084 144.694 175.376 144.466 174.945 144.253C173.864 143.696 172.034 141.255 172.789 139.916C173.544 138.576 175.824 137.583 179.018 137.548C182.212 137.513 184.533 138 186.191 139.091Z" fill="#5E12A0"/>
<path d="M186.351 144.313C189.068 143.059 187.828 140.204 186.191 139.091C184.533 138 182.212 137.513 179.018 137.548C175.824 137.583 173.544 138.576 172.789 139.916C172.034 141.255 173.864 143.696 174.945 144.253C175.376 144.466 176.084 144.694 176.938 144.893C176.903 145.688 176.803 146.373 176.739 146.964C179.946 146.156 183.563 146.282 187.213 147.313C186.576 146.371 186.092 145.45 185.674 144.64C185.856 144.516 186.089 144.4 186.351 144.313Z" fill="url(#paint12_radial_1017_25218)"/>
<path d="M203.648 184.346C210.385 177.61 208.525 164.829 199.494 155.798C190.464 146.768 177.683 144.908 170.947 151.644C164.21 158.381 166.07 171.162 175.1 180.192C184.131 189.223 196.912 191.082 203.648 184.346Z" fill="url(#paint13_radial_1017_25218)"/>
<path opacity="0.6" d="M183.842 138.749C179.844 138.067 177.833 138.849 175.656 140.032C173.937 140.932 173.292 139.588 175.089 138.2C173.975 138.613 173.167 139.245 172.789 139.915C172.035 141.255 173.864 143.696 174.945 144.253C175.376 144.466 176.084 144.694 176.938 144.893C176.875 146.008 176.754 146.89 176.632 147.598C176.945 147.518 177.331 147.424 177.82 147.346C179.088 147.13 180.773 147.2 180.773 147.2C178.147 147.018 177.765 146.113 177.866 142.853C177.892 141.832 178.911 140.931 180.42 140.65C181.928 140.37 184.526 140.873 184.526 140.873L186.096 144.451C186.191 144.415 186.286 144.378 186.381 144.342C187.247 143.943 187.691 143.383 187.879 142.786C187.957 141.947 187.87 139.46 183.842 138.749Z" fill="white" fill-opacity="0.7"/>
<path d="M177.038 141.459C177.708 141.256 178.685 141.099 179.997 141.015C181.558 140.917 183.097 141.016 184.198 141.201C184.78 143.31 186.121 145.655 187.103 147.247C187.548 147.387 188.015 147.505 188.46 147.645C187.882 146.761 187.061 145.417 186.328 143.985C186.445 143.927 186.554 143.818 186.663 143.709C186.925 143.447 187.172 143.083 187.148 142.58C187.148 142.23 187.022 141.712 186.415 141.149C185.86 140.593 184.83 140.218 183.306 140.046C182.211 139.912 180.884 139.894 179.615 139.934C176.071 140.144 174.294 140.985 174.495 142.364C174.629 143.283 175.316 143.883 175.915 144.22C175.831 145.532 175.68 146.56 175.58 147.245C175.959 147.101 176.345 147.007 176.753 146.891C176.954 145.696 177.11 143.844 177.038 141.459ZM185.344 141.518C185.556 141.599 185.724 141.723 185.812 141.811C186.075 142.074 186.097 142.227 186.112 142.329C186.113 142.504 185.997 142.737 185.844 142.89C185.624 142.408 185.484 141.963 185.344 141.518ZM175.597 142.549C175.574 142.396 175.69 142.163 176.033 141.937C176.048 142.39 176.035 142.813 176.021 143.236C175.795 143.053 175.612 142.826 175.597 142.549Z" fill="#5E12A0"/>
<path d="M169.982 150.68C162.847 157.815 164.816 171.348 174.381 180.913C183.946 190.478 197.479 192.447 204.614 185.312C211.749 178.177 209.78 164.644 200.215 155.079C190.65 145.514 177.095 143.567 169.982 150.68ZM203.649 184.347C196.906 191.089 184.139 189.231 175.101 180.193C166.062 171.155 164.205 158.387 170.947 151.645C177.689 144.903 190.456 146.761 199.495 155.799C208.533 164.837 210.369 177.626 203.649 184.347Z" fill="#5E12A0"/>
<path opacity="0.6" d="M203.648 184.346C210.385 177.61 208.525 164.829 199.494 155.798C190.464 146.768 177.683 144.908 170.947 151.644C164.21 158.381 166.07 171.162 175.1 180.192C184.131 189.223 196.912 191.082 203.648 184.346Z" fill="url(#paint14_linear_1017_25218)"/>
<path opacity="0.25" d="M201.572 182.445C193.484 187.667 180.573 183.788 172.742 173.776C169.274 169.347 167.393 164.5 167.06 159.977C166.375 165.401 168.23 171.795 172.65 177.437C180.502 187.427 193.414 191.306 201.48 186.106C206.008 183.215 208.036 178.087 207.634 172.405C207.113 176.553 205.067 180.179 201.572 182.445Z" fill="white" fill-opacity="0.7"/>
<path opacity="0.6" d="M173.123 149.936C169.373 152.34 167.32 156.265 166.953 160.786C166.968 160.888 166.983 160.99 166.983 160.99C167.161 159.291 167.863 157.244 167.863 157.244C167.077 163.528 169.116 167.749 169.116 167.749C166.922 162.806 168.443 156.254 171.432 152.914C174.42 149.575 177.751 148.76 183.002 148.949C188.282 149.168 195.426 153.257 199.719 157.855C204.034 162.432 205.887 167.776 205.887 167.776C205.01 164.499 204.209 162.258 203.117 160.249C202.736 159.694 202.355 159.139 201.902 158.598C194.101 148.615 181.211 144.715 173.123 149.936Z" fill="url(#paint15_linear_1017_25218)"/>
<path d="M198.737 156.263C207.308 164.834 209.076 176.988 202.683 183.381C196.29 189.774 184.114 188.028 175.544 179.457L198.737 156.263Z" fill="url(#paint16_linear_1017_25218)"/>
<g opacity="0.6">
<path opacity="0.6" d="M197.821 157.18C206.187 165.545 208.1 177.321 202.225 183.839C202.378 183.687 202.531 183.534 202.684 183.381C209.077 176.988 207.308 164.834 198.738 156.263L197.821 157.18Z" fill="url(#paint17_linear_1017_25218)"/>
</g>
<g opacity="0.7">
<path opacity="0.7" d="M177.18 177.821L175.544 179.457C184.114 188.028 196.269 189.796 202.662 183.403C202.945 183.12 203.207 182.858 203.44 182.567C196.854 187.982 185.37 186.011 177.18 177.821Z" fill="url(#paint18_linear_1017_25218)"/>
</g>
<path d="M198.861 156.431C197.077 154.647 193.741 155.936 190.313 158.661C187.853 160.653 185.899 163.193 184.377 166.82C183.029 169.924 180.875 171.785 179.179 173.012C175.431 175.766 173.583 177.497 175.689 179.603C178.731 182.645 187.16 181.822 192.782 173.567C195.622 169.381 196.058 166.196 197.195 163.187C198.448 159.945 200.441 158.01 198.861 156.431Z" fill="url(#paint19_linear_1017_25218)"/>
<path d="M183.723 156.828C184.808 155.743 184.508 153.686 183.054 152.232C181.6 150.778 179.543 150.478 178.458 151.563C177.374 152.647 177.673 154.705 179.127 156.159C180.581 157.613 182.639 157.912 183.723 156.828Z" fill="white"/>
<path d="M188.89 155.581C189.348 155.123 189.221 154.254 188.607 153.64C187.993 153.027 187.125 152.9 186.667 153.358C186.209 153.816 186.335 154.685 186.949 155.299C187.563 155.913 188.432 156.039 188.89 155.581Z" fill="white"/>
<g opacity="0.6">
<path opacity="0.6" d="M185.159 145.914C185.137 145.936 185.115 145.958 185.115 145.958C184.955 146.059 184.692 145.971 184.509 145.745C183.36 144.203 182.902 142.087 182.887 141.984C182.828 141.751 183.003 141.576 183.207 141.606C183.433 141.614 183.667 141.848 183.697 142.052C183.705 142.103 184.14 144.066 185.136 145.411C185.289 145.608 185.268 145.805 185.159 145.914Z" fill="url(#paint20_linear_1017_25218)"/>
</g>
<path opacity="0.2" d="M198.689 180.998C199.026 180.661 198.933 180.021 198.481 179.568C198.029 179.116 197.388 179.023 197.051 179.36C196.714 179.698 196.807 180.338 197.259 180.79C197.711 181.242 198.352 181.336 198.689 180.998Z" fill="white"/>
<g opacity="0.4">
<path opacity="0.6" d="M198.047 181.058C197.485 180.976 196.958 180.45 196.877 179.888C196.862 179.786 196.876 179.713 196.861 179.611C196.803 179.727 196.796 179.851 196.819 180.004C196.9 180.566 197.427 181.093 197.989 181.174C198.448 181.241 198.812 180.994 198.877 180.579C198.776 180.914 198.455 181.117 198.047 181.058Z" fill="url(#paint21_linear_1017_25218)"/>
</g>
<path opacity="0.3" d="M197.852 179.729C197.924 179.657 197.904 179.519 197.807 179.423C197.71 179.326 197.573 179.306 197.501 179.378C197.429 179.45 197.449 179.588 197.545 179.684C197.642 179.781 197.78 179.801 197.852 179.729Z" fill="white"/>
<path opacity="0.2" d="M201.465 177.404C201.803 177.066 201.71 176.426 201.257 175.974C200.805 175.522 200.165 175.429 199.827 175.766C199.49 176.103 199.583 176.744 200.036 177.196C200.488 177.648 201.128 177.741 201.465 177.404Z" fill="white"/>
<g opacity="0.4">
<path opacity="0.6" d="M200.823 177.462C200.262 177.38 199.735 176.854 199.653 176.292C199.639 176.19 199.653 176.117 199.638 176.015C199.58 176.131 199.573 176.255 199.595 176.408C199.677 176.97 200.204 177.497 200.765 177.578C201.225 177.645 201.589 177.398 201.653 176.983C201.552 177.318 201.232 177.521 200.823 177.462Z" fill="url(#paint22_linear_1017_25218)"/>
</g>
<path opacity="0.3" d="M200.629 176.134C200.702 176.061 200.682 175.924 200.585 175.827C200.488 175.73 200.351 175.71 200.278 175.783C200.206 175.855 200.226 175.992 200.323 176.089C200.42 176.186 200.557 176.206 200.629 176.134Z" fill="white"/>
<path opacity="0.2" d="M201.794 180.877C202.047 180.624 201.977 180.144 201.638 179.804C201.299 179.465 200.819 179.395 200.566 179.648C200.312 179.901 200.382 180.382 200.722 180.721C201.061 181.06 201.541 181.13 201.794 180.877Z" fill="white"/>
<g opacity="0.4">
<path opacity="0.6" d="M201.299 180.906C200.891 180.846 200.481 180.437 200.422 180.028C200.414 179.977 200.429 179.904 200.421 179.853C200.385 179.948 200.4 180.05 200.415 180.152C200.474 180.561 200.884 180.97 201.292 181.03C201.65 181.082 201.897 180.893 201.947 180.55C201.861 180.813 201.606 180.951 201.299 180.906Z" fill="url(#paint23_linear_1017_25218)"/>
</g>
<path opacity="0.3" d="M201.127 179.906C201.175 179.858 201.162 179.767 201.098 179.702C201.033 179.637 200.942 179.624 200.893 179.672C200.845 179.721 200.858 179.812 200.923 179.877C200.988 179.941 201.079 179.955 201.127 179.906Z" fill="white"/>
<path opacity="0.2" d="M204.17 177.624C204.423 177.37 204.353 176.89 204.014 176.551C203.675 176.212 203.195 176.142 202.942 176.395C202.689 176.648 202.759 177.128 203.098 177.468C203.437 177.807 203.917 177.877 204.17 177.624Z" fill="white"/>
<g opacity="0.4">
<path opacity="0.6" d="M203.676 177.652C203.267 177.593 202.857 177.183 202.798 176.775C202.79 176.724 202.805 176.651 202.797 176.6C202.761 176.695 202.776 176.797 202.791 176.899C202.85 177.307 203.26 177.717 203.669 177.776C204.026 177.828 204.273 177.639 204.324 177.297C204.237 177.559 203.982 177.697 203.676 177.652Z" fill="url(#paint24_linear_1017_25218)"/>
</g>
<path opacity="0.3" d="M203.505 176.652C203.553 176.604 203.539 176.512 203.475 176.448C203.41 176.383 203.319 176.37 203.27 176.418C203.222 176.466 203.236 176.558 203.3 176.622C203.365 176.687 203.456 176.7 203.505 176.652Z" fill="white"/>
<path opacity="0.2" d="M195.798 183.304C196.353 182.75 196.199 181.698 195.456 180.955C194.713 180.212 193.661 180.059 193.107 180.613C192.553 181.167 192.706 182.219 193.449 182.962C194.192 183.705 195.244 183.859 195.798 183.304Z" fill="white"/>
<g opacity="0.4">
<path opacity="0.6" d="M194.735 183.374C193.816 183.24 192.967 182.392 192.833 181.473C192.811 181.32 192.818 181.196 192.847 181.05C192.775 181.239 192.783 181.465 192.79 181.692C192.924 182.611 193.772 183.459 194.692 183.593C195.458 183.704 196.047 183.29 196.118 182.576C195.952 183.151 195.428 183.5 194.735 183.374Z" fill="url(#paint25_linear_1017_25218)"/>
</g>
<path opacity="0.3" d="M194.393 181.2C194.513 181.079 194.48 180.851 194.318 180.689C194.157 180.527 193.928 180.494 193.808 180.615C193.687 180.735 193.72 180.964 193.882 181.125C194.043 181.287 194.272 181.32 194.393 181.2Z" fill="white"/>
<path opacity="0.2" d="M201.462 171.031C202.016 170.477 201.863 169.425 201.12 168.682C200.377 167.939 199.325 167.786 198.771 168.34C198.216 168.895 198.369 169.946 199.112 170.689C199.855 171.433 200.907 171.586 201.462 171.031Z" fill="white"/>
<g opacity="0.4">
<path opacity="0.6" d="M200.374 171.124C199.455 170.99 198.607 170.142 198.473 169.222C198.451 169.069 198.458 168.945 198.487 168.799C198.414 168.989 198.422 169.215 198.43 169.441C198.564 170.36 199.412 171.209 200.331 171.342C201.097 171.454 201.687 171.04 201.758 170.325C201.592 170.901 201.089 171.228 200.374 171.124Z" fill="url(#paint26_linear_1017_25218)"/>
</g>
<path opacity="0.3" d="M200.054 168.927C200.175 168.807 200.142 168.578 199.98 168.417C199.818 168.255 199.59 168.222 199.469 168.342C199.349 168.463 199.382 168.691 199.544 168.853C199.705 169.015 199.934 169.048 200.054 168.927Z" fill="white"/>
</g>
</g>
<defs>
<radialGradient id="paint0_radial_1017_25218" cx="0" cy="0" r="1" gradientUnits="userSpaceOnUse" gradientTransform="translate(8.68125 336) rotate(-41.41) scale(529.146 714.638)">
<stop stop-color="#F530E4"/>
<stop offset="0.352923" stop-color="#7E1BFD"/>
<stop offset="0.77" stop-color="#4C1E98" stop-opacity="0.446602"/>
<stop offset="1" stop-color="#232047" stop-opacity="0"/>
</radialGradient>
<radialGradient id="paint1_radial_1017_25218" cx="0" cy="0" r="1" gradientUnits="userSpaceOnUse" gradientTransform="translate(936.852 361.27) rotate(-115.189) scale(284.332 773.409)">
<stop offset="0.012061" stop-color="#8A03A0"/>
<stop offset="0.428159" stop-color="#3D25BE" stop-opacity="0.4"/>
<stop offset="1" stop-color="#361FB3" stop-opacity="0"/>
</radialGradient>
<radialGradient id="paint2_radial_1017_25218" cx="0" cy="0" r="1" gradientUnits="userSpaceOnUse" gradientTransform="translate(149.135 247.046) rotate(-78.211) scale(258.878 413.258)">
<stop stop-color="#FFD0B6"/>
<stop offset="0.235951" stop-color="#FA7733"/>
<stop offset="0.58259" stop-color="#E9318E" stop-opacity="0.65"/>
<stop offset="1" stop-color="#6A1BD4" stop-opacity="0"/>
</radialGradient>
<linearGradient id="paint3_linear_1017_25218" x1="259.595" y1="276.58" x2="112.99" y2="90.1865" gradientUnits="userSpaceOnUse">
<stop stop-color="#310057"/>
<stop offset="0.567637" stop-color="#FF2EDE"/>
<stop offset="1" stop-color="#FF8642"/>
</linearGradient>
<radialGradient id="paint4_radial_1017_25218" cx="0" cy="0" r="1" gradientUnits="userSpaceOnUse" gradientTransform="translate(229.349 98.9936) rotate(126.466) scale(172.233 211.734)">
<stop stop-color="#FFD4BC"/>
<stop offset="0.32" stop-color="#FB902D"/>
<stop offset="0.71" stop-color="#E134C6"/>
<stop offset="1" stop-color="#B434E1"/>
</radialGradient>
<linearGradient id="paint5_linear_1017_25218" x1="244.267" y1="108.489" x2="122.241" y2="229.161" gradientUnits="userSpaceOnUse">
<stop stop-color="#FFDCBD"/>
<stop offset="0.445474" stop-color="#FF43BB"/>
<stop offset="1" stop-color="#F9B4FF"/>
</linearGradient>
<linearGradient id="paint6_linear_1017_25218" x1="135.119" y1="134.302" x2="131.879" y2="121.698" gradientUnits="userSpaceOnUse">
<stop stop-color="white"/>
<stop offset="1" stop-color="#EB578E" stop-opacity="0"/>
</linearGradient>
<linearGradient id="paint7_linear_1017_25218" x1="217.365" y1="194.006" x2="192.752" y2="211.881" gradientUnits="userSpaceOnUse">
<stop stop-color="#FFD8F6"/>
<stop offset="1" stop-color="white" stop-opacity="0"/>
</linearGradient>
<linearGradient id="paint8_linear_1017_25218" x1="112.875" y1="96.9095" x2="79.8159" y2="159.012" gradientUnits="userSpaceOnUse">
<stop stop-color="white"/>
<stop offset="1" stop-color="white" stop-opacity="0"/>
</linearGradient>
<linearGradient id="paint9_linear_1017_25218" x1="190.868" y1="99.9284" x2="221.973" y2="140.376" gradientUnits="userSpaceOnUse">
<stop stop-color="#FFD8F6"/>
<stop offset="1" stop-color="white" stop-opacity="0"/>
</linearGradient>
<linearGradient id="paint10_linear_1017_25218" x1="240.069" y1="190.186" x2="236.423" y2="204.35" gradientUnits="userSpaceOnUse">
<stop stop-color="#FFD8F6"/>
<stop offset="1" stop-color="white" stop-opacity="0"/>
</linearGradient>
<linearGradient id="paint11_linear_1017_25218" x1="238.092" y1="164.604" x2="199.972" y2="170.922" gradientUnits="userSpaceOnUse">
<stop stop-color="#FFD8F6"/>
<stop offset="1" stop-color="white" stop-opacity="0"/>
</linearGradient>
<radialGradient id="paint12_radial_1017_25218" cx="0" cy="0" r="1" gradientUnits="userSpaceOnUse" gradientTransform="translate(182.265 148.15) rotate(-60.548) scale(23.2622 31.1846)">
<stop stop-color="#FFEAFF" stop-opacity="0.6"/>
<stop offset="0.6807" stop-color="#A087C9" stop-opacity="0.19"/>
<stop offset="1" stop-color="#AB80FF" stop-opacity="0.06"/>
</radialGradient>
<radialGradient id="paint13_radial_1017_25218" cx="0" cy="0" r="1" gradientUnits="userSpaceOnUse" gradientTransform="translate(184.1 148.647) rotate(-45) scale(33.7426 45.2343)">
<stop stop-color="#FFEAFF" stop-opacity="0.6"/>
<stop offset="0.6807" stop-color="#A087C9" stop-opacity="0.21"/>
<stop offset="1" stop-color="#F1EAFF" stop-opacity="0"/>
</radialGradient>
<linearGradient id="paint14_linear_1017_25218" x1="201.46" y1="186.071" x2="176.711" y2="147.58" gradientUnits="userSpaceOnUse">
<stop stop-color="#81FFFF"/>
<stop offset="0.6202" stop-color="white" stop-opacity="0"/>
</linearGradient>
<linearGradient id="paint15_linear_1017_25218" x1="184.789" y1="148.295" x2="177.915" y2="164.003" gradientUnits="userSpaceOnUse">
<stop offset="0.2888" stop-color="white"/>
<stop offset="0.7796" stop-color="white" stop-opacity="0"/>
</linearGradient>
<linearGradient id="paint16_linear_1017_25218" x1="183.31" y1="187.204" x2="206.489" y2="164.026" gradientUnits="userSpaceOnUse">
<stop stop-color="#0002E9"/>
<stop offset="0.9952" stop-color="#FF00C7"/>
</linearGradient>
<linearGradient id="paint17_linear_1017_25218" x1="201.192" y1="156.535" x2="196.485" y2="183.737" gradientUnits="userSpaceOnUse">
<stop offset="0.2888" stop-color="white"/>
<stop offset="0.7796" stop-color="white" stop-opacity="0"/>
</linearGradient>
<linearGradient id="paint18_linear_1017_25218" x1="183.31" y1="187.204" x2="195.711" y2="174.804" gradientUnits="userSpaceOnUse">
<stop stop-color="#000292"/>
<stop offset="0.9952" stop-color="#7D00C7"/>
</linearGradient>
<linearGradient id="paint19_linear_1017_25218" x1="183.448" y1="184.057" x2="193.707" y2="161.171" gradientUnits="userSpaceOnUse">
<stop stop-color="#070993"/>
<stop offset="1" stop-color="#BE00C7"/>
</linearGradient>
<linearGradient id="paint20_linear_1017_25218" x1="183.13" y1="141.457" x2="183.65" y2="146.883" gradientUnits="userSpaceOnUse">
<stop offset="0.2888" stop-color="white"/>
<stop offset="0.7796" stop-color="white" stop-opacity="0"/>
</linearGradient>
<linearGradient id="paint21_linear_1017_25218" x1="197.277" y1="180.824" x2="198.2" y2="179.901" gradientUnits="userSpaceOnUse">
<stop offset="0.2888" stop-color="white"/>
<stop offset="0.7796" stop-color="white" stop-opacity="0"/>
</linearGradient>
<linearGradient id="paint22_linear_1017_25218" x1="200.046" y1="177.225" x2="200.969" y2="176.302" gradientUnits="userSpaceOnUse">
<stop offset="0.2888" stop-color="white"/>
<stop offset="0.7796" stop-color="white" stop-opacity="0"/>
</linearGradient>
<linearGradient id="paint23_linear_1017_25218" x1="200.727" y1="180.732" x2="201.42" y2="180.039" gradientUnits="userSpaceOnUse">
<stop offset="0.2888" stop-color="white"/>
<stop offset="0.7796" stop-color="white" stop-opacity="0"/>
</linearGradient>
<linearGradient id="paint24_linear_1017_25218" x1="203.092" y1="177.487" x2="203.785" y2="176.794" gradientUnits="userSpaceOnUse">
<stop offset="0.2888" stop-color="white"/>
<stop offset="0.7796" stop-color="white" stop-opacity="0"/>
</linearGradient>
<linearGradient id="paint25_linear_1017_25218" x1="193.485" y1="182.996" x2="194.993" y2="181.488" gradientUnits="userSpaceOnUse">
<stop offset="0.2888" stop-color="white"/>
<stop offset="0.7796" stop-color="white" stop-opacity="0"/>
</linearGradient>
<linearGradient id="paint26_linear_1017_25218" x1="199.132" y1="170.736" x2="200.64" y2="169.228" gradientUnits="userSpaceOnUse">
<stop offset="0.2888" stop-color="white"/>
<stop offset="0.7796" stop-color="white" stop-opacity="0"/>
</linearGradient>
<clipPath id="clip0_1017_25218">
<rect width="613.579" height="344" fill="white" transform="translate(0 -1.1792)"/>
</clipPath>
<clipPath id="clip1_1017_25218">
<rect width="43.6038" height="57.2833" fill="white" transform="translate(150 160.833) rotate(-45)"/>
</clipPath>
</defs>
</svg>
