<svg width="88" height="18" viewBox="0 0 88 18" fill="none" xmlns="http://www.w3.org/2000/svg">
<path d="M4.24061 9.17915L2.26649 11.154L0.273315 9.17915L2.26575 7.18671L4.24061 9.17915ZM9.06672 4.35303L12.4668 7.75315L14.46 5.76144L9.06672 0.385742L3.67343 5.77903L5.6666 7.77074L9.06672 4.35303ZM15.8677 7.18671L13.8928 9.17915L15.8853 11.1716L17.877 9.17915L15.8677 7.18671ZM9.06672 14.0053L5.6666 10.5876L3.67343 12.58L9.06672 17.9725L14.46 12.5793L12.4668 10.5876L9.06672 14.0053ZM9.06672 11.1547L11.0592 9.16156L9.06672 7.18744L7.07428 9.17915L9.06672 11.154V11.1547ZM30.0199 11.3599V11.3262C30.0199 10.038 29.3326 9.38506 28.2166 8.95565C28.9032 8.57826 29.4872 7.95906 29.4872 6.87747V6.84376C29.4872 5.33203 28.2678 4.35303 26.3099 4.35303H21.8274V13.9884H26.4132C28.5939 14.0053 30.0199 13.112 30.0199 11.3606V11.3599ZM27.3746 7.23873C27.3746 7.95979 26.7906 8.25144 25.846 8.25144H23.8887V6.20771H25.9838C26.877 6.20771 27.3746 6.56824 27.3746 7.20429V7.23873ZM27.9073 11.0858C27.9073 11.8069 27.3409 12.1337 26.4124 12.1337H23.8887V10.0204H26.3443C27.4266 10.0204 27.9073 10.4161 27.9073 11.0683V11.0858ZM34.4679 14.0053V4.35303H32.3385V13.9884H34.4679V14.0053ZM45.8722 14.0053V4.35303H43.7765V10.2959L39.2596 4.35303H37.3016V13.9884H39.3974V7.87406L44.0689 14.0053H45.8715H45.8722ZM57.6188 14.0053L53.4807 4.30174H51.5235L47.384 14.0053H49.5655L50.4412 11.8413H54.5118L55.3874 14.0053H57.6202H57.6188ZM53.7548 9.96909H51.1959L52.4841 6.84376L53.7548 9.96909ZM67.7356 14.0053V4.35303H65.6398V10.2959L61.1229 4.35303H59.1649V13.9884H61.2607V7.87406L65.9322 14.0053H67.7348H67.7356ZM78.6753 12.4422L77.3189 11.0858C76.5627 11.7725 75.8929 12.2187 74.7769 12.2187C73.1281 12.2187 71.9777 10.8448 71.9777 9.196V9.1447C71.9777 7.49594 73.145 6.13956 74.7769 6.13956C75.7383 6.13956 76.4945 6.55138 77.25 7.22115L78.6064 5.65812C77.7139 4.78244 76.6316 4.16397 74.8113 4.16397C71.8575 4.16397 69.7793 6.41362 69.7793 9.1447V9.17915C69.7793 11.9439 71.8912 14.1423 74.7256 14.1423C76.5803 14.1599 77.6795 13.507 78.6753 12.4422ZM87.7266 14.0053V12.1161H82.488V10.0893H87.0393V8.20015H82.488V6.24215H87.6578V4.35303H80.3929V13.9884H87.7266V14.0053Z" fill="#F7F7F7"/>
</svg>
