<svg width="120" height="120" viewBox="0 0 120 120" fill="none" xmlns="http://www.w3.org/2000/svg">
<path d="M97.16 31.4932C95.8625 28.6938 93.5104 25.7177 90.5343 23.1061C86.2717 19.3625 81.468 17.0325 78.0005 17.0325C77.8018 17.0325 77.6085 17.0325 77.4484 17.0325C76.4356 17.0677 75.4637 17.4409 74.6877 18.0926C74.5699 18.1957 74.4594 18.3061 74.3564 18.4239L74.2349 18.5674L74.2018 18.6227C73.9351 18.9647 73.7279 19.3492 73.5889 19.7601L69.1717 27.9263C68.6243 27.8332 68.0705 27.7834 67.5153 27.7773C66.8581 27.7725 66.2036 27.8617 65.5717 28.0423L65.3619 28.103L65.1024 28.2024L64.7932 28.3294L64.6551 28.4012C64.5337 28.4619 64.4122 28.5282 64.3018 28.5944L64.241 28.6331C64.114 28.7159 63.9926 28.7987 63.8821 28.8816C63.6733 29.0485 63.4793 29.2332 63.3024 29.4337L58.3331 34.403L58.2999 34.4417C57.0521 35.8607 56.8367 37.7546 57.3447 39.8638L26.557 71.0711C20.7429 76.8852 20.141 85.7362 25.2153 90.8104C26.3555 91.9273 27.7057 92.8073 29.1879 93.3996C30.67 93.992 32.2549 94.2848 33.8508 94.2613C38.0413 94.1823 42.0322 92.4566 44.96 89.4576L76.7416 57.2454C77.2022 57.3148 77.6673 57.3499 78.1331 57.3503C80.3858 57.3503 81.6723 56.4613 82.3625 55.6938L87.0447 51.0116C87.111 50.9509 87.1662 50.8901 87.2214 50.8294L87.3318 50.719L87.3705 50.6803C87.4689 50.5677 87.5611 50.4497 87.6466 50.327C88.3607 49.2846 88.6816 48.0225 88.5521 46.7656C88.4885 45.9382 88.3216 45.122 88.0551 44.3362L95.6306 39.6374C96.1488 39.4493 96.6226 39.156 97.022 38.776L97.0772 38.7374L97.2374 38.5552C98.5846 37.0092 98.557 34.5024 97.16 31.4932Z" fill="#390176"/>
<path d="M33.8508 94.2612C32.2549 94.2847 30.67 93.9918 29.1879 93.3995C27.7057 92.8072 26.3555 91.9272 25.2153 90.8103C20.141 85.7361 20.7429 76.8851 26.557 71.071L62.9435 34.1931L81.341 52.5907L44.9601 89.4575C42.0322 92.4565 38.0413 94.1822 33.8508 94.2612Z" fill="#390176"/>
<path d="M43.7774 88.2924C38.6037 93.466 30.8185 94.0679 26.3847 89.6396C21.951 85.2114 22.5528 77.4151 27.7264 72.2415L62.9534 36.5452L79.0043 52.5961L43.7774 88.2924Z" fill="#BCFFFF"/>
<g opacity="0.64">
<path d="M33.8519 91.2248C32.6542 91.2465 31.464 91.0313 30.3497 90.5917C29.2354 90.152 28.2189 89.4965 27.3587 88.6629C23.4937 84.7978 24.0789 77.8463 28.7059 73.2028L62.9391 38.4893L77.0354 52.5856L42.8022 87.3101C40.4496 89.7411 37.234 91.1475 33.8519 91.2248Z" fill="url(#paint0_radial_914_13227)"/>
</g>
<g style="mix-blend-mode:color-dodge" opacity="0.2">
<path d="M33.8519 91.2248C32.6542 91.2465 31.464 91.0313 30.3497 90.5917C29.2354 90.152 28.2189 89.4965 27.3587 88.6629C23.4937 84.7978 24.0789 77.8463 28.7059 73.2028L62.9391 38.4893L77.0354 52.5856L42.8022 87.3101C40.4496 89.7411 37.234 91.1475 33.8519 91.2248Z" fill="url(#paint1_radial_914_13227)"/>
</g>
<path d="M43.5957 58.1284L28.6877 73.2186C24.0607 77.8456 23.4533 84.775 27.3404 88.6787C28.2007 89.5124 29.2172 90.1679 30.3315 90.6075C31.4458 91.0472 32.636 91.2624 33.8337 91.2407C37.2115 91.1662 40.4244 89.766 42.7785 87.3425L70.7061 59.0395L43.5957 58.1284Z" fill="#390176"/>
<path d="M33.8499 90.3963C32.7663 90.4146 31.6898 90.2192 30.6817 89.8213C29.6737 89.4234 28.754 88.8307 27.9751 88.0772C24.4082 84.5104 25.01 78.1386 29.3168 73.8042L43.9266 58.9625L68.8339 59.7852L42.237 86.741C40.0321 89.0169 37.018 90.3304 33.8499 90.3963Z" fill="url(#paint2_linear_914_13227)"/>
<path d="M43.5956 58.1287C42.3312 59.3765 42.3312 61.8336 53.3742 62.6894C67.73 63.7937 70.4907 59.9287 70.7226 59.0231C71.0098 57.9188 67.1779 55.5115 57.7913 55.5115C48.4048 55.5115 44.8545 56.8808 43.5956 58.1287Z" fill="#390176"/>
<path d="M58.1721 62.0546C56.7034 62.0546 55.1132 61.9883 53.4346 61.8613C44.9702 61.2098 43.9929 59.6803 43.8825 59.3767C43.7721 59.073 44.0261 58.8632 44.1751 58.7196C45.0751 57.8306 48.0402 56.3398 57.7911 56.3398C65.8856 56.3398 69.4138 58.1619 69.8831 58.8963C69.596 59.3987 67.6248 62.0546 58.1721 62.0546Z" fill="url(#paint3_linear_914_13227)"/>
<path opacity="0.33" d="M42.7964 87.3262L77.0295 52.6017L73.2528 48.8857C68.3442 53.9048 61.5418 61.0716 53.3755 69.8673C44.8945 78.9943 40.0025 84.7201 35.7068 86.9839C32.7418 88.5465 28.5952 88.1268 26.3203 87.398C26.6215 87.8497 26.9635 88.273 27.3418 88.6624C28.202 89.4961 29.2185 90.1516 30.3328 90.5912C31.4471 91.0309 32.6373 91.2461 33.835 91.2244C37.2186 91.1543 40.4383 89.7537 42.7964 87.3262Z" fill="#231F1F"/>
<path d="M58.0677 52.1985C59.4399 52.1985 60.5523 51.086 60.5523 49.7138C60.5523 48.3415 59.4399 47.2291 58.0677 47.2291C56.6954 47.2291 55.583 48.3415 55.583 49.7138C55.583 51.086 56.6954 52.1985 58.0677 52.1985Z" fill="#FFFAE4"/>
<path d="M37.0859 67.8248C36.6276 68.2985 36.3762 68.9349 36.3871 69.594C36.3979 70.2531 36.6702 70.8808 37.1439 71.3392C37.6176 71.7975 38.254 72.0489 38.9131 72.0381C39.5722 72.0272 40.2 71.7549 40.6583 71.2812L55.627 55.8211C56.0613 55.3437 56.2928 54.716 56.2724 54.0709C56.2521 53.4259 55.9815 52.814 55.5181 52.3649C55.0546 51.9158 54.4346 51.6646 53.7892 51.6646C53.1438 51.6645 52.5237 51.9156 52.0602 52.3646L37.0859 67.8248Z" fill="url(#paint4_linear_914_13227)"/>
<path opacity="0.2" d="M33.7791 85.615C34.4683 85.615 35.027 85.0563 35.027 84.3671C35.027 83.6779 34.4683 83.1193 33.7791 83.1193C33.0899 83.1193 32.5312 83.6779 32.5312 84.3671C32.5312 85.0563 33.0899 85.615 33.7791 85.615Z" fill="white"/>
<g opacity="0.4">
<path opacity="0.6" d="M34.4843 85.1506C34.601 85.0356 34.6936 84.8985 34.7569 84.7473C34.8201 84.5961 34.8527 84.4339 34.8527 84.27C34.8527 84.1061 34.8201 83.9438 34.7569 83.7927C34.6936 83.6415 34.601 83.5044 34.4843 83.3893C34.407 83.3084 34.3152 83.2429 34.2137 83.196C34.3731 83.2615 34.5205 83.3529 34.6499 83.4666C34.8832 83.7014 35.0142 84.019 35.0142 84.35C35.0142 84.6811 34.8832 84.9987 34.6499 85.2335C34.4547 85.4328 34.1976 85.5599 33.9208 85.594C33.6439 85.6281 33.3637 85.5672 33.126 85.4212C33.3527 85.5215 33.6048 85.5493 33.8479 85.5008C34.091 85.4524 34.3133 85.3301 34.4843 85.1506Z" fill="url(#paint5_linear_914_13227)"/>
</g>
<path opacity="0.3" d="M33.3487 83.9859C33.4981 83.9859 33.6192 83.8648 33.6192 83.7154C33.6192 83.566 33.4981 83.4448 33.3487 83.4448C33.1993 83.4448 33.0781 83.566 33.0781 83.7154C33.0781 83.8648 33.1993 83.9859 33.3487 83.9859Z" fill="white"/>
<path opacity="0.2" d="M36.8149 82.3016C37.6566 82.3016 38.3389 81.6193 38.3389 80.7777C38.3389 79.9361 37.6566 79.2538 36.8149 79.2538C35.9733 79.2538 35.291 79.9361 35.291 80.7777C35.291 81.6193 35.9733 82.3016 36.8149 82.3016Z" fill="white"/>
<g opacity="0.4">
<path opacity="0.6" d="M37.6809 81.7388C37.8228 81.5977 37.9354 81.4299 38.0122 81.2451C38.0891 81.0604 38.1286 80.8622 38.1286 80.6621C38.1286 80.462 38.0891 80.2638 38.0122 80.0791C37.9354 79.8943 37.8228 79.7265 37.6809 79.5854C37.5845 79.4897 37.4725 79.4113 37.3496 79.3535C37.5523 79.4294 37.7394 79.5417 37.9018 79.6848C38.1651 79.9476 38.3232 80.2977 38.3462 80.6691C38.3692 81.0404 38.2556 81.4074 38.0267 81.7007C37.7979 81.9941 37.4696 82.1936 37.1039 82.2616C36.7381 82.3297 36.36 82.2615 36.041 82.0701C36.316 82.186 36.6195 82.2164 36.912 82.1573C37.2045 82.0982 37.4725 81.9524 37.6809 81.7388Z" fill="url(#paint6_linear_914_13227)"/>
</g>
<path opacity="0.3" d="M36.2854 80.3137C36.4684 80.3137 36.6167 80.1654 36.6167 79.9824C36.6167 79.7994 36.4684 79.6511 36.2854 79.6511C36.1024 79.6511 35.9541 79.7994 35.9541 79.9824C35.9541 80.1654 36.1024 80.3137 36.2854 80.3137Z" fill="white"/>
<path opacity="0.2" d="M33.5024 79.5405C34.3441 79.5405 35.0264 78.8582 35.0264 78.0166C35.0264 77.175 34.3441 76.4927 33.5024 76.4927C32.6608 76.4927 31.9785 77.175 31.9785 78.0166C31.9785 78.8582 32.6608 79.5405 33.5024 79.5405Z" fill="white"/>
<g opacity="0.4">
<path opacity="0.6" d="M34.3703 78.9784C34.5122 78.8373 34.6249 78.6695 34.7017 78.4848C34.7785 78.3 34.8181 78.1019 34.8181 77.9017C34.8181 77.7016 34.7785 77.5035 34.7017 77.3187C34.6249 77.1339 34.5122 76.9662 34.3703 76.825C34.274 76.7294 34.1619 76.6509 34.0391 76.5931C34.2417 76.669 34.4289 76.7813 34.5912 76.9244C34.8545 77.1873 35.0126 77.5374 35.0356 77.9087C35.0587 78.2801 34.945 78.647 34.7162 78.9404C34.4874 79.2337 34.1591 79.4332 33.7933 79.5012C33.4275 79.5693 33.0495 79.5012 32.7305 79.3097C33.0055 79.4256 33.309 79.456 33.6015 79.3969C33.894 79.3378 34.1619 79.192 34.3703 78.9784Z" fill="url(#paint7_linear_914_13227)"/>
</g>
<path opacity="0.3" d="M32.9729 77.5534C33.1559 77.5534 33.3042 77.4051 33.3042 77.2222C33.3042 77.0392 33.1559 76.8909 32.9729 76.8909C32.7899 76.8909 32.6416 77.0392 32.6416 77.2222C32.6416 77.4051 32.7899 77.5534 32.9729 77.5534Z" fill="white"/>
<path opacity="0.2" d="M40.1278 77.8847C41.2744 77.8847 42.2039 76.9552 42.2039 75.8086C42.2039 74.662 41.2744 73.7325 40.1278 73.7325C38.9812 73.7325 38.0518 74.662 38.0518 75.8086C38.0518 76.9552 38.9812 77.8847 40.1278 77.8847Z" fill="white"/>
<g opacity="0.4">
<path opacity="0.6" d="M41.3052 77.1174C41.4981 76.9246 41.6513 76.6956 41.7557 76.4436C41.8602 76.1916 41.9139 75.9215 41.9139 75.6487C41.9139 75.3759 41.8602 75.1057 41.7557 74.8537C41.6513 74.6017 41.4981 74.3728 41.3052 74.18C41.1739 74.0493 41.0206 73.9428 40.8524 73.8652C41.1189 73.9712 41.3639 74.1246 41.5757 74.318C41.933 74.6758 42.1475 75.1518 42.1787 75.6566C42.21 76.1613 42.056 76.6601 41.7455 77.0593C41.4351 77.4585 40.9896 77.7307 40.4927 77.8248C39.9959 77.9188 39.4817 77.8283 39.0469 77.5701C39.4246 77.7336 39.8433 77.7779 40.2468 77.697C40.6504 77.6161 41.0196 77.4138 41.3052 77.1174Z" fill="url(#paint8_linear_914_13227)"/>
</g>
<path opacity="0.3" d="M39.4098 75.1733C39.6598 75.1733 39.8626 74.9706 39.8626 74.7206C39.8626 74.4705 39.6598 74.2678 39.4098 74.2678C39.1597 74.2678 38.957 74.4705 38.957 74.7206C38.957 74.9706 39.1597 75.1733 39.4098 75.1733Z" fill="white"/>
<path d="M78.1318 57.3502C74.4711 57.3502 69.4576 54.9484 65.0515 51.0778C59.2042 45.9428 54.8423 38.3784 58.2766 34.4692L58.3098 34.4306L63.2791 29.4613C63.9693 28.6993 65.2558 27.8048 67.503 27.8048C71.1637 27.8048 76.1772 30.2067 80.5834 34.0772C83.6423 36.7606 86.0662 39.8416 87.4134 42.7404C88.9594 46.0533 88.9429 48.8858 87.3637 50.6858L87.3251 50.7244L82.3558 55.6938C81.6656 56.4557 80.3791 57.3502 78.1263 57.3502H78.1318Z" fill="#390176"/>
<path d="M59.5206 35.5626C57.2071 38.2019 60.1721 44.5902 66.1464 49.8356C72.1206 55.081 78.8458 57.1957 81.1537 54.562L86.1231 49.5927C88.4366 46.9589 85.4715 40.5706 79.4973 35.3197C73.5231 30.0687 66.7979 27.9595 64.4899 30.5933L59.5206 35.5626Z" fill="#BCFFFF"/>
<g opacity="0.64">
<path d="M78.1321 54.8654C75.0953 54.8654 70.6063 52.6569 66.6916 49.2115C61.8713 44.9765 57.9953 38.555 60.1431 36.109L65.0738 31.1783C65.3903 30.8615 65.7722 30.6178 66.1929 30.4642C66.6135 30.3107 67.0626 30.251 67.5088 30.2894C70.5456 30.2894 75.0345 32.498 78.9493 35.9434C81.7542 38.4059 83.9628 41.1943 85.1664 43.7838C86.2707 46.1305 86.3756 48.0464 85.5033 49.0458L80.5671 53.9931C80.2508 54.3102 79.8689 54.5541 79.4482 54.7077C79.0275 54.8613 78.5783 54.9208 78.1321 54.882V54.8654Z" fill="url(#paint9_radial_914_13227)"/>
</g>
<g opacity="0.64">
<path d="M83.1038 49.896C80.067 49.896 75.578 47.6874 71.6633 44.242C66.843 40.007 62.967 33.5856 65.1148 31.1396C65.4295 30.8337 65.8065 30.5993 66.2201 30.4526C66.6336 30.3058 67.074 30.2501 67.5111 30.2892C70.5479 30.2892 75.0369 32.4978 78.9516 35.9432C81.7565 38.4058 83.9651 41.1942 85.1688 43.7837C86.2731 46.1303 86.378 48.0463 85.5056 49.0457C85.1899 49.3517 84.8119 49.5861 84.3974 49.7328C83.9829 49.8796 83.5417 49.9352 83.1038 49.896Z" fill="url(#paint10_radial_914_13227)"/>
</g>
<g style="mix-blend-mode:color-dodge" opacity="0.2">
<path d="M78.1321 54.8654C75.0953 54.8654 70.6063 52.6569 66.6916 49.2115C61.8713 44.9765 57.9953 38.555 60.1431 36.109L65.0738 31.1783C65.3903 30.8615 65.7722 30.6178 66.1929 30.4642C66.6135 30.3107 67.0626 30.251 67.5088 30.2894C70.5456 30.2894 75.0345 32.498 78.9493 35.9434C81.7542 38.4059 83.9628 41.1943 85.1664 43.7838C86.2707 46.1305 86.3756 48.0464 85.5033 49.0458L80.5671 53.9931C80.2508 54.3102 79.8689 54.5541 79.4482 54.7077C79.0275 54.8613 78.5783 54.9208 78.1321 54.882V54.8654Z" fill="url(#paint11_radial_914_13227)"/>
</g>
<path d="M87.3699 50.6805C86.6908 51.4591 85.3987 52.3812 83.1018 52.3812C82.8092 52.3812 82.511 52.3812 82.2073 52.337C79.7516 51.9956 77.3916 51.1557 75.2724 49.8689C73.3989 48.797 71.6396 47.5371 70.0214 46.1088C63.1472 40.0683 60.2319 32.929 63.2466 29.5002C63.9257 28.7272 65.2178 27.7996 67.5092 27.7996C71.1699 27.7996 76.1834 30.2069 80.5895 34.0775C83.6484 36.7609 86.0724 39.8364 87.4196 42.7351C88.9656 46.0701 88.949 48.8916 87.3699 50.6805Z" fill="#390176"/>
<path opacity="0.33" d="M82.2078 52.3369L80.5514 53.9933C80.2363 54.3123 79.8547 54.5579 79.4338 54.7125C79.0129 54.8672 78.5631 54.927 78.1164 54.8878C76.46 54.8878 74.4226 54.2363 72.2637 53.1099L75.2563 49.8909C77.3823 51.172 79.748 52.0044 82.2078 52.3369Z" fill="#231F1F"/>
<path d="M86.1225 49.5757C85.5354 50.2116 84.732 50.6055 83.8697 50.68C81.9317 50.9285 79.2648 50.1886 76.4268 48.6315C74.5257 47.5713 72.7448 46.3088 71.1151 44.8659C65.1409 39.6205 62.1759 33.2321 64.4894 30.5984C66.8028 27.9647 73.5225 30.0794 79.4967 35.3248C85.4709 40.5702 88.4415 46.9585 86.1225 49.5757Z" fill="#BCFFFF"/>
<g opacity="0.64">
<path d="M83.1038 49.896C80.067 49.896 75.578 47.6874 71.6633 44.242C66.843 40.007 62.967 33.5856 65.1148 31.1396C65.4295 30.8337 65.8065 30.5993 66.2201 30.4526C66.6336 30.3058 67.074 30.2501 67.5111 30.2892C70.5479 30.2892 75.0369 32.4978 78.9516 35.9432C81.7565 38.4058 83.9651 41.1942 85.1688 43.7837C86.2731 46.1303 86.378 48.0463 85.5056 49.0457C85.1899 49.3517 84.8119 49.5861 84.3974 49.7328C83.9829 49.8796 83.5417 49.9352 83.1038 49.896Z" fill="url(#paint12_radial_914_13227)"/>
</g>
<g style="mix-blend-mode:color-dodge" opacity="0.2">
<path d="M83.1038 49.896C80.067 49.896 75.578 47.6874 71.6633 44.242C66.843 40.007 62.967 33.5856 65.1148 31.1396C65.4295 30.8337 65.8065 30.5993 66.2201 30.4526C66.6336 30.3058 67.074 30.2501 67.5111 30.2892C70.5479 30.2892 75.0369 32.4978 78.9516 35.9432C81.7565 38.4058 83.9651 41.1942 85.1688 43.7837C86.2731 46.1303 86.378 48.0463 85.5056 49.0457C85.1899 49.3517 84.8119 49.5861 84.3974 49.7328C83.9829 49.8796 83.5417 49.9352 83.1038 49.896Z" fill="url(#paint13_radial_914_13227)"/>
</g>
<path opacity="0.33" d="M85.5034 49.024C86.3758 48.0246 86.2543 46.1087 85.1666 43.7621C84.8553 43.1003 84.5031 42.4585 84.112 41.8406C79.9378 42.1387 72.6494 42.6964 72.6494 42.6964C74.9022 46.0921 78.8832 48.6651 81.0255 49.5872C81.7032 49.7674 82.4004 49.8638 83.1016 49.8743C83.5395 49.9135 83.9807 49.8579 84.3952 49.7111C84.8097 49.5644 85.1877 49.33 85.5034 49.024Z" fill="#231F1F"/>
<path d="M65.0574 44.6951C64.9422 44.6942 64.8284 44.6697 64.723 44.6232C64.6176 44.5766 64.5229 44.509 64.4445 44.4245C61.6562 41.3601 61.1317 38.8037 61.0985 38.6933C61.0626 38.481 61.1107 38.263 61.2328 38.0856C61.3548 37.9083 61.5411 37.7854 61.7522 37.743C61.9633 37.7006 62.1826 37.7421 62.3636 37.8587C62.5446 37.9753 62.6731 38.1578 62.7218 38.3675C62.7218 38.4117 63.2298 40.6313 65.6703 43.3368C65.7784 43.4555 65.8497 43.6031 65.8755 43.7616C65.9012 43.9201 65.8804 44.0826 65.8154 44.2294C65.7505 44.3763 65.6443 44.5011 65.5097 44.5887C65.3751 44.6762 65.218 44.7228 65.0574 44.7227V44.6951Z" fill="url(#paint14_linear_914_13227)"/>
<path d="M82.1147 47.268C79.4754 47.268 75.8478 45.5288 72.6509 42.7183C69.338 39.814 65.1141 34.1159 67.5656 30.9576L74.2355 18.595L74.357 18.4515C74.8243 17.9639 75.3927 17.5847 76.0223 17.3405C76.6519 17.0963 77.3274 16.993 78.0012 17.038C81.4687 17.038 86.2834 19.3625 90.5349 23.1116C93.511 25.7232 95.8631 28.6993 97.1607 31.4987C98.5576 34.5079 98.5852 37.0202 97.238 38.5496L97.0779 38.7318L84.9306 46.2962C84.157 46.9791 83.1448 47.3285 82.1147 47.268Z" fill="#390176"/>
<path d="M68.9449 31.9072C67.3712 33.6961 70.2093 38.3949 73.743 41.498C76.6031 44.0102 79.8884 45.6336 82.1136 45.6336C82.434 45.6638 82.7572 45.6236 83.0605 45.5158C83.3638 45.4081 83.6399 45.2353 83.8694 45.0096L96.0166 37.4728C96.889 36.4734 96.7676 34.5575 95.6798 32.2109C94.4762 29.6213 92.2676 26.8329 89.4627 24.3704C85.5479 20.936 81.059 18.7164 78.0222 18.7164C77.5851 18.6772 77.1447 18.7329 76.7311 18.8797C76.3175 19.0264 75.9405 19.2608 75.6259 19.5667L68.9449 31.9072Z" fill="#B0895E"/>
<path opacity="0.33" d="M94.6075 30.2786C90.9854 31.0626 81.8308 34.6957 81.8308 34.6957C85.3977 37.2908 79.7492 43.4528 73.7363 41.4761C76.602 43.9884 79.8872 45.6117 82.1124 45.6117C82.4329 45.6419 82.756 45.6017 83.0593 45.494C83.3626 45.3862 83.6387 45.2134 83.8682 44.9878L96.0155 37.451C96.8879 36.4516 96.7664 34.5356 95.6787 32.189C95.3623 31.5302 95.0045 30.8921 94.6075 30.2786Z" fill="#231F1F"/>
<path d="M93.5921 39.9575C90.1246 39.9575 85.3099 37.633 81.0584 33.8839C76.3099 29.7096 71.1197 22.1618 74.3553 18.4237C74.8226 17.9362 75.391 17.557 76.0206 17.3128C76.6502 17.0686 77.3257 16.9653 77.9995 17.0102C81.467 17.0102 86.2817 19.3348 90.5332 23.0839C93.5093 25.6955 95.8615 28.6716 97.159 31.471C98.5559 34.4802 98.5835 36.9925 97.2363 38.5219C96.4412 39.4826 95.1878 39.9575 93.5921 39.9575Z" fill="#390176"/>
<path d="M93.592 38.3011C90.5552 38.3011 86.0663 36.0926 82.1516 32.6472C77.3313 28.4122 73.4552 21.9907 75.6031 19.5447C75.9177 19.2388 76.2948 19.0045 76.7083 18.8577C77.1219 18.711 77.5623 18.6553 77.9994 18.6944C81.0362 18.6944 85.5252 20.903 89.4399 24.3484C92.2448 26.811 94.4534 29.5993 95.6571 32.1889C96.7614 34.5355 96.8663 36.4515 95.9939 37.4508C95.6782 37.7569 95.3002 37.9912 94.8857 38.138C94.4712 38.2847 94.03 38.3404 93.592 38.3011Z" fill="#FFDA7F"/>
<path opacity="0.33" d="M95.6578 32.1887C95.1131 31.0491 94.4585 29.9655 93.7032 28.9531C94.0179 29.5052 94.3106 30.0132 94.5535 30.5322C95.6578 32.8789 95.7627 34.7948 94.8903 35.7942C94.5746 36.1002 94.1966 36.3346 93.7821 36.4813C93.3677 36.6281 92.9264 36.6837 92.4885 36.6445C89.4517 36.6445 84.9627 34.4359 81.048 30.9905C79.452 29.5842 78.0135 28.0087 76.7578 26.2917C78.2329 28.6645 80.0507 30.806 82.1523 32.647C86.067 36.0813 90.556 38.301 93.5928 38.301C94.0307 38.3402 94.472 38.2845 94.8864 38.1378C95.3009 37.991 95.6789 37.7567 95.9946 37.4506C96.867 36.4513 96.7455 34.5353 95.6578 32.1887Z" fill="#231F1F"/>
<path d="M75.8204 26.8718L73.1094 33.6412L77.3223 28.9093L84.848 28.4565L75.8204 26.8718Z" fill="#390176"/>
<path d="M81.4752 24.5813C81.8777 24.1231 81.3681 23.0175 80.337 22.112C79.3059 21.2065 78.1438 20.844 77.7414 21.3022C77.3389 21.7605 77.8485 22.866 78.8796 23.7715C79.9107 24.677 81.0728 25.0396 81.4752 24.5813Z" fill="#E4AB5C"/>
<path d="M88.9006 27.5398C89.4842 26.8754 88.7443 25.2715 87.2481 23.9575C85.7519 22.6436 84.0659 22.117 83.4824 22.7815C82.8988 23.446 83.6387 25.0498 85.1349 26.3638C86.6311 27.6778 88.3171 28.2043 88.9006 27.5398Z" fill="#E4AB5C"/>
<path d="M92.7586 33.7017C93.0323 33.3901 92.6839 32.6367 91.9805 32.0189C91.2771 31.4011 90.485 31.153 90.2113 31.4646C89.9377 31.7762 90.2861 32.5296 90.9895 33.1473C91.6929 33.7651 92.485 34.0133 92.7586 33.7017Z" fill="#E4AB5C"/>
<defs>
<radialGradient id="paint0_radial_914_13227" cx="0" cy="0" r="1" gradientUnits="userSpaceOnUse" gradientTransform="translate(29.755 90.7555) scale(67.6436 67.6436)">
<stop stop-color="#2833D5"/>
<stop offset="0.39" stop-color="#5176DC"/>
<stop offset="0.81" stop-color="#78B7E2"/>
<stop offset="1" stop-color="#87D0E5"/>
</radialGradient>
<radialGradient id="paint1_radial_914_13227" cx="0" cy="0" r="1" gradientUnits="userSpaceOnUse" gradientTransform="translate(29.755 90.7555) scale(67.6436 67.6436)">
<stop stop-color="#2833D5"/>
<stop offset="0.39" stop-color="#5176DC"/>
<stop offset="0.81" stop-color="#78B7E2"/>
<stop offset="1" stop-color="#87D0E5"/>
</radialGradient>
<linearGradient id="paint2_linear_914_13227" x1="25.6229" y1="74.6822" x2="68.8063" y2="74.6822" gradientUnits="userSpaceOnUse">
<stop stop-color="#3DE2F0"/>
<stop offset="0.1" stop-color="#45C4F1"/>
<stop offset="0.29" stop-color="#5191F4"/>
<stop offset="0.46" stop-color="#5A6DF6"/>
<stop offset="0.59" stop-color="#6056F7"/>
<stop offset="0.68" stop-color="#624EF7"/>
<stop offset="1" stop-color="#2827F7"/>
</linearGradient>
<linearGradient id="paint3_linear_914_13227" x1="43.8659" y1="59.1944" x2="69.8831" y2="59.1944" gradientUnits="userSpaceOnUse">
<stop stop-color="#62C1F6"/>
<stop offset="0.32" stop-color="#5969F6"/>
<stop offset="0.74" stop-color="#9E69E6"/>
<stop offset="1" stop-color="#6151ED"/>
</linearGradient>
<linearGradient id="paint4_linear_914_13227" x1="37.0722" y1="71.3072" x2="55.5028" y2="52.2618" gradientUnits="userSpaceOnUse">
<stop stop-color="white" stop-opacity="0"/>
<stop offset="0.22" stop-color="white" stop-opacity="0.24"/>
<stop offset="0.6" stop-color="white" stop-opacity="0.64"/>
<stop offset="0.87" stop-color="white" stop-opacity="0.9"/>
<stop offset="1" stop-color="white"/>
</linearGradient>
<linearGradient id="paint5_linear_914_13227" x1="35.0309" y1="84.3997" x2="33.1536" y2="84.3997" gradientUnits="userSpaceOnUse">
<stop offset="0.29" stop-color="white"/>
<stop offset="0.78" stop-color="white" stop-opacity="0"/>
</linearGradient>
<linearGradient id="paint6_linear_914_13227" x1="38.3435" y1="80.8222" x2="36.0521" y2="80.8222" gradientUnits="userSpaceOnUse">
<stop offset="0.29" stop-color="white"/>
<stop offset="0.78" stop-color="white" stop-opacity="0"/>
</linearGradient>
<linearGradient id="paint7_linear_914_13227" x1="35.0329" y1="78.0619" x2="32.7415" y2="78.0619" gradientUnits="userSpaceOnUse">
<stop offset="0.29" stop-color="white"/>
<stop offset="0.78" stop-color="white" stop-opacity="0"/>
</linearGradient>
<linearGradient id="paint8_linear_914_13227" x1="42.2107" y1="75.864" x2="39.091" y2="75.864" gradientUnits="userSpaceOnUse">
<stop offset="0.29" stop-color="white"/>
<stop offset="0.78" stop-color="white" stop-opacity="0"/>
</linearGradient>
<radialGradient id="paint9_radial_914_13227" cx="0" cy="0" r="1" gradientUnits="userSpaceOnUse" gradientTransform="translate(83.1842 57.9575) scale(35.1884 35.1883)">
<stop stop-color="#2833D5"/>
<stop offset="0.39" stop-color="#5176DC"/>
<stop offset="0.81" stop-color="#78B7E2"/>
<stop offset="1" stop-color="#87D0E5"/>
</radialGradient>
<radialGradient id="paint10_radial_914_13227" cx="0" cy="0" r="1" gradientUnits="userSpaceOnUse" gradientTransform="translate(83.1866 57.9573) scale(35.1884 35.1883)">
<stop stop-color="#2833D5"/>
<stop offset="0.39" stop-color="#5176DC"/>
<stop offset="0.81" stop-color="#78B7E2"/>
<stop offset="1" stop-color="#87D0E5"/>
</radialGradient>
<radialGradient id="paint11_radial_914_13227" cx="0" cy="0" r="1" gradientUnits="userSpaceOnUse" gradientTransform="translate(83.1842 57.9575) scale(35.1884 35.1883)">
<stop stop-color="#2833D5"/>
<stop offset="0.39" stop-color="#5176DC"/>
<stop offset="0.81" stop-color="#78B7E2"/>
<stop offset="1" stop-color="#87D0E5"/>
</radialGradient>
<radialGradient id="paint12_radial_914_13227" cx="0" cy="0" r="1" gradientUnits="userSpaceOnUse" gradientTransform="translate(83.1866 57.9573) scale(35.1884 35.1883)">
<stop stop-color="#2833D5"/>
<stop offset="0.39" stop-color="#5176DC"/>
<stop offset="0.81" stop-color="#78B7E2"/>
<stop offset="1" stop-color="#87D0E5"/>
</radialGradient>
<radialGradient id="paint13_radial_914_13227" cx="0" cy="0" r="1" gradientUnits="userSpaceOnUse" gradientTransform="translate(83.1866 57.9573) scale(35.1884 35.1883)">
<stop stop-color="#2833D5"/>
<stop offset="0.39" stop-color="#5176DC"/>
<stop offset="0.81" stop-color="#78B7E2"/>
<stop offset="1" stop-color="#87D0E5"/>
</radialGradient>
<linearGradient id="paint14_linear_914_13227" x1="60.888" y1="41.0016" x2="66.074" y2="41.3988" gradientUnits="userSpaceOnUse">
<stop stop-color="white"/>
<stop offset="0.13" stop-color="white" stop-opacity="0.9"/>
<stop offset="0.4" stop-color="white" stop-opacity="0.64"/>
<stop offset="0.78" stop-color="white" stop-opacity="0.24"/>
<stop offset="1" stop-color="white" stop-opacity="0"/>
</linearGradient>
</defs>
</svg>
