<svg width="120" height="120" viewBox="0 0 120 120" fill="none" xmlns="http://www.w3.org/2000/svg">
<path d="M67.6711 28.3335C65.2942 28.8247 70.0757 30.235 73.2173 30.3142C79.4131 30.4727 78.9377 34.3154 66.4826 32.6912C57.371 31.5027 52.6172 33.4835 52.6172 33.4835C52.6172 33.4835 67.168 33.4082 74.3542 36.6171C81.5405 39.8259 91.4523 44.9046 94.6096 50.5182C101.74 63.1951 75.9903 60.0259 75.9903 60.0259C98.175 67.5528 101.507 56.8566 98.8525 51.7066C96.1982 46.5566 92.8349 40.6658 100.156 44.1797C110.06 48.9335 102.137 21.2027 67.6711 28.3335ZM99.2684 40.8124C93.7975 42.3177 90.2995 34.8027 83.8184 32.5486C80.4629 31.3799 82.7804 29.1614 90.5768 31.0471C99.9142 33.3013 102.402 39.9527 99.2684 40.8124Z" fill="url(#paint0_linear_914_13390)"/>
<path d="M100.329 20.05C99.4535 19.127 98.1264 19.02 97.2033 19.02C95.8565 19.0464 94.5148 19.1936 93.1943 19.4598C91.1824 19.844 89.2036 20.3844 87.2757 21.0761C87.137 21.1276 87.0024 21.1909 86.8795 21.2543C86.7567 21.3177 86.7369 21.3256 86.6656 21.3653L86.5507 21.4286C85.8513 21.8309 85.2967 22.4437 84.9661 23.1796C84.4194 24.3998 84.3838 26.0412 84.8592 28.1039C84.4861 28.0939 84.1171 28.1827 83.7895 28.3614C83.2749 28.2083 82.7418 28.1256 82.2049 28.1157C81.7622 28.1007 81.3235 28.2032 80.9333 28.4129C80.2004 28.192 79.4405 28.0734 78.6752 28.0603C78.2033 28.056 77.7334 28.1214 77.2807 28.2544L77.1302 28.294L76.944 28.3693L76.7221 28.4564L76.6231 28.5119C76.5359 28.5555 76.4488 28.599 76.3696 28.6466L76.326 28.6783C76.2349 28.7337 76.1477 28.7932 76.0685 28.8526C75.9196 28.9734 75.7805 29.1059 75.6525 29.2487L72.0871 32.8141L72.0633 32.8458C71.1047 33.9353 70.9937 35.4248 71.4651 37.053C69.4289 39.6795 67.258 41.8782 64.5206 43.5777L64.1997 43.4232C63.4261 43.0667 62.5834 42.8854 61.7316 42.8923C59.5726 42.8923 57.3145 43.9738 56.1855 46.7469C52.9419 47.3593 49.6455 47.6472 46.345 47.6066C45.4853 47.6066 44.586 47.6066 43.667 47.563H42.8746C34.0245 47.563 26.5966 52.4872 23.4829 60.4182C19.6481 70.1953 23.0867 81.8106 32.4795 91.0054L32.4558 91.0291L33.3392 91.8214L33.5214 91.9839L33.7037 92.1542L34.5831 92.9465C42.8073 99.8911 50.4293 101.381 55.4486 101.381C61.9693 101.381 67.9909 98.7898 71.9683 94.2697C75.143 90.619 76.9041 85.9513 76.9321 81.1134C77.4164 80.753 77.8013 80.2755 78.0507 79.7257C78.3001 79.1759 78.4058 78.5718 78.3579 77.97C78.31 77.3682 78.11 76.7884 77.7768 76.285C77.4436 75.7816 76.988 75.371 76.4527 75.0918C76.2059 72.7233 76.1027 70.342 76.1437 67.961C77.47 66.8487 78.3204 65.2711 78.5207 63.5518L78.6712 63.3537C80.0023 61.579 80.7986 58.2037 79.6497 55.4069L79.4754 54.9869C80.8363 52.7851 82.4992 50.7848 84.4155 49.0446C85.0305 49.2032 85.6621 49.2883 86.2972 49.2982C87.9135 49.2982 88.8366 48.6603 89.3317 48.1097L92.6911 44.7503L92.8179 44.6235L92.8971 44.5443L92.9249 44.5126C92.9964 44.4339 93.0626 44.3505 93.1229 44.263C93.6344 43.5147 93.8645 42.6095 93.7726 41.7078C93.7186 41.0167 93.568 40.3366 93.325 39.6874C93.7211 39.0457 93.6895 38.0751 93.2537 36.9143C93.467 36.4563 93.5174 35.9391 93.3963 35.4486C93.8804 35.5031 94.367 35.5322 94.8541 35.5357C96.7399 35.5357 97.8966 35.0366 98.6057 34.379H98.677L98.9187 34.0501C99.1416 33.7756 99.3182 33.4665 99.4416 33.135V33.1033C99.4774 33.0114 99.5078 32.9175 99.5327 32.8221C99.9091 31.4633 100.88 27.5413 101.117 24.7841C101.117 24.5979 101.145 24.4196 101.157 24.2493C101.244 22.6963 101.327 21.1038 100.329 20.05Z" fill="#56C7E3"/>
<path d="M76.5156 58.3544L79.2214 54.3928L79.6413 55.4109C80.7901 58.184 79.9939 61.583 78.6628 63.3578L77.8942 64.3839L76.5156 58.3544Z" fill="#390176"/>
<path d="M79.111 55.629C80.1886 58.2397 79.3963 61.4089 78.2078 62.9935L77.1738 58.4734L79.111 55.629Z" fill="url(#paint1_linear_914_13390)"/>
<path opacity="0.33" d="M78.1871 62.9937C79.3755 61.4091 80.1678 58.2398 79.0903 55.6292L78.4406 56.5878L78.3772 56.9285C78.9794 58.2398 78.809 58.6914 77.9058 58.8618C77.6958 58.9014 77.5096 59.1351 77.3789 59.4639L78.1871 62.9937Z" fill="#231F1F"/>
<path d="M55.4532 101.372C50.4339 101.372 42.8119 99.8829 34.5877 92.9383L33.7082 92.146L33.526 91.9757L33.3438 91.8132L32.4604 91.0209L32.4841 90.9972C23.0992 81.8143 19.6527 70.1871 23.4874 60.41C26.6012 52.4869 34.0291 47.5548 42.8792 47.5548H43.6715C44.5906 47.5825 45.4899 47.5984 46.3496 47.5984C64.026 47.5984 68.9542 41.3629 75.5224 31.1936L76.283 30.0051L91.0794 43.4308L89.9821 44.3024C79.8484 52.3403 74.2389 57.8469 76.7782 77.5794C77.5903 83.8862 75.8988 89.7968 72.0244 94.2179C68.0628 98.738 62.0254 101.329 55.5047 101.329L55.4532 101.372Z" fill="#390176"/>
<path d="M75.5693 77.7779C73.0141 57.9345 78.5128 51.8892 89.209 43.4075L83.0329 37.7979L82.6684 37.4691L76.4884 31.8635C69.0803 43.3283 63.5975 49.3894 43.6075 48.7675C23.7324 48.1455 14.2406 72.5011 34.1394 90.954L34.3256 91.1164L34.5039 91.2828C54.787 109.32 78.1087 97.4985 75.5693 77.7779Z" fill="#BCFFFF"/>
<g opacity="0.64">
<path d="M55.4512 99.1945C50.6339 99.1945 43.1981 97.6931 35.1482 90.5464L34.9383 90.3563L34.8036 90.2295C25.4464 81.5498 21.877 70.4218 25.4939 61.2151C28.3145 54.0328 34.8036 49.7464 42.8574 49.7464H43.5665C44.5094 49.7781 45.4324 49.794 46.3158 49.794C64.1864 49.794 69.9742 43.614 76.6851 33.3694L87.6824 43.3485C76.8832 52.0639 72.1095 58.6678 74.5855 77.8932C75.3144 83.5701 73.7932 88.8707 70.3387 92.8124C66.7733 96.8651 61.3499 99.1866 55.4551 99.1866L55.4512 99.1945Z" fill="url(#paint2_radial_914_13390)"/>
</g>
<g style="mix-blend-mode:color-dodge" opacity="0.2">
<path d="M55.4512 99.1945C50.6339 99.1945 43.1981 97.6931 35.1482 90.5464L34.9383 90.3563L34.8036 90.2295C25.4464 81.5498 21.877 70.4218 25.4939 61.2151C28.3145 54.0328 34.8036 49.7464 42.8574 49.7464H43.5665C44.5094 49.7781 45.4324 49.794 46.3158 49.794C64.1864 49.794 69.9742 43.614 76.6851 33.3694L87.6824 43.3485C76.8832 52.0639 72.1095 58.6678 74.5855 77.8932C75.3144 83.5701 73.7932 88.8707 70.3387 92.8124C66.7733 96.8651 61.3499 99.1866 55.4551 99.1866L55.4512 99.1945Z" fill="url(#paint3_radial_914_13390)"/>
</g>
<path d="M69.4889 59.0081C68.8954 58.9682 68.3347 58.7215 67.9043 58.3109C66.4036 57.1204 64.539 56.4825 62.6235 56.5044C61.8103 56.4992 61.001 56.6168 60.2228 56.853C59.9927 56.9296 59.7523 56.971 59.5097 56.9758C59.3121 56.9807 59.1155 56.9454 58.9319 56.8722C58.7483 56.7989 58.5814 56.6891 58.4415 56.5495C58.3015 56.4099 58.1913 56.2433 58.1175 56.0599C58.0437 55.8765 58.0079 55.68 58.0123 55.4823C57.9251 54.1315 59.1136 52.016 61.4747 51.7189C61.9413 51.6615 62.4109 51.6324 62.881 51.6317C65.563 51.6317 68.4747 52.5587 69.7979 53.8304C71.0497 55.0188 71.3429 56.8768 70.9032 57.9742C70.8048 58.2725 70.6155 58.5326 70.3619 58.7181C70.1083 58.9035 69.803 59.0049 69.4889 59.0081Z" fill="#390176"/>
<path d="M69.3871 54.2546C71.2728 56.065 70.6588 59.8324 68.2818 57.8517C65.9049 55.8709 62.494 55.5104 60.0418 56.267C57.5896 57.0237 58.378 52.7016 61.5472 52.3055C64.7164 51.9093 68.1115 53.0265 69.3871 54.2546Z" fill="url(#paint4_linear_914_13390)"/>
<path d="M55.4035 58.3228C54.2943 58.3228 53.7595 57.8633 53.502 57.479C53.0306 56.7699 53.0821 55.7121 53.6604 54.3414C54.6508 51.9843 57.7052 50.3799 61.2587 50.3799C63.2404 50.388 65.1931 50.8558 66.9633 51.7466C66.999 51.7466 70.6159 53.6165 70.2791 55.0426C70.196 55.3912 69.883 55.8112 68.8847 55.8112C68.754 55.8112 68.6074 55.8112 68.441 55.8112L68.0052 55.7716C67.1733 55.7002 66.3889 55.6329 65.6283 55.6329C64.1982 55.6329 62.459 55.8231 59.4364 57.1937C57.7686 57.9425 56.4216 58.3228 55.4035 58.3228Z" fill="#390176"/>
<path d="M66.6993 52.2971C61.4661 49.6825 55.5832 51.2988 54.2085 54.571C52.8339 57.8433 54.8147 58.6356 59.1724 56.6548C63.5301 54.674 65.5108 54.9672 68.4899 55.2167C71.469 55.4663 68.2839 53.0894 66.6993 52.2971Z" fill="url(#paint5_linear_914_13390)"/>
<path d="M69.3146 60.7707C66.3791 64.4867 63.1346 68.5393 54.4192 65.3701C46.9754 62.6643 32.7495 52.0236 27.1756 57.9224C26.5087 58.9618 25.9461 60.0645 25.4959 61.2144C21.879 70.4329 25.4483 81.5491 34.8055 90.2288L34.9402 90.3556L35.1502 90.5457C43.2 97.6765 50.6359 99.1938 55.4531 99.1938C61.3479 99.1938 66.7752 96.8723 70.3367 92.8197C73.807 88.8779 75.3124 83.5774 74.5835 77.9005C73.9615 73.0713 73.7911 69.0385 74.0724 65.5682C74.318 62.5732 72.2461 57.0508 69.3146 60.7707Z" fill="#390176"/>
<path d="M55.4528 98.5995C50.7386 98.5995 43.4573 97.1258 35.5461 90.098L35.3361 89.9078L35.2093 89.7929C26.0344 81.2796 22.5324 70.413 26.0502 61.4282C26.4761 60.3325 27.0068 59.2804 27.6348 58.2867C28.6292 57.2567 29.9642 56.7576 31.7152 56.7576C36.0214 56.7576 41.8528 59.8 46.9989 62.482C49.6611 63.8725 52.1806 65.1877 54.2089 65.9246C56.0736 66.6594 58.0526 67.0616 60.0562 67.1131C65.0636 67.1131 67.5831 63.9438 69.7699 61.147C70.2968 60.4814 70.7999 60.1288 71.2238 60.1288C71.3904 60.1419 71.5523 60.1899 71.6991 60.2698C71.8458 60.3496 71.9741 60.4596 72.0755 60.5923C73.0501 61.6501 73.5967 64.0349 73.4739 65.5166V65.5641C73.1966 69.0582 73.363 73.1307 73.9889 77.9875C74.6981 83.4901 73.2402 88.6243 69.8848 92.4353C66.4382 96.3572 61.1694 98.6074 55.4489 98.6074L55.4528 98.5995Z" fill="url(#paint6_linear_914_13390)"/>
<path d="M54.902 79.2116C49.3399 79.1738 43.8417 78.0235 38.7309 75.8284C29.6194 71.8906 26.8701 67.1566 26.1609 63.8764C25.5825 61.2024 26.2956 58.9007 27.2028 57.8984C28.3279 56.7337 29.8016 56.1752 31.723 56.1752C36.1718 56.1752 42.0705 59.2493 47.276 61.967C49.9263 63.3495 52.426 64.6529 54.4068 65.3779C56.2074 66.0851 58.1181 66.4712 60.052 66.5188C64.7702 66.5188 67.0719 63.5991 69.3022 60.7785C69.9519 59.9505 70.5977 59.5346 71.2196 59.5346C71.4515 59.5366 71.6796 59.5936 71.8852 59.7009L72.004 59.7604L72.0832 59.8634C73.4074 61.4698 74.1103 63.4986 74.064 65.5799C74.0442 65.8612 74.0323 66.1187 74.0165 66.3722V66.499C73.2994 74.3468 65.9745 79.2076 54.902 79.2076V79.2116Z" fill="#390176"/>
<path d="M38.9686 75.2737C53.2975 81.4696 72.2456 79.3145 73.4341 66.4593C73.4539 66.1582 73.4697 65.8532 73.4935 65.556C73.5348 63.6138 72.8768 61.7214 71.6395 60.2238C71.5176 60.1584 71.3817 60.123 71.2433 60.1208C70.8195 60.1208 70.3163 60.4734 69.7895 61.1389C67.5829 63.9358 65.0831 67.105 60.0757 67.105C58.0722 67.0536 56.0931 66.6513 54.2285 65.9165C52.2002 65.1797 49.6806 63.8645 47.0185 62.474C41.8684 59.792 36.041 56.7495 31.7348 56.7495C29.9838 56.7495 28.6488 57.2487 27.6544 58.2787C25.8955 60.2198 24.3109 68.9352 38.9686 75.2737Z" fill="url(#paint7_linear_914_13390)"/>
<path style="mix-blend-mode:multiply" opacity="0.57" d="M61.746 77.679C57.8241 77.6553 57.5864 73.2936 50.8518 69.3321C44.8777 65.8182 57.0516 67.0027 67.4903 70.9167C70.6595 72.1051 66.2979 77.7107 61.746 77.679Z" fill="url(#paint8_linear_914_13390)"/>
<path style="mix-blend-mode:multiply" opacity="0.57" d="M35.7992 60.6163C42.0782 67.4024 44.5146 70.9163 46.0992 74.0856C47.3669 76.6249 39.7607 78.0471 31.4415 68.9356C24.6435 61.4878 29.5201 53.8302 35.7992 60.6163Z" fill="url(#paint9_linear_914_13390)"/>
<path opacity="0.33" d="M75.1686 45.7006C75.8421 46.3543 76.0719 48.2201 74.408 49.8761C72.1539 52.1144 69.361 56.0521 68.6796 62.2005C67.6496 71.4744 65.7679 99.9144 39.7603 89.139C35.775 87.487 32.2333 85.5736 27.0833 80.0274C27.0344 79.9834 26.9798 79.9461 26.9209 79.9165C28.9078 83.7961 31.5784 87.2853 34.8044 90.2165L34.9391 90.3433L35.149 90.5335C43.1989 97.6643 50.6347 99.1815 55.452 99.1815C61.3468 99.1815 66.7741 96.8601 70.3355 92.8074C73.8058 88.8657 75.3112 83.5651 74.5823 77.8882C72.1063 58.6628 76.88 52.051 87.6792 43.3435L76.6859 33.3762C75.2367 35.6467 73.6491 37.8257 71.932 39.9009C71.7538 40.1069 72.7125 43.3237 75.1686 45.7006Z" fill="#231F1F"/>
<path d="M63.4831 49.278C59.6522 52.0194 52.0421 54.2775 42.9305 53.8813C33.819 53.4851 28.871 63.0959 29.8574 67.3506C30.8438 71.6053 34.326 68.3251 38.1767 63.7852C42.3759 58.8332 44.9945 59.2611 52.4739 57.5814C58.3806 56.2582 63.1344 53.8813 65.1152 51.5044C67.096 49.1274 65.9075 47.5428 63.4831 49.278Z" fill="url(#paint10_linear_914_13390)"/>
<path d="M70.1879 47.0488C70.9387 46.194 71.0142 45.0328 70.3566 44.4553C69.699 43.8778 68.5573 44.1027 67.8066 44.9575C67.0559 45.8124 66.9803 46.9735 67.6379 47.551C68.2955 48.1285 69.4372 47.9037 70.1879 47.0488Z" fill="#FFFAE4"/>
<path style="mix-blend-mode:multiply" opacity="0.57" d="M42.2683 66.769C38.4653 62.7045 44.9226 65.3706 49.2803 68.936C53.638 72.5014 59.1604 77.073 55.805 77.1641C52.4495 77.2552 49.2803 75.6706 46.9034 72.8975C44.5264 70.1244 43.5677 68.1674 42.2683 66.769Z" fill="url(#paint11_linear_914_13390)"/>
<path opacity="0.2" d="M54.9213 92.4118C55.5186 92.4118 56.0028 91.9276 56.0028 91.3303C56.0028 90.733 55.5186 90.2488 54.9213 90.2488C54.324 90.2488 53.8398 90.733 53.8398 91.3303C53.8398 91.9276 54.324 92.4118 54.9213 92.4118Z" fill="white"/>
<g opacity="0.4">
<path opacity="0.6" d="M55.5376 92.0113C55.7394 91.808 55.8526 91.5331 55.8526 91.2467C55.8526 90.9603 55.7394 90.6854 55.5376 90.4821C55.4673 90.416 55.3871 90.3612 55.2999 90.3197C55.4453 90.3724 55.5797 90.4517 55.6961 90.5534C55.8785 90.7405 55.987 90.9872 56.0017 91.248C56.0163 91.5088 55.936 91.7662 55.7756 91.9724C55.6153 92.1786 55.3857 92.3198 55.1293 92.37C54.8729 92.4201 54.6071 92.3757 54.3809 92.245C54.575 92.3259 54.7889 92.3469 54.995 92.3053C55.2012 92.2636 55.3902 92.1612 55.5376 92.0113Z" fill="url(#paint12_linear_914_13390)"/>
</g>
<path opacity="0.3" d="M54.5492 91.0014C54.6782 91.0014 54.7829 90.8968 54.7829 90.7677C54.7829 90.6386 54.6782 90.5339 54.5492 90.5339C54.4201 90.5339 54.3154 90.6386 54.3154 90.7677C54.3154 90.8968 54.4201 91.0014 54.5492 91.0014Z" fill="white"/>
<path opacity="0.2" d="M48.7026 93.1524C49.453 93.1524 50.0614 92.5441 50.0614 91.7936C50.0614 91.0432 49.453 90.4348 48.7026 90.4348C47.9521 90.4348 47.3438 91.0432 47.3438 91.7936C47.3438 92.5441 47.9521 93.1524 48.7026 93.1524Z" fill="white"/>
<g opacity="0.4">
<path opacity="0.6" d="M49.4699 92.6496C49.7246 92.3948 49.8677 92.0492 49.8677 91.6889C49.8677 91.3286 49.7246 90.983 49.4699 90.7282C49.3825 90.6441 49.2822 90.5746 49.1728 90.5222C49.3466 90.592 49.5063 90.6927 49.6442 90.8193C49.8774 91.0538 50.0171 91.3652 50.0372 91.6952C50.0572 92.0253 49.9562 92.3513 49.7531 92.6123C49.55 92.8732 49.2587 93.0511 48.9338 93.1127C48.609 93.1742 48.2728 93.1152 47.9883 92.9467C48.2359 93.0549 48.5109 93.0844 48.7758 93.0313C49.0408 92.9781 49.2831 92.8449 49.4699 92.6496Z" fill="url(#paint13_linear_914_13390)"/>
</g>
<path opacity="0.3" d="M48.2258 91.3822C48.3899 91.3822 48.5229 91.2492 48.5229 91.0851C48.5229 90.921 48.3899 90.788 48.2258 90.788C48.0617 90.788 47.9287 90.921 47.9287 91.0851C47.9287 91.2492 48.0617 91.3822 48.2258 91.3822Z" fill="white"/>
<path opacity="0.2" d="M51.3919 90.5062C52.4071 90.5062 53.23 89.6832 53.23 88.668C53.23 87.6528 52.4071 86.8298 51.3919 86.8298C50.3767 86.8298 49.5537 87.6528 49.5537 88.668C49.5537 89.6832 50.3767 90.5062 51.3919 90.5062Z" fill="white"/>
<g opacity="0.4">
<path opacity="0.6" d="M52.4292 89.8248C52.6006 89.655 52.7367 89.4529 52.8295 89.2302C52.9224 89.0076 52.9702 88.7687 52.9702 88.5274C52.9702 88.2861 52.9224 88.0473 52.8295 87.8246C52.7367 87.6019 52.6006 87.3998 52.4292 87.23C52.3152 87.1131 52.181 87.0179 52.0331 86.9487C52.2667 87.0434 52.4824 87.1774 52.6709 87.3449C52.9836 87.6625 53.1702 88.0828 53.1961 88.5277C53.222 88.9726 53.0854 89.4118 52.8117 89.7635C52.538 90.1152 52.1458 90.3554 51.7082 90.4396C51.2706 90.5238 50.8172 90.4461 50.4326 90.221C50.7661 90.3666 51.1361 90.4067 51.493 90.3359C51.8499 90.2651 52.1766 90.0867 52.4292 89.8248Z" fill="url(#paint14_linear_914_13390)"/>
</g>
<path opacity="0.3" d="M50.7536 88.1098C50.9746 88.1098 51.1537 87.9307 51.1537 87.7097C51.1537 87.4887 50.9746 87.3096 50.7536 87.3096C50.5327 87.3096 50.3535 87.4887 50.3535 87.7097C50.3535 87.9307 50.5327 88.1098 50.7536 88.1098Z" fill="white"/>
<path opacity="0.2" d="M53.0877 79.6276C53.0877 80.2012 52.8599 80.7514 52.4542 81.157C52.0486 81.5627 51.4984 81.7906 50.9247 81.7906C50.3511 81.7906 49.8009 81.5627 49.3953 81.157C48.9896 80.7514 48.7617 80.2012 48.7617 79.6276C48.7606 79.3198 48.8268 79.0156 48.9558 78.7362C49.2688 78.7877 49.5778 78.8313 49.8908 78.8709C50.0492 78.8947 50.2077 78.9145 50.3662 78.9303C51.1585 79.0254 51.9508 79.0954 52.7431 79.1403C52.8302 79.1403 52.9174 79.1403 53.0046 79.1403C53.0519 79.2988 53.0798 79.4624 53.0877 79.6276Z" fill="white"/>
<g opacity="0.4">
<path opacity="0.6" d="M52.4294 81.1292C52.0914 81.4727 51.6474 81.692 51.1693 81.7517C50.6912 81.8114 50.2069 81.7079 49.7949 81.458C50.1872 81.63 50.6229 81.6774 51.0431 81.5938C51.4632 81.5102 51.8475 81.2996 52.1441 80.9905C52.3842 80.7519 52.5646 80.46 52.6706 80.1385C52.7766 79.8171 52.8052 79.4751 52.7542 79.1405C52.8414 79.1405 52.9285 79.1405 53.0157 79.1405C53.093 79.4945 53.0799 79.8624 52.9774 80.21C52.8749 80.5576 52.6864 80.8737 52.4294 81.1292Z" fill="url(#paint15_linear_914_13390)"/>
</g>
<path opacity="0.3" d="M50.365 78.9304C50.3035 78.956 50.2376 78.9695 50.1709 78.97C50.0685 78.9704 49.9692 78.9354 49.8896 78.871C50.0481 78.8947 50.2066 78.9145 50.365 78.9304Z" fill="white"/>
<path opacity="0.2" d="M53.2329 73.9235C53.141 74.2178 52.9854 74.4883 52.7773 74.7158H52.7298C52.5872 74.7158 52.4446 74.7158 52.298 74.7158C51.7686 74.675 51.246 74.5712 50.7411 74.4068C50.1355 74.2156 49.5595 73.941 49.0297 73.5907C48.9829 73.2704 49.0114 72.9435 49.1129 72.636C49.2875 72.0898 49.6718 71.6352 50.1814 71.3722C50.691 71.1092 51.2842 71.0594 51.8305 71.2336C52.0842 71.3188 52.3185 71.4535 52.5198 71.6298C52.5592 71.6602 52.5975 71.6919 52.6347 71.7249C52.6625 71.7486 52.6823 71.7764 52.714 71.808C52.7492 71.8362 52.7799 71.8696 52.8051 71.9071C52.9018 72.0116 52.9855 72.1273 53.0546 72.2517C53.0639 72.2627 53.0719 72.2746 53.0784 72.2874V72.3151C53.1115 72.3793 53.1406 72.4455 53.1656 72.5132C53.347 72.9621 53.3707 73.4593 53.2329 73.9235Z" fill="white"/>
<g opacity="0.4">
<path opacity="0.6" d="M52.7287 74.7076C52.5861 74.7076 52.4435 74.7076 52.2969 74.7076C52.6811 74.395 52.9457 73.9595 53.046 73.4745C53.1464 72.9895 53.0762 72.4847 52.8475 72.0454C52.764 71.8822 52.6527 71.7348 52.5187 71.6096C52.5456 71.6299 52.5708 71.6525 52.594 71.677C52.6151 71.6894 52.6339 71.7055 52.6495 71.7245C52.6772 71.7483 52.697 71.776 52.7287 71.8077C52.7639 71.8359 52.7946 71.8693 52.8198 71.9067C52.9109 72.0157 52.9943 72.1308 53.0694 72.2514C53.0786 72.2623 53.0866 72.2743 53.0931 72.287V72.3148C53.1262 72.379 53.1553 72.4451 53.1803 72.5129C53.3135 72.8849 53.3418 73.2864 53.2621 73.6735C53.1825 74.0606 52.9979 74.4183 52.7287 74.7076Z" fill="url(#paint16_linear_914_13390)"/>
</g>
<path opacity="0.3" d="M50.8015 72.4333C51.0619 72.4333 51.2729 72.2223 51.2729 71.9619C51.2729 71.7015 51.0619 71.4905 50.8015 71.4905C50.5411 71.4905 50.3301 71.7015 50.3301 71.9619C50.3301 72.2223 50.5411 72.4333 50.8015 72.4333Z" fill="white"/>
<path opacity="0.2" d="M46.1424 86.1607C47.1795 86.1607 48.0202 85.32 48.0202 84.2829C48.0202 83.2459 47.1795 82.4052 46.1424 82.4052C45.1054 82.4052 44.2646 83.2459 44.2646 84.2829C44.2646 85.32 45.1054 86.1607 46.1424 86.1607Z" fill="white"/>
<g opacity="0.4">
<path opacity="0.6" d="M47.2041 85.4678C47.3792 85.294 47.5182 85.0872 47.613 84.8595C47.7079 84.6317 47.7567 84.3874 47.7567 84.1407C47.7567 83.8939 47.7079 83.6497 47.613 83.4219C47.5182 83.1941 47.3792 82.9874 47.2041 82.8136C47.0909 82.6947 46.9565 82.598 46.8079 82.5283C47.0479 82.6199 47.2694 82.7541 47.4616 82.9245C47.7819 83.2486 47.9734 83.6782 48.0003 84.1331C48.0273 84.588 47.8879 85.0372 47.6082 85.397C47.3284 85.7567 46.9274 86.0024 46.4799 86.0883C46.0324 86.1743 45.5689 86.0945 45.1758 85.8639C45.5141 86.0116 45.8894 86.0528 46.2517 85.982C46.614 85.9113 46.9462 85.7319 47.2041 85.4678Z" fill="url(#paint17_linear_914_13390)"/>
</g>
<path opacity="0.3" d="M45.493 83.712C45.7184 83.712 45.901 83.5293 45.901 83.3039C45.901 83.0786 45.7184 82.8959 45.493 82.8959C45.2676 82.8959 45.085 83.0786 45.085 83.3039C45.085 83.5293 45.2676 83.712 45.493 83.712Z" fill="white"/>
<path opacity="0.2" d="M58.0436 86.0808C59.3804 86.0808 60.4641 84.9971 60.4641 83.6603C60.4641 82.3234 59.3804 81.2397 58.0436 81.2397C56.7067 81.2397 55.623 82.3234 55.623 83.6603C55.623 84.9971 56.7067 86.0808 58.0436 86.0808Z" fill="white"/>
<g opacity="0.4">
<path opacity="0.6" d="M59.4098 85.1857C59.635 84.9612 59.8136 84.6945 59.9355 84.4008C60.0574 84.1072 60.1202 83.7923 60.1202 83.4743C60.1202 83.1564 60.0574 82.8415 59.9355 82.5479C59.8136 82.2542 59.635 81.9875 59.4098 81.763C59.2549 81.6129 59.077 81.4885 58.8829 81.3945C59.1929 81.5193 59.4785 81.6977 59.7267 81.9214C59.9519 82.1459 60.1305 82.4126 60.2525 82.7063C60.3744 83 60.4371 83.3148 60.4371 83.6328C60.4371 83.9508 60.3744 84.2656 60.2525 84.5593C60.1305 84.853 59.9519 85.1197 59.7267 85.3442C59.3503 85.7312 58.8533 85.9785 58.3176 86.0455C57.7819 86.1125 57.2394 85.9951 56.7793 85.7126C57.219 85.9044 57.7069 85.9567 58.1773 85.8624C58.6477 85.7682 59.0778 85.532 59.4098 85.1857Z" fill="url(#paint18_linear_914_13390)"/>
</g>
<path opacity="0.3" d="M57.1988 82.9241C57.4898 82.9241 57.7256 82.6882 57.7256 82.3972C57.7256 82.1063 57.4898 81.8704 57.1988 81.8704C56.9078 81.8704 56.6719 82.1063 56.6719 82.3972C56.6719 82.6882 56.9078 82.9241 57.1988 82.9241Z" fill="white"/>
<path opacity="0.2" d="M37.9867 82.8088C39.6232 82.8088 40.9499 81.4821 40.9499 79.8456C40.9499 78.209 39.6232 76.8823 37.9867 76.8823C36.3501 76.8823 35.0234 78.209 35.0234 79.8456C35.0234 81.4821 36.3501 82.8088 37.9867 82.8088Z" fill="white"/>
<g opacity="0.4">
<path opacity="0.6" d="M39.6622 81.7159C39.9375 81.4408 40.1558 81.1141 40.3048 80.7545C40.4538 80.3949 40.5304 80.0095 40.5304 79.6203C40.5304 79.2311 40.4538 78.8456 40.3048 78.4861C40.1558 78.1265 39.9375 77.7998 39.6622 77.5246C39.4736 77.3392 39.2553 77.1866 39.0165 77.073C39.3952 77.2259 39.7439 77.4445 40.0465 77.7187C40.5534 78.2301 40.8567 78.9086 40.8998 79.6273C40.9429 80.3461 40.7228 81.0559 40.2807 81.6243C39.8386 82.1926 39.2046 82.5805 38.4973 82.7154C37.7901 82.8504 37.0578 82.7232 36.4375 82.3577C36.9763 82.5925 37.574 82.6569 38.1504 82.5422C38.7269 82.4275 39.2544 82.1392 39.6622 81.7159Z" fill="url(#paint19_linear_914_13390)"/>
</g>
<path opacity="0.3" d="M36.9504 78.9423C37.3071 78.9423 37.5962 78.6532 37.5962 78.2966C37.5962 77.94 37.3071 77.6509 36.9504 77.6509C36.5938 77.6509 36.3047 77.94 36.3047 78.2966C36.3047 78.6532 36.5938 78.9423 36.9504 78.9423Z" fill="white"/>
<path style="mix-blend-mode:multiply" opacity="0.57" d="M63.1329 67.747C61.0174 68.3373 66.6983 71.7085 70.5806 68.4759C73.223 66.2773 66.6468 66.7685 63.1329 67.747Z" fill="url(#paint20_linear_914_13390)"/>
<path opacity="0.4" d="M40.8072 69.7234C40.8095 70.1287 40.6954 70.526 40.4784 70.8683C40.4668 70.872 40.4544 70.872 40.4428 70.8683C40.3358 70.8683 40.2249 70.8247 40.11 70.793C38.8321 70.4791 37.6286 69.9164 36.5684 69.1371C36.6938 68.6825 36.9647 68.2815 37.3395 67.9954C37.7144 67.7092 38.1726 67.5537 38.6442 67.5525C38.9538 67.5536 39.2594 67.6226 39.5395 67.7545L39.6663 67.8219C39.8301 67.9073 39.9819 68.0138 40.1179 68.1388L40.1496 68.1626L40.1734 68.1863C40.3757 68.3877 40.536 68.6273 40.6448 68.8912C40.7536 69.1551 40.8088 69.438 40.8072 69.7234Z" fill="white"/>
<g opacity="0.4">
<path opacity="0.6" d="M40.4423 70.8612C40.3354 70.8612 40.2244 70.8176 40.1096 70.7859C40.4002 70.3718 40.5349 69.8683 40.4899 69.3644C40.445 68.8605 40.2232 68.3888 39.8639 68.0327C39.7284 67.8968 39.5702 67.7855 39.3965 67.7039C39.6605 67.8093 39.9044 67.9594 40.1175 68.1476L40.1492 68.1713L40.1729 68.1951C40.5116 68.5442 40.7224 68.9974 40.7713 69.4813C40.8202 69.9652 40.7043 70.4514 40.4423 70.8612Z" fill="url(#paint21_linear_914_13390)"/>
</g>
<path opacity="0.3" d="M37.8894 69.0661C38.1498 69.0661 38.3608 68.8551 38.3608 68.5947C38.3608 68.3344 38.1498 68.1233 37.8894 68.1233C37.629 68.1233 37.418 68.3344 37.418 68.5947C37.418 68.8551 37.629 69.0661 37.8894 69.0661Z" fill="white"/>
<path opacity="0.2" d="M48.0797 66.0436C48.0804 66.3488 47.9953 66.6481 47.8341 66.9072C47.8298 66.9093 47.8251 66.9104 47.8202 66.9104C47.8154 66.9104 47.8107 66.9093 47.8064 66.9072C47.7208 66.894 47.6361 66.8755 47.5528 66.8518C47.1659 66.7563 46.787 66.6304 46.4198 66.4754C45.8762 66.2464 45.3616 65.9538 44.8867 65.6039C44.9491 65.3777 45.0603 65.168 45.2123 64.9893C45.3644 64.8106 45.5537 64.6674 45.7669 64.5696C45.9802 64.4719 46.2123 64.422 46.4469 64.4234C46.6815 64.4248 46.9129 64.4775 47.125 64.5778L47.2201 64.6254C47.3429 64.6903 47.4574 64.7702 47.5608 64.8631L47.5845 64.8829C47.74 65.0338 47.8638 65.2142 47.9489 65.4135C48.0339 65.6127 48.0784 65.827 48.0797 66.0436Z" fill="white"/>
<g opacity="0.4">
<path opacity="0.6" d="M47.8147 66.8994C47.7291 66.8862 47.6445 66.8677 47.5612 66.8439C47.781 66.5329 47.8834 66.154 47.85 65.7746C47.8167 65.3952 47.6497 65.0399 47.3789 64.772C47.277 64.6688 47.1576 64.5843 47.0264 64.5225C47.2245 64.6025 47.4079 64.715 47.5691 64.8552L47.5929 64.875C47.8538 65.1374 48.0179 65.4806 48.0582 65.8484C48.0985 66.2162 48.0127 66.5868 47.8147 66.8994Z" fill="url(#paint22_linear_914_13390)"/>
</g>
<path opacity="0.3" d="M45.8858 65.5484C46.0805 65.5484 46.2384 65.3906 46.2384 65.1958C46.2384 65.0011 46.0805 64.8433 45.8858 64.8433C45.6911 64.8433 45.5332 65.0011 45.5332 65.1958C45.5332 65.3906 45.6911 65.5484 45.8858 65.5484Z" fill="white"/>
<path opacity="0.4" d="M63.8398 72.9408C64.0242 73.1843 64.1343 73.476 64.1567 73.7806H64.133C64.0577 73.8163 63.9785 73.852 63.8953 73.8836C63.5291 74.0402 63.15 74.1648 62.7623 74.256C62.1895 74.3987 61.6016 74.4719 61.0113 74.4739C60.8855 74.1431 60.8712 73.7803 60.9706 73.4406C61.07 73.1009 61.2777 72.803 61.5619 72.5922C61.7509 72.4546 61.967 72.3588 62.1958 72.3109H62.2988C62.4369 72.2932 62.5767 72.2932 62.7147 72.3109C62.7252 72.3128 62.736 72.3128 62.7464 72.3109H62.7702C63.1961 72.371 63.5807 72.5975 63.8398 72.9408Z" fill="white"/>
<g opacity="0.4">
<path opacity="0.6" d="M64.1302 73.7923C64.0549 73.828 63.9757 73.8636 63.8925 73.8953C63.8824 73.515 63.738 73.1504 63.485 72.8662C63.232 72.582 62.8866 72.3965 62.5099 72.3424C62.3671 72.3167 62.2209 72.3167 62.0781 72.3424C62.2851 72.2903 62.4991 72.2716 62.712 72.2869C62.7225 72.2889 62.7332 72.2889 62.7437 72.2869H62.7674C63.1315 72.3464 63.4647 72.5277 63.7122 72.8012C63.9598 73.0747 64.1072 73.4241 64.1302 73.7923Z" fill="url(#paint23_linear_914_13390)"/>
</g>
<path opacity="0.3" d="M61.5694 73.9198C61.7641 73.9198 61.922 73.7619 61.922 73.5672C61.922 73.3725 61.7641 73.2146 61.5694 73.2146C61.3747 73.2146 61.2168 73.3725 61.2168 73.5672C61.2168 73.7619 61.3747 73.9198 61.5694 73.9198Z" fill="white"/>
<path d="M70.7543 69.9574C67.8347 69.9574 65.0021 67.8023 63.7067 64.5974C62.913 62.7149 62.7913 60.6167 63.3621 58.6551C63.6051 57.7688 64.0458 56.9491 64.6509 56.2575C65.2561 55.5659 66.01 55.0204 66.8562 54.6618L69.0073 53.7903L75.0169 68.6738L72.8658 69.5414C72.1959 69.8166 71.4786 69.9579 70.7543 69.9574Z" fill="#390176"/>
<path d="M72.6464 68.9988C69.5524 70.2507 65.7968 68.1788 64.2598 64.3757C62.7227 60.5726 63.9864 56.4526 67.0804 55.2206L68.665 54.5748L74.231 68.3531L72.6464 68.9988Z" fill="url(#paint24_linear_914_13390)"/>
<path d="M72.6462 69.1971C69.7225 69.1971 66.89 67.042 65.5946 63.8332C63.9387 59.733 65.349 55.2762 68.7638 53.9055C69.4358 53.6394 70.1526 53.505 70.8754 53.5094C73.799 53.5094 76.6315 55.6645 77.9269 58.8733C79.5828 62.9775 78.1686 67.4303 74.7577 68.801C74.0857 69.0671 73.3689 69.2015 72.6462 69.1971Z" fill="#390176"/>
<path d="M74.5296 68.2468C77.6254 66.9966 78.8892 62.8978 77.3523 59.0919C75.8154 55.286 72.0598 53.2142 68.9639 54.4644C65.8681 55.7146 64.6043 59.8133 66.1412 63.6192C67.6781 67.4251 71.4337 69.497 74.5296 68.2468Z" fill="url(#paint25_linear_914_13390)"/>
<path opacity="0.7" d="M65.8159 58.113C65.2951 59.9338 65.4111 61.8777 66.1447 63.6235C67.6818 67.4266 71.4373 69.4946 74.5352 68.2467C77.6332 66.9988 78.893 62.9025 77.3638 59.0995C77.1445 59.9066 76.7456 60.6537 76.1967 61.2849C75.6479 61.916 74.9634 62.4149 74.1946 62.7441C71.1085 63.988 67.353 61.9161 65.8159 58.113Z" fill="url(#paint26_linear_914_13390)"/>
<g style="mix-blend-mode:multiply" opacity="0.6">
<path d="M74.602 67.9214C71.5081 69.1733 67.7525 67.1014 66.2154 63.2944C65.5825 61.7704 65.4064 60.0954 65.7084 58.4731C65.3114 60.1931 65.4638 61.9943 66.1441 63.6232C67.6812 67.4302 71.4368 69.5021 74.5307 68.2503C76.2976 67.5372 77.4662 65.9011 77.8584 63.9163C77.4068 65.7426 76.2738 67.248 74.602 67.9214Z" fill="white"/>
</g>
<path opacity="0.3" d="M68.8892 54.7654C71.9832 53.5135 75.7387 55.5854 77.2758 59.3925C77.9087 60.9164 78.0849 62.5914 77.7829 64.2137C78.1799 62.4937 78.0275 60.6925 77.3471 59.0636C75.81 55.2566 72.0545 53.1847 68.9605 54.4366C67.1937 55.1496 66.025 56.7897 65.6328 58.7705C66.0844 56.9442 67.2254 55.4428 68.8892 54.7654Z" fill="white"/>
<path d="M72.5305 67.8299C70.1536 67.8299 67.8202 66.0512 66.7545 63.4088C66.1049 61.8712 65.9987 60.1581 66.4535 58.552C66.6474 57.8241 67.0048 57.15 67.4983 56.5809C67.9919 56.0119 68.6087 55.5628 69.3018 55.2678C69.8452 55.0466 70.4265 54.9336 71.0132 54.9351C73.3901 54.9351 75.7275 56.7098 76.7931 59.3562C78.1559 62.7274 77.011 66.38 74.2458 67.4971C73.7012 67.7187 73.1185 67.8317 72.5305 67.8299Z" fill="#390176"/>
<path d="M74.0159 66.9531C76.4849 65.9561 77.4802 62.6563 76.239 59.5827C74.9979 56.5092 71.9902 54.8259 69.5212 55.8229C67.0523 56.8199 66.0569 60.1198 67.2981 63.1933C68.5393 66.2668 71.5469 67.9502 74.0159 66.9531Z" fill="url(#paint27_linear_914_13390)"/>
<path style="mix-blend-mode:screen" opacity="0.2" d="M67.622 58.8812C67.5136 58.6135 67.421 58.3397 67.3447 58.0612C66.993 58.8741 66.8115 59.7504 66.8115 60.6362C66.8115 61.5219 66.993 62.3983 67.3447 63.2112C68.5767 66.2616 71.5914 67.9254 74.0793 66.9192C76.3413 66.0041 77.3832 63.1953 76.6187 60.3945C76.1688 61.3818 75.36 62.1608 74.3566 62.5734C71.8648 63.5915 68.8501 61.9316 67.622 58.8812Z" fill="url(#paint28_linear_914_13390)"/>
<g style="mix-blend-mode:multiply" opacity="0.6">
<path d="M74.0441 66.5355C71.576 67.5338 68.5692 65.8502 67.3094 62.776C66.9438 61.8799 66.7632 60.9191 66.7786 59.9514C66.6939 61.0554 66.8689 62.1638 67.2896 63.188C68.5296 66.2622 71.5364 67.9419 74.0243 66.9475C75.7356 66.2582 76.7379 64.4636 76.7973 62.4036C76.6151 64.2893 75.6366 65.8937 74.0441 66.5355Z" fill="#B2A8C1"/>
</g>
<g style="mix-blend-mode:multiply" opacity="0.6">
<path opacity="0.33" d="M69.5013 56.2351C71.9693 55.2368 74.9761 56.9205 76.2161 59.9946C76.5848 60.8913 76.7668 61.8538 76.7509 62.8232C76.8359 61.7179 76.6609 60.6081 76.2399 59.5826C74.9959 56.5085 71.9891 54.8288 69.5052 55.8231C67.7978 56.5124 66.7955 58.307 66.752 60.367C66.9263 58.4615 67.9048 56.8571 69.5013 56.2351Z" fill="#231F1F"/>
</g>
<path d="M73.0841 65.0337C71.8243 65.5407 70.311 64.8871 69.4949 63.4807C69.396 63.3098 69.3086 63.1325 69.2335 62.9499C68.5362 61.2226 69.1305 59.3528 70.5566 58.7744C70.8302 58.6648 71.1217 58.6071 71.4163 58.6041C71.2848 58.415 71.2181 58.1885 71.2261 57.9583C71.2219 57.8652 71.2394 57.7723 71.2772 57.6871C71.3151 57.6018 71.3721 57.5265 71.444 57.4671C71.491 57.434 71.5415 57.4061 71.5946 57.3839C71.936 57.28 72.303 57.2983 72.6325 57.4354C73.0302 57.5445 73.3827 57.7776 73.6387 58.1009C73.7699 58.2963 73.8223 58.5341 73.7853 58.7665C73.764 58.8751 73.7194 58.9778 73.6546 59.0676C73.5886 59.149 73.5026 59.2118 73.405 59.2498C73.3846 59.2595 73.3634 59.2675 73.3416 59.2736C73.3397 59.3065 73.3397 59.3396 73.3416 59.3726C73.8029 59.7789 74.1625 60.2877 74.3914 60.8582C74.443 60.9875 74.4866 61.1198 74.5221 61.2543C75.0173 62.8786 74.3914 64.5068 73.0841 65.0337Z" fill="#390176"/>
<path d="M73.505 58.2155C73.2723 57.9289 72.9547 57.7237 72.5978 57.6292C72.3056 57.5053 71.9797 57.4857 71.6748 57.5737C71.6322 57.593 71.5911 57.6155 71.552 57.6411C71.5034 57.6848 71.465 57.7387 71.4397 57.799C71.4143 57.8593 71.4026 57.9244 71.4054 57.9897C71.4008 58.1759 71.4579 58.3583 71.5678 58.5087C71.6033 58.5472 71.6417 58.583 71.6827 58.6156C71.6312 58.6949 71.5876 58.7582 71.548 58.8097C71.2351 58.7956 70.9228 58.8496 70.6329 58.9682C69.2939 59.507 68.7393 61.2619 69.3969 62.8822C69.4646 63.0545 69.5454 63.2214 69.6385 63.3814C70.3952 64.6768 71.8134 65.3225 73.0059 64.8432C74.1983 64.3638 74.8163 62.799 74.3726 61.2778C74.3369 61.1589 74.2934 61.0361 74.2458 60.9173C74.022 60.3552 73.6627 59.8571 73.2 59.4674C73.172 59.3368 73.1534 59.2044 73.1445 59.0712C73.2072 59.0692 73.2689 59.0558 73.3268 59.0316C73.3994 59.0016 73.4634 58.954 73.5129 58.8929C73.564 58.8304 73.5969 58.755 73.608 58.6751C73.6308 58.5144 73.5942 58.351 73.505 58.2155Z" fill="#94512A"/>
<path d="M73.3648 57.9026C73.1337 57.6161 72.8173 57.4107 72.4616 57.3163C72.1676 57.1934 71.8404 57.1752 71.5346 57.2648C71.4917 57.2809 71.4516 57.3036 71.4157 57.3321C71.366 57.3743 71.3266 57.4273 71.3006 57.487C71.2745 57.5468 71.2624 57.6117 71.2652 57.6768C71.2594 57.8631 71.3166 58.046 71.4276 58.1957C71.462 58.2354 71.5005 58.2713 71.5425 58.3027C71.5036 58.3705 71.4599 58.4353 71.4118 58.4968C71.099 58.4846 70.7871 58.5386 70.4966 58.6553C69.1576 59.198 68.603 60.949 69.2567 62.5733C69.3273 62.7449 69.4094 62.9117 69.5023 63.0724C70.259 64.3678 71.6732 65.0136 72.8696 64.5303C74.066 64.047 74.6761 62.4901 74.2324 60.9649C74.1967 60.8421 74.1571 60.7232 74.1096 60.6004C73.8856 60.0373 73.5248 59.539 73.0598 59.1505C73.0338 59.0277 73.0166 58.9033 73.0083 58.7781C73.0708 58.7725 73.1322 58.7578 73.1905 58.7345C73.2637 58.7074 73.3281 58.6609 73.3767 58.5998C73.4249 58.5356 73.4575 58.461 73.4718 58.3819C73.4958 58.2145 73.4578 58.044 73.3648 57.9026Z" fill="url(#paint29_linear_914_13390)"/>
<path d="M73.3648 57.9026C73.1337 57.6161 72.8173 57.4107 72.4616 57.3163C72.1676 57.1934 71.8404 57.1752 71.5346 57.2648C71.4917 57.2809 71.4516 57.3036 71.4157 57.3321C71.366 57.3743 71.3266 57.4273 71.3006 57.487C71.2745 57.5468 71.2624 57.6117 71.2652 57.6768C71.2594 57.8631 71.3166 58.046 71.4276 58.1957C71.462 58.2354 71.5005 58.2713 71.5425 58.3027C71.5036 58.3705 71.4599 58.4353 71.4118 58.4968C71.099 58.4846 70.7871 58.5386 70.4966 58.6553C69.1576 59.198 68.603 60.949 69.2567 62.5733C69.3273 62.7449 69.4094 62.9117 69.5023 63.0724C70.259 64.3678 71.6732 65.0136 72.8696 64.5303C74.066 64.047 74.6761 62.4901 74.2324 60.9649C74.1967 60.8421 74.1571 60.7232 74.1096 60.6004C73.8856 60.0373 73.5248 59.539 73.0598 59.1505C73.0338 59.0277 73.0166 58.9033 73.0083 58.7781C73.0708 58.7725 73.1322 58.7578 73.1905 58.7345C73.2637 58.7074 73.3281 58.6609 73.3767 58.5998C73.4249 58.5356 73.4575 58.461 73.4718 58.3819C73.4958 58.2145 73.4578 58.044 73.3648 57.9026Z" fill="url(#paint30_linear_914_13390)"/>
<path d="M72.9471 64.7205C71.6913 65.2315 70.1741 64.5779 69.358 63.1676C69.2572 62.9983 69.171 62.8207 69.1005 62.6367C68.4032 60.9135 68.9935 59.0396 70.4197 58.4652C70.6925 58.3533 70.9844 58.2955 71.2793 58.2949C71.1518 58.104 71.0854 57.8787 71.0892 57.6491C71.085 57.556 71.1025 57.4631 71.1403 57.3779C71.1781 57.2926 71.2352 57.2173 71.3071 57.1579C71.3538 57.1211 71.4059 57.0917 71.4616 57.0707C71.8022 56.9684 72.1678 56.988 72.4955 57.1262C72.8943 57.233 73.2475 57.4666 73.5018 57.7917C73.6333 57.9869 73.6858 58.2249 73.6483 58.4573C73.6304 58.5657 73.5855 58.6679 73.5176 58.7544C73.4519 58.837 73.3659 58.9012 73.268 58.9406L73.2046 58.9644C73.2046 58.9961 73.2046 59.0278 73.2046 59.0594C73.6672 59.4661 74.027 59.9766 74.2545 60.549C74.3068 60.6784 74.3518 60.8107 74.3891 60.9451C74.8843 62.5733 74.2584 64.1936 72.9471 64.7205Z" fill="#390176"/>
<path d="M73.3648 57.9026C73.1337 57.6161 72.8173 57.4107 72.4616 57.3163C72.1676 57.1934 71.8404 57.1752 71.5346 57.2648C71.4917 57.2809 71.4516 57.3036 71.4157 57.3321C71.366 57.3743 71.3266 57.4273 71.3006 57.487C71.2745 57.5468 71.2624 57.6117 71.2652 57.6768C71.2594 57.8631 71.3166 58.046 71.4276 58.1957C71.462 58.2354 71.5005 58.2713 71.5425 58.3027C71.5036 58.3705 71.4599 58.4353 71.4118 58.4968C71.099 58.4846 70.7871 58.5386 70.4966 58.6553C69.1576 59.198 68.603 60.949 69.2567 62.5733C69.3273 62.7449 69.4094 62.9117 69.5023 63.0724C70.259 64.3678 71.6732 65.0136 72.8696 64.5303C74.066 64.047 74.6761 62.4901 74.2324 60.9649C74.1967 60.8421 74.1571 60.7232 74.1096 60.6004C73.8856 60.0373 73.5248 59.539 73.0598 59.1505C73.0338 59.0277 73.0166 58.9033 73.0083 58.7781C73.0708 58.7725 73.1322 58.7578 73.1905 58.7345C73.2637 58.7074 73.3281 58.6609 73.3767 58.5998C73.4249 58.5356 73.4575 58.461 73.4718 58.3819C73.4958 58.2145 73.4578 58.044 73.3648 57.9026Z" fill="url(#paint31_linear_914_13390)"/>
<path d="M74.234 60.9886C74.6777 62.5019 74.1112 64.0389 72.8712 64.5539C71.6313 65.069 70.2606 64.3915 69.5039 63.0961C69.6658 62.6142 69.9282 62.1721 70.2738 61.7992C70.6193 61.4263 71.0402 61.1311 71.5084 60.9331C71.9438 60.7616 72.4089 60.6782 72.8768 60.6877C73.3446 60.6973 73.8059 60.7995 74.234 60.9886Z" fill="url(#paint32_linear_914_13390)"/>
<path d="M63.6096 62.1017C63.3701 62.0999 63.1333 62.0514 62.9124 61.9591C60.9672 61.1668 55.4092 57.5143 55.4092 51.1084C55.4092 45.0631 58.6656 42.908 61.712 42.908C62.5637 42.9011 63.4065 43.0824 64.1801 43.4389L65.1823 43.9143L64.2316 44.4887C63.0461 45.1943 61.7999 45.7923 60.5077 46.2753C59.9412 46.6121 58.5269 50.5261 59.339 52.8991C60.1512 55.272 61.6328 56.6823 63.673 58.5601C65.1189 59.8912 65.0437 60.842 64.8614 61.2896C64.7601 61.5378 64.5848 61.7489 64.3595 61.8942C64.1342 62.0394 63.8696 62.1119 63.6017 62.1017H63.6096Z" fill="#390176"/>
<path d="M63.926 43.9776C61.2797 42.7218 56.0029 43.5815 56.0029 51.1084C56.0029 57.0508 61.1529 60.6162 63.1337 61.4085C64.235 61.8482 65.1818 60.7548 63.2684 58.9959C61.1529 57.0508 59.6357 55.6365 58.776 53.0892C57.9164 50.5419 59.3742 46.0297 60.3171 45.7128C61.569 45.2423 62.7767 44.6616 63.926 43.9776Z" fill="url(#paint33_linear_914_13390)"/>
<path opacity="0.33" d="M56.0031 51.1084C56.0031 57.0507 61.1532 60.6161 63.1339 61.4084C63.9262 61.7174 64.6037 61.2658 64.2788 60.3546C64.2708 60.3643 64.2641 60.3749 64.259 60.3863C63.7955 61.345 61.5493 59.8238 59.5685 57.843C57.663 55.9335 56.4904 52.9228 56.2012 48.775C56.065 49.5453 55.9987 50.3262 56.0031 51.1084Z" fill="#231F1F"/>
<path opacity="0.33" d="M63.0817 44.4529C62.0681 44.6393 61.1158 45.0719 60.3086 45.7127C61.2648 45.3667 62.1921 44.9454 63.0817 44.4529Z" fill="#231F1F"/>
<path d="M74.8193 81.8102C76.7884 81.8102 78.3847 80.214 78.3847 78.2448C78.3847 76.2757 76.7884 74.6794 74.8193 74.6794C72.8502 74.6794 71.2539 76.2757 71.2539 78.2448C71.2539 80.214 72.8502 81.8102 74.8193 81.8102Z" fill="#390176"/>
<path d="M74.8188 81.2163C76.4597 81.2163 77.79 79.886 77.79 78.2451C77.79 76.6042 76.4597 75.2739 74.8188 75.2739C73.1779 75.2739 71.8477 76.6042 71.8477 78.2451C71.8477 79.886 73.1779 81.2163 74.8188 81.2163Z" fill="url(#paint34_radial_914_13390)"/>
<path opacity="0.33" d="M76.8208 76.0425C76.9389 76.3634 76.9992 76.7028 76.9991 77.0448C76.9997 77.6208 76.8326 78.1846 76.5181 78.6673C76.2037 79.15 75.7555 79.5308 75.2283 79.7631C74.7012 79.9954 74.1178 80.0692 73.5494 79.9755C72.9809 79.8818 72.4521 79.6247 72.0273 79.2355C72.1794 79.6596 72.426 80.0434 72.7485 80.358C73.071 80.6726 73.4609 80.9096 73.8886 81.0511C74.3163 81.1925 74.7706 81.2348 75.2171 81.1745C75.6636 81.1143 76.0904 80.9532 76.4654 80.7035C76.8403 80.4537 77.1535 80.1219 77.3811 79.7331C77.6087 79.3443 77.7448 78.9088 77.779 78.4596C77.8133 78.0104 77.7448 77.5593 77.5788 77.1405C77.4128 76.7217 77.1536 76.3462 76.8208 76.0425Z" fill="#231F1F"/>
<path d="M74.0278 77.2546C74.356 77.2546 74.6221 76.9886 74.6221 76.6604C74.6221 76.3322 74.356 76.0662 74.0278 76.0662C73.6996 76.0662 73.4336 76.3322 73.4336 76.6604C73.4336 76.9886 73.6996 77.2546 74.0278 77.2546Z" fill="#FFFAE4"/>
<path d="M73.0387 78.0474C73.2575 78.0474 73.4349 77.8701 73.4349 77.6513C73.4349 77.4325 73.2575 77.2551 73.0387 77.2551C72.8199 77.2551 72.6426 77.4325 72.6426 77.6513C72.6426 77.8701 72.8199 78.0474 73.0387 78.0474Z" fill="#FFFAE4"/>
<path d="M72.9104 77.1558C72.6688 77.1557 72.4303 77.1003 72.2133 76.9939C71.9964 76.8875 71.8066 76.7328 71.6586 76.5418C70.2596 74.8297 69.4153 72.732 69.2381 70.5281C69.1727 70.3273 69.1481 70.1155 69.1657 69.905C69.1833 69.6946 69.2429 69.4898 69.3408 69.3027C69.4387 69.1156 69.573 68.9499 69.7359 68.8154C69.8987 68.681 70.0868 68.5804 70.2891 68.5197C70.4913 68.459 70.7037 68.4393 70.9137 68.4618C71.1237 68.4843 71.327 68.5486 71.5118 68.6508C71.6966 68.753 71.8591 68.8912 71.9898 69.0571C72.1204 69.223 72.2166 69.4134 72.2726 69.617C72.2726 69.6685 72.1221 71.9939 74.1583 74.5967C74.3408 74.8306 74.4539 75.1111 74.4848 75.4062C74.5157 75.7012 74.4631 75.999 74.3331 76.2657C74.2031 76.5324 74.0008 76.7572 73.7493 76.9146C73.4978 77.0719 73.2071 77.1555 72.9104 77.1558Z" fill="#390176"/>
<path d="M72.9096 76.5615C72.7557 76.5621 72.6039 76.5266 72.4662 76.4578C72.3286 76.3889 72.2091 76.2888 72.1173 76.1653C70.7627 74.5111 69.9532 72.4783 69.7998 70.3458C69.7623 70.2212 69.7498 70.0904 69.7628 69.961C69.7759 69.8315 69.8143 69.7059 69.876 69.5914C69.9376 69.4768 70.0212 69.3754 70.1219 69.2931C70.2227 69.2109 70.3387 69.1492 70.4633 69.1118C70.5879 69.0743 70.7187 69.0618 70.8481 69.0748C70.9776 69.0879 71.1032 69.1264 71.2178 69.188C71.3323 69.2496 71.4337 69.3332 71.516 69.434C71.5982 69.5347 71.6599 69.6507 71.6973 69.7753C71.6973 69.8268 71.5785 72.2513 73.6781 74.9491C73.8385 75.157 73.9102 75.4198 73.8775 75.6803C73.8449 75.9408 73.7105 76.1778 73.5038 76.3396C73.3348 76.4757 73.1264 76.5535 72.9096 76.5615Z" fill="url(#paint35_linear_914_13390)"/>
<path opacity="0.33" d="M71.7052 69.7869C71.6677 69.6623 71.6061 69.5463 71.5238 69.4456C71.4415 69.3448 71.3402 69.2612 71.2256 69.1996C71.111 69.138 70.9854 69.0995 70.8559 69.0864C70.7265 69.0734 70.5957 69.0859 70.4711 69.1234C70.3465 69.1608 70.2305 69.2225 70.1298 69.3047C70.029 69.387 69.9454 69.4884 69.8838 69.603C69.8222 69.7175 69.7837 69.8431 69.7706 69.9726C69.7576 70.102 69.7701 70.2328 69.8076 70.3574C69.8613 71.0971 69.9941 71.8288 70.2037 72.5402C70.6553 71.3121 71.3407 70.7852 71.5903 72.0371C71.9946 73.4965 72.7666 74.8278 73.8325 75.9036C73.8894 75.7468 73.9059 75.5782 73.8802 75.4133C73.8546 75.2485 73.7878 75.0928 73.6859 74.9607C71.5823 72.2629 71.717 69.8384 71.7052 69.7869Z" fill="#231F1F"/>
<path d="M58.8039 45.5902C58.6178 46.0973 58.4791 46.5251 58.3484 46.9807C58.2176 47.4363 58.0156 47.8562 57.9086 48.3276C57.7955 48.8018 57.7317 49.2863 57.7185 49.7736C57.6917 50.2685 57.7263 50.7648 57.8215 51.2513L57.7462 51.275C57.3385 50.3159 57.179 49.2695 57.2827 48.2326C57.2866 47.6976 57.3998 47.1692 57.6155 46.6796C57.8491 46.1792 58.2497 45.7758 58.7485 45.5387L58.8039 45.5902Z" fill="url(#paint36_linear_914_13390)"/>
<path d="M66.7 80.0279C66.4219 80.0297 66.1484 79.9572 65.9077 79.8179C65.7269 79.7147 65.5681 79.5769 65.4406 79.4123C65.313 79.2477 65.2191 79.0596 65.1643 78.8588C65.1095 78.6579 65.0948 78.4482 65.1211 78.2416C65.1473 78.035 65.2141 77.8357 65.3174 77.6549C66.7238 75.1948 67.4923 69.5733 67.5003 69.5179C67.551 69.1384 67.7374 68.7901 68.0251 68.5373C68.3128 68.2846 68.6822 68.1446 69.0651 68.1432C69.1376 68.1375 69.2104 68.1375 69.283 68.1432C69.6988 68.1994 70.0754 68.4182 70.3301 68.7516C70.5849 69.0851 70.6969 69.506 70.6418 69.922C70.5546 70.5637 69.7504 76.2604 68.0668 79.2118C67.9312 79.4563 67.7333 79.6606 67.4933 79.8039C67.2533 79.9472 66.9796 80.0245 66.7 80.0279Z" fill="#390176"/>
<path d="M66.6985 79.4337C66.5262 79.433 66.357 79.388 66.2073 79.3029C66.094 79.2388 65.9946 79.1528 65.9147 79.0501C65.8348 78.9473 65.776 78.8298 65.7418 78.7042C65.7075 78.5786 65.6985 78.4475 65.7151 78.3184C65.7318 78.1893 65.7738 78.0648 65.8388 77.952C67.3086 75.381 68.085 69.6526 68.093 69.5971C68.1101 69.4671 68.1527 69.3417 68.2184 69.2281C68.284 69.1145 68.3714 69.0149 68.4755 68.9351C68.5796 68.8553 68.6984 68.7967 68.8251 68.7628C68.9519 68.7289 69.084 68.7203 69.2141 68.7375C69.3441 68.7546 69.4695 68.7973 69.5831 68.8629C69.6967 68.9285 69.7963 69.0159 69.8761 69.12C69.9559 69.2241 70.0145 69.3429 70.0484 69.4696C70.0823 69.5964 70.0909 69.7285 70.0737 69.8586C70.0381 70.1082 69.2378 76.0267 67.574 78.9345C67.4864 79.0887 67.3589 79.2165 67.2048 79.3043C67.0507 79.3922 66.8758 79.4368 66.6985 79.4337Z" fill="url(#paint37_linear_914_13390)"/>
<path opacity="0.33" d="M67.8195 76.1932C67.6323 76.4894 67.5451 76.8378 67.5708 77.1873C67.5965 77.5367 67.7337 77.8687 67.9622 78.1344C69.3487 75.0642 70.0261 70.0884 70.0578 69.8587C70.0751 69.7296 70.0667 69.5985 70.0333 69.4727C69.9998 69.3469 69.9419 69.2289 69.8627 69.1255C69.7836 69.0221 69.6849 68.9353 69.5722 68.8701C69.4596 68.8049 69.3351 68.7626 69.2061 68.7455C69.4715 70.1241 68.9367 73.943 67.8195 76.1932Z" fill="#231F1F"/>
<path d="M66.5019 82.9993C68.471 82.9993 70.0673 81.403 70.0673 79.4339C70.0673 77.4648 68.471 75.8685 66.5019 75.8685C64.5328 75.8685 62.9365 77.4648 62.9365 79.4339C62.9365 81.403 64.5328 82.9993 66.5019 82.9993Z" fill="#390176"/>
<path d="M66.5014 82.4047C68.1424 82.4047 69.4726 81.0745 69.4726 79.4336C69.4726 77.7926 68.1424 76.4624 66.5014 76.4624C64.8605 76.4624 63.5303 77.7926 63.5303 79.4336C63.5303 81.0745 64.8605 82.4047 66.5014 82.4047Z" fill="url(#paint38_radial_914_13390)"/>
<path opacity="0.33" d="M68.5025 77.2308C68.6205 77.5518 68.6809 77.8911 68.6807 78.2331C68.6813 78.8092 68.5142 79.373 68.1998 79.8557C67.8853 80.3384 67.4372 80.7191 66.91 80.9514C66.3828 81.1837 65.7994 81.2575 65.231 81.1638C64.6626 81.0702 64.1337 80.813 63.709 80.4238C63.861 80.8479 64.1077 81.2318 64.4302 81.5464C64.7526 81.8609 65.1425 82.0979 65.5702 82.2394C65.998 82.3809 66.4523 82.4231 66.8987 82.3629C67.3452 82.3027 67.7721 82.1416 68.147 81.8918C68.522 81.6421 68.8351 81.3102 69.0627 80.9214C69.2903 80.5327 69.4264 80.0972 69.4607 79.648C69.4949 79.1987 69.4264 78.7476 69.2604 78.3288C69.0944 77.91 68.8352 77.5346 68.5025 77.2308Z" fill="#231F1F"/>
<path d="M65.7095 78.4436C66.0377 78.4436 66.3037 78.1775 66.3037 77.8494C66.3037 77.5212 66.0377 77.2551 65.7095 77.2551C65.3813 77.2551 65.1152 77.5212 65.1152 77.8494C65.1152 78.1775 65.3813 78.4436 65.7095 78.4436Z" fill="#FFFAE4"/>
<path d="M64.7194 79.2353C64.9382 79.2353 65.1156 79.0579 65.1156 78.8391C65.1156 78.6204 64.9382 78.443 64.7194 78.443C64.5006 78.443 64.3232 78.6204 64.3232 78.8391C64.3232 79.0579 64.5006 79.2353 64.7194 79.2353Z" fill="#FFFAE4"/>
<path d="M86.29 49.2786C83.6635 49.2786 80.0664 47.5514 76.9051 44.7783C72.7098 41.0941 69.5802 35.6667 72.0442 32.862L72.068 32.8303L75.6334 29.2649C76.1286 28.7182 77.0516 28.0764 78.664 28.0764C81.2905 28.0764 84.8876 29.8037 88.0489 32.5767C90.2436 34.506 91.9827 36.7126 92.9493 38.7924C94.0586 41.1693 94.0467 43.2056 92.9137 44.4931L92.886 44.5248L89.3206 48.0902C88.8254 48.6408 87.9023 49.2786 86.286 49.2786H86.29Z" fill="#390176"/>
<path d="M72.9342 33.6543C71.2743 35.5439 73.4017 40.1274 77.6881 43.8909C81.9745 47.6544 86.7996 49.1756 88.4556 47.282L92.021 43.7166C93.6809 41.8269 91.5535 37.2434 87.2671 33.48C82.9807 29.7165 78.1595 28.1873 76.4996 30.0889L72.9342 33.6543Z" fill="#BCFFFF"/>
<g opacity="0.64">
<path d="M86.2895 47.4962C84.1106 47.4962 80.8899 45.9116 78.0812 43.4356C74.6227 40.3892 71.8417 35.7898 73.3828 34.0507L76.9204 30.4853C77.1467 30.2567 77.4205 30.0806 77.7224 29.9697C78.0244 29.8588 78.347 29.8157 78.6675 29.8436C80.8463 29.8436 84.0671 31.4282 86.8758 33.9002C88.8883 35.671 90.4729 37.6676 91.3365 39.5295C92.1288 41.2092 92.2041 42.5839 91.5782 43.3009L88.0365 46.8386C87.8105 47.0675 87.5367 47.2437 87.2347 47.3546C86.9327 47.4656 86.61 47.5085 86.2895 47.4804V47.4962Z" fill="url(#paint39_radial_914_13390)"/>
</g>
<g opacity="0.64">
<path d="M89.854 43.93C87.6751 43.93 84.4544 42.3454 81.6456 39.8694C78.1872 36.823 75.4062 32.2236 76.9472 30.4845C77.173 30.265 77.4435 30.0969 77.7402 29.9916C78.037 29.8863 78.3529 29.8464 78.6665 29.8744C80.8454 29.8744 84.0661 31.4591 86.8749 33.9311C88.8873 35.7019 90.472 37.6985 91.3356 39.5604C92.1279 41.2401 92.2032 42.6148 91.5772 43.3318C91.3501 43.5499 91.0785 43.7163 90.7811 43.8196C90.4836 43.9228 90.1673 43.9605 89.854 43.93Z" fill="url(#paint40_radial_914_13390)"/>
</g>
<g style="mix-blend-mode:color-dodge" opacity="0.2">
<path d="M86.2895 47.4962C84.1106 47.4962 80.8899 45.9116 78.0812 43.4356C74.6227 40.3892 71.8417 35.7898 73.3828 34.0507L76.9204 30.4853C77.1467 30.2567 77.4205 30.0806 77.7224 29.9697C78.0244 29.8588 78.347 29.8157 78.6675 29.8436C80.8463 29.8436 84.0671 31.4282 86.8758 33.9002C88.8883 35.671 90.4729 37.6676 91.3365 39.5295C92.1288 41.2092 92.2041 42.5839 91.5782 43.3009L88.0365 46.8386C87.8105 47.0675 87.5367 47.2437 87.2347 47.3546C86.9327 47.4656 86.61 47.5085 86.2895 47.4804V47.4962Z" fill="url(#paint41_radial_914_13390)"/>
</g>
<path d="M92.9171 44.4931C92.4298 45.0517 91.5028 45.7132 89.8548 45.7132C89.6448 45.7132 89.4309 45.7132 89.213 45.6815C87.4511 45.4366 85.7579 44.834 84.2373 43.9107C82.8932 43.1417 81.6309 42.2377 80.4699 41.2129C75.5457 36.879 73.4461 31.7567 75.6091 29.2966C76.0963 28.742 77.0233 28.0764 78.6674 28.0764C81.2939 28.0764 84.891 29.8037 88.0523 32.5807C90.247 34.506 91.9861 36.7126 92.9527 38.7924C94.062 41.1812 94.0501 43.2056 92.9171 44.4931Z" fill="#390176"/>
<path opacity="0.33" d="M89.2119 45.6818L88.0234 46.8703C87.7974 47.0992 87.5236 47.2754 87.2216 47.3863C86.9196 47.4973 86.5969 47.5402 86.2764 47.5121C85.0879 47.5121 83.6261 47.0446 82.0771 46.2365L84.2243 43.9269C85.7497 44.8461 87.447 45.4433 89.2119 45.6818Z" fill="#231F1F"/>
<path d="M92.021 43.7085C91.5998 44.1648 91.0234 44.4474 90.4047 44.5008C89.0142 44.6791 87.1008 44.1483 85.0645 43.0311C83.7006 42.2704 82.4228 41.3646 81.2535 40.3293C76.9671 36.5659 74.8398 31.9823 76.4996 30.0927C78.1595 28.203 82.9807 29.7203 87.2671 33.4838C91.5535 37.2472 93.6849 41.8189 92.021 43.7085Z" fill="#BCFFFF"/>
<g opacity="0.64">
<path d="M89.854 43.93C87.6751 43.93 84.4544 42.3454 81.6456 39.8694C78.1872 36.823 75.4062 32.2236 76.9472 30.4845C77.173 30.265 77.4435 30.0969 77.7402 29.9916C78.037 29.8863 78.3529 29.8464 78.6665 29.8744C80.8454 29.8744 84.0661 31.4591 86.8749 33.9311C88.8873 35.7019 90.472 37.6985 91.3356 39.5604C92.1279 41.2401 92.2032 42.6148 91.5772 43.3318C91.3501 43.5499 91.0785 43.7163 90.7811 43.8196C90.4836 43.9228 90.1673 43.9605 89.854 43.93Z" fill="url(#paint42_radial_914_13390)"/>
</g>
<g style="mix-blend-mode:color-dodge" opacity="0.2">
<path d="M89.854 43.93C87.6751 43.93 84.4544 42.3454 81.6456 39.8694C78.1872 36.823 75.4062 32.2236 76.9472 30.4845C77.173 30.265 77.4435 30.0969 77.7402 29.9916C78.037 29.8863 78.3529 29.8464 78.6665 29.8744C80.8454 29.8744 84.0661 31.4591 86.8749 33.9311C88.8873 35.7019 90.472 37.6985 91.3356 39.5604C92.1279 41.2401 92.2032 42.6148 91.5772 43.3318C91.3501 43.5499 91.0785 43.7163 90.7811 43.8196C90.4836 43.9228 90.1673 43.9605 89.854 43.93Z" fill="url(#paint43_radial_914_13390)"/>
</g>
<path opacity="0.33" d="M91.5767 43.3162C92.2026 42.5991 92.1155 41.2245 91.335 39.5448C91.1198 39.0696 90.8737 38.6091 90.5982 38.1661C87.6033 38.3801 82.374 38.7762 82.374 38.7762C83.9903 41.2126 86.8466 43.0587 88.3837 43.7242C88.8703 43.8515 89.3703 43.9207 89.8732 43.9302C90.1846 43.9557 90.4978 43.9141 90.7916 43.8081C91.0855 43.7022 91.3532 43.5344 91.5767 43.3162Z" fill="#231F1F"/>
<path d="M76.9066 40.1947C76.8239 40.1948 76.742 40.1775 76.6663 40.1441C76.5906 40.1107 76.5226 40.0618 76.4669 40.0006C74.4663 37.8059 74.09 35.9678 74.0662 35.8925C74.0482 35.815 74.0459 35.7347 74.0595 35.6563C74.0731 35.5779 74.1023 35.5031 74.1454 35.4362C74.1885 35.3693 74.2446 35.3117 74.3103 35.2669C74.376 35.2221 74.4501 35.191 74.5281 35.1753C74.6061 35.1597 74.6864 35.1598 74.7644 35.1758C74.8423 35.1918 74.9162 35.2233 74.9818 35.2683C75.0473 35.3134 75.1032 35.3712 75.1459 35.4383C75.1887 35.5053 75.2176 35.5803 75.2309 35.6588C75.2309 35.6904 75.5954 37.279 77.3464 39.2004C77.4239 39.2856 77.4751 39.3914 77.4936 39.5051C77.5121 39.6188 77.4971 39.7355 77.4505 39.8408C77.4039 39.9462 77.3277 40.0357 77.2311 40.0986C77.1346 40.1614 77.0218 40.1948 76.9066 40.1947Z" fill="url(#paint44_linear_914_13390)"/>
<path d="M89.4887 42.4885C87.603 42.4885 84.8379 41.1336 82.4491 39.038C79.7948 36.7046 76.9544 32.5212 78.5232 30.7187L78.5469 30.691L80.3613 28.9004C80.5828 28.6909 80.8455 28.5299 81.1327 28.4276C81.4198 28.3253 81.7251 28.2839 82.0291 28.3061C83.9188 28.3061 86.68 29.661 89.0688 31.7606C90.639 33.0829 91.927 34.7077 92.8561 36.5382C93.5652 38.0713 93.6206 39.3549 92.9987 40.064L92.9709 40.0917L91.1566 41.9061C90.9342 42.1137 90.6711 42.2726 90.3839 42.3729C90.0968 42.4731 89.7919 42.5125 89.4887 42.4885Z" fill="#390176"/>
<path d="M81.2218 29.7124C81.4463 29.5364 81.7302 29.4541 82.0141 29.4826C83.5987 29.4826 86.1222 30.7543 88.2694 32.6518C89.7237 33.8603 90.9201 35.349 91.7872 37.0293C92.3299 38.2178 92.3379 39.0101 92.1121 39.2676L90.3096 41.0741C90.0787 41.2525 89.7872 41.3336 89.4974 41.2999C87.9128 41.2999 85.3933 40.0322 83.2421 38.1307C80.3542 35.6349 78.7141 32.331 79.4153 31.5149L81.2218 29.7124Z" fill="url(#paint45_linear_914_13390)"/>
<path d="M80.8899 35.591L84.4553 32.6397L83.4411 31.4235L80.0342 34.252C80.2903 34.7163 80.5761 35.1636 80.8899 35.591Z" fill="url(#paint46_linear_914_13390)"/>
<path opacity="0.33" d="M86.5086 38.6531C86.9047 40.0159 84.7179 39.4454 83.2363 38.1421C85.3874 40.0317 87.8991 41.3113 89.4916 41.3113C89.7814 41.345 90.0729 41.2639 90.3037 41.0855L91.924 39.4652C89.345 39.077 86.5086 38.6531 86.5086 38.6531Z" fill="#231F1F"/>
<path d="M91.4592 40.5194C89.5735 40.5194 86.8083 39.1646 84.4195 37.0689C83.0204 35.8462 81.8331 34.4005 80.9056 32.7904C79.8954 30.9602 79.7568 29.6212 80.5095 28.7615C80.7306 28.5391 80.9976 28.3675 81.2917 28.2588C81.5859 28.15 81.9003 28.1066 82.2129 28.1316C84.0986 28.1316 86.8638 29.4865 89.2526 31.5822C90.8208 32.9069 92.1073 34.5329 93.0359 36.3638C93.749 37.8929 93.8005 39.1804 93.1785 39.8856C92.9561 40.1111 92.6867 40.2848 92.3896 40.3943C92.0924 40.5039 91.7747 40.5466 91.4592 40.5194Z" fill="#390176"/>
<path d="M91.4583 39.3313C89.8737 39.3313 87.3542 38.0636 85.2031 36.162C82.323 33.6346 80.671 30.3505 81.3841 29.5344C81.6098 29.3609 81.8932 29.2801 82.1764 29.3086C83.7611 29.3086 86.2806 30.5763 88.4317 32.4778C89.8755 33.6927 91.062 35.1836 91.9218 36.8632C92.4685 38.0517 92.4725 38.844 92.2507 39.1055C92.025 39.2789 91.7416 39.3597 91.4583 39.3313Z" fill="url(#paint47_linear_914_13390)"/>
<path d="M83.2078 34.0739L85.4065 33.6778L84.2616 32.4338L82.3125 32.83C82.5879 33.2607 82.8868 33.676 83.2078 34.0739Z" fill="url(#paint48_linear_914_13390)"/>
<path opacity="0.33" d="M91.4585 39.3311C91.7483 39.3648 92.0397 39.2837 92.2706 39.1053C92.4924 38.8478 92.4885 38.0357 91.9418 36.863C91.7975 36.5584 91.6361 36.2621 91.4585 35.9757L86.249 35.1833C86.5769 35.5181 86.834 35.9155 87.0048 36.3518C87.1757 36.7881 87.2568 37.2543 87.2434 37.7227C88.8082 38.721 90.3532 39.3311 91.4585 39.3311Z" fill="#231F1F"/>
<path d="M91.569 37.758C89.818 37.758 87.6708 36.4229 86.2486 35.175C84.2362 33.4082 82.0137 30.227 83.3686 28.686C83.5582 28.4871 83.7891 28.3321 84.0451 28.2322C84.3011 28.1323 84.576 28.0897 84.8502 28.1076C86.6012 28.1076 88.7484 29.4427 90.1745 30.6905C91.3443 31.6789 92.3046 32.8911 92.9991 34.2559C93.5815 35.5078 93.6013 36.5418 93.0506 37.1677C92.8621 37.3688 92.6316 37.5259 92.3756 37.6279C92.1195 37.7299 91.8441 37.7743 91.569 37.758Z" fill="#390176"/>
<path d="M91.5702 36.57C90.4174 36.57 88.5951 35.6509 87.0342 34.2802C84.9425 32.446 83.7422 30.0612 84.2611 29.4709C84.4293 29.3422 84.641 29.284 84.8514 29.3085C86.0042 29.3085 87.8305 30.2275 89.3913 31.5982C90.4384 32.4749 91.2991 33.5526 91.9228 34.7675C92.3189 35.6153 92.3189 36.2055 92.1605 36.3917C92.079 36.4594 91.9848 36.51 91.8834 36.5406C91.782 36.5712 91.6755 36.5812 91.5702 36.57Z" fill="url(#paint49_linear_914_13390)"/>
<path opacity="0.33" d="M85.9961 33.258C86.3204 33.6201 86.667 33.9615 87.034 34.2801C88.5949 35.6508 90.4172 36.5699 91.574 36.5699C91.6776 36.5828 91.7827 36.5751 91.8833 36.5472C91.9839 36.5193 92.0781 36.4718 92.1603 36.4075C92.3227 36.2213 92.3187 35.6152 91.9226 34.7832C91.7172 34.3506 91.4719 33.9381 91.1897 33.5512C89.0742 32.5489 87.3747 31.7725 87.3747 31.7725C90.021 34.4188 90.132 35.9915 85.9961 33.258Z" fill="#231F1F"/>
<path d="M84.9235 30.9051C85.1423 30.9051 85.3197 30.7277 85.3197 30.5089C85.3197 30.2902 85.1423 30.1128 84.9235 30.1128C84.7047 30.1128 84.5273 30.2902 84.5273 30.5089C84.5273 30.7277 84.7047 30.9051 84.9235 30.9051Z" fill="#FFFAE4"/>
<path d="M94.8456 35.5236C93.9853 35.5131 93.1271 35.4363 92.2786 35.2939C89.034 34.7789 85.6588 31.1025 85.0527 28.9554C83.8642 24.7165 84.6011 22.0623 87.2791 21.056C89.3945 20.2637 93.9622 19 97.1829 19C98.106 19 99.4331 19.107 100.309 20.03C101.307 21.0838 101.224 22.6763 101.144 24.2134C100.998 26.9865 99.9204 31.3442 99.5163 32.7862C99.1915 34.0499 98.0981 35.5236 94.8456 35.5236Z" fill="#390176"/>
<path d="M86.1984 28.6507C85.2912 25.4497 85.4576 23.0292 87.6959 22.1894C89.9342 21.3495 94.3037 20.2086 97.2036 20.2086C100.103 20.2086 100.111 21.6308 99.9767 24.1702C99.842 26.7095 98.8516 30.8375 98.3921 32.4894C97.9325 34.1414 95.9874 34.6802 92.4497 34.1216C89.6767 33.6779 86.6817 30.3541 86.1984 28.6507Z" fill="url(#paint50_linear_914_13390)"/>
<path opacity="0.33" d="M94.4294 30.9051L88.1424 29.6929C90.0678 32.1055 88.7802 31.8163 87.4531 30.7863C88.6891 32.2956 90.6224 33.8485 92.4645 34.1417C95.9546 34.6963 97.8918 34.1694 98.3751 32.5571C96.5766 31.7648 94.4294 30.9051 94.4294 30.9051Z" fill="#231F1F"/>
<path d="M97.6322 34.3988C93.6707 34.3988 90.6282 32.2001 88.794 30.358C86.5914 28.1514 84.9355 25.208 84.9434 23.4966V23.1955L85.09 22.9301C85.5669 22.0648 86.3452 21.405 87.2767 21.0761C89.3962 20.2838 93.9638 19.02 97.2044 19.02C98.1274 19.02 99.4545 19.127 100.33 20.05C101.328 21.1038 101.245 22.6963 101.166 24.2334C101.019 27.0065 99.9418 31.3642 99.5377 32.8062C99.4276 33.2007 99.2479 33.5724 99.0069 33.9036L98.6702 34.3631L98.0997 34.3869C97.9439 34.3869 97.7894 34.3869 97.6362 34.3869L97.6322 34.3988Z" fill="#390176"/>
<path d="M97.2044 20.2086C94.3045 20.2086 89.9349 21.3495 87.6966 22.1894C87.0307 22.4178 86.4732 22.885 86.1318 23.5007C86.1318 25.7706 90.9847 33.5115 98.0482 33.2025C98.2051 32.9875 98.3219 32.746 98.3928 32.4894C98.8524 30.8375 99.8428 26.7095 99.9775 24.1702C100.112 21.6308 100.108 20.2086 97.2044 20.2086Z" fill="url(#paint51_radial_914_13390)"/>
<path opacity="0.33" d="M100.003 23.5405C100.003 23.4058 100.003 23.2738 100.003 23.1444V23.0374C100.003 22.9067 100.003 22.7799 100.003 22.6412V22.5699C100.003 22.4234 100.003 22.2847 99.9716 22.154C99.9438 21.9242 99.4407 25.6401 97.9908 27.72C95.2177 31.6815 90.4638 30.493 86.8984 25.7392L86.9262 25.8818C88.5821 29.0114 92.6744 33.4087 98.0423 33.1869C98.1992 32.9719 98.316 32.7303 98.3869 32.4738C98.8465 30.8218 99.8369 26.6939 99.9716 24.1546C99.9716 23.9763 99.9914 23.8059 99.9953 23.6356C99.9994 23.604 100.002 23.5723 100.003 23.5405Z" fill="#231F1F"/>
<path d="M96.222 22.5479C96.8549 22.3741 97.2741 21.8911 97.1581 21.4691C97.0422 21.0472 96.4352 20.8461 95.8023 21.0199C95.1693 21.1938 94.7502 21.6768 94.8661 22.0987C94.982 22.5207 95.5891 22.7218 96.222 22.5479Z" fill="#FFFAE4"/>
<path d="M92.8459 22.1894C94.2008 21.7378 95.2228 22.5855 93.6382 23.3778C92.0536 24.1702 87.6959 25.7548 88.8844 24.5663C90.0131 23.4911 91.366 22.6794 92.8459 22.1894Z" fill="url(#paint52_linear_914_13390)"/>
<path d="M89.4893 85.7444C92.0089 85.7444 94.5284 83.9578 90.1192 82.7654C85.71 81.5729 76.8916 83.3636 76.8916 83.3636C90.757 90.4943 80.1361 98.3897 48.5467 92.8911C23.7632 88.577 11.3675 66.0912 22.0915 65.497C22.0915 65.497 19.7145 63.1953 16.4225 65.497C13.5741 67.4777 10.5039 74.7234 15.7926 83.3636C22.7213 94.6777 39.0984 95.272 30.8465 93.0218C22.5946 90.7717 15.1627 82.7772 17.0524 78.0234C18.1576 75.2503 21.6002 79.4812 28.22 86.1049C43.777 101.642 80.6947 100.085 86.744 97.8311C106.496 90.5102 83.8877 85.7444 89.4893 85.7444ZM82.5606 96.4644C80.041 95.8702 88.8594 93.4853 86.3399 88.1253C85.5278 86.406 89.9053 87.6618 91.272 90.5736C92.6387 93.4853 85.0801 97.0586 82.5606 96.4644Z" fill="url(#paint53_linear_914_13390)"/>
<path d="M63.6014 63.8963C74.048 68.4956 83.4923 68.4917 93.8161 66.3643C104.14 64.237 89.2167 75.1431 73.3111 69.2523C57.8532 63.5278 56.8945 60.9449 63.6014 63.8963Z" fill="url(#paint54_linear_914_13390)"/>
<path d="M54.5848 38.012C48.6424 36.6571 30.8155 31.5071 27.5076 45.4953C23.3162 63.1599 47.0222 76.4944 47.0222 76.4944C36.7697 65.5725 31.8138 55.1773 38.3543 45.3686C43.1081 38.2378 55.9673 39.8937 64.1044 41.8032C64.1044 41.8032 60.5192 39.3589 54.5848 38.012ZM29.8845 56.6312C27.46 50.3403 27.6581 43.4076 31.2235 41.0307C34.7889 38.6537 33.438 41.4902 31.9326 46.4104C30.4272 51.3307 31.3146 60.3234 29.8845 56.6312ZM35.185 61.6307C36.0922 63.2906 37.562 65.0337 37.1658 65.1961C36.7697 65.3585 34.5076 63.968 33.6004 62.0269C30.8273 56.0647 32.8081 57.2532 35.185 61.6109V61.6307Z" fill="url(#paint55_linear_914_13390)"/>
<defs>
<linearGradient id="paint0_linear_914_13390" x1="103.733" y1="27.759" x2="17.9298" y2="84.746" gradientUnits="userSpaceOnUse">
<stop stop-color="white" stop-opacity="0"/>
<stop offset="0.22" stop-color="white" stop-opacity="0.24"/>
<stop offset="0.6" stop-color="white" stop-opacity="0.64"/>
<stop offset="0.87" stop-color="white" stop-opacity="0.9"/>
<stop offset="1" stop-color="white"/>
</linearGradient>
<linearGradient id="paint1_linear_914_13390" x1="77.154" y1="59.3133" x2="79.6023" y2="59.3133" gradientUnits="userSpaceOnUse">
<stop stop-color="#F5942A"/>
<stop offset="1" stop-color="#F5D85D"/>
</linearGradient>
<radialGradient id="paint2_radial_914_13390" cx="0" cy="0" r="1" gradientUnits="userSpaceOnUse" gradientTransform="translate(59.381 33.7537) scale(65.2071 65.2071)">
<stop stop-color="#87D0E5"/>
<stop offset="0.19" stop-color="#78B7E2"/>
<stop offset="0.61" stop-color="#5176DC"/>
<stop offset="1" stop-color="#2833D5"/>
</radialGradient>
<radialGradient id="paint3_radial_914_13390" cx="0" cy="0" r="1" gradientUnits="userSpaceOnUse" gradientTransform="translate(59.381 33.7537) scale(65.2071 65.2071)">
<stop stop-color="#2833D5"/>
<stop offset="0.39" stop-color="#5176DC"/>
<stop offset="0.81" stop-color="#78B7E2"/>
<stop offset="1" stop-color="#87D0E5"/>
</radialGradient>
<linearGradient id="paint4_linear_914_13390" x1="58.5958" y1="55.3083" x2="70.4963" y2="55.3083" gradientUnits="userSpaceOnUse">
<stop stop-color="#76D1F0"/>
<stop offset="0.13" stop-color="#86B9F2"/>
<stop offset="0.37" stop-color="#9F95F5"/>
<stop offset="0.56" stop-color="#AE7EF6"/>
<stop offset="0.68" stop-color="#B376F7"/>
<stop offset="1" stop-color="#752CF7"/>
</linearGradient>
<linearGradient id="paint5_linear_914_13390" x1="53.7767" y1="54.3611" x2="69.7101" y2="54.3611" gradientUnits="userSpaceOnUse">
<stop stop-color="#8ECFF6"/>
<stop offset="0.32" stop-color="#E9B7F6"/>
<stop offset="0.71" stop-color="#FF7FED"/>
<stop offset="1" stop-color="#9145ED"/>
</linearGradient>
<linearGradient id="paint6_linear_914_13390" x1="24.7033" y1="77.6785" x2="74.1712" y2="77.6785" gradientUnits="userSpaceOnUse">
<stop stop-color="#76D1F0"/>
<stop offset="0.13" stop-color="#86B9F2"/>
<stop offset="0.37" stop-color="#9F95F5"/>
<stop offset="0.56" stop-color="#AE7EF6"/>
<stop offset="0.68" stop-color="#B376F7"/>
<stop offset="1" stop-color="#752CF7"/>
</linearGradient>
<linearGradient id="paint7_linear_914_13390" x1="26.5412" y1="67.6834" x2="73.4816" y2="67.6834" gradientUnits="userSpaceOnUse">
<stop stop-color="#8ECFF6"/>
<stop offset="0.32" stop-color="#E9B7F6"/>
<stop offset="0.71" stop-color="#FF7FED"/>
<stop offset="1" stop-color="#9145ED"/>
</linearGradient>
<linearGradient id="paint8_linear_914_13390" x1="74.007" y1="77.9841" x2="20.3082" y2="57.7485" gradientUnits="userSpaceOnUse">
<stop stop-color="#CD5DED"/>
<stop offset="1" stop-color="#E9A0F6"/>
</linearGradient>
<linearGradient id="paint9_linear_914_13390" x1="73.628" y1="80.8083" x2="24.9683" y2="62.4703" gradientUnits="userSpaceOnUse">
<stop stop-color="#CD5DED"/>
<stop offset="1" stop-color="#E9A0F6"/>
</linearGradient>
<linearGradient id="paint10_linear_914_13390" x1="29.7346" y1="58.9362" x2="66.1135" y2="58.9362" gradientUnits="userSpaceOnUse">
<stop stop-color="white" stop-opacity="0"/>
<stop offset="0.22" stop-color="white" stop-opacity="0.24"/>
<stop offset="0.6" stop-color="white" stop-opacity="0.64"/>
<stop offset="0.87" stop-color="white" stop-opacity="0.9"/>
<stop offset="1" stop-color="white"/>
</linearGradient>
<linearGradient id="paint11_linear_914_13390" x1="73.4457" y1="80.5988" x2="24.992" y2="62.34" gradientUnits="userSpaceOnUse">
<stop stop-color="#CD5DED"/>
<stop offset="1" stop-color="#E9A0F6"/>
</linearGradient>
<linearGradient id="paint12_linear_914_13390" x1="56.0051" y1="91.3576" x2="54.3848" y2="91.3576" gradientUnits="userSpaceOnUse">
<stop offset="0.29" stop-color="white"/>
<stop offset="0.78" stop-color="white" stop-opacity="0"/>
</linearGradient>
<linearGradient id="paint13_linear_914_13390" x1="50.0602" y1="91.8335" x2="48.016" y2="91.8335" gradientUnits="userSpaceOnUse">
<stop offset="0.29" stop-color="white"/>
<stop offset="0.78" stop-color="white" stop-opacity="0"/>
</linearGradient>
<linearGradient id="paint14_linear_914_13390" x1="53.2295" y1="88.7195" x2="50.4722" y2="88.7195" gradientUnits="userSpaceOnUse">
<stop offset="0.29" stop-color="white"/>
<stop offset="0.78" stop-color="white" stop-opacity="0"/>
</linearGradient>
<linearGradient id="paint15_linear_914_13390" x1="49.7751" y1="80.4557" x2="53.0236" y2="80.4557" gradientUnits="userSpaceOnUse">
<stop offset="0.29" stop-color="white"/>
<stop offset="0.78" stop-color="white" stop-opacity="0"/>
</linearGradient>
<linearGradient id="paint16_linear_914_13390" x1="52.0287" y1="73.0109" x2="53.338" y2="73.4298" gradientUnits="userSpaceOnUse">
<stop offset="0.29" stop-color="white"/>
<stop offset="0.78" stop-color="white" stop-opacity="0"/>
</linearGradient>
<linearGradient id="paint17_linear_914_13390" x1="48.0241" y1="84.3348" x2="45.2035" y2="84.3348" gradientUnits="userSpaceOnUse">
<stop offset="0.29" stop-color="white"/>
<stop offset="0.78" stop-color="white" stop-opacity="0"/>
</linearGradient>
<linearGradient id="paint18_linear_914_13390" x1="60.4635" y1="83.7279" x2="56.8268" y2="83.7279" gradientUnits="userSpaceOnUse">
<stop offset="0.29" stop-color="white"/>
<stop offset="0.78" stop-color="white" stop-opacity="0"/>
</linearGradient>
<linearGradient id="paint19_linear_914_13390" x1="40.9497" y1="79.9293" x2="36.4969" y2="79.9293" gradientUnits="userSpaceOnUse">
<stop offset="0.29" stop-color="white"/>
<stop offset="0.78" stop-color="white" stop-opacity="0"/>
</linearGradient>
<linearGradient id="paint20_linear_914_13390" x1="78.0085" y1="72.2433" x2="18.1138" y2="49.6704" gradientUnits="userSpaceOnUse">
<stop stop-color="#CD5DED"/>
<stop offset="1" stop-color="#E9A0F6"/>
</linearGradient>
<linearGradient id="paint21_linear_914_13390" x1="39.3886" y1="69.2806" x2="40.7672" y2="69.2806" gradientUnits="userSpaceOnUse">
<stop offset="0.29" stop-color="white"/>
<stop offset="0.78" stop-color="white" stop-opacity="0"/>
</linearGradient>
<linearGradient id="paint22_linear_914_13390" x1="47.0105" y1="65.7109" x2="48.0484" y2="65.7109" gradientUnits="userSpaceOnUse">
<stop offset="0.29" stop-color="white"/>
<stop offset="0.78" stop-color="white" stop-opacity="0"/>
</linearGradient>
<linearGradient id="paint23_linear_914_13390" x1="62.7922" y1="73.3098" x2="63.6257" y2="72.6914" gradientUnits="userSpaceOnUse">
<stop offset="0.29" stop-color="white"/>
<stop offset="0.78" stop-color="white" stop-opacity="0"/>
</linearGradient>
<linearGradient id="paint24_linear_914_13390" x1="66.616" y1="58.1219" x2="70.2961" y2="69.6366" gradientUnits="userSpaceOnUse">
<stop offset="0.2" stop-color="#FFDE43"/>
<stop offset="0.34" stop-color="#FFD242"/>
<stop offset="0.59" stop-color="#FFB13E"/>
<stop offset="0.92" stop-color="#FF7B38"/>
<stop offset="1" stop-color="#FF6E37"/>
</linearGradient>
<linearGradient id="paint25_linear_914_13390" x1="75.0907" y1="57.4802" x2="68.8263" y2="64.7352" gradientUnits="userSpaceOnUse">
<stop offset="0.2" stop-color="#FFDE43"/>
<stop offset="0.56" stop-color="#FFD23E"/>
<stop offset="1" stop-color="#FFBD37"/>
</linearGradient>
<linearGradient id="paint26_linear_914_13390" x1="74.7352" y1="58.3296" x2="68.9597" y2="65.0283" gradientUnits="userSpaceOnUse">
<stop offset="0.02" stop-color="#FFFFA0"/>
<stop offset="0.98" stop-color="#FFEB6A"/>
</linearGradient>
<linearGradient id="paint27_linear_914_13390" x1="67.2981" y1="63.1933" x2="76.239" y2="59.5827" gradientUnits="userSpaceOnUse">
<stop stop-color="#F5942A"/>
<stop offset="1" stop-color="#F5D85D"/>
</linearGradient>
<linearGradient id="paint28_linear_914_13390" x1="67.5538" y1="63.7797" x2="76.5057" y2="60.1647" gradientUnits="userSpaceOnUse">
<stop stop-color="#E08C3C"/>
<stop offset="1" stop-color="#FFD06F"/>
</linearGradient>
<linearGradient id="paint29_linear_914_13390" x1="69.1022" y1="62.1583" x2="74.2669" y2="60.0727" gradientUnits="userSpaceOnUse">
<stop offset="0.16" stop-color="#FFDE43"/>
<stop offset="0.25" stop-color="#FFDA42"/>
<stop offset="1" stop-color="#FFBD37"/>
</linearGradient>
<linearGradient id="paint30_linear_914_13390" x1="69.1022" y1="62.1583" x2="74.2669" y2="60.0727" gradientUnits="userSpaceOnUse">
<stop offset="0.16" stop-color="#FFDE43"/>
<stop offset="0.25" stop-color="#FFDA42"/>
<stop offset="1" stop-color="#FFBD37"/>
</linearGradient>
<linearGradient id="paint31_linear_914_13390" x1="69.1022" y1="62.1583" x2="74.2669" y2="60.0727" gradientUnits="userSpaceOnUse">
<stop offset="0.02" stop-color="#FFFFA0"/>
<stop offset="0.98" stop-color="#FFEB6A"/>
</linearGradient>
<linearGradient id="paint32_linear_914_13390" x1="69.771" y1="63.7046" x2="74.5683" y2="61.7673" gradientUnits="userSpaceOnUse">
<stop offset="0.16" stop-color="#FFDE43"/>
<stop offset="0.25" stop-color="#FFDA42"/>
<stop offset="1" stop-color="#FFBD37"/>
</linearGradient>
<linearGradient id="paint33_linear_914_13390" x1="56.0029" y1="52.5029" x2="64.3658" y2="52.5029" gradientUnits="userSpaceOnUse">
<stop stop-color="#F5D85D"/>
<stop offset="1" stop-color="#F5942A"/>
</linearGradient>
<radialGradient id="paint34_radial_914_13390" cx="0" cy="0" r="1" gradientUnits="userSpaceOnUse" gradientTransform="translate(73.8879 76.086) scale(5.43921)">
<stop stop-color="#8BA4FF"/>
<stop offset="0.5" stop-color="#3C85D5"/>
<stop offset="0.83" stop-color="#1B709C"/>
<stop offset="1" stop-color="#00B2C6"/>
</radialGradient>
<linearGradient id="paint35_linear_914_13390" x1="70.499" y1="73.4467" x2="72.9041" y2="72.3052" gradientUnits="userSpaceOnUse">
<stop stop-color="#F5D85D"/>
<stop offset="1" stop-color="#F5942A"/>
</linearGradient>
<linearGradient id="paint36_linear_914_13390" x1="57.4412" y1="50.6531" x2="58.1978" y2="45.7962" gradientUnits="userSpaceOnUse">
<stop stop-color="white" stop-opacity="0"/>
<stop offset="0.22" stop-color="white" stop-opacity="0.24"/>
<stop offset="0.6" stop-color="white" stop-opacity="0.64"/>
<stop offset="0.87" stop-color="white" stop-opacity="0.9"/>
<stop offset="1" stop-color="white"/>
</linearGradient>
<linearGradient id="paint37_linear_914_13390" x1="65.7081" y1="74.0856" x2="70.0658" y2="74.0856" gradientUnits="userSpaceOnUse">
<stop stop-color="#F5D85D"/>
<stop offset="1" stop-color="#F5942A"/>
</linearGradient>
<radialGradient id="paint38_radial_914_13390" cx="0" cy="0" r="1" gradientUnits="userSpaceOnUse" gradientTransform="translate(65.5705 77.2745) scale(5.43921)">
<stop stop-color="#FF948B"/>
<stop offset="0.5" stop-color="#D53C4A"/>
<stop offset="0.83" stop-color="#9C1B3D"/>
<stop offset="1" stop-color="#C60061"/>
</radialGradient>
<radialGradient id="paint39_radial_914_13390" cx="0" cy="0" r="1" gradientUnits="userSpaceOnUse" gradientTransform="translate(89.9143 49.7147) scale(25.247 25.247)">
<stop stop-color="#2833D5"/>
<stop offset="0.39" stop-color="#5176DC"/>
<stop offset="0.81" stop-color="#78B7E2"/>
<stop offset="1" stop-color="#87D0E5"/>
</radialGradient>
<radialGradient id="paint40_radial_914_13390" cx="0" cy="0" r="1" gradientUnits="userSpaceOnUse" gradientTransform="translate(89.9134 49.7139) scale(25.247 25.247)">
<stop stop-color="#2833D5"/>
<stop offset="0.39" stop-color="#5176DC"/>
<stop offset="0.81" stop-color="#78B7E2"/>
<stop offset="1" stop-color="#87D0E5"/>
</radialGradient>
<radialGradient id="paint41_radial_914_13390" cx="0" cy="0" r="1" gradientUnits="userSpaceOnUse" gradientTransform="translate(89.9143 49.7147) scale(25.247 25.247)">
<stop stop-color="#2833D5"/>
<stop offset="0.39" stop-color="#5176DC"/>
<stop offset="0.81" stop-color="#78B7E2"/>
<stop offset="1" stop-color="#87D0E5"/>
</radialGradient>
<radialGradient id="paint42_radial_914_13390" cx="0" cy="0" r="1" gradientUnits="userSpaceOnUse" gradientTransform="translate(89.9134 49.7139) scale(25.247 25.247)">
<stop stop-color="#2833D5"/>
<stop offset="0.39" stop-color="#5176DC"/>
<stop offset="0.81" stop-color="#78B7E2"/>
<stop offset="1" stop-color="#87D0E5"/>
</radialGradient>
<radialGradient id="paint43_radial_914_13390" cx="0" cy="0" r="1" gradientUnits="userSpaceOnUse" gradientTransform="translate(89.9134 49.7139) scale(25.247 25.247)">
<stop stop-color="#2833D5"/>
<stop offset="0.39" stop-color="#5176DC"/>
<stop offset="0.81" stop-color="#78B7E2"/>
<stop offset="1" stop-color="#87D0E5"/>
</radialGradient>
<linearGradient id="paint44_linear_914_13390" x1="73.9144" y1="37.5477" x2="77.6352" y2="37.8327" gradientUnits="userSpaceOnUse">
<stop stop-color="white"/>
<stop offset="0.13" stop-color="white" stop-opacity="0.9"/>
<stop offset="0.4" stop-color="white" stop-opacity="0.64"/>
<stop offset="0.78" stop-color="white" stop-opacity="0.24"/>
<stop offset="1" stop-color="white" stop-opacity="0"/>
</linearGradient>
<linearGradient id="paint45_linear_914_13390" x1="79.2489" y1="35.3932" x2="92.2428" y2="35.3932" gradientUnits="userSpaceOnUse">
<stop stop-color="#9A7014"/>
<stop offset="0.26" stop-color="#CFA751"/>
<stop offset="0.53" stop-color="#723F00"/>
<stop offset="1" stop-color="#E7B94D"/>
</linearGradient>
<linearGradient id="paint46_linear_914_13390" x1="81.8486" y1="32.5882" x2="82.7122" y2="34.5333" gradientUnits="userSpaceOnUse">
<stop stop-color="white"/>
<stop offset="0.13" stop-color="white" stop-opacity="0.9"/>
<stop offset="0.4" stop-color="white" stop-opacity="0.64"/>
<stop offset="0.78" stop-color="white" stop-opacity="0.24"/>
<stop offset="1" stop-color="white" stop-opacity="0"/>
</linearGradient>
<linearGradient id="paint47_linear_914_13390" x1="81.2177" y1="34.3239" x2="92.4091" y2="34.3239" gradientUnits="userSpaceOnUse">
<stop stop-color="#E5BA5D"/>
<stop offset="0.23" stop-color="#FFFFD0"/>
<stop offset="0.41" stop-color="#E2B854"/>
<stop offset="0.59" stop-color="#F4C96C"/>
<stop offset="0.77" stop-color="#D09F26"/>
<stop offset="1" stop-color="#C2973B"/>
</linearGradient>
<linearGradient id="paint48_linear_914_13390" x1="83.5683" y1="32.5963" x2="84.2022" y2="34.0303" gradientUnits="userSpaceOnUse">
<stop stop-color="white"/>
<stop offset="0.13" stop-color="white" stop-opacity="0.9"/>
<stop offset="0.4" stop-color="white" stop-opacity="0.64"/>
<stop offset="0.78" stop-color="white" stop-opacity="0.24"/>
<stop offset="1" stop-color="white" stop-opacity="0"/>
</linearGradient>
<linearGradient id="paint49_linear_914_13390" x1="84.3879" y1="30.5999" x2="93.4519" y2="36.1421" gradientUnits="userSpaceOnUse">
<stop stop-color="#E5BA5D"/>
<stop offset="0.23" stop-color="#FFFFD0"/>
<stop offset="0.41" stop-color="#E2B854"/>
<stop offset="0.59" stop-color="#F4C96C"/>
<stop offset="0.77" stop-color="#D09F26"/>
<stop offset="1" stop-color="#C2973B"/>
</linearGradient>
<linearGradient id="paint50_linear_914_13390" x1="85.6834" y1="27.2721" x2="100.02" y2="27.2721" gradientUnits="userSpaceOnUse">
<stop stop-color="#9A7014"/>
<stop offset="0.26" stop-color="#CFA751"/>
<stop offset="0.53" stop-color="#723F00"/>
<stop offset="1" stop-color="#E7B94D"/>
</linearGradient>
<radialGradient id="paint51_radial_914_13390" cx="0" cy="0" r="1" gradientUnits="userSpaceOnUse" gradientTransform="translate(95.8614 22.027) scale(10.094 10.094)">
<stop stop-color="#FFFFD0"/>
<stop offset="0.27" stop-color="#EBCA83"/>
<stop offset="0.4" stop-color="#F4C96C"/>
<stop offset="0.61" stop-color="#E2B854"/>
<stop offset="0.77" stop-color="#D09F26"/>
<stop offset="1" stop-color="#C2973B"/>
</radialGradient>
<linearGradient id="paint52_linear_914_13390" x1="88.6823" y1="23.5284" x2="94.4424" y2="23.5284" gradientUnits="userSpaceOnUse">
<stop stop-color="white" stop-opacity="0"/>
<stop offset="0.22" stop-color="white" stop-opacity="0.24"/>
<stop offset="0.6" stop-color="white" stop-opacity="0.64"/>
<stop offset="0.87" stop-color="white" stop-opacity="0.9"/>
<stop offset="1" stop-color="white"/>
</linearGradient>
<linearGradient id="paint53_linear_914_13390" x1="112.858" y1="41.5018" x2="27.0553" y2="98.4887" gradientUnits="userSpaceOnUse">
<stop stop-color="white" stop-opacity="0"/>
<stop offset="0.22" stop-color="white" stop-opacity="0.24"/>
<stop offset="0.6" stop-color="white" stop-opacity="0.64"/>
<stop offset="0.87" stop-color="white" stop-opacity="0.9"/>
<stop offset="1" stop-color="white"/>
</linearGradient>
<linearGradient id="paint54_linear_914_13390" x1="113.121" y1="41.8938" x2="27.3175" y2="98.8807" gradientUnits="userSpaceOnUse">
<stop stop-color="white" stop-opacity="0"/>
<stop offset="0.22" stop-color="white" stop-opacity="0.24"/>
<stop offset="0.6" stop-color="white" stop-opacity="0.64"/>
<stop offset="0.87" stop-color="white" stop-opacity="0.9"/>
<stop offset="1" stop-color="white"/>
</linearGradient>
<linearGradient id="paint55_linear_914_13390" x1="97.7657" y1="18.7747" x2="11.9624" y2="75.7616" gradientUnits="userSpaceOnUse">
<stop stop-color="white" stop-opacity="0"/>
<stop offset="0.22" stop-color="white" stop-opacity="0.24"/>
<stop offset="0.6" stop-color="white" stop-opacity="0.64"/>
<stop offset="0.87" stop-color="white" stop-opacity="0.9"/>
<stop offset="1" stop-color="white"/>
</linearGradient>
</defs>
</svg>
