<svg width="120" height="120" viewBox="0 0 120 120" fill="none" xmlns="http://www.w3.org/2000/svg">
<path d="M103.722 27.0548C103.722 24.1374 102.572 21.3395 100.525 19.2766C98.4783 17.2137 95.7019 16.0548 92.807 16.0548C89.912 16.0548 87.1356 17.2137 85.0885 19.2766C83.0415 21.3395 81.8915 24.1374 81.8915 27.0548C81.8931 27.9204 81.9947 28.7829 82.1941 29.6248C81.9012 29.57 81.604 29.5415 81.306 29.5398C80.8318 29.5259 80.3624 29.6398 79.9465 29.8698C79.3028 29.6722 78.6348 29.5661 77.9619 29.5548C77.7793 29.5575 77.5971 29.5708 77.4161 29.5948C76.3335 29.2236 75.2005 29.0229 74.0571 28.9998C73.4663 28.9969 72.8782 29.0794 72.3106 29.2448L72.1221 29.2998C72.0378 29.3248 71.9683 29.3598 71.8889 29.3898C71.7943 29.423 71.7015 29.4613 71.6111 29.5048L71.487 29.5698C71.3779 29.6248 71.2687 29.6798 71.1695 29.7398L71.1149 29.7798C71.0047 29.8484 70.8987 29.9235 70.7974 30.0048C70.6183 30.1571 70.4523 30.3243 70.3012 30.5048L65.8358 35.0048L65.806 35.0398C65.3764 35.5467 65.0573 36.1389 64.8692 36.778C64.6812 37.4171 64.6285 38.0889 64.7145 38.7498C63.2415 38.6616 61.7798 38.4356 60.3483 38.0748C58.6928 37.6486 56.9954 37.4088 55.2874 37.3598C54.4738 37.3604 53.6619 37.434 52.8612 37.5798C41.8167 39.5798 31.5959 58.4748 24.9672 73.9598C18.6759 88.6548 19.9758 93.9998 25.2748 99.2248V99.3198L25.771 99.7098L25.8801 99.8198H25.9149C28.2964 101.97 31.0848 103.925 35.2327 103.925C39.1474 103.925 44.0941 102.21 51.2586 98.3698C78.0512 84.0298 84.3723 73.6098 84.9974 67.3998C85.2802 64.4698 84.5806 62.1548 83.9009 59.8998C83.4489 58.5198 83.1169 57.1028 82.9086 55.6648C83.1616 55.6898 83.4048 55.7048 83.6479 55.7048C85.6722 55.7048 86.8282 54.8998 87.4484 54.2048L91.6559 49.9648C91.7154 49.9098 91.765 49.8548 91.8146 49.7998L91.9188 49.6998L91.9486 49.6648C92.0371 49.5628 92.1199 49.456 92.1967 49.3448C92.8372 48.4003 93.1255 47.2579 93.0104 46.1198C92.9224 45.0868 92.6729 44.0743 92.2711 43.1198C92.3387 42.2563 92.201 41.3889 91.8692 40.5898C92.2116 39.9348 92.2016 39.0298 91.8345 37.9698C92.1724 38.0042 92.5119 38.0209 92.8516 38.0198C95.7328 38.0079 98.4925 36.8486 100.529 34.7945C102.565 32.7405 103.713 29.9583 103.722 27.0548Z" fill="#390176"/>
<path d="M35.2249 103.945C31.077 103.945 28.2787 101.99 25.9071 99.8395H25.8723L25.7632 99.7295L25.267 99.3395V99.2445C19.968 94.0195 18.6681 88.6745 24.9594 73.9795C31.5881 58.4795 41.8288 39.6145 52.8534 37.5995C53.6541 37.4538 54.466 37.3801 55.2796 37.3795C56.9876 37.4285 58.6849 37.6683 60.3405 38.0945C61.9322 38.5072 63.5648 38.7386 65.2078 38.7845C67.6092 38.7845 70.0205 38.1295 72.794 36.7345L73.7318 36.2645L79.1002 41.3895L84.6225 46.3395L84.2305 47.3395C81.8638 53.2645 82.8512 56.5195 83.8981 59.9595C84.5778 62.1945 85.2774 64.5095 84.9946 67.4595C84.3893 73.6695 78.0484 84.0895 51.2558 98.4295C44.0913 102.27 39.1446 103.985 35.2299 103.985L35.2249 103.945Z" fill="#390176"/>
<path d="M82.8276 46.7597L78.0644 42.4897L73.4551 38.0547C63.5319 43.0547 59.8901 37.8197 53.1126 39.0547C42.6536 40.9647 32.6262 59.8247 26.3201 74.5547C20.0139 89.2847 21.5966 93.7097 26.7517 98.5847C31.9961 103.36 36.5012 104.585 50.5673 97.0847C64.6334 89.5847 82.4654 77.9497 83.5023 67.2897C84.1622 60.3697 78.6846 57.1347 82.8276 46.7597Z" fill="#BCFFFF"/>
<g opacity="0.64">
<path d="M35.2234 101.195C32.1621 101.195 30.0782 99.9054 27.781 97.8154V97.7754L27.6024 97.6404C23.2759 93.5354 21.1275 89.9354 27.5032 75.0504C36.4985 54.0504 45.6874 41.6854 53.3778 40.2854C54.0181 40.1695 54.6673 40.1109 55.3178 40.1104C56.8255 40.1609 58.323 40.3789 59.7832 40.7604C61.5579 41.2102 63.3768 41.4584 65.2062 41.5004C67.99 41.4585 70.7293 40.7906 73.2242 39.5454L77.1934 43.3804L81.3463 47.1054C79.0391 53.4404 80.2101 57.3054 81.252 60.7304C81.8821 62.8004 82.4726 64.7304 82.2443 67.1404C81.4852 74.9704 70.019 85.2054 49.9643 95.9504C43.2115 99.5654 38.6618 101.18 35.2184 101.18L35.2234 101.195Z" fill="url(#paint0_radial_914_13292)"/>
</g>
<g style="mix-blend-mode:color-dodge" opacity="0.2">
<path d="M35.2234 101.195C32.1621 101.195 30.0782 99.9054 27.781 97.8154V97.7754L27.6024 97.6404C23.2759 93.5354 21.1275 89.9354 27.5032 75.0504C36.4985 54.0504 45.6874 41.6854 53.3778 40.2854C54.0181 40.1695 54.6673 40.1109 55.3178 40.1104C56.8255 40.1609 58.323 40.3789 59.7832 40.7604C61.5579 41.2102 63.3768 41.4584 65.2062 41.5004C67.99 41.4585 70.7293 40.7906 73.2242 39.5454L77.1934 43.3804L81.3463 47.1054C79.0391 53.4404 80.2101 57.3054 81.252 60.7304C81.8821 62.8004 82.4726 64.7304 82.2443 67.1404C81.4852 74.9704 70.019 85.2054 49.9643 95.9504C43.2115 99.5654 38.6618 101.18 35.2184 101.18L35.2234 101.195Z" fill="url(#paint1_radial_914_13292)"/>
</g>
<path d="M79.4675 73.7899C82.9406 66.0499 74.1487 52.4349 72.9579 58.5549C71.7671 64.6749 66.0117 71.5549 54.6001 65.5549C43.1884 59.5549 39.2191 56.0549 34.456 60.5149C32.1406 64.7549 29.8087 69.5999 27.4602 75.0499C21.0845 89.9349 23.2329 93.5499 27.5594 97.6399L27.738 97.7749V97.8149C30.0601 99.9049 32.1439 101.195 35.1804 101.195C38.6238 101.195 43.1735 99.5799 49.9262 95.9649C64.7564 88.0399 74.8681 80.3999 79.4675 73.7899Z" fill="#390176"/>
<path d="M35.223 100.445C32.4148 100.445 30.4996 99.265 28.3562 97.355V97.33L28.2024 97.185L28.0536 97.07C24.5408 93.735 21.5241 90.825 28.1478 75.35C30.4252 70.035 32.7472 65.205 35.0593 60.985C36.3642 59.79 37.5798 59.25 38.974 59.25C41.4548 59.25 44.6104 60.975 49.3933 63.58C50.8372 64.375 52.4794 65.27 54.2855 66.22C57.312 67.81 60.1451 68.62 62.7202 68.62C69.4183 68.62 72.8319 63.275 73.72 58.7C73.8043 58.27 73.983 57.77 74.2162 57.77C74.5337 57.77 75.4665 58.27 76.6969 60.2C79.0487 63.89 80.5422 69.595 78.8552 73.415C74.2806 79.955 64.1838 87.52 49.6563 95.3C42.983 98.86 38.5423 100.445 35.223 100.445Z" fill="url(#paint2_linear_914_13292)"/>
<path opacity="0.2" d="M46.3479 92.6544C47.0685 92.6544 47.6528 92.0657 47.6528 91.3394C47.6528 90.6132 47.0685 90.0244 46.3479 90.0244C45.6272 90.0244 45.043 90.6132 45.043 91.3394C45.043 92.0657 45.6272 92.6544 46.3479 92.6544Z" fill="white"/>
<g opacity="0.4">
<path opacity="0.6" d="M47.088 92.1701C47.2093 92.048 47.3054 91.903 47.371 91.7434C47.4366 91.5839 47.4704 91.4128 47.4704 91.2401C47.4704 91.0674 47.4366 90.8963 47.371 90.7368C47.3054 90.5772 47.2093 90.4322 47.088 90.3101C47.0033 90.2284 46.9062 90.1608 46.8003 90.1101C46.9676 90.1778 47.1221 90.2742 47.2567 90.3951C47.4778 90.6233 47.6095 90.9245 47.6273 91.2429C47.6451 91.5613 47.5479 91.8755 47.3537 92.1273C47.1595 92.3791 46.8814 92.5516 46.5708 92.6127C46.2602 92.6739 45.9381 92.6197 45.6641 92.4601C45.9025 92.5636 46.1666 92.5913 46.421 92.5395C46.6755 92.4876 46.9082 92.3588 47.088 92.1701Z" fill="url(#paint3_linear_914_13292)"/>
</g>
<path opacity="0.3" d="M45.8922 90.9399C46.0484 90.9399 46.175 90.8123 46.175 90.6549C46.175 90.4975 46.0484 90.3699 45.8922 90.3699C45.736 90.3699 45.6094 90.4975 45.6094 90.6549C45.6094 90.8123 45.736 90.9399 45.8922 90.9399Z" fill="white"/>
<path opacity="0.2" d="M33.4494 97.6549C34.1701 97.6549 34.7543 97.0662 34.7543 96.3399C34.7543 95.6136 34.1701 95.0249 33.4494 95.0249C32.7288 95.0249 32.1445 95.6136 32.1445 96.3399C32.1445 97.0662 32.7288 97.6549 33.4494 97.6549Z" fill="white"/>
<g opacity="0.4">
<path opacity="0.6" d="M34.1847 97.17C34.3059 97.0479 34.4021 96.9029 34.4677 96.7433C34.5333 96.5837 34.5671 96.4127 34.5671 96.24C34.5671 96.0673 34.5333 95.8962 34.4677 95.7367C34.4021 95.5771 34.3059 95.4321 34.1847 95.31C34.1 95.2282 34.0029 95.1607 33.8969 95.11C34.0643 95.1776 34.2188 95.2741 34.3534 95.395C34.5745 95.6232 34.7061 95.9243 34.724 96.2428C34.7418 96.5612 34.6446 96.8754 34.4504 97.1272C34.2562 97.379 33.9781 97.5514 33.6674 97.6126C33.3568 97.6738 33.0348 97.6196 32.7607 97.46C32.9992 97.5635 33.2633 97.5912 33.5177 97.5393C33.7722 97.4875 34.0049 97.3586 34.1847 97.17Z" fill="url(#paint4_linear_914_13292)"/>
</g>
<path opacity="0.3" d="M32.9918 95.9401C33.148 95.9401 33.2746 95.8125 33.2746 95.6551C33.2746 95.4977 33.148 95.3701 32.9918 95.3701C32.8356 95.3701 32.709 95.4977 32.709 95.6551C32.709 95.8125 32.8356 95.9401 32.9918 95.9401Z" fill="white"/>
<path d="M48.1499 76.5547C60.5538 78.5547 70.477 75.5547 75.4386 68.5547C78.7777 63.8447 76.9271 59.1397 74.7936 57.1747C73.9352 56.7697 73.2356 57.1247 72.9578 58.5547C71.767 64.6847 66.0116 71.5547 54.5999 65.5547C43.1883 59.5547 38.7229 53.0547 34.4559 60.5147C32.2728 64.5547 35.7459 74.5547 48.1499 76.5547Z" fill="#390176"/>
<path d="M55.4188 76.415C53.0236 76.4065 50.6328 76.2058 48.2692 75.815C39.9039 74.465 36.6541 69.54 35.6518 67.5C34.466 65.07 34.2527 62.475 35.111 60.89C36.5995 58.27 37.8895 57.935 38.8421 57.935C40.7424 57.935 43.1637 59.485 46.5128 61.625C48.7207 63.04 51.2263 64.625 54.2578 66.235C57.2893 67.845 60.1174 68.635 62.6925 68.635C69.3906 68.635 72.8042 63.29 73.6923 58.715C73.7767 58.285 73.9553 57.785 74.1885 57.785C74.2584 57.7881 74.3272 57.8033 74.3919 57.83C76.2128 59.575 77.8997 63.83 74.8434 68.135C71.0528 73.485 64.1561 76.43 55.4287 76.43L55.4188 76.415Z" fill="url(#paint5_linear_914_13292)"/>
<g style="mix-blend-mode:color-dodge" opacity="0.3">
<path d="M35.1543 66.2649C35.2953 66.6812 35.461 67.0886 35.6505 67.4849C36.6428 69.5399 39.8877 74.4849 48.2678 75.8149C50.6314 76.2057 53.0222 76.4063 55.4174 76.4149C57.9939 76.4306 60.5633 76.1419 63.0731 75.5549C44.1993 77.7399 38.6423 70.4649 35.1543 66.2649Z" fill="url(#paint6_radial_914_13292)"/>
</g>
<path opacity="0.33" d="M82.2509 67.1548C82.4841 64.7698 81.8937 62.8148 81.2586 60.7448C80.2167 57.3198 79.0458 53.4548 81.3529 47.1198L77.2001 43.3948L74.2231 40.5398C72.4121 43.5898 70.0405 48.3398 70.0405 48.3398C72.9381 52.5548 74.4265 55.0548 73.9304 61.5548C73.4342 68.0548 52.0994 88.5548 44.657 93.0548C37.2146 97.5548 28.7799 99.9548 23.8184 92.2648C24.4534 94.4648 25.803 96.0148 27.5346 97.6398L27.7132 97.7748V97.8148C30.0352 99.9048 32.1191 101.195 35.1556 101.195C38.5989 101.195 43.1487 99.5798 49.9014 95.9648C70.0256 85.2198 81.4918 74.9998 82.2509 67.1548Z" fill="#231F1F"/>
<path d="M35.251 73.0548C34.9743 73.0544 34.7007 72.9965 34.4472 72.8848C33.9689 72.6665 33.5959 72.2662 33.4099 71.7714C33.2239 71.2765 33.2401 70.7276 33.4549 70.2448C39.6469 56.1998 44.3704 46.8298 53.1424 44.6148C53.6495 44.4963 54.1824 44.5833 54.6264 44.857C55.0703 45.1307 55.3899 45.5692 55.5161 46.078C55.6423 46.5869 55.5652 47.1253 55.3012 47.5774C55.0373 48.0294 54.6077 48.3589 54.105 48.4948C47.0744 50.2698 42.7975 58.8998 37.0818 71.8698C36.9243 72.2255 36.6671 72.5272 36.3419 72.7377C36.0167 72.9482 35.6375 73.0584 35.251 73.0548Z" fill="url(#paint7_linear_914_13292)"/>
<path d="M59.3128 48.0552C60.5459 48.0552 61.5455 47.0478 61.5455 45.8052C61.5455 44.5625 60.5459 43.5552 59.3128 43.5552C58.0797 43.5552 57.0801 44.5625 57.0801 45.8052C57.0801 47.0478 58.0797 48.0552 59.3128 48.0552Z" fill="#FFFAE4"/>
<path opacity="0.2" d="M35.0013 92.6548C36.0316 92.6548 36.8669 91.8131 36.8669 90.7748C36.8669 89.7365 36.0316 88.8948 35.0013 88.8948C33.971 88.8948 33.1357 89.7365 33.1357 90.7748C33.1357 91.8131 33.971 92.6548 35.0013 92.6548Z" fill="white"/>
<g opacity="0.4">
<path opacity="0.6" d="M36.0537 91.965C36.2271 91.7904 36.3647 91.5831 36.4586 91.3549C36.5524 91.1267 36.6007 90.8821 36.6007 90.635C36.6007 90.388 36.5524 90.1434 36.4586 89.9152C36.3647 89.687 36.2271 89.4796 36.0537 89.305C35.9357 89.1867 35.798 89.0902 35.6469 89.02C35.8869 89.1149 36.1073 89.2539 36.2968 89.43C36.6132 89.7551 36.8017 90.1848 36.8275 90.6394C36.8532 91.0939 36.7144 91.5425 36.4367 91.9017C36.1591 92.2609 35.7615 92.5064 35.3179 92.5925C34.8742 92.6786 34.4146 92.5996 34.0244 92.37C34.3631 92.5201 34.7394 92.5618 35.1023 92.4893C35.4652 92.4169 35.7973 92.2339 36.0537 91.965Z" fill="url(#paint8_linear_914_13292)"/>
</g>
<path opacity="0.3" d="M34.3512 90.2049C34.5759 90.2049 34.758 90.0213 34.758 89.7949C34.758 89.5684 34.5759 89.3849 34.3512 89.3849C34.1265 89.3849 33.9443 89.5684 33.9443 89.7949C33.9443 90.0213 34.1265 90.2049 34.3512 90.2049Z" fill="white"/>
<path opacity="0.2" d="M30.4729 92.6544C31.1935 92.6544 31.7778 92.0657 31.7778 91.3394C31.7778 90.6132 31.1935 90.0244 30.4729 90.0244C29.7522 90.0244 29.168 90.6132 29.168 91.3394C29.168 92.0657 29.7522 92.6544 30.4729 92.6544Z" fill="white"/>
<g opacity="0.4">
<path opacity="0.6" d="M31.213 92.1701C31.3343 92.048 31.4304 91.903 31.496 91.7434C31.5616 91.5839 31.5954 91.4128 31.5954 91.2401C31.5954 91.0674 31.5616 90.8963 31.496 90.7368C31.4304 90.5772 31.3343 90.4322 31.213 90.3101C31.1283 90.2284 31.0312 90.1608 30.9253 90.1101C31.0926 90.1778 31.2471 90.2742 31.3817 90.3951C31.6028 90.6233 31.7345 90.9245 31.7523 91.2429C31.7701 91.5613 31.6729 91.8755 31.4787 92.1273C31.2845 92.3791 31.0064 92.5516 30.6958 92.6127C30.3852 92.6739 30.0631 92.6197 29.7891 92.4601C30.0275 92.5636 30.2916 92.5913 30.546 92.5395C30.8005 92.4876 31.0332 92.3588 31.213 92.1701Z" fill="url(#paint9_linear_914_13292)"/>
</g>
<path opacity="0.3" d="M30.0152 90.9398C30.1714 90.9398 30.298 90.8121 30.298 90.6547C30.298 90.4973 30.1714 90.3698 30.0152 90.3698C29.859 90.3698 29.7324 90.4973 29.7324 90.6547C29.7324 90.8121 29.859 90.9398 30.0152 90.9398Z" fill="white"/>
<path opacity="0.2" d="M40.628 90.1551C41.7515 90.1551 42.6622 89.2372 42.6622 88.1051C42.6622 86.9729 41.7515 86.0551 40.628 86.0551C39.5045 86.0551 38.5938 86.9729 38.5938 88.1051C38.5938 89.2372 39.5045 90.1551 40.628 90.1551Z" fill="white"/>
<g opacity="0.4">
<path opacity="0.6" d="M41.7734 89.3999C41.963 89.2099 42.1135 88.984 42.2162 88.7351C42.3189 88.4863 42.3717 88.2194 42.3717 87.9499C42.3717 87.6804 42.3189 87.4136 42.2162 87.1648C42.1135 86.9159 41.963 86.69 41.7734 86.4999C41.6447 86.3721 41.4954 86.2673 41.3318 86.1899C41.5927 86.2946 41.833 86.4453 42.0413 86.6349C42.3921 86.9884 42.6026 87.4589 42.6333 87.9578C42.6639 88.4567 42.5127 88.9498 42.2079 89.3441C41.9031 89.7385 41.4658 90.0071 40.9782 90.0993C40.4907 90.1916 39.9865 90.1011 39.5605 89.8449C39.9306 90.006 40.3405 90.0497 40.7358 89.9702C41.1311 89.8907 41.493 89.6918 41.7734 89.3999Z" fill="url(#paint10_linear_914_13292)"/>
</g>
<path opacity="0.3" d="M39.9181 87.4801C40.162 87.4801 40.3597 87.2809 40.3597 87.0351C40.3597 86.7893 40.162 86.5901 39.9181 86.5901C39.6743 86.5901 39.4766 86.7893 39.4766 87.0351C39.4766 87.2809 39.6743 87.4801 39.9181 87.4801Z" fill="white"/>
<path opacity="0.2" d="M35.6662 86.6547C37.0637 86.6547 38.1966 85.513 38.1966 84.1047C38.1966 82.6964 37.0637 81.5547 35.6662 81.5547C34.2686 81.5547 33.1357 82.6964 33.1357 84.1047C33.1357 85.513 34.2686 86.6547 35.6662 86.6547Z" fill="white"/>
<g opacity="0.4">
<path opacity="0.6" d="M37.0965 85.7157C37.3324 85.4796 37.5197 85.1988 37.6475 84.8894C37.7753 84.5801 37.8411 84.2483 37.8411 83.9132C37.8411 83.5781 37.7753 83.2463 37.6475 82.937C37.5197 82.6276 37.3324 82.3468 37.0965 82.1107C36.9359 81.9518 36.7496 81.8216 36.5457 81.7257C36.8698 81.8555 37.1687 82.0417 37.4289 82.2757C37.903 82.7539 38.1694 83.4022 38.1694 84.0782C38.1694 84.7542 37.903 85.4025 37.4289 85.8807C37.0357 86.2906 36.5153 86.5527 35.954 86.6236C35.3927 86.6945 34.8242 86.57 34.3428 86.2707C34.8029 86.4737 35.3138 86.5293 35.8063 86.43C36.2988 86.3308 36.7492 86.0814 37.0965 85.7157Z" fill="url(#paint11_linear_914_13292)"/>
</g>
<path opacity="0.3" d="M34.7851 83.3298C35.0893 83.3298 35.3358 83.0814 35.3358 82.7748C35.3358 82.4683 35.0893 82.2198 34.7851 82.2198C34.4809 82.2198 34.2344 82.4683 34.2344 82.7748C34.2344 83.0814 34.4809 83.3298 34.7851 83.3298Z" fill="white"/>
<path opacity="0.2" d="M45.6381 84.5552C47.2822 84.5552 48.615 83.212 48.615 81.5552C48.615 79.8983 47.2822 78.5552 45.6381 78.5552C43.994 78.5552 42.6611 79.8983 42.6611 81.5552C42.6611 83.212 43.994 84.5552 45.6381 84.5552Z" fill="white"/>
<g opacity="0.4">
<path opacity="0.6" d="M47.3463 83.4455C47.9023 82.8832 48.2144 82.1218 48.2144 81.328C48.2144 80.5342 47.9023 79.7728 47.3463 79.2105C47.1588 79.0213 46.9407 78.8657 46.7013 78.7505C47.0809 78.9058 47.4303 79.1275 47.7333 79.4055C48.2388 79.9237 48.5404 80.6092 48.5822 81.3346C48.624 82.0601 48.4031 82.7761 47.9606 83.3498C47.518 83.9235 46.8838 84.3158 46.1759 84.4539C45.4679 84.592 44.7343 84.4664 44.1113 84.1005C44.6522 84.3381 45.2525 84.4027 45.831 84.2855C46.4095 84.1684 46.9384 83.8752 47.3463 83.4455Z" fill="url(#paint12_linear_914_13292)"/>
</g>
<path opacity="0.3" d="M44.603 80.6406C44.9592 80.6406 45.248 80.3496 45.248 79.9906C45.248 79.6316 44.9592 79.3406 44.603 79.3406C44.2468 79.3406 43.958 79.6316 43.958 79.9906C43.958 80.3496 44.2468 80.6406 44.603 80.6406Z" fill="white"/>
<path d="M66.509 53.0552C59.0666 49.5552 55.2313 57.1502 58.5704 59.5552C61.9096 61.9602 63.1946 56.9802 67.0845 57.7702C70.9744 58.5602 72.6514 55.9302 66.509 53.0552Z" fill="#390176"/>
<path d="M60.3474 59.47C59.8554 59.4426 59.3847 59.2588 59.0028 58.945C58.0105 58.225 57.9708 56.945 58.2734 56.01C58.6044 55.071 59.2242 54.263 60.0426 53.7037C60.8609 53.1443 61.8351 52.8627 62.8232 52.9C63.9948 52.927 65.1464 53.212 66.1971 53.735C69.3526 55.235 69.8786 56.395 69.8141 56.69C69.7744 56.875 69.3526 57.16 68.405 57.16C68.0117 57.1552 67.6196 57.1133 67.234 57.035C66.9077 56.9663 66.5751 56.9328 66.2417 56.935C64.6441 56.935 63.4831 57.745 62.461 58.435C61.7019 59 61.037 59.47 60.3474 59.47Z" fill="url(#paint13_radial_914_13292)"/>
<path d="M59.0665 58.0549C59.3405 58.0549 59.5626 57.7191 59.5626 57.3049C59.5626 56.8907 59.3405 56.5549 59.0665 56.5549C58.7925 56.5549 58.5703 56.8907 58.5703 57.3049C58.5703 57.7191 58.7925 58.0549 59.0665 58.0549Z" fill="#FFFAE4"/>
<path d="M86.1811 58.3701L86.8559 56.8401L87.4017 58.4201L88.9199 59.1051L87.3471 59.6501L86.6723 61.1801L86.1315 59.5951L84.6133 58.9151L86.1811 58.3701Z" fill="#FFFAE4"/>
<path d="M28.4232 56.595L29.4353 54.3L30.249 56.675L32.5314 57.695L30.1746 58.515L29.1575 60.815L28.3438 58.44L26.0664 57.415L28.4232 56.595Z" fill="#FFFAE4"/>
<path d="M43.5215 88.3297L44.2409 86.7097L44.8165 88.3897L46.424 89.1097L44.7619 89.6897L44.0425 91.3147L43.4669 89.6347L41.8594 88.9097L43.5215 88.3297Z" fill="#FFFAE4"/>
<path d="M73.4934 82.5549C70.7994 82.4832 68.1362 81.9576 65.6144 80.9999C60.1566 79.0749 51.9551 74.6649 45.9417 69.1549C38.9111 62.7449 35.6712 56.5999 36.2517 50.8999C36.2517 50.6449 36.9364 44.6299 40.7618 44.3999L42.8506 44.2749L42.2751 46.3099C41.8831 47.6849 41.6301 49.2849 41.7293 49.7249L41.8037 50.0699C42.4041 52.8849 44.225 61.4399 57.403 69.2599C62.4836 72.2599 69.921 76.2899 75.7608 76.2899C77.2391 76.3222 78.7042 76.0036 80.0377 75.3599L82.3895 74.1649L82.1762 76.8249C82.0401 77.9111 81.6117 78.9391 80.9374 79.7975C80.2631 80.656 79.3686 81.3121 78.3508 81.6949C76.7978 82.2798 75.1512 82.5713 73.4934 82.5549Z" fill="#390176"/>
<path d="M40.8522 45.8999C40.8522 45.8999 40.0137 48.8449 40.2866 50.0549C40.8225 52.4799 42.3308 62.0549 56.6599 70.5549C65.2831 75.6749 74.5216 79.8499 80.6987 76.6999C80.5862 77.5053 80.2592 78.2648 79.7525 78.8979C79.2458 79.5309 78.5783 80.0137 77.821 80.2949C75.1517 81.3299 71.49 81.4999 66.1067 79.5999C60.7234 77.6999 52.6707 73.3099 46.9401 68.0549C38.7535 60.5549 37.3394 54.8999 37.7314 51.0549C38.2375 46.0549 40.8522 45.8999 40.8522 45.8999Z" fill="url(#paint14_linear_914_13292)"/>
<path opacity="0.33" d="M62.0369 73.5453C62.0369 73.5453 65.376 75.1103 66.9984 76.5453C68.8789 78.2103 68.6258 79.5453 60.4392 75.5453C45.3461 68.1553 39.7097 60.5453 37.8789 54.4703C38.5487 58.0053 40.9005 62.5253 46.9288 68.0453C52.6644 73.3103 60.7419 77.7003 66.1004 79.6003C71.4589 81.5003 75.1454 81.3303 77.8147 80.2953C78.572 80.0141 79.2395 79.5313 79.7462 78.8983C80.2529 78.2653 80.5799 77.5057 80.6924 76.7003C75.7705 79.2003 68.9484 77.0853 62.0369 73.5453Z" fill="#231F1F"/>
<path d="M42.8814 60.5748C42.7778 60.5743 42.6754 60.5522 42.5807 60.5101C42.4859 60.4679 42.4008 60.4066 42.3306 60.3298C39.8201 57.5548 39.3537 55.2398 39.3239 55.1398C39.2916 54.9476 39.3349 54.7502 39.4445 54.5896C39.5542 54.429 39.7216 54.3177 39.9113 54.2793C40.101 54.241 40.298 54.2785 40.4607 54.3841C40.6233 54.4897 40.7388 54.6549 40.7826 54.8448C40.7826 54.8848 41.2341 56.8898 43.4321 59.3198C43.5293 59.4273 43.5933 59.561 43.6165 59.7045C43.6396 59.848 43.6209 59.9952 43.5625 60.1282C43.5042 60.2611 43.4087 60.3741 43.2878 60.4534C43.1668 60.5327 43.0257 60.5749 42.8814 60.5748Z" fill="url(#paint15_linear_914_13292)"/>
<path d="M83.6002 55.7449C80.3107 55.7449 75.8105 53.5699 71.8512 50.0649C66.5968 45.4149 62.6722 38.5649 65.7583 35.0249L65.7881 34.9899L70.2535 30.4899C70.8737 29.7949 72.0298 28.9899 74.0541 28.9899C77.3387 28.9899 81.8438 31.1649 85.8031 34.6699C88.5519 37.0999 90.73 39.8849 91.9406 42.5099C93.3299 45.5099 93.315 48.0799 91.896 49.7099L91.8662 49.7449L87.4008 54.2449C86.7806 54.9349 85.6245 55.7449 83.6002 55.7449Z" fill="#390176"/>
<path d="M66.8745 36.0002C64.7956 38.3852 67.4599 44.1702 72.8284 48.9202C78.1968 53.6702 84.24 55.5902 86.314 53.2052L90.7794 48.7052C92.8583 46.3152 90.189 40.5302 84.8255 35.7802C79.462 31.0302 73.4138 29.1152 71.3399 31.5002L66.8745 36.0002Z" fill="#BCFFFF"/>
<g opacity="0.64">
<path d="M83.5999 53.5002C80.8711 53.5002 76.8373 51.5002 73.3195 48.3802C68.9881 44.5452 65.505 38.7302 67.4351 36.5152L71.8658 32.0502C72.1513 31.7635 72.4954 31.5429 72.8742 31.4039C73.2529 31.2649 73.6572 31.2107 74.0588 31.2452C76.7827 31.2452 80.8214 33.2452 84.3342 36.3652C86.8547 38.5952 88.8394 41.1152 89.921 43.4652C90.9133 45.5902 91.0125 47.3252 90.2236 48.2302L85.793 52.6952C85.5074 52.9819 85.1633 53.2024 84.7846 53.3415C84.4058 53.4805 84.0016 53.5347 83.5999 53.5002Z" fill="url(#paint16_radial_914_13292)"/>
</g>
<g opacity="0.64">
<path d="M88.0638 48.9997C85.3349 48.9997 81.3012 46.9997 77.7834 43.8797C73.4519 40.0447 69.9689 34.2297 71.899 32.0147C72.1827 31.7376 72.5223 31.5253 72.8948 31.3924C73.2672 31.2596 73.6637 31.2092 74.0572 31.2447C76.7812 31.2447 80.8199 33.2447 84.3327 36.3647C86.8532 38.5947 88.8378 41.1147 89.9194 43.4647C90.9117 45.5897 91.011 47.3247 90.2221 48.2297C89.9384 48.5068 89.5987 48.719 89.2263 48.8519C88.8538 48.9848 88.4573 49.0352 88.0638 48.9997Z" fill="url(#paint17_radial_914_13292)"/>
</g>
<g style="mix-blend-mode:color-dodge" opacity="0.2">
<path d="M83.5999 53.5002C80.8711 53.5002 76.8373 51.5002 73.3195 48.3802C68.9881 44.5452 65.505 38.7302 67.4351 36.5152L71.8658 32.0502C72.1513 31.7635 72.4954 31.5429 72.8742 31.4039C73.2529 31.2649 73.6572 31.2107 74.0588 31.2452C76.7827 31.2452 80.8214 33.2452 84.3342 36.3652C86.8547 38.5952 88.8394 41.1152 89.921 43.4652C90.9133 45.5902 91.0125 47.3252 90.2236 48.2302L85.793 52.6952C85.5074 52.9819 85.1633 53.2024 84.7846 53.3415C84.4058 53.4805 84.0016 53.5347 83.5999 53.5002Z" fill="url(#paint18_radial_914_13292)"/>
</g>
<path d="M91.9004 49.7055C91.2901 50.4105 90.1291 51.2455 88.0651 51.2455C87.8021 51.2455 87.5342 51.2455 87.2613 51.2055C85.0546 50.8963 82.9339 50.1357 81.0295 48.9705C79.3461 47.9998 77.7651 46.8589 76.3111 45.5655C70.1339 40.0955 67.5142 33.6305 70.2232 30.5255C70.8335 29.8255 71.9945 28.9855 74.0535 28.9855C77.3431 28.9855 81.8482 31.1655 85.8075 34.6705C88.5563 37.1005 90.7344 39.8855 91.945 42.5105C93.3343 45.5255 93.3194 48.0805 91.9004 49.7055Z" fill="#390176"/>
<path opacity="0.33" d="M87.2639 51.205L85.7755 52.705C85.4923 52.9939 85.1494 53.2163 84.7712 53.3563C84.393 53.4963 83.9888 53.5505 83.5874 53.515C82.0989 53.515 80.2681 52.925 78.3281 51.905L81.0173 48.99C82.9277 50.1501 85.0536 50.9039 87.2639 51.205Z" fill="#231F1F"/>
<path d="M90.7798 48.7147C90.2522 49.2906 89.5303 49.6472 88.7555 49.7147C87.0139 49.9397 84.6175 49.2697 82.0672 47.8597C80.359 46.8997 78.7586 45.7564 77.2942 44.4497C71.9258 39.6997 69.2614 33.9147 71.3403 31.5297C73.4192 29.1447 79.4574 31.0597 84.8259 35.8097C90.1943 40.5597 92.8636 46.3297 90.7798 48.7147Z" fill="#BCFFFF"/>
<g opacity="0.64">
<path d="M88.0638 48.9997C85.3349 48.9997 81.3012 46.9997 77.7834 43.8797C73.4519 40.0447 69.9689 34.2297 71.899 32.0147C72.1827 31.7376 72.5223 31.5253 72.8948 31.3924C73.2672 31.2596 73.6637 31.2092 74.0572 31.2447C76.7812 31.2447 80.8199 33.2447 84.3327 36.3647C86.8532 38.5947 88.8378 41.1147 89.9194 43.4647C90.9117 45.5897 91.011 47.3247 90.2221 48.2297C89.9384 48.5068 89.5987 48.719 89.2263 48.8519C88.8538 48.9848 88.4573 49.0352 88.0638 48.9997Z" fill="url(#paint19_radial_914_13292)"/>
</g>
<g style="mix-blend-mode:color-dodge" opacity="0.2">
<path d="M88.0638 48.9997C85.3349 48.9997 81.3012 46.9997 77.7834 43.8797C73.4519 40.0447 69.9689 34.2297 71.899 32.0147C72.1827 31.7376 72.5223 31.5253 72.8948 31.3924C73.2672 31.2596 73.6637 31.2092 74.0572 31.2447C76.7812 31.2447 80.8199 33.2447 84.3327 36.3647C86.8532 38.5947 88.8378 41.1147 89.9194 43.4647C90.9117 45.5897 91.011 47.3247 90.2221 48.2297C89.9384 48.5068 89.5987 48.719 89.2263 48.8519C88.8538 48.9848 88.4573 49.0352 88.0638 48.9997Z" fill="url(#paint20_radial_914_13292)"/>
</g>
<path opacity="0.33" d="M90.2254 48.2248C91.0143 47.3198 90.9001 45.5848 89.9227 43.4598C89.644 42.86 89.3275 42.2789 88.9751 41.7198C85.2241 41.9898 78.6748 42.4948 78.6748 42.4948C80.6991 45.5648 84.2764 47.8948 86.2065 48.7348C86.8142 48.8958 87.4388 48.9831 88.0671 48.9948C88.4606 49.0304 88.8571 48.98 89.2296 48.8471C89.602 48.7142 89.9417 48.502 90.2254 48.2248Z" fill="#231F1F"/>
<path d="M71.8511 44.2799C71.7486 44.2802 71.6471 44.259 71.5532 44.2177C71.4592 44.1764 71.3748 44.1159 71.3053 44.0399C68.7948 41.2649 68.3284 38.9499 68.2936 38.8499C68.2614 38.6577 68.3046 38.4603 68.4143 38.2997C68.5239 38.1391 68.6913 38.0278 68.881 37.9894C69.0707 37.951 69.2678 37.9886 69.4304 38.0942C69.5931 38.1998 69.7085 38.365 69.7524 38.5549C69.7524 38.5949 70.2088 40.5999 72.4018 43.0249C72.5013 43.1316 72.5674 43.2655 72.5918 43.4098C72.6162 43.5541 72.5979 43.7024 72.5391 43.8363C72.4804 43.9702 72.3838 44.0837 72.2614 44.1626C72.1391 44.2415 71.9963 44.2823 71.8511 44.2799Z" fill="url(#paint21_linear_914_13292)"/>
<path d="M87.1124 47.6751C84.7506 47.6751 81.2875 45.9651 78.2956 43.3201C74.9714 40.3751 71.4139 35.0951 73.3787 32.8201L73.4134 32.7851L75.6809 30.5001C75.9594 30.2363 76.2895 30.0338 76.6499 29.9055C77.0104 29.7772 77.3935 29.726 77.7747 29.7551C80.1364 29.7551 83.5996 31.4651 86.5864 34.1101C88.5543 35.7797 90.1676 37.8323 91.3297 40.1451C92.2228 42.0751 92.2873 43.6951 91.5083 44.5901L91.4785 44.6301L89.2061 46.9151C88.9292 47.1821 88.5998 47.3877 88.2391 47.5186C87.8785 47.6495 87.4947 47.7028 87.1124 47.6751Z" fill="#390176"/>
<path d="M76.7595 31.5503C77.0415 31.3299 77.397 31.2278 77.7518 31.2653C79.7365 31.2653 82.897 32.8653 85.5911 35.2653C87.3996 36.8003 88.8857 38.6838 89.9623 40.8053C90.647 42.3053 90.652 43.3053 90.3692 43.6303L88.1116 45.9103C87.829 46.1292 87.474 46.2311 87.1193 46.1953C85.1347 46.1953 81.9791 44.5953 79.285 42.1953C75.6779 39.0053 73.6089 34.8603 74.507 33.8303L76.7595 31.5503Z" fill="url(#paint22_linear_914_13292)"/>
<path d="M76.3422 38.97L80.8076 35.25L79.5375 33.71L75.2705 37.285C75.5931 37.8682 75.951 38.431 76.3422 38.97Z" fill="url(#paint23_linear_914_13292)"/>
<path opacity="0.33" d="M83.3766 42.8347C83.8727 44.5547 81.134 43.8347 79.2783 42.1897C81.9725 44.5747 85.1231 46.1897 87.1127 46.1897C87.4674 46.2256 87.8223 46.1236 88.105 45.9047L90.1343 43.8597C86.9291 43.3747 83.3766 42.8347 83.3766 42.8347Z" fill="#231F1F"/>
<path d="M89.5803 45.1898C87.2186 45.1898 83.7554 43.4798 80.7636 40.8348C79.0115 39.2933 77.5244 37.4704 76.3627 35.4398C75.0975 33.1248 74.9238 31.4398 75.8665 30.3548C76.143 30.0732 76.4772 29.8557 76.8456 29.7176C77.2141 29.5794 77.608 29.5239 78 29.5548C80.3617 29.5548 83.8249 31.2648 86.8167 33.9148C88.7816 35.5841 90.3931 37.6348 91.555 39.9448C92.4481 41.8798 92.5126 43.4998 91.7337 44.3948C91.4549 44.6788 91.1173 44.8973 90.7451 45.0348C90.3729 45.1722 89.9752 45.2251 89.5803 45.1898Z" fill="#390176"/>
<path d="M89.5793 43.6903C87.5947 43.6903 84.4391 42.0903 81.745 39.6903C78.1379 36.4953 76.0689 32.3503 76.962 31.3203C77.2523 31.0975 77.6164 30.9955 77.9791 31.0353C79.9638 31.0353 83.1193 32.6353 85.8135 35.0353C87.6244 36.5679 89.1109 38.4519 90.1846 40.5753C90.8693 42.0753 90.8743 43.0753 90.5964 43.4003C90.3081 43.6273 89.9429 43.7314 89.5793 43.6903Z" fill="url(#paint24_linear_914_13292)"/>
<path d="M79.2435 37.0602L81.9972 36.5602L80.5584 34.9952L78.1123 35.4952C78.4618 36.0366 78.8394 36.559 79.2435 37.0602Z" fill="url(#paint25_linear_914_13292)"/>
<path opacity="0.33" d="M89.5786 43.6902C89.9333 43.7261 90.2882 43.6241 90.5709 43.4052C90.8488 43.0802 90.8438 42.0602 90.1591 40.5802C89.9782 40.1951 89.7778 39.8196 89.5587 39.4552L83.0293 38.4552C83.44 38.8777 83.7619 39.3792 83.9759 39.9299C84.1898 40.4806 84.2915 41.0691 84.2747 41.6602C86.2593 42.9202 88.1993 43.6902 89.5786 43.6902Z" fill="#231F1F"/>
<path d="M89.7215 41.7099C87.5236 41.7099 84.8344 40.0199 83.0532 38.4449C80.5327 36.2149 77.7542 32.2049 79.4461 30.2599C79.684 30.01 79.9736 29.816 80.2943 29.6915C80.615 29.5671 80.959 29.5153 81.3017 29.5399C83.4948 29.5399 86.1839 31.2249 87.9701 32.8049C89.4368 34.0507 90.6398 35.581 91.5077 37.3049C92.2371 38.8849 92.2619 40.1899 91.5772 40.9799C91.3393 41.2304 91.05 41.4256 90.7295 41.5517C90.4089 41.6778 90.0649 41.7318 89.7215 41.7099Z" fill="#390176"/>
<path d="M89.7221 40.2101C88.2733 40.2101 85.991 39.0451 84.0361 37.3151C81.4164 35.0001 79.9131 31.9951 80.563 31.2451C80.7746 31.0845 81.039 31.0112 81.3023 31.0401C82.7461 31.0401 85.0334 32.2001 86.9883 33.9301C88.2999 35.0363 89.378 36.3965 90.1587 37.9301C90.6549 39.0051 90.6549 39.7451 90.4564 39.9801C90.3554 40.0657 90.2384 40.1302 90.1123 40.1697C89.9862 40.2092 89.8535 40.2229 89.7221 40.2101Z" fill="url(#paint26_linear_914_13292)"/>
<path opacity="0.33" d="M82.7363 36.0004C83.1421 36.4608 83.5762 36.895 84.0363 37.3004C85.9911 39.0304 88.2735 40.1954 89.7222 40.1954C89.8523 40.211 89.9842 40.2004 90.1102 40.1644C90.2363 40.1283 90.354 40.0675 90.4566 39.9854C90.66 39.7504 90.655 38.9854 90.1589 37.9354C89.9005 37.39 89.5933 36.8695 89.241 36.3804C86.5915 35.1204 84.463 34.1354 84.463 34.1354C87.7773 37.5004 87.9162 39.5004 82.7363 36.0004Z" fill="#231F1F"/>
<path d="M92.8042 38.0548C98.8326 38.0548 103.72 33.1299 103.72 27.0548C103.72 20.9797 98.8326 16.0548 92.8042 16.0548C86.7757 16.0548 81.8887 20.9797 81.8887 27.0548C81.8887 33.1299 86.7757 38.0548 92.8042 38.0548Z" fill="#390176"/>
<path d="M92.8059 36.5548C98.0123 36.5548 102.233 32.3015 102.233 27.0548C102.233 21.8081 98.0123 17.5548 92.8059 17.5548C87.5995 17.5548 83.3789 21.8081 83.3789 27.0548C83.3789 32.3015 87.5995 36.5548 92.8059 36.5548Z" fill="url(#paint27_radial_914_13292)"/>
<path opacity="0.33" d="M98.1985 19.2744C99.119 20.2194 99.8212 21.3575 100.255 22.6075C100.689 23.8574 100.844 25.1885 100.708 26.5056C100.573 27.8228 100.151 29.0937 99.4723 30.2275C98.7936 31.3614 97.8749 32.3304 96.7819 33.0654C95.6888 33.8004 94.4483 34.2832 93.1488 34.4795C91.8492 34.6758 90.5227 34.5806 89.2639 34.2009C88.0051 33.8211 86.8449 33.1661 85.8661 32.2826C84.8873 31.399 84.1141 30.3087 83.6016 29.0894C83.9277 30.6017 84.6155 32.0108 85.6052 33.1941C86.5948 34.3775 87.8564 35.2993 89.2801 35.8793C90.7038 36.4594 92.2466 36.6802 93.7743 36.5224C95.302 36.3647 96.7683 35.8333 98.0458 34.9743C99.3232 34.1154 100.373 32.9549 101.104 31.5939C101.835 30.2329 102.225 28.7126 102.24 27.1651C102.255 25.6176 101.895 24.0898 101.19 22.7146C100.486 21.3394 99.459 20.1584 98.1985 19.2744Z" fill="#231F1F"/>
<path d="M91.5627 23.0552C92.5218 23.0552 93.2993 22.2717 93.2993 21.3052C93.2993 20.3387 92.5218 19.5552 91.5627 19.5552C90.6037 19.5552 89.8262 20.3387 89.8262 21.3052C89.8262 22.2717 90.6037 23.0552 91.5627 23.0552Z" fill="#FFFAE4"/>
<path d="M87.8419 24.0552C88.39 24.0552 88.8342 23.6075 88.8342 23.0552C88.8342 22.5029 88.39 22.0552 87.8419 22.0552C87.2939 22.0552 86.8496 22.5029 86.8496 23.0552C86.8496 23.6075 87.2939 24.0552 87.8419 24.0552Z" fill="#FFFAE4"/>
<path d="M81.8887 33.0548C82.1628 33.0548 82.3849 32.831 82.3849 32.5548C82.3849 32.2787 82.1628 32.0548 81.8887 32.0548C81.6147 32.0548 81.3926 32.2787 81.3926 32.5548C81.3926 32.831 81.6147 33.0548 81.8887 33.0548Z" fill="#FFFAE4"/>
<path d="M76.5501 78.095L77.5623 75.8L78.376 78.175L80.6583 79.195L78.3016 80.015L77.2844 82.315L76.4707 79.94L74.1934 78.915L76.5501 78.095Z" fill="#FFFAE4"/>
<path d="M75.9153 24.4049L77.0615 21.8099L77.9843 24.4949L80.5643 25.6549L77.895 26.5799L76.7489 29.1799L75.826 26.4899L73.251 25.3349L75.9153 24.4049Z" fill="white"/>
<defs>
<radialGradient id="paint0_radial_914_13292" cx="0" cy="0" r="1" gradientUnits="userSpaceOnUse" gradientTransform="translate(39.406 104.86) scale(68.2962 68.825)">
<stop stop-color="#2833D5"/>
<stop offset="0.39" stop-color="#5176DC"/>
<stop offset="0.81" stop-color="#78B7E2"/>
<stop offset="1" stop-color="#87D0E5"/>
</radialGradient>
<radialGradient id="paint1_radial_914_13292" cx="0" cy="0" r="1" gradientUnits="userSpaceOnUse" gradientTransform="translate(39.406 104.86) scale(68.2962 68.825)">
<stop stop-color="#2833D5"/>
<stop offset="0.39" stop-color="#5176DC"/>
<stop offset="0.81" stop-color="#78B7E2"/>
<stop offset="1" stop-color="#87D0E5"/>
</radialGradient>
<linearGradient id="paint2_linear_914_13292" x1="16.0068" y1="90.355" x2="78.0815" y2="61.7062" gradientUnits="userSpaceOnUse">
<stop stop-color="#7876F0"/>
<stop offset="0.02" stop-color="#8176ED"/>
<stop offset="0.11" stop-color="#B476E0"/>
<stop offset="0.19" stop-color="#D876D6"/>
<stop offset="0.25" stop-color="#EF76D0"/>
<stop offset="0.29" stop-color="#F776CE"/>
<stop offset="0.69" stop-color="#F75252"/>
<stop offset="1" stop-color="#F72CDE"/>
</linearGradient>
<linearGradient id="paint3_linear_914_13292" x1="47.6537" y1="91.3801" x2="45.6938" y2="91.3801" gradientUnits="userSpaceOnUse">
<stop offset="0.29" stop-color="white"/>
<stop offset="0.78" stop-color="white" stop-opacity="0"/>
</linearGradient>
<linearGradient id="paint4_linear_914_13292" x1="34.7503" y1="96.38" x2="32.7905" y2="96.38" gradientUnits="userSpaceOnUse">
<stop offset="0.29" stop-color="white"/>
<stop offset="0.78" stop-color="white" stop-opacity="0"/>
</linearGradient>
<linearGradient id="paint5_linear_914_13292" x1="34.5901" y1="67.09" x2="76.5204" y2="67.09" gradientUnits="userSpaceOnUse">
<stop stop-color="#978EF6"/>
<stop offset="0.32" stop-color="#F691AE"/>
<stop offset="0.71" stop-color="#FF6763"/>
<stop offset="1" stop-color="#ED45BE"/>
</linearGradient>
<radialGradient id="paint6_radial_914_13292" cx="0" cy="0" r="1" gradientUnits="userSpaceOnUse" gradientTransform="translate(49.1112 71.3399) scale(10.4938 10.575)">
<stop stop-color="#2833D5"/>
<stop offset="0.39" stop-color="#5176DC"/>
<stop offset="0.81" stop-color="#78B7E2"/>
<stop offset="1" stop-color="#87D0E5"/>
</radialGradient>
<linearGradient id="paint7_linear_914_13292" x1="33.2663" y1="58.8048" x2="55.5935" y2="58.8048" gradientUnits="userSpaceOnUse">
<stop stop-color="white" stop-opacity="0"/>
<stop offset="0.22" stop-color="white" stop-opacity="0.24"/>
<stop offset="0.6" stop-color="white" stop-opacity="0.64"/>
<stop offset="0.87" stop-color="white" stop-opacity="0.9"/>
<stop offset="1" stop-color="white"/>
</linearGradient>
<linearGradient id="paint8_linear_914_13292" x1="36.8674" y1="90.83" x2="34.0641" y2="90.83" gradientUnits="userSpaceOnUse">
<stop offset="0.29" stop-color="white"/>
<stop offset="0.78" stop-color="white" stop-opacity="0"/>
</linearGradient>
<linearGradient id="paint9_linear_914_13292" x1="31.7787" y1="91.3801" x2="29.8188" y2="91.3801" gradientUnits="userSpaceOnUse">
<stop offset="0.29" stop-color="white"/>
<stop offset="0.78" stop-color="white" stop-opacity="0"/>
</linearGradient>
<linearGradient id="paint10_linear_914_13292" x1="42.6615" y1="88.1649" x2="39.6052" y2="88.1649" gradientUnits="userSpaceOnUse">
<stop offset="0.29" stop-color="white"/>
<stop offset="0.78" stop-color="white" stop-opacity="0"/>
</linearGradient>
<linearGradient id="paint11_linear_914_13292" x1="38.1979" y1="84.1807" x2="34.3974" y2="84.1807" gradientUnits="userSpaceOnUse">
<stop offset="0.29" stop-color="white"/>
<stop offset="0.78" stop-color="white" stop-opacity="0"/>
</linearGradient>
<linearGradient id="paint12_linear_914_13292" x1="48.6164" y1="81.6405" x2="44.1461" y2="81.6405" gradientUnits="userSpaceOnUse">
<stop offset="0.29" stop-color="white"/>
<stop offset="0.78" stop-color="white" stop-opacity="0"/>
</linearGradient>
<radialGradient id="paint13_radial_914_13292" cx="0" cy="0" r="1" gradientUnits="userSpaceOnUse" gradientTransform="translate(56.3632 60.75) scale(14.3638 14.475)">
<stop stop-color="#978EF6"/>
<stop offset="0.32" stop-color="#F691AE"/>
<stop offset="0.71" stop-color="#FF6763"/>
<stop offset="1" stop-color="#ED45BE"/>
</radialGradient>
<linearGradient id="paint14_linear_914_13292" x1="35.2208" y1="47.0949" x2="79.1056" y2="85.3093" gradientUnits="userSpaceOnUse">
<stop stop-color="#8E8F7F"/>
<stop offset="0.18" stop-color="#EFFDFF"/>
<stop offset="0.5" stop-color="#BDC7BE"/>
<stop offset="0.83" stop-color="#898979"/>
<stop offset="1" stop-color="#B3AC9D"/>
</linearGradient>
<linearGradient id="paint15_linear_914_13292" x1="39.3983" y1="54.3048" x2="43.0208" y2="60.1349" gradientUnits="userSpaceOnUse">
<stop stop-color="white"/>
<stop offset="0.13" stop-color="white" stop-opacity="0.9"/>
<stop offset="0.4" stop-color="white" stop-opacity="0.64"/>
<stop offset="0.78" stop-color="white" stop-opacity="0.24"/>
<stop offset="1" stop-color="white" stop-opacity="0"/>
</linearGradient>
<radialGradient id="paint16_radial_914_13292" cx="0" cy="0" r="1" gradientUnits="userSpaceOnUse" gradientTransform="translate(88.1447 56.2952) scale(31.6202 31.865)">
<stop stop-color="#2833D5"/>
<stop offset="0.39" stop-color="#5176DC"/>
<stop offset="0.81" stop-color="#78B7E2"/>
<stop offset="1" stop-color="#87D0E5"/>
</radialGradient>
<radialGradient id="paint17_radial_914_13292" cx="0" cy="0" r="1" gradientUnits="userSpaceOnUse" gradientTransform="translate(88.1432 56.2947) scale(31.6202 31.865)">
<stop stop-color="#2833D5"/>
<stop offset="0.39" stop-color="#5176DC"/>
<stop offset="0.81" stop-color="#78B7E2"/>
<stop offset="1" stop-color="#87D0E5"/>
</radialGradient>
<radialGradient id="paint18_radial_914_13292" cx="0" cy="0" r="1" gradientUnits="userSpaceOnUse" gradientTransform="translate(88.1447 56.2952) scale(31.6202 31.865)">
<stop stop-color="#2833D5"/>
<stop offset="0.39" stop-color="#5176DC"/>
<stop offset="0.81" stop-color="#78B7E2"/>
<stop offset="1" stop-color="#87D0E5"/>
</radialGradient>
<radialGradient id="paint19_radial_914_13292" cx="0" cy="0" r="1" gradientUnits="userSpaceOnUse" gradientTransform="translate(88.1432 56.2947) scale(31.6202 31.865)">
<stop stop-color="#2833D5"/>
<stop offset="0.39" stop-color="#5176DC"/>
<stop offset="0.81" stop-color="#78B7E2"/>
<stop offset="1" stop-color="#87D0E5"/>
</radialGradient>
<radialGradient id="paint20_radial_914_13292" cx="0" cy="0" r="1" gradientUnits="userSpaceOnUse" gradientTransform="translate(88.1432 56.2947) scale(31.6202 31.865)">
<stop stop-color="#2833D5"/>
<stop offset="0.39" stop-color="#5176DC"/>
<stop offset="0.81" stop-color="#78B7E2"/>
<stop offset="1" stop-color="#87D0E5"/>
</radialGradient>
<linearGradient id="paint21_linear_914_13292" x1="68.383" y1="38.0099" x2="72.0054" y2="43.845" gradientUnits="userSpaceOnUse">
<stop stop-color="white"/>
<stop offset="0.13" stop-color="white" stop-opacity="0.9"/>
<stop offset="0.4" stop-color="white" stop-opacity="0.64"/>
<stop offset="0.78" stop-color="white" stop-opacity="0.24"/>
<stop offset="1" stop-color="white" stop-opacity="0"/>
</linearGradient>
<linearGradient id="paint22_linear_914_13292" x1="74.2936" y1="38.7203" x2="90.5676" y2="38.7203" gradientUnits="userSpaceOnUse">
<stop stop-color="#CFDADC"/>
<stop offset="0.5" stop-color="#9AA29B"/>
<stop offset="0.83" stop-color="#616156"/>
<stop offset="1" stop-color="#969084"/>
</linearGradient>
<linearGradient id="paint23_linear_914_13292" x1="77.5429" y1="35.185" x2="78.6385" y2="37.6287" gradientUnits="userSpaceOnUse">
<stop stop-color="white"/>
<stop offset="0.13" stop-color="white" stop-opacity="0.9"/>
<stop offset="0.4" stop-color="white" stop-opacity="0.64"/>
<stop offset="0.78" stop-color="white" stop-opacity="0.24"/>
<stop offset="1" stop-color="white" stop-opacity="0"/>
</linearGradient>
<linearGradient id="paint24_linear_914_13292" x1="76.7536" y1="37.3753" x2="90.7701" y2="37.3753" gradientUnits="userSpaceOnUse">
<stop stop-color="#EFFDFF"/>
<stop offset="0.5" stop-color="#BDC7BE"/>
<stop offset="0.83" stop-color="#898979"/>
<stop offset="1" stop-color="#B3AC9D"/>
</linearGradient>
<linearGradient id="paint25_linear_914_13292" x1="79.6951" y1="35.1952" x2="80.5042" y2="36.9956" gradientUnits="userSpaceOnUse">
<stop stop-color="white"/>
<stop offset="0.13" stop-color="white" stop-opacity="0.9"/>
<stop offset="0.4" stop-color="white" stop-opacity="0.64"/>
<stop offset="0.78" stop-color="white" stop-opacity="0.24"/>
<stop offset="1" stop-color="white" stop-opacity="0"/>
</linearGradient>
<linearGradient id="paint26_linear_914_13292" x1="80.4142" y1="35.6251" x2="90.5854" y2="35.6251" gradientUnits="userSpaceOnUse">
<stop stop-color="#EFFDFF"/>
<stop offset="0.5" stop-color="#BDC7BE"/>
<stop offset="0.83" stop-color="#898979"/>
<stop offset="1" stop-color="#B3AC9D"/>
</linearGradient>
<radialGradient id="paint27_radial_914_13292" cx="0" cy="0" r="1" gradientUnits="userSpaceOnUse" gradientTransform="translate(90.2011 16.0548) scale(20.8932 21.055)">
<stop stop-color="#EFFDFF"/>
<stop offset="0.5" stop-color="#BDC7BE"/>
<stop offset="0.83" stop-color="#898979"/>
<stop offset="1" stop-color="#B3AC9D"/>
</radialGradient>
</defs>
</svg>
