<svg width="91" height="19" viewBox="0 0 91 19" fill="none" xmlns="http://www.w3.org/2000/svg">
<path d="M21.5057 5.25939C18.5433 5.25939 16.2286 7.48347 16.2286 10.4608C16.2286 13.4382 18.4848 15.6433 21.5057 15.6433C24.5265 15.6433 26.8219 13.4002 26.8219 10.4418C26.8219 7.50249 24.5657 5.25939 21.5057 5.25939ZM21.5257 13.4976C19.8387 13.4976 18.6025 12.2018 18.6025 10.4616C18.6025 8.70165 19.8187 7.4066 21.5057 7.4066C23.2126 7.4066 24.4481 8.72142 24.4481 10.4616C24.4481 12.2018 23.2126 13.4976 21.5257 13.4976ZM27.4689 7.52226H28.9403V15.4507H31.2942V5.45267H27.4689V7.52226ZM10.3046 7.40586C11.5408 7.40586 12.5216 8.15991 12.8939 9.28145H15.3855C14.934 6.88388 12.9332 5.25939 10.3246 5.25939C7.36227 5.25939 5.04761 7.48347 5.04761 10.4616C5.04761 13.4397 7.3038 15.644 10.3246 15.644C12.8747 15.644 14.9147 14.0195 15.3663 11.6022H12.8939C12.5409 12.7237 11.5601 13.4976 10.3239 13.4976C8.61695 13.4976 7.42074 12.2018 7.42074 10.4616C7.42149 8.70165 8.59845 7.40586 10.3046 7.40586ZM72.1944 9.49449L70.4682 9.24339C69.6445 9.12773 69.0559 8.85686 69.0559 8.21849C69.0559 7.52226 69.8214 7.17452 70.8606 7.17452C71.9984 7.17452 72.7245 7.6577 72.8813 8.45055H75.1569C74.9015 6.4395 73.3322 5.26011 70.9198 5.26011C68.4282 5.26011 66.7805 6.51712 66.7805 8.29608C66.7805 9.99745 67.8596 10.9843 70.0367 11.2932L71.7628 11.5443C72.6068 11.66 73.0775 11.9894 73.0775 12.6081C73.0775 13.4009 72.2538 13.7296 71.116 13.7296C69.7228 13.7296 68.9383 13.1688 68.8206 12.3182H66.5058C66.722 14.2714 68.2714 15.644 71.096 15.644C73.6661 15.644 75.3722 14.4837 75.3722 12.4917C75.3722 10.7127 74.1368 9.78441 72.1944 9.49449ZM30.1173 1.33394C29.2542 1.33394 28.6067 1.95255 28.6067 2.80324C28.6067 3.65392 29.2535 4.27253 30.1173 4.27253C30.9804 4.27253 31.6281 3.65392 31.6281 2.80324C31.6281 1.95255 30.9804 1.33394 30.1173 1.33394ZM64.662 8.87588C64.662 6.71037 63.3282 5.26011 60.5034 5.26011C57.8356 5.26011 56.3448 6.59471 56.0503 8.64454H58.3848C58.5025 7.8517 59.1302 7.19428 60.4642 7.19428C61.6612 7.19428 62.2496 7.71625 62.2496 8.35465C62.2496 9.1863 61.1703 9.3986 59.8365 9.53404C58.0318 9.7273 55.7956 10.3459 55.7956 12.6666C55.7956 14.4654 57.1494 15.625 59.3073 15.625C60.9941 15.625 62.0534 14.9288 62.5835 13.8263C62.662 14.8124 63.4074 15.4507 64.4474 15.4507H65.8205V13.3819H64.6627V8.87588H64.662ZM62.3472 11.3899C62.3472 12.7245 61.1703 13.7106 59.738 13.7106C58.8551 13.7106 58.1097 13.3431 58.1097 12.57C58.1097 11.5839 59.3064 11.313 60.4051 11.1973C61.4644 11.1007 62.0527 10.8686 62.3472 10.4235V11.3899ZM49.8517 5.25939C48.537 5.25939 47.4386 5.80113 46.654 6.70965V1.2373H44.3001V15.4507H46.6146V14.1359C47.3992 15.0832 48.5179 15.644 49.8517 15.644C52.6762 15.644 54.8148 13.4397 54.8148 10.4616C54.8148 7.48347 52.6371 5.25939 49.8517 5.25939ZM49.4986 13.4976C47.8116 13.4976 46.5755 12.2018 46.5755 10.4616C46.5755 8.72142 47.831 7.4066 49.5178 7.4066C51.2248 7.4066 52.4209 8.70239 52.4209 10.4616C52.4209 12.2018 51.1854 13.4976 49.4986 13.4976ZM38.6698 5.25939C37.1399 5.25939 36.1391 5.878 35.5507 6.74844V5.45267H33.2159V15.45H35.5698V10.0165C35.5698 8.48861 36.5506 7.40586 38.0023 7.40586C39.3561 7.40586 40.1991 8.35319 40.1991 9.72658V15.4507H42.553V9.55307C42.5539 7.03835 41.2399 5.25939 38.6698 5.25939ZM86.5932 10.1329C86.5932 7.27115 84.4746 5.26011 81.63 5.26011C78.6092 5.26011 76.3924 7.50324 76.3924 10.4616C76.3924 13.5752 78.7661 15.644 81.6694 15.644C84.1216 15.644 86.044 14.2128 86.534 12.1827H84.0816C83.7286 13.0722 82.8655 13.5752 81.7079 13.5752C80.197 13.5752 79.0592 12.6469 78.8045 11.0224H86.5925V10.1329H86.5932ZM78.9422 9.35907C79.3155 7.96664 80.3746 7.2902 81.5909 7.2902C82.9247 7.2902 83.9448 8.04423 84.1801 9.35907H78.9422Z" fill="#F7F7F7"/>
</svg>
