<svg width="104" height="104" viewBox="0 0 104 104" fill="none" xmlns="http://www.w3.org/2000/svg">
<g clip-path="url(#clip0_104_13272)">
<mask id="mask0_104_13272" style="mask-type:alpha" maskUnits="userSpaceOnUse" x="13" y="5" width="51" height="72">
<path d="M50.4111 9.69428L50.2267 10.0137L49.8759 10.1275C46.0943 11.3548 41.7894 14.2031 37.4831 18.3885C33.1873 22.5636 28.9371 28.024 25.2547 34.402C21.5723 40.78 18.9687 47.191 17.5008 52.9989C16.0293 58.8209 15.715 63.9733 16.543 67.8618L16.6198 68.2225L16.4354 68.5419L14.945 71.1233L20.602 74.3894L20.6078 74.3928L20.6479 74.4161C20.648 74.4162 20.648 74.4162 20.648 74.4162C22.4096 75.4332 24.6074 75.6436 27.1587 75.0373C29.7169 74.4293 32.5742 73.0102 35.5545 70.8545C41.5131 66.5445 47.8141 59.3979 52.9978 50.4195C58.1815 41.4411 61.2201 32.4109 61.9734 25.0957C62.3502 21.4368 62.1506 18.2527 61.398 15.7333C60.6475 13.2205 59.3664 11.4223 57.6048 10.4052C57.6048 10.4052 57.6048 10.4052 57.6048 10.4052L51.9016 7.11253L50.4111 9.69428Z" fill="url(#paint0_linear_104_13272)" stroke="url(#paint1_linear_104_13272)" stroke-width="1.92046"/>
</mask>
<g mask="url(#mask0_104_13272)">
<path d="M50.0125 9.46441L49.9165 9.63071L49.7338 9.68999C45.8611 10.9469 41.4971 13.8457 37.1624 18.0587C32.8331 22.2664 28.5574 27.7613 24.8561 34.1721C21.1548 40.583 18.5339 47.0332 17.0546 52.8864C15.5734 58.7468 15.2449 63.9756 16.0928 67.9579L16.1328 68.1457L16.0368 68.312L14.3163 71.292L20.3719 74.7882L20.3749 74.79L20.4178 74.815C20.4178 74.815 20.4178 74.815 20.4179 74.815C22.3081 75.9063 24.6338 76.1106 27.2652 75.4853C29.9001 74.8591 32.8126 73.406 35.8242 71.2276C41.8466 66.8716 48.188 59.6711 53.3964 50.6498C58.6047 41.6287 61.6699 32.5366 62.4312 25.1431C62.812 21.4457 62.6141 18.1969 61.839 15.6018C61.0649 13.0102 59.7251 11.0983 57.8349 10.0069L51.7332 6.48409L50.0125 9.46441Z" fill="url(#paint2_linear_104_13272)" stroke="url(#paint3_linear_104_13272)"/>
</g>
<mask id="mask1_104_13272" style="mask-type:alpha" maskUnits="userSpaceOnUse" x="8" y="4" width="49" height="69">
<path d="M51.0696 6.63279C52.8312 7.64987 54.1124 9.44807 54.8629 11.9608C55.6155 14.4802 55.8152 17.6643 55.4384 21.3231C54.6852 28.6384 51.6465 37.6685 46.4628 46.6469C41.2791 55.6254 34.9781 62.772 29.0195 67.082C26.0393 69.2376 23.1819 70.6568 20.6238 71.2647C18.0724 71.8711 15.8746 71.6607 14.1129 70.6436C12.3513 69.6265 11.0702 67.8283 10.3196 65.3156C9.56704 62.7962 9.36736 59.6121 9.74411 55.9533C10.4974 48.638 13.536 39.6079 18.7197 30.6295C23.9034 21.651 30.2044 14.5044 36.163 10.1944C39.1433 8.03875 42.0006 6.61964 44.5588 6.01167C47.1101 5.40532 49.308 5.61572 51.0696 6.63279Z" fill="url(#paint4_linear_104_13272)" stroke="#FF7C51" stroke-width="1.92046"/>
</mask>
<g mask="url(#mask1_104_13272)">
<path d="M51.2997 6.23423C53.19 7.32559 54.5298 9.23749 55.3039 11.8291C56.0791 14.4241 56.2769 17.6729 55.8962 21.3703C55.1349 28.7638 52.0698 37.8558 46.8614 46.8771C41.653 55.8983 35.3116 63.0988 29.2893 67.4549C26.2776 69.6333 23.3651 71.0863 20.7302 71.7125C18.0988 72.3379 15.7731 72.1335 13.8828 71.0422C11.9925 69.9508 10.6527 68.0389 9.87863 65.4473C9.10346 62.8523 8.90559 59.6035 9.28631 55.9061C10.0476 48.5126 13.1127 39.4206 18.3211 30.3993C23.5295 21.3781 29.871 14.1776 35.8933 9.82155C38.9049 7.64314 41.8174 6.19013 44.4523 5.56391C47.0838 4.93854 49.4094 5.14286 51.2997 6.23423Z" fill="url(#paint5_linear_104_13272)" stroke="url(#paint6_linear_104_13272)"/>
<path d="M44.3347 15.251L24.8334 31.5152L27.5896 44.536L35.3702 30.9286L44.3347 15.251Z" fill="url(#paint7_linear_104_13272)"/>
<path d="M44.3339 15.251L43.5901 16.1055L30.0667 32.508L27.5597 44.1405L27.5889 44.5359L42.2478 39.4509L44.3339 15.251Z" fill="url(#paint8_linear_104_13272)"/>
<path d="M27.59 44.5363L42.249 39.4512L30.0679 32.5083L27.59 44.5363Z" fill="url(#paint9_linear_104_13272)"/>
<path d="M24.8331 31.5149L27.5891 44.5358L30.0672 32.5078L24.8331 31.5149Z" fill="url(#paint10_linear_104_13272)"/>
<path d="M22.7759 58.9404L27.0544 47.3763L22.1211 36.4766L22.7759 58.9404Z" fill="url(#paint11_linear_104_13272)"/>
<path d="M27.0551 47.3762L25.1691 49.4272L22.7766 58.9402L41.1468 42.7995L27.0551 47.3762Z" fill="url(#paint12_linear_104_13272)"/>
<path d="M25.1691 49.4272L22.7766 58.9402L41.1468 42.7994L25.1691 49.4272Z" fill="url(#paint13_linear_104_13272)"/>
<path d="M22.7759 58.9404L25.1684 49.4275L22.1211 36.4766L22.7759 58.9404Z" fill="url(#paint14_linear_104_13272)"/>
</g>
<path d="M34.0216 4.33311C34.1859 3.88896 34.8141 3.88896 34.9784 4.33311C35.7822 6.50522 37.4948 8.21781 39.6669 9.02156C40.111 9.18591 40.111 9.81409 39.6669 9.97844C37.4948 10.7822 35.7822 12.4948 34.9784 14.6669C34.8141 15.111 34.1859 15.111 34.0216 14.6669C33.2178 12.4948 31.5052 10.7822 29.3331 9.97844C28.889 9.81409 28.889 9.18591 29.3331 9.02156C31.5052 8.21781 33.2178 6.50522 34.0216 4.33311Z" fill="url(#paint15_linear_104_13272)"/>
<mask id="mask2_104_13272" style="mask-type:alpha" maskUnits="userSpaceOnUse" x="45" y="28" width="51" height="72">
<path d="M58.4571 32.6943L58.6415 33.0137L58.9923 33.1275C62.7738 34.3548 67.0788 37.2031 71.385 41.3885C75.6808 45.5636 79.9311 51.024 83.6135 57.402C87.2958 63.78 89.8995 70.191 91.3674 75.9989C92.8388 81.8209 93.1531 86.9732 92.3252 90.8618L92.2484 91.2225L92.4328 91.5419L93.9232 94.1233L88.2661 97.3894L88.2603 97.3928L88.2202 97.4161C86.4586 98.4332 84.2608 98.6436 81.7094 98.0373C79.1513 97.4293 76.2939 96.0102 73.3136 93.8545C67.3551 89.5445 61.0541 82.3979 55.8704 73.4195C50.6867 64.4411 47.648 55.4109 46.8947 48.0957C46.518 44.4368 46.7176 41.2527 47.4702 38.7333C48.2207 36.2205 49.5018 34.4223 51.2634 33.4052C51.2634 33.4052 51.2634 33.4052 51.2634 33.4052L56.9665 30.1125L58.4571 32.6943Z" fill="url(#paint16_linear_104_13272)" stroke="url(#paint17_linear_104_13272)" stroke-width="1.92046"/>
</mask>
<g mask="url(#mask2_104_13272)">
<path d="M58.8557 32.4644L58.9517 32.6307L59.1343 32.69C63.0071 33.9469 67.3711 36.8457 71.7058 41.0587C76.0351 45.2664 80.3107 50.7613 84.012 57.1721C87.7133 63.583 90.3342 70.0332 91.8136 75.8864C93.2948 81.7468 93.6232 86.9756 92.7753 90.9579L92.7354 91.1457L92.8314 91.312L94.5519 94.292L88.4963 97.7882L88.4932 97.79L88.4504 97.815C86.5601 98.9063 84.2344 99.1106 81.603 98.4853C78.968 97.859 76.0556 96.406 73.0439 94.2276C67.0216 89.8716 60.6802 82.671 55.4718 73.6498C50.2634 64.6287 47.1983 55.5366 46.4369 48.1431C46.0562 44.4457 46.254 41.1969 47.0292 38.6018C47.8033 36.0102 49.143 34.0983 51.0333 33.0069L57.135 29.4841L58.8557 32.4644Z" fill="url(#paint18_linear_104_13272)" stroke="url(#paint19_linear_104_13272)"/>
</g>
<mask id="mask3_104_13272" style="mask-type:alpha" maskUnits="userSpaceOnUse" x="52" y="27" width="49" height="69">
<path d="M57.7986 29.6328C56.0369 30.6499 54.7558 32.4481 54.0052 34.9608C53.2527 37.4802 53.053 40.6643 53.4297 44.3231C54.183 51.6384 57.2216 60.6685 62.4054 69.6469C67.5891 78.6254 73.8901 85.772 79.8486 90.082C82.8289 92.2376 85.6862 93.6568 88.2444 94.2647C90.7958 94.8711 92.9936 94.6607 94.7552 93.6436C96.5169 92.6265 97.798 90.8283 98.5486 88.3156C99.3011 85.7962 99.5008 82.6121 99.124 78.9533C98.3708 71.638 95.3322 62.6079 90.1484 53.6295C84.9647 44.651 78.6637 37.5044 72.7052 33.1944C69.7249 31.0388 66.8676 29.6196 64.3094 29.0117C61.758 28.4053 59.5602 28.6157 57.7986 29.6328Z" fill="url(#paint20_linear_104_13272)" stroke="#FF7C51" stroke-width="1.92046"/>
</mask>
<g mask="url(#mask3_104_13272)">
<path d="M57.5684 29.2342C55.6782 30.3256 54.3384 32.2375 53.5643 34.8291C52.7891 37.4241 52.5912 40.6729 52.9719 44.3703C53.7332 51.7638 56.7984 60.8558 62.0068 69.8771C67.2152 78.8983 73.5566 86.0988 79.5789 90.4549C82.5906 92.6333 85.503 94.0863 88.138 94.7125C90.7694 95.3379 93.0951 95.1335 94.9853 94.0422C96.8756 92.9508 98.2154 91.0389 98.9895 88.4473C99.7647 85.8523 99.9626 82.6035 99.5819 78.9061C98.8206 71.5126 95.7554 62.4206 90.547 53.3993C85.3386 44.3781 78.9972 37.1776 72.9749 32.8215C69.9632 30.6431 67.0508 29.1901 64.4158 28.5639C61.7844 27.9385 59.4587 28.1429 57.5684 29.2342Z" fill="url(#paint21_linear_104_13272)" stroke="url(#paint22_linear_104_13272)"/>
<path d="M64.5335 38.4742L84.0348 54.7383L81.2786 67.7591L73.4979 54.1518L64.5335 38.4742Z" fill="url(#paint23_linear_104_13272)"/>
<path d="M64.5342 38.4742L65.2781 39.3287L78.8014 55.7312L81.3085 67.3637L81.2793 67.759L66.6203 62.674L64.5342 38.4742Z" fill="url(#paint24_linear_104_13272)"/>
<path d="M81.2781 67.7594L66.6191 62.6743L78.8003 55.7314L81.2781 67.7594Z" fill="url(#paint25_linear_104_13272)"/>
<path d="M84.035 54.738L81.2791 67.7589L78.801 55.731L84.035 54.738Z" fill="url(#paint26_linear_104_13272)"/>
<path d="M86.0923 82.1636L81.8138 70.5994L86.7471 59.6997L86.0923 82.1636Z" fill="url(#paint27_linear_104_13272)"/>
<path d="M81.8131 70.5993L83.699 72.6504L86.0916 82.1633L67.7214 66.0226L81.8131 70.5993Z" fill="url(#paint28_linear_104_13272)"/>
<path d="M83.699 72.6504L86.0916 82.1633L67.7214 66.0226L83.699 72.6504Z" fill="url(#paint29_linear_104_13272)"/>
<path d="M86.0923 82.1636L83.6997 72.6506L86.7471 59.6997L86.0923 82.1636Z" fill="url(#paint30_linear_104_13272)"/>
</g>
</g>
<defs>
<linearGradient id="paint0_linear_104_13272" x1="17.2121" y1="74.0595" x2="8.83936" y2="16.62" gradientUnits="userSpaceOnUse">
<stop stop-color="#FF7C51"/>
<stop offset="0.163935" stop-color="#EB6474"/>
<stop offset="0.65444" stop-color="#FFBF65"/>
<stop offset="1" stop-color="#EBECD9"/>
</linearGradient>
<linearGradient id="paint1_linear_104_13272" x1="61.016" y1="11.2254" x2="24.9109" y2="77.5636" gradientUnits="userSpaceOnUse">
<stop stop-color="#EDE9D1"/>
<stop offset="0.360529" stop-color="#FF7C51"/>
<stop offset="0.711797" stop-color="#ED6771"/>
<stop offset="1" stop-color="#FD7A56"/>
</linearGradient>
<linearGradient id="paint2_linear_104_13272" x1="57.9736" y1="10.2041" x2="69.4943" y2="65.3786" gradientUnits="userSpaceOnUse">
<stop stop-color="#F4DDFF"/>
<stop offset="0.3" stop-color="#C8D0FF"/>
<stop offset="0.655" stop-color="#45ACF4"/>
<stop offset="1" stop-color="#0687FF"/>
</linearGradient>
<linearGradient id="paint3_linear_104_13272" x1="58.3544" y1="7.91509" x2="40.6603" y2="78.0196" gradientUnits="userSpaceOnUse">
<stop stop-color="#9787FF"/>
<stop offset="0.455" stop-color="#CEB2FF"/>
<stop offset="1" stop-color="#098BFF"/>
</linearGradient>
<linearGradient id="paint4_linear_104_13272" x1="32.0257" y1="68.4999" x2="25.4387" y2="12.0105" gradientUnits="userSpaceOnUse">
<stop stop-color="#FFE0EA"/>
<stop offset="0.225" stop-color="#FFD6C1"/>
<stop offset="0.735" stop-color="#FFBF65"/>
<stop offset="1" stop-color="#FF7B50"/>
</linearGradient>
<linearGradient id="paint5_linear_104_13272" x1="32.0257" y1="68.4999" x2="49.5591" y2="8.48242" gradientUnits="userSpaceOnUse">
<stop stop-color="#F4DDFF"/>
<stop offset="0.225" stop-color="#C7CEF3"/>
<stop offset="0.69" stop-color="#45ACF4"/>
<stop offset="1" stop-color="#0687FF"/>
</linearGradient>
<linearGradient id="paint6_linear_104_13272" x1="18.4324" y1="68.9138" x2="48.3298" y2="4.63659" gradientUnits="userSpaceOnUse">
<stop stop-color="#9787FF"/>
<stop offset="0.443347" stop-color="#CEB2FF"/>
<stop offset="1" stop-color="#0689FF"/>
</linearGradient>
<linearGradient id="paint7_linear_104_13272" x1="43.3097" y1="16.4788" x2="26.9382" y2="33.153" gradientUnits="userSpaceOnUse">
<stop stop-color="#6ABDFF"/>
<stop offset="1" stop-color="#E7D9FC"/>
</linearGradient>
<linearGradient id="paint8_linear_104_13272" x1="44.1143" y1="17.2648" x2="32.2863" y2="39.1929" gradientUnits="userSpaceOnUse">
<stop stop-color="#1271DF"/>
<stop offset="1" stop-color="#B594FF"/>
</linearGradient>
<linearGradient id="paint9_linear_104_13272" x1="35.6731" y1="33.4011" x2="29.533" y2="45.0262" gradientUnits="userSpaceOnUse">
<stop stop-color="#6169E8"/>
<stop offset="1" stop-color="#AB9CF3"/>
</linearGradient>
<linearGradient id="paint10_linear_104_13272" x1="28.384" y1="32.1604" x2="25.1236" y2="44.0521" gradientUnits="userSpaceOnUse">
<stop stop-color="#7F85FF"/>
<stop offset="1" stop-color="#F4DEFF"/>
</linearGradient>
<linearGradient id="paint11_linear_104_13272" x1="25.4955" y1="41.4947" x2="21.9657" y2="59.0521" gradientUnits="userSpaceOnUse">
<stop stop-color="#7F85FF"/>
<stop offset="1" stop-color="#F4DEFF"/>
</linearGradient>
<linearGradient id="paint12_linear_104_13272" x1="38.1719" y1="43.5655" x2="25.5915" y2="51.2101" gradientUnits="userSpaceOnUse">
<stop stop-color="#474DBF"/>
<stop offset="1" stop-color="#755FE1"/>
</linearGradient>
<linearGradient id="paint13_linear_104_13272" x1="37.602" y1="42.9167" x2="26.2646" y2="59.821" gradientUnits="userSpaceOnUse">
<stop stop-color="#6F72EB"/>
<stop offset="1" stop-color="#D9C2F5"/>
</linearGradient>
<linearGradient id="paint14_linear_104_13272" x1="25.5662" y1="39.5237" x2="21.4409" y2="58.9627" gradientUnits="userSpaceOnUse">
<stop stop-color="#A2A6FF"/>
<stop offset="1" stop-color="#F4DDFF"/>
</linearGradient>
<linearGradient id="paint15_linear_104_13272" x1="34.4998" y1="3.04054" x2="34.4998" y2="15.9603" gradientUnits="userSpaceOnUse">
<stop stop-color="white"/>
<stop offset="0.755" stop-color="#E3FDFF"/>
</linearGradient>
<linearGradient id="paint16_linear_104_13272" x1="91.656" y1="97.0595" x2="100.029" y2="39.62" gradientUnits="userSpaceOnUse">
<stop stop-color="#FF7C51"/>
<stop offset="0.163935" stop-color="#EB6474"/>
<stop offset="0.65444" stop-color="#FFBF65"/>
<stop offset="1" stop-color="#EBECD9"/>
</linearGradient>
<linearGradient id="paint17_linear_104_13272" x1="47.8521" y1="34.2254" x2="83.9572" y2="100.564" gradientUnits="userSpaceOnUse">
<stop stop-color="#EDE9D1"/>
<stop offset="0.360529" stop-color="#FF7C51"/>
<stop offset="0.711797" stop-color="#ED6771"/>
<stop offset="1" stop-color="#FD7A56"/>
</linearGradient>
<linearGradient id="paint18_linear_104_13272" x1="50.8946" y1="33.2041" x2="39.3739" y2="88.3786" gradientUnits="userSpaceOnUse">
<stop stop-color="#F4DDFF"/>
<stop offset="0.3" stop-color="#C8D0FF"/>
<stop offset="0.655" stop-color="#45ACF4"/>
<stop offset="1" stop-color="#0687FF"/>
</linearGradient>
<linearGradient id="paint19_linear_104_13272" x1="50.5138" y1="30.9151" x2="68.2079" y2="101.02" gradientUnits="userSpaceOnUse">
<stop stop-color="#9787FF"/>
<stop offset="0.455" stop-color="#CEB2FF"/>
<stop offset="1" stop-color="#098BFF"/>
</linearGradient>
<linearGradient id="paint20_linear_104_13272" x1="76.8424" y1="91.4999" x2="83.4294" y2="35.0105" gradientUnits="userSpaceOnUse">
<stop stop-color="#FFE0EA"/>
<stop offset="0.225" stop-color="#FFD6C1"/>
<stop offset="0.735" stop-color="#FFBF65"/>
<stop offset="1" stop-color="#FF7B50"/>
</linearGradient>
<linearGradient id="paint21_linear_104_13272" x1="76.8424" y1="91.4999" x2="59.309" y2="31.4824" gradientUnits="userSpaceOnUse">
<stop stop-color="#F4DDFF"/>
<stop offset="0.225" stop-color="#C7CEF3"/>
<stop offset="0.69" stop-color="#45ACF4"/>
<stop offset="1" stop-color="#0687FF"/>
</linearGradient>
<linearGradient id="paint22_linear_104_13272" x1="90.4358" y1="91.9138" x2="60.5384" y2="27.6366" gradientUnits="userSpaceOnUse">
<stop stop-color="#9787FF"/>
<stop offset="0.443347" stop-color="#CEB2FF"/>
<stop offset="1" stop-color="#0689FF"/>
</linearGradient>
<linearGradient id="paint23_linear_104_13272" x1="65.5584" y1="39.7019" x2="81.93" y2="56.3761" gradientUnits="userSpaceOnUse">
<stop stop-color="#6ABDFF"/>
<stop offset="1" stop-color="#E7D9FC"/>
</linearGradient>
<linearGradient id="paint24_linear_104_13272" x1="64.7539" y1="40.488" x2="76.5819" y2="62.416" gradientUnits="userSpaceOnUse">
<stop stop-color="#1271DF"/>
<stop offset="1" stop-color="#B594FF"/>
</linearGradient>
<linearGradient id="paint25_linear_104_13272" x1="73.1951" y1="56.6242" x2="79.3352" y2="68.2493" gradientUnits="userSpaceOnUse">
<stop stop-color="#6169E8"/>
<stop offset="1" stop-color="#AB9CF3"/>
</linearGradient>
<linearGradient id="paint26_linear_104_13272" x1="80.4842" y1="55.3835" x2="83.7446" y2="67.2753" gradientUnits="userSpaceOnUse">
<stop stop-color="#7F85FF"/>
<stop offset="1" stop-color="#F4DEFF"/>
</linearGradient>
<linearGradient id="paint27_linear_104_13272" x1="83.3726" y1="64.7178" x2="86.9025" y2="82.2753" gradientUnits="userSpaceOnUse">
<stop stop-color="#7F85FF"/>
<stop offset="1" stop-color="#F4DEFF"/>
</linearGradient>
<linearGradient id="paint28_linear_104_13272" x1="70.6963" y1="66.7887" x2="83.2767" y2="74.4333" gradientUnits="userSpaceOnUse">
<stop stop-color="#474DBF"/>
<stop offset="1" stop-color="#755FE1"/>
</linearGradient>
<linearGradient id="paint29_linear_104_13272" x1="71.2661" y1="66.1398" x2="82.6036" y2="83.0442" gradientUnits="userSpaceOnUse">
<stop stop-color="#6F72EB"/>
<stop offset="1" stop-color="#D9C2F5"/>
</linearGradient>
<linearGradient id="paint30_linear_104_13272" x1="83.302" y1="62.7468" x2="87.4273" y2="82.1859" gradientUnits="userSpaceOnUse">
<stop stop-color="#A2A6FF"/>
<stop offset="1" stop-color="#F4DDFF"/>
</linearGradient>
<clipPath id="clip0_104_13272">
<rect width="104" height="104" fill="white" transform="matrix(-1 -8.74228e-08 -8.74228e-08 1 104 0)"/>
</clipPath>
</defs>
</svg>
