<svg width="170" height="150" viewBox="0 0 170 150" fill="none" xmlns="http://www.w3.org/2000/svg">
<g clip-path="url(#clip0_1023_39619)">
<path d="M159.788 74.8099C160.457 73.6193 160.586 72.1841 160.135 70.7682C159.634 69.1785 158.437 67.7497 156.912 66.868C157.195 66.3596 157.324 65.8769 157.375 65.51C157.562 64.1714 157.047 62.7619 155.928 61.5391C154.583 60.0781 152.512 59.2479 149.932 59.1321C149.398 59.1063 148.831 59.1127 148.252 59.1514C145.306 59.338 142.514 60.239 140.693 60.9599C139.869 61.2816 139.091 61.7064 138.357 62.2148C137.373 60.6252 136.061 59.1835 134.594 58.0894C132.644 56.6349 130.45 55.8176 128.244 55.721C127.871 55.7017 127.497 55.7082 127.131 55.7339C125.542 55.8369 123.946 56.3067 122.389 57.1369C122.074 57.0018 121.752 56.8731 121.43 56.7636C119.314 55.1868 117.036 54.1249 114.656 53.5907C114.218 50.9649 112.623 46.7172 110.532 43.7696C105.501 36.6515 99.7169 31.123 93.3411 27.3323C88.1942 24.2752 82.6162 22.3187 76.7745 21.5271C75.4491 21.3469 74.1045 21.2246 72.7727 21.1667C68.0761 20.9543 63.4503 21.5014 59.0304 22.7821C54.6555 24.05 50.5895 26.0065 46.9351 28.5937C39.3177 33.9999 34.0421 41.7294 31.6745 50.9585C31.0054 53.5714 29.5192 60.3034 29.9117 67.2863C26.9908 68.9146 24.5396 71.5662 22.8025 74.9837C20.2869 79.92 19.4763 86.0084 20.5185 92.1289C20.4478 94.6196 20.6794 97.1747 21.2069 99.7361C20.8466 99.601 20.525 99.4851 20.2226 99.395C19.888 99.2985 19.5663 99.2406 19.2575 99.2277C18.9873 99.2148 18.7171 99.2341 18.4726 99.2856C17.5462 99.4787 16.8127 100.103 16.4524 100.991C16.3366 101.281 16.2594 101.596 16.2273 101.931C16.1758 101.931 16.1308 101.931 16.0793 101.924C15.5453 101.899 15.0177 101.944 14.5223 102.047C11.9231 102.587 10.5142 104.75 11.016 107.433C11.1704 108.238 11.5307 108.952 12.0969 109.57C10.6557 109.924 9.67137 110.568 9.09234 111.533C8.24953 112.93 8.23666 114.571 9.0473 116.032C10.3919 118.452 13.6795 120.009 17.8421 120.196C18.0287 120.202 18.2088 120.209 18.3954 120.215C19.4184 120.228 20.4606 120.125 21.5801 119.893C23.6774 119.456 25.6204 118.651 27.1838 118.008C28.1167 117.621 28.9466 117.28 29.5642 117.113C29.204 117.834 28.2389 119.005 27.7693 119.572C26.3152 121.335 24.9449 123.002 25.228 124.855C25.3631 125.756 25.8842 126.522 26.7334 127.069C27.7242 127.719 28.8823 128.086 30.0725 128.144C30.6065 128.17 31.1469 128.131 31.6745 128.028H31.7453L31.8418 127.996C33.5596 127.623 35.985 126.452 38.1725 123.047C40.8296 124.347 43.5253 125.068 46.1953 125.19C47.2633 125.235 48.3248 125.19 49.3542 125.036C49.515 125.01 49.6759 124.984 49.8367 124.958L49.9461 124.939C50.0619 124.92 50.1713 124.894 50.2871 124.875C50.3514 124.862 50.4157 124.849 50.4865 124.83C50.5637 124.81 50.6409 124.798 50.7117 124.778C50.8018 124.759 50.8918 124.733 50.9819 124.714L51.072 124.688C51.844 124.489 52.5903 124.231 53.3045 123.929C53.8835 123.678 55.3118 123.008 56.9845 122.172C61.9513 124.302 67.2205 125.505 72.6505 125.744C84.6107 126.278 96.069 122.12 104.902 114.03C106.202 112.84 107.45 111.559 108.615 110.214C109.843 110.787 111.201 111.211 112.668 111.488C113.633 111.668 114.624 111.784 115.614 111.829C120.961 112.067 126.52 110.349 131.686 106.861C134.279 105.11 136.653 102.986 138.743 100.547C139.567 100.772 140.307 100.895 140.995 100.927C141.246 100.94 141.497 100.933 141.735 100.927C145.679 100.676 146.644 97.1618 147.493 94.0597C147.641 93.5126 147.892 93.0943 148.297 92.7403L148.896 92.3091C149.378 92.0131 149.97 91.7556 150.626 91.4596C152.756 90.5135 155.67 89.2199 157.884 85.3905C158.392 84.5088 158.804 83.6078 159.1 82.7132C160.573 81.5933 161.454 80.2032 161.577 78.7744C161.667 77.7254 161.416 76.2451 159.807 74.8356L159.788 74.8099ZM76.62 36.1237C64.6599 35.5895 53.2015 39.7471 44.3681 47.837C43.1264 48.9762 41.9426 50.1797 40.836 51.454C41.8397 48.0173 43.5317 44.8315 45.8092 42.1155C48.7237 38.6402 52.5453 35.9628 56.5728 34.5727C58.6508 33.8583 62.955 32.6998 68.475 32.9444C72.4961 33.1246 76.4013 34.0192 80.0814 35.596C80.9177 35.9564 81.7541 36.3554 82.5712 36.793C80.6089 36.4455 78.6209 36.2203 76.6136 36.1302L76.62 36.1237ZM120.581 98.2816C119.05 98.6742 117.635 98.893 116.296 98.9381C116.374 98.9252 116.457 98.9123 116.534 98.8995C120.755 98.1529 124.474 95.688 127.144 91.8908C127.343 92.3155 127.581 92.7467 127.871 93.178C126.327 95.585 124.48 97.2841 120.581 98.2816Z" fill="#390176"/>
<path d="M158.675 74.9776C159.556 73.8964 159.813 72.4805 159.35 71.0131C158.861 69.4749 157.523 67.911 155.657 67.1709C156.256 66.553 156.481 65.8966 156.552 65.3946C156.706 64.3069 156.262 63.1356 155.31 62.0994C153.843 60.5097 151.417 59.776 148.291 59.9755C145.453 60.1557 142.745 61.031 140.982 61.7325C139.933 62.1444 138.962 62.7237 138.093 63.4381C137.141 61.6553 135.7 59.9627 134.085 58.7592C131.949 57.1695 129.556 56.4101 127.163 56.5581C125.561 56.6611 123.971 57.1631 122.408 58.0576C121.958 57.8453 121.494 57.6586 121.025 57.5042C118.863 55.8759 116.444 54.756 113.903 54.2798C113.665 52.0208 112.082 47.4127 109.843 44.2398C104.883 37.2182 99.1825 31.767 92.9033 28.0342C87.8529 25.0351 82.3778 23.1172 76.6454 22.3384C75.3458 22.1646 74.0205 22.0424 72.7209 21.9844C68.1144 21.7785 63.5787 22.3127 59.2424 23.5677C54.9575 24.8098 50.9687 26.7213 47.398 29.2634C39.9414 34.5537 34.7751 42.1224 32.459 51.1584C31.7384 53.9773 30.2651 60.78 30.7541 67.7565C27.7882 69.269 25.2919 71.8691 23.5227 75.3509C21.0714 80.1585 20.2994 86.0924 21.3288 92.0649C21.2516 94.6264 21.5025 97.278 22.0751 99.936C22.1523 100.303 22.2359 100.657 22.326 101.011C21.8756 100.863 21.4639 100.708 21.0972 100.567C20.6725 100.406 20.3058 100.271 19.9777 100.174C19.4823 100.033 19.0255 100 18.6202 100.084C17.964 100.219 17.4557 100.65 17.1984 101.294C17.0054 101.777 16.9668 102.33 17.044 102.871C16.2333 102.697 15.4227 102.691 14.6764 102.845C12.5147 103.296 11.3888 105.033 11.8134 107.273C12.0579 108.567 12.965 109.461 14.1488 110.085C13.5955 110.124 13.0615 110.188 12.5726 110.291C11.1958 110.575 10.2822 111.122 9.78036 111.945C9.08552 113.097 9.07265 114.404 9.74819 115.62C11.0028 117.879 14.3097 119.315 18.3886 119.379C19.3472 119.392 20.3316 119.295 21.3931 119.07C23.4133 118.652 25.3177 117.86 26.8489 117.229C27.9619 116.766 28.9205 116.373 29.6346 116.225C30.3552 116.077 30.4067 116.225 30.4646 116.399C30.7412 117.21 29.4352 118.8 28.3801 120.08C27.0483 121.702 25.7873 123.228 26.0125 124.721C26.1154 125.39 26.5014 125.95 27.1512 126.375C28.4508 127.224 30.0271 127.514 31.5776 127.192C33.1153 126.87 35.6244 125.744 37.8376 121.96C40.5333 123.388 43.3705 124.232 46.2013 124.36C47.2178 124.405 48.2279 124.36 49.2058 124.212C49.3603 124.193 49.5147 124.167 49.6626 124.135C49.7012 124.135 49.7334 124.122 49.772 124.116C49.8814 124.096 49.9843 124.077 50.0937 124.051C50.158 124.038 50.2159 124.026 50.2803 124.013C50.351 123.993 50.4282 123.981 50.499 123.961C50.5826 123.942 50.6727 123.923 50.7564 123.897C50.7821 123.89 50.8078 123.884 50.84 123.878C51.5606 123.691 52.2683 123.446 52.9502 123.157C53.5614 122.893 55.1506 122.14 56.9262 121.245C61.8673 123.414 67.1879 124.663 72.6566 124.907C84.398 125.429 95.644 121.348 104.317 113.413C105.771 112.081 107.122 110.665 108.37 109.178C109.663 109.854 111.143 110.356 112.783 110.665C113.71 110.838 114.662 110.948 115.621 110.993C120.787 111.225 126.178 109.551 131.196 106.16C133.879 104.351 136.337 102.105 138.434 99.5885C139.682 99.9746 140.744 100.142 141.651 100.084C145.01 99.8717 145.852 96.7953 146.663 93.8219C146.895 92.9853 147.313 92.4125 147.885 91.9555H147.905V91.9426C148.522 91.4535 149.32 91.0995 150.253 90.6876C152.389 89.7416 155.052 88.5574 157.131 84.9597C157.677 84.0136 158.076 83.0933 158.359 82.1858C159.755 81.1947 160.611 79.959 160.721 78.6783C160.811 77.6807 160.489 76.2841 158.662 74.9841L158.675 74.9776ZM56.3086 33.7943C58.4382 33.0606 62.8581 31.87 68.5197 32.121C72.6372 32.3076 76.639 33.2215 80.4156 34.8369C82.796 35.8602 85.0864 37.1667 87.2738 38.75C83.8318 37.7202 80.2547 37.1152 76.5875 36.9543C64.8461 36.433 53.6 40.5134 44.9275 48.4488C42.8237 50.3732 40.9386 52.4648 39.2723 54.6981C40.0314 49.8197 42.058 45.3081 45.1784 41.5817C48.1829 37.9905 52.1396 35.2231 56.3086 33.7879V33.7943ZM115.106 98.2627C115.537 98.2241 115.968 98.1726 116.393 98.0954C120.928 97.2909 124.814 94.4205 127.407 89.9733C127.568 91.0352 128.095 92.1164 128.867 93.159C127.291 95.7527 125.387 97.9152 120.793 99.0865C118.689 99.6271 116.791 99.8459 114.99 99.7687C114.81 99.7623 114.63 99.7494 114.45 99.7365C114.681 99.2538 114.894 98.7647 115.106 98.2691V98.2627Z" fill="#390176"/>
<path d="M25.1061 105.516C24.8359 105.574 24.5464 105.613 24.2376 105.632C21.3682 105.831 19.882 105.503 18.235 105.059L17.9133 104.975L17.7267 104.705C17.1348 103.843 16.7617 102.395 17.1992 101.301C17.4565 100.657 17.9648 100.226 18.621 100.091C19.0263 100.007 19.4831 100.039 19.9785 100.181C20.3002 100.277 20.6734 100.412 21.098 100.573C22.6549 101.159 25.0032 102.047 27.6281 101.571L29.8285 101.172L28.5224 102.987C27.6796 104.158 26.8368 105.156 25.1061 105.51V105.516Z" fill="#390176"/>
<path d="M27.7891 102.466C26.9141 103.675 26.1357 104.602 24.1798 104.737C21.5163 104.924 20.1266 104.641 18.4732 104.197C17.8491 103.289 17.6368 101.7 18.4153 101.146C18.7048 100.94 19.1358 100.876 19.7342 101.05C21.1882 101.474 24.212 103.109 27.7956 102.466H27.7891Z" fill="white"/>
<g style="mix-blend-mode:multiply" opacity="0.6">
<path d="M27.789 102.465C26.914 103.675 26.1355 104.602 24.1797 104.737C21.5162 104.923 20.1265 104.64 18.4731 104.196C17.849 103.289 17.6367 101.699 18.4151 101.146C18.769 101.834 20.0622 104.795 27.789 102.465Z" fill="#AFA5BE"/>
</g>
<path d="M31.5846 127.192C30.0276 127.514 28.4578 127.224 27.1582 126.375C26.502 125.95 26.1224 125.39 26.0194 124.721C25.7943 123.234 27.0488 121.702 28.387 120.08C29.4422 118.8 30.7482 117.21 30.4715 116.399C30.4136 116.225 30.3622 116.077 29.6416 116.225C28.921 116.373 27.9688 116.772 26.8558 117.229C25.3246 117.86 23.4202 118.652 21.4001 119.07C20.3385 119.289 19.3542 119.392 18.3956 119.379C14.3166 119.321 11.0097 117.879 9.75515 115.62C9.07961 114.404 9.09248 113.097 9.78731 111.945C10.2891 111.115 11.2027 110.574 12.5795 110.291C13.0685 110.188 13.6025 110.124 14.1558 110.085C12.972 109.461 12.0648 108.56 11.8204 107.273C11.3957 105.027 12.5216 103.289 14.6833 102.845C15.539 102.665 16.4848 102.71 17.4112 102.961C17.6235 103.019 17.823 103.077 18.0224 103.128C18.2604 103.192 18.4921 103.257 18.7172 103.315C20.2485 103.727 21.5352 104.01 24.1279 103.83C24.3531 103.817 24.559 103.785 24.752 103.746C25.8586 103.514 26.3669 102.909 27.0681 101.931L27.2483 101.68C27.8402 100.856 28.5093 99.9166 29.6223 98.9898C30.9669 97.8636 32.0993 97.2521 33.2959 97.0076C34.7757 96.6987 36.3583 96.9497 38.7645 97.8636C41.1193 98.7581 42.7984 99.6206 44.0659 100.58C45.848 101.937 46.7487 103.501 46.7358 105.226C46.7358 106.179 46.9803 106.932 47.2055 107.595C47.4693 108.393 47.7202 109.146 47.302 109.873C46.8967 110.581 46.0281 110.838 45.3269 110.986C45.166 111.019 44.9923 111.051 44.8057 111.083C44.7607 111.089 44.7157 111.096 44.6706 111.109C42.258 111.611 40.5081 115.434 40.032 116.869C37.5357 124.849 33.6755 126.761 31.591 127.192H31.5846Z" fill="#390176"/>
<path d="M44.6582 110.189C43.9955 110.292 43.3843 110.581 42.8374 110.974C40.4377 112.712 39.1703 116.58 39.1703 116.58C36.185 126.124 30.8065 127.675 27.6476 125.616C26.7018 124.998 26.7404 124.155 27.2294 123.202C28.3746 120.963 32.0032 118.105 31.3212 116.11C30.3497 113.265 24.6559 118.575 18.4024 118.478C12.1489 118.388 8.9835 115.016 10.5533 112.416C10.7463 112.094 11.0294 111.849 11.3897 111.65C13.8988 110.266 19.9272 111.463 21.838 110.652C21.883 110.633 21.928 110.607 21.9731 110.588C21.9731 110.588 13.397 110.839 12.6957 107.112C12.5478 106.34 12.6185 105.703 12.8501 105.201C13.4999 103.753 15.4236 103.36 17.1671 103.837C17.6368 103.965 18.0614 104.081 18.4732 104.197C20.1266 104.641 21.5098 104.924 24.1798 104.738C26.1357 104.602 26.9206 103.676 27.7891 102.466C28.4003 101.623 29.0565 100.638 30.1889 99.6855C32.9425 97.3878 34.7825 97.317 38.4368 98.7072C42.0976 100.097 45.842 102.06 45.8227 105.22C45.8034 108.38 48.2289 109.635 44.6517 110.189H44.6582Z" fill="white"/>
<g style="mix-blend-mode:multiply" opacity="0.6">
<path d="M21.8308 110.658C21.8758 110.639 21.9209 110.613 21.9659 110.594C21.9659 110.594 13.3898 110.845 12.6886 107.118C12.5406 106.346 12.6114 105.709 12.843 105.207C13.3834 106.61 15.2299 110.472 26.2379 109.918C26.2379 109.918 24.4943 110.459 21.8244 110.665L21.8308 110.658Z" fill="#AFA5BE"/>
</g>
<g style="mix-blend-mode:multiply" opacity="0.6">
<path d="M42.8368 110.98C40.4371 112.717 39.1696 116.585 39.1696 116.585C36.1844 126.13 30.8059 127.681 27.6469 125.621C26.7012 125.003 26.7398 124.16 27.2288 123.208C27.5311 124.553 30.4199 126.902 33.6689 123.948C36.9179 120.994 38.0695 114.133 38.0695 114.133L40.7523 108.83L42.8368 110.98Z" fill="#AFA5BE"/>
</g>
<path d="M19.354 110.967C22.6223 110.967 24.3916 110.6 26.2445 109.905C26.2445 109.905 21.8825 110.935 19.0774 110.459L19.354 110.967Z" fill="#390176"/>
<g style="mix-blend-mode:multiply" opacity="0.6">
<path d="M31.3212 116.115C30.3497 113.271 24.6559 118.58 18.4024 118.484C12.1489 118.394 8.9835 115.021 10.5533 112.421C10.7463 112.099 11.0294 111.855 11.3897 111.655C10.8943 113.58 12.2132 117.1 18.3574 116.643C24.5015 116.186 26.8627 114.3 28.5547 114.352C30.2468 114.403 31.3019 115.201 31.3212 116.115Z" fill="#AFA5BE"/>
</g>
<path d="M39.6526 111.965C35.49 111.778 31.3532 109.686 28.0012 106.069C24.6557 102.459 22.2946 97.5225 21.3488 92.1743C20.2873 86.1631 21.0593 80.1906 23.5234 75.3573C26.0261 70.4467 29.9699 67.2866 34.6343 66.4628C35.6187 66.2891 36.6223 66.2247 37.626 66.2698C41.7886 66.4564 45.9254 68.5481 49.2774 72.1651C52.6229 75.7756 54.984 80.7119 55.9298 86.0602C56.9913 92.0713 56.2193 98.0438 53.7552 102.877C51.2525 107.788 47.3087 110.948 42.6443 111.772C41.6599 111.945 40.6562 112.01 39.6526 111.965Z" fill="#390176"/>
<path d="M42.499 110.955C51.5997 109.345 57.248 98.2592 55.1148 86.1942C52.9817 74.1293 43.8749 65.6541 34.7742 67.2642C25.6736 68.8744 20.0253 79.9602 22.1584 92.0252C24.2916 104.09 33.3984 112.565 42.499 110.955Z" fill="#2B81BE"/>
<g style="mix-blend-mode:multiply" opacity="0.6">
<path d="M42.499 110.955C51.5997 109.345 57.248 98.2592 55.1148 86.1942C52.9817 74.1293 43.8749 65.6541 34.7742 67.2642C25.6736 68.8744 20.0253 79.9602 22.1584 92.0252C24.2916 104.09 33.3984 112.565 42.499 110.955Z" fill="#AFA5BE"/>
</g>
<g style="mix-blend-mode:multiply" opacity="0.6">
<path d="M24.8811 89.4007C23.5236 81.7098 25.325 74.4179 29.1723 69.7197C23.5171 73.9481 20.5126 82.6945 22.1596 92.0201C24.2892 104.087 33.3992 112.564 42.4964 110.948C45.7969 110.362 48.6406 108.535 50.828 105.864C49.1681 107.106 47.2831 107.955 45.2243 108.322C36.1207 109.931 27.017 101.455 24.8875 89.3943L24.8811 89.4007Z" fill="#AFA5BE"/>
</g>
<path d="M72.6711 124.907C64.2172 124.527 56.1108 121.76 49.2332 116.888C42.5358 112.145 37.3052 105.657 34.1077 98.1145C31.5278 92.0455 30.3762 85.6031 30.6721 78.9677C31.1932 67.2222 36.2565 56.3777 44.9355 48.4423C53.6081 40.5068 64.8542 36.42 76.5956 36.9478C85.8408 37.3597 94.5584 40.5905 101.803 46.2927C108.899 51.8726 114.046 59.3576 116.697 67.943C118.183 72.77 118.826 77.7964 118.595 82.8872C118.073 94.6327 113.01 105.477 104.331 113.413C95.6585 121.348 84.4125 125.435 72.6711 124.907Z" fill="#390176"/>
<path d="M117.77 82.8495C117.487 89.1567 115.872 95.0906 113.196 100.381C105.771 115.087 90.2275 124.863 72.7086 124.084C55.5372 123.318 41.1579 112.628 34.8594 97.7936C32.4146 92.0399 31.1922 85.662 31.4881 79.0072C31.6104 76.317 31.9706 73.6912 32.5561 71.1554C33.6563 66.3929 35.5349 61.9392 38.0569 57.9361C46.0604 45.2252 60.4718 37.0516 76.5495 37.766C79.8178 37.914 82.9832 38.416 86.007 39.2398C89.7063 40.2503 93.2062 41.7305 96.4295 43.6227C102.149 46.9758 107.013 51.5968 110.648 57.0866C112.9 60.4847 114.682 64.2176 115.904 68.1821C117.326 72.803 117.995 77.7394 117.77 82.843V82.8495Z" fill="url(#paint0_radial_1023_39619)"/>
<path d="M117.77 82.8485C117.454 89.8636 115.492 96.4089 112.262 102.13C109.451 107.118 105.674 111.482 101.203 114.976C93.3732 121.097 83.4074 124.56 72.7082 124.083C55.5368 123.317 41.1576 112.627 34.859 97.7926C61.7839 97.3614 91.4752 91.4726 115.254 68.7925C115.473 68.5865 115.685 68.3806 115.904 68.1875C117.326 72.8085 117.995 77.7448 117.77 82.8485Z" fill="url(#paint1_radial_1023_39619)"/>
<g style="mix-blend-mode:multiply">
<path d="M118.638 72.4479L119.243 71.888L116.457 68.8631L115.943 68.3032C115.93 68.2646 115.923 68.226 115.911 68.1873C114.688 64.2228 112.906 60.49 110.654 57.0919C107.019 51.602 102.155 46.9746 96.4359 43.628C93.2127 41.7358 89.7192 40.2556 86.0134 39.2451C91.1217 43.4992 95.6832 49.2143 97.8706 56.8537C97.8706 56.8537 93.1676 63.2124 92.1575 71.8172C91.8616 74.3079 91.7265 77.764 92.5886 81.4775C91.0188 82.327 89.4168 83.1444 87.7826 83.9167C86.2707 82.6874 84.3599 81.9151 82.2626 81.8186C77.4502 81.6062 73.3198 85.043 72.5413 89.6768C61.2695 92.972 48.8718 94.6839 34.7371 94.9092L33.9136 94.9221L34.0422 103.154L34.8658 103.141C49.7533 102.903 62.8651 101.081 74.8445 97.5737C76.4787 99.3757 78.8012 100.553 81.4197 100.669C86.6246 100.901 91.0316 96.8657 91.2633 91.6591C91.2633 91.5561 91.2633 91.4596 91.2633 91.3566C92.8331 90.6165 94.3771 89.8313 95.8955 89.0204C98.9643 93.474 104.246 97.6445 113.183 100.373C115.853 95.0765 117.474 89.1491 117.757 82.8419C117.892 79.7462 117.699 76.7085 117.21 73.7673C117.48 73.5163 117.751 73.2588 118.021 73.0078C118.227 72.8148 118.426 72.6281 118.626 72.4415L118.638 72.4479Z" fill="#AFA5BE"/>
</g>
<path d="M112.263 102.136C109.452 107.124 105.675 111.488 101.204 114.983C104.176 106.449 96.7323 96.1897 96.7323 96.1897L106.177 87.4111C113.093 95.6813 112.295 102.027 112.263 102.13V102.136Z" fill="#390176"/>
<g style="mix-blend-mode:multiply">
<path d="M44.1694 92.1679C41.7246 86.4143 40.5022 80.0363 40.7981 73.3816C41.3771 60.3489 47.6693 48.9252 57.1525 41.4209C42.651 47.8568 32.2478 62.0737 31.495 79.0065C31.1991 85.6677 32.4279 92.0457 34.8663 97.7929C41.1648 112.628 55.5441 123.318 72.7155 124.084C83.5176 124.566 93.567 121.033 101.429 114.809C95.5164 117.435 88.9219 118.768 82.025 118.459C64.8536 117.693 50.4743 107.003 44.1758 92.1679H44.1694Z" fill="#AFA5BE"/>
</g>
<path d="M33.9711 93.6934L34.7946 93.6805C49.9459 93.4359 63.0898 91.4859 74.9985 87.7144C81.8954 85.5262 88.432 82.6816 94.4089 79.2577C100.907 75.5377 106.961 71.0197 112.423 65.8131C112.661 65.5878 112.893 65.369 113.118 65.1566L113.723 64.5967L116.509 67.628L119.294 70.6529L118.69 71.2128C118.49 71.3994 118.291 71.5861 118.085 71.7791C112.153 77.4363 105.558 82.3598 98.4878 86.4015C92.0027 90.115 84.9321 93.1914 77.4755 95.5598C64.8012 99.5758 50.8852 101.655 34.9233 101.912L34.0997 101.925L33.9711 93.6934Z" fill="#390176"/>
<path d="M118.137 70.6088C117.938 70.7954 117.732 70.982 117.526 71.1815C111.639 76.7936 105.102 81.6785 98.0833 85.6881C91.6496 89.3694 84.6305 92.4264 77.2318 94.7756C64.6347 98.7722 50.7894 100.832 34.9112 101.089L34.8597 97.8004L34.8082 94.5117C50.0367 94.2671 63.2643 92.3042 75.2438 88.507C82.1986 86.2995 88.7867 83.4355 94.815 79.9794C101.371 76.2273 107.483 71.6642 112.984 66.419C113.222 66.1937 113.447 65.9813 113.672 65.7754L115.898 68.1953L118.124 70.6152L118.137 70.6088Z" fill="white"/>
<path d="M118.136 70.6078C117.937 70.7944 117.731 70.9811 117.525 71.1806C111.638 76.7927 105.102 81.6775 98.0826 85.6871C91.649 89.3684 84.6298 92.4255 77.2311 94.7746C64.634 98.7713 50.7888 100.831 34.9105 101.088L34.859 97.7995C61.7839 97.3683 91.4752 91.4794 115.254 68.7993C115.473 68.5934 115.685 68.3874 115.904 68.1943L118.13 70.6142L118.136 70.6078Z" fill="#455396"/>
<path d="M34.8661 98.0697V97.5226C50.3841 97.2716 63.8948 95.2636 76.1573 91.3763C83.318 89.1045 90.0991 86.1504 96.314 82.5978C103.076 78.7234 109.387 74.0187 115.068 68.5997C115.287 68.3873 115.506 68.1878 115.718 67.9883L116.091 68.3937C115.879 68.5868 115.666 68.7928 115.448 68.9987C109.735 74.4435 103.391 79.1803 96.5907 83.074C90.3436 86.6524 83.5239 89.6193 76.3246 91.9041C64.0106 95.8042 50.4484 97.8251 34.8661 98.0761V98.0697Z" fill="#390176"/>
<path d="M81.8893 99.7236C87.0983 99.7236 91.321 95.4994 91.321 90.2885C91.321 85.0777 87.0983 80.8535 81.8893 80.8535C76.6803 80.8535 72.4575 85.0777 72.4575 90.2885C72.4575 95.4994 76.6803 99.7236 81.8893 99.7236Z" fill="#390176"/>
<path d="M81.8893 98.365C86.3486 98.365 89.9636 94.7488 89.9636 90.288C89.9636 85.8272 86.3486 82.2109 81.8893 82.2109C77.43 82.2109 73.8151 85.8272 73.8151 90.288C73.8151 94.7488 77.43 98.365 81.8893 98.365Z" fill="white"/>
<g style="mix-blend-mode:multiply" opacity="0.6">
<path d="M82.5455 96.8209C78.0934 96.6214 74.645 92.85 74.838 88.3963C74.8895 87.2057 75.1983 86.0923 75.7065 85.0947C74.6064 86.4076 73.9051 88.081 73.8215 89.9281C73.622 94.3817 77.0705 98.1532 81.529 98.3527C84.7909 98.5007 87.6924 96.6793 89.0821 93.9441C87.5252 95.7976 85.1511 96.9368 82.5391 96.8209H82.5455Z" fill="#AFA5BE"/>
</g>
<path d="M46.2082 124.36C37.021 123.948 27.705 115.961 23.5489 104.937C21.3486 99.1056 20.7502 92.8757 21.8568 87.4051C22.9827 81.8252 25.8264 77.3587 29.8539 74.8294C30.9798 74.1214 38.4364 70.2213 40.8361 69.5391C42.5218 69.0564 44.2781 68.8569 46.0538 68.9341C55.6207 69.3589 65.0267 77.8543 68.9319 89.5869C69.3115 90.7261 69.6396 91.8974 69.9034 93.0816C71.0486 98.1467 71.0036 103.141 69.7812 107.524C68.591 111.778 66.3649 115.273 63.3347 117.635C61.4625 119.096 54.4305 122.526 52.9636 123.15C51.7734 123.659 50.5124 124.013 49.2192 124.206C48.2413 124.347 47.2312 124.399 46.2147 124.354L46.2082 124.36Z" fill="#390176"/>
<path d="M62.8269 116.991C61.0448 118.381 54.1286 121.76 52.636 122.397C51.523 122.873 50.3392 123.208 49.0975 123.395C45.6233 123.903 41.9754 123.144 38.5205 121.38C33.5924 118.864 29.0631 114.301 26.0135 108.431C25.383 107.221 24.8168 105.96 24.3215 104.647C19.908 92.9336 22.327 80.5252 30.2919 75.531C31.4306 74.8166 38.8165 70.9743 41.0618 70.3372C45.0958 69.1852 49.3098 69.7644 53.2343 71.663C58.6257 74.2695 63.4639 79.3539 66.5327 85.8413C67.1439 87.1284 67.6844 88.4671 68.1476 89.8573C68.5207 90.9707 68.836 92.1098 69.0998 93.2747C71.4223 103.559 68.5722 112.525 62.8269 116.997V116.991Z" fill="#8CFFFF"/>
<g style="mix-blend-mode:multiply">
<path d="M62.8269 116.991C61.0448 118.381 54.1286 121.76 52.636 122.397C51.523 122.873 50.3392 123.208 49.0975 123.395C45.6233 123.903 41.9754 123.144 38.5205 121.38C34.6732 118.594 29.9509 113.29 26.0135 108.431C25.383 107.221 24.8168 105.96 24.3215 104.647C19.908 92.9336 22.327 80.5252 30.2919 75.531C31.4306 74.8166 38.8165 70.9743 41.0618 70.3372C45.0958 69.1852 49.3098 69.7644 53.2343 71.663C48.2868 70.1634 46.6463 70.3565 44.2272 70.3822C42.7989 70.3951 40.0582 71.5664 43.5838 72.5511C47.7207 73.7032 51.0598 77.2493 51.0598 77.2493C51.0598 77.2493 59.6809 89.9474 62.0099 93.4163C63.8113 96.1065 64.3131 99.5626 64.5254 101.629C64.9114 105.355 68.643 104.692 69.0419 98.8096C69.3314 94.5877 67.5621 88.7825 66.5456 85.8477C67.1568 87.1349 67.6972 88.4735 68.1604 89.8637C68.5336 90.9771 68.8488 92.1163 69.1126 93.2812C71.4352 103.566 68.5851 112.531 62.8398 117.004L62.8269 116.991Z" fill="#AFA5BE"/>
</g>
<path d="M46.2081 124.36C37.0208 123.948 27.7049 115.968 23.5487 104.936C20.4799 96.7821 20.5764 88.0808 23.8061 81.6514C26.0064 77.2749 29.4677 74.308 33.8104 73.0723C35.4961 72.5896 37.2525 72.3901 39.0281 72.4673C44.1493 72.6926 49.3928 75.2669 53.787 79.7013C58.1876 84.142 61.4173 90.1532 62.8777 96.6148C64.647 104.434 63.5468 111.997 59.8668 117.351C57.2611 121.148 53.4717 123.581 49.2062 124.206C48.2283 124.347 47.2182 124.399 46.2017 124.354L46.2081 124.36Z" fill="#390176"/>
<path d="M49.0973 123.395C39.6398 124.779 28.8956 116.798 24.3213 104.647C19.2773 91.2608 23.1568 76.9667 34.0426 73.8646C44.7224 70.8204 56.6505 79.9079 61.1283 93.3847C61.5014 94.4981 61.8167 95.6372 62.0805 96.8021C65.1879 110.556 59.0373 121.947 49.0973 123.402V123.395Z" fill="#50C9C6"/>
<g style="mix-blend-mode:multiply">
<path d="M61.1283 93.3847L24.3213 104.647C19.2773 91.2608 23.1568 76.9667 34.0426 73.8646C44.7224 70.8204 56.6504 79.9079 61.1283 93.3847Z" fill="#AFA5BE"/>
</g>
<path d="M45.661 121.631C37.5481 121.271 29.3838 114.211 25.8003 104.46C23.1946 97.3743 23.3426 89.8379 26.1927 84.303C28.1485 80.5058 31.1917 77.9508 34.994 76.9082C36.4222 76.5156 37.9084 76.3547 39.4075 76.419C43.8402 76.6186 48.3888 78.8196 52.2104 82.6297C56.032 86.4397 58.8629 91.6013 60.1753 97.1619C61.7966 104.01 60.8895 110.658 57.6984 115.395C55.4401 118.748 52.1332 120.904 48.3953 121.483C47.5074 121.618 46.581 121.67 45.661 121.625V121.631Z" fill="#390176"/>
<path d="M60.04 105.985C59.313 113.844 54.7515 119.681 48.2664 120.679C39.9477 121.953 30.4966 114.886 26.5657 104.183C22.2808 92.5215 25.8001 80.2869 35.2061 77.7125C40.6876 76.213 46.555 78.3819 51.2259 82.8355C52.1652 83.7301 53.0595 84.7212 53.8894 85.796C55.6201 88.0293 57.087 90.6165 58.1678 93.4547C58.6503 94.7097 59.0557 96.0162 59.3709 97.3678C59.7376 98.9188 59.9692 100.438 60.0722 101.911C60.1751 103.321 60.1558 104.685 60.04 105.992V105.985Z" fill="#4A6896"/>
<g style="mix-blend-mode:multiply" opacity="0.6">
<path d="M58.1749 93.4489C50.0234 98.411 35.8823 106.153 33.727 101.584C30.671 95.1029 26.2318 95.3796 26.5727 104.178C22.2879 92.5157 25.8071 80.281 35.2132 77.7067C40.6946 76.2071 46.5621 78.376 51.233 82.8296C52.1723 83.7242 53.0666 84.7154 53.8965 85.7902C55.6272 88.0234 57.094 90.6106 58.1749 93.4489Z" fill="#AFA5BE"/>
</g>
<path d="M49.2182 115.858C46.0721 115.717 42.7909 114.217 39.9794 111.636C37.1744 109.055 34.9483 105.49 33.7195 101.59C31.9245 95.9005 32.3169 89.9473 34.7682 85.6739C36.4473 82.7455 38.9372 80.8341 41.9674 80.139C42.9389 79.9137 43.949 79.8236 44.9591 79.8687C47.2109 79.9717 49.5334 80.7568 51.6758 82.1406L51.7402 82.1856L51.7981 82.2371C55.832 86.0858 58.8108 91.3889 60.1747 97.1748C60.8953 100.213 61.1269 103.205 60.8567 106.063V106.134L60.8309 106.198C59.4027 111.611 55.5875 115.292 50.8781 115.807C50.3312 115.865 49.7715 115.884 49.2182 115.858Z" fill="#390176"/>
<path d="M60.0409 105.986C58.7156 111.006 55.2736 114.501 50.7958 114.99C44.2849 115.698 37.195 109.848 34.5122 101.339C31.5913 92.078 34.7566 82.6301 42.1554 80.9439C45.2371 80.2424 48.4089 81.0082 51.2333 82.836C55.0034 86.4337 57.995 91.5181 59.3783 97.3683C60.0924 100.4 60.2919 103.315 60.0474 105.992L60.0409 105.986Z" fill="url(#paint2_linear_1023_39619)"/>
<g style="mix-blend-mode:multiply" opacity="0.6">
<path d="M35.3681 100.553C33.2064 93.6993 34.3837 86.742 38.1346 82.9062C33.7082 86.5168 32.1898 93.9889 34.506 101.339C37.1888 109.847 44.2787 115.697 50.7896 114.989C53.0928 114.738 55.1194 113.689 56.7278 112.054C55.2803 113.239 53.556 113.998 51.6452 114.204C45.1344 114.912 38.0445 109.062 35.3616 100.553H35.3681Z" fill="#AFA5BE"/>
</g>
<path d="M60.0794 101.905C59.346 106.584 56.4315 109.931 52.5134 110.362C47.3858 110.922 41.8014 106.314 39.6911 99.6141C37.3943 92.3222 39.8841 84.8823 45.713 83.5501C48.5245 82.9065 51.4326 83.8269 53.9031 85.7898C56.4058 89.0142 58.3487 92.9723 59.3846 97.3615C59.7513 98.9126 59.9829 100.431 60.0858 101.905H60.0794Z" fill="url(#paint3_linear_1023_39619)"/>
<g opacity="0.4">
<path d="M56.5405 96.0422C57.3447 100.335 55.3374 103.83 52.2428 104.164C49.2768 104.486 46.0536 101.822 44.8312 97.9536C43.4994 93.7381 44.9406 89.4389 48.3118 88.6666C51.8567 87.8557 55.659 91.3311 56.5469 96.0422H56.5405Z" fill="url(#paint4_linear_1023_39619)"/>
</g>
<g style="mix-blend-mode:screen" opacity="0.8">
<path d="M53.4273 89.6824C52.9834 91.9092 51.3364 93.2093 49.7794 92.7716C48.2225 92.334 47.2446 90.4418 47.4054 88.3373C47.5791 86.0461 49.1103 84.2505 50.8796 84.5272C52.7454 84.8233 53.9099 87.2367 53.4273 89.6824Z" fill="url(#paint5_linear_1023_39619)"/>
</g>
<g style="mix-blend-mode:screen" opacity="0.6">
<path d="M50.8538 107.607C50.59 108.926 49.6185 109.692 48.6921 109.435C47.7656 109.177 47.193 108.058 47.2831 106.809C47.386 105.451 48.2932 104.389 49.3419 104.556C50.4484 104.73 51.1369 106.159 50.8473 107.607H50.8538Z" fill="url(#paint6_linear_1023_39619)"/>
</g>
<path d="M71.151 79.6763C70.2309 79.6377 69.4332 79.4318 68.7705 79.0649H68.7576L68.5711 78.9491C67.4645 78.2604 66.834 77.147 66.7375 75.7247C66.5444 72.8865 68.6032 69.2502 71.968 66.4634C74.297 64.5391 77.2951 63.5544 80.4154 63.696C83.5358 63.8376 86.0771 64.9703 87.4088 66.6823C87.8592 67.2551 88.1551 67.8407 88.2967 68.4264C88.5411 69.4304 88.3224 70.3829 87.6662 71.1938C86.4116 72.7191 83.6837 73.5108 80.1774 73.3499C78.4467 73.2726 77.4495 74.6435 76.3043 76.2331C75.127 77.8614 73.7888 79.7085 71.4212 79.6828C71.3311 79.6828 71.241 79.6828 71.1574 79.6763H71.151Z" fill="#390176"/>
<path d="M80.2165 72.5266C75.9638 72.34 75.4041 78.9046 71.4281 78.8596C70.4244 78.8467 69.6202 78.6343 69.0155 78.2546C66.1654 76.4847 67.5743 71.1815 72.5025 67.1012C77.4886 62.9758 84.5528 64.353 86.7724 67.1848C87.1584 67.674 87.3964 68.1567 87.5122 68.6136C88.0848 70.9498 85.2605 72.7455 80.2229 72.5202L80.2165 72.5266Z" fill="#7C98CE"/>
<g style="mix-blend-mode:multiply">
<path d="M80.2166 72.5254C75.964 72.3388 75.4043 78.9034 71.4282 78.8583C70.4246 78.8454 69.6204 78.6331 69.0156 78.2533C71.4282 78.8583 71.3703 77.3266 73.7765 74.0121C76.1827 70.6976 79.747 69.7966 82.4298 70.0991C85.1191 70.408 86.7725 67.1836 86.7725 67.1836L87.5124 68.6124C88.085 70.9486 85.2606 72.7442 80.2231 72.519L80.2166 72.5254Z" fill="#AFA5BE"/>
</g>
<g style="mix-blend-mode:screen" opacity="0.8">
<path d="M83.6594 54.6914C86.7259 54.6914 89.2117 52.2047 89.2117 49.1372C89.2117 46.0697 86.7259 43.583 83.6594 43.583C80.593 43.583 78.1072 46.0697 78.1072 49.1372C78.1072 52.2047 80.593 54.6914 83.6594 54.6914Z" fill="url(#paint7_linear_1023_39619)"/>
</g>
<path d="M113.209 98.301C104.504 97.9148 96.8286 89.915 94.9435 79.2765C93.9141 73.452 94.7505 67.6532 97.2983 62.9422C99.8782 58.1667 103.906 55.0775 108.634 54.2408C109.683 54.0542 110.751 53.9834 111.813 54.0349C120.517 54.421 128.193 62.4208 130.078 73.0594C131.107 78.8839 130.271 84.6826 127.723 89.3937C125.143 94.1691 121.116 97.2584 116.387 98.095C115.338 98.2817 114.27 98.3525 113.209 98.301Z" fill="#390176"/>
<path d="M116.249 97.2705C125.504 95.6331 131.335 84.8543 129.273 73.1954C127.212 61.5365 118.039 53.4125 108.784 55.0499C99.5294 56.6873 93.6982 67.4661 95.7595 79.125C97.8209 90.7839 106.994 98.9079 116.249 97.2705Z" fill="#2B81BE"/>
<path d="M129.273 73.2071C127.215 61.5452 118.04 53.4231 108.782 55.0579C106.897 55.3925 105.154 56.1005 103.597 57.1238C104.935 56.3772 106.389 55.843 107.939 55.5663C117.191 53.9316 126.365 62.0537 128.431 73.7155C130.071 83.0025 126.706 91.7296 120.594 95.7263C127.24 92.0064 130.991 82.9124 129.28 73.2071H129.273Z" fill="#45A9E2"/>
<g style="mix-blend-mode:multiply">
<path d="M118.998 93.9701C109.746 95.6048 100.572 87.4827 98.5066 75.8209C97.3679 69.3914 98.6353 63.2258 101.55 58.7207C96.7567 63.1808 94.3054 70.936 95.753 79.1289C97.8118 90.7908 106.986 98.9129 116.244 97.2782C120.394 96.5445 123.855 93.9701 126.229 90.3017C124.203 92.1874 121.751 93.481 119.004 93.9701H118.998Z" fill="#AFA5BE"/>
</g>
<path d="M119.333 91.8396C112.642 91.5436 106.704 85.1978 105.211 76.7539C104.401 72.1715 105.012 67.6149 106.923 63.9143C108.872 60.1428 111.948 57.7165 115.576 57.0729C116.355 56.9378 117.146 56.8863 117.931 56.9185C124.622 57.2145 130.56 63.5603 132.053 72.0042C132.863 76.5866 132.252 81.1432 130.341 84.8438C128.392 88.6153 125.317 91.0416 121.688 91.6852C120.91 91.8203 120.118 91.8718 119.333 91.8396Z" fill="#390176"/>
<path d="M121.552 90.8709C128.518 89.6383 132.859 81.2534 131.249 72.1426C129.638 63.0317 122.685 56.6451 115.718 57.8777C108.752 59.1102 104.41 67.4952 106.021 76.606C107.632 85.7168 114.585 92.1034 121.552 90.8709Z" fill="#6CB3FF"/>
<path d="M115.377 58.0897C122.306 56.8669 129.371 63.8434 131.468 73.7997C131.417 73.2527 131.339 72.7056 131.243 72.1521C129.634 63.0453 122.68 56.6545 115.718 57.8902C111.627 58.611 108.442 61.8032 106.84 66.1603C108.519 61.8418 111.537 58.7719 115.384 58.0897H115.377Z" fill="#96CEFF"/>
<g style="mix-blend-mode:multiply">
<path d="M122.891 89.4391C115.924 90.6684 108.975 84.284 107.367 75.1772C106.357 69.4814 107.682 64.0624 110.519 60.5098C106.781 63.9272 104.871 70.0864 106.029 76.6188C107.637 85.7256 114.592 92.1165 121.553 90.8808C124.159 90.4174 126.404 88.9564 128.096 86.8262C126.623 88.1713 124.86 89.0916 122.891 89.4456V89.4391Z" fill="#AFA5BE"/>
</g>
<path d="M122.505 69.0247C122.331 68.6 122.003 68.1881 121.475 67.744C121.038 67.3707 120.607 67.1712 120.311 67.2098C120.253 67.2162 120.202 67.2356 120.15 67.2549C120.028 67.3192 119.951 67.4994 119.944 67.7633C119.931 68.0722 120.028 68.4712 120.15 68.6965C120.195 68.7673 120.247 68.851 120.304 68.9282C120.24 69.0376 120.176 69.1277 120.124 69.1921C119.706 69.044 119.275 68.999 118.844 69.0762C116.721 69.4559 115.749 72.5516 116.882 75.6473C117.918 78.4791 120.176 79.7276 121.804 78.7687C123.245 77.9191 123.83 75.5186 123.225 73.1888C122.994 72.2942 122.608 71.4832 122.132 70.8268C122.106 70.6401 122.093 70.4471 122.08 70.2411C122.157 70.2604 122.222 70.254 122.286 70.2411C122.453 70.1961 122.569 70.0416 122.601 69.8035C122.633 69.5653 122.601 69.2757 122.492 69.0312L122.505 69.0247Z" fill="#0089FF"/>
<path d="M31.0384 70.4274C29.8739 62.5756 31.6432 54.3377 32.4603 51.1584C34.7764 42.1224 39.9426 34.5537 47.3992 29.2634C50.9764 26.7277 54.9588 24.8098 59.2436 23.5677C63.5799 22.3127 68.1156 21.7785 72.7221 21.9844C74.0282 22.0424 75.3471 22.1582 76.6467 22.3384C82.3791 23.1172 87.8541 25.0286 92.9045 28.0342C99.1838 31.767 104.884 37.2182 109.844 44.2398C112.334 47.7666 114.013 53.0827 113.93 54.9491C113.82 57.4269 109.729 59.525 108.011 59.879C107.284 60.027 106.48 60.085 105.701 60.0528C103.237 59.9434 101.474 58.9394 100.857 57.2982C99.4283 53.501 97.0543 47.9597 92.8724 43.6284C89.1151 39.7346 84.9204 36.7741 80.4039 34.8369C76.6274 33.2151 72.6256 32.3012 68.5081 32.121C62.8465 31.87 58.433 33.0606 56.297 33.7943C52.128 35.2295 48.1777 37.997 45.1668 41.5882C41.7312 45.6879 39.6209 50.74 39.0676 56.1977L39.0483 56.4036L38.9325 56.5774C37.916 58.0641 36.9767 59.6344 36.1532 61.2499C35.0852 63.3351 34.3711 65.4589 33.6119 67.7115C33.2966 68.6576 32.9685 69.6294 32.6147 70.5948L31.611 72.9761L31.032 70.4274H31.0384Z" fill="#390176"/>
<path d="M113.112 54.9106C113.028 56.8285 109.361 58.7592 107.849 59.0682C105.758 59.4929 102.451 59.2033 101.628 57.0087C99.9744 52.6065 97.5554 47.2905 93.4635 43.0556C79.5861 28.6778 63.5406 30.4284 56.0325 33.0156C47.8617 35.8281 39.4915 43.9502 38.2563 56.1076C37.2076 57.6394 36.2618 59.2291 35.4255 60.8702C33.8621 63.9208 33.0128 67.1259 31.8483 70.3052C30.9155 64.0174 31.8483 56.8156 33.2509 51.3644C34.1452 47.8697 35.4705 44.6389 37.1625 41.7041C44.0208 29.7848 56.8238 22.7311 70.92 22.7697C72.7729 22.7697 74.6515 22.8984 76.5366 23.1558C86.2643 24.4752 98.4561 29.5467 109.175 44.7161C111.581 48.1207 113.189 53.2437 113.112 54.9106Z" fill="#2B81BE"/>
<path d="M115.634 110.993C114.682 110.948 113.723 110.839 112.797 110.665C109.226 109.995 106.414 108.419 104.671 106.108C103.307 104.306 102.625 102.047 102.857 100.065C103.069 98.2177 104.027 97.0592 105.288 97.1107C105.385 97.1107 105.481 97.13 105.578 97.1493C106.575 97.3489 107.547 97.7415 108.576 98.1534C110.313 98.8549 112.288 99.6465 114.984 99.7623C116.785 99.8396 118.683 99.6207 120.787 99.0801C126.372 97.6513 127.986 94.7616 129.859 91.4085C130.734 89.8382 131.641 88.2163 133.005 86.5945C134.883 84.3483 137.823 82.9131 140.32 83.029C141.89 83.0998 143.125 83.782 143.807 84.9533C145.164 87.296 143.903 90.8036 142.604 93.3329C139.998 98.3979 135.958 102.955 131.21 106.16C126.191 109.551 120.806 111.218 115.634 110.993Z" fill="#390176"/>
<path d="M105.418 97.9533C102.658 97.3998 101.744 107.749 112.952 109.853C124.159 111.958 136.3 103.804 141.871 92.959C147.443 82.1145 137.914 82.0115 133.636 87.1281C129.351 92.2382 129.531 97.7023 120.994 99.8776C112.456 102.059 108.944 98.6612 105.424 97.9533H105.418Z" fill="white"/>
<g style="mix-blend-mode:multiply">
<path d="M133.636 87.1295C130.702 90.637 129.859 94.2991 126.874 96.9635C130.104 98.0447 128.444 105.156 117.738 105.652C107.033 106.148 107.483 101.205 110.822 99.8597C108.686 99.1968 107.052 98.2893 105.418 97.9611C102.658 97.4076 101.744 107.757 112.952 109.861C124.159 111.966 136.3 103.811 141.871 92.9668C147.443 82.1223 137.914 82.0194 133.636 87.1359V87.1295Z" fill="#AFA5BE"/>
</g>
<path d="M141.665 100.084C140.165 100.181 138.242 99.6786 135.784 98.5459C131.75 96.6924 127.42 92.8566 127.35 89.3941C127.305 87.1479 128.54 85.8608 129.679 85.2429C129.029 84.2196 128.096 82.4047 127.864 80.2293C127.588 77.6872 128.321 75.7178 128.913 74.1281C129.338 72.989 129.672 72.0879 129.383 71.5666C129.074 71.0003 127.948 70.5111 126.037 70.1057C121.199 69.0759 118.252 67.1773 117.744 64.751C117.461 63.3995 117.815 61.2885 121.122 58.9008C123.091 57.4784 125.13 56.6933 127.176 56.5645C129.569 56.4101 131.963 57.1695 134.099 58.7656C135.829 60.0592 137.36 61.8999 138.3 63.8242C139.188 65.6456 141.819 65.607 144.856 65.5619C148.027 65.5169 151.617 65.459 153.702 67.8789C157.421 72.1845 161.171 78.0218 157.157 84.9662C155.079 88.5638 152.415 89.748 150.279 90.6941C148.471 91.4986 147.165 92.0778 146.689 93.8284C145.872 96.8018 145.036 99.8781 141.677 100.091L141.665 100.084Z" fill="#390176"/>
<path d="M156.436 84.5411C152.724 90.9642 147.114 89.1235 145.885 93.5964C144.656 98.0694 143.704 101.274 136.125 97.7926C132.445 96.1064 128.238 92.5281 128.167 89.3681C128.103 86.2145 130.946 85.6159 130.946 85.6159C130.895 85.5451 129.293 83.5693 128.778 80.8405C128.733 80.6088 128.695 80.3707 128.669 80.1261C127.993 73.8254 134.131 70.9743 126.192 69.2881C119.231 67.8078 116.593 64.5705 119.861 61.0501C120.318 60.561 120.891 60.059 121.585 59.557C124.538 57.4267 127.331 57.0212 129.756 57.5812C131.654 58.0252 133.327 59.0614 134.684 60.3357C135.926 61.5071 136.904 62.8715 137.534 64.1715C138.178 65.4844 139.439 66.0315 140.989 66.2503C141.581 66.334 142.218 66.3726 142.881 66.3855C146.477 66.4498 150.826 65.8255 153.052 68.4063C156.758 72.7055 160.129 78.1245 156.417 84.5411H156.436Z" fill="white"/>
<g style="mix-blend-mode:multiply" opacity="0.6">
<path d="M141.008 66.2506C139.625 67.5635 135.405 71.2706 136.112 67.0036C136.936 62.093 133.121 59.0295 129.762 57.5879C131.66 58.032 133.333 59.0681 134.69 60.3425C135.932 61.5138 136.91 62.8782 137.541 64.1783C138.184 65.4912 139.445 66.0382 140.995 66.257L141.008 66.2506Z" fill="#AFA5BE"/>
</g>
<g style="mix-blend-mode:multiply" opacity="0.6">
<path d="M153.072 68.4059C150.846 65.8251 146.496 66.4493 142.9 66.385L134.826 70.2337C134.826 70.2337 133.938 74.3011 134.659 77.3196C135.379 80.338 138.744 78.935 138.744 78.935C139.143 83.2985 143.003 82.9252 143.003 82.9252C142.939 84.0258 143.64 86.4585 145.319 86.9026C146.998 87.3467 151.09 86.9477 149.16 88.9943C147.23 91.0409 141.729 91.839 141.729 91.839C144.869 96.756 137.631 95.6426 134.208 93.6603C130.785 91.6781 130.824 87.9646 131.924 86.9477L131.808 86.5036C133.147 87.6942 135.791 89.3225 137.85 86.1496C139.329 83.8649 139.201 81.5287 139.201 81.5287C139.201 81.5287 137.592 86.4264 134.382 85.6862C132.51 85.255 130.02 82.6034 130.464 78.1048C130.689 75.82 132.786 71.9263 131.879 70.1822C130.972 68.438 128.025 67.9553 123.419 66.739C118.812 65.5226 119.198 63.0254 119.861 61.0625C116.593 64.5829 119.231 67.8266 126.192 69.3004C134.131 70.9867 127.993 73.8378 128.669 80.1385C128.695 80.3831 128.733 80.6212 128.778 80.8529V80.8786C128.797 80.9494 128.81 81.0202 128.823 81.0846L128.836 81.1361C128.849 81.2069 128.868 81.2777 128.881 81.342L128.894 81.3806C128.913 81.4514 128.926 81.5222 128.945 81.593V81.6188C129.1 82.1658 129.286 82.6807 129.486 83.1376L129.499 83.1634C129.524 83.2213 129.55 83.2792 129.576 83.3307L129.589 83.3629C129.615 83.4144 129.64 83.4659 129.66 83.5173L129.679 83.556C129.705 83.6074 129.73 83.6589 129.75 83.704L129.769 83.7426C129.795 83.7941 129.82 83.8391 129.84 83.8842L129.859 83.9228C129.885 83.9679 129.91 84.0193 129.93 84.0644L129.943 84.0901C129.968 84.1352 129.994 84.1867 130.02 84.2317V84.251C130.2 84.56 130.367 84.8238 130.509 85.0362C130.528 85.0748 130.547 85.107 130.573 85.1328V85.1456C130.573 85.1456 130.618 85.2036 130.637 85.2293L130.65 85.2422C130.65 85.2422 130.683 85.2872 130.702 85.313L130.715 85.3323C130.715 85.3323 130.747 85.3709 130.76 85.3902L130.773 85.4031L130.811 85.4545V85.4674L130.856 85.5125C130.901 85.5833 130.933 85.6154 130.94 85.6283C130.94 85.6283 128.096 86.2269 128.154 89.3804C128.212 92.534 132.432 96.1124 136.113 97.805C143.691 101.287 144.65 98.0818 145.872 93.6088C147.095 89.1359 152.711 90.9701 156.424 84.5535C160.136 78.1305 156.765 72.7115 153.059 68.4187L153.072 68.4059Z" fill="#AFA5BE"/>
</g>
<path d="M147.191 85.5836C145.917 85.6673 144.837 85.1331 144.238 84.1227C143.473 82.8355 143.588 80.9562 144.541 79.4373L144.579 79.3794L144.907 79.0126C147.494 76.1229 148.465 75.0416 152.448 74.4946C152.763 74.4495 153.085 74.4173 153.387 74.398C154.326 74.3401 155.034 74.398 155.607 74.4495C155.98 74.4817 156.269 74.5074 156.52 74.4881C156.707 74.4753 156.861 74.4431 157.003 74.3723L158.096 73.8574L158.148 74.6233C160.451 76.0199 160.844 77.5838 160.747 78.6715C160.567 80.6859 158.56 82.5781 155.504 83.6078C152.39 84.6569 151.296 84.8499 149.643 85.1524C149.128 85.2425 148.549 85.3519 147.828 85.4935C147.616 85.5386 147.404 85.5643 147.204 85.5772L147.191 85.5836Z" fill="#390176"/>
<path d="M155.226 82.8354C151.192 84.1934 150.632 84.0904 147.653 84.6954C144.675 85.3003 143.787 82.1918 145.234 79.8749C145.427 79.656 145.614 79.4565 145.788 79.257C148.123 76.6505 149.004 75.7945 152.549 75.3118C154.331 75.0673 155.374 75.2925 156.197 75.3118C156.615 75.3247 156.976 75.2861 157.342 75.1123C162.039 77.6802 159.71 81.3165 155.226 82.8289V82.8354Z" fill="white"/>
<g style="mix-blend-mode:multiply" opacity="0.6">
<path d="M155.226 82.8358C151.192 84.1938 150.632 84.0908 147.653 84.6958C144.675 85.3007 143.787 82.1922 145.234 79.8753C145.427 79.6564 145.614 79.4569 145.788 79.2574L148.059 78.0732C145.64 81.111 146.341 83.4021 151.443 81.5679C153.135 80.9565 156.049 80.1713 156.937 79.4312C158.417 78.2019 157.909 76.9598 156.583 76.2261C156.114 75.9687 156.043 75.6533 156.204 75.3187C156.622 75.3315 156.982 75.2929 157.349 75.1191C162.045 77.6871 159.716 81.3233 155.232 82.8358H155.226Z" fill="#AFA5BE"/>
</g>
<path d="M137.56 78.3698C136.37 78.4471 134.781 77.8871 133.977 74.785C133.43 72.6676 133.765 69.9838 134.878 67.5961C136.158 64.8673 138.326 62.7821 140.99 61.7266C142.759 61.0251 145.461 60.1562 148.298 59.9696C151.425 59.7701 153.85 60.5038 155.317 62.0934C156.27 63.1296 156.713 64.3009 156.559 65.3886C156.463 66.0837 156.07 67.0813 154.777 67.8664L154.603 67.9694H154.59C153.555 68.5422 152.158 68.8897 150.441 68.9992C150.293 69.0056 150.145 69.0185 149.997 69.0249C149.913 69.0249 149.836 69.0313 149.752 69.0378C146.227 69.263 144.908 71.3096 143.505 73.4785C142.849 74.489 142.173 75.538 141.273 76.3683C141.26 76.3811 141.247 76.394 141.234 76.4004C139.864 77.649 138.661 78.2862 137.56 78.3569V78.3698Z" fill="#390176"/>
<path d="M154.346 67.1713C153.4 67.7441 151.965 68.1367 149.964 68.2139C144.02 68.4456 143.441 73.2725 140.706 75.7889C140.706 75.7954 140.693 75.8018 140.687 75.8083C137.933 78.3183 135.746 78.3118 134.774 74.579C134.369 73.0086 134.491 70.9942 135.186 69.0313C136.132 66.341 138.146 63.7409 141.292 62.4988C146.13 60.5874 152.049 59.77 154.712 62.6597C154.88 62.8399 155.028 63.0266 155.156 63.2132C156.134 64.6291 155.993 66.1802 154.352 67.1713H154.346Z" fill="white"/>
<g style="mix-blend-mode:multiply" opacity="0.6">
<path d="M154.346 67.171C153.4 67.7438 151.965 68.1364 149.964 68.2136C144.02 68.4453 143.441 73.2722 140.706 75.7886C140.706 75.7951 140.693 75.8015 140.687 75.8079C137.933 78.3179 135.746 78.3115 134.774 74.5787C134.369 73.0083 134.491 70.9939 135.186 69.0309C135.45 72.0043 137.245 73.2143 139.381 70.6978C141.523 68.1814 146.136 65.1372 150.833 65.5234C155.529 65.9095 155.774 65.1179 155.163 63.2129C156.141 64.6288 155.999 66.1798 154.358 67.171H154.346Z" fill="#AFA5BE"/>
</g>
<path d="M142.874 82.0698C141.909 82.1341 140.989 81.7544 140.288 81.0078C139.317 79.9845 138.853 78.3563 139.04 76.6507L139.027 76.4062L139.066 76.3611C139.149 75.3636 139.651 72.1263 142.701 69.8866C145.248 68.0138 148.163 67.0033 151.618 66.7781C152.21 66.7395 152.821 66.7266 153.445 66.733C156.449 66.7716 158.695 68.9212 159.358 71.0129C159.949 72.8729 159.377 74.6556 157.833 75.7819C157.472 76.0458 157.061 76.1874 156.585 76.2195C156.205 76.2453 155.825 76.2002 155.388 76.1487C154.815 76.0844 154.172 76.0072 153.329 76.0586C153.11 76.0715 152.885 76.0973 152.667 76.123C149.282 76.5799 148.613 77.3265 146.13 80.1068L145.853 80.4157C144.946 81.4262 143.917 81.999 142.881 82.0633L142.874 82.0698Z" fill="#390176"/>
<path d="M157.343 75.1195C156.365 75.8339 155.233 74.9457 152.55 75.3126C148.735 75.8339 148.008 76.78 145.235 79.8756C142.462 82.9713 139.413 80.4163 139.863 76.677C139.863 76.677 139.889 73.8903 142.025 71.5862C142.353 71.2258 142.733 70.8783 143.176 70.5565C145.885 68.5678 149.134 67.5059 153.425 67.5638C155.413 67.5895 157.105 68.7029 158.019 70.1253C159.08 71.7728 159.1 73.8388 157.343 75.1195Z" fill="white"/>
<g style="mix-blend-mode:multiply" opacity="0.6">
<path d="M157.343 75.1187C156.365 75.8331 155.233 74.9449 152.55 75.3118C148.735 75.8331 148.008 76.7791 145.235 79.8748C142.462 82.9705 139.413 80.4154 139.863 76.6762C139.863 76.6762 139.889 73.8894 142.025 71.5854C141.503 74.5137 143.221 76.8564 146.245 75.1637C149.269 73.4711 154.84 73.6513 156.294 73.2201C157.748 72.7889 157.851 71.2121 158.019 70.1309C159.08 71.7784 159.1 73.8444 157.343 75.1251V75.1187Z" fill="#AFA5BE"/>
</g>
<path d="M130.554 85.2428C130.734 85.4294 130.94 85.629 131.146 85.8092C131.352 85.9958 131.571 86.1696 131.789 86.3369C132.233 86.6716 132.703 86.9741 133.198 87.2058C133.694 87.4439 134.215 87.6177 134.749 87.6691C135.283 87.7206 135.817 87.637 136.293 87.3924C136.769 87.1478 137.174 86.7617 137.509 86.3176C137.837 85.8671 138.101 85.3651 138.319 84.8373C138.75 83.7819 139.014 82.662 139.214 81.5293C139.085 82.6685 138.892 83.814 138.512 84.9081C138.326 85.4552 138.081 85.9958 137.766 86.4914C137.444 86.9805 137.026 87.4439 136.492 87.7528C135.965 88.0682 135.328 88.2098 134.717 88.184C134.099 88.1647 133.507 87.9974 132.954 87.7721C132.394 87.5469 131.873 87.2508 131.384 86.9226C131.139 86.7552 130.895 86.5815 130.663 86.4013C130.425 86.2146 130.207 86.0344 129.975 85.8156L130.56 85.2428H130.554Z" fill="#390176"/>
<path d="M147.925 91.9504C147.719 91.9954 147.539 92.0212 147.346 92.0533C147.16 92.0855 146.967 92.1048 146.78 92.1241C146.593 92.1434 146.4 92.1563 146.214 92.1756L145.648 92.2078C144.895 92.2335 144.136 92.2078 143.389 92.1241C143.203 92.0984 143.016 92.0855 142.83 92.0533L142.276 91.9568C142.09 91.9246 141.91 91.8731 141.73 91.8345L141.459 91.7702C141.369 91.7509 141.279 91.7187 141.189 91.6929L140.655 91.532L140.134 91.3325L139.877 91.2295L139.626 91.1073L139.124 90.8691L139.645 91.0622L139.902 91.1588L140.166 91.236L140.7 91.384L141.241 91.4934C141.331 91.5127 141.421 91.532 141.511 91.5449L141.781 91.5835C141.961 91.6028 142.141 91.6414 142.328 91.6543L142.875 91.6994C143.055 91.7122 143.241 91.7122 143.422 91.7187C144.149 91.7316 144.882 91.6929 145.603 91.5964L146.143 91.5192C146.323 91.487 146.503 91.4548 146.677 91.4226C146.857 91.384 147.031 91.3454 147.205 91.3068C147.378 91.2682 147.558 91.2167 147.713 91.1652L147.932 91.9568L147.925 91.9504Z" fill="#390176"/>
<g style="mix-blend-mode:multiply">
<path d="M113.112 54.9105C113.028 56.8284 109.361 58.7592 107.849 59.0681C105.758 59.4929 102.451 59.2033 101.628 57.0086C99.9744 52.6065 97.5553 47.2904 93.4635 43.0556C79.5861 28.6778 63.5406 30.4284 56.0325 33.0156C47.8617 35.8281 39.4915 43.9502 38.2563 56.1076C37.2076 57.6394 36.2618 59.229 35.4255 60.8702C33.8621 63.9208 33.0128 67.1259 31.8483 70.3052C30.9155 64.0173 31.8483 56.8156 33.2509 51.3644C34.1452 47.8697 35.4705 44.6389 37.1625 41.7041C34.9622 47.0394 35.6764 48.2365 36.3648 48.3845C38.4557 48.8415 39.8004 44.5874 43.7699 40.4298C50.6797 33.1894 66.3456 23.4519 87.7697 35.3905C100.232 42.3348 102.644 50.8945 104.137 53.7006C105.63 56.5066 108.846 58.2958 113.112 54.917V54.9105Z" fill="#AFA5BE"/>
</g>
<path d="M113.113 54.9104C100.973 27.0623 79.349 23.9537 70.9209 22.7695C72.7738 22.7695 74.6524 22.8982 76.5375 23.1557C86.2652 24.475 98.457 29.5465 109.175 44.7159C111.582 48.1205 113.19 53.2435 113.113 54.9104Z" fill="#45A9E2"/>
</g>
<defs>
<radialGradient id="paint0_radial_1023_39619" cx="0" cy="0" r="1" gradientUnits="userSpaceOnUse" gradientTransform="translate(89.2759 55.9008) rotate(2.55089) scale(58.7458 58.7661)">
<stop stop-color="#56BEF9"/>
<stop offset="1" stop-color="#3A89F9"/>
</radialGradient>
<radialGradient id="paint1_radial_1023_39619" cx="0" cy="0" r="1" gradientUnits="userSpaceOnUse" gradientTransform="translate(106.114 52.9135) rotate(2.55088) scale(79.7582 79.7858)">
<stop stop-color="#5577E2"/>
<stop offset="1" stop-color="#3F3EE2"/>
</radialGradient>
<linearGradient id="paint2_linear_1023_39619" x1="33.2875" y1="97.2456" x2="60.4043" y2="98.4529" gradientUnits="userSpaceOnUse">
<stop stop-color="#30A1E1"/>
<stop offset="1" stop-color="#9ACDE1"/>
</linearGradient>
<linearGradient id="paint3_linear_1023_39619" x1="50.8953" y1="80.5905" x2="48.0347" y2="114.568" gradientUnits="userSpaceOnUse">
<stop stop-color="#82CDE1"/>
<stop offset="1" stop-color="#B8CDE1"/>
</linearGradient>
<linearGradient id="paint4_linear_1023_39619" x1="51.32" y1="86.9551" x2="49.6652" y2="106.595" gradientUnits="userSpaceOnUse">
<stop stop-color="#84CDE2"/>
<stop offset="0.31" stop-color="#6AC6DD"/>
<stop offset="0.98" stop-color="#29B7D2"/>
<stop offset="1" stop-color="#28B7D2"/>
</linearGradient>
<linearGradient id="paint5_linear_1023_39619" x1="49.7631" y1="93.0112" x2="51.0129" y2="85.2074" gradientUnits="userSpaceOnUse">
<stop stop-color="white" stop-opacity="0"/>
<stop offset="0.22" stop-color="white" stop-opacity="0.24"/>
<stop offset="0.6" stop-color="white" stop-opacity="0.64"/>
<stop offset="0.87" stop-color="white" stop-opacity="0.9"/>
<stop offset="1" stop-color="white"/>
</linearGradient>
<linearGradient id="paint6_linear_1023_39619" x1="49.1562" y1="110.547" x2="49.0612" y2="105.157" gradientUnits="userSpaceOnUse">
<stop stop-color="white"/>
<stop offset="0.13" stop-color="white" stop-opacity="0.9"/>
<stop offset="0.4" stop-color="white" stop-opacity="0.64"/>
<stop offset="0.78" stop-color="white" stop-opacity="0.24"/>
<stop offset="1" stop-color="white" stop-opacity="0"/>
</linearGradient>
<linearGradient id="paint7_linear_1023_39619" x1="86.0837" y1="44.2967" x2="81.3171" y2="53.8046" gradientUnits="userSpaceOnUse">
<stop stop-color="white"/>
<stop offset="0.13" stop-color="white" stop-opacity="0.9"/>
<stop offset="0.4" stop-color="white" stop-opacity="0.64"/>
<stop offset="0.78" stop-color="white" stop-opacity="0.24"/>
<stop offset="1" stop-color="white" stop-opacity="0"/>
</linearGradient>
<clipPath id="clip0_1023_39619">
<rect width="153.14" height="107.023" fill="white" transform="translate(8.4303 21.1221)"/>
</clipPath>
</defs>
</svg>
