<svg width="329" height="160" viewBox="0 0 329 160" fill="none" xmlns="http://www.w3.org/2000/svg">
<mask id="mask0_2001_500" style="mask-type:alpha" maskUnits="userSpaceOnUse" x="73" y="0" width="203" height="147">
<rect x="73.5" width="202.125" height="147" rx="13" fill="#7A7A7A"/>
</mask>
<g mask="url(#mask0_2001_500)">
<rect x="73.5" width="202.125" height="147" rx="13" fill="#7A7A7A"/>
<path d="M240.101 0L240.101 57.2197C240.101 58.788 241.017 60.2116 242.445 60.8608L275.626 75.95" stroke="#B1B1B1"/>
<path d="M238.875 -2.4502V57.4221C238.875 59.3806 240.018 61.1588 241.8 61.9714L276.85 77.9556" stroke="#545454"/>
<path d="M248.676 161.256L248.676 104.026C248.676 102.463 247.766 101.043 246.346 100.391L213.151 85.138" stroke="#545454"/>
<path d="M249.9 163.706V103.834C249.9 101.875 248.757 100.097 246.975 99.2845L211.925 83.3002" stroke="#B1B1B1"/>
</g>
<mask id="mask1_2001_500" style="mask-type:alpha" maskUnits="userSpaceOnUse" x="73" y="0" width="148" height="147">
<rect x="73.5" width="147" height="147" rx="13" fill="#D9D9D9"/>
</mask>
<g mask="url(#mask1_2001_500)">
<rect x="73.5" width="147" height="147" rx="13" fill="#D9D9D9"/>
<rect x="77.6753" y="4.1748" width="138.65" height="138.65" rx="10.5" stroke="white"/>
<rect x="78.9004" y="5.3999" width="136.2" height="136.2" rx="9.5" stroke="#BCBCBC"/>
<path d="M249.9 163.706V103.824C249.9 101.87 248.763 100.096 246.988 99.2803L216.213 85.1377" stroke="white"/>
<path d="M248.676 161.256L248.676 104.032C248.676 102.466 247.761 101.044 246.338 100.39C234.77 95.0731 227.107 91.2821 214.988 85.75" stroke="#B1B1B1"/>
<path d="M143.383 43C107.444 43.7579 99.9657 92.3028 133.583 103.947C135.152 104.242 135.738 103.252 135.738 102.431V97.1037C126.949 99.0095 125.091 92.9275 125.091 92.9275C124.501 91.024 123.246 89.3997 121.559 88.3549C118.718 86.4143 121.786 86.446 121.786 86.446C122.791 86.5792 123.751 86.946 124.591 87.5172C125.431 88.0885 126.127 88.8486 126.625 89.7375C127.516 91.2989 128.98 92.4459 130.703 92.9316C132.425 93.4173 134.268 93.2029 135.836 92.3345C135.999 90.749 136.702 89.2745 137.83 88.1583C130.805 87.3656 123.453 84.6702 123.453 72.6997C123.409 69.5807 124.583 66.5691 126.722 64.3123C125.733 61.5939 125.849 58.5922 127.047 55.9599C127.047 55.9599 129.693 55.1354 135.741 59.2482C140.918 57.8339 146.377 57.8339 151.554 59.2482C157.565 55.202 160.211 55.9567 160.211 55.9567C161.361 58.5823 161.464 61.5472 160.504 64.2458C162.642 66.5028 163.815 69.5145 163.77 72.6331C163.77 84.6385 156.387 87.3021 149.362 88.06C152.632 89.8041 151.258 101.017 151.454 102.399C151.454 103.221 152.008 104.207 153.643 103.912C187.166 92.3694 179.322 43.7579 143.383 43Z" fill="white"/>
</g>
<circle cx="239.488" cy="28.7873" r="6.2375" fill="#7A7A7A" stroke="#545454"/>
<circle cx="249.288" cy="126.787" r="6.2375" fill="#7A7A7A" stroke="#545454"/>
<circle cx="239.488" cy="28.7874" r="5.0125" fill="#7A7A7A" stroke="#B1B1B1"/>
<circle cx="249.288" cy="126.787" r="5.0125" fill="#7A7A7A" stroke="#B1B1B1"/>
<mask id="mask2_2001_500" style="mask-type:alpha" maskUnits="userSpaceOnUse" x="6" y="53" width="88" height="94">
<path d="M42.7389 53.8999H57.7111V86.7802C57.7111 88.4976 58.2638 90.1695 59.2875 91.5485L92.1566 135.828C95.5853 140.446 92.2884 147 86.5359 147H13.9141C8.16164 147 4.8647 140.447 8.29339 135.828L41.1625 91.5485C42.1862 90.1695 42.7389 88.4976 42.7389 86.7802V53.8999Z" fill="white"/>
</mask>
<g mask="url(#mask2_2001_500)">
<path d="M42.7389 53.8999H57.7111V85.4578C57.7111 88.034 58.5402 90.5418 60.0757 92.6103L92.1566 135.828C95.5853 140.446 92.2884 147 86.5359 147H13.9141C8.16164 147 4.8647 140.447 8.29339 135.828L40.3743 92.6103C41.9098 90.5418 42.7389 88.034 42.7389 85.4578V53.8999Z" fill="#7A7A7A"/>
<path d="M99.2253 104.125H79.912C52.6753 142.713 40.5686 88.8125 15.3128 116.375L0.612793 142.713L15.3128 159.25H99.2253V104.125Z" fill="#FF8642"/>
<g opacity="0.6">
<mask id="mask3_2001_500" style="mask-type:alpha" maskUnits="userSpaceOnUse" x="0" y="104" width="100" height="56">
<path d="M99.2253 104.125H79.912C52.6753 142.713 40.5686 88.8125 15.3128 116.375L0.612793 142.713L15.3128 159.25H99.2253V104.125Z" fill="#FF8642"/>
</mask>
<g mask="url(#mask3_2001_500)">
<mask id="mask4_2001_500" style="mask-type:alpha" maskUnits="userSpaceOnUse" x="64" y="0" width="148" height="147">
<rect x="64.9253" width="147" height="147" rx="13" fill="#D9D9D9"/>
</mask>
<g mask="url(#mask4_2001_500)">
<rect x="64.9253" width="147" height="147" rx="13" fill="#D9D9D9"/>
<rect x="69.1006" y="4.1748" width="138.65" height="138.65" rx="10.5" stroke="white"/>
<rect x="70.3252" y="5.3999" width="136.2" height="136.2" rx="9.5" stroke="#BCBCBC"/>
</g>
</g>
</g>
<path d="M72.2752 107.708C66.8852 103.788 54.3085 111.067 48.3877 115.15C50.4947 116.655 56.2997 119.541 61.8627 118.825C67.6197 118.084 73.1176 113.666 73.9894 110.863C74.1407 109.799 73.6743 108.726 72.2752 107.708Z" fill="#8C3808"/>
</g>
<rect x="39.2002" y="50.2251" width="22.05" height="7.35" rx="2" fill="white"/>
<path d="M50.1086 30.2725C50.243 29.9092 50.757 29.9092 50.8915 30.2725C51.5491 32.0497 52.9503 33.4509 54.7275 34.1086C55.0908 34.243 55.0908 34.757 54.7275 34.8915C52.9503 35.5491 51.5491 36.9503 50.8915 38.7275C50.757 39.0908 50.243 39.0908 50.1086 38.7275C49.4509 36.9503 48.0497 35.5491 46.2725 34.8915C45.9092 34.757 45.9092 34.243 46.2725 34.1086C48.0497 33.4509 49.4509 32.0497 50.1086 30.2725Z" fill="url(#paint0_linear_2001_500)"/>
<circle cx="44.713" cy="43.4874" r="1.8375" fill="#D9D9D9"/>
<circle cx="55.1253" cy="99.2249" r="2.45" fill="#D9D9D9"/>
<circle cx="47.1627" cy="85.1373" r="1.8375" fill="#D9D9D9"/>
<mask id="mask5_2001_500" style="mask-type:alpha" maskUnits="userSpaceOnUse" x="256" y="74" width="73" height="86">
<path d="M301.35 74.5H284.2V85.6699C284.2 86.8158 283.402 87.8003 282.3 88.1124C267.136 92.4049 256.025 106.349 256.025 122.888C256.025 142.846 272.205 159.025 292.163 159.025C312.121 159.025 328.3 142.846 328.3 122.888C328.3 106.766 317.744 93.1105 303.167 88.4558C302.105 88.117 301.35 87.1515 301.35 86.0376V74.5Z" fill="#D9D9D9"/>
</mask>
<g mask="url(#mask5_2001_500)">
<path opacity="0.25" d="M301.35 74.5H284.2V85.6699C284.2 86.8158 283.402 87.8003 282.3 88.1124C267.136 92.4049 256.025 106.349 256.025 122.888C256.025 142.846 272.205 159.025 292.163 159.025C312.121 159.025 328.3 142.846 328.3 122.888C328.3 106.766 317.744 93.1105 303.167 88.4558C302.105 88.117 301.35 87.1515 301.35 86.0376V74.5Z" fill="#D9D9D9"/>
<path d="M261.372 107.656C271.893 101.353 291.408 116.404 301.282 125.199C301.282 125.199 287.869 132.512 277.966 130.095C267.717 127.593 258.656 118.655 257.644 113.234C257.584 111.212 258.642 109.292 261.372 107.656Z" fill="#8C3808"/>
<path d="M233.975 112.475H257.58C258.475 122.888 279.912 132.688 294.612 125.338C309.312 117.988 320.98 110.473 336.534 127.447L354.501 159.638L336.534 179.85H233.975V112.475Z" fill="#FD6611"/>
<mask id="mask6_2001_500" style="mask-type:alpha" maskUnits="userSpaceOnUse" x="233" y="112" width="122" height="68">
<path opacity="0.4" d="M233.975 112.475H257.58C260.312 124.725 281.137 132.075 294.612 125.337C308.087 118.6 320.98 110.472 336.534 127.447L354.501 159.637L336.534 179.85H233.975V112.475Z" fill="#FF8642"/>
</mask>
<g mask="url(#mask6_2001_500)">
<path d="M233.975 112.475H257.58C262.15 127.447 279.912 132.687 294.612 125.337C309.312 117.987 320.98 110.472 336.534 127.447L354.501 159.637L336.534 179.85H233.975V112.475Z" fill="#FE8D4D"/>
<rect x="90.6499" y="16.9248" width="202.125" height="147" rx="13" fill="#7A7A7A"/>
<path d="M265.825 178.18L265.825 120.949C265.825 119.387 264.915 117.967 263.495 117.315L230.3 102.062" stroke="#545454"/>
<path d="M267.05 180.63V120.758C267.05 118.8 265.906 117.021 264.124 116.209L229.075 100.225" stroke="#B1B1B1"/>
</g>
</g>
<rect x="281.75" y="69.6001" width="22.05" height="7.35" rx="2" fill="white"/>
<circle cx="295" cy="58" r="3" fill="#D9D9D9"/>
<circle cx="290.325" cy="48.45" r="2.45" fill="#D9D9D9"/>
<circle cx="290.325" cy="106.35" r="2.45" fill="#D9D9D9"/>
<defs>
<linearGradient id="paint0_linear_2001_500" x1="50.4999" y1="29.215" x2="50.4999" y2="39.7857" gradientUnits="userSpaceOnUse">
<stop stop-color="white"/>
<stop offset="0.755" stop-color="#E3FDFF"/>
</linearGradient>
</defs>
</svg>
