<svg width="1462" height="1312" viewBox="0 0 1462 1312" fill="none" xmlns="http://www.w3.org/2000/svg">
<mask id="mask0_2004_6060" style="mask-type:alpha" maskUnits="userSpaceOnUse" x="0" y="0" width="1462" height="1312">
<rect x="0.5" y="-0.5" width="1461" height="1311" transform="matrix(1 0 0 -1 0 1311)" fill="url(#paint0_linear_2004_6060)" stroke="#2C2261"/>
</mask>
<g mask="url(#mask0_2004_6060)">
<path d="M10.6758 928L1430.32 928" stroke="#2C2261"/>
<path d="M1 812H1439" stroke="#2C2261"/>
<path d="M1 580H1439" stroke="#2C2261"/>
<path d="M1 348H1439" stroke="#2C2261"/>
<path d="M1 116H1439" stroke="#2C2261"/>
<path d="M1 696H1439" stroke="#2C2261"/>
<path d="M1 464H1439" stroke="#2C2261"/>
<path d="M1 232H1439" stroke="#2C2261"/>
<path d="M1 0H1439" stroke="#2C2261"/>
<path d="M104.14 958.073L1337.57 958.073" stroke="#2C2261"/>
<path d="M177.734 978.74L1263.97 978.74" stroke="#2C2261"/>
<path d="M258.761 1001.47L1182.95 1001.47" stroke="#2C2261"/>
<path d="M299.804 1012.84L1141.9 1012.84" stroke="#2C2261"/>
<path d="M334 1052H1106" stroke="#2C2261"/>
<path d="M334 1119H1106" stroke="#2C2261"/>
<path d="M334 1186H1106" stroke="#2C2261"/>
<path d="M334 1253H1106" stroke="#2C2261"/>
<path d="M1.53125 -115.5V906.566C1.53125 920.016 10.4826 931.822 23.4329 935.452L312.578 1016.52C325.528 1020.15 334.479 1031.95 334.479 1045.4V1457.5" stroke="#2C2261"/>
<path d="M1439.47 -116V906.566C1439.47 920.016 1430.52 931.822 1417.57 935.452L1128.42 1016.52C1115.47 1020.15 1106.52 1031.95 1106.52 1045.4V1457.5" stroke="#2C2261"/>
<path d="M121.123 -116V907.73C121.123 920.623 129.361 932.075 141.586 936.173L378.537 1015.62C390.762 1019.72 399 1031.17 399 1044.07V1457" stroke="#2C2261"/>
<path d="M1319.88 -115.5V907.73C1319.88 920.623 1311.64 932.075 1299.41 936.173L1062.46 1015.62C1050.24 1019.72 1042 1031.17 1042 1044.07V1457" stroke="#2C2261"/>
<path d="M241.069 -116.5L241.069 909.413C241.069 921.473 248.291 932.361 259.402 937.051L444.667 1015.26C455.778 1019.95 463 1030.84 463 1042.9V1457" stroke="#2C2261"/>
<path d="M1199.93 -116V909.413C1199.93 921.473 1192.71 932.361 1181.6 937.051L996.333 1015.26C985.222 1019.95 978 1030.84 978 1042.9V1457" stroke="#2C2261"/>
<path d="M359 -116V911.58C359 922.461 364.892 932.49 374.397 937.786L511.603 1014.24C521.108 1019.54 527 1029.57 527 1040.45V1457" stroke="#2C2261"/>
<path d="M1082 -116L1082 911.58C1082 922.461 1076.11 932.49 1066.6 937.786L929.397 1014.24C919.892 1019.54 914 1029.57 914 1040.45V1457" stroke="#2C2261"/>
<path d="M478 -114.5V915.307C478 924.238 481.979 932.704 488.854 938.403L580.146 1014.08C587.021 1019.78 591 1028.24 591 1037.18V1457" stroke="#2C2261"/>
<path d="M963 -116V915.307C963 924.238 959.021 932.704 952.146 938.403L860.854 1014.08C853.979 1019.78 850 1028.24 850 1037.18V1457" stroke="#2C2261"/>
<path d="M598 -116.5V921.047C598 926.641 599.564 932.123 602.516 936.875L651.484 1015.71C654.436 1020.47 656 1025.95 656 1031.54V1458" stroke="#2C2261"/>
<path d="M843 -116V921.047C843 926.641 841.436 932.123 838.484 936.875L789.516 1015.71C786.564 1020.47 785 1025.95 785 1031.54V1458" stroke="#2C2261"/>
<path d="M720 1457L720 887.342L720 -116.5" stroke="#2C2261"/>
<path d="M478 831V831C480.133 821.529 487.529 814.133 497 812V812V812C487.529 809.867 480.133 802.471 478 793V793V793C475.867 802.471 468.471 809.867 459 812V812V812C468.471 814.133 475.867 821.529 478 831V831Z" fill="#0E082C" stroke="#2C2261"/>
<path d="M963 831V831C965.133 821.529 972.529 814.133 982 812V812V812C972.529 809.867 965.133 802.471 963 793V793V793C960.867 802.471 953.471 809.867 944 812V812V812C953.471 814.133 960.867 821.529 963 831V831Z" fill="#0E082C" stroke="#2C2261"/>
</g>
<defs>
<linearGradient id="paint0_linear_2004_6060" x1="731" y1="0" x2="731" y2="1360" gradientUnits="userSpaceOnUse">
<stop offset="0.674992" stop-color="#D9D9D9"/>
<stop offset="1" stop-color="#737373" stop-opacity="0"/>
</linearGradient>
</defs>
</svg>
