<svg width="235" height="204" viewBox="0 0 235 204" fill="none" xmlns="http://www.w3.org/2000/svg">
<path d="M45.3416 184.196C43.6337 183.824 42.1452 182.36 41.1524 180.073C40.2211 177.93 39.7821 175.202 39.9184 172.391C40.2311 165.917 43.3859 160.983 47.1061 161.138L68.0887 161.006H68.1153C68.3415 161.018 68.5694 161.048 68.7905 161.096C70.4985 161.469 71.9869 162.933 72.9797 165.22C73.911 167.362 74.3501 170.09 74.2137 172.902C73.9011 179.376 70.7463 184.309 67.026 184.155L46.0434 184.286H46.0168C45.7906 184.274 45.5628 184.245 45.3416 184.196Z" fill="#390176"/>
<path d="M73.2855 171.614C73.2905 172.021 73.2855 172.436 73.2639 172.855C72.9795 178.722 70.1973 183.354 67.0441 183.201L46.0632 183.333C42.9117 183.18 40.5868 178.301 40.8695 172.434C40.8828 172.156 40.9011 171.883 40.926 171.612C41.4166 166.141 44.0858 161.943 47.0876 162.087L68.0686 161.956C70.9955 162.097 73.209 166.314 73.2839 171.612L73.2855 171.614Z" fill="#73EAF4"/>
<g style="mix-blend-mode:multiply" opacity="0.6">
<path d="M73.2855 171.614C73.2905 172.022 73.2855 172.436 73.2639 172.855C72.9795 178.722 70.1973 183.354 67.0441 183.201L46.0632 183.333C42.9117 183.18 40.5868 178.301 40.8695 172.434C40.8828 172.156 40.9011 171.883 40.926 171.612H73.2855V171.614Z" fill="#B2A8C1"/>
</g>
<path d="M169.737 184.196C168.029 183.824 166.541 182.36 165.548 180.073C164.617 177.93 164.178 175.202 164.314 172.391C164.627 165.917 167.781 160.983 171.502 161.138L192.484 161.006H192.511C192.737 161.018 192.965 161.048 193.186 161.096C194.894 161.469 196.382 162.933 197.375 165.22C198.307 167.362 198.746 170.09 198.609 172.902C198.297 179.376 195.142 184.309 191.422 184.155L170.439 184.286H170.412C170.186 184.274 169.958 184.245 169.737 184.196Z" fill="#390176"/>
<path d="M197.681 171.614C197.686 172.021 197.681 172.436 197.659 172.855C197.375 178.722 194.593 183.354 191.44 183.201L170.459 183.333C167.307 183.18 164.982 178.301 165.265 172.434C165.278 172.156 165.297 171.883 165.322 171.612C165.812 166.141 168.481 161.943 171.483 162.087L192.464 161.956C195.391 162.097 197.605 166.314 197.679 171.612L197.681 171.614Z" fill="#73EAF4"/>
<g style="mix-blend-mode:multiply" opacity="0.6">
<path d="M197.681 171.614C197.686 172.022 197.681 172.436 197.659 172.855C197.375 178.722 194.593 183.354 191.44 183.201L170.459 183.333C167.307 183.18 164.982 178.301 165.265 172.434C165.278 172.156 165.297 171.883 165.322 171.612H197.681V171.614Z" fill="#B2A8C1"/>
</g>
<path d="M112.74 203.293C96.9758 203.293 82.2861 201.278 71.3782 197.622C65.96 195.806 61.6827 193.658 58.6676 191.241C55.408 188.628 53.7117 185.768 53.6252 182.744L53.4406 156.124C53.2727 149.988 59.8816 144.119 72.0518 139.6C83.9109 135.195 99.7498 132.504 116.651 132.023C118.439 131.971 120.245 131.946 122.018 131.946C137.782 131.946 152.472 133.961 163.379 137.617C168.798 139.433 173.075 141.581 176.09 143.998C179.35 146.611 181.046 149.471 181.132 152.495L181.317 179.115C181.485 185.251 174.876 191.12 162.706 195.639C150.847 200.044 135.008 202.735 118.106 203.216C116.319 203.268 114.516 203.293 112.745 203.293H112.738H112.74Z" fill="#390176"/>
<path d="M54.5782 182.716C54.9142 194.502 83.3456 203.253 118.08 202.263C152.816 201.273 180.702 190.915 180.366 179.13L180.181 152.52C179.845 140.734 151.414 131.983 116.68 132.973C81.9436 133.963 54.0577 144.321 54.3936 156.106L54.5782 182.716Z" fill="#258399"/>
<path d="M112.555 176.683C96.7896 176.683 82.0999 174.67 71.192 171.012C65.7738 169.196 61.4981 167.048 58.483 164.631C55.2235 162.018 53.5272 159.158 53.4423 156.134C53.2677 149.995 59.8767 144.123 72.0535 139.6C83.9126 135.195 99.7515 132.504 116.653 132.023C118.441 131.971 120.247 131.946 122.02 131.946C137.785 131.946 152.475 133.961 163.383 137.617C168.801 139.433 173.077 141.581 176.092 143.998C179.351 146.611 181.048 149.471 181.133 152.495C181.307 158.634 174.698 164.506 162.521 169.029C150.662 173.434 134.823 176.125 117.922 176.606C116.134 176.658 114.328 176.683 112.555 176.683Z" fill="#390176"/>
<path d="M117.886 175.66C152.622 174.671 180.509 164.315 180.173 152.53C179.838 140.744 151.407 131.991 116.672 132.98C81.9365 133.969 54.0496 144.324 54.3849 156.11C54.7203 167.896 83.1507 176.648 117.886 175.66Z" fill="#48C9CC"/>
<path d="M112.504 172.818C97.8971 172.818 84.3017 171.068 74.222 167.89C69.208 166.309 65.2516 164.438 62.461 162.327C59.4209 160.028 57.8411 157.501 57.7646 154.815C57.6099 149.379 63.7914 144.189 75.17 140.198C86.2159 136.326 100.962 133.946 116.693 133.496C118.462 133.447 120.248 133.42 122.003 133.42C136.609 133.42 150.205 135.17 160.285 138.349C165.299 139.929 169.255 141.8 172.046 143.911C175.086 146.21 176.666 148.737 176.742 151.423C176.897 156.859 170.715 162.049 159.337 166.04C148.291 169.912 133.544 172.293 117.814 172.742C116.044 172.792 114.258 172.818 112.504 172.818Z" fill="#390176"/>
<path d="M117.777 171.798C150.106 170.878 176.076 161.774 175.783 151.463C175.489 141.152 149.043 133.539 116.714 134.459C84.3852 135.38 58.415 144.484 58.7084 154.795C59.0017 165.106 85.4475 172.718 117.777 171.798Z" fill="#73EAF4"/>
<g style="mix-blend-mode:multiply" opacity="0.6">
<path d="M65.5558 149.939C65.4677 146.865 67.3003 143.889 70.673 141.151C60.422 145.252 54.2355 150.518 54.3951 156.106C54.731 167.891 83.1624 176.642 117.897 175.653C143.574 174.921 165.508 169.07 175.066 161.307C163.695 165.853 147.324 168.966 129.057 169.486C94.3215 170.476 65.8901 161.725 65.5558 149.939Z" fill="#B2A8C1"/>
</g>
<path d="M114.104 163.496C102.702 163.496 92.0998 162.265 84.2503 160.03C75.8885 157.648 71.4099 154.386 71.2985 150.593C71.237 148.492 72.5275 146.471 75.1351 144.586C77.4833 142.89 80.8427 141.339 85.12 139.979C93.8011 137.217 105.383 135.509 117.732 135.168C119.219 135.126 120.721 135.106 122.194 135.106C133.596 135.106 144.198 136.337 152.048 138.573C160.409 140.955 164.888 144.217 164.999 148.01C165.061 150.111 163.77 152.132 161.163 154.016C158.815 155.713 155.455 157.263 151.178 158.624C142.497 161.385 130.915 163.094 118.566 163.435C117.079 163.476 115.577 163.496 114.104 163.496Z" fill="#390176"/>
<path d="M158.783 154.436C151.161 158.794 136.034 162.031 118.537 162.515C100.764 163.004 85.2631 160.522 77.5133 156.478C74.2088 154.755 72.3129 152.749 72.2497 150.568C72.0352 143.271 92.4092 136.788 117.759 136.09C143.109 135.391 163.832 140.739 164.046 148.036C164.113 150.297 162.204 152.479 158.783 154.436Z" fill="url(#paint0_linear_2004_5376)"/>
<path d="M155.498 154.022C148.492 158.027 134.587 161.003 118.505 161.447C102.169 161.896 87.9202 159.616 80.7974 155.898C77.7606 154.314 76.0178 152.47 75.9596 150.465C75.7617 143.758 94.4892 137.798 117.79 137.156C141.091 136.514 160.14 141.429 160.337 148.138C160.399 150.216 158.644 152.222 155.5 154.02L155.498 154.022Z" fill="url(#paint1_linear_2004_5376)"/>
<g style="mix-blend-mode:screen" opacity="0.6">
<path d="M149.388 153.25C143.529 156.6 131.9 159.088 118.447 159.461C104.784 159.837 92.8665 157.929 86.9078 154.82C84.3667 153.496 82.9099 151.952 82.8616 150.276C82.697 144.665 98.3595 139.681 117.849 139.144C137.338 138.607 153.27 142.719 153.435 148.329C153.486 150.068 152.018 151.744 149.388 153.25Z" fill="url(#paint2_linear_2004_5376)"/>
</g>
<g opacity="0.4">
<path d="M158.783 154.436C151.161 158.794 136.034 162.031 118.537 162.515C100.764 163.004 85.263 160.522 77.5132 156.478C85.1349 152.119 100.262 148.881 117.759 148.399C135.533 147.91 151.033 150.392 158.783 154.436Z" fill="url(#paint3_linear_2004_5376)"/>
</g>
<g style="mix-blend-mode:screen" opacity="0.51">
<path d="M234.097 0H0L76.9526 152.052C77.005 153.98 78.5748 155.753 81.311 157.277C87.728 160.852 103.565 163.046 118.281 162.614C132.769 162.186 148.296 159.324 154.607 155.471C157.439 153.742 159.02 151.812 158.965 149.814L234.097 0Z" fill="url(#paint4_linear_2004_5376)"/>
<path d="M193.88 52.8218H43.2178L88.8945 148.829C88.9342 150.579 90.1257 152.189 92.2023 153.572C97.0727 156.817 106.814 158.809 117.984 158.417C128.98 158.028 138.486 155.43 143.276 151.933C145.426 150.363 146.626 148.612 146.584 146.797L193.88 52.8218Z" fill="url(#paint5_linear_2004_5376)"/>
</g>
<g style="mix-blend-mode:multiply" opacity="0.6">
<path d="M158.783 154.436C151.161 158.794 136.034 162.031 118.537 162.515C100.764 163.004 85.263 160.522 77.5132 156.478C85.1349 152.119 100.262 148.881 117.759 148.399C135.533 147.91 151.033 150.392 158.783 154.436Z" fill="#B2A8C1"/>
</g>
<path d="M64.1006 200.716C62.3527 200.716 60.5866 199.603 59.1281 197.58C57.761 195.686 56.7516 193.114 56.2859 190.338C55.2116 183.947 57.2422 178.452 60.9108 177.81L81.3829 173.208L81.4079 173.203C81.6307 173.164 81.8586 173.146 82.0864 173.146C83.8343 173.146 85.6004 174.259 87.0589 176.282C88.4259 178.176 89.4354 180.748 89.901 183.524C90.9754 189.915 88.9448 195.409 85.2761 196.052L64.804 200.654L64.7791 200.659C64.5562 200.697 64.3284 200.716 64.1006 200.716Z" fill="#390176"/>
<path d="M85.0917 195.117L64.6213 199.72C61.8639 200.184 58.9503 196.883 57.6448 192.094C57.4768 191.479 57.3355 190.838 57.224 190.18C56.2495 184.388 57.9824 179.269 61.0939 178.745L71.5927 176.385L81.5644 174.143C84.6759 173.619 87.987 177.89 88.9616 183.682C89.0597 184.263 89.1295 184.837 89.1728 185.397C89.5752 190.453 87.8922 194.644 85.0917 195.117Z" fill="#73EAF4"/>
<g style="mix-blend-mode:multiply" opacity="0.6">
<path d="M85.0914 195.117L64.621 199.719C61.8637 200.183 58.95 196.883 57.6445 192.094L77.9619 187.779C77.8056 183.572 75.7002 178.281 71.5941 176.386L81.5658 174.144C84.6773 173.62 87.9884 177.892 88.963 183.684C89.0611 184.264 89.131 184.838 89.1742 185.399C89.5766 190.454 87.8936 194.646 85.0931 195.118L85.0914 195.117Z" fill="#B2A8C1"/>
</g>
<path d="M64.1003 200.716C62.3525 200.716 60.5863 199.603 59.1278 197.58C57.7608 195.685 56.7513 193.114 56.2857 190.337C55.208 183.93 57.2519 178.426 60.9372 177.805C61.1601 177.767 61.3879 177.749 61.6157 177.749C63.3636 177.749 65.1298 178.861 66.5882 180.884C67.9553 182.779 68.9647 185.35 69.4304 188.127C70.508 194.534 68.4642 200.039 64.7789 200.659C64.556 200.697 64.3282 200.716 64.1003 200.716Z" fill="#390176"/>
<path d="M64.6324 199.712C67.7436 199.188 69.4761 194.069 68.5019 188.277C67.5277 182.485 64.2158 178.214 61.1046 178.738C57.9933 179.262 56.2609 184.381 57.2351 190.173C58.2093 195.965 61.5212 200.236 64.6324 199.712Z" fill="#579DC4"/>
<g style="mix-blend-mode:multiply" opacity="0.6">
<path d="M64.7875 196.226C61.676 196.75 58.3649 192.478 57.3903 186.686C57.2639 185.936 57.1841 185.198 57.1458 184.479C56.8748 186.182 56.8798 188.139 57.224 190.18C58.1986 195.972 61.5097 200.243 64.6212 199.719C67.3303 199.264 68.9934 195.325 68.7356 190.492C68.2384 193.62 66.8015 195.889 64.7875 196.226Z" fill="#B2A8C1"/>
</g>
<path d="M175.548 200.716C177.296 200.716 179.062 199.603 180.52 197.58C181.887 195.686 182.897 193.114 183.362 190.338C184.437 183.947 182.406 178.452 178.738 177.81L158.265 173.208L158.241 173.203C158.018 173.164 157.79 173.146 157.562 173.146C155.814 173.146 154.048 174.259 152.589 176.282C151.222 178.176 150.213 180.748 149.747 183.524C148.673 189.915 150.704 195.409 154.372 196.052L174.844 200.654L174.869 200.659C175.092 200.697 175.32 200.716 175.548 200.716Z" fill="#390176"/>
<path d="M154.557 195.117L175.027 199.72C177.785 200.184 180.698 196.883 182.004 192.094C182.172 191.479 182.313 190.838 182.424 190.18C183.399 184.388 181.666 179.269 178.554 178.745L168.056 176.385L158.084 174.143C154.973 173.619 151.661 177.89 150.687 183.682C150.589 184.263 150.519 184.837 150.476 185.397C150.073 190.453 151.756 194.644 154.557 195.117Z" fill="#73EAF4"/>
<g style="mix-blend-mode:multiply" opacity="0.6">
<path d="M154.557 195.117L175.027 199.719C177.785 200.183 180.698 196.883 182.004 192.094L161.686 187.779C161.843 183.572 163.948 178.281 168.054 176.386L158.083 174.144C154.971 173.62 151.66 177.892 150.685 183.684C150.587 184.264 150.517 184.838 150.474 185.399C150.072 190.454 151.755 194.646 154.555 195.118L154.557 195.117Z" fill="#B2A8C1"/>
</g>
<path d="M175.548 200.716C177.296 200.716 179.062 199.603 180.52 197.58C181.887 195.685 182.897 193.114 183.363 190.337C184.44 183.93 182.396 178.426 178.711 177.805C178.488 177.767 178.26 177.749 178.032 177.749C176.285 177.749 174.518 178.861 173.06 180.884C171.693 182.779 170.683 185.35 170.218 188.127C169.14 194.534 171.184 200.039 174.869 200.659C175.092 200.697 175.32 200.716 175.548 200.716Z" fill="#390176"/>
<path d="M182.435 190.195C183.41 184.403 181.677 179.284 178.566 178.76C175.455 178.237 172.143 182.507 171.169 188.299C170.195 194.091 171.927 199.211 175.038 199.734C178.149 200.258 181.461 195.987 182.435 190.195Z" fill="#579DC4"/>
<g style="mix-blend-mode:multiply" opacity="0.6">
<path d="M174.861 196.226C177.973 196.75 181.284 192.478 182.258 186.686C182.385 185.936 182.464 185.198 182.503 184.479C182.774 186.182 182.769 188.139 182.425 190.18C181.45 195.972 178.139 200.243 175.027 199.719C172.318 199.264 170.655 195.325 170.913 190.492C171.41 193.62 172.847 195.889 174.861 196.226Z" fill="#B2A8C1"/>
</g>
<g filter="url(#filter0_f_2004_5376)">
<path d="M162.546 37.8266L168.591 32.7947L168.583 32.6616L168.694 32.645L168.58 32.5984L168.172 25.5954L161.635 16.849L152.54 10.2219L142.232 7.43066L135.467 10.0306L133.423 17.0054L136.087 21.4584L131.426 23.4013L113.905 20.126L113.814 20.1094L95.863 23.4662L95.7715 23.4828L80.2454 33.0991L80.1655 33.1474L69.1046 47.7989L64.0806 65.4579L65.7735 83.7391L73.9557 100.174L87.5212 112.543L104.551 119.142L104.637 119.175H122.992L140.022 112.576L140.108 112.543L153.674 100.174L161.856 83.7391L163.549 65.4579L158.551 47.8887L158.527 47.7989L154.093 41.927L155.914 37.2993L162.546 37.8266ZM162.539 65.5511L162.531 65.6476L147.274 75.8527L154.879 59.3831L162.456 65.2566L162.539 65.5494V65.5511ZM160.738 83.7441L152.174 88.2736L147.206 76.6728L160.848 83.5245L160.738 83.7441ZM152.864 99.5617L152.727 99.6864L136.099 99.229L151.954 88.7959L153.033 99.2207L152.862 99.5633L152.864 99.5617ZM74.7556 99.5367L74.7357 99.4968L78.4992 91.9864L85.8847 95.2135L74.7573 99.5384L74.7556 99.5367ZM66.7747 83.5062L82.9977 74.4954L78.3196 91.5023L66.951 83.8605L66.7747 83.5045V83.5062ZM65.0934 65.5511L65.1399 65.3864L75.9148 59.3564L82.9112 73.8117L65.0934 65.5561V65.5511ZM70.0143 48.2514L70.2022 48.0035L79.2891 45.2306L75.9264 58.6861L69.9711 48.4027L70.0143 48.2514ZM142.515 8.53851L146.398 13.4057L144.261 16.4298L136.538 10.6877L142.289 8.47696L142.516 8.53851H142.515ZM167.369 32.5136L161.094 33.4884L159.316 29.1601L167.412 32.477L167.369 32.5136ZM152.007 29.4695L151.372 20.0994L156.177 24.4409L156.187 24.5141L156.235 24.5175L158.776 28.8075L155.616 36.2746L155.511 36.2663L152.007 29.4712V29.4695ZM109.094 96.2281L121.078 92.9878L113.227 107.44L109.093 96.2281H109.094ZM78.6189 91.6753L83.3569 74.4488L97.2034 85.7435L86.2922 95.0288L78.6206 91.677L78.6189 91.6753ZM79.66 45.1174L79.6783 45.1125L79.6816 45.0659L91.2763 34.7393L89.9858 51.352L89.9476 51.3653L89.9525 51.3869L76.2407 58.7992L79.66 45.1174ZM122.113 34.686L108.595 44.7848L91.8517 34.3783L110.498 27.4967L122.113 34.686ZM131.447 24.4759L131.519 24.4459L131.71 24.564L134.758 33.4235L122.803 34.4715L131.447 24.4759ZM146.556 76.4017L137.727 84.9933L126.515 70.5747L146.556 76.4017ZM121.269 92.5935L108.979 95.9171L108.941 95.8139L108.87 95.8871L97.6608 85.6969L125.833 70.5863L121.269 92.5935ZM94.6057 71.3265L97.1386 85.2611L83.623 74.2359L94.6057 71.3265ZM91.6206 34.6262L108.223 44.9444L90.3317 51.2322L91.6206 34.6262ZM127.138 46.6245L109.048 44.8629L122.335 34.9356L127.138 46.6245ZM97.5011 85.4042L94.9267 71.2417L95.1778 71.1751L125.374 70.4549L97.5028 85.4042H97.5011ZM94.9117 70.8491L90.3417 51.5815L108.54 45.1856L125.755 70.1122L94.9117 70.8491ZM108.945 45.1873L127.221 46.9672L125.928 69.7779L108.945 45.1873ZM94.5442 70.7427L76.3156 59.1385L90.0324 51.7246L94.5442 70.7427ZM127.552 47.0138L142.618 49.7784L126.258 69.7729L127.551 47.0138H127.552ZM127.571 46.6794V46.6661L127.512 46.6611L122.648 34.8191L134.886 33.7462L142.631 49.4407L127.572 46.6777L127.571 46.6794ZM94.3912 71.0387L83.3536 73.9631L76.3921 59.581L94.3912 71.0387ZM97.2899 86.1045L96.9689 107.583L86.5533 95.2401L97.2899 86.1045ZM97.6225 86.1111L108.634 96.1217L97.3015 107.618L97.6225 86.1111ZM126.155 70.6562L137.532 85.2861L135.435 99.1342L121.599 92.6318L126.155 70.6562ZM137.863 85.321L146.817 76.6079L151.884 88.4416L135.786 99.0344L137.863 85.3193V85.321ZM126.503 70.2237L126.757 70.0873L126.423 70.0956L142.949 49.8965L154.608 59.1735L146.782 76.1205L126.501 70.2237H126.503ZM135.251 33.7362L146.448 33.6913L146.78 33.8976L146.834 33.9691L142.876 49.1895L135.251 33.7346V33.7362ZM144.6 28.0972L146.529 32.5702L138.814 27.7928L144.6 28.0988V28.0972ZM144.369 22.6378L151.026 19.943L151.661 29.3065L144.866 27.8011L144.371 22.6394L144.369 22.6378ZM137.328 21.5898L137.311 21.5632L144.311 16.8557L150.748 19.6952L144.168 22.36L137.328 21.5898ZM146.604 13.6885L150.679 19.3026L144.637 16.6378L144.808 16.523L144.607 16.5147L146.604 13.6902V13.6885ZM156.108 23.9353L151.517 19.7867L155.443 18.7686L156.11 23.9369L156.108 23.9353ZM155.962 36.3029L158.969 29.2L160.778 33.6031L156.055 36.3096L155.962 36.3029ZM158.974 28.3367L158.936 28.4282L156.639 24.5507L161.909 24.9583L159.049 28.5164L158.974 28.3351V28.3367ZM156.479 24.2047L155.768 18.6855L160.817 17.4878L160.925 17.566L161.204 17.9386L162.046 24.6356L156.479 24.2047ZM155.724 18.3544V18.3511L155.681 18.3628L152.944 11.7523L160.462 17.2316L155.724 18.3561V18.3544ZM155.357 18.4459L151.329 19.4906V19.4623L151.234 19.4989L146.855 13.4656L151.874 11.0736L152.101 11.1351L152.428 11.3747L155.357 18.4459ZM146.656 13.1928L146.601 13.1163L146.594 13.1246L143.055 8.68656L151.38 10.9405L146.656 13.1911V13.1928ZM136.253 10.8956L143.764 16.4781L137.341 16.2136L136.197 11.0852L136.252 10.8956H136.253ZM137.361 16.5479L143.782 16.8108L137.141 21.2754L137.025 21.0808L137.361 16.5479ZM137.517 21.9441L144.04 22.6794L144.529 27.7595L138.227 27.4268L137.349 26.8829L137.013 22.1554L137.519 21.9441H137.517ZM145.912 33.3603L135.101 33.4035L132.154 24.8402L145.912 33.3619V33.3603ZM122.428 34.39L114.384 21.2289L131.106 24.3561L122.428 34.39ZM113.814 21.1224L113.944 21.1473L121.898 34.1621L110.729 27.2488L113.741 21.1357L113.812 21.1224H113.814ZM110.423 27.1191L97.5793 24.1582L113.333 21.2122L110.423 27.1191ZM96.1374 24.4276L96.7611 24.3112L109.934 27.347L91.7786 34.0473L95.8564 24.6023L96.1374 24.4276ZM91.3961 34.0955L91.3279 34.0523L91.3196 34.1604L81.5941 33.4351L95.3624 24.9084L91.3977 34.0955H91.3961ZM80.849 33.8976L81.1135 33.7346L91.0701 34.4764L79.7215 44.5835L80.6146 34.2086L80.849 33.8992V33.8976ZM96.8558 107.967L88.2163 111.743L88.055 111.68L87.9053 111.543L86.5283 95.7308L96.8558 107.969V107.967ZM96.9573 108.286V108.443L97.107 108.288L103.919 117.828L88.657 111.914L96.9573 108.288V108.286ZM97.3448 108.047L108.808 96.4194L113.009 107.814L104.91 118.177H104.825L104.486 118.046L97.3464 108.047H97.3448ZM113.145 108.18L113.169 108.245L113.232 108.13L122.231 118.177H105.332L113.145 108.18ZM122.808 118.177H122.678L113.401 107.819L121.482 92.9429L135.294 99.4336L125.67 110.076L125.62 110.07L122.906 118.136L122.808 118.174V118.177ZM125.848 110.437L138.488 112.101L123.31 117.983L125.848 110.437ZM139.135 111.849L126.071 110.131L135.5 99.7031L139.53 111.698L139.135 111.851V111.849ZM143.346 49.785L157.612 48.2414L157.618 48.2497L157.725 48.6206L154.728 58.8391L143.348 49.785H143.346ZM143.147 49.4723L147.091 34.3068L157.379 47.932L143.148 49.4723H143.147ZM147.52 33.2222L147.464 33.1474L147.023 32.8746L144.993 28.1687L151.73 29.6625L155.199 36.3894L155.179 36.4393L147.813 33.6098L147.52 33.2222ZM162.218 36.8003L156.644 36.3561L161.044 33.8344L166.868 32.9295L162.217 36.8003H162.218ZM159.262 28.7809L162.303 24.9965L167.109 25.8399L167.191 25.9497L167.554 32.1759L159.262 28.7792V28.7809ZM166.82 25.4523L162.543 24.7004L162.564 24.6738L162.385 24.6605L161.608 18.4775L166.822 25.4523H166.82ZM134.504 16.8673L136.004 11.7456L137.038 16.3866L136.727 20.5851L134.504 16.8673ZM136.687 22.2901L136.998 26.6666L132.65 23.9735L136.687 22.2901ZM80.2387 34.7077L79.3639 44.8596L70.5415 47.551L80.2387 34.7077ZM69.843 48.8485L75.7568 59.0604L75.6587 59.1136L75.662 59.1169L65.268 64.9339L69.843 48.8502V48.8485ZM65.1283 65.9387L82.8963 74.171L66.7231 83.1535L65.1283 65.937V65.9387ZM67.2503 84.4643L78.2048 91.8267L74.5494 99.1242L67.252 84.4643H67.2503ZM75.0184 99.7912L86.1725 95.4563L87.5445 111.212L75.0184 99.7912ZM139.802 111.472L135.799 99.5533L152.373 100.011L139.802 111.474V111.472ZM153.311 98.6634L152.268 88.5996L160.484 84.2547L153.311 98.6617V98.6634ZM160.905 83.1818L147.203 76.3002L162.488 66.0751L160.903 83.1818H160.905ZM162.302 64.7177L155.008 59.062L157.895 49.2211L162.302 64.716V64.7177ZM148.192 34.1105L155.057 36.747L153.388 40.9921L148.192 34.1105Z" fill="#53FFFF"/>
</g>
<path d="M162.546 37.8266L168.591 32.7947L168.583 32.6616L168.694 32.645L168.58 32.5984L168.172 25.5954L161.635 16.849L152.54 10.2219L142.232 7.43066L135.467 10.0306L133.423 17.0054L136.087 21.4584L131.426 23.4013L113.905 20.126L113.814 20.1094L95.863 23.4662L95.7715 23.4828L80.2454 33.0991L80.1655 33.1474L69.1046 47.7989L64.0806 65.4579L65.7735 83.7391L73.9557 100.174L87.5212 112.543L104.551 119.142L104.637 119.175H122.992L140.022 112.576L140.108 112.543L153.674 100.174L161.856 83.7391L163.549 65.4579L158.551 47.8887L158.527 47.7989L154.093 41.927L155.914 37.2993L162.546 37.8266ZM162.539 65.5511L162.531 65.6476L147.274 75.8527L154.879 59.3831L162.456 65.2566L162.539 65.5494V65.5511ZM160.738 83.7441L152.174 88.2736L147.206 76.6728L160.848 83.5245L160.738 83.7441ZM152.864 99.5617L152.727 99.6864L136.099 99.229L151.954 88.7959L153.033 99.2207L152.862 99.5633L152.864 99.5617ZM74.7556 99.5367L74.7357 99.4968L78.4992 91.9864L85.8847 95.2135L74.7573 99.5384L74.7556 99.5367ZM66.7747 83.5062L82.9977 74.4954L78.3196 91.5023L66.951 83.8605L66.7747 83.5045V83.5062ZM65.0934 65.5511L65.1399 65.3864L75.9148 59.3564L82.9112 73.8117L65.0934 65.5561V65.5511ZM70.0143 48.2514L70.2022 48.0035L79.2891 45.2306L75.9264 58.6861L69.9711 48.4027L70.0143 48.2514ZM142.515 8.53851L146.398 13.4057L144.261 16.4298L136.538 10.6877L142.289 8.47696L142.516 8.53851H142.515ZM167.369 32.5136L161.094 33.4884L159.316 29.1601L167.412 32.477L167.369 32.5136ZM152.007 29.4695L151.372 20.0994L156.177 24.4409L156.187 24.5141L156.235 24.5175L158.776 28.8075L155.616 36.2746L155.511 36.2663L152.007 29.4712V29.4695ZM109.094 96.2281L121.078 92.9878L113.227 107.44L109.093 96.2281H109.094ZM78.6189 91.6753L83.3569 74.4488L97.2034 85.7435L86.2922 95.0288L78.6206 91.677L78.6189 91.6753ZM79.66 45.1174L79.6783 45.1125L79.6816 45.0659L91.2763 34.7393L89.9858 51.352L89.9476 51.3653L89.9525 51.3869L76.2407 58.7992L79.66 45.1174ZM122.113 34.686L108.595 44.7848L91.8517 34.3783L110.498 27.4967L122.113 34.686ZM131.447 24.4759L131.519 24.4459L131.71 24.564L134.758 33.4235L122.803 34.4715L131.447 24.4759ZM146.556 76.4017L137.727 84.9933L126.515 70.5747L146.556 76.4017ZM121.269 92.5935L108.979 95.9171L108.941 95.8139L108.87 95.8871L97.6608 85.6969L125.833 70.5863L121.269 92.5935ZM94.6057 71.3265L97.1386 85.2611L83.623 74.2359L94.6057 71.3265ZM91.6206 34.6262L108.223 44.9444L90.3317 51.2322L91.6206 34.6262ZM127.138 46.6245L109.048 44.8629L122.335 34.9356L127.138 46.6245ZM97.5011 85.4042L94.9267 71.2417L95.1778 71.1751L125.374 70.4549L97.5028 85.4042H97.5011ZM94.9117 70.8491L90.3417 51.5815L108.54 45.1856L125.755 70.1122L94.9117 70.8491ZM108.945 45.1873L127.221 46.9672L125.928 69.7779L108.945 45.1873ZM94.5442 70.7427L76.3156 59.1385L90.0324 51.7246L94.5442 70.7427ZM127.552 47.0138L142.618 49.7784L126.258 69.7729L127.551 47.0138H127.552ZM127.571 46.6794V46.6661L127.512 46.6611L122.648 34.8191L134.886 33.7462L142.631 49.4407L127.572 46.6777L127.571 46.6794ZM94.3912 71.0387L83.3536 73.9631L76.3921 59.581L94.3912 71.0387ZM97.2899 86.1045L96.9689 107.583L86.5533 95.2401L97.2899 86.1045ZM97.6225 86.1111L108.634 96.1217L97.3015 107.618L97.6225 86.1111ZM126.155 70.6562L137.532 85.2861L135.435 99.1342L121.599 92.6318L126.155 70.6562ZM137.863 85.321L146.817 76.6079L151.884 88.4416L135.786 99.0344L137.863 85.3193V85.321ZM126.503 70.2237L126.757 70.0873L126.423 70.0956L142.949 49.8965L154.608 59.1735L146.782 76.1205L126.501 70.2237H126.503ZM135.251 33.7362L146.448 33.6913L146.78 33.8976L146.834 33.9691L142.876 49.1895L135.251 33.7346V33.7362ZM144.6 28.0972L146.529 32.5702L138.814 27.7928L144.6 28.0988V28.0972ZM144.369 22.6378L151.026 19.943L151.661 29.3065L144.866 27.8011L144.371 22.6394L144.369 22.6378ZM137.328 21.5898L137.311 21.5632L144.311 16.8557L150.748 19.6952L144.168 22.36L137.328 21.5898ZM146.604 13.6885L150.679 19.3026L144.637 16.6378L144.808 16.523L144.607 16.5147L146.604 13.6902V13.6885ZM156.108 23.9353L151.517 19.7867L155.443 18.7686L156.11 23.9369L156.108 23.9353ZM155.962 36.3029L158.969 29.2L160.778 33.6031L156.055 36.3096L155.962 36.3029ZM158.974 28.3367L158.936 28.4282L156.639 24.5507L161.909 24.9583L159.049 28.5164L158.974 28.3351V28.3367ZM156.479 24.2047L155.768 18.6855L160.817 17.4878L160.925 17.566L161.204 17.9386L162.046 24.6356L156.479 24.2047ZM155.724 18.3544V18.3511L155.681 18.3628L152.944 11.7523L160.462 17.2316L155.724 18.3561V18.3544ZM155.357 18.4459L151.329 19.4906V19.4623L151.234 19.4989L146.855 13.4656L151.874 11.0736L152.101 11.1351L152.428 11.3747L155.357 18.4459ZM146.656 13.1928L146.601 13.1163L146.594 13.1246L143.055 8.68656L151.38 10.9405L146.656 13.1911V13.1928ZM136.253 10.8956L143.764 16.4781L137.341 16.2136L136.197 11.0852L136.252 10.8956H136.253ZM137.361 16.5479L143.782 16.8108L137.141 21.2754L137.025 21.0808L137.361 16.5479ZM137.517 21.9441L144.04 22.6794L144.529 27.7595L138.227 27.4268L137.349 26.8829L137.013 22.1554L137.519 21.9441H137.517ZM145.912 33.3603L135.101 33.4035L132.154 24.8402L145.912 33.3619V33.3603ZM122.428 34.39L114.384 21.2289L131.106 24.3561L122.428 34.39ZM113.814 21.1224L113.944 21.1473L121.898 34.1621L110.729 27.2488L113.741 21.1357L113.812 21.1224H113.814ZM110.423 27.1191L97.5793 24.1582L113.333 21.2122L110.423 27.1191ZM96.1374 24.4276L96.7611 24.3112L109.934 27.347L91.7786 34.0473L95.8564 24.6023L96.1374 24.4276ZM91.3961 34.0955L91.3279 34.0523L91.3196 34.1604L81.5941 33.4351L95.3624 24.9084L91.3977 34.0955H91.3961ZM80.849 33.8976L81.1135 33.7346L91.0701 34.4764L79.7215 44.5835L80.6146 34.2086L80.849 33.8992V33.8976ZM96.8558 107.967L88.2163 111.743L88.055 111.68L87.9053 111.543L86.5283 95.7308L96.8558 107.969V107.967ZM96.9573 108.286V108.443L97.107 108.288L103.919 117.828L88.657 111.914L96.9573 108.288V108.286ZM97.3448 108.047L108.808 96.4194L113.009 107.814L104.91 118.177H104.825L104.486 118.046L97.3464 108.047H97.3448ZM113.145 108.18L113.169 108.245L113.232 108.13L122.231 118.177H105.332L113.145 108.18ZM122.808 118.177H122.678L113.401 107.819L121.482 92.9429L135.294 99.4336L125.67 110.076L125.62 110.07L122.906 118.136L122.808 118.174V118.177ZM125.848 110.437L138.488 112.101L123.31 117.983L125.848 110.437ZM139.135 111.849L126.071 110.131L135.5 99.7031L139.53 111.698L139.135 111.851V111.849ZM143.346 49.785L157.612 48.2414L157.618 48.2497L157.725 48.6206L154.728 58.8391L143.348 49.785H143.346ZM143.147 49.4723L147.091 34.3068L157.379 47.932L143.148 49.4723H143.147ZM147.52 33.2222L147.464 33.1474L147.023 32.8746L144.993 28.1687L151.73 29.6625L155.199 36.3894L155.179 36.4393L147.813 33.6098L147.52 33.2222ZM162.218 36.8003L156.644 36.3561L161.044 33.8344L166.868 32.9295L162.217 36.8003H162.218ZM159.262 28.7809L162.303 24.9965L167.109 25.8399L167.191 25.9497L167.554 32.1759L159.262 28.7792V28.7809ZM166.82 25.4523L162.543 24.7004L162.564 24.6738L162.385 24.6605L161.608 18.4775L166.822 25.4523H166.82ZM134.504 16.8673L136.004 11.7456L137.038 16.3866L136.727 20.5851L134.504 16.8673ZM136.687 22.2901L136.998 26.6666L132.65 23.9735L136.687 22.2901ZM80.2387 34.7077L79.3639 44.8596L70.5415 47.551L80.2387 34.7077ZM69.843 48.8485L75.7568 59.0604L75.6587 59.1136L75.662 59.1169L65.268 64.9339L69.843 48.8502V48.8485ZM65.1283 65.9387L82.8963 74.171L66.7231 83.1535L65.1283 65.937V65.9387ZM67.2503 84.4643L78.2048 91.8267L74.5494 99.1242L67.252 84.4643H67.2503ZM75.0184 99.7912L86.1725 95.4563L87.5445 111.212L75.0184 99.7912ZM139.802 111.472L135.799 99.5533L152.373 100.011L139.802 111.474V111.472ZM153.311 98.6634L152.268 88.5996L160.484 84.2547L153.311 98.6617V98.6634ZM160.905 83.1818L147.203 76.3002L162.488 66.0751L160.903 83.1818H160.905ZM162.302 64.7177L155.008 59.062L157.895 49.2211L162.302 64.716V64.7177ZM148.192 34.1105L155.057 36.747L153.388 40.9921L148.192 34.1105Z" fill="#53FFFF"/>
<defs>
<filter id="filter0_f_2004_5376" x="59.0806" y="2.43066" width="114.614" height="121.745" filterUnits="userSpaceOnUse" color-interpolation-filters="sRGB">
<feFlood flood-opacity="0" result="BackgroundImageFix"/>
<feBlend mode="normal" in="SourceGraphic" in2="BackgroundImageFix" result="shape"/>
<feGaussianBlur stdDeviation="2.5" result="effect1_foregroundBlur_2004_5376"/>
</filter>
<linearGradient id="paint0_linear_2004_5376" x1="72.2481" y1="149.302" x2="164.048" y2="149.302" gradientUnits="userSpaceOnUse">
<stop stop-color="#84CFE3"/>
<stop offset="1" stop-color="#BACFE3"/>
</linearGradient>
<linearGradient id="paint1_linear_2004_5376" x1="75.9562" y1="149.302" x2="160.339" y2="149.302" gradientUnits="userSpaceOnUse">
<stop stop-color="#84CFE3"/>
<stop offset="1" stop-color="#BACFE3"/>
</linearGradient>
<linearGradient id="paint2_linear_2004_5376" x1="82.86" y1="149.302" x2="153.436" y2="149.302" gradientUnits="userSpaceOnUse">
<stop stop-color="white" stop-opacity="0"/>
<stop offset="0.22" stop-color="white" stop-opacity="0.24"/>
<stop offset="0.6" stop-color="white" stop-opacity="0.64"/>
<stop offset="0.87" stop-color="white" stop-opacity="0.9"/>
<stop offset="1" stop-color="white"/>
</linearGradient>
<linearGradient id="paint3_linear_2004_5376" x1="77.5132" y1="155.457" x2="158.783" y2="155.457" gradientUnits="userSpaceOnUse">
<stop stop-color="#86CFE4"/>
<stop offset="0.31" stop-color="#6CC9DF"/>
<stop offset="0.96" stop-color="#2BB9D4"/>
<stop offset="1" stop-color="#28B9D4"/>
</linearGradient>
<linearGradient id="paint4_linear_2004_5376" x1="117.046" y1="19.3252" x2="117.045" y2="137.853" gradientUnits="userSpaceOnUse">
<stop stop-color="#7F38FE" stop-opacity="0"/>
<stop offset="1" stop-color="#5FC4FD" stop-opacity="0.63"/>
</linearGradient>
<linearGradient id="paint5_linear_2004_5376" x1="117.046" y1="60.9251" x2="117.045" y2="135.94" gradientUnits="userSpaceOnUse">
<stop stop-color="#5FC4FD" stop-opacity="0"/>
<stop offset="1" stop-color="#5FC4FD"/>
</linearGradient>
</defs>
</svg>
