<svg width="38" height="38" viewBox="0 0 38 38" fill="none" xmlns="http://www.w3.org/2000/svg">
<circle cx="19" cy="19" r="19" fill="url(#paint0_radial_321_2046)"/>
<path d="M29 10V12C29 13.8565 28.2625 15.637 26.9497 16.9497C25.637 18.2625 23.8565 19 22 19H21V20H26V27C26 27.5304 25.7893 28.0391 25.4142 28.4142C25.0391 28.7893 24.5304 29 24 29H16C15.4696 29 14.9609 28.7893 14.5858 28.4142C14.2107 28.0391 14 27.5304 14 27V20H19V17C19 15.1435 19.7375 13.363 21.0503 12.0503C22.363 10.7375 24.1435 10 26 10H29ZM13.5 9C14.7 8.99903 15.8826 9.28639 16.9484 9.83788C18.0141 10.3894 18.9317 11.1888 19.624 12.169C18.568 13.5579 17.9974 15.2552 18 17V18H17.5C15.5109 18 13.6032 17.2098 12.1967 15.8033C10.7902 14.3968 10 12.4891 10 10.5V9H13.5Z" fill="#5AB6E9"/>
<defs>
<radialGradient id="paint0_radial_321_2046" cx="0" cy="0" r="1" gradientUnits="userSpaceOnUse" gradientTransform="translate(19 19) rotate(90) scale(17.5)">
<stop stop-color="#2994D0" stop-opacity="0.58"/>
<stop offset="1" stop-color="#154B6A" stop-opacity="0"/>
</radialGradient>
</defs>
</svg>
