<svg width="408" height="216" viewBox="0 0 408 216" fill="none" xmlns="http://www.w3.org/2000/svg">
<g clip-path="url(#clip0_2238_31516)">
<path fill-rule="evenodd" clip-rule="evenodd" d="M342.733 88.9773V127.023H393V128.25H342.733V166.295H393V167.523H342.733V216H341.507V167.523H303.501L303.501 216H302.275L302.275 167.523H264.268V216H263.042V167.523H225.036V216H223.81V167.523H185.803L185.803 216H184.577L184.577 167.523H146.571L146.571 216H145.345L145.345 167.523H107.338L107.338 216H106.112L106.112 167.523H68.1057L68.1057 216H66.8797L66.8797 167.523H16V166.295H66.8797L66.8797 128.25H16V127.023H66.8797V88.9773H16V87.75H66.8797L66.8797 49.7045H16V48.4773H66.8797L66.8797 0H68.1057L68.1057 48.4773H106.112V0H107.338V48.4773H145.345V0H146.571V48.4773H184.577V0H185.803V48.4773H223.81V0H225.036V48.4773H263.042V0H264.268V48.4773H302.275V0H303.501V48.4773H341.507V0H342.733V48.4773H393V49.7045H342.733V87.75H393V88.9773H342.733ZM341.507 88.9773V127.023H303.501V88.9773H341.507ZM68.1057 49.7045L68.1057 87.75H106.112L106.112 49.7045H68.1057ZM68.1057 88.9773H106.112V127.023H68.1057V88.9773ZM68.1057 128.25L68.1057 166.295H106.112V128.25H68.1057ZM263.042 166.295H225.036V128.25H263.042V166.295ZM185.803 127.023H223.81L223.81 88.9773H185.803V127.023ZM225.036 88.9773L225.036 127.023H263.042L263.042 88.9773H225.036ZM263.042 87.75H225.036V49.7045H263.042V87.75ZM185.803 49.7045H223.81V87.75H185.803V49.7045ZM223.81 166.295V128.25H185.803V166.295H223.81ZM107.338 166.295H145.345V128.25H107.338V166.295ZM146.571 166.295H184.577V128.25H146.571V166.295ZM264.268 166.295H302.275V128.25H264.268V166.295ZM303.501 166.295H341.507V128.25H303.501V166.295ZM145.345 127.023H107.338V88.9773H145.345V127.023ZM145.345 87.75H107.338L107.338 49.7045H145.345V87.75ZM264.268 87.75V49.7045H302.275V87.75H264.268ZM264.268 88.9773H302.275V127.023H264.268L264.268 88.9773ZM184.577 88.9773V127.023H146.571V88.9773H184.577ZM146.571 87.75H184.577V49.7045H146.571L146.571 87.75ZM303.501 49.7045V87.75H341.507V49.7045H303.501Z" fill="url(#paint0_radial_2238_31516)"/>
<mask id="mask0_2238_31516" style="mask-type:alpha" maskUnits="userSpaceOnUse" x="0" y="31" width="408" height="154">
<rect y="31" width="408" height="154" fill="url(#paint1_linear_2238_31516)"/>
</mask>
<g mask="url(#mask0_2238_31516)">
<mask id="mask1_2238_31516" style="mask-type:alpha" maskUnits="userSpaceOnUse" x="55" y="52" width="38" height="49">
<path d="M85.0409 99.0666C85.0382 99.0681 85.0348 99.067 85.0333 99.0643C85.0319 99.0616 85.0286 99.0605 85.0259 99.0618C76.9899 102.859 65.6477 96.6223 59.4445 84.8803C53.2413 73.1382 54.4825 60.2543 62.1478 55.7561C62.1504 55.7546 62.1514 55.7513 62.15 55.7486C62.1485 55.7458 62.1496 55.7424 62.1523 55.741L67.2095 53.0693C67.8321 52.7404 68.6034 52.9785 68.9323 53.6011C69.1358 53.9863 69.5223 54.2369 69.9543 54.293C76.717 55.1705 84.0602 60.8286 88.623 69.4655C93.1858 78.1024 93.7209 87.3571 90.6343 93.438C90.4371 93.8265 90.4263 94.287 90.6298 94.6722C90.9587 95.2948 90.7206 96.0661 90.0981 96.395L85.0409 99.0666Z" fill="url(#paint2_linear_2238_31516)"/>
<path d="M85.0409 99.0666C85.0382 99.0681 85.0348 99.067 85.0333 99.0643C85.0319 99.0616 85.0286 99.0605 85.0259 99.0618C76.9899 102.859 65.6477 96.6223 59.4445 84.8803C53.2413 73.1382 54.4825 60.2543 62.1478 55.7561C62.1504 55.7546 62.1514 55.7513 62.15 55.7486C62.1485 55.7458 62.1496 55.7424 62.1523 55.741L67.2095 53.0693C67.8321 52.7404 68.6034 52.9785 68.9323 53.6011C69.1358 53.9863 69.5223 54.2369 69.9543 54.293C76.717 55.1705 84.0602 60.8286 88.623 69.4655C93.1858 78.1024 93.7209 87.3571 90.6343 93.438C90.4371 93.8265 90.4263 94.287 90.6298 94.6722C90.9587 95.2948 90.7206 96.0661 90.0981 96.395L85.0409 99.0666Z" fill="black" fill-opacity="0.25"/>
</mask>
<g mask="url(#mask1_2238_31516)">
<path d="M85.0409 99.0666C85.0382 99.0681 85.0348 99.067 85.0333 99.0643C85.0319 99.0616 85.0286 99.0605 85.0259 99.0618C76.9899 102.859 65.6477 96.6223 59.4445 84.8803C53.2413 73.1382 54.4825 60.2543 62.1478 55.7561C62.1504 55.7546 62.1514 55.7513 62.15 55.7486C62.1485 55.7458 62.1496 55.7424 62.1523 55.741L67.2095 53.0693C67.8321 52.7404 68.6034 52.9785 68.9323 53.6011C69.1358 53.9863 69.5223 54.2369 69.9543 54.293C76.717 55.1705 84.0602 60.8286 88.623 69.4655C93.1858 78.1024 93.7209 87.3571 90.6343 93.438C90.4371 93.8265 90.4263 94.287 90.6298 94.6722C90.9587 95.2948 90.7206 96.0661 90.0981 96.395L85.0409 99.0666Z" fill="url(#paint3_linear_2238_31516)"/>
<path d="M85.0409 99.0666C85.0382 99.0681 85.0348 99.067 85.0333 99.0643C85.0319 99.0616 85.0286 99.0605 85.0259 99.0618C76.9899 102.859 65.6477 96.6223 59.4445 84.8803C53.2413 73.1382 54.4825 60.2543 62.1478 55.7561C62.1504 55.7546 62.1514 55.7513 62.15 55.7486C62.1485 55.7458 62.1496 55.7424 62.1523 55.741L67.2095 53.0693C67.8321 52.7404 68.6034 52.9785 68.9323 53.6011C69.1358 53.9863 69.5223 54.2369 69.9543 54.293C76.717 55.1705 84.0602 60.8286 88.623 69.4655C93.1858 78.1024 93.7209 87.3571 90.6343 93.438C90.4371 93.8265 90.4263 94.287 90.6298 94.6722C90.9587 95.2948 90.7206 96.0661 90.0981 96.395L85.0409 99.0666Z" fill="#0E0F26" fill-opacity="0.2"/>
<rect x="74.6758" y="55.9105" width="10" height="31" transform="rotate(62.1529 74.6758 55.9105)" fill="url(#paint4_linear_2238_31516)"/>
<rect x="74.1592" y="52.7908" width="2" height="31" transform="rotate(62.1529 74.1592 52.7908)" fill="url(#paint5_linear_2238_31516)"/>
</g>
<ellipse cx="79.3394" cy="74.3702" rx="24.5" ry="16.5" transform="rotate(62.1529 79.3394 74.3702)" fill="url(#paint6_linear_2238_31516)"/>
<ellipse opacity="0.4" cx="79.3394" cy="74.3702" rx="20.5" ry="13.5" transform="rotate(62.1529 79.3394 74.3702)" fill="url(#paint7_radial_2238_31516)"/>
<mask id="mask2_2238_31516" style="mask-type:alpha" maskUnits="userSpaceOnUse" x="127" y="56" width="39" height="48">
<path d="M134.463 101.736C134.465 101.738 134.469 101.737 134.47 101.734C134.472 101.732 134.475 101.731 134.478 101.732C142.366 105.828 153.934 100.022 160.574 88.5216C167.214 77.0208 166.458 64.0994 158.967 59.3164C158.964 59.3148 158.963 59.3115 158.965 59.3088C158.966 59.3061 158.965 59.3027 158.963 59.3011L154.009 56.4414C153.4 56.0893 152.62 56.2983 152.268 56.908C152.05 57.2853 151.654 57.5213 151.221 57.5611C144.43 58.184 136.879 63.5622 131.995 72.0216C127.111 80.481 126.229 89.7091 129.085 95.9016C129.267 96.2972 129.261 96.7578 129.043 97.1351C128.691 97.7449 128.9 98.5246 129.509 98.8766L134.463 101.736Z" fill="url(#paint8_linear_2238_31516)"/>
<path d="M134.463 101.736C134.465 101.738 134.469 101.737 134.47 101.734C134.472 101.732 134.475 101.731 134.478 101.732C142.366 105.828 153.934 100.022 160.574 88.5216C167.214 77.0208 166.458 64.0994 158.967 59.3164C158.964 59.3148 158.963 59.3115 158.965 59.3088C158.966 59.3061 158.965 59.3027 158.963 59.3011L154.009 56.4414C153.4 56.0893 152.62 56.2983 152.268 56.908C152.05 57.2853 151.654 57.5213 151.221 57.5611C144.43 58.184 136.879 63.5622 131.995 72.0216C127.111 80.481 126.229 89.7091 129.085 95.9016C129.267 96.2972 129.261 96.7578 129.043 97.1351C128.691 97.7449 128.9 98.5246 129.509 98.8766L134.463 101.736Z" fill="black" fill-opacity="0.25"/>
</mask>
<g mask="url(#mask2_2238_31516)">
<path d="M134.463 101.736C134.465 101.738 134.469 101.737 134.47 101.734C134.472 101.732 134.475 101.731 134.478 101.732C142.366 105.828 153.934 100.022 160.574 88.5216C167.214 77.0208 166.458 64.0994 158.967 59.3164C158.964 59.3148 158.963 59.3115 158.965 59.3088C158.966 59.3061 158.965 59.3027 158.963 59.3011L154.009 56.4414C153.4 56.0893 152.62 56.2983 152.268 56.908C152.05 57.2853 151.654 57.5213 151.221 57.5611C144.43 58.184 136.879 63.5622 131.995 72.0216C127.111 80.481 126.229 89.7091 129.085 95.9016C129.267 96.2972 129.261 96.7578 129.043 97.1351C128.691 97.7449 128.9 98.5246 129.509 98.8766L134.463 101.736Z" fill="url(#paint9_linear_2238_31516)"/>
<path d="M134.463 101.736C134.465 101.738 134.469 101.737 134.47 101.734C134.472 101.732 134.475 101.731 134.478 101.732C142.366 105.828 153.934 100.022 160.574 88.5216C167.214 77.0208 166.458 64.0994 158.967 59.3164C158.964 59.3148 158.963 59.3115 158.965 59.3088C158.966 59.3061 158.965 59.3027 158.963 59.3011L154.009 56.4414C153.4 56.0893 152.62 56.2983 152.268 56.908C152.05 57.2853 151.654 57.5213 151.221 57.5611C144.43 58.184 136.879 63.5622 131.995 72.0216C127.111 80.481 126.229 89.7091 129.085 95.9016C129.267 96.2972 129.261 96.7578 129.043 97.1351C128.691 97.7449 128.9 98.5246 129.509 98.8766L134.463 101.736Z" fill="#0E0F26" fill-opacity="0.2"/>
<rect width="10" height="31" transform="matrix(-0.5 0.866025 0.866025 0.5 146.441 59.0001)" fill="url(#paint10_linear_2238_31516)"/>
<rect width="2" height="31" transform="matrix(-0.5 0.866025 0.866025 0.5 147.075 55.902)" fill="url(#paint11_linear_2238_31516)"/>
</g>
<ellipse cx="24.5" cy="16.5" rx="24.5" ry="16.5" transform="matrix(-0.5 0.866025 0.866025 0.5 139.049 47.804)" fill="url(#paint12_linear_2238_31516)"/>
<ellipse opacity="0.4" cx="20.5" cy="13.5" rx="20.5" ry="13.5" transform="matrix(-0.5 0.866025 0.866025 0.5 139.646 52.7681)" fill="url(#paint13_radial_2238_31516)"/>
<mask id="mask3_2238_31516" style="mask-type:alpha" maskUnits="userSpaceOnUse" x="382" y="56" width="39" height="48">
<path d="M389.914 101.736C389.917 101.738 389.92 101.737 389.922 101.734C389.923 101.732 389.926 101.731 389.929 101.732C397.817 105.828 409.385 100.022 416.025 88.5216C422.665 77.0208 421.909 64.0994 414.418 59.3164C414.415 59.3148 414.414 59.3115 414.416 59.3088C414.417 59.3061 414.417 59.3027 414.414 59.3011L409.461 56.4414C408.851 56.0893 408.071 56.2983 407.719 56.908C407.501 57.2853 407.106 57.5213 406.672 57.5611C399.881 58.184 392.33 63.5622 387.446 72.0216C382.562 80.481 381.68 89.7091 384.536 95.9016C384.718 96.2972 384.712 96.7578 384.494 97.1351C384.142 97.7449 384.351 98.5246 384.961 98.8766L389.914 101.736Z" fill="url(#paint14_linear_2238_31516)"/>
<path d="M389.914 101.736C389.917 101.738 389.92 101.737 389.922 101.734C389.923 101.732 389.926 101.731 389.929 101.732C397.817 105.828 409.385 100.022 416.025 88.5216C422.665 77.0208 421.909 64.0994 414.418 59.3164C414.415 59.3148 414.414 59.3115 414.416 59.3088C414.417 59.3061 414.417 59.3027 414.414 59.3011L409.461 56.4414C408.851 56.0893 408.071 56.2983 407.719 56.908C407.501 57.2853 407.106 57.5213 406.672 57.5611C399.881 58.184 392.33 63.5622 387.446 72.0216C382.562 80.481 381.68 89.7091 384.536 95.9016C384.718 96.2972 384.712 96.7578 384.494 97.1351C384.142 97.7449 384.351 98.5246 384.961 98.8766L389.914 101.736Z" fill="black" fill-opacity="0.25"/>
</mask>
<g mask="url(#mask3_2238_31516)">
<path d="M389.914 101.736C389.917 101.738 389.92 101.737 389.922 101.734C389.923 101.732 389.926 101.731 389.929 101.732C397.817 105.828 409.385 100.022 416.025 88.5216C422.665 77.0208 421.909 64.0994 414.418 59.3164C414.415 59.3148 414.414 59.3115 414.416 59.3088C414.417 59.3061 414.417 59.3027 414.414 59.3011L409.461 56.4414C408.851 56.0893 408.071 56.2983 407.719 56.908C407.501 57.2853 407.106 57.5213 406.672 57.5611C399.881 58.184 392.33 63.5622 387.446 72.0216C382.562 80.481 381.68 89.7091 384.536 95.9016C384.718 96.2972 384.712 96.7578 384.494 97.1351C384.142 97.7449 384.351 98.5246 384.961 98.8766L389.914 101.736Z" fill="url(#paint15_linear_2238_31516)"/>
<path d="M389.914 101.736C389.917 101.738 389.92 101.737 389.922 101.734C389.923 101.732 389.926 101.731 389.929 101.732C397.817 105.828 409.385 100.022 416.025 88.5216C422.665 77.0208 421.909 64.0994 414.418 59.3164C414.415 59.3148 414.414 59.3115 414.416 59.3088C414.417 59.3061 414.417 59.3027 414.414 59.3011L409.461 56.4414C408.851 56.0893 408.071 56.2983 407.719 56.908C407.501 57.2853 407.106 57.5213 406.672 57.5611C399.881 58.184 392.33 63.5622 387.446 72.0216C382.562 80.481 381.68 89.7091 384.536 95.9016C384.718 96.2972 384.712 96.7578 384.494 97.1351C384.142 97.7449 384.351 98.5246 384.961 98.8766L389.914 101.736Z" fill="#0E0F26" fill-opacity="0.2"/>
<rect width="10" height="31" transform="matrix(-0.5 0.866025 0.866025 0.5 401.893 59.0001)" fill="url(#paint16_linear_2238_31516)"/>
<rect width="2" height="31" transform="matrix(-0.5 0.866025 0.866025 0.5 402.526 55.902)" fill="url(#paint17_linear_2238_31516)"/>
</g>
<ellipse cx="24.5" cy="16.5" rx="24.5" ry="16.5" transform="matrix(-0.5 0.866025 0.866025 0.5 394.5 47.804)" fill="url(#paint18_linear_2238_31516)"/>
<ellipse opacity="0.4" cx="20.5" cy="13.5" rx="20.5" ry="13.5" transform="matrix(-0.5 0.866025 0.866025 0.5 395.098 52.7681)" fill="url(#paint19_radial_2238_31516)"/>
<mask id="mask4_2238_31516" style="mask-type:alpha" maskUnits="userSpaceOnUse" x="-7" y="56" width="39" height="48">
<path d="M0.913833 101.736C0.916531 101.738 0.91998 101.737 0.921537 101.734C0.923047 101.732 0.926365 101.731 0.929044 101.732C8.81669 105.828 20.3852 100.022 27.0251 88.5216C33.6651 77.0208 32.9088 64.0994 25.4178 59.3164C25.4152 59.3148 25.4144 59.3115 25.4159 59.3088C25.4175 59.3061 25.4165 59.3027 25.4138 59.3011L20.4606 56.4414C19.8509 56.0893 19.0712 56.2983 18.7191 56.908C18.5013 57.2853 18.1056 57.5213 17.6718 57.5611C10.8809 58.184 3.33033 63.5622 -1.55371 72.0216C-6.43776 80.481 -7.32014 89.7091 -4.46412 95.9016C-4.28166 96.2972 -4.28819 96.7578 -4.50602 97.1351C-4.85807 97.7449 -4.64915 98.5246 -4.03938 98.8766L0.913833 101.736Z" fill="url(#paint20_linear_2238_31516)"/>
<path d="M0.913833 101.736C0.916531 101.738 0.91998 101.737 0.921537 101.734C0.923047 101.732 0.926365 101.731 0.929044 101.732C8.81669 105.828 20.3852 100.022 27.0251 88.5216C33.6651 77.0208 32.9088 64.0994 25.4178 59.3164C25.4152 59.3148 25.4144 59.3115 25.4159 59.3088C25.4175 59.3061 25.4165 59.3027 25.4138 59.3011L20.4606 56.4414C19.8509 56.0893 19.0712 56.2983 18.7191 56.908C18.5013 57.2853 18.1056 57.5213 17.6718 57.5611C10.8809 58.184 3.33033 63.5622 -1.55371 72.0216C-6.43776 80.481 -7.32014 89.7091 -4.46412 95.9016C-4.28166 96.2972 -4.28819 96.7578 -4.50602 97.1351C-4.85807 97.7449 -4.64915 98.5246 -4.03938 98.8766L0.913833 101.736Z" fill="black" fill-opacity="0.25"/>
</mask>
<g mask="url(#mask4_2238_31516)">
<path d="M0.913833 101.736C0.916531 101.738 0.91998 101.737 0.921537 101.734C0.923047 101.732 0.926365 101.731 0.929044 101.732C8.81669 105.828 20.3852 100.022 27.0251 88.5216C33.6651 77.0208 32.9088 64.0994 25.4178 59.3164C25.4152 59.3148 25.4144 59.3115 25.4159 59.3088C25.4175 59.3061 25.4165 59.3027 25.4138 59.3011L20.4606 56.4414C19.8509 56.0893 19.0712 56.2983 18.7191 56.908C18.5013 57.2853 18.1056 57.5213 17.6718 57.5611C10.8809 58.184 3.33033 63.5622 -1.55371 72.0216C-6.43776 80.481 -7.32014 89.7091 -4.46412 95.9016C-4.28166 96.2972 -4.28819 96.7578 -4.50602 97.1351C-4.85807 97.7449 -4.64915 98.5246 -4.03938 98.8766L0.913833 101.736Z" fill="url(#paint21_linear_2238_31516)"/>
<path d="M0.913833 101.736C0.916531 101.738 0.91998 101.737 0.921537 101.734C0.923047 101.732 0.926365 101.731 0.929044 101.732C8.81669 105.828 20.3852 100.022 27.0251 88.5216C33.6651 77.0208 32.9088 64.0994 25.4178 59.3164C25.4152 59.3148 25.4144 59.3115 25.4159 59.3088C25.4175 59.3061 25.4165 59.3027 25.4138 59.3011L20.4606 56.4414C19.8509 56.0893 19.0712 56.2983 18.7191 56.908C18.5013 57.2853 18.1056 57.5213 17.6718 57.5611C10.8809 58.184 3.33033 63.5622 -1.55371 72.0216C-6.43776 80.481 -7.32014 89.7091 -4.46412 95.9016C-4.28166 96.2972 -4.28819 96.7578 -4.50602 97.1351C-4.85807 97.7449 -4.64915 98.5246 -4.03938 98.8766L0.913833 101.736Z" fill="#0E0F26" fill-opacity="0.2"/>
<rect width="10" height="31" transform="matrix(-0.5 0.866025 0.866025 0.5 12.8926 59.0001)" fill="url(#paint22_linear_2238_31516)"/>
<rect width="2" height="31" transform="matrix(-0.5 0.866025 0.866025 0.5 13.5264 55.902)" fill="url(#paint23_linear_2238_31516)"/>
</g>
<ellipse cx="24.5" cy="16.5" rx="24.5" ry="16.5" transform="matrix(-0.5 0.866025 0.866025 0.5 5.5 47.804)" fill="url(#paint24_linear_2238_31516)"/>
<ellipse opacity="0.4" cx="20.5" cy="13.5" rx="20.5" ry="13.5" transform="matrix(-0.5 0.866025 0.866025 0.5 6.09766 52.7681)" fill="url(#paint25_radial_2238_31516)"/>
<mask id="mask5_2238_31516" style="mask-type:alpha" maskUnits="userSpaceOnUse" x="182" y="56" width="39" height="48">
<path d="M188.862 59.3011C188.859 59.3027 188.858 59.3061 188.859 59.3088C188.861 59.3114 188.86 59.3148 188.858 59.3164C181.367 64.0994 180.61 77.0208 187.25 88.5216C193.89 100.022 205.459 105.828 213.346 101.732C213.349 101.731 213.352 101.732 213.354 101.734C213.355 101.737 213.359 101.738 213.362 101.736L218.315 98.8766C218.925 98.5246 219.133 97.7449 218.781 97.1351C218.564 96.7578 218.557 96.2972 218.74 95.9016C221.596 89.7091 220.713 80.481 215.829 72.0216C210.945 63.5622 203.394 58.184 196.604 57.5611C196.17 57.5213 195.774 57.2853 195.556 56.908C195.204 56.2983 194.425 56.0893 193.815 56.4414L188.862 59.3011Z" fill="url(#paint26_linear_2238_31516)"/>
<path d="M188.862 59.3011C188.859 59.3027 188.858 59.3061 188.859 59.3088C188.861 59.3114 188.86 59.3148 188.858 59.3164C181.367 64.0994 180.61 77.0208 187.25 88.5216C193.89 100.022 205.459 105.828 213.346 101.732C213.349 101.731 213.352 101.732 213.354 101.734C213.355 101.737 213.359 101.738 213.362 101.736L218.315 98.8766C218.925 98.5246 219.133 97.7449 218.781 97.1351C218.564 96.7578 218.557 96.2972 218.74 95.9016C221.596 89.7091 220.713 80.481 215.829 72.0216C210.945 63.5622 203.394 58.184 196.604 57.5611C196.17 57.5213 195.774 57.2853 195.556 56.908C195.204 56.2983 194.425 56.0893 193.815 56.4414L188.862 59.3011Z" fill="black" fill-opacity="0.25"/>
</mask>
<g mask="url(#mask5_2238_31516)">
<path d="M188.862 59.3011C188.859 59.3027 188.858 59.3061 188.859 59.3088C188.861 59.3114 188.86 59.3148 188.858 59.3164C181.367 64.0994 180.61 77.0208 187.25 88.5216C193.89 100.022 205.459 105.828 213.346 101.732C213.349 101.731 213.352 101.732 213.354 101.734C213.355 101.737 213.359 101.738 213.362 101.736L218.315 98.8766C218.925 98.5246 219.133 97.7449 218.781 97.1351C218.564 96.7578 218.557 96.2972 218.74 95.9016C221.596 89.7091 220.713 80.481 215.829 72.0216C210.945 63.5622 203.394 58.184 196.604 57.5611C196.17 57.5213 195.774 57.2853 195.556 56.908C195.204 56.2983 194.425 56.0893 193.815 56.4414L188.862 59.3011Z" fill="url(#paint27_linear_2238_31516)"/>
<path d="M188.862 59.3011C188.859 59.3027 188.858 59.3061 188.859 59.3088C188.861 59.3114 188.86 59.3148 188.858 59.3164C181.367 64.0994 180.61 77.0208 187.25 88.5216C193.89 100.022 205.459 105.828 213.346 101.732C213.349 101.731 213.352 101.732 213.354 101.734C213.355 101.737 213.359 101.738 213.362 101.736L218.315 98.8766C218.925 98.5246 219.133 97.7449 218.781 97.1351C218.564 96.7578 218.557 96.2972 218.74 95.9016C221.596 89.7091 220.713 80.481 215.829 72.0216C210.945 63.5622 203.394 58.184 196.604 57.5611C196.17 57.5213 195.774 57.2853 195.556 56.908C195.204 56.2983 194.425 56.0893 193.815 56.4414L188.862 59.3011Z" fill="#0E0F26" fill-opacity="0.2"/>
<rect width="10" height="31" transform="matrix(-0.5 -0.866025 -0.866025 0.5 219.883 91.043)" fill="url(#paint28_linear_2238_31516)"/>
<rect width="2" height="31" transform="matrix(-0.5 -0.866025 -0.866025 0.5 222.249 93.1411)" fill="url(#paint29_linear_2238_31516)"/>
</g>
<ellipse cx="24.5" cy="16.5" rx="24.5" ry="16.5" transform="matrix(-0.5 -0.866025 -0.866025 0.5 233.275 90.2392)" fill="url(#paint30_linear_2238_31516)"/>
<ellipse opacity="0.4" cx="20.5" cy="13.5" rx="20.5" ry="13.5" transform="matrix(-0.5 -0.866025 -0.866025 0.5 228.678 88.2751)" fill="url(#paint31_radial_2238_31516)"/>
<mask id="mask6_2238_31516" style="mask-type:alpha" maskUnits="userSpaceOnUse" x="245" y="62" width="48" height="39">
<path d="M248.667 94.0478C248.669 94.0505 248.672 94.0514 248.675 94.0499C248.678 94.0484 248.681 94.0492 248.683 94.0517C253.466 101.543 266.387 102.299 277.888 95.6591C289.389 89.0191 295.194 77.4507 291.098 69.563C291.097 69.5603 291.098 69.557 291.101 69.5555C291.103 69.554 291.104 69.5505 291.103 69.5478L288.243 64.5946C287.891 63.9848 287.111 63.7759 286.501 64.128C286.124 64.3458 285.663 64.3523 285.268 64.1699C279.075 61.3138 269.847 62.1962 261.388 67.0803C252.928 71.9643 247.55 79.5149 246.927 86.3057C246.888 86.7396 246.652 87.1352 246.274 87.3531C245.665 87.7051 245.456 88.4848 245.808 89.0946L248.667 94.0478Z" fill="url(#paint32_linear_2238_31516)"/>
<path d="M248.667 94.0478C248.669 94.0505 248.672 94.0514 248.675 94.0499C248.678 94.0484 248.681 94.0492 248.683 94.0517C253.466 101.543 266.387 102.299 277.888 95.6591C289.389 89.0191 295.194 77.4507 291.098 69.563C291.097 69.5603 291.098 69.557 291.101 69.5555C291.103 69.554 291.104 69.5505 291.103 69.5478L288.243 64.5946C287.891 63.9848 287.111 63.7759 286.501 64.128C286.124 64.3458 285.663 64.3523 285.268 64.1699C279.075 61.3138 269.847 62.1962 261.388 67.0803C252.928 71.9643 247.55 79.5149 246.927 86.3057C246.888 86.7396 246.652 87.1352 246.274 87.3531C245.665 87.7051 245.456 88.4848 245.808 89.0946L248.667 94.0478Z" fill="black" fill-opacity="0.25"/>
</mask>
<g mask="url(#mask6_2238_31516)">
<path d="M248.667 94.0478C248.669 94.0505 248.672 94.0514 248.675 94.0499C248.678 94.0484 248.681 94.0492 248.683 94.0517C253.466 101.543 266.387 102.299 277.888 95.6591C289.389 89.0191 295.194 77.4507 291.098 69.563C291.097 69.5603 291.098 69.557 291.101 69.5555C291.103 69.554 291.104 69.5505 291.103 69.5478L288.243 64.5946C287.891 63.9848 287.111 63.7759 286.501 64.128C286.124 64.3458 285.663 64.3523 285.268 64.1699C279.075 61.3138 269.847 62.1962 261.388 67.0803C252.928 71.9643 247.55 79.5149 246.927 86.3057C246.888 86.7396 246.652 87.1352 246.274 87.3531C245.665 87.7051 245.456 88.4848 245.808 89.0946L248.667 94.0478Z" fill="url(#paint33_linear_2238_31516)"/>
<path d="M248.667 94.0478C248.669 94.0505 248.672 94.0514 248.675 94.0499C248.678 94.0484 248.681 94.0492 248.683 94.0517C253.466 101.543 266.387 102.299 277.888 95.6591C289.389 89.0191 295.194 77.4507 291.098 69.563C291.097 69.5603 291.098 69.557 291.101 69.5555C291.103 69.554 291.104 69.5505 291.103 69.5478L288.243 64.5946C287.891 63.9848 287.111 63.7759 286.501 64.128C286.124 64.3458 285.663 64.3523 285.268 64.1699C279.075 61.3138 269.847 62.1962 261.388 67.0803C252.928 71.9643 247.55 79.5149 246.927 86.3057C246.888 86.7396 246.652 87.1352 246.274 87.3531C245.665 87.7051 245.456 88.4848 245.808 89.0946L248.667 94.0478Z" fill="#0E0F26" fill-opacity="0.2"/>
<rect width="10" height="31" transform="matrix(-0.866025 0.5 0.5 0.866025 280.409 63.0264)" fill="url(#paint34_linear_2238_31516)"/>
<rect width="2" height="31" transform="matrix(-0.866025 0.5 0.5 0.866025 282.508 60.6604)" fill="url(#paint35_linear_2238_31516)"/>
</g>
<ellipse cx="24.5" cy="16.5" rx="24.5" ry="16.5" transform="matrix(-0.866025 0.5 0.5 0.866025 279.605 49.6341)" fill="url(#paint36_linear_2238_31516)"/>
<ellipse opacity="0.4" cx="20.5" cy="13.5" rx="20.5" ry="13.5" transform="matrix(-0.866025 0.5 0.5 0.866025 277.642 54.2322)" fill="url(#paint37_radial_2238_31516)"/>
<mask id="mask7_2238_31516" style="mask-type:alpha" maskUnits="userSpaceOnUse" x="313" y="62" width="48" height="39">
<path d="M315.003 69.5478C315.002 69.5505 315.002 69.554 315.005 69.5555C315.008 69.557 315.009 69.5603 315.007 69.563C310.911 77.4507 316.717 89.0191 328.218 95.6591C339.719 102.299 352.64 101.543 357.423 94.0517C357.425 94.0492 357.428 94.0484 357.431 94.0499C357.433 94.0514 357.437 94.0505 357.438 94.0478L360.298 89.0946C360.65 88.4848 360.441 87.7051 359.831 87.3531C359.454 87.1352 359.218 86.7396 359.178 86.3058C358.556 79.5149 353.177 71.9643 344.718 67.0803C336.259 62.1962 327.03 61.3138 320.838 64.1699C320.442 64.3523 319.982 64.3458 319.604 64.128C318.995 63.7759 318.215 63.9848 317.863 64.5946L315.003 69.5478Z" fill="url(#paint38_linear_2238_31516)"/>
<path d="M315.003 69.5478C315.002 69.5505 315.002 69.554 315.005 69.5555C315.008 69.557 315.009 69.5603 315.007 69.563C310.911 77.4507 316.717 89.0191 328.218 95.6591C339.719 102.299 352.64 101.543 357.423 94.0517C357.425 94.0492 357.428 94.0484 357.431 94.0499C357.433 94.0514 357.437 94.0505 357.438 94.0478L360.298 89.0946C360.65 88.4848 360.441 87.7051 359.831 87.3531C359.454 87.1352 359.218 86.7396 359.178 86.3058C358.556 79.5149 353.177 71.9643 344.718 67.0803C336.259 62.1962 327.03 61.3138 320.838 64.1699C320.442 64.3523 319.982 64.3458 319.604 64.128C318.995 63.7759 318.215 63.9848 317.863 64.5946L315.003 69.5478Z" fill="black" fill-opacity="0.25"/>
</mask>
<g mask="url(#mask7_2238_31516)">
<path d="M315.003 69.5478C315.002 69.5505 315.002 69.554 315.005 69.5555C315.008 69.557 315.009 69.5603 315.007 69.563C310.911 77.4507 316.717 89.0191 328.218 95.6591C339.719 102.299 352.64 101.543 357.423 94.0517C357.425 94.0492 357.428 94.0484 357.431 94.0499C357.433 94.0514 357.437 94.0505 357.438 94.0478L360.298 89.0946C360.65 88.4848 360.441 87.7051 359.831 87.3531C359.454 87.1352 359.218 86.7396 359.178 86.3058C358.556 79.5149 353.177 71.9643 344.718 67.0803C336.259 62.1962 327.03 61.3138 320.838 64.1699C320.442 64.3523 319.982 64.3458 319.604 64.128C318.995 63.7759 318.215 63.9848 317.863 64.5946L315.003 69.5478Z" fill="url(#paint39_linear_2238_31516)"/>
<path d="M315.003 69.5478C315.002 69.5505 315.002 69.554 315.005 69.5555C315.008 69.557 315.009 69.5603 315.007 69.563C310.911 77.4507 316.717 89.0191 328.218 95.6591C339.719 102.299 352.64 101.543 357.423 94.0517C357.425 94.0492 357.428 94.0484 357.431 94.0499C357.433 94.0514 357.437 94.0505 357.438 94.0478L360.298 89.0946C360.65 88.4848 360.441 87.7051 359.831 87.3531C359.454 87.1352 359.218 86.7396 359.178 86.3058C358.556 79.5149 353.177 71.9643 344.718 67.0803C336.259 62.1962 327.03 61.3138 320.838 64.1699C320.442 64.3523 319.982 64.3458 319.604 64.128C318.995 63.7759 318.215 63.9848 317.863 64.5946L315.003 69.5478Z" fill="#0E0F26" fill-opacity="0.2"/>
<rect width="10" height="31" transform="matrix(-0.866025 -0.5 -0.5 0.866025 357.739 81.5264)" fill="url(#paint40_linear_2238_31516)"/>
<rect width="2" height="31" transform="matrix(-0.866025 -0.5 -0.5 0.866025 360.838 82.1604)" fill="url(#paint41_linear_2238_31516)"/>
</g>
<ellipse cx="24.5" cy="16.5" rx="24.5" ry="16.5" transform="matrix(-0.866025 -0.5 -0.5 0.866025 368.936 74.1341)" fill="url(#paint42_linear_2238_31516)"/>
<ellipse opacity="0.4" cx="20.5" cy="13.5" rx="20.5" ry="13.5" transform="matrix(-0.866025 -0.5 -0.5 0.866025 363.972 74.7322)" fill="url(#paint43_radial_2238_31516)"/>
<mask id="mask8_2238_31516" style="mask-type:alpha" maskUnits="userSpaceOnUse" x="293" y="115" width="38" height="49">
<path d="M301.234 162.067C301.237 162.068 301.241 162.067 301.242 162.064C301.243 162.062 301.247 162.061 301.249 162.062C309.285 165.859 320.628 159.622 326.831 147.88C333.034 136.138 331.793 123.254 324.128 118.756C324.125 118.755 324.124 118.751 324.125 118.749C324.127 118.746 324.126 118.742 324.123 118.741L319.066 116.069C318.443 115.74 317.672 115.979 317.343 116.601C317.14 116.986 316.753 117.237 316.321 117.293C309.558 118.171 302.215 123.829 297.652 132.466C293.09 141.102 292.554 150.357 295.641 156.438C295.838 156.826 295.849 157.287 295.646 157.672C295.317 158.295 295.555 159.066 296.177 159.395L301.234 162.067Z" fill="url(#paint44_linear_2238_31516)"/>
<path d="M301.234 162.067C301.237 162.068 301.241 162.067 301.242 162.064C301.243 162.062 301.247 162.061 301.249 162.062C309.285 165.859 320.628 159.622 326.831 147.88C333.034 136.138 331.793 123.254 324.128 118.756C324.125 118.755 324.124 118.751 324.125 118.749C324.127 118.746 324.126 118.742 324.123 118.741L319.066 116.069C318.443 115.74 317.672 115.979 317.343 116.601C317.14 116.986 316.753 117.237 316.321 117.293C309.558 118.171 302.215 123.829 297.652 132.466C293.09 141.102 292.554 150.357 295.641 156.438C295.838 156.826 295.849 157.287 295.646 157.672C295.317 158.295 295.555 159.066 296.177 159.395L301.234 162.067Z" fill="black" fill-opacity="0.25"/>
</mask>
<g mask="url(#mask8_2238_31516)">
<path d="M301.234 162.067C301.237 162.068 301.241 162.067 301.242 162.064C301.243 162.062 301.247 162.061 301.249 162.062C309.285 165.859 320.628 159.622 326.831 147.88C333.034 136.138 331.793 123.254 324.128 118.756C324.125 118.755 324.124 118.751 324.125 118.749C324.127 118.746 324.126 118.742 324.123 118.741L319.066 116.069C318.443 115.74 317.672 115.979 317.343 116.601C317.14 116.986 316.753 117.237 316.321 117.293C309.558 118.171 302.215 123.829 297.652 132.466C293.09 141.102 292.554 150.357 295.641 156.438C295.838 156.826 295.849 157.287 295.646 157.672C295.317 158.295 295.555 159.066 296.177 159.395L301.234 162.067Z" fill="url(#paint45_linear_2238_31516)"/>
<path d="M301.234 162.067C301.237 162.068 301.241 162.067 301.242 162.064C301.243 162.062 301.247 162.061 301.249 162.062C309.285 165.859 320.628 159.622 326.831 147.88C333.034 136.138 331.793 123.254 324.128 118.756C324.125 118.755 324.124 118.751 324.125 118.749C324.127 118.746 324.126 118.742 324.123 118.741L319.066 116.069C318.443 115.74 317.672 115.979 317.343 116.601C317.14 116.986 316.753 117.237 316.321 117.293C309.558 118.171 302.215 123.829 297.652 132.466C293.09 141.102 292.554 150.357 295.641 156.438C295.838 156.826 295.849 157.287 295.646 157.672C295.317 158.295 295.555 159.066 296.177 159.395L301.234 162.067Z" fill="#0E0F26" fill-opacity="0.2"/>
<rect width="10" height="31" transform="matrix(-0.467114 0.884197 0.884197 0.467114 311.6 118.911)" fill="url(#paint46_linear_2238_31516)"/>
<rect width="2" height="31" transform="matrix(-0.467114 0.884197 0.884197 0.467114 312.116 115.791)" fill="url(#paint47_linear_2238_31516)"/>
</g>
<ellipse cx="24.5" cy="16.5" rx="24.5" ry="16.5" transform="matrix(-0.467114 0.884197 0.884197 0.467114 303.791 108)" fill="url(#paint48_linear_2238_31516)"/>
<ellipse opacity="0.4" cx="20.5" cy="13.5" rx="20.5" ry="13.5" transform="matrix(-0.467114 0.884197 0.884197 0.467114 304.575 112.938)" fill="url(#paint49_radial_2238_31516)"/>
<mask id="mask9_2238_31516" style="mask-type:alpha" maskUnits="userSpaceOnUse" x="221" y="119" width="38" height="48">
<path d="M251.813 164.736C251.81 164.738 251.807 164.737 251.805 164.734C251.804 164.732 251.8 164.731 251.798 164.732C243.91 168.828 232.341 163.022 225.701 151.522C219.061 140.021 219.818 127.099 227.309 122.316C227.311 122.315 227.312 122.311 227.311 122.309C227.309 122.306 227.31 122.303 227.313 122.301L232.266 119.441C232.876 119.089 233.655 119.298 234.007 119.908C234.225 120.285 234.621 120.521 235.055 120.561C241.846 121.184 249.396 126.562 254.28 135.022C259.164 143.481 260.047 152.709 257.191 158.902C257.008 159.297 257.015 159.758 257.233 160.135C257.585 160.745 257.376 161.525 256.766 161.877L251.813 164.736Z" fill="url(#paint50_linear_2238_31516)"/>
<path d="M251.813 164.736C251.81 164.738 251.807 164.737 251.805 164.734C251.804 164.732 251.8 164.731 251.798 164.732C243.91 168.828 232.341 163.022 225.701 151.522C219.061 140.021 219.818 127.099 227.309 122.316C227.311 122.315 227.312 122.311 227.311 122.309C227.309 122.306 227.31 122.303 227.313 122.301L232.266 119.441C232.876 119.089 233.655 119.298 234.007 119.908C234.225 120.285 234.621 120.521 235.055 120.561C241.846 121.184 249.396 126.562 254.28 135.022C259.164 143.481 260.047 152.709 257.191 158.902C257.008 159.297 257.015 159.758 257.233 160.135C257.585 160.745 257.376 161.525 256.766 161.877L251.813 164.736Z" fill="black" fill-opacity="0.25"/>
</mask>
<g mask="url(#mask9_2238_31516)">
<path d="M251.813 164.736C251.81 164.738 251.807 164.737 251.805 164.734C251.804 164.732 251.8 164.731 251.798 164.732C243.91 168.828 232.341 163.022 225.701 151.522C219.061 140.021 219.818 127.099 227.309 122.316C227.311 122.315 227.312 122.311 227.311 122.309C227.309 122.306 227.31 122.303 227.313 122.301L232.266 119.441C232.876 119.089 233.655 119.298 234.007 119.908C234.225 120.285 234.621 120.521 235.055 120.561C241.846 121.184 249.396 126.562 254.28 135.022C259.164 143.481 260.047 152.709 257.191 158.902C257.008 159.297 257.015 159.758 257.233 160.135C257.585 160.745 257.376 161.525 256.766 161.877L251.813 164.736Z" fill="url(#paint51_linear_2238_31516)"/>
<path d="M251.813 164.736C251.81 164.738 251.807 164.737 251.805 164.734C251.804 164.732 251.8 164.731 251.798 164.732C243.91 168.828 232.341 163.022 225.701 151.522C219.061 140.021 219.818 127.099 227.309 122.316C227.311 122.315 227.312 122.311 227.311 122.309C227.309 122.306 227.31 122.303 227.313 122.301L232.266 119.441C232.876 119.089 233.655 119.298 234.007 119.908C234.225 120.285 234.621 120.521 235.055 120.561C241.846 121.184 249.396 126.562 254.28 135.022C259.164 143.481 260.047 152.709 257.191 158.902C257.008 159.297 257.015 159.758 257.233 160.135C257.585 160.745 257.376 161.525 256.766 161.877L251.813 164.736Z" fill="#0E0F26" fill-opacity="0.2"/>
<rect x="239.834" y="122" width="10" height="31" transform="rotate(60 239.834 122)" fill="url(#paint52_linear_2238_31516)"/>
<rect x="239.2" y="118.902" width="2" height="31" transform="rotate(60 239.2 118.902)" fill="url(#paint53_linear_2238_31516)"/>
</g>
<ellipse cx="245.187" cy="140.272" rx="24.5" ry="16.5" transform="rotate(60 245.187 140.272)" fill="url(#paint54_linear_2238_31516)"/>
<ellipse opacity="0.4" cx="245.188" cy="140.272" rx="20.5" ry="13.5" transform="rotate(60 245.188 140.272)" fill="url(#paint55_radial_2238_31516)"/>
<mask id="mask10_2238_31516" style="mask-type:alpha" maskUnits="userSpaceOnUse" x="-35" y="119" width="39" height="48">
<path d="M-3.63844 164.736C-3.64114 164.738 -3.64459 164.737 -3.64615 164.734C-3.64766 164.732 -3.65097 164.731 -3.65365 164.732C-11.5413 168.828 -23.1098 163.022 -29.7497 151.522C-36.3897 140.021 -35.6334 127.099 -28.1424 122.316C-28.1398 122.315 -28.139 122.311 -28.1405 122.309C-28.1421 122.306 -28.1411 122.303 -28.1384 122.301L-23.1852 119.441C-22.5755 119.089 -21.7958 119.298 -21.4437 119.908C-21.2259 120.285 -20.8302 120.521 -20.3964 120.561C-13.6055 121.184 -6.05494 126.562 -1.1709 135.022C3.71315 143.481 4.59553 152.709 1.73951 158.902C1.55705 159.297 1.56358 159.758 1.78141 160.135C2.13346 160.745 1.92454 161.525 1.31477 161.877L-3.63844 164.736Z" fill="url(#paint56_linear_2238_31516)"/>
<path d="M-3.63844 164.736C-3.64114 164.738 -3.64459 164.737 -3.64615 164.734C-3.64766 164.732 -3.65097 164.731 -3.65365 164.732C-11.5413 168.828 -23.1098 163.022 -29.7497 151.522C-36.3897 140.021 -35.6334 127.099 -28.1424 122.316C-28.1398 122.315 -28.139 122.311 -28.1405 122.309C-28.1421 122.306 -28.1411 122.303 -28.1384 122.301L-23.1852 119.441C-22.5755 119.089 -21.7958 119.298 -21.4437 119.908C-21.2259 120.285 -20.8302 120.521 -20.3964 120.561C-13.6055 121.184 -6.05494 126.562 -1.1709 135.022C3.71315 143.481 4.59553 152.709 1.73951 158.902C1.55705 159.297 1.56358 159.758 1.78141 160.135C2.13346 160.745 1.92454 161.525 1.31477 161.877L-3.63844 164.736Z" fill="black" fill-opacity="0.25"/>
</mask>
<g mask="url(#mask10_2238_31516)">
<path d="M-3.63844 164.736C-3.64114 164.738 -3.64459 164.737 -3.64615 164.734C-3.64766 164.732 -3.65097 164.731 -3.65365 164.732C-11.5413 168.828 -23.1098 163.022 -29.7497 151.522C-36.3897 140.021 -35.6334 127.099 -28.1424 122.316C-28.1398 122.315 -28.139 122.311 -28.1405 122.309C-28.1421 122.306 -28.1411 122.303 -28.1384 122.301L-23.1852 119.441C-22.5755 119.089 -21.7958 119.298 -21.4437 119.908C-21.2259 120.285 -20.8302 120.521 -20.3964 120.561C-13.6055 121.184 -6.05494 126.562 -1.1709 135.022C3.71315 143.481 4.59553 152.709 1.73951 158.902C1.55705 159.297 1.56358 159.758 1.78141 160.135C2.13346 160.745 1.92454 161.525 1.31477 161.877L-3.63844 164.736Z" fill="url(#paint57_linear_2238_31516)"/>
<path d="M-3.63844 164.736C-3.64114 164.738 -3.64459 164.737 -3.64615 164.734C-3.64766 164.732 -3.65097 164.731 -3.65365 164.732C-11.5413 168.828 -23.1098 163.022 -29.7497 151.522C-36.3897 140.021 -35.6334 127.099 -28.1424 122.316C-28.1398 122.315 -28.139 122.311 -28.1405 122.309C-28.1421 122.306 -28.1411 122.303 -28.1384 122.301L-23.1852 119.441C-22.5755 119.089 -21.7958 119.298 -21.4437 119.908C-21.2259 120.285 -20.8302 120.521 -20.3964 120.561C-13.6055 121.184 -6.05494 126.562 -1.1709 135.022C3.71315 143.481 4.59553 152.709 1.73951 158.902C1.55705 159.297 1.56358 159.758 1.78141 160.135C2.13346 160.745 1.92454 161.525 1.31477 161.877L-3.63844 164.736Z" fill="#0E0F26" fill-opacity="0.2"/>
</g>
<ellipse cx="-10.264" cy="140.272" rx="24.5" ry="16.5" transform="rotate(60 -10.264 140.272)" fill="url(#paint58_linear_2238_31516)"/>
<ellipse opacity="0.4" cx="-10.2636" cy="140.272" rx="20.5" ry="13.5" transform="rotate(60 -10.2636 140.272)" fill="url(#paint59_radial_2238_31516)"/>
<mask id="mask11_2238_31516" style="mask-type:alpha" maskUnits="userSpaceOnUse" x="354" y="119" width="39" height="48">
<path d="M385.362 164.736C385.359 164.738 385.355 164.737 385.354 164.734C385.352 164.732 385.349 164.731 385.346 164.732C377.459 168.828 365.89 163.022 359.25 151.522C352.61 140.021 353.367 127.099 360.858 122.316C360.86 122.315 360.861 122.311 360.859 122.309C360.858 122.306 360.859 122.303 360.862 122.301L365.815 119.441C366.425 119.089 367.204 119.298 367.556 119.908C367.774 120.285 368.17 120.521 368.604 120.561C375.394 121.184 382.945 126.562 387.829 135.022C392.713 143.481 393.596 152.709 390.74 158.902C390.557 159.297 390.564 159.758 390.781 160.135C391.133 160.745 390.925 161.525 390.315 161.877L385.362 164.736Z" fill="url(#paint60_linear_2238_31516)"/>
<path d="M385.362 164.736C385.359 164.738 385.355 164.737 385.354 164.734C385.352 164.732 385.349 164.731 385.346 164.732C377.459 168.828 365.89 163.022 359.25 151.522C352.61 140.021 353.367 127.099 360.858 122.316C360.86 122.315 360.861 122.311 360.859 122.309C360.858 122.306 360.859 122.303 360.862 122.301L365.815 119.441C366.425 119.089 367.204 119.298 367.556 119.908C367.774 120.285 368.17 120.521 368.604 120.561C375.394 121.184 382.945 126.562 387.829 135.022C392.713 143.481 393.596 152.709 390.74 158.902C390.557 159.297 390.564 159.758 390.781 160.135C391.133 160.745 390.925 161.525 390.315 161.877L385.362 164.736Z" fill="black" fill-opacity="0.25"/>
</mask>
<g mask="url(#mask11_2238_31516)">
<path d="M385.362 164.736C385.359 164.738 385.355 164.737 385.354 164.734C385.352 164.732 385.349 164.731 385.346 164.732C377.459 168.828 365.89 163.022 359.25 151.522C352.61 140.021 353.367 127.099 360.858 122.316C360.86 122.315 360.861 122.311 360.859 122.309C360.858 122.306 360.859 122.303 360.862 122.301L365.815 119.441C366.425 119.089 367.204 119.298 367.556 119.908C367.774 120.285 368.17 120.521 368.604 120.561C375.394 121.184 382.945 126.562 387.829 135.022C392.713 143.481 393.596 152.709 390.74 158.902C390.557 159.297 390.564 159.758 390.781 160.135C391.133 160.745 390.925 161.525 390.315 161.877L385.362 164.736Z" fill="url(#paint61_linear_2238_31516)"/>
<path d="M385.362 164.736C385.359 164.738 385.355 164.737 385.354 164.734C385.352 164.732 385.349 164.731 385.346 164.732C377.459 168.828 365.89 163.022 359.25 151.522C352.61 140.021 353.367 127.099 360.858 122.316C360.86 122.315 360.861 122.311 360.859 122.309C360.858 122.306 360.859 122.303 360.862 122.301L365.815 119.441C366.425 119.089 367.204 119.298 367.556 119.908C367.774 120.285 368.17 120.521 368.604 120.561C375.394 121.184 382.945 126.562 387.829 135.022C392.713 143.481 393.596 152.709 390.74 158.902C390.557 159.297 390.564 159.758 390.781 160.135C391.133 160.745 390.925 161.525 390.315 161.877L385.362 164.736Z" fill="#0E0F26" fill-opacity="0.2"/>
<rect x="373.383" y="122" width="10" height="31" transform="rotate(60 373.383 122)" fill="url(#paint62_linear_2238_31516)"/>
<rect x="372.749" y="118.902" width="2" height="31" transform="rotate(60 372.749 118.902)" fill="url(#paint63_linear_2238_31516)"/>
</g>
<ellipse cx="378.736" cy="140.272" rx="24.5" ry="16.5" transform="rotate(60 378.736 140.272)" fill="url(#paint64_linear_2238_31516)"/>
<ellipse opacity="0.4" cx="378.736" cy="140.272" rx="20.5" ry="13.5" transform="rotate(60 378.736 140.272)" fill="url(#paint65_radial_2238_31516)"/>
<mask id="mask12_2238_31516" style="mask-type:alpha" maskUnits="userSpaceOnUse" x="165" y="119" width="39" height="48">
<path d="M197.414 122.301C197.417 122.303 197.417 122.306 197.416 122.309C197.414 122.311 197.415 122.315 197.418 122.316C204.909 127.099 205.665 140.021 199.025 151.522C192.385 163.022 180.817 168.828 172.929 164.732C172.926 164.731 172.923 164.732 172.922 164.734C172.92 164.737 172.917 164.738 172.914 164.736L167.961 161.877C167.351 161.525 167.142 160.745 167.494 160.135C167.712 159.758 167.718 159.297 167.536 158.902C164.68 152.709 165.562 143.481 170.446 135.022C175.33 126.562 182.881 121.184 189.672 120.561C190.106 120.521 190.501 120.285 190.719 119.908C191.071 119.298 191.851 119.089 192.461 119.441L197.414 122.301Z" fill="url(#paint66_linear_2238_31516)"/>
<path d="M197.414 122.301C197.417 122.303 197.417 122.306 197.416 122.309C197.414 122.311 197.415 122.315 197.418 122.316C204.909 127.099 205.665 140.021 199.025 151.522C192.385 163.022 180.817 168.828 172.929 164.732C172.926 164.731 172.923 164.732 172.922 164.734C172.92 164.737 172.917 164.738 172.914 164.736L167.961 161.877C167.351 161.525 167.142 160.745 167.494 160.135C167.712 159.758 167.718 159.297 167.536 158.902C164.68 152.709 165.562 143.481 170.446 135.022C175.33 126.562 182.881 121.184 189.672 120.561C190.106 120.521 190.501 120.285 190.719 119.908C191.071 119.298 191.851 119.089 192.461 119.441L197.414 122.301Z" fill="black" fill-opacity="0.25"/>
</mask>
<g mask="url(#mask12_2238_31516)">
<path d="M197.414 122.301C197.417 122.303 197.417 122.306 197.416 122.309C197.414 122.311 197.415 122.315 197.418 122.316C204.909 127.099 205.665 140.021 199.025 151.522C192.385 163.022 180.817 168.828 172.929 164.732C172.926 164.731 172.923 164.732 172.922 164.734C172.92 164.737 172.917 164.738 172.914 164.736L167.961 161.877C167.351 161.525 167.142 160.745 167.494 160.135C167.712 159.758 167.718 159.297 167.536 158.902C164.68 152.709 165.562 143.481 170.446 135.022C175.33 126.562 182.881 121.184 189.672 120.561C190.106 120.521 190.501 120.285 190.719 119.908C191.071 119.298 191.851 119.089 192.461 119.441L197.414 122.301Z" fill="url(#paint67_linear_2238_31516)"/>
<path d="M197.414 122.301C197.417 122.303 197.417 122.306 197.416 122.309C197.414 122.311 197.415 122.315 197.418 122.316C204.909 127.099 205.665 140.021 199.025 151.522C192.385 163.022 180.817 168.828 172.929 164.732C172.926 164.731 172.923 164.732 172.922 164.734C172.92 164.737 172.917 164.738 172.914 164.736L167.961 161.877C167.351 161.525 167.142 160.745 167.494 160.135C167.712 159.758 167.718 159.297 167.536 158.902C164.68 152.709 165.562 143.481 170.446 135.022C175.33 126.562 182.881 121.184 189.672 120.561C190.106 120.521 190.501 120.285 190.719 119.908C191.071 119.298 191.851 119.089 192.461 119.441L197.414 122.301Z" fill="#0E0F26" fill-opacity="0.2"/>
<rect x="166.393" y="154.043" width="10" height="31" transform="rotate(-60 166.393 154.043)" fill="url(#paint68_linear_2238_31516)"/>
<rect x="164.026" y="156.141" width="2" height="31" transform="rotate(-60 164.026 156.141)" fill="url(#paint69_linear_2238_31516)"/>
</g>
<ellipse cx="179.539" cy="140.272" rx="24.5" ry="16.5" transform="rotate(-60 179.539 140.272)" fill="url(#paint70_linear_2238_31516)"/>
<ellipse opacity="0.4" cx="179.539" cy="140.272" rx="20.5" ry="13.5" transform="rotate(-60 179.539 140.272)" fill="url(#paint71_radial_2238_31516)"/>
<mask id="mask13_2238_31516" style="mask-type:alpha" maskUnits="userSpaceOnUse" x="93" y="125" width="48" height="39">
<path d="M137.608 157.048C137.606 157.051 137.603 157.051 137.6 157.05C137.598 157.048 137.594 157.049 137.593 157.052C132.81 164.543 119.888 165.299 108.388 158.659C96.8868 152.019 91.081 140.451 95.177 132.563C95.1784 132.56 95.1774 132.557 95.1748 132.556C95.1721 132.554 95.1712 132.551 95.1727 132.548L98.0325 127.595C98.3845 126.985 99.1642 126.776 99.774 127.128C100.151 127.346 100.612 127.352 101.008 127.17C107.2 124.314 116.428 125.196 124.888 130.08C133.347 134.964 138.725 142.515 139.348 149.306C139.388 149.74 139.624 150.135 140.001 150.353C140.611 150.705 140.82 151.485 140.468 152.095L137.608 157.048Z" fill="url(#paint72_linear_2238_31516)"/>
<path d="M137.608 157.048C137.606 157.051 137.603 157.051 137.6 157.05C137.598 157.048 137.594 157.049 137.593 157.052C132.81 164.543 119.888 165.299 108.388 158.659C96.8868 152.019 91.081 140.451 95.177 132.563C95.1784 132.56 95.1774 132.557 95.1748 132.556C95.1721 132.554 95.1712 132.551 95.1727 132.548L98.0325 127.595C98.3845 126.985 99.1642 126.776 99.774 127.128C100.151 127.346 100.612 127.352 101.008 127.17C107.2 124.314 116.428 125.196 124.888 130.08C133.347 134.964 138.725 142.515 139.348 149.306C139.388 149.74 139.624 150.135 140.001 150.353C140.611 150.705 140.82 151.485 140.468 152.095L137.608 157.048Z" fill="black" fill-opacity="0.25"/>
</mask>
<g mask="url(#mask13_2238_31516)">
<path d="M137.608 157.048C137.606 157.051 137.603 157.051 137.6 157.05C137.598 157.048 137.594 157.049 137.593 157.052C132.81 164.543 119.888 165.299 108.388 158.659C96.8868 152.019 91.081 140.451 95.177 132.563C95.1784 132.56 95.1774 132.557 95.1748 132.556C95.1721 132.554 95.1712 132.551 95.1727 132.548L98.0325 127.595C98.3845 126.985 99.1642 126.776 99.774 127.128C100.151 127.346 100.612 127.352 101.008 127.17C107.2 124.314 116.428 125.196 124.888 130.08C133.347 134.964 138.725 142.515 139.348 149.306C139.388 149.74 139.624 150.135 140.001 150.353C140.611 150.705 140.82 151.485 140.468 152.095L137.608 157.048Z" fill="url(#paint73_linear_2238_31516)"/>
<path d="M137.608 157.048C137.606 157.051 137.603 157.051 137.6 157.05C137.598 157.048 137.594 157.049 137.593 157.052C132.81 164.543 119.888 165.299 108.388 158.659C96.8868 152.019 91.081 140.451 95.177 132.563C95.1784 132.56 95.1774 132.557 95.1748 132.556C95.1721 132.554 95.1712 132.551 95.1727 132.548L98.0325 127.595C98.3845 126.985 99.1642 126.776 99.774 127.128C100.151 127.346 100.612 127.352 101.008 127.17C107.2 124.314 116.428 125.196 124.888 130.08C133.347 134.964 138.725 142.515 139.348 149.306C139.388 149.74 139.624 150.135 140.001 150.353C140.611 150.705 140.82 151.485 140.468 152.095L137.608 157.048Z" fill="#0E0F26" fill-opacity="0.2"/>
<rect x="105.866" y="126.026" width="10" height="31" transform="rotate(30 105.866 126.026)" fill="url(#paint74_linear_2238_31516)"/>
<rect x="103.768" y="123.66" width="2" height="31" transform="rotate(30 103.768 123.66)" fill="url(#paint75_linear_2238_31516)"/>
</g>
<ellipse cx="119.638" cy="139.174" rx="24.5" ry="16.5" transform="rotate(30 119.638 139.174)" fill="url(#paint76_linear_2238_31516)"/>
<ellipse opacity="0.4" cx="119.637" cy="139.174" rx="20.5" ry="13.5" transform="rotate(30 119.637 139.174)" fill="url(#paint77_radial_2238_31516)"/>
<ellipse cx="24.5" cy="16.5" rx="24.5" ry="16.5" transform="matrix(-0.866025 0.5 0.5 0.866025 448.436 112.634)" fill="url(#paint78_linear_2238_31516)"/>
<mask id="mask14_2238_31516" style="mask-type:alpha" maskUnits="userSpaceOnUse" x="25" y="125" width="48" height="39">
<path d="M71.2723 132.548C71.2738 132.551 71.2729 132.554 71.2702 132.556C71.2676 132.557 71.2666 132.56 71.268 132.563C75.364 140.451 69.5582 152.019 58.0575 158.659C46.5567 165.299 33.6353 164.543 28.8523 157.052C28.8507 157.049 28.8473 157.048 28.8447 157.05C28.842 157.051 28.8386 157.051 28.837 157.048L25.9773 152.095C25.6252 151.485 25.8342 150.705 26.4439 150.353C26.8212 150.135 27.0572 149.74 27.097 149.306C27.7199 142.515 33.098 134.964 41.5575 130.08C50.0169 125.196 59.245 124.314 65.4375 127.17C65.8331 127.352 66.2937 127.346 66.671 127.128C67.2808 126.776 68.0605 126.985 68.4125 127.595L71.2723 132.548Z" fill="url(#paint79_linear_2238_31516)"/>
<path d="M71.2723 132.548C71.2738 132.551 71.2729 132.554 71.2702 132.556C71.2676 132.557 71.2666 132.56 71.268 132.563C75.364 140.451 69.5582 152.019 58.0575 158.659C46.5567 165.299 33.6353 164.543 28.8523 157.052C28.8507 157.049 28.8473 157.048 28.8447 157.05C28.842 157.051 28.8386 157.051 28.837 157.048L25.9773 152.095C25.6252 151.485 25.8342 150.705 26.4439 150.353C26.8212 150.135 27.0572 149.74 27.097 149.306C27.7199 142.515 33.098 134.964 41.5575 130.08C50.0169 125.196 59.245 124.314 65.4375 127.17C65.8331 127.352 66.2937 127.346 66.671 127.128C67.2808 126.776 68.0605 126.985 68.4125 127.595L71.2723 132.548Z" fill="black" fill-opacity="0.25"/>
</mask>
<g mask="url(#mask14_2238_31516)">
<path d="M71.2723 132.548C71.2738 132.551 71.2729 132.554 71.2702 132.556C71.2676 132.557 71.2666 132.56 71.268 132.563C75.364 140.451 69.5582 152.019 58.0575 158.659C46.5567 165.299 33.6353 164.543 28.8523 157.052C28.8507 157.049 28.8473 157.048 28.8447 157.05C28.842 157.051 28.8386 157.051 28.837 157.048L25.9773 152.095C25.6252 151.485 25.8342 150.705 26.4439 150.353C26.8212 150.135 27.0572 149.74 27.097 149.306C27.7199 142.515 33.098 134.964 41.5575 130.08C50.0169 125.196 59.245 124.314 65.4375 127.17C65.8331 127.352 66.2937 127.346 66.671 127.128C67.2808 126.776 68.0605 126.985 68.4125 127.595L71.2723 132.548Z" fill="url(#paint80_linear_2238_31516)"/>
<path d="M71.2723 132.548C71.2738 132.551 71.2729 132.554 71.2702 132.556C71.2676 132.557 71.2666 132.56 71.268 132.563C75.364 140.451 69.5582 152.019 58.0575 158.659C46.5567 165.299 33.6353 164.543 28.8523 157.052C28.8507 157.049 28.8473 157.048 28.8447 157.05C28.842 157.051 28.8386 157.051 28.837 157.048L25.9773 152.095C25.6252 151.485 25.8342 150.705 26.4439 150.353C26.8212 150.135 27.0572 149.74 27.097 149.306C27.7199 142.515 33.098 134.964 41.5575 130.08C50.0169 125.196 59.245 124.314 65.4375 127.17C65.8331 127.352 66.2937 127.346 66.671 127.128C67.2808 126.776 68.0605 126.985 68.4125 127.595L71.2723 132.548Z" fill="#0E0F26" fill-opacity="0.2"/>
<rect x="28.5361" y="144.526" width="10" height="31" transform="rotate(-30 28.5361 144.526)" fill="url(#paint81_linear_2238_31516)"/>
<rect x="25.4375" y="145.16" width="2" height="31" transform="rotate(-30 25.4375 145.16)" fill="url(#paint82_linear_2238_31516)"/>
</g>
<ellipse cx="46.8075" cy="139.174" rx="24.5" ry="16.5" transform="rotate(-30 46.8075 139.174)" fill="url(#paint83_linear_2238_31516)"/>
<ellipse opacity="0.4" cx="46.8072" cy="139.174" rx="20.5" ry="13.5" transform="rotate(-30 46.8072 139.174)" fill="url(#paint84_radial_2238_31516)"/>
</g>
</g>
<defs>
<radialGradient id="paint0_radial_2238_31516" cx="0" cy="0" r="1" gradientUnits="userSpaceOnUse" gradientTransform="translate(204.5 108) rotate(90) scale(108 183.236)">
<stop stop-color="#48407B"/>
<stop offset="1" stop-color="#140F34" stop-opacity="0"/>
</radialGradient>
<linearGradient id="paint1_linear_2238_31516" x1="0" y1="185" x2="408" y2="185" gradientUnits="userSpaceOnUse">
<stop stop-color="#CCCCCC" stop-opacity="0"/>
<stop offset="0.2" stop-color="#CCCCCC"/>
<stop offset="0.8" stop-color="#CCCCCC"/>
<stop offset="1" stop-color="#CCCCCC" stop-opacity="0"/>
</linearGradient>
<linearGradient id="paint2_linear_2238_31516" x1="62.6162" y1="55.5194" x2="85.4895" y2="98.8162" gradientUnits="userSpaceOnUse">
<stop stop-color="#8A86FF"/>
<stop offset="0.9952" stop-color="#E13CBD"/>
</linearGradient>
<linearGradient id="paint3_linear_2238_31516" x1="87.5" y1="99" x2="51.6712" y2="74.7785" gradientUnits="userSpaceOnUse">
<stop stop-color="#585699"/>
<stop offset="1" stop-color="#7064AF"/>
</linearGradient>
<linearGradient id="paint4_linear_2238_31516" x1="74.6758" y1="60.4693" x2="74.6758" y2="82.3517" gradientUnits="userSpaceOnUse">
<stop stop-color="#9D6FE8" stop-opacity="0"/>
<stop offset="1" stop-color="#A8B6FF" stop-opacity="0.53"/>
</linearGradient>
<linearGradient id="paint5_linear_2238_31516" x1="74.1592" y1="57.3497" x2="74.1592" y2="79.232" gradientUnits="userSpaceOnUse">
<stop stop-color="#9D6FE8" stop-opacity="0"/>
<stop offset="1" stop-color="#A8B6FF" stop-opacity="0.53"/>
</linearGradient>
<linearGradient id="paint6_linear_2238_31516" x1="54.295" y1="59.2009" x2="107.643" y2="68.1209" gradientUnits="userSpaceOnUse">
<stop stop-color="#7064AF"/>
<stop offset="1" stop-color="#585699"/>
</linearGradient>
<radialGradient id="paint7_radial_2238_31516" cx="0" cy="0" r="1" gradientUnits="userSpaceOnUse" gradientTransform="translate(58.8394 74.3544) scale(40.99 31.6492)">
<stop stop-color="#A075F0" stop-opacity="0"/>
<stop offset="0.9952" stop-color="#140F34"/>
</radialGradient>
<linearGradient id="paint8_linear_2238_31516" x1="158.507" y1="59.0623" x2="134.024" y2="101.469" gradientUnits="userSpaceOnUse">
<stop stop-color="#8A86FF"/>
<stop offset="0.9952" stop-color="#E13CBD"/>
</linearGradient>
<linearGradient id="paint9_linear_2238_31516" x1="132.008" y1="101.577" x2="168.721" y2="78.719" gradientUnits="userSpaceOnUse">
<stop stop-color="#585699"/>
<stop offset="1" stop-color="#7064AF"/>
</linearGradient>
<linearGradient id="paint10_linear_2238_31516" x1="0" y1="4.55882" x2="0" y2="26.4412" gradientUnits="userSpaceOnUse">
<stop stop-color="#9D6FE8" stop-opacity="0"/>
<stop offset="1" stop-color="#A8B6FF" stop-opacity="0.53"/>
</linearGradient>
<linearGradient id="paint11_linear_2238_31516" x1="0" y1="4.55882" x2="0" y2="26.4412" gradientUnits="userSpaceOnUse">
<stop stop-color="#9D6FE8" stop-opacity="0"/>
<stop offset="1" stop-color="#A8B6FF" stop-opacity="0.53"/>
</linearGradient>
<linearGradient id="paint12_linear_2238_31516" x1="-0.544445" y1="1.33065" x2="52.8038" y2="10.2507" gradientUnits="userSpaceOnUse">
<stop stop-color="#7064AF"/>
<stop offset="1" stop-color="#585699"/>
</linearGradient>
<radialGradient id="paint13_radial_2238_31516" cx="0" cy="0" r="1" gradientUnits="userSpaceOnUse" gradientTransform="translate(0 13.4842) scale(40.99 31.6492)">
<stop stop-color="#A075F0" stop-opacity="0"/>
<stop offset="0.9952" stop-color="#140F34"/>
</radialGradient>
<linearGradient id="paint14_linear_2238_31516" x1="413.959" y1="59.0623" x2="389.475" y2="101.469" gradientUnits="userSpaceOnUse">
<stop stop-color="#8A86FF"/>
<stop offset="0.9952" stop-color="#E13CBD"/>
</linearGradient>
<linearGradient id="paint15_linear_2238_31516" x1="387.459" y1="101.577" x2="424.172" y2="78.719" gradientUnits="userSpaceOnUse">
<stop stop-color="#585699"/>
<stop offset="1" stop-color="#7064AF"/>
</linearGradient>
<linearGradient id="paint16_linear_2238_31516" x1="0" y1="4.55882" x2="0" y2="26.4412" gradientUnits="userSpaceOnUse">
<stop stop-color="#9D6FE8" stop-opacity="0"/>
<stop offset="1" stop-color="#A8B6FF" stop-opacity="0.53"/>
</linearGradient>
<linearGradient id="paint17_linear_2238_31516" x1="0" y1="4.55882" x2="0" y2="26.4412" gradientUnits="userSpaceOnUse">
<stop stop-color="#9D6FE8" stop-opacity="0"/>
<stop offset="1" stop-color="#A8B6FF" stop-opacity="0.53"/>
</linearGradient>
<linearGradient id="paint18_linear_2238_31516" x1="-0.544445" y1="1.33065" x2="52.8038" y2="10.2507" gradientUnits="userSpaceOnUse">
<stop stop-color="#7064AF"/>
<stop offset="1" stop-color="#585699"/>
</linearGradient>
<radialGradient id="paint19_radial_2238_31516" cx="0" cy="0" r="1" gradientUnits="userSpaceOnUse" gradientTransform="translate(0 13.4842) scale(40.99 31.6492)">
<stop stop-color="#A075F0" stop-opacity="0"/>
<stop offset="0.9952" stop-color="#140F34"/>
</radialGradient>
<linearGradient id="paint20_linear_2238_31516" x1="24.9587" y1="59.0623" x2="0.474967" y2="101.469" gradientUnits="userSpaceOnUse">
<stop stop-color="#8A86FF"/>
<stop offset="0.9952" stop-color="#E13CBD"/>
</linearGradient>
<linearGradient id="paint21_linear_2238_31516" x1="-1.54099" y1="101.577" x2="35.1724" y2="78.719" gradientUnits="userSpaceOnUse">
<stop stop-color="#585699"/>
<stop offset="1" stop-color="#7064AF"/>
</linearGradient>
<linearGradient id="paint22_linear_2238_31516" x1="0" y1="4.55882" x2="0" y2="26.4412" gradientUnits="userSpaceOnUse">
<stop stop-color="#9D6FE8" stop-opacity="0"/>
<stop offset="1" stop-color="#A8B6FF" stop-opacity="0.53"/>
</linearGradient>
<linearGradient id="paint23_linear_2238_31516" x1="0" y1="4.55882" x2="0" y2="26.4412" gradientUnits="userSpaceOnUse">
<stop stop-color="#9D6FE8" stop-opacity="0"/>
<stop offset="1" stop-color="#A8B6FF" stop-opacity="0.53"/>
</linearGradient>
<linearGradient id="paint24_linear_2238_31516" x1="-0.544445" y1="1.33065" x2="52.8038" y2="10.2507" gradientUnits="userSpaceOnUse">
<stop stop-color="#7064AF"/>
<stop offset="1" stop-color="#585699"/>
</linearGradient>
<radialGradient id="paint25_radial_2238_31516" cx="0" cy="0" r="1" gradientUnits="userSpaceOnUse" gradientTransform="translate(0 13.4842) scale(40.99 31.6492)">
<stop stop-color="#A075F0" stop-opacity="0"/>
<stop offset="0.9952" stop-color="#140F34"/>
</radialGradient>
<linearGradient id="paint26_linear_2238_31516" x1="213.796" y1="101.462" x2="189.312" y2="59.0546" gradientUnits="userSpaceOnUse">
<stop stop-color="#8A86FF"/>
<stop offset="0.9952" stop-color="#E13CBD"/>
</linearGradient>
<linearGradient id="paint27_linear_2238_31516" x1="190.227" y1="57.2547" x2="191.666" y2="100.479" gradientUnits="userSpaceOnUse">
<stop stop-color="#585699"/>
<stop offset="1" stop-color="#7064AF"/>
</linearGradient>
<linearGradient id="paint28_linear_2238_31516" x1="0" y1="4.55882" x2="0" y2="26.4412" gradientUnits="userSpaceOnUse">
<stop stop-color="#9D6FE8" stop-opacity="0"/>
<stop offset="1" stop-color="#A8B6FF" stop-opacity="0.53"/>
</linearGradient>
<linearGradient id="paint29_linear_2238_31516" x1="0" y1="4.55882" x2="0" y2="26.4412" gradientUnits="userSpaceOnUse">
<stop stop-color="#9D6FE8" stop-opacity="0"/>
<stop offset="1" stop-color="#A8B6FF" stop-opacity="0.53"/>
</linearGradient>
<linearGradient id="paint30_linear_2238_31516" x1="-0.544445" y1="1.33065" x2="52.8038" y2="10.2507" gradientUnits="userSpaceOnUse">
<stop stop-color="#7064AF"/>
<stop offset="1" stop-color="#585699"/>
</linearGradient>
<radialGradient id="paint31_radial_2238_31516" cx="0" cy="0" r="1" gradientUnits="userSpaceOnUse" gradientTransform="translate(0 13.4842) scale(40.99 31.6492)">
<stop stop-color="#A075F0" stop-opacity="0"/>
<stop offset="0.9952" stop-color="#140F34"/>
</radialGradient>
<linearGradient id="paint32_linear_2238_31516" x1="290.828" y1="69.1134" x2="248.421" y2="93.597" gradientUnits="userSpaceOnUse">
<stop stop-color="#8A86FF"/>
<stop offset="0.9952" stop-color="#E13CBD"/>
</linearGradient>
<linearGradient id="paint33_linear_2238_31516" x1="246.621" y1="92.6827" x2="289.845" y2="91.2434" gradientUnits="userSpaceOnUse">
<stop stop-color="#585699"/>
<stop offset="1" stop-color="#7064AF"/>
</linearGradient>
<linearGradient id="paint34_linear_2238_31516" x1="0" y1="4.55882" x2="0" y2="26.4412" gradientUnits="userSpaceOnUse">
<stop stop-color="#9D6FE8" stop-opacity="0"/>
<stop offset="1" stop-color="#A8B6FF" stop-opacity="0.53"/>
</linearGradient>
<linearGradient id="paint35_linear_2238_31516" x1="0" y1="4.55882" x2="0" y2="26.4412" gradientUnits="userSpaceOnUse">
<stop stop-color="#9D6FE8" stop-opacity="0"/>
<stop offset="1" stop-color="#A8B6FF" stop-opacity="0.53"/>
</linearGradient>
<linearGradient id="paint36_linear_2238_31516" x1="-0.544445" y1="1.33065" x2="52.8038" y2="10.2507" gradientUnits="userSpaceOnUse">
<stop stop-color="#7064AF"/>
<stop offset="1" stop-color="#585699"/>
</linearGradient>
<radialGradient id="paint37_radial_2238_31516" cx="0" cy="0" r="1" gradientUnits="userSpaceOnUse" gradientTransform="translate(0 13.4842) scale(40.99 31.6492)">
<stop stop-color="#A075F0" stop-opacity="0"/>
<stop offset="0.9952" stop-color="#140F34"/>
</radialGradient>
<linearGradient id="paint38_linear_2238_31516" x1="357.677" y1="93.5926" x2="315.27" y2="69.1089" gradientUnits="userSpaceOnUse">
<stop stop-color="#8A86FF"/>
<stop offset="0.9952" stop-color="#E13CBD"/>
</linearGradient>
<linearGradient id="paint39_linear_2238_31516" x1="315.162" y1="67.093" x2="338.021" y2="103.806" gradientUnits="userSpaceOnUse">
<stop stop-color="#585699"/>
<stop offset="1" stop-color="#7064AF"/>
</linearGradient>
<linearGradient id="paint40_linear_2238_31516" x1="0" y1="4.55882" x2="0" y2="26.4412" gradientUnits="userSpaceOnUse">
<stop stop-color="#9D6FE8" stop-opacity="0"/>
<stop offset="1" stop-color="#A8B6FF" stop-opacity="0.53"/>
</linearGradient>
<linearGradient id="paint41_linear_2238_31516" x1="0" y1="4.55882" x2="0" y2="26.4412" gradientUnits="userSpaceOnUse">
<stop stop-color="#9D6FE8" stop-opacity="0"/>
<stop offset="1" stop-color="#A8B6FF" stop-opacity="0.53"/>
</linearGradient>
<linearGradient id="paint42_linear_2238_31516" x1="-0.544445" y1="1.33065" x2="52.8038" y2="10.2507" gradientUnits="userSpaceOnUse">
<stop stop-color="#7064AF"/>
<stop offset="1" stop-color="#585699"/>
</linearGradient>
<radialGradient id="paint43_radial_2238_31516" cx="0" cy="0" r="1" gradientUnits="userSpaceOnUse" gradientTransform="translate(0 13.4842) scale(40.99 31.6492)">
<stop stop-color="#A075F0" stop-opacity="0"/>
<stop offset="0.9952" stop-color="#140F34"/>
</radialGradient>
<linearGradient id="paint44_linear_2238_31516" x1="323.659" y1="118.519" x2="300.786" y2="161.816" gradientUnits="userSpaceOnUse">
<stop stop-color="#8A86FF"/>
<stop offset="0.9952" stop-color="#E13CBD"/>
</linearGradient>
<linearGradient id="paint45_linear_2238_31516" x1="298.775" y1="162" x2="334.604" y2="137.778" gradientUnits="userSpaceOnUse">
<stop stop-color="#585699"/>
<stop offset="1" stop-color="#7064AF"/>
</linearGradient>
<linearGradient id="paint46_linear_2238_31516" x1="0" y1="4.55882" x2="0" y2="26.4412" gradientUnits="userSpaceOnUse">
<stop stop-color="#9D6FE8" stop-opacity="0"/>
<stop offset="1" stop-color="#A8B6FF" stop-opacity="0.53"/>
</linearGradient>
<linearGradient id="paint47_linear_2238_31516" x1="0" y1="4.55882" x2="0" y2="26.4412" gradientUnits="userSpaceOnUse">
<stop stop-color="#9D6FE8" stop-opacity="0"/>
<stop offset="1" stop-color="#A8B6FF" stop-opacity="0.53"/>
</linearGradient>
<linearGradient id="paint48_linear_2238_31516" x1="-0.544445" y1="1.33065" x2="52.8038" y2="10.2507" gradientUnits="userSpaceOnUse">
<stop stop-color="#7064AF"/>
<stop offset="1" stop-color="#585699"/>
</linearGradient>
<radialGradient id="paint49_radial_2238_31516" cx="0" cy="0" r="1" gradientUnits="userSpaceOnUse" gradientTransform="translate(0 13.4842) scale(40.99 31.6492)">
<stop stop-color="#A075F0" stop-opacity="0"/>
<stop offset="0.9952" stop-color="#140F34"/>
</radialGradient>
<linearGradient id="paint50_linear_2238_31516" x1="227.768" y1="122.062" x2="252.252" y2="164.469" gradientUnits="userSpaceOnUse">
<stop stop-color="#8A86FF"/>
<stop offset="0.9952" stop-color="#E13CBD"/>
</linearGradient>
<linearGradient id="paint51_linear_2238_31516" x1="254.268" y1="164.577" x2="217.554" y2="141.719" gradientUnits="userSpaceOnUse">
<stop stop-color="#585699"/>
<stop offset="1" stop-color="#7064AF"/>
</linearGradient>
<linearGradient id="paint52_linear_2238_31516" x1="239.834" y1="126.559" x2="239.834" y2="148.441" gradientUnits="userSpaceOnUse">
<stop stop-color="#9D6FE8" stop-opacity="0"/>
<stop offset="1" stop-color="#A8B6FF" stop-opacity="0.53"/>
</linearGradient>
<linearGradient id="paint53_linear_2238_31516" x1="239.2" y1="123.461" x2="239.2" y2="145.343" gradientUnits="userSpaceOnUse">
<stop stop-color="#9D6FE8" stop-opacity="0"/>
<stop offset="1" stop-color="#A8B6FF" stop-opacity="0.53"/>
</linearGradient>
<linearGradient id="paint54_linear_2238_31516" x1="220.143" y1="125.102" x2="273.491" y2="134.022" gradientUnits="userSpaceOnUse">
<stop stop-color="#7064AF"/>
<stop offset="1" stop-color="#585699"/>
</linearGradient>
<radialGradient id="paint55_radial_2238_31516" cx="0" cy="0" r="1" gradientUnits="userSpaceOnUse" gradientTransform="translate(224.688 140.256) scale(40.99 31.6492)">
<stop stop-color="#A075F0" stop-opacity="0"/>
<stop offset="0.9952" stop-color="#140F34"/>
</radialGradient>
<linearGradient id="paint56_linear_2238_31516" x1="-27.6833" y1="122.062" x2="-3.19958" y2="164.469" gradientUnits="userSpaceOnUse">
<stop stop-color="#8A86FF"/>
<stop offset="0.9952" stop-color="#E13CBD"/>
</linearGradient>
<linearGradient id="paint57_linear_2238_31516" x1="-1.18362" y1="164.577" x2="-37.897" y2="141.719" gradientUnits="userSpaceOnUse">
<stop stop-color="#585699"/>
<stop offset="1" stop-color="#7064AF"/>
</linearGradient>
<linearGradient id="paint58_linear_2238_31516" x1="-35.3085" y1="125.102" x2="18.0398" y2="134.022" gradientUnits="userSpaceOnUse">
<stop stop-color="#7064AF"/>
<stop offset="1" stop-color="#585699"/>
</linearGradient>
<radialGradient id="paint59_radial_2238_31516" cx="0" cy="0" r="1" gradientUnits="userSpaceOnUse" gradientTransform="translate(-30.7636 140.256) scale(40.99 31.6492)">
<stop stop-color="#A075F0" stop-opacity="0"/>
<stop offset="0.9952" stop-color="#140F34"/>
</radialGradient>
<linearGradient id="paint60_linear_2238_31516" x1="361.317" y1="122.062" x2="385.8" y2="164.469" gradientUnits="userSpaceOnUse">
<stop stop-color="#8A86FF"/>
<stop offset="0.9952" stop-color="#E13CBD"/>
</linearGradient>
<linearGradient id="paint61_linear_2238_31516" x1="387.816" y1="164.577" x2="351.103" y2="141.719" gradientUnits="userSpaceOnUse">
<stop stop-color="#585699"/>
<stop offset="1" stop-color="#7064AF"/>
</linearGradient>
<linearGradient id="paint62_linear_2238_31516" x1="373.383" y1="126.559" x2="373.383" y2="148.441" gradientUnits="userSpaceOnUse">
<stop stop-color="#9D6FE8" stop-opacity="0"/>
<stop offset="1" stop-color="#A8B6FF" stop-opacity="0.53"/>
</linearGradient>
<linearGradient id="paint63_linear_2238_31516" x1="372.749" y1="123.461" x2="372.749" y2="145.343" gradientUnits="userSpaceOnUse">
<stop stop-color="#9D6FE8" stop-opacity="0"/>
<stop offset="1" stop-color="#A8B6FF" stop-opacity="0.53"/>
</linearGradient>
<linearGradient id="paint64_linear_2238_31516" x1="353.692" y1="125.102" x2="407.04" y2="134.022" gradientUnits="userSpaceOnUse">
<stop stop-color="#7064AF"/>
<stop offset="1" stop-color="#585699"/>
</linearGradient>
<radialGradient id="paint65_radial_2238_31516" cx="0" cy="0" r="1" gradientUnits="userSpaceOnUse" gradientTransform="translate(358.236 140.256) scale(40.99 31.6492)">
<stop stop-color="#A075F0" stop-opacity="0"/>
<stop offset="0.9952" stop-color="#140F34"/>
</radialGradient>
<linearGradient id="paint66_linear_2238_31516" x1="172.479" y1="164.462" x2="196.963" y2="122.055" gradientUnits="userSpaceOnUse">
<stop stop-color="#8A86FF"/>
<stop offset="0.9952" stop-color="#E13CBD"/>
</linearGradient>
<linearGradient id="paint67_linear_2238_31516" x1="196.049" y1="120.255" x2="194.609" y2="163.479" gradientUnits="userSpaceOnUse">
<stop stop-color="#585699"/>
<stop offset="1" stop-color="#7064AF"/>
</linearGradient>
<linearGradient id="paint68_linear_2238_31516" x1="166.393" y1="158.602" x2="166.393" y2="180.484" gradientUnits="userSpaceOnUse">
<stop stop-color="#9D6FE8" stop-opacity="0"/>
<stop offset="1" stop-color="#A8B6FF" stop-opacity="0.53"/>
</linearGradient>
<linearGradient id="paint69_linear_2238_31516" x1="164.026" y1="160.7" x2="164.026" y2="182.582" gradientUnits="userSpaceOnUse">
<stop stop-color="#9D6FE8" stop-opacity="0"/>
<stop offset="1" stop-color="#A8B6FF" stop-opacity="0.53"/>
</linearGradient>
<linearGradient id="paint70_linear_2238_31516" x1="154.495" y1="125.102" x2="207.843" y2="134.022" gradientUnits="userSpaceOnUse">
<stop stop-color="#7064AF"/>
<stop offset="1" stop-color="#585699"/>
</linearGradient>
<radialGradient id="paint71_radial_2238_31516" cx="0" cy="0" r="1" gradientUnits="userSpaceOnUse" gradientTransform="translate(159.039 140.256) scale(40.99 31.6492)">
<stop stop-color="#A075F0" stop-opacity="0"/>
<stop offset="0.9952" stop-color="#140F34"/>
</radialGradient>
<linearGradient id="paint72_linear_2238_31516" x1="95.4475" y1="132.113" x2="137.854" y2="156.597" gradientUnits="userSpaceOnUse">
<stop stop-color="#8A86FF"/>
<stop offset="0.9952" stop-color="#E13CBD"/>
</linearGradient>
<linearGradient id="paint73_linear_2238_31516" x1="139.654" y1="155.683" x2="96.4305" y2="154.243" gradientUnits="userSpaceOnUse">
<stop stop-color="#585699"/>
<stop offset="1" stop-color="#7064AF"/>
</linearGradient>
<linearGradient id="paint74_linear_2238_31516" x1="105.866" y1="130.585" x2="105.866" y2="152.468" gradientUnits="userSpaceOnUse">
<stop stop-color="#9D6FE8" stop-opacity="0"/>
<stop offset="1" stop-color="#A8B6FF" stop-opacity="0.53"/>
</linearGradient>
<linearGradient id="paint75_linear_2238_31516" x1="103.768" y1="128.219" x2="103.768" y2="150.102" gradientUnits="userSpaceOnUse">
<stop stop-color="#9D6FE8" stop-opacity="0"/>
<stop offset="1" stop-color="#A8B6FF" stop-opacity="0.53"/>
</linearGradient>
<linearGradient id="paint76_linear_2238_31516" x1="94.5931" y1="124.004" x2="147.941" y2="132.924" gradientUnits="userSpaceOnUse">
<stop stop-color="#7064AF"/>
<stop offset="1" stop-color="#585699"/>
</linearGradient>
<radialGradient id="paint77_radial_2238_31516" cx="0" cy="0" r="1" gradientUnits="userSpaceOnUse" gradientTransform="translate(99.1373 139.158) scale(40.99 31.6492)">
<stop stop-color="#A075F0" stop-opacity="0"/>
<stop offset="0.9952" stop-color="#140F34"/>
</radialGradient>
<linearGradient id="paint78_linear_2238_31516" x1="-0.544445" y1="1.33065" x2="52.8038" y2="10.2507" gradientUnits="userSpaceOnUse">
<stop stop-color="#7064AF"/>
<stop offset="1" stop-color="#585699"/>
</linearGradient>
<linearGradient id="paint79_linear_2238_31516" x1="28.5982" y1="156.593" x2="71.0052" y2="132.109" gradientUnits="userSpaceOnUse">
<stop stop-color="#8A86FF"/>
<stop offset="0.9952" stop-color="#E13CBD"/>
</linearGradient>
<linearGradient id="paint80_linear_2238_31516" x1="71.1133" y1="130.093" x2="48.2548" y2="166.806" gradientUnits="userSpaceOnUse">
<stop stop-color="#585699"/>
<stop offset="1" stop-color="#7064AF"/>
</linearGradient>
<linearGradient id="paint81_linear_2238_31516" x1="28.5361" y1="149.085" x2="28.5361" y2="170.968" gradientUnits="userSpaceOnUse">
<stop stop-color="#9D6FE8" stop-opacity="0"/>
<stop offset="1" stop-color="#A8B6FF" stop-opacity="0.53"/>
</linearGradient>
<linearGradient id="paint82_linear_2238_31516" x1="25.4375" y1="149.719" x2="25.4375" y2="171.602" gradientUnits="userSpaceOnUse">
<stop stop-color="#9D6FE8" stop-opacity="0"/>
<stop offset="1" stop-color="#A8B6FF" stop-opacity="0.53"/>
</linearGradient>
<linearGradient id="paint83_linear_2238_31516" x1="21.763" y1="124.004" x2="75.1112" y2="132.924" gradientUnits="userSpaceOnUse">
<stop stop-color="#7064AF"/>
<stop offset="1" stop-color="#585699"/>
</linearGradient>
<radialGradient id="paint84_radial_2238_31516" cx="0" cy="0" r="1" gradientUnits="userSpaceOnUse" gradientTransform="translate(26.3072 139.158) scale(40.99 31.6492)">
<stop stop-color="#A075F0" stop-opacity="0"/>
<stop offset="0.9952" stop-color="#140F34"/>
</radialGradient>
<clipPath id="clip0_2238_31516">
<rect width="408" height="216" fill="white"/>
</clipPath>
</defs>
</svg>
