<svg width="24" height="25" viewBox="0 0 24 25" fill="none" xmlns="http://www.w3.org/2000/svg">
<path d="M18.9225 5.82729C17.6558 5.2368 16.2844 4.80822 14.8557 4.56059C14.8432 4.56019 14.8308 4.56254 14.8192 4.56748C14.8077 4.57241 14.7974 4.57982 14.7891 4.58916C14.6176 4.90346 14.4176 5.31299 14.2843 5.62729C12.769 5.39871 11.228 5.39871 9.71275 5.62729C9.57941 5.30347 9.37941 4.90346 9.19845 4.58916C9.18893 4.57011 9.16035 4.56059 9.13178 4.56059C7.70317 4.80822 6.34123 5.2368 5.065 5.82729C5.05548 5.82729 5.04595 5.83682 5.03643 5.84634C2.44588 9.72264 1.73158 13.4942 2.08397 17.2276C2.08397 17.2467 2.09349 17.2657 2.11254 17.2752C3.82687 18.5324 5.47454 19.2943 7.10315 19.7991C7.13173 19.8086 7.1603 19.7991 7.16982 19.7801C7.55078 19.2562 7.89365 18.7038 8.1889 18.1229C8.20795 18.0848 8.1889 18.0467 8.1508 18.0372C7.60793 17.8276 7.09363 17.58 6.58885 17.2943C6.55076 17.2752 6.55076 17.2181 6.57933 17.1895C6.68409 17.1133 6.78886 17.0276 6.89362 16.9514C6.91267 16.9324 6.94124 16.9324 6.96029 16.9419C10.2366 18.4372 13.77 18.4372 17.0082 16.9419C17.0272 16.9324 17.0558 16.9324 17.0749 16.9514C17.1796 17.0371 17.2844 17.1133 17.3891 17.199C17.4272 17.2276 17.4272 17.2847 17.3796 17.3038C16.8844 17.599 16.3605 17.8371 15.8177 18.0467C15.7796 18.0562 15.7701 18.1038 15.7796 18.1324C16.0844 18.7134 16.4272 19.2658 16.7987 19.7896C16.8272 19.7991 16.8558 19.8086 16.8844 19.7991C18.5225 19.2943 20.1702 18.5324 21.8845 17.2752C21.9036 17.2657 21.9131 17.2467 21.9131 17.2276C22.3321 12.9132 21.2178 9.17024 18.9606 5.84634C18.9511 5.83682 18.9416 5.82729 18.9225 5.82729ZM8.68415 14.9514C7.70317 14.9514 6.8841 14.0466 6.8841 12.9322C6.8841 11.8179 7.68412 10.9131 8.68415 10.9131C9.6937 10.9131 10.4937 11.8275 10.4842 12.9322C10.4842 14.0466 9.68418 14.9514 8.68415 14.9514ZM15.3224 14.9514C14.3414 14.9514 13.5224 14.0466 13.5224 12.9322C13.5224 11.8179 14.3224 10.9131 15.3224 10.9131C16.332 10.9131 17.132 11.8275 17.1225 12.9322C17.1225 14.0466 16.332 14.9514 15.3224 14.9514Z" fill="#F9F8F7" fill-opacity="0.2"/>
</svg>
