<svg width="24" height="25" viewBox="0 0 24 25" fill="none" xmlns="http://www.w3.org/2000/svg">
<path d="M7.5 22.1797C6.53333 22.1797 5.70833 21.838 5.025 21.1547C4.34167 20.4714 4 19.6464 4 18.6797V5.67969C4 4.71302 4.34167 3.88802 5.025 3.20469C5.70833 2.52135 6.53333 2.17969 7.5 2.17969H19.5C19.7761 2.17969 20 2.40355 20 2.67969V16.8797C20 17.0454 19.8645 17.176 19.7016 17.2066C19.4116 17.261 19.1569 17.3978 18.9375 17.6172C18.6458 17.9089 18.5 18.263 18.5 18.6797C18.5 19.0964 18.6458 19.4505 18.9375 19.7422C19.1569 19.9615 19.4116 20.0984 19.7016 20.1528C19.8645 20.1833 20 20.314 20 20.4797V21.6797C20 21.9558 19.7761 22.1797 19.5 22.1797H7.5ZM8 14.7797C8 15.0006 8.17909 15.1797 8.4 15.1797H9.6C9.82091 15.1797 10 15.0006 10 14.7797V4.57969C10 4.35877 9.82091 4.17969 9.6 4.17969H8.4C8.17909 4.17969 8 4.35877 8 4.57969V14.7797ZM7.5 20.1797H16.825C16.725 19.9464 16.6458 19.7089 16.5875 19.4672C16.5292 19.2255 16.5 18.963 16.5 18.6797C16.5 18.413 16.525 18.1547 16.575 17.9047C16.625 17.6547 16.7083 17.413 16.825 17.1797H7.5C7.06667 17.1797 6.70833 17.3255 6.425 17.6172C6.14167 17.9089 6 18.263 6 18.6797C6 19.113 6.14167 19.4714 6.425 19.7547C6.70833 20.038 7.06667 20.1797 7.5 20.1797Z" fill="#F9F8F7" fill-opacity="0.2"/>
</svg>
