<svg width="24" height="25" viewBox="0 0 24 25" fill="none" xmlns="http://www.w3.org/2000/svg">
<path d="M12 2.17969C10.6868 2.17969 9.38642 2.43835 8.17317 2.94089C6.95991 3.44344 5.85752 4.18003 4.92893 5.10862C3.05357 6.98398 2 9.52752 2 12.1797C2 16.5997 4.87 20.3497 8.84 21.6797C9.34 21.7597 9.5 21.4497 9.5 21.1797V19.4897C6.73 20.0897 6.14 18.1497 6.14 18.1497C5.68 16.9897 5.03 16.6797 5.03 16.6797C4.12 16.0597 5.1 16.0797 5.1 16.0797C6.1 16.1497 6.63 17.1097 6.63 17.1097C7.5 18.6297 8.97 18.1797 9.54 17.9397C9.63 17.2897 9.89 16.8497 10.17 16.5997C7.95 16.3497 5.62 15.4897 5.62 11.6797C5.62 10.5697 6 9.67969 6.65 8.96969C6.55 8.71969 6.2 7.67969 6.75 6.32969C6.75 6.32969 7.59 6.05969 9.5 7.34969C10.29 7.12969 11.15 7.01969 12 7.01969C12.85 7.01969 13.71 7.12969 14.5 7.34969C16.41 6.05969 17.25 6.32969 17.25 6.32969C17.8 7.67969 17.45 8.71969 17.35 8.96969C18 9.67969 18.38 10.5697 18.38 11.6797C18.38 15.4997 16.04 16.3397 13.81 16.5897C14.17 16.8997 14.5 17.5097 14.5 18.4397V21.1797C14.5 21.4497 14.66 21.7697 15.17 21.6797C19.14 20.3397 22 16.5997 22 12.1797C22 10.8665 21.7413 9.56611 21.2388 8.35285C20.7362 7.1396 19.9997 6.03721 19.0711 5.10862C18.1425 4.18003 17.0401 3.44344 15.8268 2.94089C14.6136 2.43835 13.3132 2.17969 12 2.17969Z" fill="#F9F8F7" fill-opacity="0.2"/>
</svg>
