<svg width="24" height="25" viewBox="0 0 24 25" fill="none" xmlns="http://www.w3.org/2000/svg">
<path d="M16 11.1797C16.2833 11.1797 16.5208 11.0839 16.7125 10.8922C16.9042 10.7005 17 10.463 17 10.1797C17 9.89635 16.9042 9.65885 16.7125 9.46719C16.5208 9.27552 16.2833 9.17969 16 9.17969C15.7167 9.17969 15.4792 9.27552 15.2875 9.46719C15.0958 9.65885 15 9.89635 15 10.1797C15 10.463 15.0958 10.7005 15.2875 10.8922C15.4792 11.0839 15.7167 11.1797 16 11.1797ZM8 9.17969H13V7.17969H8V9.17969ZM4.79811 21.1797C4.62123 21.1797 4.46534 21.0635 4.41485 20.894C3.87738 19.0896 3.34743 17.289 2.825 15.4922C2.275 13.6005 2 11.663 2 9.67969C2 8.14635 2.53333 6.84635 3.6 5.77969C4.66667 4.71302 5.96667 4.17969 7.5 4.17969H12.5C12.9833 3.54635 13.5708 3.05469 14.2625 2.70469C14.9542 2.35469 15.7 2.17969 16.5 2.17969C16.9167 2.17969 17.2708 2.32552 17.5625 2.61719C17.8542 2.90885 18 3.26302 18 3.67969C18 3.76302 17.9583 3.95469 17.875 4.25469C17.8083 4.43802 17.7458 4.62552 17.6875 4.81719C17.6292 5.00885 17.5833 5.20469 17.55 5.40469L19.825 7.67969H21.35C21.709 7.67969 22 7.9707 22 8.32969V14.1836C22 14.4646 21.8194 14.7138 21.5523 14.8013L19.175 15.5797L17.5854 20.8943C17.5347 21.0637 17.3789 21.1797 17.2021 21.1797H12.4C12.1791 21.1797 12 21.0006 12 20.7797V19.1797H10V20.7797C10 21.0006 9.82091 21.1797 9.6 21.1797H4.79811Z" fill="#F9F8F7" fill-opacity="0.2"/>
</svg>
