<svg width="24" height="25" viewBox="0 0 24 25" fill="none" xmlns="http://www.w3.org/2000/svg">
<path d="M20.963 6.88572H18.3209C18.699 6.34643 18.9092 5.71105 18.9259 5.05682C18.941 4.55842 18.852 4.06226 18.6644 3.59882C18.4769 3.13538 18.1946 2.71445 17.8351 2.36187C17.4756 2.0093 17.0464 1.73253 16.5738 1.54857C16.1013 1.36461 15.5953 1.27735 15.0871 1.29214C14.6177 1.30196 14.1555 1.40685 13.7294 1.60023C13.3033 1.79361 12.9226 2.07129 12.6111 2.41585C12.3814 2.67283 12.1768 2.9504 12 3.2449C11.8232 2.9504 11.6186 2.67283 11.3889 2.41585C11.0774 2.07129 10.6967 1.79361 10.2706 1.60023C9.84453 1.40685 9.38227 1.30196 8.91287 1.29214C8.40466 1.27735 7.89874 1.36461 7.42617 1.54857C6.95361 1.73253 6.52439 2.0093 6.16487 2.36187C5.80536 2.71445 5.52314 3.13538 5.33556 3.59882C5.14798 4.06226 5.05899 4.55842 5.07407 5.05682C5.09084 5.71105 5.30102 6.34643 5.67907 6.88572H3.03704C2.49678 6.88572 1.97865 7.09619 1.59663 7.47084C1.21462 7.84548 1 8.3536 1 8.88343V12.0798C0.999904 12.5403 1.16206 12.9867 1.45902 13.3435C1.75599 13.7002 2.16952 13.9454 2.62963 14.0375V20.0706C2.62963 20.6004 2.84425 21.1085 3.22626 21.4832C3.60828 21.8578 4.12641 22.0683 4.66667 22.0683H19.3333C19.8736 22.0683 20.3917 21.8578 20.7737 21.4832C21.1558 21.1085 21.3704 20.6004 21.3704 20.0706V14.0375C21.8305 13.9454 22.244 13.7002 22.541 13.3435C22.8379 12.9867 23.0001 12.5403 23 12.0798V8.88343C23 8.3536 22.7854 7.84548 22.4034 7.47084C22.0213 7.09619 21.5032 6.88572 20.963 6.88572ZM20.5556 11.6802H13.2222V9.28297H20.5556V11.6802ZM14.4444 4.00602C14.5346 3.90789 14.6445 3.8291 14.7672 3.77461C14.8899 3.72012 15.0227 3.69111 15.1574 3.68939H15.1931C15.3654 3.68891 15.5361 3.72243 15.695 3.78796C15.8539 3.85349 15.9977 3.94969 16.1179 4.07083C16.2381 4.19198 16.3322 4.33559 16.3947 4.49314C16.4572 4.65068 16.4867 4.81894 16.4815 4.9879C16.4797 5.11998 16.4501 5.25027 16.3946 5.3706C16.339 5.49092 16.2587 5.59868 16.1586 5.6871C15.4558 6.29839 14.2998 6.61203 13.3444 6.76186C13.4972 5.82893 13.817 4.69523 14.4444 4.00602ZM7.89537 4.05896C8.13714 3.82441 8.4628 3.69178 8.80287 3.68939H8.84259C8.97727 3.69111 9.11013 3.72012 9.23283 3.77461C9.35552 3.8291 9.4654 3.90789 9.55556 4.00602C10.1789 4.69523 10.4987 5.82793 10.6505 6.76386C9.70324 6.61303 8.53704 6.29939 7.84139 5.6871C7.74132 5.59868 7.66098 5.49092 7.60542 5.3706C7.54986 5.25027 7.52027 5.11998 7.51852 4.9879C7.51401 4.81611 7.54509 4.64522 7.60986 4.48555C7.67464 4.32588 7.77176 4.18076 7.89537 4.05896ZM3.44444 9.28297H10.7778V11.6802H3.44444V9.28297ZM5.07407 14.0775H10.7778V19.6711H5.07407V14.0775ZM13.2222 19.6711V14.0775H18.9259V19.6711H13.2222Z" fill="#64C5EE"/>
</svg>
