<svg width="24" height="25" viewBox="0 0 24 25" fill="none" xmlns="http://www.w3.org/2000/svg">
<path d="M21.7595 7.0741C22.0802 6.75339 22.0802 6.23121 21.7595 5.9105L18.2687 2.41973C17.948 2.09902 17.4258 2.09902 17.1051 2.41973L15.4193 4.1055C15.1932 4.33164 14.856 4.40976 14.56 4.29875C11.1967 3.0118 7.29886 3.79301 4.70443 6.38745C1.09852 9.99335 1.09852 15.8648 4.70443 19.4707C6.50943 21.2757 8.87773 22.1761 11.246 22.1761C13.6143 22.1761 15.9826 21.2757 17.7876 19.4707C20.3821 16.8762 21.1633 12.9784 19.8763 9.61508C19.7612 9.31905 19.8434 8.98189 20.0696 8.75575L21.7595 7.0741ZM19.1445 6.78217L17.545 8.38159C17.3189 8.60773 17.2655 8.95722 17.4217 9.23681C17.9233 10.1414 18.2317 11.1241 18.3386 12.115C18.4373 13.0195 17.8658 13.8747 16.9941 14.1255C16.4801 14.2736 15.8017 14.3805 14.9218 14.3805C11.9738 14.3805 10.6293 11.9916 8.01429 11.9916C6.74379 11.9916 5.76934 12.2753 5.10737 12.5672C4.60163 12.7893 4.0589 12.374 4.14113 11.823C4.26859 10.9925 4.53996 10.1825 4.96346 9.43006C6.31207 7.02476 8.77083 5.75015 11.2543 5.75015C12.4466 5.75015 13.6472 6.04208 14.7368 6.6506L14.9424 6.76161C15.222 6.91785 15.5715 6.86851 15.8017 6.64237L17.4011 5.04295C17.5615 4.8826 17.8205 4.8826 17.9809 5.04295L19.1445 6.20654C19.3048 6.36278 19.3048 6.62182 19.1445 6.78217Z" fill="#64C5EE"/>
</svg>
