<svg width="24" height="25" viewBox="0 0 24 25" fill="none" xmlns="http://www.w3.org/2000/svg">
<path d="M22 3.1792V5.1792C22 7.03572 21.2625 8.81619 19.9497 10.1289C18.637 11.4417 16.8565 12.1792 15 12.1792H14V13.1792H19V20.1792C19 20.7096 18.7893 21.2183 18.4142 21.5934C18.0391 21.9685 17.5304 22.1792 17 22.1792H9C8.46957 22.1792 7.96086 21.9685 7.58579 21.5934C7.21071 21.2183 7 20.7096 7 20.1792V13.1792H12V10.1792C12 8.32269 12.7375 6.54221 14.0503 5.22945C15.363 3.9167 17.1435 3.1792 19 3.1792H22ZM6.5 2.1792C7.69998 2.17823 8.88262 2.46559 9.94836 3.01708C11.0141 3.56857 11.9317 4.36805 12.624 5.3482C11.568 6.7371 10.9974 8.43443 11 10.1792V11.1792H10.5C8.51088 11.1792 6.60322 10.389 5.1967 8.9825C3.79018 7.57598 3 5.66833 3 3.6792V2.1792H6.5Z" fill="#64C5EE"/>
</svg>
