<svg width="1392" height="553" viewBox="0 0 1392 553" fill="none" xmlns="http://www.w3.org/2000/svg">
<g clip-path="url(#clip0_611_10703)">
<rect width="1439" height="553" transform="matrix(-1 0 0 1 1439 0)" fill="url(#paint0_radial_611_10703)"/>
<rect width="1439" height="553" transform="matrix(-1 0 0 1 1439 0)" fill="url(#paint1_radial_611_10703)"/>
<rect width="1439" height="553" transform="matrix(-1 0 0 1 1439 0)" fill="url(#paint2_radial_611_10703)"/>
<g opacity="0.15">
<mask id="mask0_611_10703" style="mask-type:alpha" maskUnits="userSpaceOnUse" x="621" y="-121" width="904" height="905">
<circle cx="1073" cy="331.821" r="452" fill="url(#paint3_linear_611_10703)"/>
</mask>
<g mask="url(#mask0_611_10703)">
<path d="M1007.5 202.321L301 -503.255" stroke="white" stroke-width="1.25"/>
<path d="M1007.5 350.821L301 828.376" stroke="white" stroke-width="1.25"/>
<path d="M1007.5 321.321L301 554.842" stroke="white" stroke-width="1.25"/>
<path d="M1007.5 288.821L301 310.879" stroke="white" stroke-width="1.25"/>
<path d="M1007.94 256.357L301 41.9653" stroke="white" stroke-width="1.25"/>
<path d="M1007.5 226.821L301 -219.556" stroke="white" stroke-width="1.25"/>
<path d="M1007.5 384.321L301 1090.82" stroke="white" stroke-width="1.25"/>
<path d="M1189 384.321L1895.08 1090.82" stroke="white" stroke-width="1.25"/>
<path d="M1154.87 383.883L1632.63 1090.82" stroke="white" stroke-width="1.25"/>
<path d="M1125.3 383.883L1359.1 1090.82" stroke="white" stroke-width="1.25"/>
<path d="M1092.96 382.959L1115.13 1090.82" stroke="white" stroke-width="1.25"/>
<path d="M1060.61 383.883L846.22 1090.82" stroke="white" stroke-width="1.25"/>
<path d="M1031.96 382.959L584.698 1090.82" stroke="white" stroke-width="1.25"/>
<path d="M1189 202.821L1895 -504.179" stroke="white" stroke-width="1.25"/>
<path d="M1154.87 202.759L1632.63 -504.179" stroke="white" stroke-width="1.25"/>
<path d="M1125.3 202.759L1359.1 -504.179" stroke="white" stroke-width="1.25"/>
<path d="M1093 202.321L1115.13 -504.179" stroke="white" stroke-width="1.25"/>
<path d="M1060 202.321L846 -504.179" stroke="white" stroke-width="1.25"/>
<path d="M1031 202.321L584.7 -504.179" stroke="white" stroke-width="1.25"/>
<path d="M1189.5 351.821L1896 829.3" stroke="white" stroke-width="1.25"/>
<path d="M1189.5 321.821L1896 555.766" stroke="white" stroke-width="1.25"/>
<path d="M1189.5 289.821L1896 311.803" stroke="white" stroke-width="1.25"/>
<path d="M1189.5 256.821L1896 42.8892" stroke="white" stroke-width="1.25"/>
<path d="M1189.5 228.321L1896 -218.631" stroke="white" stroke-width="1.25"/>
<rect x="1007.64" y="202.46" width="181.722" height="181.722" stroke="white" stroke-width="1.25"/>
<rect x="996.551" y="191.371" width="203.901" height="203.901" stroke="white" stroke-width="1.25"/>
<rect x="974.371" y="169.192" width="248.258" height="248.258" stroke="white" stroke-width="1.25"/>
<rect x="954.625" y="147.446" width="288.918" height="288.918" stroke="white" stroke-width="1.25"/>
<rect x="933.711" y="128.532" width="329.578" height="329.578" stroke="white" stroke-width="1.25"/>
<rect x="909.685" y="104.505" width="377.632" height="377.632" stroke="white" stroke-width="1.25"/>
<rect x="872.721" y="67.541" width="451.56" height="451.56" stroke="white" stroke-width="1.25"/>
<rect x="837.604" y="32.4248" width="521.792" height="521.792" stroke="white" stroke-width="1.25"/>
<rect x="793.247" y="-11.9316" width="610.506" height="610.506" stroke="white" stroke-width="1.25"/>
<rect x="743.346" y="-61.8335" width="710.309" height="710.309" stroke="white" stroke-width="1.25"/>
<rect x="682.355" y="-122.824" width="832.29" height="832.29" stroke="white" stroke-width="1.25"/>
<rect x="610.274" y="-194.904" width="976.45" height="976.45" stroke="white" stroke-width="1.25"/>
<rect x="527.105" y="-278.073" width="1142.79" height="1142.79" stroke="white" stroke-width="1.25"/>
<rect x="423.607" y="-381.572" width="1349.79" height="1349.79" stroke="white" stroke-width="1.25"/>
</g>
</g>
<path d="M1407.97 292.52L1288.28 288.909L1287.77 418.393L1407.97 500.933V292.52Z" fill="url(#paint4_linear_611_10703)" stroke="#9084CF" stroke-opacity="0.25"/>
<path d="M1408.48 456.052L1335.75 418.226V289.941" stroke="#9084CF" stroke-opacity="0.25"/>
<path d="M1407.97 427.163L1389.4 417.968V292.52" stroke="#9084CF" stroke-opacity="0.25"/>
<path d="M1288.28 417.877H1408.48" stroke="#9084CF" stroke-opacity="0.25"/>
<path d="M1288.28 351.846H1408.48" stroke="#9084CF" stroke-opacity="0.25"/>
<path d="M1325.43 444.703H1407.97" stroke="#9084CF" stroke-opacity="0.25"/>
<path d="M1407.97 292.52L1253.72 288.909L1261.98 513.83L1407.97 500.933V292.52Z" fill="url(#paint5_linear_611_10703)"/>
<path d="M1288.8 292.52L1149 288.909L1155.19 419.425H1288.8H1409V292.52H1288.8Z" fill="url(#paint6_linear_611_10703)" fill-opacity="0.5"/>
<path d="M1394.33 188.26C1394.18 188.27 1394.03 188.305 1393.88 188.349L1290.63 219.221C1290.49 219.265 1290.33 219.295 1290.18 219.327C1288.77 219.63 1287.74 220.885 1287.74 222.354L1287.74 288.909C1287.74 290.578 1289.06 291.947 1290.73 292.003L1394.42 294.993C1396.17 295.051 1397.62 293.649 1397.62 291.899V191.349C1397.62 189.549 1396.09 188.147 1394.33 188.26Z" fill="url(#paint7_linear_611_10703)"/>
<mask id="mask1_611_10703" style="mask-type:alpha" maskUnits="userSpaceOnUse" x="743" y="360" width="160" height="157">
<path d="M887.79 360.821C886.935 360.821 886.087 360.958 885.276 361.226L748.486 406.505C745.211 407.589 743 410.65 743 414.1V508.321C743 512.739 746.582 516.321 751 516.321H764L899.025 423.704C901.2 422.212 902.5 419.744 902.5 417.107V366.821C902.5 363.507 899.814 360.821 896.5 360.821H887.79Z" fill="url(#paint8_linear_611_10703)"/>
</mask>
<g mask="url(#mask1_611_10703)">
<path d="M885.044 361.443L743 407.821L765.5 411.821L902.5 367.821L903 360.321L888.954 360.758C887.625 360.8 886.308 361.03 885.044 361.443Z" fill="url(#paint9_linear_611_10703)"/>
<path d="M769 407.821H743V511.915C743 514.087 744.733 515.862 746.905 515.914L761.026 516.25C762.957 516.296 764.852 515.719 766.43 514.605L772.5 510.321L769 407.821Z" fill="url(#paint10_linear_611_10703)"/>
<mask id="mask2_611_10703" style="mask-type:alpha" maskUnits="userSpaceOnUse" x="764" y="362" width="139" height="151">
<path d="M899.46 423.406L770.263 512.025C767.608 513.846 764 511.945 764 508.727V414.987C764 410.703 766.729 406.895 770.787 405.518L895.893 363.063C899.136 361.962 902.5 364.373 902.5 367.798V417.634C902.5 419.942 901.363 422.101 899.46 423.406Z" fill="#D9D9D9"/>
</mask>
<g mask="url(#mask2_611_10703)">
<path d="M902.5 421.321L764 516.321V407.821L902.5 360.821V421.321Z" fill="url(#paint11_linear_611_10703)"/>
<path d="M820.9 445.211L819.565 443.801C814.612 438.631 811.174 435.031 811.184 428.341C811.194 422.881 813.665 417.641 816.685 416.421C818.339 415.751 819.883 416.471 820.88 418.151C821.857 415.651 823.331 413.731 824.846 413.121C827.437 412.071 829.42 415.011 829.43 419.811C829.45 425.681 826.67 432.041 822.205 442.211L820.89 445.211H820.9Z" fill="white"/>
<path d="M832.59 423.091L835.281 421.741L835.35 436.711L832.65 438.381L832.59 423.091ZM843.283 431.791L836.397 436.061L836.317 420.361L837.842 414.841L838.23 408.531C838.26 408.021 838.38 407.531 838.559 407.131C838.738 406.731 838.968 406.461 839.207 406.371L839.277 406.341C839.665 406.191 840.044 406.361 840.313 406.821C840.592 407.281 840.742 407.991 840.752 408.791L840.791 414.871L844.528 413.111C845.007 412.891 845.465 413.081 845.804 413.661C846.143 414.231 846.332 415.131 846.342 416.161L846.402 422.981C846.412 424.791 846.103 426.721 845.525 428.371C844.947 430.031 844.14 431.261 843.283 431.801V431.791Z" fill="white"/>
<path d="M856.635 417.261L856.605 414.341L859.934 400.511L861.578 399.821L861.728 411.291L862.595 410.831L862.635 413.891L861.768 414.381L861.817 417.981L860.402 418.821L860.352 415.171L856.645 417.251L856.635 417.261ZM860.303 404.191L858.26 413.141L860.392 412.001L860.293 404.191H860.303Z" fill="white"/>
<path d="M850.796 420.091C851.553 418.171 852.151 416.611 852.6 415.401C853.038 414.181 853.397 412.971 853.676 411.771C853.955 410.581 854.095 409.481 854.085 408.471C854.085 407.551 853.975 406.871 853.786 406.431C853.596 405.991 853.307 405.851 852.919 406.031C852.53 406.211 852.231 406.651 852.022 407.371C851.813 408.071 851.713 408.961 851.713 410.031L850.059 410.811C850.069 408.551 850.348 406.731 850.876 405.341C851.414 403.971 852.092 403.111 852.909 402.781C853.786 402.421 854.463 402.691 854.932 403.581C855.4 404.451 855.639 405.761 855.659 407.521C855.679 408.911 855.53 410.311 855.231 411.731C854.932 413.161 854.573 414.471 854.174 415.641C853.766 416.811 853.238 418.251 852.57 419.991L855.958 418.081L855.988 421.191L850.198 424.631L850.168 421.691L850.796 420.091Z" fill="white"/>
</g>
</g>
<path d="M852.5 278.821L899.179 323.594C900.668 325.023 902.652 325.821 904.717 325.821H919L906 281.345L852.5 278.821Z" fill="url(#paint12_linear_611_10703)"/>
<path d="M814 94.8208H798C795.239 94.8208 793 97.0594 793 99.8208V288.821C793 291.582 795.239 293.821 798 293.821H814V94.8208Z" fill="url(#paint13_linear_611_10703)"/>
<mask id="mask3_611_10703" style="mask-type:alpha" maskUnits="userSpaceOnUse" x="811" y="94" width="110" height="232">
<path d="M921 166.924C921 165.922 920.5 164.986 919.667 164.43L815.667 94.9389C813.673 93.6069 811 95.0358 811 97.4333V290.766C811 292.444 812.377 293.796 814.055 293.765L880.38 292.559C881.166 292.545 881.926 292.84 882.496 293.38L915.938 325.03C917.85 326.84 921 325.484 921 322.851V166.924Z" fill="url(#paint14_linear_611_10703)"/>
</mask>
<g mask="url(#mask3_611_10703)">
<path d="M921 166.924C921 165.922 920.5 164.986 919.667 164.43L815.667 94.9389C813.673 93.6069 811 95.0358 811 97.4333V290.766C811 292.444 812.377 293.796 814.055 293.765L880.38 292.559C881.166 292.545 881.926 292.84 882.496 293.38L915.938 325.03C917.85 326.84 921 325.484 921 322.851V166.924Z" fill="url(#paint15_linear_611_10703)"/>
</g>
<g clip-path="url(#clip1_611_10703)">
<path d="M1228.76 330.996C1219.88 325.896 1200.07 316.271 1167.1 309.109C1135.38 302.219 1100.84 299.604 1064.45 301.333C1059.36 301.574 1054.46 301.901 1049.89 302.303C1006.25 306.139 985.181 317.216 983.573 337.159C982.513 350.323 992.648 361.443 1013.7 370.213C1033.59 378.501 1064.55 385.276 1105.7 390.354C1129.33 393.268 1150.7 393.921 1169.22 392.292C1190.59 390.413 1207.82 385.602 1220.43 377.992C1230.94 371.654 1237.76 363.428 1239.66 354.829C1241.78 345.21 1237.6 336.076 1228.76 330.996H1228.76Z" fill="#390176"/>
<path d="M1168.86 388.15C1150.63 389.753 1129.55 389.105 1106.21 386.227C1065.43 381.198 1034.85 374.518 1015.3 366.375C996.101 358.376 986.822 348.662 987.721 337.495C989.134 319.941 1009 310.075 1050.25 306.449C1054.77 306.052 1059.61 305.73 1064.65 305.489C1100.68 303.776 1134.85 306.362 1166.22 313.176C1198.64 320.22 1218.02 329.624 1226.69 334.605C1233.9 338.747 1237.31 346.155 1235.6 353.936C1232.52 367.912 1213.37 384.237 1168.86 388.152V388.15Z" fill="#710125"/>
<path d="M987.721 337.492C985.929 359.725 1023.56 376.028 1106.21 386.224C1230.6 401.566 1251.96 349.12 1226.69 334.602C1201.42 320.084 1144.71 301.681 1064.65 305.486C1005.02 308.318 988.984 321.848 987.724 337.492H987.721Z" fill="#710125"/>
<path d="M972.455 590.821L972.191 587.183C970.66 566.018 971.139 542.422 973.612 517.048L973.645 516.71C974.403 508.995 975.353 501.027 976.47 493.028C976.667 491.62 976.869 490.216 977.074 488.818C977.476 486.097 977.914 483.247 978.377 480.341C978.439 479.954 978.713 478.261 978.713 478.261C979.058 476.167 979.401 474.106 979.757 472.06C979.757 472.06 979.796 471.85 979.803 471.796L979.816 471.712C980.423 468.217 981.002 465.021 981.586 461.941C982.052 459.465 982.551 456.892 983.112 454.08C983.483 452.219 983.859 450.378 984.238 448.554L984.289 448.309C985.39 443.032 986.566 437.688 987.782 432.426C990.276 421.674 992.98 411.092 995.819 400.973C995.935 400.558 996.055 400.13 996.175 399.705L996.267 399.38C996.337 399.127 996.413 398.86 996.49 398.591C996.613 398.151 996.739 397.713 996.864 397.28L996.928 397.055C997.443 395.27 997.945 393.555 998.434 391.909L998.846 390.526C998.987 390.052 999.128 389.596 999.266 389.143C999.737 387.586 1000.2 386.094 1000.64 384.673L1001.28 382.655L1003.35 382.232C1003.87 382.125 1056.2 371.504 1107.59 366.985C1171.1 361.4 1205.4 367.059 1212.46 384.283C1213.15 385.971 1213.83 387.658 1214.5 389.343C1214.81 390.134 1215.12 390.923 1215.43 391.714C1216.38 394.144 1217.35 396.663 1218.37 399.408C1218.69 400.24 1219 401.08 1219.31 401.923C1219.9 403.533 1220.53 405.279 1221.24 407.248L1221.99 409.379C1222.6 411.125 1223.2 412.864 1223.79 414.595C1224.03 415.314 1224.28 416.049 1224.52 416.779L1225.32 419.155C1225.33 419.191 1225.34 419.226 1225.35 419.262C1225.52 419.764 1225.68 420.264 1225.84 420.763L1226.13 421.644C1226.44 422.586 1226.73 423.505 1227.03 424.417C1227.84 426.985 1228.55 429.236 1229.18 431.315C1229.42 432.116 1229.67 432.915 1229.9 433.704L1230.02 434.108C1230.22 434.769 1230.42 435.427 1230.61 436.085C1231.29 438.356 1231.97 440.732 1232.65 443.142C1233.02 444.46 1233.39 445.766 1233.74 447.062L1233.94 447.786C1234.15 448.554 1234.36 449.33 1234.57 450.106C1235.21 452.49 1235.84 454.928 1236.47 457.345L1237 459.465C1237.14 460.033 1237.29 460.599 1237.42 461.16C1239.3 468.718 1241.05 476.41 1242.62 484.017L1242.93 485.51L1243.22 486.947C1243.27 487.2 1243.33 487.487 1243.39 487.776L1243.46 488.148C1243.78 489.738 1244.09 491.307 1244.38 492.861C1246.32 502.963 1248 513.146 1249.37 523.129C1252.7 547.298 1253.17 562.118 1253.19 562.738L1253.29 566.122L972.457 590.816L972.455 590.821Z" fill="#390176"/>
<path d="M1249.6 562.848L975.774 586.927C974.122 564.084 974.944 540.246 977.221 517.068V517.063C977.999 509.118 978.949 501.252 980.027 493.527C980.224 492.127 980.426 490.728 980.626 489.338C981.043 486.506 981.479 483.697 981.922 480.909C982.032 480.215 982.147 479.524 982.257 478.832C982.598 476.766 982.941 474.713 983.294 472.677C983.314 472.559 983.338 472.444 983.353 472.329C983.921 469.051 984.505 465.81 985.112 462.617C985.609 459.972 986.118 457.36 986.63 454.787C986.999 452.933 987.375 451.102 987.752 449.289C987.772 449.207 987.788 449.128 987.803 449.046C988.942 443.592 990.108 438.307 991.28 433.238C993.987 421.572 996.734 411.005 999.277 401.946C999.423 401.416 999.576 400.883 999.722 400.361C999.794 400.102 999.866 399.843 999.942 399.585C1000.09 399.068 1000.23 398.553 1000.38 398.051C1000.89 396.279 1001.39 394.574 1001.88 392.935C1002.02 392.467 1002.16 392.006 1002.29 391.547C1002.43 391.094 1002.56 390.644 1002.7 390.201C1003.17 388.644 1003.63 387.164 1004.07 385.753C1004.07 385.753 1193.35 347.082 1209.14 385.648C1209.82 387.328 1210.5 389.002 1211.16 390.674C1211.48 391.458 1211.78 392.239 1212.09 393.017C1213.09 395.578 1214.06 398.131 1215.01 400.668C1215.32 401.498 1215.63 402.327 1215.93 403.157C1216.59 404.934 1217.23 406.698 1217.86 408.46C1218.1 409.164 1218.35 409.868 1218.6 410.569C1219.21 412.305 1219.81 414.031 1220.39 415.752C1220.64 416.474 1220.88 417.196 1221.12 417.913C1221.38 418.679 1221.63 419.442 1221.89 420.202C1221.9 420.246 1221.92 420.294 1221.93 420.343C1222.2 421.152 1222.46 421.959 1222.72 422.765C1223.02 423.689 1223.32 424.611 1223.62 425.525C1224.34 427.817 1225.06 430.098 1225.75 432.364C1225.99 433.158 1226.23 433.954 1226.46 434.738C1226.7 435.529 1226.94 436.315 1227.17 437.101C1227.87 439.46 1228.54 441.797 1229.2 444.12C1229.56 445.426 1229.93 446.724 1230.28 448.012C1230.34 448.255 1230.41 448.496 1230.48 448.739C1230.69 449.504 1230.89 450.27 1231.1 451.033C1231.75 453.458 1232.38 455.865 1232.99 458.243C1233.14 458.853 1233.29 459.457 1233.44 460.056C1233.61 460.717 1233.78 461.375 1233.94 462.028C1235.89 469.909 1237.61 477.509 1239.11 484.755C1239.21 485.254 1239.31 485.751 1239.41 486.248L1239.7 487.669C1239.78 488.066 1239.86 488.465 1239.94 488.864C1240.26 490.442 1240.56 492.001 1240.86 493.542C1242.98 504.629 1244.59 514.751 1245.81 523.628C1249.16 547.884 1249.6 562.853 1249.6 562.853V562.848Z" fill="#FFA300"/>
<path d="M1030.9 582.076C1030.9 582.076 1020.92 447.865 1063.06 402.58C1063.06 402.58 1123.2 452.84 1125.43 573.762L1030.9 582.076Z" fill="#FFF3E0"/>
<g style="mix-blend-mode:multiply" opacity="0.6">
<path d="M1249.6 562.847L1204.15 566.844C1203.57 558.528 1202.54 550.042 1201.33 542.053C1196.9 543.393 1189.93 545.397 1185.52 546.504C1184.19 546.836 1174.89 569.069 1174.89 569.069L1165.98 570.303L1169.68 549.76L1104.33 554.751L1103.98 577.557L1097.64 577.214L1103.37 550.122L1083.42 548.721L1068.41 463.459L1057.47 558.64C1046.11 556.763 1035.39 553.215 1025.68 548.918C1021.57 564.627 1012.95 573.755 999.399 575.824L998.931 584.888L975.771 586.924C974.119 564.081 974.941 540.243 977.218 517.065V517.06C977.996 509.115 978.946 501.249 980.024 493.524H980.029C980.226 492.124 980.423 490.726 980.626 489.335C981.043 486.503 981.478 483.694 981.921 480.906C982.031 480.212 982.147 479.521 982.257 478.829C982.597 476.763 982.94 474.71 983.294 472.674C983.314 472.556 983.337 472.441 983.353 472.326C983.924 469.043 984.51 465.807 985.112 462.614C985.608 459.969 986.118 457.357 986.63 454.784C986.999 452.93 987.375 451.099 987.751 449.286C987.772 449.204 987.787 449.125 987.803 449.043C988.942 443.589 990.107 438.304 991.28 433.235C993.986 421.569 996.734 411.002 999.276 401.943C999.422 401.413 999.576 400.88 999.722 400.358C999.794 400.099 999.865 399.841 999.942 399.582C1000.09 399.065 1000.23 398.55 1000.38 398.048C1000.89 396.276 1001.39 394.571 1001.88 392.932C1002.02 392.464 1002.16 392.003 1002.29 391.545C1002.43 391.091 1002.56 390.641 1002.7 390.198C1003.17 388.641 1003.63 387.161 1004.07 385.75C1004.07 385.75 1193.35 347.079 1209.14 385.645C1209.82 387.325 1210.5 388.999 1211.16 390.671C1211.48 391.455 1211.78 392.236 1212.08 393.014C1213.09 395.575 1214.06 398.128 1215.01 400.665C1215.32 401.495 1215.63 402.324 1215.93 403.154C1216.59 404.931 1217.23 406.695 1217.86 408.457C1218.1 409.161 1218.35 409.865 1218.6 410.566C1219.21 412.303 1219.81 414.028 1220.39 415.749C1220.64 416.471 1220.88 417.193 1221.12 417.91C1221.38 418.676 1221.63 419.439 1221.89 420.199C1221.9 420.243 1221.92 420.291 1221.93 420.34C1222.2 421.149 1222.46 421.956 1222.72 422.762C1223.02 423.686 1223.32 424.608 1223.61 425.522C1224.34 427.814 1225.06 430.095 1225.75 432.361C1225.99 433.155 1226.23 433.952 1226.46 434.735C1226.7 435.526 1226.94 436.312 1227.17 437.098C1227.87 439.457 1228.54 441.794 1229.2 444.117C1229.56 445.423 1229.93 446.721 1230.28 448.009C1230.34 448.252 1230.41 448.493 1230.48 448.736C1230.69 449.501 1230.89 450.267 1231.1 451.03C1231.75 453.455 1232.38 455.862 1232.99 458.24C1233.14 458.85 1233.29 459.454 1233.44 460.053C1233.61 460.714 1233.78 461.372 1233.94 462.025C1235.89 469.906 1237.61 477.506 1239.11 484.752C1239.21 485.251 1239.31 485.748 1239.41 486.245L1239.7 487.666C1239.78 488.063 1239.86 488.462 1239.94 488.862C1240.26 490.439 1240.56 491.998 1240.86 493.54C1242.98 504.627 1244.59 514.748 1245.81 523.625C1249.16 547.881 1249.6 562.85 1249.6 562.85V562.847Z" fill="#B2A8C1"/>
</g>
<path d="M1048.83 542.486C1020.6 536.133 1001.49 523.687 990.427 514.367C978.332 504.173 972.983 495.491 972.76 495.127L972.232 494.262L972.25 493.248C972.778 462.565 979.701 436.635 985.419 420.286C991.631 402.519 997.666 392.113 997.919 391.68L1000.01 388.101L1002.74 390.392C1007.38 392.059 1043.38 404.311 1067.5 412.5L1070.23 413.427L1052.55 543.326L1048.83 542.489L1048.83 542.486Z" fill="#390176"/>
<path d="M1066.38 415.808L1049.6 539.073C1043.94 537.8 1038.65 536.282 1033.72 534.584C992.158 520.286 975.753 493.306 975.753 493.306C976.662 440.245 996.649 401.279 1000.36 394.499C1000.74 393.803 1000.95 393.447 1000.95 393.447H1000.95C1001.13 393.664 1066.38 415.808 1066.38 415.808Z" fill="#DFDAE5"/>
<g style="mix-blend-mode:multiply" opacity="0.6">
<path d="M1035.63 513.24L1033.72 534.579V534.585C992.156 520.287 975.751 493.307 975.751 493.307C976.66 440.245 996.647 401.28 1000.35 394.5L1007.74 399.516C1007.74 399.516 1006.57 404.841 1006.33 408.531C1006.33 408.531 1025.91 418.809 1028.78 435.347C1031.64 451.88 1038.81 488.606 1035.63 513.24Z" fill="#B2A8C1"/>
</g>
<path d="M1140.89 543.562C1111.88 546.112 1092.48 543.357 1091.67 543.239L1089.12 542.868L1065 411.947L1070.12 412.881C1078.47 414.405 1087.53 415.826 1097.06 417.106C1113.4 419.298 1130.78 419.61 1148.71 418.033C1190.71 414.341 1222.2 401.413 1222.52 401.282L1225.68 399.969L1227.14 403.062C1245.91 442.76 1253.34 502.422 1253.65 504.944L1253.93 507.259L1251.93 508.457C1211 533 1168.95 541.093 1140.89 543.562Z" fill="#390176"/>
<path d="M1250.09 505.379C1228.09 518.566 1205.77 527.018 1185.1 532.359V532.365C1133.48 545.715 1092.19 539.688 1092.19 539.688L1069.48 416.417C1077.54 417.89 1086.54 419.321 1096.58 420.668C1122.99 424.209 1148.34 422.475 1169.36 419.062C1201.75 413.816 1223.89 404.601 1223.89 404.601C1242.63 444.232 1250.08 505.382 1250.08 505.382L1250.09 505.379Z" fill="#DFDAE5"/>
<g style="mix-blend-mode:multiply" opacity="0.6">
<path d="M1185.1 532.359C1207.41 486.27 1169.78 419.8 1169.37 419.06C1201.76 413.813 1223.9 404.598 1223.9 404.598C1242.63 444.23 1250.09 505.379 1250.09 505.379C1228.09 518.566 1205.77 527.018 1185.1 532.359Z" fill="#B2A8C1"/>
</g>
<path d="M1159.05 395.616C1158.05 395.703 1157.03 395.785 1156 395.859C1153.68 396.026 1151.38 396.161 1149.16 396.261C1110.14 398.053 1066.44 391.901 1042.89 381.298C1036.98 378.635 1031.99 376.62 1027.98 375.001C1015.11 369.809 1008.03 366.951 1005.96 355.575C1001.71 332.164 997.714 322.086 995.069 315.418C991.454 306.3 990.079 301.978 992.427 286.423L992.913 283.174C993.797 277.269 994.631 271.693 995.625 266.28C999.184 246.925 1004.75 230.62 1020.35 213.948C1022.39 211.774 1024.59 209.642 1026.91 207.58C1025.28 200.383 1023.24 183.875 1032.46 165.137L1032.95 164.131C1041.76 146.22 1045.06 139.52 1052.7 138.846C1056.35 138.526 1059.75 140.134 1062.59 141.75C1070.73 146.366 1075.97 153.454 1080.18 159.148C1081.57 161.033 1082.89 162.81 1084.16 164.323C1088.03 168.886 1092.03 175.382 1094.29 179.23C1102.1 178.57 1110.03 178.67 1117.84 179.53C1130.55 180.928 1142.58 183.924 1153.65 188.438C1157.23 184.846 1162.52 177.474 1165.57 166.32C1165.86 165.245 1166.15 164.167 1166.44 163.094C1170.46 148.182 1175.19 141.673 1186.4 140.687C1191.38 140.249 1194.34 141.501 1200.19 147.129C1217.76 164.054 1222.4 179.172 1225.02 196.388C1225.19 197.5 1225.36 198.596 1225.53 199.673C1227.64 213.185 1222.53 228.448 1218.42 240.713C1217.03 244.879 1215.7 248.848 1214.84 252.2C1225.51 278.235 1234.42 315.651 1228.17 344.611C1221.34 376.276 1200.02 392.008 1159.04 395.611L1159.05 395.616Z" fill="#390176"/>
<path d="M1209.04 252.668C1220.92 280.939 1228.46 317.052 1222.76 343.446C1216.02 374.676 1194.46 387.512 1155.6 390.328C1153.4 390.487 1151.17 390.62 1148.91 390.723C1111.44 392.446 1067.91 386.482 1045.17 376.24C1021.07 365.376 1013.44 365.727 1011.42 354.584C1009.27 342.741 1007.18 334.228 1005.29 327.811C1005.28 327.798 1005.28 327.791 1005.28 327.791C998.905 306.183 994.734 308.344 997.917 287.25C998.979 280.191 999.929 273.58 1001.09 267.278C1004.42 249.15 1009.53 233.636 1024.41 217.735C1027.09 214.87 1030.04 212.112 1033.21 209.488H1033.19C1033.19 209.488 1026.24 190.358 1037.45 167.58C1046.09 149.995 1049.03 143.793 1054.33 144.384C1055.9 144.559 1057.67 145.329 1059.86 146.571C1069.46 152.017 1074.54 161.527 1079.93 167.9C1085.33 174.278 1091.26 185.094 1091.26 185.094L1091.25 185.109C1099.6 184.146 1108.3 184.057 1117.24 185.043C1130.8 186.535 1143.36 189.9 1154.65 194.878C1154.65 194.878 1165.57 187.375 1170.92 167.785C1175.35 151.592 1183.67 141.299 1194.91 148.809L1194.94 148.827C1197.29 150.394 1199.76 152.752 1202.36 155.989C1218 175.489 1217.35 183.199 1220.06 200.531C1222.77 217.863 1211.97 239.382 1209.05 252.666L1209.04 252.668Z" fill="#FFA300"/>
<g style="mix-blend-mode:multiply" opacity="0.6">
<path d="M1052.89 157.525C1052.89 157.525 1055.43 191.905 1045.44 202.162C1045.44 202.162 1075.6 186.366 1052.89 157.525Z" fill="#B2A8C1"/>
</g>
<g style="mix-blend-mode:multiply" opacity="0.6">
<path d="M1197.93 168.904C1197.93 168.904 1194.02 195.689 1188.98 201.699C1183.94 207.708 1170.98 203.281 1170.98 203.281C1170.98 203.281 1181.24 208.64 1183.23 215.426C1185.22 222.208 1189.67 229.234 1189.67 229.234C1189.67 229.234 1210 203.33 1197.93 168.904Z" fill="#B2A8C1"/>
</g>
<g style="mix-blend-mode:multiply" opacity="0.6">
<path d="M1091.25 185.097L1081.9 186.761C1072.2 155.605 1055.55 146.354 1054.33 144.387C1055.9 144.561 1057.67 145.332 1059.86 146.574C1069.45 152.02 1074.54 161.53 1079.93 167.903C1085.33 174.281 1091.25 185.097 1091.25 185.097Z" fill="#B2A8C1"/>
</g>
<path d="M1160.41 335.726C1144.63 347.202 1148.69 389.307 1148.69 389.307L1148.91 390.721C1111.43 392.444 1067.91 386.48 1045.17 376.238C1021.06 365.374 1013.44 365.725 1011.42 354.582C1002.03 302.836 993.784 314.612 997.911 287.251C998.974 280.191 999.924 273.58 1001.08 267.279C1012.45 243.663 1034.36 253.985 1042.23 239.341C1050.1 224.698 1051.61 209.235 1062.2 207.978C1072.78 206.725 1079.24 219.2 1082.91 227.65C1086.59 236.102 1094.38 243.138 1107.7 233.583C1121.01 224.027 1126.57 212.056 1141.17 219.82C1158.25 228.902 1139.86 248.124 1142.18 254.871C1144.5 261.625 1162.36 271.299 1171.65 289.507C1180.95 307.714 1176.19 324.24 1160.41 335.726H1160.41Z" fill="#FFF3E0"/>
<g style="mix-blend-mode:multiply" opacity="0.6">
<path d="M1209.04 252.668C1220.92 280.938 1228.46 317.052 1222.76 343.445C1216.02 374.676 1194.46 387.512 1155.6 390.328C1153.4 390.487 1151.17 390.62 1148.91 390.722C1111.44 392.446 1067.91 386.482 1045.17 376.24C1021.07 365.376 1013.44 365.727 1011.42 354.583C1009.27 342.741 1007.18 334.227 1005.29 327.811C1005.55 328.525 1014.27 351.598 1040.74 358.127C1050.13 360.442 1051.79 384.603 1066.96 380.823C1079.9 377.597 1087.84 365.071 1100.15 362.595C1125.97 357.405 1144.41 366.433 1158.1 360.887C1181.95 351.227 1199.9 327.45 1197.3 296.296C1194.7 265.143 1198.58 247.885 1203.25 237.323C1212.54 216.327 1212.78 194.603 1210.13 181.051C1207.57 167.931 1195.36 149.262 1194.93 148.827C1197.28 150.394 1199.76 152.752 1202.36 155.988C1217.99 175.489 1217.34 183.199 1220.05 200.531C1222.76 217.863 1211.96 239.381 1209.04 252.665V252.668Z" fill="#B2A8C1"/>
</g>
<path d="M1047.47 241.929C1047.47 241.929 1066.05 228.013 1109.89 251.798C1109.89 251.798 1103 268.408 1076.41 262.744C1039.01 254.781 1047.47 241.929 1047.47 241.929H1047.47Z" fill="#FFA300"/>
<path d="M1124.38 317.672C1121.09 318.545 1117.75 318.722 1114.45 318.407C1111.37 318.115 1108.33 317.4 1105.42 316.433C1105.41 316.427 1105.4 316.427 1105.39 316.422C1105.38 316.422 1105.38 316.417 1105.37 316.417C1096.6 313.493 1089.02 308.321 1085.13 305.722C1078.55 301.331 1070.32 304.337 1060.86 299.602C1051.4 294.868 1037.47 294.702 1027.76 297.498C1018.05 300.294 1014.68 296.706 1012.26 286.482C1011.85 284.757 1011.61 283.159 1011.48 281.638C1010.85 274.115 1013.16 268.415 1013.63 258.611C1014.19 246.823 1024.24 247.158 1024.24 247.158L1124.38 317.68L1124.38 317.672Z" fill="#FFF3E0"/>
<g style="mix-blend-mode:multiply" opacity="0.6">
<path d="M1105.37 316.415C1096.59 313.49 1089.02 308.318 1085.12 305.719C1078.55 301.328 1070.32 304.334 1060.86 299.6C1051.4 294.865 1037.47 294.699 1027.75 297.495C1018.04 300.291 1014.68 296.704 1012.25 286.48C1011.84 284.754 1011.6 283.156 1011.47 281.635C1016.27 287.168 1018.6 291.245 1028.86 288.546C1039.12 285.855 1052.45 288.303 1058.67 291.165C1064.89 294.028 1080.13 295.173 1087.34 300.954C1094.53 306.723 1099.2 314.379 1105.37 316.417V316.415Z" fill="#B2A8C1"/>
</g>
<path d="M1064.92 368.016C1055.03 368.887 1044.72 366.137 1039.84 361.331C1034.48 356.046 1035.97 348.815 1037.69 340.442C1038.62 335.898 1039.68 330.743 1039.81 325.184C1039.83 324.178 1039.78 323.156 1039.66 322.137C1038.16 309.512 1026.14 299.756 1026.02 299.659L1021.84 296.312L1026.99 294.827C1029.91 293.987 1033.11 293.409 1036.51 293.109C1046.01 292.274 1055.34 293.734 1062.1 297.116C1066.39 299.262 1070.46 299.654 1074.39 300.03C1078.53 300.427 1082.81 300.837 1086.67 303.41L1087.12 303.715C1092.39 307.235 1103.35 314.566 1114.71 315.644L1120.37 315.588L1116.69 320.622C1116.66 320.655 1114.07 323.991 1110.29 328.731C1104.31 336.236 1093.16 349.998 1085.57 357.974L1085.49 358.061L1085.41 358.135C1084.74 358.845 1084.04 359.554 1083.28 360.307C1077.65 365.837 1070.19 367.55 1064.92 368.014V368.016Z" fill="#390176"/>
<path d="M1114.45 318.407L1114.5 318.924C1114.5 318.924 1111.93 322.224 1108.12 327.007C1105.58 330.203 1102.48 334.051 1099.21 338.02C1093.84 344.539 1088.03 351.383 1083.5 356.13C1083.48 356.146 1083.47 356.153 1083.46 356.169C1082.71 356.957 1082 357.682 1081.33 358.34C1070.44 369.04 1048.61 366.088 1041.79 359.362C1034.97 352.635 1042.22 340.906 1042.58 325.253C1042.61 324.088 1042.55 322.939 1042.41 321.817C1042.33 321.08 1042.21 320.36 1042.06 319.648C1039.42 306.8 1027.75 297.5 1027.75 297.5C1037.46 294.704 1051.39 294.87 1060.86 299.605C1070.32 304.339 1078.55 301.333 1085.12 305.724C1090.32 309.191 1102.04 317.234 1114.45 318.412L1114.45 318.407Z" fill="#BC0F0F"/>
<g style="mix-blend-mode:multiply" opacity="0.6">
<path d="M1114.45 318.406L1114.5 318.924C1114.5 318.924 1111.93 322.224 1108.12 327.007C1105.58 330.203 1102.48 334.051 1099.21 338.02C1101.34 320.744 1082.62 311.352 1079.08 310.843C1072.92 309.964 1065.03 311.411 1057.16 308.553C1049.3 305.704 1045.39 309.66 1047.16 319.195L1042.06 319.643C1039.42 306.794 1027.75 297.495 1027.75 297.495C1037.46 294.699 1051.39 294.865 1060.86 299.599C1070.32 304.334 1078.55 301.328 1085.12 305.719C1090.32 309.186 1102.04 317.228 1114.45 318.406H1114.45Z" fill="#B2A8C1"/>
</g>
<path d="M1107.47 316.788C1105.2 316.048 1103 315.129 1100.85 314.113C1096.56 312.057 1092.52 309.527 1088.63 306.79L1085.71 304.703C1084.62 303.983 1083.47 303.323 1082.25 302.898C1079.81 301.966 1077.31 301.633 1074.92 301.305C1072.53 300.985 1070.22 300.69 1068.02 300.137C1065.81 299.592 1063.73 298.801 1061.79 297.741C1051.15 292.417 1036.39 292.845 1027.18 295.495C1023.41 296.581 1020.83 296.609 1019.08 295.582C1017.02 294.381 1015.59 291.514 1014.28 285.996C1012.52 278.56 1013.07 274.384 1014.08 266.802C1014.4 264.406 1014.76 261.686 1015.11 258.445C1015.53 254.43 1017.46 251.644 1020.84 250.159C1023.54 248.971 1026.21 249.043 1026.23 249.045L1026.39 244.889C1021.57 244.697 1012.12 247.191 1010.97 258.004C1010.63 261.192 1010.27 263.881 1009.96 266.252C1008.92 274.059 1008.3 278.77 1010.24 286.953C1011.36 291.703 1013.04 296.868 1016.98 299.17C1019.79 300.808 1023.39 300.911 1028.33 299.487C1037.06 296.975 1050.72 296.845 1059.93 301.453C1062.29 302.531 1064.79 303.266 1067.28 303.694C1069.77 304.129 1072.24 304.255 1074.62 304.403C1077 304.554 1079.3 304.708 1081.41 305.353C1082.49 305.637 1083.46 306.121 1084.42 306.651L1087.5 308.528C1091.64 311.014 1095.94 313.293 1100.44 315.06C1102.69 315.936 1104.99 316.704 1107.33 317.283C1109.67 317.846 1112.06 318.232 1114.45 318.399C1112.07 318.061 1109.74 317.503 1107.47 316.781V316.788Z" fill="#390176"/>
<path d="M1235.93 347.873C1235 349.681 1233.41 351.253 1230.96 355.012C1221.18 370.044 1202.91 377.042 1163.67 380.494C1147.37 381.928 1128.06 382.455 1106.28 382.066C1077.51 381.551 1049.42 376.038 1027.19 366.547C1007.27 358.043 994.081 347.038 991.884 337.096L990.176 325.579L983.539 337.787L983.634 338.276C983.665 338.437 995.333 395.57 995.333 395.57L995.975 396.361C996.562 397.081 1011.25 414.113 1092.89 425.059C1109.81 427.328 1127.76 427.653 1146.26 426.025C1189.53 422.22 1222.04 408.844 1222.36 408.71L1224.2 407.945L1238.86 357.61C1239.53 353.281 1239.31 350.175 1238.76 347.988L1235.93 347.868L1235.93 347.873Z" fill="#390176"/>
<path d="M1220.76 404.872C1220.76 404.872 1198.66 414.072 1166.31 419.321C1145.27 422.74 1119.89 424.483 1093.45 420.937C1012.5 410.083 999.204 393.737 999.204 393.737L987.83 338.025C992.874 360.655 1042.78 385.087 1106.21 386.227C1130.78 386.667 1151.22 385.943 1168.05 384.263C1208.37 380.235 1227.97 370.708 1233.99 358.507C1234.7 357.065 1220.76 404.872 1220.76 404.872Z" fill="#DFDAE5"/>
<g style="mix-blend-mode:multiply" opacity="0.6">
<path d="M1220.76 404.872C1220.76 404.872 1198.66 414.072 1166.31 419.321C1180.37 403.715 1168.27 384.608 1168.05 384.263C1208.37 380.235 1227.97 370.707 1233.99 358.507C1234.7 357.065 1220.76 404.872 1220.76 404.872Z" fill="#B2A8C1"/>
</g>
<path d="M1046.55 389.45C1044.44 389.637 1042.39 389.414 1040.47 388.789C1024.61 383.638 1024.23 351.375 1028.48 335.526C1030.49 328.029 1034.76 322.583 1041.16 319.336C1045.12 317.328 1049.83 316.14 1055.99 315.597C1056.83 315.523 1057.66 315.464 1058.48 315.416C1063.09 315.139 1065.6 315.848 1067.62 316.417C1068.98 316.801 1069.87 317.054 1071.22 316.937C1072.96 316.783 1075.33 316.025 1078.66 314.553C1080.36 313.797 1082.2 313.329 1084.11 313.16C1096.85 312.041 1109.54 324.505 1110.08 325.038L1111.84 326.789L1110.29 328.733C1107.77 331.898 1103.97 336.622 1099.87 341.571L1099.14 342.457C1093.63 349.086 1089.06 354.307 1085.56 357.979L1085.49 358.066L1085.35 358.189C1084.66 358.839 1084 359.513 1083.39 360.191C1082.39 361.308 1081.3 362.549 1080.14 363.871C1071.09 374.215 1058.69 388.382 1046.55 389.45H1046.55Z" fill="#390176"/>
<path d="M1108.12 327.007C1105.01 330.912 1101.07 335.798 1097.01 340.678V340.686C1092.29 346.362 1087.41 352.023 1083.5 356.131C1083.48 356.146 1083.47 356.154 1083.46 356.169C1082.71 356.876 1082 357.598 1081.33 358.34C1071.83 368.918 1054.94 390.582 1041.33 386.158C1033.96 383.766 1030.4 373.716 1029.34 362.614C1028.44 353.25 1029.32 343.131 1031.16 336.248C1033.18 328.723 1037.38 324.365 1042.42 321.815C1047.44 319.264 1053.3 318.514 1058.65 318.189C1069.35 317.546 1067.07 322.716 1079.78 317.096C1092.49 311.468 1108.13 327.01 1108.13 327.01L1108.12 327.007Z" fill="#FC2D81"/>
<g style="mix-blend-mode:multiply" opacity="0.6">
<path d="M1108.12 327.007C1105.01 330.912 1101.07 335.798 1097.01 340.678V340.686C1092.29 346.362 1087.41 352.023 1083.5 356.131C1083.48 356.146 1083.47 356.154 1083.46 356.169C1082.7 356.876 1082 357.598 1081.33 358.34C1071.83 368.918 1054.94 390.582 1041.33 386.158C1033.96 383.766 1030.4 373.716 1029.34 362.614C1032.43 372.111 1041.68 378.179 1049.69 375.846C1057.7 373.506 1080.68 346.915 1088.03 336.904C1095.39 326.897 1090.98 321.656 1079.78 317.096C1092.49 311.468 1108.12 327.01 1108.12 327.01V327.007Z" fill="#B2A8C1"/>
</g>
<path d="M1083.05 354.458C1083 354.307 1081.71 350.702 1080.86 346.677C1079.54 340.468 1079.97 336.76 1082.19 335.014C1082.92 334.445 1083.76 334.115 1084.71 334.031C1089.4 333.618 1095.21 339.892 1096.33 341.154L1096.77 341.653L1096.9 343.146L1096.37 343.791C1092.35 348.618 1089.03 352.42 1086.48 355.096L1086.43 355.16L1086.41 355.178L1084.24 357.769L1083.05 354.461L1083.05 354.458Z" fill="#390176"/>
<path d="M1095.17 342.319V342.324C1093.15 344.762 1091.08 347.189 1089.13 349.417C1087.58 351.189 1086.09 352.833 1084.75 354.233C1084.74 354.246 1084.73 354.251 1084.72 354.264C1084.72 354.264 1079.27 339.103 1083.13 336.084C1083.82 335.542 1084.66 335.391 1085.56 335.521V335.526C1089.67 336.105 1095.17 342.322 1095.17 342.322V342.319Z" fill="#F6F0F0"/>
<g style="mix-blend-mode:multiply" opacity="0.6">
<path d="M1089.13 349.417C1087.58 351.189 1086.09 352.833 1084.76 354.233C1084.75 354.246 1084.74 354.251 1084.72 354.264C1084.72 354.264 1079.28 339.103 1083.13 336.084C1083.82 335.542 1084.66 335.391 1085.56 335.521V335.526C1085.56 335.526 1083.04 342.089 1089.13 349.42V349.417Z" fill="#B2A8C1"/>
</g>
<path d="M1202.02 184.088C1201.28 178.865 1199.86 173.764 1197.93 168.904C1199.54 173.882 1200.59 179.023 1200.99 184.201C1201.19 186.789 1201.2 189.383 1201.12 191.969C1200.99 194.553 1200.74 197.126 1200.35 199.674C1199.53 204.767 1198.2 209.762 1196.37 214.558C1195.47 216.957 1194.44 219.308 1193.29 221.589C1192.73 222.734 1192.12 223.855 1191.5 224.959C1191.46 225.033 1191.41 225.107 1191.37 225.182C1189.59 221.932 1187.75 218.724 1185.87 215.539C1185.32 214.589 1184.64 213.498 1183.96 212.522C1183.25 211.539 1182.51 210.587 1181.71 209.688C1180.11 207.89 1178.33 206.272 1176.41 204.869C1174.5 203.456 1172.45 202.25 1170.32 201.266C1168.2 200.288 1165.99 199.469 1163.7 199.052C1167.67 201.405 1171.26 204.144 1174.44 207.209C1175.22 207.983 1175.99 208.761 1176.71 209.586C1177.44 210.395 1178.14 211.235 1178.79 212.1C1179.46 212.95 1180.05 213.851 1180.64 214.753C1181.23 215.674 1181.72 216.553 1182.3 217.59C1184.55 221.602 1186.99 225.499 1189.67 229.232C1191.01 231.104 1192.42 232.925 1193.89 234.702C1195.39 236.463 1196.89 238.215 1198.6 239.817C1197.1 236.202 1195.39 232.761 1193.61 229.363C1194.09 228.495 1194.52 227.652 1194.95 226.774C1195.53 225.561 1196.09 224.339 1196.61 223.102C1197.64 220.632 1198.55 218.115 1199.33 215.562C1200.9 210.459 1201.92 205.207 1202.42 199.922C1202.64 197.277 1202.73 194.625 1202.68 191.977C1202.59 189.332 1202.4 186.692 1202.02 184.08L1202.02 184.088Z" fill="#390176"/>
<path d="M1063.21 189.347C1062.13 189.634 1061.07 189.982 1060.03 190.353C1060.62 188.945 1061.11 187.503 1061.49 186.028C1061.89 184.295 1062.19 182.544 1062.27 180.777C1062.35 179.013 1062.28 177.251 1062.04 175.52C1061.53 172.061 1060.4 168.755 1058.83 165.729C1057.24 162.71 1055.26 159.911 1052.89 157.525C1055 160.139 1056.65 163.091 1057.88 166.161C1059.1 169.239 1059.83 172.481 1059.97 175.712C1060.02 177.328 1059.92 178.936 1059.69 180.516C1059.45 182.095 1059.02 183.632 1058.51 185.13C1057.46 187.944 1055.96 190.56 1054.13 192.947C1051.46 194.391 1048.92 196.063 1046.56 197.96C1044.13 199.94 1041.84 202.113 1039.99 204.715C1042.92 203.463 1045.64 202.08 1048.34 200.685L1056.33 196.478C1058.99 195.105 1061.64 193.756 1064.33 192.425C1067.03 191.137 1069.76 189.931 1072.67 188.622C1069.51 188.21 1066.29 188.602 1063.21 189.352L1063.21 189.347Z" fill="#390176"/>
<g style="mix-blend-mode:multiply" opacity="0.6">
<path d="M1155.64 280.188L1169.72 252.65L1178.61 265.79L1168.34 290.581L1155.64 280.188Z" fill="#B2A8C1"/>
</g>
<path d="M1153.04 278.06L1169.72 252.65L1175.78 261.317L1165.72 288.438L1153.04 278.06Z" fill="#390176"/>
<path d="M1166.21 254.168L1172.15 261.878L1164.27 283.125L1156.88 277.088L1166.21 254.168Z" fill="#2F4272"/>
<path d="M1154.82 279.52C1154.31 279.105 1103.39 238.813 1039.23 245.273C1033.24 245.878 1027.23 246.881 1021.37 248.254L1016.84 249.319L1022.68 222.119L1024.3 221.52C1024.62 221.402 1032.22 218.631 1045.4 217.223C1061.5 215.502 1078.46 216.521 1095.85 220.283C1120.05 225.519 1144.33 236.007 1168.04 251.557L1170.16 252.947L1158.22 282.257L1154.83 279.517L1154.82 279.52Z" fill="#390176"/>
<path d="M1166.21 254.168L1156.88 277.09C1156.88 277.09 1151.68 272.909 1142.46 267.401H1142.46C1120.02 254.01 1073.78 232.834 1020.75 245.304L1025.26 224.351C1025.26 224.351 1081.87 203.46 1157.15 248.479V248.484C1160.14 250.274 1163.16 252.163 1166.21 254.166V254.168Z" fill="#6777A5"/>
<g style="mix-blend-mode:multiply" opacity="0.6">
<path d="M1166.21 254.169L1156.87 277.09C1156.87 277.09 1151.68 272.909 1142.46 267.401C1149.14 268.682 1154.71 269.163 1158.8 263.169C1164.62 254.64 1157.23 248.725 1157.15 248.484C1160.14 250.274 1163.16 252.164 1166.21 254.166V254.169Z" fill="#B2A8C1"/>
</g>
<path d="M1032.17 226.994C1026.52 228.318 1022.91 238.631 1030.49 238.613C1038.1 238.595 1052.48 235.39 1079.38 239.271C1106.63 243.204 1134.89 259.125 1145.67 263.586C1156.5 268.069 1160.5 258.255 1153.57 252.635C1149.95 249.703 1120.33 231.354 1084.79 226.707C1049.84 222.136 1038.4 225.532 1032.17 226.996V226.994Z" fill="#390176"/>
<g style="mix-blend-mode:multiply" opacity="0.6">
<path d="M1025.8 249.101C1023.12 258.004 1030.7 261.031 1033.92 262.303C1038.24 264.011 1046.02 265.414 1050.67 262.918C1055.33 260.421 1060.61 257.175 1060 250.269C1059.39 243.363 1029.03 238.381 1025.8 249.101Z" fill="#B2A8C1"/>
</g>
<path d="M1024.24 247.153C1021.55 256.056 1029.13 259.082 1032.36 260.355C1036.68 262.063 1044.46 263.466 1049.11 260.97C1053.76 258.473 1059.04 255.226 1058.44 248.321C1057.83 241.415 1027.47 236.432 1024.24 247.153Z" fill="#390176"/>
<path d="M1060.98 329.662C1059.69 330.889 1058.46 332.179 1057.28 333.513C1056.11 334.842 1054.99 336.22 1053.92 337.631C1052.86 339.052 1051.84 340.496 1050.91 341.999C1049.96 343.491 1049.1 345.03 1048.32 346.613C1047.92 347.396 1047.56 348.203 1047.2 349.004L1046.7 350.228C1046.52 350.633 1046.39 351.055 1046.23 351.465C1046.07 351.877 1045.92 352.289 1045.79 352.712C1045.66 353.132 1045.52 353.549 1045.39 353.972C1045.17 354.824 1044.91 355.669 1044.74 356.532C1044.52 357.387 1044.39 358.263 1044.23 359.131C1044.16 359.566 1044.12 360.007 1044.05 360.445L1043.97 361.103L1043.92 361.763L1043.81 363.09L1043.78 364.421L1043.76 365.089L1043.78 365.755L1043.8 367.094L1043.62 365.765L1043.54 365.1L1043.49 364.429L1043.41 363.084V361.738C1043.41 361.512 1043.42 361.287 1043.42 361.064L1043.47 360.391C1043.5 359.943 1043.52 359.492 1043.56 359.044C1043.67 358.15 1043.77 357.254 1043.95 356.371C1044.03 355.928 1044.1 355.48 1044.21 355.044L1044.53 353.728C1044.65 353.293 1044.78 352.863 1044.9 352.428C1045.02 351.992 1045.17 351.565 1045.31 351.14C1045.59 350.279 1045.94 349.45 1046.27 348.61C1046.64 347.785 1046.99 346.956 1047.4 346.154C1048.22 344.546 1049.1 342.974 1050.09 341.474C1051.09 339.976 1052.15 338.516 1053.29 337.136C1054.43 335.746 1055.65 334.425 1056.92 333.165C1058.2 331.915 1059.54 330.715 1060.98 329.66V329.662Z" fill="#390176"/>
<path d="M1042.58 325.249C1042.58 325.249 1028.9 337.132 1034.73 355.268C1034.73 355.268 1031.66 343.638 1042.58 325.249Z" fill="#FF71B2"/>
<g style="mix-blend-mode:multiply" opacity="0.6">
<path d="M1113.14 303.632C1109.55 303.32 1115.74 334.202 1121.83 332.218L1122.6 316.373L1113.14 303.632Z" fill="#B2A8C1"/>
</g>
<path d="M1113.14 303.632C1115.62 304.795 1117.58 306.815 1119.15 309.017C1120.71 311.247 1121.85 313.764 1122.6 316.373C1122.9 317.695 1123.25 319.013 1123.36 320.363C1123.42 321.036 1123.53 321.702 1123.53 322.378C1123.54 323.051 1123.53 323.725 1123.51 324.395C1123.51 325.066 1123.44 325.735 1123.35 326.4C1123.26 327.066 1123.15 327.727 1123.04 328.382C1122.91 329.038 1122.71 329.685 1122.51 330.326C1122.31 330.966 1122.1 331.601 1121.83 332.22C1121.44 330.897 1121.24 329.619 1120.99 328.359C1120.86 327.729 1120.73 327.107 1120.62 326.487C1120.55 326.178 1120.51 325.868 1120.46 325.56C1120.4 325.253 1120.31 324.949 1120.25 324.644C1120.12 324.034 1120 323.428 1119.89 322.823C1119.77 322.219 1119.6 321.628 1119.47 321.031C1119.33 320.437 1119.23 319.833 1119.05 319.254L1118.6 317.49C1117.92 315.162 1117.18 312.868 1116.29 310.582C1115.39 308.29 1114.4 306.016 1113.15 303.635L1113.14 303.632Z" fill="#390176"/>
<path d="M1134.75 383.354L1130.67 382.512L1121.69 425.957L1125.76 426.799L1134.75 383.354Z" fill="#390176"/>
<path d="M1173.54 538.084L1169.66 537.281L1162.48 571.979L1166.37 572.783L1173.54 538.084Z" fill="#390176"/>
<path d="M1150.56 412.938C1150.32 412.933 1125.91 412.446 1112.22 413.65C1111.18 413.742 1110.22 413.842 1109.36 413.947L1108.6 414.039L1103.9 410.068L1106.62 401.882L1150.86 395.818L1154.05 399.16L1151.82 412.961L1150.56 412.935V412.938Z" fill="#390176"/>
<path d="M1149.26 396.215L1152.58 399.618L1150.62 411.719C1150.62 411.719 1122.27 411.133 1109.2 412.741L1104.43 409.315L1107.65 402.962L1149.26 396.218V396.215Z" fill="#A57F4C"/>
<path d="M1146.96 409.253C1129.09 408.424 1105.67 409.852 1105.43 409.868L1103.83 409.968L1105.36 396.128L1106.47 395.99C1109.12 395.662 1111.78 395.378 1114.38 395.15C1136.52 393.204 1149.1 395.503 1149.63 395.601L1150.9 395.841L1148.21 409.312L1146.96 409.253Z" fill="#390176"/>
<path d="M1106.63 397.193L1105.37 408.651C1105.37 408.651 1128.9 407.192 1147.06 408.037L1149.31 396.791C1149.31 396.791 1133.66 393.844 1106.63 397.193Z" fill="#FFD18D"/>
<path d="M994.956 572.273C992.178 572.516 989.277 572.313 986.333 571.666C975.21 569.223 967.267 564.453 962.051 557.086C957.138 550.145 954.677 540.837 954.526 528.629C954.285 509.018 959.77 482.916 969.326 444.455L969.41 444.117L969.556 443.802C969.976 442.893 979.99 421.461 993.018 416.159C994.618 415.508 996.232 415.109 997.814 414.968C999.327 414.835 1000.84 414.937 1002.31 415.275C1010.14 417.08 1016.52 425.205 1021.8 440.115C1028.42 458.771 1031.66 481.175 1030.93 503.2C1030.19 525.528 1025.43 544.596 1017.53 556.892C1011.56 566.181 1003.76 571.499 994.962 572.273H994.956Z" fill="#390176"/>
<path d="M987.118 568.081C966.547 563.562 958.466 550.79 958.195 528.583C957.951 508.687 963.971 481.221 972.887 445.338C972.887 445.338 982.565 424.373 994.4 419.556C996.699 418.622 999.073 418.299 1001.48 418.85C1007.19 420.166 1013.06 426.447 1018.34 441.341C1037.29 494.792 1026.12 576.648 987.121 568.081H987.118Z" fill="#FFA300"/>
<path d="M987.118 568.081C1039.44 519.254 1001.19 419.351 1001.19 419.351L1001.48 418.852C1007.19 420.168 1013.06 426.449 1018.34 441.344C1037.29 494.794 1026.12 576.651 987.118 568.083V568.081Z" fill="#FFF3E0"/>
<g style="mix-blend-mode:multiply" opacity="0.6">
<path d="M987.119 568.081C966.548 563.562 958.467 550.79 958.195 528.583C960.828 532.075 982.169 559.027 1000.28 539.349C1019.61 518.341 994.314 419.956 994.314 419.956L994.398 419.556C996.698 418.622 999.071 418.299 1001.48 418.85C1007.19 420.166 1013.06 426.447 1018.34 441.341C1037.29 494.792 1026.12 576.648 987.119 568.081Z" fill="#B2A8C1"/>
</g>
<path d="M1018.14 426.803L1018.01 426.608L1018 426.603C1008.16 412.223 991.784 411.381 982.874 412.164C974.547 412.897 965.255 415.518 955.251 419.956C935.722 428.623 922.712 440.596 918.623 453.667C916.247 461.257 917.028 468.616 920.882 474.95C923.614 479.439 926.02 482.929 928.463 485.93C937.561 497.114 947.895 502.03 960.06 500.962C960.621 500.914 961.197 500.85 961.773 500.773C965.872 500.23 969.541 499.9 973.09 499.58C984.945 498.515 1008.92 495.79 1012.91 464.345C1013.18 462.225 1018.32 444.593 1019.11 442.619C1022.35 434.502 1018.15 426.803 1018.15 426.803H1018.14Z" fill="#390176"/>
<path d="M1018.24 450.812C1018.24 450.812 1018.24 450.817 1018.24 450.828C1013.27 463.282 1009.1 477.25 999.589 486.283C990.069 495.322 979.097 493.811 961.166 496.187C948.1 497.918 939.13 491.714 932.05 483.011C931.154 481.907 930.284 480.763 929.449 479.587L929.439 479.577C927.815 477.316 926.292 474.943 924.832 472.543C916.652 459.093 925.17 438.363 957.128 424.181C989.518 409.808 1006.96 418.163 1014.53 429.716L1014.53 429.722C1019.4 437.165 1020.19 445.929 1018.24 450.81L1018.24 450.812Z" fill="#FFA300"/>
<path d="M1018.24 450.813C1013.27 463.272 1009.1 477.247 999.586 486.283C990.066 495.322 979.095 493.811 961.163 496.187C948.097 497.918 939.128 491.714 932.048 483.011C932.053 483.011 932.053 483.016 932.058 483.016C941.033 487.415 955.791 492.766 986.282 481.72C1000.98 476.394 1012.22 442.417 1014.52 429.722L1014.53 429.727C1019.4 437.17 1020.19 445.935 1018.24 450.815L1018.24 450.813Z" fill="#FFF3E0"/>
<path d="M975.146 499.336C974.634 498.934 974.252 498.594 973.832 498.21C973.423 497.833 973.028 497.449 972.642 497.058C971.871 496.272 971.139 495.45 970.45 494.592C969.072 492.876 967.856 491.015 966.916 488.995C965.977 486.979 965.321 484.795 965.121 482.55C964.911 480.309 965.188 478.025 965.882 475.933C967.236 471.911 969.013 468.083 971.108 464.462C973.195 460.839 975.543 457.378 978.193 454.174C975.827 457.587 973.794 461.213 972.045 464.949C970.288 468.68 968.88 472.561 967.912 476.51C967.451 478.404 967.385 480.343 967.713 482.219C968.035 484.096 968.737 485.901 969.687 487.576C970.637 489.253 971.835 490.805 973.177 492.223C973.848 492.933 974.557 493.609 975.294 494.249C975.663 494.569 976.039 494.879 976.418 495.176C976.787 495.462 977.212 495.777 977.535 495.99L975.146 499.336Z" fill="#390176"/>
<path d="M952.58 500.804C952.068 500.402 951.687 500.061 951.267 499.677C950.857 499.301 950.463 498.917 950.076 498.525C949.305 497.739 948.573 496.917 947.884 496.059C946.507 494.344 945.291 492.482 944.351 490.462C943.411 488.447 942.756 486.263 942.556 484.017C942.346 481.777 942.623 479.493 943.316 477.401C944.671 473.378 946.448 469.55 948.542 465.93C950.629 462.307 952.977 458.845 955.627 455.642C953.261 459.055 951.228 462.68 949.48 466.416C947.723 470.147 946.315 474.029 945.347 477.977C944.886 479.872 944.819 481.81 945.147 483.687C945.47 485.564 946.171 487.369 947.121 489.043C948.071 490.72 949.27 492.272 950.611 493.691C951.282 494.4 951.991 495.076 952.729 495.716C953.098 496.036 953.474 496.346 953.853 496.643C954.222 496.93 954.647 497.245 954.969 497.457L952.58 500.804Z" fill="#390176"/>
<path d="M935.95 493.499C935.438 493.097 935.057 492.756 934.637 492.372C934.227 491.996 933.833 491.611 933.446 491.22C932.676 490.434 931.943 489.612 931.254 488.754C929.877 487.038 928.661 485.177 927.721 483.157C926.781 481.142 926.126 478.957 925.926 476.712C925.716 474.471 925.993 472.187 926.687 470.096C928.041 466.073 929.818 462.245 931.913 458.625C933.999 455.001 936.347 451.54 938.997 448.336C936.632 451.75 934.599 455.375 932.85 459.111C931.093 462.842 929.685 466.723 928.717 470.672C928.256 472.566 928.19 474.505 928.517 476.382C928.84 478.258 929.542 480.064 930.491 481.738C931.441 483.415 932.64 484.967 933.981 486.385C934.652 487.095 935.362 487.771 936.099 488.411C936.468 488.731 936.844 489.041 937.223 489.338C937.592 489.625 938.017 489.939 938.339 490.152L935.95 493.499Z" fill="#390176"/>
<g style="mix-blend-mode:multiply" opacity="0.6">
<path d="M1018.24 450.828C1013.27 463.282 1009.1 477.249 999.588 486.283C990.068 495.321 979.096 493.811 961.165 496.187C948.099 497.918 939.13 491.714 932.05 483.011C931.154 481.907 930.283 480.762 929.448 479.587C929.822 479.9 941.956 489.911 952.774 489.699C963.756 489.486 983.495 487.481 993.517 480.03C1003.38 472.694 1017.79 451.488 1018.23 450.83L1018.24 450.828Z" fill="#B2A8C1"/>
</g>
<path d="M1103.98 577.558L1103.17 546.88L1107.68 577.233L1103.98 577.558Z" fill="#390176"/>
<path d="M1100.42 533.102C1100.44 526.414 1100.45 519.729 1100.47 513.041C1102.17 513.166 1103.03 513.22 1104.74 513.312C1106.4 513.402 1107.67 513.906 1108.54 514.843C1109.42 515.78 1109.87 517.073 1109.9 518.733C1109.96 522.496 1109.99 524.378 1110.05 528.142C1110.09 530.027 1109.63 531.399 1108.7 532.255C1107.76 533.11 1106.39 533.494 1104.6 533.386C1102.93 533.286 1102.09 533.23 1100.42 533.102ZM1103.36 515.939C1103.38 520.827 1103.4 525.718 1103.42 530.606C1103.97 530.641 1104.24 530.657 1104.79 530.69C1105.63 530.739 1106.23 530.567 1106.57 530.181C1106.92 529.794 1107.09 529.167 1107.08 528.301C1107.04 524.427 1107.02 522.491 1106.98 518.617C1106.97 517.826 1106.8 517.209 1106.47 516.758C1106.14 516.31 1105.56 516.064 1104.7 516.018C1104.17 515.988 1103.9 515.972 1103.36 515.942V515.939Z" fill="#390176"/>
<path d="M1112.47 518.354C1112.45 517.545 1112.58 516.83 1112.85 516.213C1113.12 515.596 1113.49 515.084 1113.95 514.677C1114.39 514.288 1114.9 513.993 1115.47 513.789C1116.04 513.586 1116.62 513.484 1117.21 513.484C1117.79 513.484 1118.38 513.586 1118.97 513.789C1119.55 513.993 1120.1 514.285 1120.58 514.68C1121.05 515.071 1121.44 515.601 1121.75 516.221C1122.06 516.838 1122.23 517.555 1122.27 518.367C1122.44 522.627 1122.53 524.758 1122.7 529.018C1122.74 529.869 1122.62 530.598 1122.35 531.208C1122.08 531.817 1121.72 532.321 1121.26 532.723C1120.79 533.143 1120.26 533.458 1119.66 533.668C1119.07 533.878 1118.47 533.981 1117.86 533.978C1117.25 533.976 1116.64 533.865 1116.03 533.653C1115.42 533.438 1114.88 533.1 1114.4 532.695C1113.92 532.288 1113.5 531.781 1113.19 531.172C1112.88 530.562 1112.72 529.833 1112.7 528.985C1112.61 524.732 1112.56 522.607 1112.47 518.354H1112.47ZM1115.68 529.039C1115.7 529.738 1115.91 530.253 1116.32 530.588C1116.73 530.921 1117.21 531.09 1117.76 531.092C1118.31 531.092 1118.78 530.929 1119.17 530.598C1119.56 530.268 1119.74 529.751 1119.72 529.052C1119.57 524.794 1119.49 522.663 1119.34 518.405C1119.32 517.706 1119.1 517.194 1118.7 516.866C1118.3 516.539 1117.83 516.375 1117.3 516.372C1116.77 516.372 1116.31 516.536 1115.93 516.861C1115.55 517.189 1115.37 517.701 1115.39 518.397C1115.51 522.653 1115.56 524.781 1115.68 529.036L1115.68 529.039Z" fill="#390176"/>
<path d="M1124.67 518.307C1124.63 517.496 1124.74 516.774 1125 516.141C1125.25 515.509 1125.61 514.976 1126.06 514.544C1126.5 514.129 1127 513.806 1127.56 513.573C1128.13 513.34 1128.71 513.207 1129.29 513.179C1129.88 513.148 1130.46 513.22 1131.05 513.394C1131.64 513.568 1132.2 513.834 1132.68 514.203C1133.16 514.572 1133.57 515.084 1133.89 515.688C1134.22 516.292 1134.41 517.002 1134.46 517.813C1134.49 518.223 1134.5 518.425 1134.53 518.835C1133.36 518.917 1132.77 518.955 1131.6 519.024C1131.58 518.615 1131.57 518.412 1131.54 518.003C1131.5 517.304 1131.27 516.799 1130.87 516.492C1130.46 516.182 1129.99 516.044 1129.45 516.07C1128.92 516.098 1128.47 516.285 1128.1 516.633C1127.72 516.981 1127.56 517.503 1127.59 518.202C1127.81 522.466 1127.92 524.599 1128.14 528.862C1128.18 529.561 1128.41 530.068 1128.83 530.383C1129.24 530.695 1129.73 530.841 1130.28 530.816C1130.82 530.79 1131.29 530.6 1131.67 530.247C1132.05 529.894 1132.22 529.369 1132.18 528.667C1132.09 527.146 1132.04 526.386 1131.95 524.867C1131.02 524.921 1130.54 524.947 1129.6 524.99C1129.55 523.969 1129.52 523.459 1129.46 522.438C1131.58 522.335 1132.63 522.274 1134.75 522.125C1134.91 524.668 1134.99 525.938 1135.16 528.48C1135.22 529.33 1135.12 530.07 1134.86 530.695C1134.61 531.32 1134.26 531.847 1133.81 532.272C1133.35 532.718 1132.82 533.064 1132.23 533.304C1131.64 533.545 1131.05 533.681 1130.44 533.709C1129.83 533.737 1129.22 533.66 1128.6 533.476C1127.99 533.292 1127.44 532.982 1126.95 532.6C1126.46 532.216 1126.02 531.732 1125.7 531.136C1125.38 530.539 1125.2 529.817 1125.16 528.967C1124.96 524.704 1124.86 522.573 1124.67 518.31L1124.67 518.307Z" fill="#390176"/>
<path d="M1138.12 533.053C1137.65 526.319 1137.17 519.588 1136.7 512.854C1140.14 512.567 1141.86 512.393 1145.3 511.98C1145.4 513.069 1145.45 513.614 1145.54 514.705C1143.24 514.979 1142.1 515.102 1139.79 515.319C1139.98 517.69 1140.07 518.878 1140.25 521.249C1142.28 521.06 1143.29 520.955 1145.31 520.722C1145.41 521.813 1145.45 522.356 1145.55 523.446C1143.51 523.679 1142.49 523.784 1140.46 523.974C1140.64 526.345 1140.73 527.533 1140.91 529.904C1143.27 529.686 1144.46 529.563 1146.82 529.287C1146.92 530.444 1146.97 531.023 1147.07 532.18C1143.5 532.595 1141.71 532.769 1138.12 533.053Z" fill="#390176"/>
<path d="M1149.01 531.947C1148.4 525.216 1147.78 518.481 1147.16 511.75C1148.27 511.609 1148.82 511.535 1149.93 511.379C1151.82 515.45 1152.78 517.478 1154.74 521.521C1154.76 521.518 1154.77 521.516 1154.8 521.513C1155.85 517.007 1156.35 514.748 1157.34 510.224C1158.45 510.032 1159.01 509.932 1160.12 509.727C1160.91 516.451 1161.7 523.175 1162.49 529.896C1161.3 530.111 1160.7 530.216 1159.51 530.416C1158.96 525.507 1158.68 523.052 1158.14 518.143C1158.11 518.149 1158.1 518.149 1158.08 518.154C1157.31 521.818 1156.92 523.649 1156.11 527.302C1155.52 527.395 1155.22 527.441 1154.63 527.53C1153.1 524.235 1152.35 522.581 1150.87 519.27L1150.81 519.278C1151.29 524.191 1151.53 526.647 1152.01 531.558C1150.81 531.722 1150.21 531.799 1149.01 531.947Z" fill="#390176"/>
<path d="M1163.23 514.006C1163.13 513.194 1163.18 512.449 1163.39 511.771C1163.59 511.092 1163.9 510.498 1164.32 509.989C1164.71 509.502 1165.18 509.095 1165.73 508.77C1166.27 508.445 1166.83 508.217 1167.41 508.091C1167.98 507.966 1168.57 507.943 1169.17 508.025C1169.76 508.104 1170.34 508.283 1170.84 508.575C1171.34 508.867 1171.78 509.32 1172.15 509.876C1172.52 510.432 1172.76 511.115 1172.87 511.924C1173.48 516.175 1173.78 518.297 1174.39 522.548C1174.51 523.395 1174.47 524.156 1174.26 524.824C1174.06 525.495 1173.75 526.081 1173.35 526.581C1172.92 527.103 1172.43 527.536 1171.87 527.874C1171.3 528.212 1170.72 528.445 1170.12 528.573C1169.52 528.701 1168.91 528.721 1168.29 528.637C1167.67 528.55 1167.1 528.327 1166.59 528.022C1166.07 527.717 1165.6 527.298 1165.24 526.75C1164.87 526.202 1164.64 525.503 1164.53 524.653C1164.01 520.394 1163.75 518.264 1163.22 514.006H1163.23ZM1167.48 524.066C1167.57 524.765 1167.83 525.239 1168.27 525.487C1168.71 525.736 1169.2 525.802 1169.74 525.687C1170.28 525.572 1170.73 525.306 1171.08 524.888C1171.43 524.473 1171.55 523.915 1171.46 523.216C1170.88 518.963 1170.59 516.838 1170.01 512.585C1169.91 511.888 1169.65 511.417 1169.22 511.172C1168.79 510.928 1168.32 510.862 1167.79 510.974C1167.27 511.087 1166.83 511.351 1166.49 511.76C1166.15 512.173 1166.02 512.726 1166.11 513.422C1166.66 517.678 1166.94 519.806 1167.48 524.064L1167.48 524.066Z" fill="#390176"/>
<path d="M1184.8 509.863C1183.66 510.193 1183.1 510.355 1181.95 510.672C1181.91 510.413 1181.89 510.283 1181.85 510.024C1181.74 509.366 1181.5 508.841 1181.12 508.447C1180.73 508.053 1180.18 507.955 1179.46 508.15C1179.07 508.255 1178.76 508.414 1178.55 508.629C1178.33 508.844 1178.15 509.085 1178.05 509.348C1177.93 509.625 1177.87 509.935 1177.87 510.26C1177.86 510.585 1177.88 510.915 1177.93 511.256C1177.99 511.65 1178.06 511.975 1178.12 512.231C1178.19 512.487 1178.3 512.705 1178.44 512.882C1178.58 513.058 1178.78 513.197 1179.01 513.289C1179.25 513.384 1179.57 513.455 1179.97 513.507C1180.9 513.622 1181.37 513.678 1182.31 513.786C1182.98 513.855 1183.55 513.996 1183.99 514.213C1184.44 514.431 1184.83 514.723 1185.11 515.089C1185.39 515.46 1185.62 515.952 1185.79 516.502C1185.96 517.053 1186.11 517.693 1186.23 518.425C1186.37 519.27 1186.41 520.077 1186.36 520.85C1186.31 521.621 1186.14 522.317 1185.84 522.932C1185.53 523.569 1185.06 524.133 1184.46 524.611C1183.86 525.09 1183.08 525.459 1182.14 525.707C1181.43 525.897 1180.75 525.945 1180.1 525.858C1179.44 525.771 1178.86 525.566 1178.36 525.244C1177.85 524.921 1177.42 524.504 1177.08 523.994C1176.74 523.485 1176.52 522.888 1176.42 522.212C1176.35 521.782 1176.32 521.57 1176.26 521.139C1177.43 520.855 1178.01 520.709 1179.18 520.41C1179.23 520.771 1179.26 520.952 1179.32 521.314C1179.4 521.841 1179.63 522.274 1180 522.617C1180.39 522.957 1180.95 523.032 1181.69 522.834C1182.19 522.701 1182.57 522.527 1182.82 522.312C1183.07 522.097 1183.26 521.836 1183.37 521.531C1183.48 521.226 1183.52 520.886 1183.49 520.512C1183.46 520.138 1183.41 519.726 1183.34 519.275C1183.25 518.75 1183.16 518.323 1183.07 517.995C1182.98 517.667 1182.86 517.404 1182.71 517.24C1182.56 517.071 1182.35 516.948 1182.11 516.876C1181.87 516.804 1181.56 516.74 1181.18 516.687C1180.3 516.571 1179.86 516.51 1178.98 516.387C1177.65 516.203 1176.72 515.739 1176.17 515.007C1175.62 514.275 1175.26 513.276 1175.07 512.016C1174.96 511.264 1174.96 510.524 1175.06 509.794C1175.17 509.067 1175.4 508.403 1175.72 507.812C1176.04 507.233 1176.48 506.708 1177.03 506.26C1177.59 505.812 1178.28 505.477 1179.12 505.254C1179.82 505.065 1180.48 505.021 1181.1 505.121C1181.73 505.223 1182.28 505.428 1182.78 505.738C1183.78 506.396 1184.38 507.305 1184.57 508.467C1184.66 509.031 1184.71 509.312 1184.8 509.876L1184.8 509.863Z" fill="#390176"/>
<path d="M1189.44 523.472C1188.3 516.797 1187.16 510.122 1186.02 503.449C1187.14 503.111 1187.7 502.937 1188.82 502.583C1190 509.251 1191.18 515.919 1192.36 522.584C1191.19 522.947 1190.61 523.124 1189.44 523.472Z" fill="#390176"/>
<path d="M1201.67 504.291C1200.56 504.706 1200 504.911 1198.88 505.31C1198.82 505.054 1198.8 504.924 1198.75 504.668C1198.62 504.015 1198.36 503.505 1197.97 503.137C1197.57 502.768 1197.02 502.709 1196.31 502.957C1195.93 503.09 1195.63 503.272 1195.42 503.503C1195.21 503.733 1195.05 503.989 1194.95 504.261C1194.85 504.547 1194.8 504.862 1194.8 505.19C1194.81 505.518 1194.84 505.848 1194.9 506.186C1194.98 506.578 1195.05 506.9 1195.13 507.154C1195.21 507.407 1195.32 507.617 1195.47 507.784C1195.62 507.953 1195.81 508.076 1196.05 508.153C1196.29 508.229 1196.61 508.281 1197.01 508.301C1197.94 508.35 1198.4 508.373 1199.34 508.411C1200.01 508.432 1200.57 508.532 1201.03 508.718C1201.48 508.903 1201.88 509.172 1202.17 509.517C1202.46 509.871 1202.7 510.347 1202.89 510.887C1203.08 511.427 1203.24 512.062 1203.39 512.787C1203.56 513.624 1203.63 514.433 1203.61 515.212C1203.58 515.99 1203.44 516.702 1203.16 517.34C1202.87 518.003 1202.43 518.602 1201.85 519.127C1201.27 519.652 1200.51 520.077 1199.59 520.397C1198.89 520.638 1198.21 520.737 1197.56 520.699C1196.91 520.661 1196.33 520.494 1195.81 520.207C1195.3 519.921 1194.86 519.531 1194.5 519.045C1194.14 518.556 1193.9 517.975 1193.78 517.301C1193.7 516.874 1193.66 516.661 1193.59 516.236C1194.74 515.865 1195.31 515.675 1196.46 515.291L1196.62 516.187C1196.72 516.71 1196.97 517.13 1197.35 517.447C1197.74 517.762 1198.31 517.795 1199.04 517.542C1199.53 517.373 1199.89 517.171 1200.14 516.935C1200.39 516.7 1200.56 516.426 1200.66 516.111C1200.75 515.796 1200.78 515.453 1200.74 515.079C1200.7 514.705 1200.63 514.295 1200.54 513.847C1200.44 513.325 1200.34 512.902 1200.24 512.58C1200.13 512.257 1200 512.001 1199.85 511.847C1199.7 511.689 1199.48 511.581 1199.24 511.525C1199 511.468 1198.69 511.43 1198.31 511.402C1197.43 511.348 1196.99 511.32 1196.12 511.261C1194.79 511.171 1193.85 510.772 1193.28 510.078C1192.71 509.382 1192.31 508.406 1192.08 507.154C1191.95 506.406 1191.92 505.661 1192 504.921C1192.08 504.181 1192.28 503.5 1192.59 502.883C1192.88 502.279 1193.3 501.718 1193.83 501.229C1194.37 500.74 1195.05 500.353 1195.86 500.067C1196.55 499.826 1197.21 499.734 1197.83 499.79C1198.45 499.846 1199.01 500.013 1199.52 500.287C1200.53 500.876 1201.15 501.744 1201.39 502.898C1201.5 503.457 1201.56 503.736 1201.67 504.294L1201.67 504.291Z" fill="#390176"/>
<path d="M1172.63 444.414C1171.39 441.987 1168.6 439.941 1163.94 438.039C1160.21 436.53 1156.47 436.052 1153.71 436.722C1153.16 436.858 1152.67 437.027 1152.18 437.25C1150.98 437.8 1150.06 438.953 1149.62 440.448C1149.09 442.225 1149.32 444.381 1150.14 445.52C1150.42 445.863 1150.77 446.291 1151.16 446.657C1150.86 446.939 1150.58 447.2 1150.31 447.438C1149.92 447.791 1149.55 448.096 1149.23 448.36C1145.77 447.976 1142.16 448.183 1138.53 449.069C1122.11 453.069 1111.47 469.302 1114.75 485.331C1118.03 501.36 1133.99 511.108 1150.41 507.106C1166.83 503.106 1177.47 486.872 1174.19 470.844C1172.99 464.97 1170.07 459.944 1166.06 456.126C1166.09 455.007 1166.21 453.806 1166.39 452.572C1167.13 452.598 1167.86 452.523 1168.56 452.352C1170.42 451.899 1171.87 450.772 1172.61 449.205C1173.34 447.638 1173.38 445.774 1172.63 444.414ZM1115.86 480.126C1115.86 480.154 1115.86 480.182 1115.86 480.21C1115.86 480.154 1115.86 480.1 1115.85 480.044C1115.85 480.072 1115.85 480.1 1115.85 480.126H1115.86Z" fill="#390176"/>
<path d="M1151.89 504.443C1144.03 506.875 1136.37 506.263 1136.05 506.235L1135.28 506.171L1133.72 500.487C1132.38 499.509 1127.52 495.65 1126.08 490.401C1125.59 488.616 1125.27 487.142 1125.05 485.764C1124.74 483.752 1124.67 481.949 1124.86 480.256C1125.08 478.159 1125.68 476.226 1126.7 474.344C1129.26 469.592 1130.01 466.035 1129.21 462.451C1128.34 458.561 1128.81 456.306 1130.61 455.75C1131.39 455.507 1132.27 455.681 1133.3 456.28C1135.36 457.478 1137.1 459.212 1137.91 460.087C1139.97 459.498 1145.89 457.844 1148.8 457.509C1149.64 455.944 1151.96 451.761 1154.01 449.3C1155.49 447.531 1156.76 446.527 1158.02 446.138C1159.67 445.628 1161.21 446.153 1162.62 447.692L1162.79 447.884V447.892C1162.89 447.997 1162.98 448.109 1163.07 448.227C1164.97 450.657 1165.98 454.946 1166.79 458.395C1167.11 459.734 1167.38 460.891 1167.64 461.629C1168.34 463.652 1168.81 465.211 1169.01 465.892C1170.12 466.745 1173.32 469.735 1173.28 475.717C1173.28 475.986 1173.28 476.267 1173.26 476.557C1173.1 480.781 1171.54 491.53 1160.69 500.006C1158.28 501.89 1155.32 503.385 1151.89 504.446L1151.89 504.443Z" fill="#390176"/>
<path d="M1172.12 475.763C1172.12 476.024 1172.11 476.29 1172.1 476.561C1171.84 483.073 1168.85 492.196 1160 499.117C1150.78 506.325 1136.2 505.091 1136.2 505.091L1134.74 499.765C1134.74 499.765 1128.75 495.711 1127.2 490.053C1126.77 488.486 1126.42 486.988 1126.2 485.536C1125.92 483.733 1125.83 482.008 1126.01 480.32C1126.21 478.459 1126.74 476.646 1127.72 474.843C1130.28 470.091 1131.26 466.225 1130.34 462.148C1129.43 458.075 1130.01 455.719 1132.67 457.271C1135.34 458.822 1137.49 461.388 1137.49 461.388C1137.49 461.388 1146.69 458.679 1149.52 458.597C1149.52 458.597 1152.44 452.938 1154.89 450.004C1157.21 447.226 1159.39 445.907 1161.73 448.48C1161.87 448.626 1162 448.783 1162.13 448.952C1164.63 452.139 1165.59 459.365 1166.53 462.046C1167.47 464.727 1167.98 466.611 1167.98 466.611C1167.98 466.611 1172.16 469.218 1172.12 475.765L1172.12 475.763Z" fill="#FFA300"/>
<path d="M1172.1 476.559C1171.84 483.071 1168.85 492.194 1160 499.115C1150.78 506.322 1136.2 505.088 1136.2 505.088L1134.75 499.762C1134.75 499.762 1128.76 495.709 1127.2 490.05C1126.24 486.54 1125.69 483.362 1126.02 480.321C1127.67 478.026 1128.67 478.311 1129.84 480.152C1131 481.99 1130.86 482.587 1134.19 481.401C1137.53 480.216 1139.77 480.223 1146.01 481.463C1152.25 482.702 1153.46 478.958 1157.69 475.077C1161.92 471.195 1164.95 471.843 1167.92 472.631C1170.89 473.42 1172.1 476.559 1172.1 476.559Z" fill="#FFF3E0"/>
<path d="M1157.29 449.853C1157.29 449.853 1161.25 455.363 1161.37 460.274C1161.37 460.274 1156.63 458.572 1152.92 459.127C1152.92 459.127 1155.86 458.103 1157.37 456.462C1159.41 454.247 1157.29 449.853 1157.29 449.853Z" fill="#390176"/>
<g style="mix-blend-mode:multiply" opacity="0.6">
<path d="M1172.12 475.762C1172.12 476.024 1172.11 476.29 1172.1 476.561C1171.84 483.073 1168.85 492.196 1160 499.117C1150.78 506.325 1136.2 505.09 1136.2 505.09L1134.74 499.765C1134.74 499.765 1128.75 495.711 1127.2 490.053C1126.77 488.486 1126.42 486.988 1126.2 485.536C1127.03 484.012 1128.78 485.405 1129.89 487.239C1131 489.072 1133.6 492.623 1134.14 492.751C1134.68 492.877 1135.09 491.371 1134.3 490.705C1133.5 490.037 1132.2 487.515 1132.2 487.515C1132.2 487.515 1140.49 484.355 1140.57 485.126C1140.64 485.894 1138.88 489.61 1140.34 490.839C1141.79 492.065 1144.18 491.138 1146.8 489.538C1149.41 487.938 1149.95 486.186 1152.27 485.149C1154.6 484.112 1155.5 482.689 1158.8 480.602C1162.09 478.52 1167.59 478.551 1167.59 478.551C1168.92 472.992 1165.82 467.615 1162.98 463.938C1160.15 460.261 1152.92 459.132 1152.92 459.132C1156.11 458.146 1159.03 458.428 1161.22 458.789C1163.42 459.15 1163.89 459.101 1163.77 457.16C1163.65 455.219 1163.09 452.423 1161.74 448.485C1161.87 448.629 1162.01 448.785 1162.14 448.954C1164.63 452.142 1165.6 459.368 1166.53 462.048C1167.47 464.729 1167.99 466.614 1167.99 466.614C1167.99 466.614 1172.16 469.22 1172.12 475.768L1172.12 475.762Z" fill="#DBB89E"/>
</g>
<path d="M1150.57 476.19C1149.99 476.37 1149.46 476.513 1148.99 476.62C1148.15 476.81 1145.61 477.384 1145.14 475.691C1144.8 474.444 1145.59 472.362 1147.3 471.246C1147.68 471 1148.09 470.808 1148.53 470.672C1148.63 470.639 1148.75 470.608 1148.86 470.58C1151.75 469.902 1152.97 471.046 1153.71 472.122C1153.8 472.25 1153.87 472.393 1153.91 472.542C1154 472.808 1154.01 473.1 1153.94 473.402V473.417C1153.93 473.435 1153.92 473.486 1153.92 473.486C1153.61 474.618 1152.33 475.642 1150.57 476.188L1150.57 476.19Z" fill="#390176"/>
<path d="M1153.54 472.667C1153.61 472.88 1153.61 473.115 1153.55 473.358C1153.55 473.358 1153.55 473.364 1153.55 473.369C1153.34 474.255 1152.32 475.256 1150.47 475.827C1149.92 475.996 1149.4 476.139 1148.92 476.249C1147.09 476.664 1145.8 476.587 1145.52 475.576C1145.25 474.557 1145.88 472.624 1147.51 471.563C1147.92 471.295 1148.4 471.082 1148.94 470.954C1151.62 470.324 1152.72 471.369 1153.39 472.35C1153.46 472.449 1153.51 472.554 1153.54 472.667H1153.54Z" fill="#FFF3E0"/>
<path d="M1153.54 472.667C1153.57 472.9 1153.57 473.131 1153.55 473.358C1153.55 473.358 1153.55 473.364 1153.55 473.369C1153.34 474.255 1152.32 475.256 1150.47 475.827C1149.92 475.996 1149.4 476.139 1148.92 476.249C1148.04 475.904 1147.35 475.176 1147.08 474.203C1146.83 473.284 1147.01 472.334 1147.51 471.563C1147.92 471.295 1148.4 471.082 1148.94 470.954C1151.61 470.324 1152.71 471.369 1153.39 472.35C1153.46 472.449 1153.51 472.554 1153.54 472.667H1153.54Z" fill="#390176"/>
<path d="M1151.05 472.52C1151.35 472.289 1151.42 471.868 1151.2 471.578C1150.98 471.288 1150.56 471.24 1150.25 471.471C1149.95 471.701 1149.88 472.123 1150.1 472.413C1150.32 472.702 1150.74 472.75 1151.05 472.52Z" fill="#FFF3E0"/>
<path d="M1132.62 485.8L1131.68 485.16C1133.16 483.122 1135.81 475.635 1135.83 475.561L1136.93 475.891C1136.82 476.206 1134.2 483.618 1132.62 485.797V485.8Z" fill="#390176"/>
<path d="M1134.54 478.697C1134.45 478.723 1134.36 478.746 1134.28 478.763C1133.42 478.935 1132.53 478.682 1132.01 478.113C1131.59 477.647 1131.46 477.033 1131.66 476.385C1131.82 475.883 1132 475.468 1132.22 475.122C1132.62 474.498 1133.16 474.088 1133.86 473.87C1134.08 473.804 1134.32 473.75 1134.6 473.712C1135.37 473.602 1136.41 473.991 1136.81 474.831C1137.1 475.476 1137.13 476.572 1135.52 478.121C1135.24 478.387 1134.91 478.582 1134.53 478.697H1134.54Z" fill="#390176"/>
<path d="M1135.26 477.852C1134.96 478.139 1134.6 478.313 1134.22 478.387C1132.99 478.636 1131.62 477.822 1132.04 476.48C1132.18 476.004 1132.35 475.622 1132.55 475.317C1133.07 474.495 1133.78 474.211 1134.64 474.091C1135.81 473.924 1137.99 475.22 1135.26 477.852H1135.26Z" fill="#FFF3E0"/>
<path d="M1135.26 477.852C1134.96 478.139 1134.6 478.313 1134.22 478.387C1133.41 478.185 1132.74 477.581 1132.51 476.728C1132.38 476.252 1132.4 475.763 1132.55 475.314C1133.08 474.493 1133.78 474.208 1134.64 474.088C1135.81 473.922 1137.99 475.217 1135.26 477.849L1135.26 477.852Z" fill="#390176"/>
<path d="M1135.35 475.416C1135.53 475.284 1135.56 475.043 1135.44 474.878C1135.31 474.712 1135.07 474.684 1134.9 474.816C1134.72 474.947 1134.68 475.188 1134.81 475.354C1134.94 475.519 1135.18 475.547 1135.35 475.416Z" fill="#FFF3E0"/>
<path d="M1132.21 487.516C1130.58 485.78 1131.92 483.882 1133.65 483.327C1135.38 482.771 1137.28 481.811 1138.85 482.205C1140.42 482.6 1141.27 484.51 1140.02 486.481C1138.77 488.455 1137.94 489.9 1136.34 489.997C1134.74 490.097 1132.78 488.128 1132.21 487.516Z" fill="#390176"/>
<path d="M1133.55 487.295C1133.45 487.326 1133.34 487.318 1133.24 487.262C1133.2 487.234 1132.1 486.571 1132.31 485.521C1132.42 485.006 1133.08 484.046 1134.88 483.718C1135.09 483.68 1135.29 483.818 1135.32 484.026C1135.35 484.233 1135.2 484.433 1134.99 484.471C1133.56 484.73 1133.12 485.401 1133.08 485.639C1132.97 486.161 1133.66 486.594 1133.67 486.599C1133.85 486.706 1133.9 486.939 1133.78 487.124C1133.73 487.208 1133.64 487.267 1133.55 487.295Z" fill="#FFF3E0"/>
<path d="M1137.35 492.936C1137.04 493.033 1136.72 492.864 1136.64 492.562L1135.77 489.382C1135.69 489.08 1135.87 488.757 1136.18 488.66C1136.49 488.563 1136.81 488.732 1136.9 489.034L1137.77 492.214C1137.85 492.516 1137.66 492.839 1137.35 492.936Z" fill="#390176"/>
<path d="M1145.14 492.87C1143.51 493.374 1141.83 493.284 1138.9 492.905C1137.23 492.69 1136.59 493.266 1135.92 493.873C1135.44 494.303 1134.9 494.79 1134.06 494.841C1132.16 494.959 1130.85 490.729 1130.49 489.428C1130.41 489.126 1130.59 488.804 1130.9 488.706C1131.21 488.609 1131.53 488.778 1131.62 489.08C1132.29 491.53 1133.45 493.73 1134.04 493.694C1134.44 493.671 1134.71 493.443 1135.15 493.041C1135.88 492.381 1136.88 491.479 1139.1 491.763C1142.26 492.171 1143.84 492.227 1145.47 491.538C1146.84 490.959 1149.4 488.161 1150.27 487.132C1150.48 486.883 1150.85 486.84 1151.09 487.037C1151.33 487.234 1151.36 487.595 1151.15 487.843C1150.81 488.245 1147.77 491.794 1145.89 492.591C1145.64 492.698 1145.39 492.79 1145.14 492.867L1145.14 492.87Z" fill="#390176"/>
<path d="M1144.77 497.722C1138.45 499.675 1135.88 496.086 1135.76 495.911C1135.58 495.655 1135.66 495.294 1135.92 495.11C1136.19 494.923 1136.55 494.979 1136.73 495.233C1136.85 495.399 1139.63 499.181 1146.95 495.635C1147.24 495.494 1147.58 495.607 1147.72 495.891C1147.85 496.175 1147.72 496.521 1147.42 496.662C1146.47 497.12 1145.59 497.468 1144.77 497.722Z" fill="#390176"/>
<path d="M1146.26 467.523C1145.2 468.842 1145.92 470.473 1148.24 469.423C1150.57 468.373 1151.25 466.409 1149.73 466.071C1148.22 465.733 1147.33 466.205 1146.27 467.523H1146.26Z" fill="#FFF3E0"/>
<path d="M1136.47 470.663C1137.35 471.633 1136.84 473.105 1134.97 472.532C1133.09 471.958 1132.49 470.394 1133.68 469.905C1134.87 469.416 1135.58 469.695 1136.47 470.663H1136.47Z" fill="#FFF3E0"/>
<path d="M1138.07 461.145C1137.84 461.222 1137.57 461.322 1137.32 461.424C1137.07 461.527 1136.82 461.637 1136.58 461.754C1136.08 461.987 1135.6 462.249 1135.13 462.533C1134.66 462.822 1134.21 463.145 1133.78 463.501C1133.36 463.862 1132.98 464.264 1132.63 464.712C1132.9 464.218 1133.21 463.746 1133.58 463.306C1133.95 462.873 1134.36 462.461 1134.79 462.082C1135.23 461.706 1135.68 461.35 1136.16 461.02C1136.4 460.853 1136.64 460.694 1136.89 460.541C1137.14 460.385 1137.38 460.241 1137.66 460.095L1138.07 461.15L1138.07 461.145Z" fill="#390176"/>
<path d="M1134.61 499.706C1134.78 499.862 1135 500.029 1135.2 500.182C1135.41 500.338 1135.62 500.487 1135.85 500.633C1136.28 500.922 1136.74 501.186 1137.21 501.424C1137.69 501.66 1138.18 501.857 1138.69 502.021C1139.21 502.174 1139.74 502.277 1140.29 502.318C1139.74 502.372 1139.17 502.366 1138.62 502.302C1138.07 502.228 1137.51 502.116 1136.98 501.962C1136.44 501.803 1135.91 501.616 1135.4 501.396C1135.15 501.286 1134.89 501.171 1134.64 501.048C1134.39 500.922 1134.14 500.799 1133.88 500.643L1134.61 499.709V499.706Z" fill="#390176"/>
<path d="M1168.03 466.617C1167.69 466.107 1167.32 465.595 1166.95 465.093C1166.58 464.592 1166.19 464.1 1165.79 463.621C1165.39 463.14 1164.97 462.674 1164.52 462.233C1164.08 461.796 1163.61 461.368 1163.06 461.048C1163.66 461.281 1164.2 461.639 1164.72 462.011C1165.24 462.384 1165.74 462.789 1166.22 463.211C1166.7 463.631 1167.17 464.067 1167.62 464.512C1168.08 464.96 1168.53 465.411 1168.97 465.887L1168.03 466.617H1168.03Z" fill="#390176"/>
</g>
</g>
<defs>
<radialGradient id="paint0_radial_611_10703" cx="0" cy="0" r="1" gradientUnits="userSpaceOnUse" gradientTransform="translate(21.9733 553) rotate(-50.0344) scale(1085.94 1353.82)">
<stop stop-color="#F530E4"/>
<stop offset="0.298236" stop-color="#7E1BFD"/>
<stop offset="0.631636" stop-color="#381573" stop-opacity="0.446602"/>
<stop offset="1" stop-color="#232047" stop-opacity="0"/>
</radialGradient>
<radialGradient id="paint1_radial_611_10703" cx="0" cy="0" r="1" gradientUnits="userSpaceOnUse" gradientTransform="translate(1456.89 679.799) rotate(-135.422) scale(400.312 776.304)">
<stop stop-color="#CA2EBD"/>
<stop offset="1" stop-color="#161136" stop-opacity="0"/>
</radialGradient>
<radialGradient id="paint2_radial_611_10703" cx="0" cy="0" r="1" gradientUnits="userSpaceOnUse" gradientTransform="translate(300.473 375.37) scale(327.556 413.343)">
<stop offset="0.231678" stop-color="#F7752F"/>
<stop offset="1" stop-color="#9C4FFF" stop-opacity="0"/>
</radialGradient>
<linearGradient id="paint3_linear_611_10703" x1="628.5" y1="383.321" x2="1323" y2="383.321" gradientUnits="userSpaceOnUse">
<stop stop-color="#D9D9D9" stop-opacity="0"/>
<stop offset="0.639052" stop-color="#737373"/>
</linearGradient>
<linearGradient id="paint4_linear_611_10703" x1="1347.87" y1="288.909" x2="1347.87" y2="500.933" gradientUnits="userSpaceOnUse">
<stop stop-color="#1B0939"/>
<stop offset="1" stop-color="#4C199F"/>
</linearGradient>
<linearGradient id="paint5_linear_611_10703" x1="1404.36" y1="494.227" x2="1292.93" y2="455.02" gradientUnits="userSpaceOnUse">
<stop stop-color="#FAA185"/>
<stop offset="0.300609" stop-color="#FA825D" stop-opacity="0.55"/>
<stop offset="1" stop-color="#CA2EBD" stop-opacity="0"/>
</linearGradient>
<linearGradient id="paint6_linear_611_10703" x1="1409" y1="420.973" x2="1336.78" y2="303.87" gradientUnits="userSpaceOnUse">
<stop stop-color="#FAA185"/>
<stop offset="0.300609" stop-color="#FA825D" stop-opacity="0.55"/>
<stop offset="1" stop-color="#CA2EBD" stop-opacity="0"/>
</linearGradient>
<linearGradient id="paint7_linear_611_10703" x1="1245.44" y1="227.004" x2="1400.81" y2="278.821" gradientUnits="userSpaceOnUse">
<stop stop-color="#F3E0FA"/>
<stop offset="0.329161" stop-color="#FF8642"/>
<stop offset="0.606741" stop-color="#CA36FE"/>
<stop offset="1" stop-color="#492CE1"/>
</linearGradient>
<linearGradient id="paint8_linear_611_10703" x1="772" y1="441.931" x2="754.264" y2="587.198" gradientUnits="userSpaceOnUse">
<stop stop-color="#291A87"/>
<stop offset="0.508576" stop-color="#FF8642"/>
<stop offset="1" stop-color="#D44ABE"/>
</linearGradient>
<linearGradient id="paint9_linear_611_10703" x1="888.956" y1="361.316" x2="765.569" y2="412.973" gradientUnits="userSpaceOnUse">
<stop stop-color="#F5DFC1"/>
<stop offset="0.508576" stop-color="#FF8642"/>
<stop offset="1" stop-color="#D44ABE"/>
</linearGradient>
<linearGradient id="paint10_linear_611_10703" x1="773" y1="422.321" x2="773" y2="520.321" gradientUnits="userSpaceOnUse">
<stop stop-color="#291A87"/>
<stop offset="0.508576" stop-color="#FF8642"/>
<stop offset="1" stop-color="#D44ABE"/>
</linearGradient>
<linearGradient id="paint11_linear_611_10703" x1="949" y1="391.321" x2="756.407" y2="513.523" gradientUnits="userSpaceOnUse">
<stop stop-color="#F3E0FA"/>
<stop offset="0.329161" stop-color="#FF8642"/>
<stop offset="0.606741" stop-color="#CA36FE"/>
<stop offset="1" stop-color="#492CE1"/>
</linearGradient>
<linearGradient id="paint12_linear_611_10703" x1="877" y1="289.321" x2="923.5" y2="337.821" gradientUnits="userSpaceOnUse">
<stop stop-color="#291A87"/>
<stop offset="1" stop-color="#D44ABE"/>
</linearGradient>
<linearGradient id="paint13_linear_611_10703" x1="800" y1="100.321" x2="800" y2="293.821" gradientUnits="userSpaceOnUse">
<stop offset="0.0663438" stop-color="#291A87"/>
<stop offset="0.575691" stop-color="#FF8642"/>
<stop offset="1" stop-color="#D44ABE"/>
</linearGradient>
<linearGradient id="paint14_linear_611_10703" x1="967.5" y1="242.821" x2="811" y2="240.821" gradientUnits="userSpaceOnUse">
<stop stop-color="#F3E0FA"/>
<stop offset="0.329161" stop-color="#FF8642"/>
<stop offset="0.606741" stop-color="#CA36FE"/>
<stop offset="1" stop-color="#492CE1"/>
</linearGradient>
<linearGradient id="paint15_linear_611_10703" x1="967.5" y1="242.821" x2="811" y2="240.821" gradientUnits="userSpaceOnUse">
<stop stop-color="#F3E0FA"/>
<stop offset="0.329161" stop-color="#FF8642"/>
<stop offset="0.606741" stop-color="#CA36FE"/>
<stop offset="1" stop-color="#492CE1"/>
</linearGradient>
<clipPath id="clip0_611_10703">
<rect width="1440" height="553" fill="white"/>
</clipPath>
<clipPath id="clip1_611_10703">
<rect width="336.652" height="452.016" fill="white" transform="translate(917.279 138.805)"/>
</clipPath>
</defs>
</svg>
