<svg width="928" height="439" viewBox="0 0 928 439" fill="none" xmlns="http://www.w3.org/2000/svg">
<g clip-path="url(#clip0_1017_29764)">
<rect width="928" height="439" transform="matrix(-1 0 0 1 928 0)" fill="url(#paint0_radial_1017_29764)"/>
<rect width="928" height="439" transform="matrix(-1 0 0 1 928 0)" fill="url(#paint1_radial_1017_29764)"/>
<rect width="928" height="439" transform="matrix(-1 0 0 1 928 0)" fill="url(#paint2_radial_1017_29764)"/>
<g clip-path="url(#clip1_1017_29764)">
<g opacity="0.15">
<mask id="mask0_1017_29764" style="mask-type:alpha" maskUnits="userSpaceOnUse" x="398" y="-70" width="630" height="630">
<circle cx="712.502" cy="244.991" r="314.502" fill="url(#paint3_linear_1017_29764)"/>
</mask>
<g mask="url(#mask0_1017_29764)">
<path d="M666.926 154.884L175.342 -336.057" stroke="white" stroke-width="0.933724"/>
<path d="M666.926 258.21L175.342 590.494" stroke="white" stroke-width="0.933724"/>
<path d="M666.926 237.685L175.342 400.169" stroke="white" stroke-width="0.933724"/>
<path d="M666.926 215.071L175.342 230.419" stroke="white" stroke-width="0.933724"/>
<path d="M667.231 192.483L175.342 43.3086" stroke="white" stroke-width="0.933724"/>
<path d="M666.926 171.931L175.342 -138.658" stroke="white" stroke-width="0.933724"/>
<path d="M666.926 281.52L175.342 773.104" stroke="white" stroke-width="0.933724"/>
<path d="M793.213 281.52L1284.5 773.104" stroke="white" stroke-width="0.933724"/>
<path d="M769.466 281.216L1101.89 773.104" stroke="white" stroke-width="0.933724"/>
<path d="M748.891 281.216L911.568 773.104" stroke="white" stroke-width="0.933724"/>
<path d="M726.386 280.573L741.818 773.104" stroke="white" stroke-width="0.933724"/>
<path d="M703.881 281.216L554.707 773.104" stroke="white" stroke-width="0.933724"/>
<path d="M683.947 280.573L372.739 773.104" stroke="white" stroke-width="0.933724"/>
<path d="M793.215 155.231L1284.45 -336.701" stroke="white" stroke-width="0.933724"/>
<path d="M769.468 155.188L1101.89 -336.701" stroke="white" stroke-width="0.933724"/>
<path d="M748.891 155.188L911.568 -336.701" stroke="white" stroke-width="0.933724"/>
<path d="M726.418 154.883L741.819 -336.701" stroke="white" stroke-width="0.933724"/>
<path d="M703.456 154.883L554.554 -336.701" stroke="white" stroke-width="0.933724"/>
<path d="M683.278 154.883L372.742 -336.701" stroke="white" stroke-width="0.933724"/>
<path d="M793.562 258.906L1285.15 591.137" stroke="white" stroke-width="0.933724"/>
<path d="M793.562 238.032L1285.15 400.812" stroke="white" stroke-width="0.933724"/>
<path d="M793.562 215.767L1285.15 231.062" stroke="white" stroke-width="0.933724"/>
<path d="M793.562 192.805L1285.15 43.9512" stroke="white" stroke-width="0.933724"/>
<path d="M793.562 172.975L1285.15 -138.015" stroke="white" stroke-width="0.933724"/>
<rect x="667.056" y="155.013" width="126.379" height="126.379" stroke="white" stroke-width="0.933724"/>
<rect x="659.34" y="147.296" width="141.81" height="141.81" stroke="white" stroke-width="0.933724"/>
<rect x="643.906" y="131.865" width="172.674" height="172.674" stroke="white" stroke-width="0.933724"/>
<rect x="630.168" y="116.733" width="200.966" height="200.966" stroke="white" stroke-width="0.933724"/>
<rect x="615.616" y="103.574" width="229.257" height="229.257" stroke="white" stroke-width="0.933724"/>
<rect x="598.899" y="86.8555" width="262.693" height="262.693" stroke="white" stroke-width="0.933724"/>
<rect x="573.179" y="61.1353" width="314.132" height="314.132" stroke="white" stroke-width="0.933724"/>
<rect x="548.744" y="36.7017" width="363" height="363" stroke="white" stroke-width="0.933724"/>
<rect x="517.881" y="5.83844" width="424.727" height="424.727" stroke="white" stroke-width="0.933724"/>
<rect x="483.159" y="-28.8837" width="494.17" height="494.17" stroke="white" stroke-width="0.933724"/>
<rect x="440.722" y="-71.3207" width="579.045" height="579.045" stroke="white" stroke-width="0.933724"/>
<rect x="390.568" y="-121.474" width="679.352" height="679.352" stroke="white" stroke-width="0.933724"/>
<rect x="332.698" y="-179.343" width="795.09" height="795.09" stroke="white" stroke-width="0.933724"/>
<rect x="260.685" y="-251.358" width="939.12" height="939.12" stroke="white" stroke-width="0.933724"/>
</g>
</g>
<path d="M945.571 217.646L862.295 215.133L861.937 305.229L945.571 362.66V217.646Z" fill="url(#paint4_linear_1017_29764)" stroke="#9084CF" stroke-opacity="0.25" stroke-width="0.74698"/>
<path d="M945.93 331.431L895.319 305.112V215.851" stroke="#9084CF" stroke-opacity="0.25" stroke-width="0.74698"/>
<path d="M862.295 304.869H945.929" stroke="#9084CF" stroke-opacity="0.25" stroke-width="0.74698"/>
<path d="M862.295 258.924H945.929" stroke="#9084CF" stroke-opacity="0.25" stroke-width="0.74698"/>
<path d="M888.14 323.534H945.571" stroke="#9084CF" stroke-opacity="0.25" stroke-width="0.74698"/>
<path d="M945.571 217.646L838.247 215.133L843.99 371.633L945.571 362.66V217.646Z" fill="url(#paint5_linear_1017_29764)"/>
<path d="M862.656 217.646L765.381 215.133L769.689 305.946H862.656H946.29V217.646H862.656Z" fill="url(#paint6_linear_1017_29764)" fill-opacity="0.5"/>
<path d="M936.095 145.1C935.981 145.107 935.868 145.134 935.758 145.167L863.942 166.641C863.832 166.674 863.719 166.696 863.607 166.72C862.628 166.936 861.917 167.806 861.917 168.824L861.917 215.133C861.917 216.295 862.838 217.247 863.999 217.286L936.146 219.366C937.363 219.407 938.371 218.431 938.371 217.214V147.251C938.371 146.002 937.318 145.029 936.095 145.1Z" fill="url(#paint7_linear_1017_29764)"/>
<mask id="mask1_1017_29764" style="mask-type:alpha" maskUnits="userSpaceOnUse" x="482" y="265" width="112" height="109">
<path d="M583.696 265.169C583.058 265.169 582.424 265.272 581.818 265.472L486.983 296.864C484.536 297.673 482.885 299.96 482.885 302.537V367.391C482.885 370.691 485.56 373.367 488.861 373.367H497.497L591.27 309.046C592.894 307.931 593.865 306.088 593.865 304.118V269.651C593.865 267.176 591.859 265.169 589.383 265.169H583.696Z" fill="url(#paint8_linear_1017_29764)"/>
</mask>
<g mask="url(#mask1_1017_29764)">
<path d="M581.622 265.633L482.885 297.871L498.54 300.655L593.865 270.039L594.213 264.821L584.542 265.122C583.549 265.153 582.566 265.325 581.622 265.633Z" fill="url(#paint9_linear_1017_29764)"/>
<path d="M500.976 297.872H482.885V370.101C482.885 371.724 484.18 373.049 485.802 373.088L495.275 373.314C496.718 373.348 498.133 372.917 499.312 372.085L503.411 369.192L500.976 297.872Z" fill="url(#paint10_linear_1017_29764)"/>
<mask id="mask2_1017_29764" style="mask-type:alpha" maskUnits="userSpaceOnUse" x="497" y="266" width="97" height="105">
<path d="M591.594 308.823L502.175 370.158C500.192 371.518 497.497 370.098 497.497 367.694V303.225C497.497 300.025 499.536 297.18 502.566 296.152L588.931 266.844C591.353 266.022 593.866 267.823 593.866 270.381V304.511C593.866 306.235 593.016 307.848 591.594 308.823Z" fill="#D9D9D9"/>
</mask>
<g mask="url(#mask2_1017_29764)">
<path d="M593.866 307.265L497.497 373.367V297.872L593.866 265.169V307.265Z" fill="url(#paint11_linear_1017_29764)"/>
<path d="M537.09 323.888L536.16 322.907C532.714 319.31 530.322 316.805 530.329 312.15C530.336 308.351 532.056 304.705 534.157 303.856C535.308 303.39 536.382 303.891 537.076 305.06C537.755 303.32 538.781 301.984 539.835 301.56C541.638 300.829 543.018 302.875 543.025 306.215C543.039 310.299 541.104 314.724 537.998 321.801L537.083 323.888H537.09Z" fill="white"/>
<path d="M545.224 308.497L547.096 307.557L547.144 317.974L545.265 319.136L545.224 308.497ZM552.664 314.55L547.872 317.521L547.817 306.597L548.878 302.756L549.148 298.366C549.169 298.011 549.252 297.67 549.377 297.392C549.502 297.114 549.661 296.926 549.828 296.863L549.876 296.842C550.147 296.738 550.41 296.856 550.597 297.176C550.792 297.496 550.896 297.99 550.903 298.547L550.93 302.777L553.53 301.553C553.863 301.4 554.182 301.532 554.418 301.935C554.654 302.332 554.786 302.958 554.792 303.675L554.834 308.42C554.841 309.68 554.626 311.023 554.224 312.171C553.822 313.326 553.26 314.182 552.664 314.557V314.55Z" fill="white"/>
<path d="M561.956 304.44L561.935 302.409L564.251 292.786L565.395 292.306L565.499 300.287L566.103 299.966L566.13 302.096L565.527 302.437L565.562 304.941L564.577 305.526L564.543 302.986L561.963 304.433L561.956 304.44ZM564.508 295.346L563.086 301.574L564.57 300.781L564.501 295.346H564.508Z" fill="white"/>
<path d="M557.892 306.41C558.419 305.074 558.835 303.988 559.147 303.146C559.452 302.297 559.702 301.456 559.896 300.621C560.09 299.793 560.187 299.027 560.18 298.324C560.18 297.684 560.104 297.211 559.972 296.905C559.84 296.599 559.639 296.501 559.369 296.627C559.098 296.752 558.89 297.058 558.745 297.559C558.599 298.046 558.53 298.665 558.53 299.41L557.379 299.953C557.386 298.38 557.58 297.114 557.947 296.147C558.322 295.193 558.793 294.595 559.362 294.365C559.972 294.115 560.444 294.303 560.769 294.922C561.095 295.527 561.262 296.439 561.276 297.663C561.29 298.631 561.186 299.605 560.978 300.593C560.769 301.588 560.52 302.499 560.243 303.313C559.958 304.127 559.591 305.129 559.126 306.34L561.484 305.011L561.504 307.175L557.476 309.569L557.455 307.523L557.892 306.41Z" fill="white"/>
</g>
</g>
<path d="M559.078 208.113L591.438 239.153C592.551 240.22 594.033 240.816 595.575 240.816H605.349L596.303 209.869L559.078 208.113Z" fill="url(#paint12_linear_1017_29764)"/>
<path d="M532.289 80.0859H521.412C519.349 80.0859 517.677 81.7581 517.677 83.8208V214.816C517.677 216.878 519.349 218.551 521.412 218.551H532.289V80.0859Z" fill="url(#paint13_linear_1017_29764)"/>
<mask id="mask3_1017_29764" style="mask-type:alpha" maskUnits="userSpaceOnUse" x="530" y="79" width="77" height="162">
<path d="M606.74 130.256C606.74 129.559 606.392 128.908 605.812 128.52L533.449 80.1683C532.061 79.2415 530.201 80.2357 530.201 81.9039V216.425C530.201 217.593 531.159 218.533 532.327 218.512L578.476 217.673C579.023 217.663 579.552 217.868 579.949 218.244L603.217 240.266C604.548 241.525 606.74 240.582 606.74 238.75V130.256Z" fill="url(#paint14_linear_1017_29764)"/>
</mask>
<g mask="url(#mask3_1017_29764)">
<path d="M606.74 130.256C606.74 129.559 606.392 128.908 605.812 128.52L533.449 80.1683C532.061 79.2415 530.201 80.2357 530.201 81.9039V216.425C530.201 217.593 531.159 218.533 532.327 218.512L578.476 217.673C579.023 217.663 579.552 217.868 579.949 218.244L603.217 240.266C604.548 241.525 606.74 240.582 606.74 238.75V130.256Z" fill="url(#paint15_linear_1017_29764)"/>
</g>
<g clip-path="url(#clip2_1017_29764)">
<path d="M848.061 252.168C840.479 247.811 823.554 239.59 795.39 233.472C768.298 227.587 738.798 225.353 707.71 226.83C703.362 227.035 699.178 227.315 695.269 227.659C657.998 230.935 640 240.397 638.627 257.432C637.721 268.676 646.378 278.175 664.358 285.666C681.353 292.746 707.793 298.533 742.945 302.87C763.128 305.359 781.384 305.917 797.201 304.526C815.458 302.921 830.177 298.811 840.949 292.311C849.92 286.898 855.751 279.87 857.37 272.526C859.181 264.309 855.614 256.507 848.059 252.168H848.061Z" fill="#390176"/>
<path d="M796.892 300.988C781.322 302.357 763.317 301.804 743.381 299.345C708.549 295.05 682.423 289.343 665.727 282.388C649.327 275.556 641.401 267.258 642.169 257.719C643.376 242.724 660.348 234.297 695.581 231.2C699.442 230.861 703.58 230.586 707.88 230.38C738.659 228.917 767.847 231.126 794.637 236.946C822.333 242.963 838.887 250.996 846.291 255.25C852.45 258.789 855.368 265.116 853.902 271.763C851.271 283.701 834.913 297.646 796.892 300.99V300.988Z" fill="#710125"/>
<path d="M642.17 257.717C640.639 276.708 672.779 290.634 743.383 299.343C849.634 312.448 867.877 267.649 846.292 255.248C824.707 242.847 776.271 227.128 707.881 230.378C656.949 232.797 643.248 244.354 642.172 257.717H642.17Z" fill="#710125"/>
<path d="M629.131 474.107L628.906 470.999C627.598 452.92 628.007 432.766 630.12 411.091L630.148 410.802C630.796 404.213 631.607 397.406 632.561 390.574C632.729 389.371 632.902 388.172 633.077 386.978C633.42 384.653 633.794 382.219 634.19 379.736C634.243 379.406 634.477 377.96 634.477 377.96C634.772 376.171 635.065 374.41 635.369 372.663C635.369 372.663 635.402 372.484 635.408 372.438L635.419 372.366C635.938 369.38 636.432 366.65 636.931 364.019C637.329 361.904 637.755 359.706 638.234 357.305C638.551 355.715 638.873 354.142 639.197 352.585L639.24 352.375C640.181 347.867 641.185 343.303 642.224 338.808C644.354 329.624 646.664 320.585 649.089 311.941C649.187 311.587 649.29 311.222 649.393 310.859L649.472 310.581C649.531 310.364 649.596 310.137 649.662 309.907C649.767 309.531 649.874 309.157 649.981 308.787L650.036 308.595C650.476 307.07 650.904 305.605 651.322 304.199L651.674 303.018C651.795 302.613 651.915 302.224 652.033 301.837C652.435 300.507 652.829 299.232 653.21 298.018L653.752 296.294L655.521 295.933C655.968 295.842 700.666 286.769 744.565 282.909C798.815 278.139 828.114 282.972 834.137 297.685C834.728 299.127 835.309 300.568 835.88 302.007C836.149 302.683 836.416 303.357 836.679 304.032C837.492 306.108 838.317 308.26 839.192 310.605C839.458 311.316 839.725 312.033 839.988 312.753C840.495 314.128 841.037 315.62 841.637 317.302L842.278 319.122C842.8 320.613 843.314 322.098 843.815 323.577C844.027 324.191 844.237 324.819 844.445 325.442L845.123 327.472C845.134 327.503 845.143 327.533 845.152 327.564C845.294 327.993 845.434 328.419 845.574 328.846L845.819 329.598C846.079 330.403 846.33 331.188 846.584 331.967C847.282 334.16 847.881 336.083 848.423 337.859C848.631 338.543 848.839 339.226 849.04 339.899L849.143 340.245C849.311 340.809 849.48 341.371 849.646 341.934C850.221 343.874 850.807 345.903 851.387 347.961C851.704 349.088 852.015 350.203 852.317 351.31L852.487 351.929C852.669 352.585 852.848 353.248 853.023 353.91C853.57 355.947 854.114 358.029 854.646 360.093L855.103 361.904C855.226 362.39 855.346 362.873 855.464 363.352C857.065 369.809 858.559 376.379 859.904 382.877L860.166 384.152L860.413 385.379C860.459 385.596 860.507 385.841 860.558 386.088L860.621 386.405C860.892 387.763 861.157 389.104 861.409 390.431C863.062 399.06 864.495 407.758 865.669 416.286C868.517 436.93 868.913 449.589 868.928 450.119L869.013 453.01L629.134 474.103L629.131 474.107Z" fill="#390176"/>
<path d="M865.86 450.212L631.964 470.78C630.554 451.269 631.256 430.907 633.2 411.108V411.104C633.865 404.317 634.676 397.598 635.597 391C635.766 389.803 635.938 388.609 636.109 387.422C636.465 385.003 636.837 382.603 637.216 380.222C637.31 379.629 637.408 379.038 637.502 378.448C637.793 376.683 638.086 374.929 638.388 373.19C638.405 373.089 638.425 372.991 638.438 372.892C638.924 370.093 639.422 367.324 639.941 364.597C640.365 362.337 640.8 360.106 641.238 357.908C641.553 356.325 641.874 354.761 642.196 353.212C642.213 353.142 642.226 353.075 642.24 353.005C643.213 348.346 644.208 343.832 645.21 339.501C647.521 329.537 649.868 320.51 652.04 312.772C652.165 312.319 652.296 311.864 652.421 311.418C652.482 311.197 652.543 310.976 652.609 310.756C652.731 310.314 652.858 309.874 652.983 309.445C653.42 307.932 653.847 306.475 654.262 305.076C654.38 304.675 654.501 304.282 654.617 303.89C654.732 303.503 654.848 303.118 654.967 302.74C655.369 301.41 655.758 300.146 656.137 298.941C656.137 298.941 817.813 265.908 831.299 298.851C831.887 300.286 832.462 301.716 833.031 303.144C833.298 303.814 833.56 304.481 833.818 305.146C834.676 307.333 835.507 309.513 836.318 311.681C836.585 312.389 836.848 313.098 837.106 313.807C837.665 315.325 838.21 316.831 838.748 318.336C838.958 318.938 839.172 319.539 839.385 320.138C839.903 321.621 840.415 323.095 840.913 324.565C841.126 325.182 841.333 325.799 841.537 326.411C841.755 327.065 841.972 327.717 842.191 328.366C842.202 328.404 842.217 328.445 842.228 328.487C842.458 329.178 842.681 329.867 842.906 330.556C843.16 331.345 843.413 332.133 843.667 332.914C844.29 334.871 844.901 336.82 845.489 338.755C845.695 339.433 845.9 340.114 846.101 340.783C846.303 341.459 846.504 342.13 846.703 342.802C847.3 344.816 847.875 346.813 848.435 348.797C848.748 349.912 849.058 351.021 849.358 352.121C849.415 352.329 849.472 352.534 849.529 352.742C849.71 353.396 849.885 354.05 850.058 354.702C850.613 356.773 851.151 358.829 851.674 360.861C851.805 361.381 851.934 361.898 852.063 362.409C852.206 362.974 852.348 363.536 852.486 364.094C854.154 370.826 855.62 377.317 856.899 383.507C856.987 383.933 857.074 384.357 857.162 384.782L857.407 385.996C857.479 386.335 857.544 386.676 857.612 387.017C857.881 388.364 858.144 389.696 858.395 391.013C860.211 400.483 861.586 409.129 862.63 416.712C865.486 437.431 865.86 450.217 865.86 450.217V450.212Z" fill="#FFA300"/>
<path d="M679.049 466.637C679.049 466.637 670.53 351.996 706.524 313.314C706.524 313.314 757.898 356.245 759.799 459.536L679.049 466.637Z" fill="#FFF3E0"/>
<g style="mix-blend-mode:multiply" opacity="0.6">
<path d="M865.86 450.212L827.041 453.626C826.542 446.522 825.663 439.274 824.635 432.45C820.849 433.594 814.893 435.307 811.127 436.252C809.994 436.536 802.044 455.527 802.044 455.527L794.437 456.581L797.597 439.034L741.779 443.296L741.475 462.777L736.06 462.484L740.954 439.342L723.912 438.146L711.096 365.316L701.75 446.619C692.043 445.016 682.886 441.984 674.594 438.314C671.086 451.732 663.722 459.529 652.145 461.297L651.745 469.039L631.962 470.778C630.552 451.266 631.254 430.904 633.198 411.106V411.102C633.863 404.315 634.674 397.596 635.595 390.997H635.6C635.768 389.801 635.936 388.607 636.109 387.419C636.466 385 636.837 382.601 637.216 380.219C637.31 379.626 637.408 379.036 637.502 378.445C637.793 376.68 638.086 374.926 638.388 373.187C638.406 373.087 638.425 372.988 638.438 372.89C638.926 370.086 639.427 367.322 639.941 364.594C640.365 362.335 640.801 360.104 641.238 357.906C641.553 356.322 641.874 354.759 642.196 353.21C642.213 353.14 642.227 353.072 642.24 353.002C643.213 348.344 644.208 343.829 645.21 339.499C647.522 329.534 649.869 320.508 652.04 312.77C652.165 312.317 652.296 311.862 652.421 311.416C652.482 311.195 652.543 310.974 652.609 310.753C652.731 310.311 652.858 309.872 652.983 309.443C653.42 307.93 653.847 306.473 654.262 305.073C654.381 304.673 654.501 304.279 654.617 303.888C654.733 303.501 654.849 303.116 654.967 302.737C655.369 301.407 655.758 300.143 656.137 298.938C656.137 298.938 817.813 265.906 831.299 298.849C831.887 300.283 832.462 301.714 833.031 303.142C833.298 303.811 833.56 304.478 833.818 305.143C834.676 307.33 835.507 309.511 836.318 311.678C836.585 312.387 836.848 313.096 837.106 313.804C837.666 315.322 838.21 316.829 838.748 318.334C838.958 318.935 839.173 319.537 839.385 320.136C839.903 321.619 840.415 323.093 840.914 324.563C841.126 325.18 841.334 325.796 841.537 326.409C841.756 327.063 841.972 327.714 842.191 328.364C842.202 328.401 842.217 328.443 842.228 328.484C842.458 329.175 842.681 329.864 842.906 330.553C843.16 331.343 843.414 332.13 843.667 332.911C844.291 334.869 844.901 336.817 845.489 338.753C845.695 339.431 845.9 340.111 846.102 340.78C846.303 341.456 846.504 342.128 846.703 342.799C847.3 344.814 847.875 346.81 848.435 348.794C848.748 349.91 849.059 351.019 849.358 352.119C849.415 352.326 849.472 352.532 849.529 352.74C849.71 353.394 849.885 354.048 850.058 354.699C850.614 356.771 851.152 358.827 851.674 360.858C851.806 361.379 851.935 361.895 852.064 362.407C852.206 362.971 852.348 363.533 852.486 364.091C854.155 370.823 855.62 377.315 856.899 383.504C856.987 383.931 857.074 384.355 857.162 384.779L857.407 385.993C857.479 386.332 857.545 386.673 857.612 387.015C857.882 388.362 858.144 389.694 858.395 391.011C860.211 400.481 861.587 409.127 862.63 416.709C865.486 437.428 865.86 450.214 865.86 450.214V450.212Z" fill="#B2A8C1"/>
</g>
<path d="M694.37 432.82C670.256 427.394 653.932 416.762 644.481 408.801C634.149 400.094 629.58 392.677 629.39 392.366L628.939 391.627L628.954 390.761C629.405 364.552 635.319 342.403 640.203 328.438C645.509 313.262 650.664 304.373 650.881 304.003L652.667 300.946L655.001 302.903C658.96 304.327 689.709 314.793 710.314 321.787L712.648 322.579L697.548 433.537L694.368 432.822L694.37 432.82Z" fill="#390176"/>
<path d="M709.359 324.613L695.029 429.904C690.195 428.817 685.676 427.52 681.462 426.07C645.96 413.857 631.947 390.811 631.947 390.811C632.723 345.487 649.796 312.203 652.963 306.412C653.289 305.817 653.466 305.513 653.466 305.513H653.471C653.622 305.699 709.359 324.613 709.359 324.613Z" fill="#DFDAE5"/>
<g style="mix-blend-mode:multiply" opacity="0.6">
<path d="M683.091 407.838L681.459 426.066V426.07C645.957 413.857 631.944 390.811 631.944 390.811C632.721 345.487 649.794 312.203 652.961 306.412L659.266 310.696C659.266 310.696 658.273 315.246 658.061 318.397C658.061 318.397 674.793 327.176 677.24 341.303C679.687 355.426 685.809 386.796 683.091 407.838Z" fill="#B2A8C1"/>
</g>
<path d="M773.005 433.739C748.229 435.917 731.655 433.564 730.962 433.463L728.786 433.146L708.183 321.315L712.557 322.113C719.685 323.415 727.425 324.629 735.564 325.722C749.526 327.594 764.373 327.861 779.689 326.514C815.561 323.36 842.463 312.317 842.729 312.206L845.431 311.083L846.682 313.726C862.716 347.635 869.061 398.598 869.323 400.752L869.564 402.729L867.855 403.753C832.892 424.717 796.977 431.63 773.005 433.739Z" fill="#390176"/>
<path d="M866.278 401.124C847.49 412.388 828.425 419.608 810.768 424.17V424.174C766.673 435.578 731.403 430.43 731.403 430.43L712.005 325.134C718.89 326.391 726.578 327.614 735.154 328.764C757.714 331.789 779.367 330.309 797.326 327.393C824.993 322.912 843.905 315.04 843.905 315.04C859.911 348.893 866.275 401.126 866.275 401.126L866.278 401.124Z" fill="#DFDAE5"/>
<g style="mix-blend-mode:multiply" opacity="0.6">
<path d="M810.768 424.17C829.825 384.802 797.682 328.023 797.328 327.391C824.996 322.91 843.908 315.038 843.908 315.038C859.913 348.891 866.278 401.124 866.278 401.124C847.49 412.388 828.425 419.608 810.768 424.17Z" fill="#B2A8C1"/>
</g>
<path d="M788.515 307.365C787.658 307.44 786.79 307.51 785.913 307.573C783.933 307.715 781.967 307.831 780.064 307.916C746.734 309.447 709.406 304.192 689.295 295.135C684.25 292.86 679.985 291.139 676.555 289.757C665.567 285.321 659.513 282.88 657.748 273.163C654.117 253.166 650.705 244.557 648.446 238.862C645.358 231.073 644.183 227.381 646.189 214.094L646.604 211.319C647.359 206.275 648.072 201.512 648.921 196.888C651.961 180.355 656.716 166.428 670.044 152.187C671.783 150.33 673.659 148.508 675.643 146.748C674.248 140.6 672.513 126.499 680.383 110.494L680.805 109.634C688.331 94.335 691.143 88.6112 697.674 88.036C700.789 87.7626 703.695 89.1362 706.125 90.5162C713.072 94.4597 717.549 100.514 721.145 105.378C722.334 106.988 723.459 108.506 724.55 109.798C727.848 113.696 731.271 119.244 733.198 122.532C739.873 121.967 746.64 122.053 753.317 122.788C764.172 123.982 774.445 126.541 783.903 130.397C786.965 127.328 791.477 121.031 794.082 111.504C794.333 110.586 794.58 109.665 794.827 108.748C798.263 96.0104 802.299 90.4506 811.876 89.6086C816.13 89.2346 818.661 90.3041 823.654 95.1114C838.667 109.568 842.627 122.481 844.869 137.188C845.014 138.137 845.156 139.073 845.3 139.994C847.105 151.535 842.741 164.573 839.233 175.049C838.041 178.608 836.908 181.998 836.173 184.861C845.285 207.1 852.9 239.061 847.562 263.797C841.726 290.846 823.51 304.284 788.511 307.361L788.515 307.365Z" fill="#390176"/>
<path d="M831.215 185.261C841.368 209.41 847.802 240.257 842.938 262.802C837.182 289.479 818.764 300.443 785.571 302.849C783.688 302.985 781.783 303.098 779.854 303.186C747.845 304.658 710.664 299.564 691.244 290.815C670.652 281.535 664.141 281.835 662.413 272.316C660.578 262.201 658.791 254.929 657.175 249.448C657.168 249.437 657.168 249.43 657.168 249.43C651.722 230.973 648.16 232.819 650.878 214.801C651.786 208.771 652.597 203.124 653.586 197.741C656.434 182.256 660.795 169.004 673.509 155.422C675.801 152.975 678.316 150.619 681.021 148.377H681.011C681.011 148.377 675.075 132.037 684.646 112.58C692.027 97.5591 694.538 92.2618 699.07 92.7671C700.408 92.9158 701.922 93.5741 703.792 94.6349C711.987 99.2869 716.333 107.41 720.937 112.854C725.547 118.302 730.608 127.541 730.608 127.541L730.604 127.554C737.736 126.731 745.164 126.655 752.806 127.497C764.389 128.772 775.115 131.646 784.756 135.898C784.756 135.898 794.082 129.489 798.655 112.755C802.437 98.9239 809.545 90.1315 819.151 96.5464L819.17 96.5618C821.178 97.9003 823.293 99.9146 825.515 102.679C838.868 119.337 838.317 125.922 840.631 140.727C842.943 155.532 833.717 173.912 831.222 185.259L831.215 185.261Z" fill="#FFA300"/>
<g style="mix-blend-mode:multiply" opacity="0.6">
<path d="M697.833 103.991C697.833 103.991 700.003 133.358 691.469 142.12C691.469 142.12 717.236 128.627 697.833 103.991Z" fill="#B2A8C1"/>
</g>
<g style="mix-blend-mode:multiply" opacity="0.6">
<path d="M821.724 113.711C821.724 113.711 818.387 136.591 814.083 141.724C809.778 146.858 798.707 143.076 798.707 143.076C798.707 143.076 807.471 147.654 809.17 153.45C810.867 159.243 814.671 165.245 814.671 165.245C814.671 165.245 832.037 143.118 821.724 113.711Z" fill="#B2A8C1"/>
</g>
<g style="mix-blend-mode:multiply" opacity="0.6">
<path d="M730.606 127.543L722.618 128.965C714.333 102.351 700.106 94.4493 699.067 92.7695C700.406 92.9183 701.919 93.5766 703.789 94.6374C711.984 99.2894 716.33 107.412 720.934 112.856C725.545 118.304 730.606 127.543 730.606 127.543Z" fill="#B2A8C1"/>
</g>
<path d="M789.676 256.208C776.197 266.011 779.668 301.976 779.668 301.976L779.851 303.184C747.842 304.656 710.661 299.562 691.241 290.813C670.649 281.533 664.138 281.833 662.41 272.314C654.388 228.114 647.347 238.173 650.873 214.801C651.781 208.771 652.592 203.124 653.581 197.741C663.289 177.569 682.009 186.386 688.733 173.877C695.449 161.369 696.742 148.161 705.784 147.087C714.825 146.017 720.339 156.673 723.475 163.891C726.618 171.111 733.276 177.121 744.653 168.958C756.024 160.796 760.773 150.571 773.244 157.202C787.834 164.96 772.12 181.379 774.106 187.142C776.087 192.912 791.34 201.175 799.282 216.728C807.223 232.281 803.157 246.396 789.678 256.208H789.676Z" fill="#FFF3E0"/>
<g style="mix-blend-mode:multiply" opacity="0.6">
<path d="M831.215 185.261C841.368 209.409 847.803 240.257 842.939 262.802C837.182 289.478 818.764 300.443 785.572 302.848C783.689 302.984 781.784 303.098 779.855 303.185C747.846 304.657 710.664 299.563 691.245 290.815C670.653 281.535 664.141 281.834 662.414 272.316C660.579 262.2 658.792 254.928 657.175 249.447C657.401 250.057 664.846 269.766 687.459 275.343C695.477 277.32 696.901 297.958 709.853 294.73C720.904 291.974 727.689 281.274 738.203 279.159C760.262 274.726 776.007 282.438 787.704 277.701C808.08 269.448 823.412 249.139 821.19 222.528C818.967 195.917 822.279 181.175 826.27 172.153C834.203 154.219 834.409 135.663 832.147 124.086C829.96 112.879 819.536 96.9329 819.164 96.561C821.172 97.8996 823.287 99.9139 825.509 102.678C838.862 119.336 838.311 125.921 840.625 140.726C842.936 155.531 833.711 173.912 831.215 185.259V185.261Z" fill="#B2A8C1"/>
</g>
<path d="M693.207 176.089C693.207 176.089 709.075 164.201 746.523 184.518C746.523 184.518 740.637 198.706 717.924 193.868C685.983 187.066 693.209 176.089 693.209 176.089H693.207Z" fill="#FFA300"/>
<path d="M758.899 240.786C756.093 241.532 753.237 241.683 750.42 241.414C747.789 241.165 745.19 240.555 742.706 239.728C742.699 239.723 742.688 239.723 742.682 239.719C742.675 239.719 742.669 239.715 742.664 239.715C735.169 237.217 728.702 232.799 725.373 230.579C719.758 226.828 712.727 229.396 704.645 225.352C696.564 221.308 684.663 221.165 676.367 223.554C668.072 225.942 665.2 222.878 663.129 214.145C662.779 212.671 662.571 211.306 662.462 210.007C661.926 203.581 663.899 198.712 664.299 190.338C664.78 180.268 673.365 180.555 673.365 180.555L758.902 240.793L758.899 240.786Z" fill="#FFF3E0"/>
<g style="mix-blend-mode:multiply" opacity="0.6">
<path d="M742.661 239.713C735.166 237.215 728.699 232.797 725.37 230.577C719.755 226.826 712.724 229.394 704.642 225.35C696.561 221.306 684.66 221.164 676.364 223.552C668.069 225.94 665.197 222.876 663.126 214.143C662.776 212.669 662.568 211.304 662.459 210.005C666.56 214.731 668.548 218.213 677.314 215.908C686.075 213.609 697.457 215.7 702.772 218.145C708.087 220.591 721.107 221.568 727.259 226.507C733.405 231.435 737.392 237.974 742.661 239.715V239.713Z" fill="#B2A8C1"/>
</g>
<path d="M708.115 283.791C699.664 284.535 690.854 282.186 686.692 278.08C682.11 273.566 683.379 267.389 684.848 260.237C685.647 256.355 686.55 251.953 686.659 247.204C686.681 246.345 686.64 245.472 686.537 244.602C685.255 233.817 674.989 225.484 674.886 225.401L671.314 222.542L675.708 221.273C678.204 220.556 680.94 220.062 683.844 219.806C691.959 219.093 699.926 220.34 705.701 223.229C709.364 225.062 712.842 225.396 716.203 225.718C719.738 226.057 723.395 226.407 726.686 228.605L727.076 228.865C731.577 231.872 740.94 238.134 750.642 239.055L755.473 239.007L752.328 243.307C752.306 243.335 750.093 246.185 746.867 250.233C741.76 256.644 732.235 268.4 725.748 275.213L725.685 275.287L725.612 275.351C725.039 275.957 724.444 276.562 723.793 277.205C718.985 281.93 712.614 283.393 708.115 283.789V283.791Z" fill="#390176"/>
<path d="M750.419 241.415L750.458 241.856C750.458 241.856 748.269 244.676 745.015 248.761C742.841 251.491 740.194 254.778 737.401 258.168C732.815 263.737 727.848 269.583 723.979 273.638C723.968 273.651 723.957 273.657 723.946 273.671C723.309 274.344 722.699 274.963 722.13 275.525C712.831 284.665 694.183 282.144 688.356 276.398C682.526 270.652 688.724 260.633 689.028 247.263C689.054 246.268 689.002 245.286 688.888 244.328C688.816 243.698 688.713 243.083 688.588 242.475C686.333 231.5 676.362 223.556 676.362 223.556C684.658 221.168 696.558 221.31 704.64 225.354C712.721 229.398 719.753 226.831 725.367 230.582C729.807 233.543 739.82 240.413 750.417 241.419L750.419 241.415Z" fill="#BC0F0F"/>
<g style="mix-blend-mode:multiply" opacity="0.6">
<path d="M750.419 241.415L750.458 241.856C750.458 241.856 748.269 244.676 745.015 248.761C742.841 251.491 740.194 254.778 737.401 258.168C739.219 243.411 723.231 235.389 720.204 234.954C714.948 234.203 708.205 235.439 701.486 232.998C694.769 230.564 691.429 233.943 692.941 242.088L688.588 242.471C686.333 231.496 676.362 223.552 676.362 223.552C684.658 221.164 696.558 221.306 704.64 225.35C712.721 229.394 719.753 226.826 725.367 230.577C729.807 233.539 739.82 240.408 750.417 241.415H750.419Z" fill="#B2A8C1"/>
</g>
<path d="M744.457 240.032C742.52 239.4 740.639 238.615 738.804 237.746C735.136 235.99 731.687 233.829 728.362 231.491L725.867 229.709C724.941 229.094 723.959 228.53 722.914 228.167C720.834 227.371 718.693 227.086 716.657 226.806C714.614 226.533 712.634 226.281 710.756 225.809C708.875 225.343 707.094 224.667 705.439 223.762C696.351 219.215 683.742 219.58 675.875 221.844C672.653 222.771 670.453 222.795 668.955 221.918C667.199 220.892 665.974 218.443 664.856 213.729C663.351 207.378 663.824 203.811 664.686 197.335C664.957 195.287 665.265 192.965 665.56 190.196C665.926 186.766 667.573 184.387 670.457 183.118C672.767 182.103 675.046 182.165 675.061 182.167L675.204 178.617C671.079 178.453 663.01 180.583 662.028 189.82C661.739 192.543 661.433 194.839 661.164 196.864C660.278 203.533 659.745 207.557 661.4 214.547C662.363 218.605 663.798 223.016 667.164 224.982C669.558 226.382 672.638 226.47 676.859 225.254C684.315 223.108 695.981 222.996 703.851 226.933C705.863 227.854 707.998 228.482 710.126 228.847C712.256 229.219 714.367 229.326 716.396 229.453C718.426 229.582 720.397 229.713 722.199 230.264C723.115 230.507 723.948 230.92 724.766 231.373L727.395 232.976C730.934 235.1 734.604 237.047 738.451 238.556C740.376 239.304 742.338 239.96 744.337 240.454C746.34 240.935 748.377 241.266 750.419 241.408C748.39 241.119 746.4 240.642 744.457 240.026V240.032Z" fill="#390176"/>
<path d="M854.188 266.584C853.387 268.128 852.031 269.471 849.943 272.682C841.588 285.523 825.978 291.5 792.46 294.448C778.539 295.673 762.046 296.124 743.442 295.791C718.865 295.352 694.872 290.643 675.879 282.535C658.867 275.271 647.601 265.871 645.724 257.378L644.266 247.541L638.596 257.969L638.677 258.387C638.704 258.524 648.67 307.326 648.67 307.326L649.219 308.002C649.72 308.617 662.264 323.165 732.005 332.516C746.453 334.453 761.792 334.731 777.592 333.34C814.555 330.09 842.32 318.664 842.596 318.551L844.166 317.897L856.692 274.902C857.263 271.203 857.068 268.55 856.605 266.682L854.186 266.58L854.188 266.584Z" fill="#390176"/>
<path d="M841.231 315.272C841.231 315.272 822.349 323.131 794.717 327.614C776.743 330.534 755.068 332.024 732.479 328.994C663.33 319.723 651.977 305.76 651.977 305.76L642.261 258.172C646.57 277.502 689.202 298.372 743.38 299.345C764.368 299.722 781.828 299.103 796.202 297.668C830.643 294.227 847.383 286.089 852.525 275.667C853.133 274.436 841.231 315.272 841.231 315.272Z" fill="#DFDAE5"/>
<g style="mix-blend-mode:multiply" opacity="0.6">
<path d="M841.232 315.272C841.232 315.272 822.35 323.131 794.718 327.614C806.729 314.284 796.391 297.963 796.203 297.668C830.644 294.228 847.384 286.089 852.526 275.667C853.134 274.436 841.232 315.272 841.232 315.272Z" fill="#B2A8C1"/>
</g>
<path d="M692.42 302.099C690.616 302.258 688.87 302.068 687.23 301.534C673.676 297.134 673.357 269.576 676.987 256.037C678.704 249.633 682.348 244.981 687.818 242.208C691.195 240.493 695.222 239.479 700.484 239.015C701.199 238.951 701.908 238.901 702.608 238.86C706.549 238.623 708.692 239.229 710.414 239.715C711.575 240.043 712.341 240.259 713.495 240.159C714.983 240.028 717.001 239.38 719.845 238.123C721.303 237.477 722.872 237.077 724.503 236.933C735.382 235.977 746.226 246.624 746.683 247.079L748.186 248.575L746.865 250.235C744.715 252.938 741.471 256.974 737.963 261.201L737.34 261.958C732.631 267.621 728.731 272.08 725.743 275.217L725.68 275.291L725.564 275.396C724.971 275.951 724.409 276.527 723.889 277.106C723.031 278.06 722.104 279.121 721.115 280.249C713.379 289.085 702.787 301.187 692.418 302.099H692.42Z" fill="#390176"/>
<path d="M745.015 248.761C742.36 252.097 738.994 256.27 735.521 260.439V260.445C731.49 265.294 727.325 270.13 723.979 273.638C723.968 273.651 723.957 273.658 723.946 273.671C723.303 274.275 722.697 274.891 722.131 275.526C714.01 284.561 699.588 303.066 687.963 299.287C681.662 297.244 678.624 288.659 677.719 279.176C676.951 271.178 677.699 262.534 679.276 256.655C680.999 250.227 684.588 246.504 688.891 244.326C693.182 242.148 698.182 241.507 702.753 241.229C711.899 240.68 709.946 245.096 720.805 240.295C731.665 235.488 745.017 248.764 745.017 248.764L745.015 248.761Z" fill="#FC2D81"/>
<g style="mix-blend-mode:multiply" opacity="0.6">
<path d="M745.015 248.761C742.36 252.097 738.994 256.27 735.521 260.439V260.445C731.49 265.294 727.325 270.13 723.979 273.638C723.968 273.651 723.957 273.658 723.946 273.671C723.303 274.275 722.697 274.891 722.131 275.526C714.01 284.561 699.588 303.066 687.963 299.287C681.662 297.244 678.624 288.659 677.719 279.176C680.359 287.288 688.261 292.472 695.1 290.479C701.943 288.48 721.571 265.767 727.855 257.215C734.14 248.667 730.37 244.19 720.803 240.295C731.662 235.488 745.015 248.764 745.015 248.764V248.761Z" fill="#B2A8C1"/>
</g>
<path d="M723.597 272.209C723.551 272.08 722.449 269.001 721.723 265.563C720.601 260.259 720.964 257.092 722.865 255.6C723.483 255.115 724.207 254.832 725.012 254.76C729.021 254.408 733.984 259.767 734.938 260.845L735.314 261.271L735.425 262.546L734.973 263.098C731.543 267.22 728.704 270.468 726.528 272.754L726.482 272.809L726.465 272.824L724.61 275.037L723.595 272.211L723.597 272.209Z" fill="#390176"/>
<path d="M733.953 261.84V261.845C732.225 263.927 730.46 266 728.793 267.903C727.464 269.416 726.195 270.821 725.053 272.017C725.045 272.028 725.036 272.032 725.027 272.043C725.027 272.043 720.373 259.093 723.662 256.514C724.253 256.051 724.973 255.922 725.742 256.033V256.038C729.251 256.532 733.953 261.842 733.953 261.842V261.84Z" fill="#F6F0F0"/>
<g style="mix-blend-mode:multiply" opacity="0.6">
<path d="M728.795 267.903C727.466 269.416 726.197 270.821 725.055 272.017C725.047 272.028 725.038 272.032 725.029 272.043C725.029 272.043 720.375 259.093 723.664 256.514C724.255 256.051 724.974 255.922 725.744 256.033V256.038C725.744 256.038 723.59 261.643 728.795 267.905V267.903Z" fill="#B2A8C1"/>
</g>
<path d="M825.221 126.682C824.585 122.22 823.38 117.863 821.724 113.712C823.102 117.964 824.003 122.356 824.338 126.778C824.512 128.989 824.523 131.205 824.453 133.414C824.342 135.621 824.125 137.819 823.795 139.995C823.093 144.345 821.96 148.612 820.398 152.709C819.622 154.758 818.743 156.766 817.767 158.715C817.284 159.692 816.766 160.65 816.232 161.593C816.197 161.656 816.158 161.72 816.123 161.783C814.6 159.008 813.03 156.267 811.425 153.546C810.952 152.735 810.373 151.803 809.793 150.97C809.189 150.13 808.553 149.316 807.87 148.549C806.504 147.013 804.983 145.631 803.343 144.433C801.714 143.225 799.966 142.195 798.146 141.355C796.329 140.52 794.444 139.82 792.488 139.463C795.883 141.473 798.949 143.814 801.659 146.432C802.33 147.092 802.989 147.757 803.603 148.461C804.229 149.152 804.819 149.87 805.377 150.609C805.95 151.335 806.458 152.105 806.961 152.875C807.466 153.662 807.879 154.413 808.374 155.298C810.294 158.726 812.378 162.054 814.675 165.243C815.816 166.842 817.021 168.397 818.279 169.915C819.556 171.42 820.842 172.916 822.299 174.285C821.015 171.197 819.554 168.257 818.036 165.355C818.448 164.613 818.813 163.894 819.18 163.144C819.681 162.107 820.158 161.064 820.595 160.007C821.483 157.897 822.258 155.747 822.922 153.566C824.261 149.207 825.136 144.721 825.56 140.207C825.753 137.948 825.825 135.682 825.788 133.42C825.711 131.161 825.547 128.906 825.223 126.675L825.221 126.682Z" fill="#390176"/>
<path d="M706.646 131.173C705.727 131.418 704.824 131.715 703.932 132.033C704.433 130.83 704.855 129.598 705.178 128.339C705.522 126.858 705.775 125.362 705.848 123.853C705.915 122.346 705.852 120.841 705.649 119.362C705.216 116.408 704.251 113.584 702.904 110.999C701.546 108.42 699.861 106.03 697.832 103.991C699.638 106.224 701.045 108.746 702.097 111.368C703.14 113.997 703.763 116.766 703.881 119.527C703.925 120.907 703.84 122.28 703.641 123.63C703.435 124.979 703.066 126.291 702.63 127.571C701.736 129.975 700.454 132.21 698.897 134.248C696.611 135.482 694.439 136.91 692.423 138.531C690.352 140.221 688.399 142.078 686.817 144.3C689.315 143.231 691.642 142.05 693.95 140.858L700.776 137.264C703.046 136.092 705.307 134.939 707.602 133.802C709.914 132.702 712.243 131.672 714.732 130.554C712.031 130.202 709.281 130.537 706.648 131.177L706.646 131.173Z" fill="#390176"/>
<g style="mix-blend-mode:multiply" opacity="0.6">
<path d="M785.602 208.769L797.631 185.246L805.227 196.471L796.452 217.646L785.602 208.769Z" fill="#B2A8C1"/>
</g>
<path d="M783.379 206.952L797.628 185.247L802.805 192.65L794.212 215.816L783.379 206.952Z" fill="#390176"/>
<path d="M794.628 186.543L799.702 193.129L792.97 211.278L786.658 206.121L794.628 186.543Z" fill="#2F4272"/>
<path d="M784.905 208.198C784.465 207.844 740.974 173.427 686.166 178.945C681.046 179.461 675.915 180.318 670.913 181.491L667.037 182.401L672.033 159.167L673.415 158.655C673.686 158.554 680.182 156.188 691.435 154.985C705.185 153.515 719.675 154.385 734.526 157.598C755.201 162.071 775.944 171.03 796.193 184.312L798.004 185.5L787.809 210.536L784.907 208.196L784.905 208.198Z" fill="#390176"/>
<path d="M794.63 186.543L786.658 206.122C786.658 206.122 782.218 202.551 774.347 197.846H774.342C755.176 186.407 715.679 168.32 670.385 178.971L674.236 161.074C674.236 161.074 722.59 143.229 786.892 181.683V181.688C789.449 183.216 792.027 184.831 794.63 186.541V186.543Z" fill="#6777A5"/>
<g style="mix-blend-mode:multiply" opacity="0.6">
<path d="M794.628 186.543L786.655 206.122C786.655 206.122 782.216 202.551 774.344 197.846C780.048 198.94 784.809 199.351 788.3 194.231C793.267 186.945 786.959 181.893 786.889 181.688C789.446 183.216 792.025 184.83 794.628 186.541V186.543Z" fill="#B2A8C1"/>
</g>
<path d="M680.133 163.331C675.312 164.462 672.229 173.272 678.705 173.256C685.205 173.241 697.486 170.503 720.462 173.818C743.74 177.178 767.881 190.777 777.085 194.587C786.341 198.417 789.753 190.034 783.834 185.233C780.744 182.729 755.441 167.056 725.081 163.086C695.231 159.182 685.461 162.082 680.133 163.333V163.331Z" fill="#390176"/>
<g style="mix-blend-mode:multiply" opacity="0.6">
<path d="M674.695 182.215C672.403 189.819 678.877 192.404 681.63 193.491C685.325 194.95 691.969 196.149 695.941 194.016C699.915 191.884 704.425 189.111 703.907 183.212C703.388 177.313 677.455 173.057 674.695 182.215Z" fill="#B2A8C1"/>
</g>
<path d="M673.362 180.55C671.07 188.155 677.544 190.74 680.298 191.827C683.992 193.286 690.636 194.485 694.608 192.352C698.582 190.22 703.092 187.447 702.574 181.548C702.055 175.649 676.122 171.393 673.362 180.55Z" fill="#390176"/>
<path d="M704.747 251.028C703.641 252.076 702.591 253.178 701.589 254.318C700.583 255.453 699.627 256.629 698.715 257.834C697.812 259.048 696.941 260.282 696.145 261.566C695.336 262.841 694.599 264.155 693.934 265.507C693.586 266.176 693.284 266.865 692.974 267.55L692.545 268.595C692.394 268.941 692.285 269.302 692.147 269.652C692.014 270.004 691.882 270.356 691.773 270.717C691.659 271.075 691.539 271.432 691.432 271.793C691.239 272.521 691.023 273.243 690.87 273.98C690.684 274.71 690.579 275.458 690.439 276.2C690.38 276.572 690.34 276.948 690.288 277.322L690.216 277.884L690.172 278.448L690.08 279.581L690.052 280.719L690.034 281.289L690.05 281.858L690.069 283.002L689.918 281.867L689.848 281.298L689.809 280.725L689.741 279.577V278.426C689.741 278.234 689.743 278.042 689.75 277.851L689.787 277.276C689.816 276.893 689.831 276.508 689.868 276.126C689.962 275.362 690.047 274.597 690.198 273.842C690.27 273.464 690.325 273.081 690.421 272.709L690.693 271.585C690.793 271.213 690.907 270.846 691.012 270.474C691.115 270.102 691.237 269.737 691.364 269.374C691.6 268.639 691.9 267.93 692.184 267.213C692.497 266.509 692.797 265.8 693.149 265.115C693.842 263.742 694.601 262.399 695.447 261.117C696.298 259.838 697.199 258.591 698.179 257.412C699.15 256.225 700.189 255.096 701.278 254.02C702.374 252.953 703.514 251.927 704.747 251.026V251.028Z" fill="#390176"/>
<path d="M689.028 247.259C689.028 247.259 677.344 257.409 682.322 272.901C682.322 272.901 679.704 262.967 689.028 247.259Z" fill="#FF71B2"/>
<g style="mix-blend-mode:multiply" opacity="0.6">
<path d="M749.304 228.794C746.234 228.527 751.524 254.906 756.725 253.211L757.384 239.677L749.304 228.794Z" fill="#B2A8C1"/>
</g>
<path d="M749.303 228.794C751.423 229.787 753.092 231.513 754.432 233.394C755.766 235.299 756.738 237.449 757.383 239.678C757.639 240.806 757.936 241.933 758.028 243.085C758.078 243.66 758.172 244.229 758.172 244.807C758.181 245.382 758.175 245.957 758.161 246.53C758.161 247.103 758.102 247.674 758.019 248.243C757.945 248.811 757.853 249.375 757.755 249.935C757.647 250.495 757.475 251.049 757.304 251.595C757.131 252.142 756.95 252.685 756.722 253.214C756.39 252.083 756.217 250.992 756.009 249.916C755.891 249.378 755.78 248.846 755.686 248.317C755.633 248.052 755.594 247.788 755.55 247.525C755.502 247.263 755.425 247.002 755.377 246.742C755.263 246.222 755.156 245.703 755.064 245.187C754.959 244.671 754.822 244.166 754.708 243.656C754.59 243.149 754.507 242.633 754.345 242.138L753.962 240.631C753.387 238.643 752.755 236.683 751.989 234.73C751.222 232.773 750.375 230.831 749.306 228.797L749.303 228.794Z" fill="#390176"/>
<path d="M767.758 296.891L764.279 296.172L756.608 333.282L760.086 334.001L767.758 296.891Z" fill="#390176"/>
<path d="M800.897 429.06L797.577 428.374L791.45 458.013L794.77 458.699L800.897 429.06Z" fill="#390176"/>
<path d="M781.265 322.162C781.055 322.157 760.21 321.742 748.511 322.77C747.625 322.849 746.805 322.934 746.07 323.024L745.422 323.102L741.407 319.71L743.732 312.718L781.517 307.539L784.247 310.393L782.339 322.182L781.265 322.16V322.162Z" fill="#390176"/>
<path d="M780.155 307.878L782.991 310.785L781.318 321.122C781.318 321.122 757.1 320.621 745.932 321.994L741.862 319.068L744.609 313.642L780.155 307.881V307.878Z" fill="#A57F4C"/>
<path d="M778.185 319.015C762.921 318.306 742.915 319.527 742.714 319.54L741.347 319.625L742.653 307.803L743.6 307.685C745.864 307.405 748.138 307.163 750.358 306.968C769.271 305.306 780.02 307.27 780.469 307.353L781.556 307.558L779.253 319.065L778.185 319.015Z" fill="#390176"/>
<path d="M743.741 308.713L742.661 318.501C742.661 318.501 762.76 317.254 778.276 317.976L780.199 308.37C780.199 308.37 766.828 305.852 743.741 308.713Z" fill="#FFD18D"/>
<path d="M648.349 458.263C645.976 458.471 643.498 458.298 640.983 457.744C631.482 455.658 624.697 451.583 620.242 445.291C616.045 439.361 613.943 431.411 613.814 420.983C613.608 404.231 618.293 381.936 626.456 349.083L626.528 348.794L626.653 348.525C627.011 347.748 635.565 329.442 646.693 324.912C648.06 324.357 649.438 324.016 650.79 323.895C652.083 323.782 653.373 323.869 654.626 324.158C661.319 325.7 666.767 332.64 671.281 345.375C676.931 361.311 679.7 380.448 679.076 399.262C678.444 418.334 674.38 434.622 667.631 445.125C662.533 453.06 655.866 457.602 648.353 458.263H648.349Z" fill="#390176"/>
<path d="M641.653 454.682C624.082 450.822 617.179 439.912 616.947 420.943C616.739 403.949 621.881 380.488 629.497 349.837C629.497 349.837 637.765 331.929 647.873 327.815C649.838 327.016 651.865 326.741 653.921 327.211C658.803 328.335 663.813 333.7 668.323 346.423C684.508 392.079 674.97 462 641.655 454.682H641.653Z" fill="#FFA300"/>
<path d="M641.654 454.682C686.344 412.976 653.675 327.64 653.675 327.64L653.92 327.213C658.801 328.338 663.812 333.703 668.322 346.425C684.507 392.082 674.969 462.003 641.654 454.685V454.682Z" fill="#FFF3E0"/>
<g style="mix-blend-mode:multiply" opacity="0.6">
<path d="M641.654 454.682C624.083 450.821 617.18 439.912 616.948 420.943C619.197 423.926 637.426 446.948 652.894 430.14C669.409 412.194 647.8 328.155 647.8 328.155L647.872 327.814C649.836 327.016 651.864 326.74 653.92 327.21C658.801 328.335 663.812 333.7 668.322 346.422C684.507 392.079 674.969 462 641.654 454.682Z" fill="#B2A8C1"/>
</g>
<path d="M668.158 334.004L668.044 333.838L668.037 333.834C659.632 321.551 645.641 320.831 638.03 321.5C630.917 322.126 622.98 324.366 614.435 328.156C597.753 335.559 586.64 345.786 583.148 356.952C581.118 363.435 581.785 369.72 585.077 375.131C587.41 378.965 589.466 381.947 591.553 384.51C599.324 394.063 608.151 398.263 618.542 397.351C619.021 397.309 619.513 397.254 620.005 397.189C623.507 396.725 626.641 396.443 629.673 396.17C639.799 395.26 660.275 392.933 663.687 366.072C663.917 364.261 668.311 349.201 668.984 347.514C671.753 340.581 668.16 334.004 668.16 334.004H668.158Z" fill="#390176"/>
<path d="M668.243 354.513C668.243 354.513 668.238 354.518 668.236 354.526C663.991 365.165 660.43 377.095 652.307 384.812C644.175 392.532 634.804 391.242 619.487 393.272C608.326 394.75 600.664 389.451 594.617 382.017C593.851 381.074 593.108 380.096 592.395 379.092L592.386 379.084C590.999 377.152 589.698 375.125 588.451 373.076C581.463 361.586 588.74 343.879 616.038 331.765C643.705 319.488 658.6 326.625 665.067 336.493L665.071 336.498C669.234 342.856 669.907 350.342 668.241 354.511L668.243 354.513Z" fill="#FFA300"/>
<path d="M668.243 354.513C663.994 365.156 660.435 377.093 652.306 384.812C644.174 392.532 634.802 391.242 619.485 393.272C608.324 394.75 600.663 389.451 594.615 382.016C594.619 382.016 594.619 382.021 594.624 382.021C602.29 385.778 614.897 390.349 640.941 380.914C653.5 376.365 663.101 347.341 665.065 336.498L665.07 336.502C669.232 342.86 669.905 350.347 668.239 354.515L668.243 354.513Z" fill="#FFF3E0"/>
<path d="M631.428 395.962C630.99 395.618 630.665 395.327 630.306 394.999C629.956 394.678 629.619 394.35 629.289 394.015C628.63 393.344 628.005 392.642 627.417 391.909C626.24 390.443 625.201 388.853 624.398 387.128C623.596 385.406 623.036 383.541 622.865 381.623C622.686 379.709 622.922 377.758 623.515 375.971C624.672 372.535 626.19 369.265 627.979 366.173C629.761 363.078 631.767 360.121 634.031 357.385C632.01 360.3 630.273 363.397 628.779 366.588C627.279 369.775 626.076 373.091 625.249 376.463C624.855 378.082 624.799 379.737 625.079 381.341C625.354 382.944 625.953 384.486 626.765 385.916C627.576 387.349 628.6 388.674 629.746 389.886C630.319 390.492 630.925 391.069 631.555 391.616C631.87 391.889 632.191 392.154 632.515 392.408C632.83 392.653 633.193 392.922 633.468 393.103L631.428 395.962Z" fill="#390176"/>
<path d="M612.154 397.215C611.717 396.871 611.391 396.58 611.032 396.252C610.682 395.931 610.346 395.603 610.015 395.268C609.357 394.597 608.732 393.894 608.143 393.162C606.967 391.696 605.928 390.106 605.125 388.381C604.322 386.659 603.762 384.794 603.592 382.876C603.412 380.962 603.649 379.011 604.241 377.224C605.398 373.788 606.916 370.518 608.705 367.426C610.488 364.331 612.493 361.374 614.757 358.638C612.736 361.553 611 364.65 609.506 367.841C608.005 371.028 606.802 374.344 605.976 377.716C605.582 379.335 605.525 380.99 605.805 382.594C606.081 384.197 606.68 385.739 607.491 387.169C608.303 388.602 609.326 389.927 610.473 391.139C611.046 391.745 611.651 392.322 612.281 392.869C612.596 393.142 612.918 393.407 613.241 393.66C613.556 393.905 613.919 394.174 614.195 394.356L612.154 397.215Z" fill="#390176"/>
<path d="M597.948 390.975C597.511 390.632 597.185 390.341 596.826 390.013C596.476 389.691 596.139 389.363 595.809 389.029C595.151 388.357 594.525 387.655 593.937 386.923C592.76 385.457 591.721 383.867 590.919 382.141C590.116 380.42 589.556 378.555 589.386 376.636C589.206 374.723 589.442 372.772 590.035 370.985C591.192 367.549 592.71 364.279 594.499 361.186C596.282 358.092 598.287 355.135 600.551 352.398C598.53 355.314 596.793 358.411 595.3 361.602C593.799 364.789 592.596 368.104 591.77 371.477C591.376 373.095 591.319 374.751 591.599 376.354C591.875 377.957 592.474 379.499 593.285 380.93C594.097 382.362 595.12 383.688 596.266 384.899C596.839 385.505 597.445 386.083 598.075 386.629C598.39 386.903 598.712 387.168 599.035 387.421C599.35 387.666 599.713 387.935 599.989 388.117L597.948 390.975Z" fill="#390176"/>
<g style="mix-blend-mode:multiply" opacity="0.6">
<path d="M668.235 354.526C663.99 365.164 660.429 377.095 652.306 384.811C644.174 392.532 634.802 391.242 619.486 393.271C608.325 394.75 600.663 389.45 594.616 382.016C593.85 381.073 593.107 380.096 592.394 379.092C592.713 379.359 603.078 387.91 612.318 387.729C621.699 387.547 638.56 385.835 647.12 379.47C655.543 373.204 667.852 355.09 668.233 354.528L668.235 354.526Z" fill="#B2A8C1"/>
</g>
<path d="M741.478 462.778L740.782 436.574L744.634 462.5L741.478 462.778Z" fill="#390176"/>
<path d="M738.439 424.804C738.452 419.091 738.463 413.381 738.477 407.668C739.935 407.775 740.666 407.821 742.127 407.9C743.546 407.976 744.627 408.407 745.375 409.208C746.123 410.008 746.51 411.113 746.534 412.53C746.586 415.745 746.615 417.353 746.667 420.568C746.694 422.178 746.309 423.35 745.508 424.08C744.706 424.811 743.538 425.139 742.011 425.047C740.581 424.962 739.868 424.914 738.439 424.804ZM740.95 410.144C740.965 414.319 740.981 418.497 740.996 422.672C741.466 422.702 741.703 422.716 742.173 422.744C742.89 422.786 743.398 422.639 743.695 422.309C743.992 421.978 744.137 421.443 744.128 420.703C744.093 417.394 744.073 415.741 744.038 412.432C744.032 411.756 743.888 411.229 743.608 410.844C743.328 410.461 742.825 410.251 742.094 410.212C741.637 410.185 741.407 410.172 740.95 410.146V410.144Z" fill="#390176"/>
<path d="M748.728 412.207C748.713 411.516 748.822 410.905 749.054 410.378C749.286 409.851 749.598 409.414 749.994 409.066C750.373 408.734 750.808 408.482 751.296 408.307C751.783 408.134 752.278 408.047 752.779 408.047C753.279 408.047 753.778 408.134 754.279 408.307C754.778 408.482 755.252 408.731 755.655 409.068C756.057 409.403 756.39 409.856 756.656 410.385C756.921 410.912 757.07 411.524 757.098 412.218C757.249 415.857 757.323 417.677 757.472 421.316C757.503 422.042 757.402 422.666 757.173 423.186C756.943 423.707 756.632 424.138 756.243 424.481C755.836 424.84 755.381 425.109 754.874 425.288C754.366 425.467 753.852 425.555 753.332 425.553C752.811 425.551 752.291 425.457 751.772 425.275C751.254 425.091 750.79 424.803 750.379 424.457C749.968 424.109 749.607 423.676 749.345 423.156C749.082 422.635 748.945 422.012 748.927 421.288C748.848 417.655 748.809 415.84 748.73 412.207H748.728ZM751.473 421.334C751.49 421.931 751.672 422.37 752.022 422.657C752.372 422.941 752.783 423.086 753.251 423.088C753.719 423.088 754.119 422.948 754.454 422.666C754.786 422.384 754.942 421.942 754.922 421.345C754.793 417.707 754.73 415.888 754.6 412.251C754.579 411.653 754.397 411.216 754.054 410.936C753.71 410.656 753.312 410.516 752.857 410.514C752.402 410.514 752.013 410.654 751.687 410.932C751.361 411.212 751.206 411.649 751.224 412.244C751.324 415.879 751.374 417.697 751.475 421.332L751.473 421.334Z" fill="#390176"/>
<path d="M759.15 412.167C759.117 411.474 759.211 410.857 759.43 410.317C759.648 409.776 759.952 409.322 760.34 408.952C760.711 408.598 761.138 408.322 761.623 408.123C762.107 407.924 762.599 407.81 763.1 407.786C763.601 407.76 764.102 407.821 764.605 407.97C765.108 408.119 765.587 408.346 765.998 408.661C766.407 408.976 766.752 409.413 767.03 409.93C767.308 410.446 767.47 411.052 767.516 411.745C767.538 412.095 767.551 412.268 767.573 412.618C766.573 412.688 766.074 412.72 765.075 412.779C765.053 412.429 765.044 412.257 765.022 411.907C764.987 411.31 764.793 410.879 764.445 410.616C764.095 410.352 763.693 410.234 763.238 410.255C762.783 410.28 762.398 410.439 762.078 410.737C761.759 411.034 761.617 411.48 761.648 412.077C761.836 415.719 761.93 417.541 762.12 421.182C762.151 421.78 762.345 422.213 762.702 422.482C763.058 422.748 763.472 422.873 763.94 422.851C764.408 422.829 764.806 422.668 765.132 422.366C765.458 422.064 765.602 421.616 765.567 421.016C765.49 419.717 765.451 419.067 765.374 417.771C764.572 417.816 764.169 417.838 763.367 417.875C763.318 417.003 763.294 416.568 763.246 415.695C765.053 415.607 765.954 415.555 767.758 415.428C767.901 417.6 767.971 418.685 768.113 420.857C768.161 421.583 768.076 422.215 767.859 422.748C767.642 423.282 767.341 423.733 766.962 424.096C766.564 424.476 766.116 424.772 765.613 424.977C765.11 425.183 764.598 425.299 764.077 425.323C763.557 425.347 763.034 425.281 762.511 425.124C761.989 424.966 761.516 424.702 761.099 424.376C760.679 424.048 760.307 423.634 760.031 423.125C759.756 422.615 759.603 421.998 759.57 421.272C759.401 417.631 759.318 415.811 759.152 412.169L759.15 412.167Z" fill="#390176"/>
<path d="M770.644 424.762C770.239 419.01 769.832 413.26 769.428 407.508C772.369 407.263 773.839 407.114 776.776 406.762C776.857 407.692 776.899 408.158 776.98 409.089C775.018 409.323 774.038 409.428 772.072 409.614C772.227 411.64 772.304 412.654 772.459 414.68C774.191 414.518 775.057 414.428 776.785 414.229C776.866 415.161 776.905 415.625 776.986 416.556C775.248 416.755 774.377 416.845 772.636 417.007C772.791 419.032 772.868 420.047 773.023 422.072C775.044 421.886 776.055 421.781 778.073 421.545C778.161 422.534 778.205 423.028 778.29 424.017C775.237 424.371 773.706 424.52 770.644 424.762Z" fill="#390176"/>
<path d="M779.945 423.818C779.418 418.068 778.893 412.316 778.366 406.566C779.311 406.445 779.783 406.382 780.728 406.249C782.347 409.726 783.167 411.458 784.838 414.912C784.858 414.91 784.866 414.908 784.886 414.905C785.783 411.056 786.216 409.127 787.056 405.262C788.007 405.098 788.482 405.013 789.431 404.838C790.107 410.581 790.783 416.325 791.458 422.066C790.441 422.25 789.932 422.339 788.91 422.51C788.442 418.317 788.206 416.22 787.738 412.027C787.718 412.031 787.71 412.031 787.69 412.036C787.036 415.166 786.699 416.729 786.01 419.85C785.503 419.929 785.249 419.969 784.742 420.045C783.44 417.23 782.799 415.817 781.531 412.989L781.483 412.996C781.892 417.193 782.095 419.291 782.504 423.486C781.481 423.625 780.969 423.691 779.945 423.818Z" fill="#390176"/>
<path d="M792.088 408.493C792.003 407.799 792.049 407.163 792.224 406.583C792.399 406.004 792.664 405.496 793.018 405.061C793.357 404.645 793.759 404.298 794.223 404.02C794.687 403.742 795.164 403.547 795.658 403.44C796.15 403.333 796.651 403.313 797.16 403.383C797.67 403.451 798.162 403.604 798.591 403.854C799.019 404.103 799.396 404.49 799.708 404.965C800.023 405.439 800.229 406.023 800.327 406.714C800.844 410.345 801.102 412.158 801.62 415.789C801.723 416.513 801.688 417.162 801.515 417.733C801.342 418.306 801.08 418.807 800.732 419.234C800.369 419.68 799.947 420.049 799.468 420.338C798.987 420.627 798.49 420.826 797.976 420.935C797.462 421.045 796.942 421.062 796.412 420.99C795.883 420.916 795.395 420.725 794.956 420.465C794.516 420.205 794.116 419.846 793.803 419.378C793.493 418.91 793.291 418.313 793.202 417.587C792.755 413.95 792.532 412.13 792.084 408.493H792.088ZM795.721 417.086C795.798 417.683 796.023 418.088 796.397 418.3C796.771 418.512 797.189 418.569 797.65 418.47C798.112 418.372 798.492 418.144 798.792 417.788C799.092 417.434 799.199 416.957 799.118 416.36C798.621 412.727 798.374 410.912 797.878 407.279C797.797 406.684 797.572 406.281 797.206 406.071C796.841 405.864 796.434 405.807 795.986 405.903C795.538 405.999 795.168 406.224 794.877 406.574C794.584 406.927 794.477 407.399 794.553 407.994C795.021 411.629 795.255 413.446 795.723 417.084L795.721 417.086Z" fill="#390176"/>
<path d="M810.517 404.954C809.544 405.236 809.058 405.374 808.083 405.645C808.048 405.424 808.03 405.313 807.993 405.092C807.904 404.53 807.694 404.081 807.368 403.744C807.042 403.408 806.569 403.325 805.951 403.491C805.618 403.58 805.358 403.716 805.172 403.9C804.986 404.083 804.837 404.289 804.745 404.514C804.647 404.751 804.599 405.015 804.592 405.293C804.586 405.571 804.603 405.853 804.647 406.144C804.699 406.481 804.754 406.758 804.811 406.977C804.87 407.196 804.96 407.382 805.082 407.533C805.205 407.683 805.369 407.802 805.572 407.88C805.776 407.961 806.049 408.023 806.39 408.066C807.186 408.165 807.587 408.213 808.385 408.305C808.962 408.364 809.443 408.484 809.826 408.67C810.209 408.856 810.544 409.105 810.78 409.418C811.023 409.735 811.213 410.155 811.359 410.625C811.506 411.095 811.631 411.642 811.733 412.268C811.854 412.99 811.893 413.678 811.849 414.339C811.806 414.997 811.657 415.592 811.401 416.117C811.134 416.662 810.74 417.143 810.224 417.552C809.708 417.961 809.048 418.276 808.245 418.488C807.637 418.65 807.055 418.691 806.497 418.617C805.94 418.543 805.443 418.368 805.01 418.092C804.577 417.817 804.214 417.46 803.921 417.025C803.628 416.59 803.44 416.08 803.354 415.503C803.3 415.135 803.273 414.954 803.221 414.586C804.218 414.343 804.717 414.219 805.712 413.963C805.758 414.271 805.782 414.426 805.83 414.735C805.898 415.185 806.095 415.555 806.419 415.848C806.744 416.139 807.226 416.202 807.862 416.034C808.286 415.92 808.608 415.772 808.824 415.588C809.041 415.404 809.196 415.181 809.292 414.921C809.387 414.66 809.422 414.37 809.395 414.05C809.369 413.731 809.325 413.379 809.264 412.994C809.192 412.546 809.115 412.18 809.039 411.9C808.96 411.62 808.859 411.395 808.733 411.255C808.601 411.111 808.42 411.006 808.216 410.945C808.013 410.883 807.748 410.829 807.42 410.783C806.668 410.684 806.292 410.632 805.542 410.527C804.411 410.369 803.61 409.973 803.142 409.348C802.674 408.722 802.361 407.869 802.204 406.793C802.11 406.15 802.108 405.518 802.197 404.895C802.287 404.274 802.484 403.707 802.762 403.202C803.035 402.708 803.407 402.259 803.881 401.877C804.356 401.494 804.949 401.207 805.66 401.017C806.259 400.855 806.823 400.818 807.357 400.903C807.888 400.991 808.365 401.166 808.789 401.43C809.64 401.993 810.152 402.769 810.316 403.762C810.397 404.243 810.436 404.484 810.515 404.965L810.517 404.954Z" fill="#390176"/>
<path d="M814.48 416.579C813.504 410.877 812.531 405.175 811.555 399.475C812.516 399.186 812.995 399.038 813.95 398.736C814.956 404.431 815.965 410.126 816.971 415.82C815.976 416.13 815.477 416.281 814.48 416.579Z" fill="#390176"/>
<path d="M824.928 400.195C823.972 400.549 823.495 400.724 822.537 401.065C822.493 400.846 822.471 400.735 822.43 400.516C822.321 399.958 822.097 399.523 821.761 399.208C821.424 398.893 820.954 398.843 820.346 399.055C820.017 399.169 819.764 399.324 819.587 399.521C819.407 399.718 819.269 399.937 819.184 400.168C819.095 400.413 819.055 400.682 819.06 400.962C819.062 401.242 819.09 401.524 819.145 401.813C819.208 402.148 819.272 402.423 819.337 402.64C819.403 402.856 819.499 403.036 819.626 403.178C819.753 403.322 819.919 403.427 820.125 403.493C820.33 403.558 820.604 403.602 820.943 403.62C821.737 403.661 822.135 403.681 822.931 403.714C823.506 403.731 823.987 403.817 824.374 403.976C824.761 404.134 825.1 404.363 825.348 404.659C825.599 404.96 825.802 405.367 825.964 405.829C826.126 406.29 826.268 406.833 826.393 407.452C826.537 408.167 826.601 408.858 826.579 409.523C826.559 410.188 826.432 410.796 826.196 411.34C825.951 411.907 825.577 412.419 825.079 412.867C824.582 413.315 823.937 413.678 823.145 413.952C822.548 414.157 821.971 414.243 821.415 414.21C820.86 414.177 820.361 414.035 819.921 413.79C819.482 413.545 819.11 413.213 818.801 412.797C818.495 412.379 818.29 411.883 818.185 411.308C818.119 410.942 818.086 410.761 818.018 410.398C819 410.081 819.49 409.919 820.47 409.591L820.615 410.356C820.698 410.802 820.905 411.161 821.238 411.432C821.57 411.701 822.052 411.73 822.677 411.513C823.095 411.369 823.408 411.196 823.618 410.995C823.827 410.794 823.974 410.56 824.057 410.291C824.142 410.022 824.164 409.728 824.129 409.409C824.092 409.09 824.037 408.74 823.961 408.357C823.873 407.911 823.786 407.55 823.698 407.274C823.611 406.999 823.502 406.78 823.373 406.649C823.239 406.513 823.053 406.421 822.848 406.373C822.644 406.325 822.38 406.292 822.054 406.268C821.304 406.222 820.93 406.198 820.179 406.148C819.051 406.072 818.244 405.73 817.756 405.138C817.27 404.543 816.929 403.709 816.735 402.64C816.619 402.001 816.595 401.365 816.662 400.733C816.73 400.101 816.905 399.519 817.165 398.992C817.419 398.476 817.771 397.997 818.231 397.579C818.69 397.161 819.267 396.831 819.965 396.586C820.553 396.38 821.113 396.302 821.645 396.35C822.176 396.398 822.655 396.54 823.086 396.774C823.95 397.277 824.484 398.018 824.683 399.005C824.779 399.482 824.827 399.72 824.923 400.197L824.928 400.195Z" fill="#390176"/>
<path d="M800.116 349.048C799.061 346.975 796.677 345.227 792.697 343.602C789.506 342.314 786.317 341.905 783.957 342.478C783.484 342.594 783.065 342.738 782.653 342.929C781.623 343.399 780.836 344.383 780.466 345.66C780.011 347.178 780.208 349.02 780.904 349.993C781.144 350.286 781.444 350.651 781.776 350.964C781.52 351.205 781.28 351.428 781.055 351.631C780.716 351.933 780.407 352.193 780.129 352.419C777.175 352.091 774.088 352.268 770.989 353.024C756.965 356.441 747.873 370.307 750.677 383.999C753.481 397.69 767.116 406.017 781.14 402.598C795.164 399.182 804.256 385.315 801.452 371.624C800.424 366.607 797.935 362.313 794.508 359.052C794.532 358.096 794.63 357.071 794.79 356.016C795.424 356.038 796.043 355.975 796.642 355.828C798.228 355.441 799.473 354.479 800.098 353.14C800.724 351.802 800.759 350.21 800.116 349.048ZM751.622 379.552C751.622 379.576 751.622 379.6 751.622 379.625C751.622 379.576 751.622 379.53 751.62 379.482C751.62 379.506 751.62 379.53 751.62 379.552H751.622Z" fill="#390176"/>
<path d="M782.407 400.324C775.693 402.402 769.149 401.879 768.873 401.855L768.215 401.801L766.885 396.945C765.741 396.11 761.583 392.814 760.356 388.33C759.939 386.806 759.661 385.546 759.477 384.369C759.21 382.65 759.156 381.11 759.311 379.665C759.501 377.873 760.015 376.222 760.884 374.615C763.073 370.555 763.716 367.517 763.029 364.455C762.286 361.133 762.688 359.206 764.223 358.731C764.895 358.524 765.647 358.672 766.524 359.184C768.28 360.208 769.768 361.688 770.463 362.436C772.217 361.933 777.281 360.521 779.767 360.234C780.483 358.898 782.46 355.324 784.214 353.222C785.476 351.711 786.565 350.853 787.641 350.521C789.047 350.086 790.368 350.534 791.567 351.849L791.716 352.013V352.019C791.797 352.109 791.873 352.205 791.952 352.306C793.579 354.381 794.441 358.045 795.132 360.991C795.401 362.135 795.633 363.123 795.854 363.753C796.458 365.481 796.856 366.813 797.024 367.395C797.971 368.123 800.709 370.678 800.679 375.787C800.679 376.016 800.672 376.257 800.661 376.504C800.519 380.113 799.185 389.295 789.924 396.534C787.864 398.144 785.336 399.421 782.405 400.327L782.407 400.324Z" fill="#390176"/>
<path d="M799.685 375.825C799.685 376.048 799.678 376.276 799.667 376.508C799.446 382.07 796.89 389.862 789.331 395.774C781.457 401.931 769.003 400.877 769.003 400.877L767.759 396.328C767.759 396.328 762.641 392.865 761.316 388.032C760.95 386.693 760.651 385.414 760.46 384.174C760.222 382.634 760.146 381.16 760.301 379.718C760.469 378.128 760.926 376.58 761.757 375.04C763.947 370.981 764.782 367.678 764.001 364.196C763.223 360.716 763.715 358.704 765.99 360.03C768.264 361.355 770.104 363.547 770.104 363.547C770.104 363.547 777.962 361.233 780.377 361.163C780.377 361.163 782.877 356.329 784.97 353.823C786.953 351.45 788.81 350.323 790.814 352.521C790.927 352.646 791.041 352.779 791.153 352.924C793.287 355.647 794.11 361.819 794.91 364.109C795.711 366.399 796.153 368.008 796.153 368.008C796.153 368.008 799.718 370.235 799.683 375.827L799.685 375.825Z" fill="#FFA300"/>
<path d="M799.669 376.507C799.448 382.069 796.891 389.861 789.333 395.773C781.459 401.93 769.005 400.876 769.005 400.876L767.761 396.327C767.761 396.327 762.643 392.864 761.317 388.031C760.497 385.032 760.02 382.318 760.303 379.72C761.72 377.76 762.571 378.003 763.566 379.575C764.563 381.146 764.439 381.655 767.288 380.643C770.138 379.63 772.052 379.636 777.382 380.695C782.712 381.754 783.749 378.556 787.36 375.24C790.971 371.925 793.556 372.478 796.093 373.152C798.63 373.825 799.669 376.507 799.669 376.507Z" fill="#FFF3E0"/>
<path d="M787.02 353.694C787.02 353.694 790.394 358.401 790.499 362.596C790.499 362.596 786.451 361.141 783.28 361.616C783.28 361.616 785.797 360.741 787.087 359.339C788.828 357.447 787.02 353.694 787.02 353.694Z" fill="#390176"/>
<g style="mix-blend-mode:multiply" opacity="0.6">
<path d="M799.684 375.826C799.684 376.049 799.677 376.276 799.666 376.508C799.445 382.07 796.888 389.863 789.33 395.775C781.456 401.931 769.002 400.877 769.002 400.877L767.758 396.328C767.758 396.328 762.64 392.866 761.315 388.032C760.949 386.694 760.65 385.414 760.459 384.174C761.172 382.873 762.662 384.062 763.611 385.628C764.562 387.194 766.782 390.228 767.242 390.337C767.701 390.444 768.053 389.158 767.377 388.59C766.699 388.019 765.588 385.865 765.588 385.865C765.588 385.865 772.67 383.166 772.734 383.824C772.797 384.48 771.292 387.654 772.535 388.703C773.777 389.751 775.82 388.959 778.053 387.592C780.286 386.225 780.745 384.729 782.731 383.844C784.717 382.958 785.489 381.742 788.304 379.959C791.119 378.181 795.819 378.207 795.819 378.207C796.952 373.459 794.303 368.866 791.88 365.725C789.457 362.585 783.282 361.62 783.282 361.62C786.005 360.778 788.505 361.019 790.377 361.327C792.25 361.635 792.659 361.594 792.554 359.936C792.446 358.278 791.967 355.89 790.817 352.526C790.931 352.648 791.044 352.782 791.156 352.926C793.291 355.649 794.113 361.821 794.913 364.111C795.714 366.401 796.156 368.011 796.156 368.011C796.156 368.011 799.721 370.237 799.686 375.83L799.684 375.826Z" fill="#DBB89E"/>
</g>
<path d="M781.276 376.191C780.784 376.344 780.329 376.467 779.924 376.559C779.209 376.721 777.037 377.21 776.641 375.765C776.35 374.7 777.022 372.921 778.485 371.968C778.809 371.758 779.161 371.594 779.53 371.478C779.622 371.449 779.718 371.423 779.817 371.399C782.284 370.82 783.325 371.797 783.959 372.716C784.036 372.825 784.095 372.948 784.132 373.075C784.202 373.302 784.211 373.551 784.152 373.809V373.823C784.145 373.838 784.134 373.882 784.134 373.882C783.87 374.848 782.783 375.723 781.278 376.189L781.276 376.191Z" fill="#390176"/>
<path d="M783.812 373.181C783.868 373.363 783.873 373.564 783.825 373.772C783.825 373.772 783.825 373.776 783.825 373.781C783.643 374.537 782.771 375.393 781.194 375.88C780.723 376.025 780.279 376.147 779.868 376.241C778.304 376.596 777.202 376.53 776.966 375.666C776.727 374.795 777.272 373.144 778.663 372.239C779.015 372.009 779.422 371.828 779.883 371.718C782.169 371.18 783.11 372.073 783.685 372.91C783.744 372.995 783.788 373.085 783.816 373.181H783.812Z" fill="#FFF3E0"/>
<path d="M783.812 373.181C783.839 373.38 783.843 373.577 783.826 373.772C783.826 373.772 783.826 373.776 783.826 373.781C783.644 374.537 782.771 375.393 781.194 375.88C780.724 376.025 780.28 376.147 779.869 376.241C779.119 375.946 778.524 375.325 778.296 374.494C778.082 373.708 778.237 372.897 778.662 372.239C779.014 372.009 779.421 371.828 779.882 371.718C782.168 371.18 783.108 372.073 783.683 372.91C783.742 372.995 783.786 373.085 783.815 373.181H783.812Z" fill="#390176"/>
<path d="M781.684 373.056C781.944 372.859 782.003 372.499 781.815 372.252C781.628 372.004 781.265 371.963 781.005 372.16C780.745 372.357 780.686 372.717 780.874 372.965C781.061 373.212 781.424 373.253 781.684 373.056Z" fill="#FFF3E0"/>
<path d="M765.943 384.399L765.143 383.852C766.405 382.112 768.666 375.716 768.688 375.653L769.627 375.935C769.533 376.204 767.293 382.536 765.943 384.397V384.399Z" fill="#390176"/>
<path d="M767.581 378.333C767.508 378.355 767.434 378.375 767.358 378.39C766.629 378.536 765.87 378.32 765.426 377.834C765.061 377.436 764.954 376.911 765.124 376.358C765.258 375.929 765.413 375.575 765.603 375.28C765.945 374.746 766.404 374.396 767.003 374.21C767.191 374.153 767.395 374.107 767.631 374.075C768.296 373.981 769.184 374.313 769.518 375.03C769.774 375.582 769.794 376.518 768.418 377.841C768.182 378.068 767.9 378.235 767.578 378.333H767.581Z" fill="#390176"/>
<path d="M768.195 377.612C767.941 377.857 767.631 378.005 767.309 378.069C766.255 378.281 765.091 377.586 765.443 376.44C765.568 376.033 765.715 375.707 765.883 375.447C766.331 374.744 766.933 374.502 767.666 374.399C768.669 374.257 770.533 375.363 768.197 377.612H768.195Z" fill="#FFF3E0"/>
<path d="M768.196 377.61C767.942 377.855 767.631 378.004 767.31 378.067C766.619 377.894 766.048 377.378 765.849 376.65C765.737 376.243 765.757 375.825 765.884 375.443C766.332 374.741 766.934 374.498 767.666 374.395C768.67 374.253 770.534 375.36 768.198 377.608L768.196 377.61Z" fill="#390176"/>
<path d="M768.277 375.529C768.426 375.417 768.459 375.211 768.352 375.07C768.244 374.928 768.037 374.905 767.889 375.017C767.741 375.129 767.707 375.335 767.815 375.477C767.922 375.618 768.129 375.642 768.277 375.529Z" fill="#FFF3E0"/>
<path d="M765.59 385.866C764.201 384.383 765.347 382.762 766.826 382.287C768.304 381.813 769.923 380.993 771.266 381.329C772.609 381.666 773.335 383.298 772.265 384.982C771.196 386.668 770.491 387.902 769.124 387.985C767.757 388.07 766.08 386.388 765.59 385.866Z" fill="#390176"/>
<path d="M766.741 385.677C766.654 385.703 766.558 385.697 766.477 385.649C766.437 385.625 765.497 385.058 765.683 384.161C765.775 383.722 766.339 382.902 767.874 382.622C768.056 382.589 768.222 382.707 768.248 382.884C768.272 383.061 768.145 383.232 767.964 383.265C766.748 383.486 766.374 384.059 766.332 384.262C766.24 384.708 766.833 385.078 766.838 385.082C766.991 385.174 767.034 385.373 766.934 385.531C766.888 385.603 766.818 385.653 766.741 385.677Z" fill="#FFF3E0"/>
<path d="M769.988 390.495C769.723 390.578 769.45 390.434 769.38 390.176L768.636 387.459C768.566 387.201 768.724 386.925 768.988 386.842C769.253 386.759 769.526 386.904 769.596 387.162L770.34 389.878C770.41 390.136 770.252 390.412 769.988 390.495Z" fill="#390176"/>
<path d="M776.637 390.438C775.246 390.869 773.809 390.792 771.307 390.469C769.883 390.285 769.338 390.777 768.761 391.295C768.354 391.663 767.893 392.078 767.177 392.122C765.548 392.223 764.43 388.61 764.126 387.499C764.056 387.24 764.214 386.965 764.478 386.882C764.743 386.799 765.016 386.943 765.086 387.201C765.662 389.294 766.65 391.173 767.16 391.142C767.494 391.123 767.726 390.928 768.107 390.585C768.73 390.02 769.585 389.25 771.477 389.493C774.176 389.841 775.53 389.889 776.923 389.301C778.089 388.806 780.276 386.416 781.02 385.537C781.201 385.325 781.514 385.287 781.722 385.456C781.93 385.624 781.951 385.933 781.772 386.145C781.481 386.488 778.887 389.519 777.28 390.2C777.063 390.292 776.849 390.37 776.635 390.436L776.637 390.438Z" fill="#390176"/>
<path d="M776.321 394.584C770.923 396.252 768.723 393.186 768.622 393.037C768.471 392.819 768.535 392.51 768.764 392.353C768.994 392.193 769.3 392.241 769.451 392.458C769.552 392.6 771.934 395.83 778.18 392.801C778.432 392.681 778.725 392.777 778.836 393.02C778.948 393.263 778.836 393.558 778.585 393.678C777.776 394.07 777.021 394.367 776.321 394.584Z" fill="#390176"/>
<path d="M777.598 368.788C776.691 369.915 777.303 371.308 779.289 370.411C781.273 369.514 781.857 367.837 780.562 367.548C779.267 367.259 778.508 367.662 777.601 368.788H777.598Z" fill="#FFF3E0"/>
<path d="M769.23 371.469C769.984 372.298 769.547 373.556 767.948 373.066C766.349 372.576 765.833 371.24 766.848 370.822C767.863 370.404 768.475 370.643 769.232 371.469H769.23Z" fill="#FFF3E0"/>
<path d="M770.598 363.34C770.399 363.406 770.173 363.491 769.961 363.578C769.747 363.666 769.533 363.76 769.323 363.861C768.9 364.06 768.487 364.283 768.085 364.526C767.684 364.773 767.302 365.048 766.939 365.352C766.58 365.661 766.25 366.004 765.957 366.387C766.18 365.965 766.451 365.562 766.764 365.186C767.081 364.816 767.428 364.464 767.798 364.141C768.17 363.819 768.561 363.515 768.966 363.233C769.169 363.091 769.375 362.955 769.587 362.824C769.802 362.691 770.007 362.568 770.246 362.443L770.595 363.344L770.598 363.34Z" fill="#390176"/>
<path d="M767.641 396.279C767.791 396.412 767.973 396.554 768.15 396.686C768.327 396.819 768.511 396.946 768.699 397.071C769.073 397.318 769.462 397.543 769.867 397.746C770.272 397.948 770.694 398.116 771.131 398.256C771.571 398.387 772.026 398.475 772.496 398.51C772.024 398.556 771.542 398.551 771.068 398.497C770.595 398.433 770.125 398.337 769.666 398.206C769.209 398.07 768.758 397.91 768.321 397.722C768.102 397.628 767.883 397.53 767.669 397.425C767.452 397.318 767.247 397.213 767.024 397.079L767.641 396.281V396.279Z" fill="#390176"/>
<path d="M796.193 368.013C795.902 367.578 795.587 367.141 795.268 366.712C794.949 366.283 794.618 365.863 794.275 365.454C793.934 365.043 793.575 364.645 793.195 364.269C792.812 363.895 792.416 363.53 791.946 363.256C792.457 363.455 792.917 363.762 793.363 364.079C793.807 364.398 794.231 364.744 794.64 365.104C795.051 365.463 795.452 365.835 795.841 366.216C796.232 366.598 796.613 366.983 796.989 367.39L796.191 368.013H796.193Z" fill="#390176"/>
</g>
</g>
</g>
<defs>
<radialGradient id="paint0_radial_1017_29764" cx="0" cy="0" r="1" gradientUnits="userSpaceOnUse" gradientTransform="translate(5.74253e-05 439) rotate(-40.1965) scale(786.987 1013.42)">
<stop stop-color="#F530E4"/>
<stop offset="0.298236" stop-color="#7E1BFD"/>
<stop offset="0.631636" stop-color="#381573" stop-opacity="0.446602"/>
<stop offset="1" stop-color="#232047" stop-opacity="0"/>
</radialGradient>
<radialGradient id="paint1_radial_1017_29764" cx="0" cy="0" r="1" gradientUnits="userSpaceOnUse" gradientTransform="translate(939.534 539.66) rotate(-129.503) scale(289.075 550.36)">
<stop stop-color="#CA2EBD"/>
<stop offset="1" stop-color="#161136" stop-opacity="0"/>
</radialGradient>
<radialGradient id="paint2_radial_1017_29764" cx="0" cy="0" r="1" gradientUnits="userSpaceOnUse" gradientTransform="translate(193.773 297.988) rotate(-49.7205) scale(295.761 291.135)">
<stop stop-color="#F7752F"/>
<stop offset="1" stop-color="#321469" stop-opacity="0"/>
</radialGradient>
<linearGradient id="paint3_linear_1017_29764" x1="403.219" y1="280.825" x2="886.453" y2="280.825" gradientUnits="userSpaceOnUse">
<stop stop-color="#D9D9D9" stop-opacity="0"/>
<stop offset="0.639052" stop-color="#737373"/>
</linearGradient>
<linearGradient id="paint4_linear_1017_29764" x1="903.754" y1="215.133" x2="903.754" y2="362.66" gradientUnits="userSpaceOnUse">
<stop stop-color="#1B0939"/>
<stop offset="1" stop-color="#4C199F"/>
</linearGradient>
<linearGradient id="paint5_linear_1017_29764" x1="943.059" y1="357.994" x2="865.527" y2="330.714" gradientUnits="userSpaceOnUse">
<stop stop-color="#FAA185"/>
<stop offset="0.300609" stop-color="#FA825D" stop-opacity="0.55"/>
<stop offset="1" stop-color="#CA2EBD" stop-opacity="0"/>
</linearGradient>
<linearGradient id="paint6_linear_1017_29764" x1="946.29" y1="307.023" x2="896.037" y2="225.543" gradientUnits="userSpaceOnUse">
<stop stop-color="#FAA185"/>
<stop offset="0.300609" stop-color="#FA825D" stop-opacity="0.55"/>
<stop offset="1" stop-color="#CA2EBD" stop-opacity="0"/>
</linearGradient>
<linearGradient id="paint7_linear_1017_29764" x1="832.484" y1="172.06" x2="940.594" y2="208.114" gradientUnits="userSpaceOnUse">
<stop stop-color="#F3E0FA"/>
<stop offset="0.329161" stop-color="#FF8642"/>
<stop offset="0.606741" stop-color="#CA36FE"/>
<stop offset="1" stop-color="#492CE1"/>
</linearGradient>
<linearGradient id="paint8_linear_1017_29764" x1="503.063" y1="321.606" x2="490.722" y2="422.683" gradientUnits="userSpaceOnUse">
<stop stop-color="#291A87"/>
<stop offset="0.508576" stop-color="#FF8642"/>
<stop offset="1" stop-color="#D44ABE"/>
</linearGradient>
<linearGradient id="paint9_linear_1017_29764" x1="584.441" y1="265.513" x2="498.588" y2="301.456" gradientUnits="userSpaceOnUse">
<stop stop-color="#F5DFC1"/>
<stop offset="0.508576" stop-color="#FF8642"/>
<stop offset="1" stop-color="#D44ABE"/>
</linearGradient>
<linearGradient id="paint10_linear_1017_29764" x1="503.759" y1="307.961" x2="503.759" y2="376.15" gradientUnits="userSpaceOnUse">
<stop stop-color="#291A87"/>
<stop offset="0.508576" stop-color="#FF8642"/>
<stop offset="1" stop-color="#D44ABE"/>
</linearGradient>
<linearGradient id="paint11_linear_1017_29764" x1="626.22" y1="286.391" x2="492.214" y2="371.42" gradientUnits="userSpaceOnUse">
<stop stop-color="#F3E0FA"/>
<stop offset="0.329161" stop-color="#FF8642"/>
<stop offset="0.606741" stop-color="#CA36FE"/>
<stop offset="1" stop-color="#492CE1"/>
</linearGradient>
<linearGradient id="paint12_linear_1017_29764" x1="576.125" y1="215.419" x2="608.48" y2="249.166" gradientUnits="userSpaceOnUse">
<stop stop-color="#291A87"/>
<stop offset="1" stop-color="#D44ABE"/>
</linearGradient>
<linearGradient id="paint13_linear_1017_29764" x1="522.548" y1="83.9128" x2="522.548" y2="218.551" gradientUnits="userSpaceOnUse">
<stop offset="0.0663438" stop-color="#291A87"/>
<stop offset="0.575691" stop-color="#FF8642"/>
<stop offset="1" stop-color="#D44ABE"/>
</linearGradient>
<linearGradient id="paint14_linear_1017_29764" x1="639.094" y1="183.065" x2="530.201" y2="181.673" gradientUnits="userSpaceOnUse">
<stop stop-color="#F3E0FA"/>
<stop offset="0.329161" stop-color="#FF8642"/>
<stop offset="0.606741" stop-color="#CA36FE"/>
<stop offset="1" stop-color="#492CE1"/>
</linearGradient>
<linearGradient id="paint15_linear_1017_29764" x1="639.094" y1="183.065" x2="530.201" y2="181.673" gradientUnits="userSpaceOnUse">
<stop stop-color="#F3E0FA"/>
<stop offset="0.329161" stop-color="#FF8642"/>
<stop offset="0.606741" stop-color="#CA36FE"/>
<stop offset="1" stop-color="#492CE1"/>
</linearGradient>
<clipPath id="clip0_1017_29764">
<rect width="928" height="439" fill="white"/>
</clipPath>
<clipPath id="clip1_1017_29764">
<rect width="631.984" height="453.291" fill="white" transform="translate(296 -7)"/>
</clipPath>
<clipPath id="clip2_1017_29764">
<rect width="287.564" height="386.106" fill="white" transform="translate(582 88)"/>
</clipPath>
</defs>
</svg>
