<svg width="608" height="668" viewBox="0 0 608 668" fill="none" xmlns="http://www.w3.org/2000/svg">
<g clip-path="url(#clip0_1082_34249)">
<rect width="608" height="667" transform="matrix(-1 0 0 1 608 1)" fill="url(#paint0_radial_1082_34249)"/>
<rect width="608" height="667" transform="matrix(-1 0 0 1 608 1)" fill="url(#paint1_radial_1082_34249)"/>
<rect width="608" height="667" transform="matrix(-1 0 0 1 608 1)" fill="url(#paint2_radial_1082_34249)"/>
<g clip-path="url(#clip1_1082_34249)">
<g opacity="0.15">
<mask id="mask0_1082_34249" style="mask-type:alpha" maskUnits="userSpaceOnUse" x="-69" y="67" width="801" height="742">
<ellipse cx="331.5" cy="438" rx="400.5" ry="371" fill="url(#paint3_linear_1082_34249)"/>
</mask>
<g mask="url(#mask0_1082_34249)">
<path d="M257.054 459.445L-136.053 66.8516" stroke="white" stroke-width="0.942597"/>
<path d="M257.054 542.074L-136.053 807.793" stroke="white" stroke-width="0.942597"/>
<path d="M257.055 525.659L-136.053 655.594" stroke="white" stroke-width="0.942597"/>
<path d="M257.055 507.575L-136.053 519.849" stroke="white" stroke-width="0.942597"/>
<path d="M257.298 489.512L-136.053 370.221" stroke="white" stroke-width="0.942597"/>
<path d="M257.054 473.077L-136.053 224.706" stroke="white" stroke-width="0.942597"/>
<path d="M257.054 560.713L-136.053 953.821" stroke="white" stroke-width="0.942597"/>
<path d="M358.045 560.713L750.917 953.821" stroke="white" stroke-width="0.942597"/>
<path d="M339.054 560.47L604.888 953.821" stroke="white" stroke-width="0.942597"/>
<path d="M322.6 560.47L452.689 953.821" stroke="white" stroke-width="0.942597"/>
<path d="M304.604 559.955L316.944 953.821" stroke="white" stroke-width="0.942597"/>
<path d="M286.607 560.47L167.316 953.821" stroke="white" stroke-width="0.942597"/>
<path d="M270.667 559.955L21.801 953.821" stroke="white" stroke-width="0.942597"/>
<path d="M358.045 459.723L750.875 66.3369" stroke="white" stroke-width="0.942597"/>
<path d="M339.056 459.688L604.89 66.3369" stroke="white" stroke-width="0.942597"/>
<path d="M322.6 459.688L452.689 66.3369" stroke="white" stroke-width="0.942597"/>
<path d="M304.628 459.445L316.944 66.3369" stroke="white" stroke-width="0.942597"/>
<path d="M286.267 459.445L167.194 66.3369" stroke="white" stroke-width="0.942597"/>
<path d="M270.131 459.445L21.8027 66.3369" stroke="white" stroke-width="0.942597"/>
<path d="M358.321 542.628L751.429 808.305" stroke="white" stroke-width="0.942597"/>
<path d="M358.321 525.937L751.429 656.107" stroke="white" stroke-width="0.942597"/>
<path d="M358.321 508.131L751.429 520.362" stroke="white" stroke-width="0.942597"/>
<path d="M358.321 489.769L751.429 370.734" stroke="white" stroke-width="0.942597"/>
<path d="M358.321 473.911L751.429 225.22" stroke="white" stroke-width="0.942597"/>
<rect x="257.255" y="459.646" width="100.866" height="100.866" stroke="white" stroke-width="0.942597"/>
<rect x="251.087" y="453.475" width="113.206" height="113.206" stroke="white" stroke-width="0.942597"/>
<rect x="238.745" y="441.135" width="137.887" height="137.887" stroke="white" stroke-width="0.942597"/>
<rect x="227.758" y="429.036" width="160.512" height="160.512" stroke="white" stroke-width="0.942597"/>
<rect x="216.122" y="418.511" width="183.136" height="183.136" stroke="white" stroke-width="0.942597"/>
<rect x="202.751" y="405.141" width="209.873" height="209.873" stroke="white" stroke-width="0.942597"/>
<rect x="182.185" y="384.575" width="251.008" height="251.008" stroke="white" stroke-width="0.942597"/>
<rect x="162.646" y="365.036" width="290.086" height="290.086" stroke="white" stroke-width="0.942597"/>
<rect x="137.963" y="340.356" width="339.448" height="339.448" stroke="white" stroke-width="0.942597"/>
<rect x="110.198" y="312.588" width="394.98" height="394.98" stroke="white" stroke-width="0.942597"/>
<rect x="76.2623" y="278.653" width="462.852" height="462.852" stroke="white" stroke-width="0.942597"/>
<rect x="36.1559" y="238.546" width="543.065" height="543.065" stroke="white" stroke-width="0.942597"/>
<rect x="-10.1215" y="192.269" width="635.618" height="635.618" stroke="white" stroke-width="0.942597"/>
<rect x="-67.7084" y="134.68" width="750.796" height="750.796" stroke="white" stroke-width="0.942597"/>
</g>
</g>
<path d="M578.73 529.613L485.417 526.798L485.015 627.753L578.73 692.107V529.613Z" fill="url(#paint4_linear_1082_34249)" stroke="#9084CF" stroke-opacity="0.25"/>
<path d="M579.133 657.115L522.421 627.623V527.603" stroke="#9084CF" stroke-opacity="0.25" stroke-width="0.754078"/>
<path d="M578.731 634.59L564.251 627.42V529.612" stroke="#9084CF" stroke-opacity="0.25" stroke-width="0.754078"/>
<path d="M485.417 627.349H579.132" stroke="#9084CF" stroke-opacity="0.25" stroke-width="0.754078"/>
<path d="M485.417 575.867H579.133" stroke="#9084CF" stroke-opacity="0.25" stroke-width="0.754078"/>
<path d="M514.376 648.266H578.73" stroke="#9084CF" stroke-opacity="0.25" stroke-width="0.754078"/>
<path d="M578.73 529.613L458.47 526.798L464.905 702.162L578.73 692.107V529.613Z" fill="url(#paint5_linear_1082_34249)"/>
<path d="M575.491 531.623H568.251L568.251 448.365H575.491C577.712 448.365 579.513 450.166 579.513 452.388L579.513 527.601C579.513 529.822 577.712 531.623 575.491 531.623Z" fill="url(#paint6_linear_1082_34249)"/>
<path d="M568.094 448.324C567.978 448.331 567.865 448.358 567.754 448.391L487.244 472.465C487.133 472.498 487.019 472.521 486.906 472.545C485.799 472.779 484.994 473.758 484.994 474.905L484.993 526.797C484.993 528.098 486.025 529.165 487.326 529.209L568.17 531.54C569.533 531.586 570.663 530.493 570.663 529.128V450.732C570.663 449.327 569.472 448.232 568.094 448.324Z" fill="url(#paint7_linear_1082_34249)"/>
<path d="M124.836 500.714L161.289 535.679C162.412 536.757 163.909 537.358 165.465 537.358H176.684L166.548 502.682L124.836 500.714Z" fill="url(#paint8_linear_1082_34249)"/>
<path d="M94.8183 357.254H82.2156C80.1333 357.254 78.4452 358.942 78.4452 361.024V508.638C78.4452 510.721 80.1333 512.409 82.2156 512.409H94.8183V357.254Z" fill="url(#paint9_linear_1082_34249)"/>
<mask id="mask1_1082_34249" style="mask-type:alpha" maskUnits="userSpaceOnUse" x="92" y="356" width="87" height="182">
<path d="M178.245 413.471C178.245 412.69 177.855 411.96 177.205 411.526L96.1193 357.346C94.565 356.308 92.4808 357.422 92.4808 359.291V510.027C92.4808 511.335 93.5541 512.389 94.8623 512.366L146.574 511.425C147.187 511.414 147.779 511.644 148.225 512.065L174.298 536.742C175.789 538.153 178.245 537.096 178.245 535.043V413.471Z" fill="url(#paint10_linear_1082_34249)"/>
</mask>
<g mask="url(#mask1_1082_34249)">
<path d="M178.245 413.471C178.245 412.69 177.855 411.96 177.205 411.526L96.1193 357.346C94.565 356.308 92.4808 357.422 92.4808 359.291V510.027C92.4808 511.335 93.5541 512.389 94.8623 512.366L146.574 511.425C147.187 511.414 147.779 511.644 148.225 512.065L174.298 536.742C175.789 538.153 178.245 537.096 178.245 535.043V413.471Z" fill="url(#paint11_linear_1082_34249)"/>
</g>
<mask id="mask2_1082_34249" style="mask-type:alpha" maskUnits="userSpaceOnUse" x="67" y="553" width="125" height="122">
<path d="M180.342 553.438C179.698 553.438 179.058 553.541 178.447 553.743L71.624 589.103C69.1545 589.92 67.4871 592.228 67.4871 594.83V668.644C67.4871 671.976 70.188 674.676 73.5197 674.676H83.8602L189.224 602.405C190.865 601.28 191.845 599.419 191.845 597.43V557.962C191.845 555.463 189.819 553.438 187.32 553.438H180.342Z" fill="url(#paint12_linear_1082_34249)"/>
</mask>
<g mask="url(#mask2_1082_34249)">
<path d="M178.284 553.907L67.4871 590.082L85.0297 593.201L191.845 558.895L192.235 553.048L181.232 553.391C180.229 553.422 179.237 553.596 178.284 553.907Z" fill="url(#paint13_linear_1082_34249)"/>
<path d="M87.7586 590.082H67.4871V671.341C67.4871 672.979 68.7942 674.318 70.4316 674.357L81.6176 674.623C83.0739 674.658 84.5028 674.223 85.6929 673.383L90.4874 669.998L87.7586 590.082Z" fill="url(#paint14_linear_1082_34249)"/>
<mask id="mask3_1082_34249" style="mask-type:alpha" maskUnits="userSpaceOnUse" x="83" y="554" width="109" height="118">
<path d="M189.55 602.18L88.5811 671.437C86.5795 672.81 83.8586 671.377 83.8586 668.95V595.486C83.8586 592.255 85.9167 589.384 88.9762 588.345L186.861 555.128C189.306 554.298 191.843 556.116 191.843 558.699V597.827C191.843 599.568 190.985 601.196 189.55 602.18Z" fill="#D9D9D9"/>
</mask>
<g mask="url(#mask3_1082_34249)">
<path d="M191.843 600.608L83.8586 674.676V590.082L191.843 553.438V600.608Z" fill="url(#paint15_linear_1082_34249)"/>
<path d="M125.133 623.057L123.835 621.771C119.018 617.058 115.674 613.776 115.683 607.677C115.693 602.699 118.097 597.922 121.034 596.81C122.643 596.199 124.145 596.855 125.114 598.387C126.064 596.108 127.498 594.357 128.972 593.801C131.492 592.844 133.42 595.524 133.43 599.9C133.449 605.252 130.745 611.05 126.403 620.322L125.124 623.057H125.133Z" fill="white"/>
<path d="M136.504 602.892L139.121 601.662L139.188 615.309L136.562 616.832L136.504 602.892ZM146.903 610.824L140.206 614.717L140.129 600.403L141.611 595.371L141.989 589.618C142.019 589.153 142.135 588.707 142.309 588.342C142.484 587.977 142.707 587.731 142.939 587.649L143.007 587.622C143.385 587.485 143.753 587.64 144.015 588.059C144.286 588.479 144.432 589.126 144.442 589.855L144.48 595.398L148.115 593.794C148.58 593.593 149.026 593.766 149.356 594.295C149.685 594.815 149.869 595.635 149.879 596.574L149.937 602.792C149.947 604.442 149.646 606.202 149.084 607.706C148.522 609.219 147.737 610.341 146.903 610.833V610.824Z" fill="white"/>
<path d="M159.891 597.577L159.862 594.914L163.099 582.306L164.699 581.677L164.844 592.134L165.687 591.714L165.726 594.504L164.883 594.951L164.931 598.233L163.555 598.999L163.506 595.671L159.901 597.567L159.891 597.577ZM163.458 585.661L161.471 593.82L163.545 592.781L163.448 585.661H163.458Z" fill="white"/>
<path d="M154.211 600.156C154.947 598.406 155.529 596.984 155.965 595.881C156.392 594.768 156.741 593.665 157.012 592.571C157.283 591.486 157.419 590.484 157.409 589.563C157.409 588.724 157.303 588.104 157.119 587.703C156.934 587.302 156.653 587.174 156.275 587.338C155.897 587.502 155.607 587.903 155.403 588.56C155.199 589.198 155.103 590.009 155.103 590.985L153.494 591.696C153.503 589.636 153.775 587.976 154.288 586.709C154.812 585.46 155.471 584.676 156.266 584.375C157.119 584.047 157.778 584.293 158.233 585.105C158.689 585.898 158.921 587.092 158.941 588.697C158.96 589.964 158.815 591.24 158.524 592.535C158.233 593.839 157.884 595.033 157.497 596.099C157.099 597.166 156.585 598.479 155.936 600.065L159.231 598.324L159.261 601.159L153.629 604.296L153.6 601.615L154.211 600.156Z" fill="white"/>
</g>
</g>
<g clip-path="url(#clip2_1082_34249)">
<path d="M425.92 507.262C419.509 503.566 405.202 496.592 381.394 491.402C358.491 486.41 333.553 484.515 307.273 485.768C303.597 485.942 300.06 486.18 296.756 486.471C265.249 489.25 250.034 497.276 248.873 511.727C248.107 521.266 255.425 529.323 270.625 535.678C284.991 541.683 307.343 546.593 337.059 550.272C354.121 552.383 369.553 552.856 382.925 551.676C398.358 550.314 410.801 546.828 419.907 541.314C427.491 536.722 432.42 530.761 433.789 524.531C435.319 517.561 432.304 510.943 425.918 507.262H425.92Z" fill="#390176"/>
<path d="M382.662 548.674C369.499 549.835 354.279 549.366 337.426 547.281C307.98 543.637 285.895 538.796 271.78 532.896C257.917 527.1 251.217 520.061 251.866 511.97C252.886 499.25 267.234 492.101 297.018 489.474C300.281 489.187 303.78 488.953 307.415 488.779C333.434 487.537 358.108 489.411 380.756 494.348C404.168 499.452 418.163 506.267 424.421 509.875C429.628 512.877 432.094 518.245 430.856 523.883C428.631 534.009 414.803 545.839 382.662 548.676V548.674Z" fill="#710125"/>
<path d="M251.867 511.967C250.573 528.077 277.742 539.889 337.427 547.277C427.248 558.394 442.67 520.392 424.423 509.872C406.176 499.353 365.229 486.018 307.416 488.775C264.36 490.827 252.778 500.631 251.869 511.967H251.867Z" fill="#710125"/>
<path d="M240.844 695.527L240.653 692.891C239.547 677.555 239.893 660.458 241.679 642.072L241.703 641.827C242.251 636.237 242.937 630.463 243.743 624.667C243.885 623.646 244.031 622.63 244.179 621.617C244.469 619.645 244.785 617.58 245.12 615.474C245.164 615.194 245.362 613.967 245.362 613.967C245.612 612.45 245.86 610.956 246.117 609.474C246.117 609.474 246.144 609.322 246.15 609.283L246.159 609.221C246.597 606.689 247.015 604.373 247.437 602.141C247.773 600.347 248.134 598.483 248.539 596.446C248.807 595.097 249.079 593.763 249.352 592.442L249.389 592.264C250.184 588.44 251.033 584.568 251.911 580.755C253.712 572.965 255.664 565.297 257.715 557.964C257.798 557.664 257.885 557.354 257.972 557.046L258.039 556.81C258.088 556.627 258.144 556.434 258.199 556.239C258.288 555.92 258.379 555.603 258.469 555.289L258.516 555.126C258.887 553.833 259.25 552.59 259.603 551.397L259.9 550.395C260.002 550.051 260.104 549.721 260.204 549.393C260.544 548.265 260.877 547.183 261.198 546.153L261.657 544.691L263.153 544.385C263.53 544.307 301.316 536.611 338.426 533.337C384.286 529.29 409.054 533.391 414.146 545.871C414.645 547.094 415.137 548.317 415.62 549.537C415.847 550.111 416.073 550.682 416.295 551.256C416.983 553.016 417.68 554.842 418.419 556.831C418.645 557.434 418.87 558.042 419.092 558.653C419.521 559.82 419.98 561.085 420.486 562.512L421.028 564.055C421.47 565.321 421.904 566.58 422.328 567.835C422.507 568.356 422.685 568.889 422.86 569.417L423.433 571.139C423.443 571.165 423.45 571.191 423.457 571.217C423.578 571.581 423.696 571.942 423.814 572.304L424.021 572.942C424.241 573.625 424.454 574.291 424.668 574.952C425.258 576.813 425.765 578.443 426.223 579.95C426.399 580.531 426.575 581.109 426.745 581.681L426.832 581.974C426.974 582.453 427.116 582.93 427.257 583.406C427.743 585.052 428.239 586.774 428.729 588.52C428.997 589.475 429.259 590.421 429.514 591.36L429.659 591.885C429.812 592.442 429.964 593.004 430.112 593.566C430.574 595.293 431.034 597.06 431.484 598.811L431.87 600.347C431.974 600.759 432.075 601.169 432.175 601.576C433.528 607.052 434.791 612.626 435.928 618.138L436.15 619.22L436.359 620.26C436.398 620.444 436.439 620.652 436.481 620.862L436.535 621.131C436.764 622.283 436.988 623.42 437.2 624.546C438.598 631.866 439.809 639.244 440.802 646.478C443.209 663.99 443.544 674.729 443.557 675.178L443.629 677.631L240.845 695.523L240.844 695.527Z" fill="#390176"/>
<path d="M440.966 675.257L243.241 692.704C242.049 676.153 242.642 658.88 244.286 642.085V642.082C244.848 636.325 245.534 630.625 246.312 625.028C246.454 624.013 246.601 623 246.745 621.992C247.046 619.94 247.36 617.905 247.68 615.885C247.76 615.382 247.843 614.881 247.923 614.38C248.168 612.883 248.416 611.395 248.671 609.92C248.686 609.834 248.703 609.751 248.714 609.667C249.124 607.293 249.546 604.944 249.984 602.63C250.343 600.714 250.711 598.821 251.08 596.957C251.347 595.613 251.619 594.287 251.89 592.973C251.905 592.914 251.916 592.856 251.927 592.797C252.75 588.845 253.591 585.016 254.438 581.342C256.392 572.889 258.376 565.232 260.212 558.668C260.318 558.284 260.429 557.898 260.534 557.52C260.586 557.333 260.638 557.145 260.693 556.958C260.797 556.583 260.904 556.21 261.009 555.846C261.379 554.563 261.739 553.327 262.091 552.139C262.191 551.8 262.292 551.466 262.39 551.134C262.488 550.805 262.586 550.479 262.686 550.158C263.026 549.03 263.355 547.958 263.675 546.935C263.675 546.935 400.349 518.914 411.75 546.859C412.247 548.076 412.733 549.29 413.214 550.501C413.44 551.069 413.661 551.635 413.88 552.199C414.604 554.054 415.307 555.904 415.993 557.743C416.218 558.344 416.44 558.945 416.658 559.546C417.132 560.834 417.592 562.112 418.047 563.388C418.225 563.898 418.406 564.409 418.585 564.917C419.023 566.175 419.456 567.425 419.877 568.672C420.057 569.195 420.232 569.719 420.404 570.238C420.589 570.793 420.772 571.346 420.957 571.897C420.966 571.928 420.979 571.964 420.989 571.999C421.183 572.585 421.371 573.17 421.562 573.754C421.776 574.424 421.991 575.092 422.205 575.754C422.732 577.414 423.248 579.068 423.745 580.71C423.919 581.285 424.093 581.862 424.263 582.429C424.433 583.003 424.603 583.572 424.772 584.142C425.276 585.851 425.763 587.545 426.236 589.227C426.5 590.174 426.763 591.114 427.016 592.047C427.064 592.224 427.112 592.398 427.16 592.574C427.314 593.129 427.462 593.684 427.608 594.237C428.077 595.994 428.532 597.738 428.974 599.461C429.085 599.903 429.194 600.341 429.303 600.775C429.423 601.254 429.544 601.73 429.66 602.203C431.071 607.914 432.31 613.421 433.391 618.671C433.465 619.033 433.539 619.393 433.613 619.753L433.82 620.783C433.881 621.07 433.937 621.36 433.994 621.649C434.221 622.792 434.443 623.922 434.656 625.039C436.19 633.072 437.353 640.406 438.235 646.839C440.65 664.414 440.966 675.26 440.966 675.26V675.257Z" fill="#FFA300"/>
<path d="M283.044 689.192C283.044 689.192 275.842 591.943 306.27 559.13C306.27 559.13 349.699 595.548 351.306 683.167L283.044 689.192Z" fill="#FFF3E0"/>
<g style="mix-blend-mode:multiply" opacity="0.6">
<path d="M440.964 675.258L408.147 678.154C407.726 672.128 406.982 665.979 406.113 660.19C402.913 661.161 397.878 662.614 394.694 663.415C393.737 663.656 387.016 679.766 387.016 679.766L380.585 680.66L383.257 665.775L336.071 669.391L335.814 685.916L331.236 685.668L335.374 666.037L320.967 665.022L310.132 603.241L302.232 672.209C294.026 670.849 286.285 668.278 279.276 665.165C276.31 676.547 270.085 683.161 260.298 684.66L259.96 691.228L243.237 692.703C242.044 676.152 242.638 658.879 244.281 642.084V642.081C244.843 636.324 245.529 630.624 246.308 625.027H246.311C246.454 624.012 246.596 622.999 246.742 621.991C247.044 619.939 247.358 617.904 247.678 615.884C247.757 615.381 247.84 614.88 247.92 614.379C248.166 612.882 248.414 611.394 248.669 609.919C248.684 609.833 248.7 609.75 248.711 609.666C249.124 607.288 249.547 604.943 249.982 602.629C250.34 600.713 250.708 598.82 251.078 596.956C251.344 595.612 251.616 594.286 251.888 592.972C251.903 592.913 251.914 592.855 251.925 592.796C252.748 588.844 253.589 585.015 254.436 581.341C256.39 572.888 258.374 565.231 260.21 558.667C260.315 558.283 260.426 557.897 260.531 557.519C260.583 557.332 260.635 557.144 260.69 556.957C260.794 556.582 260.901 556.209 261.007 555.845C261.376 554.562 261.737 553.326 262.088 552.138C262.188 551.799 262.29 551.465 262.388 551.133C262.486 550.805 262.584 550.478 262.684 550.157C263.024 549.029 263.353 547.957 263.673 546.934C263.673 546.934 400.347 518.913 411.747 546.858C412.244 548.075 412.731 549.289 413.211 550.5C413.437 551.068 413.659 551.634 413.877 552.198C414.602 554.053 415.304 555.903 415.99 557.742C416.216 558.343 416.438 558.944 416.656 559.545C417.129 560.833 417.59 562.111 418.044 563.387C418.222 563.897 418.403 564.408 418.582 564.916C419.021 566.174 419.453 567.424 419.875 568.671C420.054 569.194 420.23 569.718 420.402 570.237C420.587 570.792 420.77 571.345 420.955 571.896C420.964 571.927 420.977 571.963 420.986 571.998C421.18 572.584 421.369 573.169 421.559 573.753C421.774 574.423 421.988 575.091 422.203 575.753C422.73 577.414 423.245 579.067 423.743 580.709C423.917 581.284 424.09 581.861 424.26 582.428C424.431 583.002 424.601 583.571 424.769 584.141C425.274 585.85 425.76 587.544 426.233 589.226C426.498 590.173 426.76 591.113 427.013 592.046C427.062 592.223 427.11 592.397 427.158 592.573C427.311 593.128 427.459 593.683 427.605 594.236C428.075 595.993 428.53 597.737 428.971 599.46C429.082 599.902 429.192 600.34 429.301 600.774C429.421 601.253 429.541 601.729 429.657 602.202C431.068 607.913 432.307 613.42 433.389 618.67C433.463 619.032 433.536 619.392 433.61 619.752L433.817 620.782C433.879 621.069 433.934 621.359 433.991 621.648C434.219 622.791 434.441 623.921 434.653 625.038C436.188 633.071 437.351 640.405 438.233 646.838C440.647 664.413 440.964 675.259 440.964 675.259V675.258Z" fill="#B2A8C1"/>
</g>
<path d="M295.996 660.504C275.611 655.901 261.811 646.883 253.822 640.129C245.087 632.743 241.225 626.452 241.064 626.188L240.683 625.561L240.696 624.826C241.077 602.594 246.077 583.805 250.205 571.959C254.691 559.085 259.049 551.545 259.232 551.231L260.742 548.638L262.715 550.298C266.062 551.506 292.056 560.384 309.474 566.317L311.447 566.989L298.682 661.113L295.994 660.506L295.996 660.504Z" fill="#390176"/>
<path d="M308.666 568.713L296.551 658.03C292.465 657.108 288.645 656.008 285.083 654.778C255.071 644.418 243.225 624.868 243.225 624.868C243.881 586.42 258.314 558.186 260.991 553.273C261.267 552.769 261.416 552.511 261.416 552.511H261.42C261.548 552.668 308.666 568.713 308.666 568.713Z" fill="#DFDAE5"/>
<g style="mix-blend-mode:multiply" opacity="0.6">
<path d="M286.462 639.313L285.083 654.775V654.779C255.071 644.419 243.225 624.869 243.225 624.869C243.881 586.422 258.314 558.187 260.991 553.274L266.322 556.909C266.322 556.909 265.482 560.768 265.303 563.442C265.303 563.442 279.447 570.889 281.516 582.872C283.585 594.852 288.76 621.463 286.462 639.313Z" fill="#B2A8C1"/>
</g>
<path d="M362.468 661.285C341.524 663.133 327.513 661.136 326.927 661.051L325.087 660.782L307.67 565.917L311.368 566.595C317.394 567.699 323.937 568.728 330.817 569.656C342.62 571.244 355.171 571.47 368.119 570.328C398.443 567.652 421.185 558.285 421.41 558.19L423.693 557.238L424.751 559.48C438.305 588.244 443.669 631.475 443.891 633.303L444.094 634.98L442.65 635.848C413.094 653.632 382.733 659.496 362.468 661.285Z" fill="#390176"/>
<path d="M441.317 633.618C425.434 643.173 409.317 649.298 394.391 653.168V653.172C357.115 662.845 327.299 658.478 327.299 658.478L310.901 569.157C316.722 570.224 323.221 571.261 330.47 572.237C349.542 574.803 367.846 573.547 383.028 571.074C406.416 567.272 422.404 560.595 422.404 560.595C435.934 589.311 441.315 633.62 441.315 633.62L441.317 633.618Z" fill="#DFDAE5"/>
<g style="mix-blend-mode:multiply" opacity="0.6">
<path d="M394.391 653.168C410.501 619.772 383.329 571.608 383.03 571.072C406.419 567.27 422.406 560.593 422.406 560.593C435.937 589.309 441.317 633.618 441.317 633.618C425.435 643.173 409.318 649.298 394.391 653.168Z" fill="#B2A8C1"/>
</g>
<path d="M375.581 554.084C374.857 554.147 374.123 554.207 373.381 554.26C371.708 554.381 370.046 554.479 368.437 554.552C340.262 555.85 308.706 551.392 291.705 543.709C287.44 541.78 283.835 540.319 280.935 539.147C271.646 535.384 266.529 533.314 265.037 525.071C261.967 508.107 259.083 500.805 257.173 495.974C254.562 489.367 253.57 486.235 255.265 474.964L255.616 472.61C256.254 468.331 256.857 464.29 257.574 460.368C260.144 446.344 264.164 434.529 275.431 422.449C276.901 420.874 278.487 419.328 280.164 417.835C278.985 412.62 277.519 400.658 284.171 387.081L284.528 386.352C290.89 373.374 293.268 368.519 298.789 368.031C301.421 367.799 303.879 368.964 305.933 370.135C311.805 373.48 315.59 378.615 318.629 382.742C319.635 384.107 320.585 385.395 321.508 386.491C324.296 389.797 327.19 394.504 328.819 397.293C334.462 396.814 340.182 396.887 345.827 397.51C355.003 398.523 363.687 400.694 371.682 403.965C374.271 401.362 378.085 396.02 380.287 387.938C380.5 387.159 380.709 386.378 380.917 385.601C383.822 374.795 387.233 370.079 395.33 369.365C398.926 369.047 401.065 369.955 405.286 374.033C417.977 386.296 421.326 397.25 423.221 409.725C423.343 410.531 423.463 411.325 423.585 412.106C425.11 421.896 421.422 432.956 418.456 441.843C417.448 444.861 416.491 447.737 415.869 450.166C423.572 469.031 430.01 496.142 425.497 517.126C420.564 540.071 405.164 551.47 375.578 554.08L375.581 554.084Z" fill="#390176"/>
<path d="M411.678 450.506C420.26 470.99 425.7 497.158 421.588 516.283C416.721 538.912 401.152 548.213 373.093 550.253C371.501 550.368 369.89 550.465 368.259 550.539C341.201 551.788 309.769 547.467 293.352 540.045C275.945 532.173 270.441 532.428 268.98 524.353C267.429 515.772 265.918 509.603 264.552 504.954C264.546 504.945 264.546 504.939 264.546 504.939C259.943 489.282 256.931 490.848 259.229 475.564C259.996 470.449 260.682 465.658 261.518 461.092C263.925 447.957 267.612 436.715 278.36 425.194C280.297 423.118 282.423 421.119 284.711 419.218H284.701C284.701 419.218 279.683 405.357 287.774 388.852C294.014 376.109 296.137 371.616 299.968 372.044C301.099 372.17 302.379 372.729 303.96 373.629C310.888 377.575 314.561 384.466 318.453 389.084C322.351 393.705 326.629 401.542 326.629 401.542L326.626 401.553C332.655 400.856 338.934 400.791 345.394 401.505C355.186 402.587 364.253 405.025 372.403 408.631C372.403 408.631 380.287 403.195 384.153 389C387.35 377.267 393.359 369.809 401.479 375.25L401.496 375.263C403.193 376.399 404.981 378.108 406.859 380.453C418.147 394.583 417.681 400.169 419.637 412.728C421.592 425.286 413.793 440.879 411.683 450.504L411.678 450.506Z" fill="#FFA300"/>
<g style="mix-blend-mode:multiply" opacity="0.6">
<path d="M298.925 381.565C298.925 381.565 300.759 406.477 293.545 413.909C293.545 413.909 315.327 402.464 298.925 381.565Z" fill="#B2A8C1"/>
</g>
<g style="mix-blend-mode:multiply" opacity="0.6">
<path d="M403.653 389.811C403.653 389.811 400.832 409.219 397.193 413.573C393.554 417.928 384.195 414.72 384.195 414.72C384.195 414.72 391.604 418.603 393.04 423.52C394.475 428.435 397.69 433.526 397.69 433.526C397.69 433.526 412.371 414.755 403.653 389.811Z" fill="#B2A8C1"/>
</g>
<g style="mix-blend-mode:multiply" opacity="0.6">
<path d="M326.627 401.544L319.874 402.75C312.871 380.174 300.843 373.471 299.965 372.046C301.097 372.172 302.376 372.731 303.957 373.63C310.885 377.577 314.559 384.467 318.451 389.085C322.348 393.707 326.627 401.544 326.627 401.544Z" fill="#B2A8C1"/>
</g>
<path d="M376.562 510.689C365.167 519.004 368.101 549.513 368.101 549.513L368.257 550.537C341.198 551.786 309.766 547.465 293.35 540.044C275.942 532.171 270.438 532.426 268.977 524.351C262.195 486.857 256.244 495.39 259.224 475.564C259.992 470.449 260.678 465.658 261.513 461.092C269.721 443.981 285.545 451.459 291.229 440.849C296.907 430.238 298 419.034 305.643 418.123C313.287 417.216 317.948 426.255 320.599 432.377C323.256 438.502 328.884 443.6 338.502 436.676C348.115 429.752 352.129 421.078 362.671 426.704C375.005 433.285 361.721 447.213 363.4 452.101C365.075 456.996 377.969 464.005 384.683 477.198C391.396 490.391 387.959 502.366 376.564 510.689H376.562Z" fill="#FFF3E0"/>
<g style="mix-blend-mode:multiply" opacity="0.6">
<path d="M411.677 450.505C420.26 470.99 425.699 497.157 421.587 516.282C416.721 538.911 401.151 548.212 373.092 550.253C371.5 550.368 369.89 550.464 368.259 550.539C341.2 551.787 309.769 547.466 293.352 540.045C275.945 532.173 270.44 532.427 268.98 524.353C267.428 515.772 265.918 509.603 264.552 504.953C264.742 505.471 271.036 522.189 290.152 526.92C296.93 528.598 298.133 546.104 309.083 543.366C318.425 541.028 324.161 531.952 333.048 530.158C351.697 526.397 365.007 532.939 374.895 528.92C392.119 521.92 405.08 504.692 403.202 482.118C401.323 459.544 404.123 447.039 407.497 439.386C414.203 424.173 414.377 408.432 412.465 398.612C410.616 389.105 401.804 375.578 401.49 375.263C403.187 376.398 404.975 378.107 406.853 380.452C418.141 394.582 417.675 400.169 419.631 412.727C421.586 425.286 413.787 440.878 411.677 450.503V450.505Z" fill="#B2A8C1"/>
</g>
<path d="M295.01 442.723C295.01 442.723 308.424 432.639 340.081 449.873C340.081 449.873 335.106 461.909 315.905 457.805C288.903 452.035 295.012 442.723 295.012 442.723H295.01Z" fill="#FFA300"/>
<path d="M350.545 497.607C348.172 498.24 345.758 498.368 343.376 498.14C341.152 497.928 338.956 497.41 336.855 496.709C336.85 496.705 336.84 496.705 336.835 496.702C336.829 496.702 336.824 496.698 336.82 496.698C330.484 494.579 325.017 490.831 322.203 488.948C317.456 485.766 311.512 487.945 304.68 484.514C297.849 481.084 287.789 480.963 280.776 482.989C273.763 485.015 271.335 482.416 269.584 475.007C269.288 473.757 269.113 472.599 269.02 471.497C268.567 466.046 270.235 461.916 270.573 454.812C270.98 446.27 278.237 446.513 278.237 446.513L350.547 497.613L350.545 497.607Z" fill="#FFF3E0"/>
<g style="mix-blend-mode:multiply" opacity="0.6">
<path d="M336.82 496.695C330.483 494.576 325.016 490.828 322.202 488.945C317.456 485.763 311.512 487.942 304.68 484.511C297.848 481.081 287.788 480.96 280.775 482.986C273.762 485.012 271.335 482.413 269.584 475.004C269.288 473.754 269.112 472.596 269.02 471.494C272.487 475.503 274.167 478.457 281.578 476.502C288.985 474.552 298.606 476.325 303.099 478.4C307.592 480.474 318.599 481.303 323.8 485.493C328.995 489.673 332.366 495.22 336.82 496.697V496.695Z" fill="#B2A8C1"/>
</g>
<path d="M307.613 534.086C300.469 534.717 293.022 532.724 289.503 529.241C285.63 525.412 286.702 520.173 287.945 514.106C288.62 510.813 289.383 507.078 289.476 503.05C289.494 502.321 289.459 501.58 289.372 500.842C288.289 491.693 279.61 484.625 279.523 484.554L276.504 482.129L280.218 481.053C282.328 480.445 284.641 480.025 287.096 479.808C293.956 479.203 300.691 480.261 305.572 482.712C308.669 484.267 311.609 484.55 314.451 484.823C317.439 485.111 320.53 485.408 323.313 487.272L323.642 487.493C327.447 490.044 335.362 495.356 343.564 496.137L347.648 496.096L344.989 499.744C344.971 499.768 343.1 502.185 340.373 505.62C336.055 511.057 328.003 521.03 322.519 526.809L322.466 526.872L322.405 526.926C321.92 527.44 321.417 527.954 320.867 528.499C316.803 532.507 311.417 533.748 307.613 534.084V534.086Z" fill="#390176"/>
<path d="M343.378 498.139L343.411 498.513C343.411 498.513 341.56 500.905 338.809 504.371C336.971 506.686 334.734 509.475 332.373 512.35C328.496 517.074 324.297 522.033 321.026 525.473C321.017 525.484 321.007 525.49 320.998 525.501C320.46 526.072 319.944 526.597 319.464 527.074C311.602 534.828 295.838 532.688 290.913 527.814C285.983 522.94 291.223 514.441 291.48 503.1C291.502 502.256 291.458 501.422 291.362 500.61C291.301 500.076 291.214 499.554 291.109 499.038C289.202 489.728 280.773 482.99 280.773 482.99C287.786 480.964 297.846 481.084 304.678 484.515C311.51 487.945 317.454 485.767 322.2 488.949C325.953 491.461 334.418 497.289 343.376 498.142L343.378 498.139Z" fill="#BC0F0F"/>
<g style="mix-blend-mode:multiply" opacity="0.6">
<path d="M343.378 498.138L343.411 498.513C343.411 498.513 341.56 500.905 338.809 504.37C336.971 506.686 334.734 509.474 332.373 512.35C333.909 499.832 320.394 493.027 317.835 492.658C313.392 492.021 307.692 493.07 302.012 490.999C296.334 488.934 293.51 491.801 294.788 498.71L291.109 499.034C289.202 489.724 280.773 482.986 280.773 482.986C287.786 480.96 297.846 481.081 304.678 484.511C311.51 487.942 317.454 485.763 322.2 488.945C325.953 491.457 334.418 497.285 343.376 498.138H343.378Z" fill="#B2A8C1"/>
</g>
<path d="M338.337 496.967C336.699 496.431 335.109 495.765 333.558 495.028C330.457 493.538 327.541 491.705 324.731 489.722L322.621 488.21C321.839 487.689 321.009 487.21 320.125 486.902C318.367 486.227 316.557 485.985 314.836 485.748C313.109 485.516 311.435 485.303 309.847 484.902C308.257 484.507 306.752 483.933 305.352 483.165C297.67 479.308 287.011 479.618 280.361 481.538C277.637 482.325 275.777 482.345 274.511 481.601C273.026 480.731 271.991 478.653 271.046 474.655C269.774 469.267 270.173 466.241 270.902 460.747C271.131 459.011 271.392 457.04 271.641 454.692C271.95 451.783 273.342 449.764 275.781 448.688C277.733 447.827 279.66 447.879 279.673 447.881L279.793 444.87C276.306 444.73 269.485 446.538 268.655 454.373C268.411 456.682 268.152 458.631 267.925 460.349C267.176 466.005 266.725 469.419 268.125 475.349C268.938 478.79 270.151 482.533 272.996 484.201C275.021 485.388 277.624 485.462 281.193 484.431C287.496 482.611 297.358 482.516 304.01 485.855C305.711 486.637 307.516 487.169 309.315 487.479C311.116 487.794 312.9 487.885 314.616 487.993C316.331 488.102 317.997 488.214 319.521 488.681C320.295 488.887 321 489.238 321.691 489.622L323.914 490.982C326.905 492.783 330.008 494.434 333.26 495.715C334.887 496.349 336.546 496.906 338.235 497.325C339.929 497.733 341.65 498.013 343.377 498.134C341.661 497.889 339.979 497.485 338.337 496.961V496.967Z" fill="#390176"/>
<path d="M431.097 519.49C430.42 520.8 429.274 521.939 427.508 524.663C420.446 535.555 407.25 540.626 378.915 543.127C367.147 544.166 353.204 544.548 337.477 544.266C316.701 543.893 296.418 539.899 280.362 533.021C265.981 526.86 256.458 518.885 254.871 511.681L253.638 503.336L248.846 512.182L248.914 512.536C248.936 512.653 257.362 554.051 257.362 554.051L257.826 554.624C258.249 555.146 268.853 567.487 327.809 575.419C340.023 577.063 352.99 577.298 366.346 576.118C397.593 573.361 421.065 563.669 421.298 563.573L422.625 563.018L433.214 526.546C433.697 523.409 433.532 521.158 433.14 519.574L431.095 519.487L431.097 519.49Z" fill="#390176"/>
<path d="M420.143 560.791C420.143 560.791 404.182 567.458 380.822 571.261C365.628 573.738 347.305 575.001 328.21 572.432C269.754 564.567 260.157 552.723 260.157 552.723L251.944 512.354C255.586 528.752 291.625 546.455 337.425 547.281C355.167 547.6 369.927 547.075 382.078 545.858C411.193 542.939 425.344 536.036 429.691 527.195C430.205 526.151 420.143 560.791 420.143 560.791Z" fill="#DFDAE5"/>
<g style="mix-blend-mode:multiply" opacity="0.6">
<path d="M420.144 560.792C420.144 560.792 404.182 567.458 380.823 571.262C390.977 559.954 382.237 546.109 382.078 545.859C411.193 542.94 425.345 536.037 429.692 527.196C430.206 526.151 420.144 560.792 420.144 560.792Z" fill="#B2A8C1"/>
</g>
<path d="M294.346 549.616C292.821 549.751 291.346 549.59 289.959 549.137C278.501 545.404 278.231 522.027 281.3 510.543C282.752 505.11 285.832 501.164 290.456 498.812C293.311 497.357 296.715 496.496 301.163 496.103C301.768 496.049 302.367 496.006 302.959 495.971C306.29 495.771 308.102 496.285 309.557 496.697C310.539 496.975 311.186 497.159 312.163 497.073C313.42 496.962 315.126 496.413 317.53 495.346C318.763 494.799 320.089 494.459 321.468 494.337C330.665 493.526 339.832 502.558 340.218 502.943L341.488 504.212L340.371 505.621C338.554 507.914 335.812 511.337 332.846 514.923L332.319 515.565C328.339 520.369 325.042 524.152 322.516 526.812L322.463 526.875L322.365 526.964C321.864 527.436 321.389 527.923 320.949 528.415C320.224 529.224 319.44 530.124 318.604 531.081C312.065 538.577 303.11 548.842 294.345 549.616H294.346Z" fill="#390176"/>
<path d="M338.806 504.372C336.561 507.201 333.716 510.741 330.78 514.277V514.283C327.372 518.396 323.852 522.498 321.023 525.474C321.014 525.485 321.004 525.491 320.995 525.502C320.452 526.014 319.939 526.537 319.461 527.075C312.596 534.739 300.404 550.437 290.577 547.231C285.25 545.498 282.682 538.216 281.916 530.172C281.267 523.387 281.9 516.055 283.233 511.067C284.69 505.615 287.724 502.457 291.361 500.609C294.988 498.761 299.215 498.217 303.079 497.982C310.811 497.516 309.16 501.262 318.34 497.19C327.52 493.112 338.808 504.373 338.808 504.373L338.806 504.372Z" fill="#FC2D81"/>
<g style="mix-blend-mode:multiply" opacity="0.6">
<path d="M338.807 504.37C336.563 507.199 333.717 510.739 330.781 514.275V514.281C327.374 518.394 323.853 522.496 321.024 525.472C321.015 525.483 321.006 525.489 320.997 525.5C320.453 526.012 319.941 526.535 319.462 527.073C312.597 534.738 300.405 550.435 290.578 547.229C285.252 545.497 282.683 538.214 281.918 530.17C284.15 537.051 290.83 541.448 296.611 539.758C302.397 538.062 318.989 518.795 324.301 511.54C329.615 504.29 326.427 500.492 318.34 497.188C327.52 493.11 338.807 504.371 338.807 504.371V504.37Z" fill="#B2A8C1"/>
</g>
<path d="M320.702 524.262C320.663 524.153 319.731 521.54 319.117 518.624C318.169 514.125 318.476 511.438 320.082 510.173C320.606 509.761 321.218 509.522 321.898 509.46C325.287 509.162 329.482 513.707 330.289 514.622L330.607 514.984L330.701 516.065L330.318 516.533C327.419 520.03 325.019 522.785 323.179 524.724L323.141 524.77L323.126 524.783L321.558 526.661L320.7 524.264L320.702 524.262Z" fill="#390176"/>
<path d="M329.457 515.467V515.47C327.996 517.237 326.504 518.995 325.095 520.61C323.971 521.893 322.899 523.085 321.934 524.099C321.926 524.109 321.919 524.112 321.911 524.122C321.911 524.122 317.977 513.136 320.758 510.949C321.257 510.556 321.865 510.446 322.516 510.541V510.544C325.482 510.964 329.457 515.468 329.457 515.468V515.467Z" fill="#F6F0F0"/>
<g style="mix-blend-mode:multiply" opacity="0.6">
<path d="M325.095 520.61C323.971 521.893 322.899 523.085 321.934 524.099C321.926 524.109 321.919 524.112 321.911 524.122C321.911 524.122 317.977 513.136 320.758 510.949C321.257 510.556 321.865 510.446 322.516 510.541V510.544C322.516 510.544 320.695 515.3 325.095 520.611V520.61Z" fill="#B2A8C1"/>
</g>
<path d="M406.612 400.813C406.074 397.028 405.055 393.332 403.656 389.811C404.821 393.417 405.582 397.143 405.865 400.894C406.013 402.77 406.022 404.649 405.963 406.523C405.869 408.395 405.686 410.26 405.407 412.106C404.813 415.796 403.855 419.416 402.535 422.891C401.879 424.629 401.136 426.333 400.311 427.986C399.902 428.815 399.464 429.628 399.013 430.427C398.984 430.481 398.95 430.535 398.921 430.589C397.634 428.234 396.306 425.91 394.949 423.602C394.55 422.913 394.06 422.123 393.57 421.416C393.06 420.703 392.522 420.013 391.945 419.362C390.789 418.06 389.504 416.887 388.117 415.87C386.74 414.846 385.263 413.972 383.724 413.26C382.188 412.551 380.594 411.958 378.941 411.655C381.811 413.36 384.403 415.345 386.694 417.566C387.261 418.126 387.818 418.69 388.338 419.288C388.866 419.874 389.366 420.483 389.837 421.11C390.321 421.726 390.75 422.379 391.176 423.032C391.603 423.7 391.952 424.336 392.37 425.088C393.993 427.995 395.755 430.819 397.697 433.524C398.662 434.88 399.681 436.199 400.744 437.487C401.823 438.763 402.911 440.032 404.142 441.194C403.057 438.574 401.822 436.08 400.538 433.618C400.886 432.989 401.195 432.379 401.505 431.743C401.929 430.863 402.332 429.978 402.702 429.082C403.452 427.292 404.107 425.468 404.669 423.618C405.801 419.921 406.54 416.115 406.899 412.286C407.061 410.369 407.123 408.447 407.091 406.529C407.026 404.612 406.888 402.699 406.614 400.807L406.612 400.813Z" fill="#390176"/>
<path d="M306.373 404.623C305.597 404.831 304.833 405.083 304.079 405.353C304.502 404.332 304.859 403.288 305.133 402.219C305.423 400.963 305.637 399.694 305.698 398.414C305.756 397.135 305.702 395.859 305.53 394.605C305.164 392.098 304.349 389.703 303.21 387.51C302.062 385.322 300.638 383.295 298.922 381.565C300.449 383.46 301.638 385.599 302.527 387.823C303.409 390.054 303.936 392.402 304.036 394.744C304.073 395.914 304.001 397.08 303.833 398.224C303.659 399.369 303.347 400.482 302.979 401.568C302.222 403.607 301.139 405.503 299.823 407.232C297.89 408.278 296.054 409.49 294.35 410.865C292.599 412.299 290.948 413.874 289.611 415.759C291.722 414.852 293.69 413.85 295.64 412.839L301.411 409.79C303.33 408.796 305.242 407.818 307.181 406.853C309.136 405.92 311.105 405.046 313.209 404.098C310.925 403.8 308.601 404.083 306.375 404.627L306.373 404.623Z" fill="#390176"/>
<g style="mix-blend-mode:multiply" opacity="0.6">
<path d="M373.117 470.446L383.286 450.492L389.707 460.014L382.289 477.977L373.117 470.446Z" fill="#B2A8C1"/>
</g>
<path d="M371.24 468.904L383.286 450.492L387.663 456.772L380.398 476.424L371.24 468.904Z" fill="#390176"/>
<path d="M380.751 451.593L385.041 457.179L379.35 472.575L374.014 468.2L380.751 451.593Z" fill="#2F4272"/>
<path d="M372.53 469.962C372.158 469.661 335.393 440.466 289.061 445.147C284.732 445.584 280.395 446.312 276.166 447.306L272.89 448.078L277.113 428.369L278.281 427.935C278.511 427.849 284.002 425.842 293.515 424.822C305.139 423.575 317.388 424.313 329.942 427.039C347.42 430.833 364.955 438.432 382.072 449.7L383.603 450.707L374.985 471.945L372.532 469.96L372.53 469.962Z" fill="#390176"/>
<path d="M380.751 451.592L374.012 468.201C374.012 468.201 370.258 465.171 363.604 461.18H363.6C347.398 451.477 314.009 436.134 275.72 445.169L278.976 429.987C278.976 429.987 319.851 414.849 374.21 447.47V447.473C376.371 448.77 378.551 450.139 380.751 451.59V451.592Z" fill="#6777A5"/>
<g style="mix-blend-mode:multiply" opacity="0.6">
<path d="M380.75 451.591L374.011 468.2C374.011 468.2 370.258 465.171 363.604 461.18C368.425 462.107 372.451 462.456 375.401 458.113C379.6 451.933 374.268 447.647 374.209 447.473C376.37 448.77 378.55 450.139 380.75 451.59V451.591Z" fill="#B2A8C1"/>
</g>
<path d="M283.96 431.901C279.885 432.86 277.278 440.334 282.752 440.321C288.247 440.308 298.629 437.985 318.052 440.797C337.73 443.647 358.138 455.183 365.919 458.415C373.743 461.664 376.627 454.553 371.624 450.48C369.012 448.356 347.622 435.061 321.957 431.693C296.723 428.382 288.464 430.842 283.96 431.903V431.901Z" fill="#390176"/>
<g style="mix-blend-mode:multiply" opacity="0.6">
<path d="M279.364 447.919C277.426 454.37 282.899 456.563 285.227 457.485C288.35 458.723 293.967 459.74 297.324 457.931C300.684 456.122 304.496 453.769 304.058 448.765C303.62 443.762 281.697 440.151 279.364 447.919Z" fill="#B2A8C1"/>
</g>
<path d="M278.237 446.507C276.299 452.958 281.772 455.151 284.1 456.073C287.222 457.311 292.839 458.327 296.197 456.519C299.557 454.71 303.369 452.357 302.931 447.353C302.493 442.349 280.57 438.739 278.237 446.507Z" fill="#390176"/>
<path d="M304.768 506.294C303.832 507.183 302.945 508.118 302.098 509.084C301.247 510.047 300.439 511.045 299.668 512.068C298.905 513.097 298.169 514.144 297.496 515.233C296.812 516.314 296.189 517.429 295.627 518.576C295.333 519.144 295.077 519.728 294.815 520.309L294.452 521.196C294.325 521.489 294.232 521.795 294.116 522.092C294.003 522.391 293.892 522.689 293.8 522.995C293.704 523.3 293.602 523.602 293.511 523.908C293.349 524.526 293.166 525.138 293.036 525.764C292.879 526.383 292.79 527.018 292.672 527.647C292.622 527.962 292.589 528.281 292.544 528.599L292.483 529.075L292.446 529.554L292.369 530.515L292.345 531.48L292.33 531.964L292.343 532.446L292.359 533.417L292.232 532.454L292.173 531.971L292.139 531.485L292.082 530.511V529.535C292.082 529.372 292.084 529.209 292.09 529.048L292.121 528.56C292.145 528.235 292.158 527.908 292.189 527.584C292.269 526.936 292.341 526.287 292.469 525.647C292.53 525.326 292.576 525.001 292.657 524.686L292.886 523.732C292.971 523.417 293.068 523.105 293.156 522.79C293.243 522.474 293.347 522.164 293.454 521.856C293.654 521.233 293.907 520.632 294.147 520.023C294.412 519.426 294.665 518.825 294.963 518.244C295.549 517.079 296.19 515.94 296.906 514.852C297.625 513.767 298.387 512.71 299.215 511.71C300.036 510.702 300.914 509.745 301.835 508.832C302.761 507.927 303.725 507.056 304.768 506.292V506.294Z" fill="#390176"/>
<path d="M291.478 503.096C291.478 503.096 281.601 511.706 285.809 524.847C285.809 524.847 283.596 516.421 291.478 503.096Z" fill="#FF71B2"/>
<g style="mix-blend-mode:multiply" opacity="0.6">
<path d="M342.433 487.432C339.837 487.206 344.31 509.583 348.707 508.145L349.263 496.664L342.433 487.432Z" fill="#B2A8C1"/>
</g>
<path d="M342.433 487.435C344.225 488.277 345.635 489.741 346.769 491.336C347.897 492.952 348.718 494.776 349.263 496.667C349.479 497.624 349.731 498.579 349.808 499.557C349.851 500.045 349.93 500.528 349.93 501.017C349.938 501.505 349.932 501.993 349.921 502.479C349.921 502.965 349.871 503.45 349.801 503.932C349.738 504.414 349.66 504.893 349.577 505.368C349.487 505.843 349.341 506.312 349.196 506.776C349.05 507.24 348.897 507.7 348.705 508.149C348.424 507.19 348.277 506.264 348.102 505.351C348.002 504.895 347.908 504.444 347.828 503.995C347.784 503.771 347.751 503.546 347.714 503.324C347.673 503.101 347.608 502.88 347.567 502.659C347.471 502.218 347.381 501.778 347.303 501.34C347.214 500.902 347.098 500.474 347.002 500.041C346.902 499.611 346.832 499.173 346.695 498.754L346.371 497.476C345.885 495.789 345.351 494.127 344.704 492.47C344.055 490.809 343.339 489.162 342.435 487.436L342.433 487.435Z" fill="#390176"/>
<path d="M358.031 545.2L355.09 544.59L348.605 576.07L351.546 576.679L358.031 545.2Z" fill="#390176"/>
<path d="M386.048 657.315L383.241 656.732L378.062 681.875L380.868 682.457L386.048 657.315Z" fill="#390176"/>
<path d="M369.454 566.633C369.277 566.629 351.655 566.277 341.765 567.149C341.016 567.216 340.323 567.288 339.702 567.364L339.154 567.431L335.76 564.553L337.725 558.622L369.667 554.229L371.974 556.65L370.362 566.65L369.454 566.631V566.633Z" fill="#390176"/>
<path d="M368.514 554.517L370.912 556.982L369.498 565.751C369.498 565.751 349.025 565.326 339.584 566.491L336.143 564.008L338.466 559.405L368.514 554.518V554.517Z" fill="#A57F4C"/>
<path d="M366.85 563.964C353.947 563.363 337.035 564.399 336.865 564.41L335.709 564.482L336.813 554.454L337.613 554.354C339.527 554.116 341.45 553.911 343.327 553.745C359.314 552.335 368.402 554.001 368.781 554.072L369.7 554.246L367.753 564.007L366.85 563.964Z" fill="#390176"/>
<path d="M337.731 555.226L336.818 563.529C336.818 563.529 353.809 562.471 366.925 563.083L368.551 554.935C368.551 554.935 357.248 552.799 337.731 555.226Z" fill="#FFD18D"/>
<path d="M257.094 682.088C255.088 682.264 252.993 682.118 250.867 681.648C242.835 679.878 237.1 676.422 233.333 671.084C229.785 666.054 228.008 659.31 227.899 650.464C227.726 636.254 231.686 617.341 238.586 589.472L238.647 589.227L238.752 588.999C239.056 588.34 246.287 572.811 255.694 568.969C256.85 568.498 258.014 568.208 259.157 568.106C260.25 568.01 261.341 568.084 262.4 568.329C268.058 569.637 272.663 575.524 276.48 586.327C281.255 599.845 283.596 616.079 283.069 632.039C282.535 648.217 279.1 662.034 273.394 670.943C269.084 677.674 263.448 681.528 257.097 682.088H257.094Z" fill="#390176"/>
<path d="M251.434 679.05C236.58 675.776 230.744 666.522 230.548 650.43C230.373 636.014 234.719 616.112 241.157 590.112C241.157 590.112 248.146 574.921 256.692 571.431C258.352 570.754 260.066 570.52 261.804 570.919C265.931 571.872 270.167 576.423 273.979 587.216C287.661 625.946 279.598 685.258 251.436 679.05H251.434Z" fill="#FFA300"/>
<path d="M251.433 679.051C289.212 643.672 261.595 571.283 261.595 571.283L261.802 570.921C265.929 571.875 270.165 576.426 273.977 587.218C287.659 625.948 279.596 685.261 251.433 679.053V679.051Z" fill="#FFF3E0"/>
<g style="mix-blend-mode:multiply" opacity="0.6">
<path d="M251.435 679.05C236.581 675.776 230.746 666.522 230.55 650.43C232.45 652.961 247.861 672.49 260.937 658.232C274.898 643.009 256.631 571.72 256.631 571.72L256.692 571.431C258.352 570.754 260.066 570.52 261.804 570.919C265.931 571.872 270.167 576.423 273.979 587.216C287.661 625.946 279.598 685.258 251.435 679.05Z" fill="#B2A8C1"/>
</g>
<path d="M273.836 576.682L273.739 576.541L273.734 576.537C266.628 566.117 254.801 565.507 248.367 566.075C242.354 566.605 235.644 568.505 228.421 571.72C214.319 578.001 204.925 586.676 201.972 596.148C200.256 601.647 200.82 606.979 203.603 611.569C205.575 614.821 207.313 617.35 209.077 619.525C215.646 627.629 223.109 631.191 231.893 630.417C232.298 630.382 232.714 630.336 233.13 630.28C236.09 629.887 238.739 629.647 241.302 629.415C249.862 628.644 267.172 626.669 270.056 603.884C270.251 602.348 273.965 589.572 274.534 588.142C276.875 582.261 273.837 576.682 273.837 576.682H273.836Z" fill="#390176"/>
<path d="M273.909 594.079C273.909 594.079 273.905 594.083 273.904 594.091C270.315 603.115 267.305 613.236 260.438 619.781C253.564 626.33 245.641 625.236 232.693 626.958C223.258 628.212 216.781 623.716 211.669 617.41C211.022 616.61 210.393 615.781 209.791 614.93L209.783 614.922C208.611 613.284 207.511 611.564 206.457 609.826C200.55 600.08 206.701 585.059 229.777 574.782C253.166 564.368 265.757 570.422 271.225 578.793L271.228 578.797C274.747 584.191 275.316 590.541 273.907 594.078L273.909 594.079Z" fill="#FFA300"/>
<path d="M273.908 594.079C270.315 603.107 267.307 613.233 260.435 619.781C253.56 626.33 245.638 625.236 232.69 626.957C223.255 628.211 216.778 623.716 211.666 617.41C211.669 617.41 211.669 617.414 211.673 617.414C218.153 620.601 228.811 624.479 250.828 616.475C261.444 612.616 269.561 587.996 271.221 578.797L271.225 578.801C274.743 584.194 275.313 590.545 273.904 594.081L273.908 594.079Z" fill="#FFF3E0"/>
<path d="M242.787 629.239C242.417 628.948 242.142 628.701 241.838 628.422C241.543 628.15 241.258 627.871 240.979 627.588C240.422 627.018 239.893 626.422 239.396 625.801C238.401 624.558 237.523 623.209 236.844 621.745C236.166 620.285 235.693 618.702 235.548 617.075C235.397 615.452 235.596 613.797 236.098 612.281C237.076 609.366 238.359 606.593 239.871 603.969C241.378 601.344 243.073 598.836 244.987 596.515C243.279 598.988 241.811 601.615 240.548 604.322C239.28 607.025 238.263 609.838 237.564 612.699C237.231 614.072 237.183 615.476 237.42 616.836C237.652 618.196 238.159 619.504 238.845 620.717C239.531 621.933 240.396 623.057 241.365 624.085C241.85 624.599 242.362 625.088 242.894 625.552C243.16 625.784 243.432 626.009 243.706 626.224C243.972 626.432 244.279 626.66 244.512 626.814L242.787 629.239Z" fill="#390176"/>
<path d="M226.492 630.302C226.122 630.011 225.846 629.764 225.543 629.486C225.247 629.213 224.963 628.935 224.683 628.651C224.127 628.081 223.598 627.486 223.101 626.864C222.106 625.621 221.228 624.272 220.549 622.809C219.871 621.349 219.397 619.766 219.253 618.139C219.101 616.515 219.301 614.86 219.802 613.345C220.78 610.43 222.063 607.656 223.576 605.033C225.083 602.408 226.778 599.899 228.692 597.578C226.983 600.051 225.515 602.678 224.253 605.385C222.984 608.089 221.967 610.901 221.268 613.762C220.936 615.135 220.888 616.54 221.124 617.899C221.357 619.259 221.864 620.567 222.55 621.781C223.236 622.996 224.101 624.12 225.07 625.148C225.554 625.662 226.066 626.152 226.599 626.616C226.865 626.848 227.137 627.072 227.411 627.287C227.677 627.495 227.984 627.723 228.217 627.877L226.492 630.302Z" fill="#390176"/>
<path d="M214.485 625.009C214.116 624.718 213.84 624.471 213.537 624.193C213.241 623.92 212.956 623.642 212.677 623.358C212.121 622.788 211.592 622.193 211.095 621.571C210.1 620.328 209.222 618.98 208.543 617.516C207.864 616.056 207.391 614.473 207.247 612.846C207.095 611.222 207.295 609.567 207.796 608.052C208.774 605.137 210.057 602.363 211.57 599.74C213.077 597.115 214.772 594.606 216.686 592.285C214.977 594.758 213.509 597.385 212.246 600.092C210.978 602.796 209.961 605.608 209.262 608.469C208.929 609.842 208.881 611.247 209.118 612.606C209.351 613.966 209.858 615.274 210.544 616.488C211.229 617.703 212.095 618.827 213.064 619.855C213.548 620.369 214.06 620.859 214.593 621.323C214.859 621.555 215.131 621.779 215.404 621.994C215.671 622.202 215.978 622.43 216.21 622.584L214.485 625.009Z" fill="#390176"/>
<g style="mix-blend-mode:multiply" opacity="0.6">
<path d="M273.902 594.09C270.313 603.114 267.303 613.235 260.436 619.78C253.562 626.33 245.639 625.235 232.691 626.957C223.256 628.211 216.779 623.716 211.667 617.409C211.02 616.61 210.391 615.78 209.789 614.929C210.058 615.155 218.82 622.409 226.632 622.255C234.562 622.101 248.815 620.649 256.052 615.25C263.172 609.934 273.578 594.569 273.9 594.092L273.902 594.09Z" fill="#B2A8C1"/>
</g>
<path d="M335.818 685.917L335.23 663.688L338.486 685.681L335.818 685.917Z" fill="#390176"/>
<path d="M333.247 653.704C333.258 648.858 333.267 644.014 333.278 639.168C334.512 639.259 335.129 639.298 336.364 639.365C337.564 639.43 338.478 639.795 339.11 640.474C339.742 641.153 340.07 642.09 340.09 643.292C340.134 646.02 340.158 647.383 340.203 650.111C340.225 651.476 339.899 652.471 339.223 653.09C338.544 653.71 337.557 653.988 336.266 653.91C335.057 653.838 334.454 653.797 333.247 653.704ZM335.37 641.268C335.383 644.81 335.396 648.354 335.408 651.895C335.806 651.921 336.006 651.933 336.403 651.957C337.01 651.992 337.439 651.868 337.69 651.587C337.941 651.307 338.064 650.853 338.056 650.226C338.027 647.419 338.01 646.016 337.98 643.209C337.975 642.636 337.853 642.188 337.616 641.862C337.379 641.537 336.954 641.359 336.337 641.326C335.95 641.303 335.756 641.292 335.37 641.27V641.268Z" fill="#390176"/>
<path d="M341.944 643.018C341.931 642.432 342.023 641.914 342.219 641.467C342.415 641.02 342.68 640.649 343.014 640.354C343.334 640.072 343.702 639.858 344.115 639.71C344.527 639.563 344.945 639.489 345.368 639.489C345.792 639.489 346.213 639.563 346.636 639.71C347.058 639.858 347.459 640.07 347.799 640.356C348.14 640.64 348.421 641.024 348.646 641.473C348.87 641.92 348.996 642.439 349.02 643.027C349.147 646.115 349.21 647.658 349.336 650.745C349.362 651.361 349.277 651.89 349.083 652.332C348.888 652.773 348.626 653.139 348.297 653.43C347.953 653.734 347.568 653.963 347.139 654.115C346.71 654.267 346.276 654.341 345.836 654.339C345.396 654.337 344.956 654.258 344.518 654.104C344.079 653.948 343.687 653.703 343.34 653.41C342.992 653.115 342.687 652.747 342.465 652.306C342.243 651.864 342.127 651.335 342.112 650.721C342.046 647.64 342.012 646.1 341.946 643.018H341.944ZM344.264 650.76C344.279 651.267 344.433 651.64 344.728 651.883C345.024 652.124 345.372 652.246 345.767 652.248C346.163 652.248 346.501 652.13 346.784 651.89C347.065 651.651 347.197 651.276 347.18 650.77C347.071 647.684 347.017 646.141 346.908 643.055C346.89 642.549 346.736 642.178 346.446 641.94C346.156 641.703 345.819 641.584 345.435 641.582C345.05 641.582 344.721 641.701 344.446 641.936C344.17 642.174 344.039 642.545 344.054 643.05C344.139 646.133 344.181 647.675 344.266 650.758L344.264 650.76Z" fill="#390176"/>
<path d="M350.754 642.985C350.726 642.397 350.806 641.874 350.991 641.415C351.176 640.957 351.433 640.571 351.76 640.258C352.074 639.957 352.435 639.723 352.845 639.554C353.254 639.386 353.67 639.289 354.093 639.269C354.517 639.246 354.94 639.298 355.365 639.425C355.79 639.551 356.195 639.744 356.543 640.011C356.889 640.278 357.181 640.649 357.416 641.087C357.65 641.525 357.787 642.039 357.826 642.627C357.845 642.924 357.856 643.07 357.874 643.367C357.029 643.426 356.608 643.454 355.763 643.504C355.744 643.208 355.737 643.061 355.718 642.764C355.689 642.258 355.524 641.892 355.23 641.669C354.934 641.445 354.594 641.345 354.21 641.363C353.825 641.384 353.5 641.519 353.23 641.772C352.96 642.024 352.84 642.402 352.865 642.909C353.024 645.998 353.104 647.543 353.265 650.633C353.291 651.139 353.455 651.506 353.757 651.735C354.058 651.961 354.407 652.067 354.803 652.048C355.199 652.03 355.535 651.892 355.811 651.636C356.086 651.38 356.208 651 356.179 650.492C356.114 649.389 356.081 648.838 356.016 647.738C355.337 647.777 354.997 647.796 354.319 647.827C354.278 647.087 354.258 646.718 354.217 645.978C355.744 645.903 356.506 645.859 358.031 645.751C358.152 647.594 358.211 648.514 358.331 650.356C358.372 650.972 358.299 651.508 358.116 651.961C357.933 652.414 357.678 652.796 357.358 653.104C357.022 653.427 356.643 653.677 356.218 653.851C355.792 654.026 355.36 654.124 354.92 654.145C354.48 654.165 354.038 654.109 353.596 653.976C353.154 653.842 352.755 653.618 352.401 653.341C352.046 653.063 351.732 652.712 351.499 652.28C351.266 651.848 351.137 651.325 351.109 650.709C350.967 647.619 350.896 646.076 350.756 642.987L350.754 642.985Z" fill="#390176"/>
<path d="M360.47 653.67C360.128 648.79 359.785 643.913 359.442 639.033C361.929 638.825 363.172 638.699 365.655 638.4C365.723 639.189 365.758 639.584 365.827 640.374C364.168 640.573 363.34 640.662 361.678 640.82C361.809 642.538 361.874 643.399 362.005 645.117C363.469 644.979 364.202 644.903 365.662 644.734C365.731 645.525 365.764 645.918 365.832 646.708C364.362 646.877 363.627 646.953 362.155 647.091C362.286 648.809 362.351 649.67 362.482 651.388C364.19 651.23 365.045 651.141 366.751 650.94C366.825 651.779 366.862 652.198 366.934 653.037C364.353 653.338 363.059 653.464 360.47 653.67Z" fill="#390176"/>
<path d="M368.336 652.867C367.89 647.989 367.447 643.11 367.001 638.232C367.8 638.13 368.199 638.076 368.998 637.963C370.366 640.913 371.059 642.383 372.472 645.312C372.489 645.31 372.496 645.309 372.513 645.307C373.271 642.041 373.637 640.405 374.347 637.127C375.151 636.987 375.552 636.915 376.355 636.767C376.926 641.639 377.497 646.511 378.069 651.381C377.209 651.537 376.778 651.613 375.915 651.758C375.519 648.201 375.319 646.422 374.924 642.865C374.907 642.869 374.9 642.869 374.883 642.872C374.33 645.527 374.045 646.854 373.463 649.502C373.034 649.568 372.82 649.602 372.391 649.667C371.291 647.279 370.749 646.08 369.676 643.681L369.636 643.687C369.982 647.247 370.153 649.027 370.499 652.585C369.634 652.704 369.201 652.759 368.336 652.867Z" fill="#390176"/>
<path d="M378.599 639.868C378.527 639.28 378.566 638.74 378.714 638.248C378.862 637.757 379.086 637.326 379.385 636.957C379.672 636.604 380.012 636.309 380.404 636.074C380.796 635.838 381.199 635.673 381.617 635.582C382.033 635.491 382.456 635.475 382.887 635.534C383.318 635.591 383.734 635.721 384.096 635.933C384.458 636.144 384.777 636.473 385.041 636.875C385.307 637.278 385.481 637.773 385.564 638.36C386 641.439 386.219 642.977 386.657 646.057C386.744 646.671 386.714 647.222 386.568 647.707C386.422 648.193 386.2 648.618 385.906 648.979C385.599 649.358 385.242 649.671 384.838 649.916C384.431 650.161 384.011 650.33 383.577 650.423C383.142 650.516 382.702 650.53 382.255 650.469C381.807 650.406 381.395 650.245 381.023 650.024C380.652 649.803 380.313 649.499 380.049 649.102C379.786 648.705 379.616 648.198 379.54 647.582C379.163 644.497 378.975 642.953 378.596 639.868H378.599ZM381.67 647.157C381.735 647.664 381.925 648.007 382.242 648.187C382.558 648.367 382.911 648.415 383.301 648.332C383.691 648.248 384.013 648.055 384.266 647.753C384.52 647.452 384.61 647.048 384.542 646.542C384.122 643.46 383.913 641.92 383.493 638.838C383.425 638.334 383.235 637.992 382.926 637.814C382.617 637.638 382.273 637.59 381.894 637.671C381.515 637.753 381.203 637.944 380.957 638.241C380.709 638.54 380.618 638.94 380.683 639.445C381.079 642.528 381.277 644.07 381.672 647.156L381.67 647.157Z" fill="#390176"/>
<path d="M394.177 636.865C393.354 637.105 392.944 637.222 392.119 637.452C392.09 637.264 392.075 637.17 392.044 636.982C391.968 636.505 391.79 636.125 391.515 635.839C391.239 635.554 390.84 635.483 390.317 635.624C390.036 635.7 389.816 635.815 389.658 635.971C389.501 636.127 389.376 636.301 389.298 636.492C389.215 636.693 389.174 636.917 389.168 637.153C389.163 637.389 389.178 637.628 389.215 637.875C389.259 638.16 389.305 638.396 389.353 638.582C389.403 638.767 389.479 638.925 389.583 639.053C389.686 639.181 389.825 639.281 389.997 639.348C390.169 639.416 390.4 639.468 390.688 639.505C391.361 639.589 391.7 639.63 392.374 639.708C392.863 639.758 393.269 639.86 393.593 640.018C393.916 640.175 394.199 640.387 394.399 640.652C394.604 640.921 394.765 641.277 394.889 641.676C395.013 642.075 395.118 642.539 395.205 643.07C395.307 643.682 395.34 644.266 395.303 644.827C395.266 645.385 395.14 645.89 394.924 646.335C394.699 646.797 394.366 647.205 393.929 647.552C393.493 647.899 392.935 648.166 392.256 648.346C391.742 648.483 391.25 648.519 390.779 648.456C390.307 648.392 389.888 648.244 389.522 648.01C389.156 647.777 388.849 647.474 388.601 647.105C388.353 646.736 388.194 646.303 388.122 645.814C388.076 645.502 388.054 645.348 388.009 645.036C388.852 644.83 389.274 644.725 390.115 644.507C390.154 644.769 390.174 644.901 390.215 645.162C390.272 645.545 390.439 645.858 390.712 646.107C390.988 646.353 391.395 646.407 391.933 646.264C392.291 646.168 392.563 646.042 392.746 645.886C392.929 645.73 393.06 645.541 393.142 645.32C393.221 645.099 393.251 644.853 393.229 644.582C393.207 644.311 393.17 644.012 393.118 643.686C393.057 643.305 392.992 642.995 392.927 642.758C392.861 642.52 392.776 642.329 392.668 642.211C392.558 642.088 392.404 641.999 392.232 641.947C392.06 641.895 391.836 641.849 391.559 641.81C390.923 641.726 390.605 641.682 389.971 641.593C389.015 641.459 388.338 641.123 387.943 640.593C387.547 640.062 387.283 639.339 387.149 638.426C387.07 637.88 387.068 637.344 387.144 636.815C387.22 636.288 387.386 635.808 387.621 635.379C387.852 634.96 388.166 634.58 388.568 634.255C388.969 633.93 389.47 633.687 390.071 633.526C390.577 633.389 391.054 633.357 391.505 633.429C391.955 633.504 392.358 633.652 392.717 633.876C393.436 634.353 393.868 635.012 394.007 635.854C394.075 636.262 394.109 636.466 394.175 636.875L394.177 636.865Z" fill="#390176"/>
<path d="M397.528 646.728C396.704 641.891 395.881 637.054 395.056 632.219C395.868 631.974 396.273 631.848 397.081 631.592C397.931 636.423 398.784 641.254 399.634 646.084C398.793 646.347 398.371 646.475 397.528 646.728Z" fill="#390176"/>
<path d="M406.361 632.829C405.553 633.13 405.15 633.278 404.34 633.567C404.303 633.382 404.285 633.287 404.249 633.102C404.157 632.629 403.968 632.259 403.684 631.992C403.399 631.725 403.001 631.682 402.487 631.862C402.21 631.959 401.996 632.091 401.846 632.257C401.694 632.424 401.578 632.61 401.506 632.807C401.43 633.014 401.397 633.243 401.4 633.48C401.402 633.718 401.426 633.957 401.472 634.202C401.526 634.486 401.58 634.72 401.635 634.903C401.69 635.087 401.772 635.239 401.879 635.36C401.986 635.482 402.127 635.571 402.301 635.627C402.474 635.682 402.706 635.72 402.992 635.734C403.663 635.77 404 635.786 404.673 635.814C405.159 635.829 405.566 635.901 405.893 636.037C406.22 636.17 406.507 636.365 406.716 636.616C406.928 636.872 407.1 637.217 407.237 637.608C407.374 638 407.494 638.46 407.6 638.985C407.722 639.592 407.775 640.178 407.757 640.742C407.74 641.306 407.633 641.822 407.433 642.284C407.226 642.764 406.91 643.198 406.488 643.579C406.069 643.959 405.523 644.267 404.854 644.499C404.349 644.673 403.861 644.746 403.391 644.718C402.922 644.69 402.5 644.569 402.129 644.362C401.757 644.154 401.443 643.872 401.182 643.519C400.923 643.165 400.749 642.744 400.661 642.256C400.605 641.946 400.577 641.792 400.52 641.484C401.35 641.215 401.764 641.078 402.593 640.799L402.715 641.449C402.785 641.827 402.961 642.132 403.242 642.362C403.523 642.59 403.93 642.614 404.458 642.43C404.811 642.308 405.076 642.161 405.253 641.991C405.431 641.82 405.555 641.621 405.625 641.393C405.697 641.165 405.716 640.916 405.686 640.645C405.655 640.375 405.608 640.078 405.544 639.753C405.47 639.375 405.396 639.068 405.322 638.835C405.248 638.601 405.155 638.415 405.046 638.304C404.933 638.189 404.776 638.111 404.603 638.07C404.431 638.029 404.207 638.002 403.931 637.981C403.297 637.942 402.981 637.922 402.347 637.879C401.393 637.814 400.711 637.525 400.298 637.022C399.888 636.517 399.599 635.81 399.435 634.903C399.337 634.361 399.316 633.822 399.374 633.285C399.431 632.749 399.579 632.256 399.799 631.809C400.014 631.371 400.311 630.964 400.699 630.61C401.088 630.256 401.576 629.975 402.166 629.768C402.663 629.593 403.136 629.526 403.586 629.567C404.035 629.608 404.44 629.729 404.804 629.927C405.534 630.354 405.986 630.983 406.154 631.82C406.235 632.224 406.276 632.426 406.357 632.831L406.361 632.829Z" fill="#390176"/>
<path d="M385.386 589.443C384.494 587.684 382.479 586.201 379.114 584.823C376.417 583.73 373.721 583.383 371.726 583.869C371.326 583.968 370.971 584.09 370.624 584.251C369.753 584.65 369.087 585.485 368.775 586.569C368.39 587.856 368.557 589.419 369.145 590.244C369.348 590.493 369.601 590.803 369.882 591.068C369.666 591.272 369.463 591.461 369.272 591.634C368.986 591.89 368.725 592.111 368.49 592.302C365.992 592.023 363.383 592.174 360.764 592.816C348.908 595.714 341.222 607.476 343.593 619.091C345.963 630.705 357.489 637.768 369.344 634.868C381.2 631.97 388.886 620.208 386.515 608.593C385.646 604.337 383.542 600.695 380.645 597.929C380.665 597.118 380.749 596.248 380.883 595.354C381.42 595.372 381.943 595.318 382.45 595.194C383.79 594.866 384.842 594.049 385.371 592.914C385.9 591.778 385.929 590.428 385.386 589.443ZM344.391 615.319C344.391 615.339 344.391 615.36 344.391 615.38C344.391 615.339 344.391 615.3 344.39 615.259C344.39 615.28 344.39 615.3 344.39 615.319H344.391Z" fill="#390176"/>
<path d="M370.416 632.941C364.74 634.703 359.208 634.26 358.975 634.24L358.419 634.193L357.295 630.074C356.328 629.366 352.813 626.57 351.775 622.766C351.422 621.473 351.188 620.404 351.032 619.406C350.807 617.948 350.76 616.642 350.892 615.415C351.053 613.896 351.487 612.495 352.221 611.131C354.072 607.688 354.615 605.111 354.035 602.514C353.406 599.695 353.746 598.061 355.044 597.658C355.612 597.482 356.248 597.608 356.989 598.042C358.474 598.91 359.731 600.167 360.319 600.801C361.802 600.374 366.082 599.176 368.185 598.933C368.789 597.799 370.461 594.768 371.943 592.985C373.01 591.703 373.931 590.975 374.841 590.693C376.03 590.324 377.146 590.704 378.16 591.819L378.285 591.959V591.964C378.354 592.04 378.418 592.122 378.485 592.207C379.861 593.968 380.589 597.076 381.173 599.575C381.401 600.545 381.597 601.384 381.783 601.918C382.294 603.384 382.63 604.514 382.773 605.007C383.573 605.625 385.888 607.792 385.862 612.126C385.862 612.321 385.857 612.525 385.847 612.734C385.727 615.796 384.599 623.584 376.771 629.726C375.029 631.091 372.892 632.175 370.414 632.943L370.416 632.941Z" fill="#390176"/>
<path d="M385.02 612.157C385.02 612.346 385.014 612.539 385.005 612.736C384.818 617.454 382.657 624.064 376.267 629.079C369.611 634.302 359.083 633.408 359.083 633.408L358.031 629.549C358.031 629.549 353.705 626.612 352.584 622.512C352.276 621.376 352.022 620.291 351.861 619.239C351.66 617.933 351.595 616.682 351.726 615.46C351.869 614.111 352.255 612.797 352.958 611.491C354.809 608.047 355.515 605.246 354.855 602.292C354.197 599.34 354.613 597.634 356.535 598.758C358.458 599.882 360.013 601.741 360.013 601.741C360.013 601.741 366.656 599.778 368.698 599.719C368.698 599.719 370.811 595.619 372.58 593.493C374.257 591.479 375.827 590.524 377.521 592.389C377.617 592.494 377.713 592.608 377.807 592.73C379.612 595.04 380.307 600.276 380.984 602.218C381.66 604.161 382.034 605.526 382.034 605.526C382.034 605.526 385.048 607.415 385.018 612.159L385.02 612.157Z" fill="#FFA300"/>
<path d="M385.01 612.737C384.823 617.455 382.662 624.065 376.272 629.08C369.616 634.303 359.088 633.408 359.088 633.408L358.036 629.549C358.036 629.549 353.71 626.612 352.589 622.512C351.896 619.969 351.493 617.666 351.731 615.462C352.93 613.8 353.649 614.006 354.49 615.34C355.333 616.672 355.228 617.104 357.637 616.245C360.046 615.386 361.664 615.391 366.17 616.289C370.675 617.187 371.552 614.475 374.604 611.662C377.657 608.85 379.842 609.319 381.987 609.89C384.132 610.462 385.01 612.737 385.01 612.737Z" fill="#FFF3E0"/>
<path d="M374.314 593.384C374.314 593.384 377.167 597.376 377.256 600.935C377.256 600.935 373.834 599.701 371.153 600.104C371.153 600.104 373.281 599.362 374.372 598.172C375.843 596.568 374.314 593.384 374.314 593.384Z" fill="#390176"/>
<g style="mix-blend-mode:multiply" opacity="0.6">
<path d="M385.02 612.159C385.02 612.349 385.015 612.541 385.005 612.738C384.819 617.456 382.657 624.067 376.267 629.082C369.611 634.304 359.083 633.41 359.083 633.41L358.031 629.551C358.031 629.551 353.705 626.614 352.584 622.514C352.276 621.378 352.022 620.293 351.862 619.241C352.464 618.137 353.723 619.146 354.526 620.475C355.33 621.803 357.207 624.377 357.595 624.469C357.983 624.56 358.281 623.469 357.71 622.987C357.137 622.503 356.197 620.675 356.197 620.675C356.197 620.675 362.184 618.386 362.238 618.944C362.291 619.501 361.019 622.193 362.069 623.083C363.12 623.972 364.847 623.3 366.734 622.141C368.622 620.981 369.01 619.712 370.689 618.961C372.368 618.209 373.021 617.178 375.4 615.666C377.78 614.157 381.753 614.18 381.753 614.18C382.711 610.152 380.472 606.256 378.423 603.591C376.375 600.927 371.155 600.109 371.155 600.109C373.457 599.395 375.57 599.599 377.153 599.86C378.736 600.122 379.081 600.087 378.993 598.68C378.902 597.274 378.497 595.248 377.525 592.395C377.621 592.498 377.717 592.612 377.811 592.734C379.616 595.044 380.311 600.28 380.988 602.222C381.664 604.165 382.038 605.53 382.038 605.53C382.038 605.53 385.051 607.419 385.022 612.163L385.02 612.159Z" fill="#DBB89E"/>
</g>
<path d="M369.46 612.468C369.044 612.597 368.659 612.701 368.317 612.779C367.712 612.917 365.876 613.332 365.542 612.106C365.296 611.202 365.864 609.694 367.1 608.885C367.374 608.707 367.672 608.568 367.984 608.469C368.062 608.445 368.143 608.423 368.226 608.403C370.312 607.911 371.192 608.74 371.728 609.519C371.793 609.612 371.843 609.716 371.874 609.824C371.934 610.017 371.941 610.228 371.891 610.447V610.458C371.885 610.471 371.876 610.508 371.876 610.508C371.652 611.328 370.734 612.071 369.462 612.466L369.46 612.468Z" fill="#390176"/>
<path d="M371.602 609.916C371.65 610.07 371.654 610.241 371.613 610.417C371.613 610.417 371.613 610.421 371.613 610.424C371.46 611.066 370.722 611.792 369.389 612.205C368.992 612.328 368.616 612.432 368.269 612.512C366.947 612.812 366.015 612.757 365.815 612.024C365.614 611.285 366.074 609.884 367.25 609.116C367.548 608.922 367.891 608.768 368.282 608.675C370.214 608.218 371.009 608.975 371.495 609.686C371.545 609.758 371.582 609.834 371.606 609.916H371.602Z" fill="#FFF3E0"/>
<path d="M371.603 609.916C371.625 610.085 371.629 610.252 371.614 610.417C371.614 610.417 371.614 610.421 371.614 610.424C371.461 611.066 370.723 611.792 369.39 612.205C368.992 612.328 368.617 612.432 368.27 612.512C367.635 612.261 367.132 611.734 366.94 611.029C366.759 610.363 366.89 609.675 367.249 609.116C367.547 608.922 367.891 608.768 368.281 608.675C370.213 608.218 371.008 608.975 371.494 609.686C371.544 609.758 371.581 609.834 371.605 609.916H371.603Z" fill="#390176"/>
<path d="M369.805 609.808C370.025 609.641 370.074 609.336 369.916 609.126C369.758 608.916 369.451 608.881 369.231 609.048C369.011 609.215 368.962 609.521 369.12 609.731C369.279 609.941 369.585 609.975 369.805 609.808Z" fill="#FFF3E0"/>
<path d="M356.497 619.431L355.821 618.967C356.888 617.491 358.799 612.066 358.818 612.012L359.611 612.251C359.532 612.479 357.638 617.85 356.497 619.429V619.431Z" fill="#390176"/>
<path d="M357.88 614.286C357.819 614.304 357.757 614.321 357.692 614.334C357.076 614.458 356.435 614.275 356.059 613.863C355.75 613.525 355.66 613.08 355.804 612.61C355.917 612.247 356.048 611.946 356.209 611.696C356.497 611.243 356.886 610.946 357.392 610.788C357.551 610.74 357.723 610.701 357.923 610.673C358.485 610.594 359.236 610.876 359.519 611.484C359.735 611.952 359.752 612.746 358.589 613.868C358.389 614.061 358.15 614.202 357.879 614.286H357.88Z" fill="#390176"/>
<path d="M358.402 613.673C358.188 613.881 357.925 614.007 357.653 614.061C356.762 614.241 355.779 613.651 356.076 612.679C356.182 612.334 356.306 612.057 356.448 611.837C356.827 611.241 357.335 611.035 357.955 610.948C358.803 610.827 360.379 611.766 358.404 613.673H358.402Z" fill="#FFF3E0"/>
<path d="M358.402 613.672C358.187 613.88 357.925 614.006 357.653 614.06C357.069 613.913 356.586 613.476 356.418 612.858C356.324 612.513 356.34 612.158 356.448 611.834C356.827 611.238 357.335 611.032 357.955 610.945C358.803 610.824 360.378 611.763 358.404 613.67L358.402 613.672Z" fill="#390176"/>
<path d="M358.472 611.908C358.597 611.813 358.625 611.638 358.535 611.518C358.444 611.398 358.269 611.377 358.143 611.473C358.018 611.568 357.989 611.743 358.08 611.863C358.171 611.983 358.346 612.004 358.472 611.908Z" fill="#FFF3E0"/>
<path d="M356.2 620.675C355.026 619.417 355.995 618.042 357.245 617.639C358.494 617.237 359.863 616.541 360.998 616.827C362.133 617.112 362.747 618.497 361.843 619.925C360.939 621.356 360.343 622.402 359.188 622.473C358.032 622.545 356.614 621.118 356.2 620.675Z" fill="#390176"/>
<path d="M357.172 620.515C357.098 620.538 357.016 620.532 356.948 620.491C356.915 620.471 356.12 619.99 356.277 619.23C356.354 618.857 356.831 618.161 358.129 617.924C358.283 617.896 358.423 617.996 358.446 618.146C358.466 618.296 358.359 618.441 358.205 618.469C357.177 618.656 356.861 619.143 356.826 619.315C356.748 619.694 357.249 620.007 357.253 620.011C357.382 620.089 357.419 620.258 357.334 620.391C357.296 620.452 357.236 620.495 357.172 620.515Z" fill="#FFF3E0"/>
<path d="M359.916 624.602C359.692 624.672 359.461 624.55 359.402 624.331L358.773 622.027C358.714 621.808 358.847 621.574 359.071 621.503C359.295 621.433 359.526 621.555 359.585 621.774L360.214 624.079C360.273 624.297 360.14 624.531 359.916 624.602Z" fill="#390176"/>
<path d="M365.535 624.554C364.359 624.92 363.145 624.855 361.029 624.58C359.826 624.424 359.365 624.842 358.877 625.282C358.533 625.593 358.143 625.946 357.539 625.983C356.161 626.068 355.216 623.003 354.959 622.061C354.9 621.842 355.033 621.608 355.257 621.538C355.481 621.467 355.712 621.59 355.771 621.808C356.257 623.584 357.093 625.178 357.524 625.152C357.807 625.135 358.003 624.97 358.324 624.679C358.851 624.2 359.574 623.547 361.174 623.753C363.455 624.048 364.6 624.089 365.777 623.59C366.763 623.17 368.612 621.142 369.24 620.397C369.394 620.217 369.658 620.185 369.834 620.328C370.01 620.471 370.028 620.732 369.876 620.912C369.631 621.204 367.438 623.775 366.079 624.352C365.896 624.43 365.715 624.497 365.533 624.552L365.535 624.554Z" fill="#390176"/>
<path d="M365.273 628.071C360.71 629.487 358.85 626.886 358.765 626.759C358.637 626.574 358.691 626.312 358.885 626.179C359.079 626.043 359.338 626.084 359.466 626.268C359.551 626.388 361.564 629.129 366.845 626.559C367.057 626.457 367.305 626.539 367.399 626.745C367.494 626.95 367.399 627.201 367.187 627.303C366.503 627.635 365.865 627.887 365.273 628.071Z" fill="#390176"/>
<path d="M366.348 606.189C365.581 607.144 366.099 608.326 367.778 607.566C369.455 606.805 369.948 605.382 368.854 605.137C367.759 604.892 367.117 605.234 366.35 606.189H366.348Z" fill="#FFF3E0"/>
<path d="M359.275 608.462C359.913 609.166 359.543 610.232 358.192 609.817C356.84 609.401 356.404 608.268 357.262 607.913C358.12 607.559 358.638 607.761 359.277 608.462H359.275Z" fill="#FFF3E0"/>
<path d="M360.433 601.567C360.264 601.623 360.074 601.695 359.895 601.77C359.713 601.844 359.532 601.924 359.355 602.009C358.998 602.178 358.648 602.367 358.308 602.573C357.97 602.783 357.646 603.016 357.339 603.274C357.036 603.536 356.757 603.827 356.509 604.152C356.698 603.794 356.927 603.452 357.191 603.133C357.46 602.82 357.754 602.521 358.066 602.246C358.38 601.974 358.711 601.716 359.053 601.476C359.225 601.356 359.399 601.241 359.578 601.129C359.76 601.016 359.933 600.912 360.135 600.807L360.431 601.571L360.433 601.567Z" fill="#390176"/>
<path d="M357.934 629.508C358.061 629.621 358.215 629.742 358.364 629.853C358.514 629.966 358.669 630.074 358.828 630.179C359.145 630.389 359.474 630.58 359.816 630.753C360.158 630.923 360.515 631.066 360.884 631.185C361.256 631.296 361.641 631.371 362.038 631.4C361.639 631.439 361.232 631.435 360.831 631.389C360.431 631.335 360.034 631.254 359.646 631.142C359.259 631.027 358.878 630.892 358.509 630.732C358.324 630.653 358.139 630.569 357.958 630.48C357.775 630.389 357.601 630.3 357.412 630.187L357.934 629.51V629.508Z" fill="#390176"/>
<path d="M382.07 605.531C381.824 605.162 381.558 604.791 381.288 604.428C381.018 604.064 380.739 603.708 380.448 603.361C380.16 603.012 379.857 602.674 379.535 602.355C379.212 602.038 378.877 601.728 378.479 601.496C378.912 601.665 379.3 601.925 379.677 602.194C380.053 602.465 380.411 602.758 380.757 603.064C381.105 603.368 381.443 603.684 381.772 604.006C382.103 604.331 382.425 604.658 382.743 605.003L382.068 605.531H382.07Z" fill="#390176"/>
</g>
</g>
</g>
<defs>
<radialGradient id="paint0_radial_1082_34249" cx="0" cy="0" r="1" gradientUnits="userSpaceOnUse" gradientTransform="translate(214.295 681.17) rotate(-90) scale(578.944 1152.3)">
<stop stop-color="#F530E4"/>
<stop offset="0.298236" stop-color="#7E1BFD" stop-opacity="0.85"/>
<stop offset="0.631636" stop-color="#2F0F64" stop-opacity="0.446602"/>
<stop offset="1" stop-color="#140F34" stop-opacity="0"/>
</radialGradient>
<radialGradient id="paint1_radial_1082_34249" cx="0" cy="0" r="1" gradientUnits="userSpaceOnUse" gradientTransform="translate(383.5 667) rotate(-90) scale(182.185 394.075)">
<stop stop-color="#CA2EBD"/>
<stop offset="1" stop-color="#170F4F" stop-opacity="0"/>
</radialGradient>
<radialGradient id="paint2_radial_1082_34249" cx="0" cy="0" r="1" gradientUnits="userSpaceOnUse" gradientTransform="translate(268.5 533.398) rotate(-140.188) scale(243.443 291.898)">
<stop stop-color="#F7752F"/>
<stop offset="1" stop-color="#27094C" stop-opacity="0"/>
</radialGradient>
<linearGradient id="paint3_linear_1082_34249" x1="329.025" y1="120.463" x2="329.025" y2="614.5" gradientUnits="userSpaceOnUse">
<stop stop-color="#D9D9D9" stop-opacity="0"/>
<stop offset="1" stop-color="#737373"/>
</linearGradient>
<linearGradient id="paint4_linear_1082_34249" x1="507.701" y1="508.963" x2="598.347" y2="722.974" gradientUnits="userSpaceOnUse">
<stop stop-color="#1B0939"/>
<stop offset="1" stop-color="#DD35E6"/>
</linearGradient>
<linearGradient id="paint5_linear_1082_34249" x1="575.916" y1="686.878" x2="489.038" y2="656.31" gradientUnits="userSpaceOnUse">
<stop stop-color="#FAA185"/>
<stop offset="0.300609" stop-color="#FA825D" stop-opacity="0.55"/>
<stop offset="1" stop-color="#CA2EBD" stop-opacity="0"/>
</linearGradient>
<linearGradient id="paint6_linear_1082_34249" x1="572.005" y1="529.322" x2="572.005" y2="448.365" gradientUnits="userSpaceOnUse">
<stop offset="0.0663438" stop-color="#291A87"/>
<stop offset="0.575691" stop-color="#FF8642"/>
<stop offset="1" stop-color="#D44ABE"/>
</linearGradient>
<linearGradient id="paint7_linear_1082_34249" x1="452.013" y1="478.531" x2="573.154" y2="518.931" gradientUnits="userSpaceOnUse">
<stop stop-color="#F3E0FA"/>
<stop offset="0.329161" stop-color="#FF8642"/>
<stop offset="0.606741" stop-color="#CA36FE"/>
<stop offset="1" stop-color="#492CE1"/>
</linearGradient>
<linearGradient id="paint8_linear_1082_34249" x1="143.938" y1="508.9" x2="180.192" y2="546.714" gradientUnits="userSpaceOnUse">
<stop stop-color="#291A87"/>
<stop offset="1" stop-color="#D44ABE"/>
</linearGradient>
<linearGradient id="paint9_linear_1082_34249" x1="83.9029" y1="361.542" x2="83.9029" y2="512.409" gradientUnits="userSpaceOnUse">
<stop offset="0.0663438" stop-color="#291A87"/>
<stop offset="0.575691" stop-color="#FF8642"/>
<stop offset="1" stop-color="#D44ABE"/>
</linearGradient>
<linearGradient id="paint10_linear_1082_34249" x1="214.499" y1="472.646" x2="92.4808" y2="471.086" gradientUnits="userSpaceOnUse">
<stop stop-color="#F3E0FA"/>
<stop offset="0.329161" stop-color="#FF8642"/>
<stop offset="0.606741" stop-color="#CA36FE"/>
<stop offset="1" stop-color="#492CE1"/>
</linearGradient>
<linearGradient id="paint11_linear_1082_34249" x1="214.499" y1="472.646" x2="92.4808" y2="471.086" gradientUnits="userSpaceOnUse">
<stop stop-color="#F3E0FA"/>
<stop offset="0.329161" stop-color="#FF8642"/>
<stop offset="0.606741" stop-color="#CA36FE"/>
<stop offset="1" stop-color="#492CE1"/>
</linearGradient>
<linearGradient id="paint12_linear_1082_34249" x1="90.0976" y1="616.677" x2="76.2694" y2="729.938" gradientUnits="userSpaceOnUse">
<stop stop-color="#291A87"/>
<stop offset="0.508576" stop-color="#FF8642"/>
<stop offset="1" stop-color="#D44ABE"/>
</linearGradient>
<linearGradient id="paint13_linear_1082_34249" x1="181.285" y1="553.823" x2="85.0834" y2="594.099" gradientUnits="userSpaceOnUse">
<stop stop-color="#F5DFC1"/>
<stop offset="0.508576" stop-color="#FF8642"/>
<stop offset="1" stop-color="#D44ABE"/>
</linearGradient>
<linearGradient id="paint14_linear_1082_34249" x1="90.8773" y1="601.387" x2="90.8773" y2="677.795" gradientUnits="userSpaceOnUse">
<stop stop-color="#291A87"/>
<stop offset="0.508576" stop-color="#FF8642"/>
<stop offset="1" stop-color="#D44ABE"/>
</linearGradient>
<linearGradient id="paint15_linear_1082_34249" x1="228.098" y1="577.217" x2="77.9387" y2="672.495" gradientUnits="userSpaceOnUse">
<stop stop-color="#F3E0FA"/>
<stop offset="0.329161" stop-color="#FF8642"/>
<stop offset="0.606741" stop-color="#CA36FE"/>
<stop offset="1" stop-color="#492CE1"/>
</linearGradient>
<clipPath id="clip0_1082_34249">
<rect width="608" height="668" fill="white"/>
</clipPath>
<clipPath id="clip1_1082_34249">
<rect width="609" height="445" fill="white" transform="translate(0 223)"/>
</clipPath>
<clipPath id="clip2_1082_34249">
<rect width="243.094" height="327.527" fill="white" transform="translate(201 368)"/>
</clipPath>
</defs>
</svg>
