<svg width="342" height="756" viewBox="0 0 342 756" fill="none" xmlns="http://www.w3.org/2000/svg">
<g clip-path="url(#clip0_1023_38489)">
<rect width="342" height="756" transform="matrix(-1 0 0 1 342 0.179688)" fill="url(#paint0_radial_1023_38489)"/>
<rect width="342" height="756" transform="matrix(-1 0 0 1 342 0.179688)" fill="url(#paint1_radial_1023_38489)"/>
<rect width="342" height="756" transform="matrix(-1 0 0 1 342 0.179688)" fill="url(#paint2_radial_1023_38489)"/>
<g clip-path="url(#clip1_1023_38489)">
<g opacity="0.15">
<mask id="mask0_1023_38489" style="mask-type:alpha" maskUnits="userSpaceOnUse" x="-151" y="219" width="687" height="688">
<circle cx="192.5" cy="562.68" r="343.5" fill="url(#paint3_linear_1023_38489)"/>
</mask>
<g mask="url(#mask0_1023_38489)">
<path d="M118.054 554.625L-275.053 162.031" stroke="white" stroke-width="0.942597"/>
<path d="M118.054 637.253L-275.053 902.973" stroke="white" stroke-width="0.942597"/>
<path d="M118.055 620.839L-275.053 750.773" stroke="white" stroke-width="0.942597"/>
<path d="M118.055 602.755L-275.053 615.028" stroke="white" stroke-width="0.942597"/>
<path d="M118.298 584.691L-275.053 465.4" stroke="white" stroke-width="0.942597"/>
<path d="M118.054 568.257L-275.053 319.886" stroke="white" stroke-width="0.942597"/>
<path d="M118.054 655.893L-275.053 1049" stroke="white" stroke-width="0.942597"/>
<path d="M219.045 655.893L611.917 1049" stroke="white" stroke-width="0.942597"/>
<path d="M200.054 655.649L465.888 1049" stroke="white" stroke-width="0.942597"/>
<path d="M183.6 655.649L313.689 1049" stroke="white" stroke-width="0.942597"/>
<path d="M165.604 655.135L177.944 1049" stroke="white" stroke-width="0.942597"/>
<path d="M147.607 655.649L28.3164 1049" stroke="white" stroke-width="0.942597"/>
<path d="M131.667 655.135L-117.199 1049" stroke="white" stroke-width="0.942597"/>
<path d="M219.045 554.903L611.875 161.517" stroke="white" stroke-width="0.942597"/>
<path d="M200.056 554.868L465.89 161.517" stroke="white" stroke-width="0.942597"/>
<path d="M183.6 554.868L313.689 161.517" stroke="white" stroke-width="0.942597"/>
<path d="M165.628 554.624L177.944 161.517" stroke="white" stroke-width="0.942597"/>
<path d="M147.267 554.624L28.1943 161.517" stroke="white" stroke-width="0.942597"/>
<path d="M131.131 554.624L-117.197 161.517" stroke="white" stroke-width="0.942597"/>
<path d="M219.321 637.807L612.429 903.484" stroke="white" stroke-width="0.942597"/>
<path d="M219.321 621.116L612.429 751.287" stroke="white" stroke-width="0.942597"/>
<path d="M219.321 603.311L612.429 615.542" stroke="white" stroke-width="0.942597"/>
<path d="M219.321 584.949L612.429 465.914" stroke="white" stroke-width="0.942597"/>
<path d="M219.321 569.091L612.429 320.399" stroke="white" stroke-width="0.942597"/>
<rect x="118.255" y="554.826" width="100.866" height="100.866" stroke="white" stroke-width="0.942597"/>
<rect x="112.087" y="548.655" width="113.206" height="113.206" stroke="white" stroke-width="0.942597"/>
<rect x="99.7447" y="536.315" width="137.887" height="137.887" stroke="white" stroke-width="0.942597"/>
<rect x="88.7584" y="524.215" width="160.512" height="160.512" stroke="white" stroke-width="0.942597"/>
<rect x="77.1217" y="513.691" width="183.136" height="183.136" stroke="white" stroke-width="0.942597"/>
<rect x="63.7506" y="500.321" width="209.873" height="209.873" stroke="white" stroke-width="0.942597"/>
<rect x="43.1852" y="479.755" width="251.008" height="251.008" stroke="white" stroke-width="0.942597"/>
<rect x="23.6461" y="460.215" width="290.086" height="290.086" stroke="white" stroke-width="0.942597"/>
<rect x="-1.03651" y="435.536" width="339.448" height="339.448" stroke="white" stroke-width="0.942597"/>
<rect x="-28.8021" y="407.768" width="394.98" height="394.98" stroke="white" stroke-width="0.942597"/>
<rect x="-62.7377" y="373.833" width="462.852" height="462.852" stroke="white" stroke-width="0.942597"/>
<rect x="-102.844" y="333.726" width="543.065" height="543.065" stroke="white" stroke-width="0.942597"/>
<rect x="-149.121" y="287.449" width="635.618" height="635.618" stroke="white" stroke-width="0.942597"/>
<rect x="-206.708" y="229.86" width="750.796" height="750.796" stroke="white" stroke-width="0.942597"/>
</g>
</g>
<path d="M350.879 617.813L284.286 615.804L283.999 687.851L350.879 733.777V617.813Z" fill="url(#paint4_linear_1023_38489)" stroke="#9084CF" stroke-opacity="0.25"/>
<path d="M351.166 708.805L310.693 687.758V616.378" stroke="#9084CF" stroke-opacity="0.25" stroke-width="0.754078"/>
<path d="M350.879 692.73L340.546 687.614V617.812" stroke="#9084CF" stroke-opacity="0.25" stroke-width="0.754078"/>
<path d="M284.286 687.562H351.166" stroke="#9084CF" stroke-opacity="0.25" stroke-width="0.754078"/>
<path d="M284.286 650.822H351.166" stroke="#9084CF" stroke-opacity="0.25" stroke-width="0.754078"/>
<path d="M304.953 702.49H350.879" stroke="#9084CF" stroke-opacity="0.25" stroke-width="0.754078"/>
<path d="M350.879 617.813L265.055 615.804L269.647 740.953L350.879 733.777V617.813Z" fill="url(#paint5_linear_1023_38489)"/>
<path d="M343.338 559.798C343.222 559.802 343.109 559.83 342.998 559.863L285.637 577.015C285.526 577.048 285.412 577.07 285.3 577.097C284.535 577.282 283.983 577.969 283.983 578.771L283.983 615.803C283.983 616.732 284.72 617.494 285.648 617.525L343.342 619.188C344.316 619.221 345.122 618.441 345.122 617.467V561.519C345.122 560.533 344.3 559.762 343.338 559.798Z" fill="url(#paint6_linear_1023_38489)"/>
<path d="M29.8099 597.189L55.3238 621.662C56.4471 622.739 57.9433 623.341 59.4997 623.341H66.8115L59.5781 598.594L29.8099 597.189Z" fill="url(#paint7_linear_1023_38489)"/>
<path d="M8.38786 494.809H0.473513C-1.60881 494.809 -3.29688 496.497 -3.29688 498.579V601.765C-3.29688 603.847 -1.60881 605.535 0.473517 605.535H8.38786V494.809Z" fill="url(#paint8_linear_1023_38489)"/>
<mask id="mask1_1023_38489" style="mask-type:alpha" maskUnits="userSpaceOnUse" x="6" y="494" width="62" height="130">
<path d="M67.9254 534.928C67.9254 534.37 67.647 533.85 67.1835 533.54L9.31624 494.874C8.20705 494.133 6.7196 494.928 6.7196 496.262V603.835C6.7196 604.769 7.48558 605.521 8.4192 605.504L45.3236 604.833C45.7609 604.825 46.1838 604.989 46.5014 605.29L65.1087 622.9C66.1728 623.907 67.9254 623.153 67.9254 621.688V534.928Z" fill="url(#paint9_linear_1023_38489)"/>
</mask>
<g mask="url(#mask1_1023_38489)">
<path d="M67.9254 534.928C67.9254 534.37 67.647 533.85 67.1835 533.54L9.31624 494.874C8.20705 494.133 6.7196 494.928 6.7196 496.262V603.835C6.7196 604.769 7.48558 605.521 8.4192 605.504L45.3236 604.833C45.7609 604.825 46.1838 604.989 46.5014 605.29L65.1087 622.9C66.1728 623.907 67.9254 623.153 67.9254 621.688V534.928Z" fill="url(#paint10_linear_1023_38489)"/>
</g>
<mask id="mask2_1023_38489" style="mask-type:alpha" maskUnits="userSpaceOnUse" x="-12" y="634" width="90" height="88">
<path d="M69.701 634.816C69.0568 634.816 68.4168 634.92 67.8053 635.122L-6.98027 659.877C-9.44977 660.694 -11.1172 663.003 -11.1172 665.604V715.306C-11.1172 718.638 -8.41629 721.339 -5.08457 721.339H0.567548L75.0109 670.277C76.6509 669.152 77.6312 667.291 77.6312 665.302V639.341C77.6312 636.842 75.6055 634.816 73.1067 634.816H69.701Z" fill="url(#paint11_linear_1023_38489)"/>
</mask>
<g mask="url(#mask2_1023_38489)">
<path d="M67.5418 635.285L-11.1172 660.968L1.40217 663.194L77.6311 638.711L77.9094 634.538L70.4897 634.769C69.4875 634.8 68.4949 634.974 67.5418 635.285Z" fill="url(#paint12_linear_1023_38489)"/>
<path d="M3.34963 660.968H-11.1172V718.115C-11.1172 719.753 -9.8101 721.092 -8.17267 721.131L-1.67509 721.286C-0.218744 721.32 1.21011 720.885 2.40023 720.045L5.29708 718L3.34963 660.968Z" fill="url(#paint13_linear_1023_38489)"/>
<mask id="mask3_1023_38489" style="mask-type:alpha" maskUnits="userSpaceOnUse" x="0" y="636" width="78" height="83">
<path d="M75.3372 670.052L5.28888 718.1C3.28729 719.473 0.566406 718.04 0.566406 715.612V666.372C0.566406 663.141 2.62453 660.27 5.68395 659.231L72.648 636.507C75.0931 635.677 77.63 637.495 77.63 640.077V665.699C77.63 667.439 76.7723 669.068 75.3372 670.052Z" fill="#D9D9D9"/>
</mask>
<g mask="url(#mask3_1023_38489)">
<path d="M77.63 668.48L0.566406 721.339V660.968L77.63 634.816V668.48Z" fill="url(#paint14_linear_1023_38489)"/>
<path d="M30.0223 684.501L29.0955 683.584C25.6578 680.22 23.2714 677.878 23.2783 673.525C23.2853 669.973 25.0007 666.563 27.0965 665.77C28.2447 665.334 29.3168 665.802 30.0085 666.895C30.6864 665.269 31.7101 664.019 32.7614 663.623C34.5598 662.939 35.9363 664.852 35.9432 667.975C35.9571 671.794 34.0272 675.932 30.9285 682.549L30.0154 684.501H30.0223Z" fill="white"/>
<path d="M38.1367 670.11L40.0043 669.232L40.0527 678.972L38.1782 680.058L38.1367 670.11ZM45.5586 675.771L40.779 678.549L40.7236 668.334L41.7819 664.743L42.0517 660.637C42.0725 660.305 42.1555 659.987 42.28 659.726C42.4045 659.466 42.5636 659.29 42.7296 659.232L42.778 659.212C43.0477 659.115 43.3106 659.225 43.4973 659.525C43.691 659.824 43.7948 660.286 43.8017 660.806L43.8294 664.762L46.4232 663.617C46.7552 663.474 47.0734 663.598 47.3086 663.975C47.5437 664.346 47.6752 664.931 47.6821 665.601L47.7236 670.039C47.7305 671.216 47.5161 672.472 47.1149 673.546C46.7137 674.626 46.1534 675.426 45.5586 675.777V675.771Z" fill="white"/>
<path d="M54.8274 666.317L54.8066 664.417L57.1169 655.419L58.2582 654.97L58.3619 662.432L58.9637 662.133L58.9914 664.124L58.3896 664.443L58.4242 666.785L57.442 667.332L57.4074 664.957L54.8343 666.31L54.8274 666.317ZM57.3728 657.813L55.9549 663.636L57.4351 662.894L57.3659 657.813H57.3728Z" fill="white"/>
<path d="M50.7736 668.158C51.2993 666.909 51.7143 665.894 52.0255 665.106C52.3299 664.313 52.5789 663.525 52.7726 662.745C52.9662 661.97 53.0631 661.255 53.0562 660.598C53.0562 659.999 52.9801 659.557 52.8487 659.27C52.7172 658.984 52.5166 658.893 52.2469 659.01C51.9771 659.127 51.7696 659.413 51.6244 659.882C51.4791 660.337 51.4099 660.916 51.4099 661.612L50.2617 662.12C50.2686 660.65 50.4623 659.465 50.8289 658.561C51.2024 657.67 51.6728 657.11 52.24 656.895C52.8487 656.661 53.319 656.837 53.6441 657.416C53.9692 657.982 54.1352 658.834 54.149 659.979C54.1629 660.884 54.0591 661.795 53.8516 662.719C53.6441 663.649 53.3951 664.501 53.1184 665.263C52.8348 666.024 52.4682 666.961 52.0048 668.093L54.3565 666.85L54.3773 668.873L50.3586 671.112L50.3378 669.199L50.7736 668.158Z" fill="white"/>
</g>
</g>
<g clip-path="url(#clip2_1023_38489)">
<path d="M244.104 628.751C238.914 625.759 227.331 620.112 208.054 615.911C189.511 611.869 169.32 610.335 148.043 611.349C145.067 611.49 142.203 611.682 139.528 611.918C114.018 614.168 101.7 620.667 100.76 632.367C100.14 640.089 106.065 646.613 118.371 651.758C130.003 656.62 148.1 660.595 172.159 663.574C185.973 665.283 198.468 665.666 209.294 664.711C221.789 663.608 231.863 660.786 239.236 656.322C245.376 652.604 249.367 647.777 250.475 642.733C251.714 637.09 249.273 631.731 244.102 628.751H244.104Z" fill="#390176"/>
<path d="M209.081 662.281C198.424 663.221 186.101 662.841 172.456 661.153C148.616 658.202 130.735 654.283 119.307 649.506C108.083 644.814 102.658 639.115 103.183 632.564C104.009 622.265 115.626 616.477 139.74 614.35C142.382 614.117 145.215 613.928 148.158 613.787C169.224 612.782 189.201 614.299 207.537 618.296C226.493 622.429 237.824 627.946 242.891 630.868C247.107 633.298 249.103 637.644 248.101 642.209C246.3 650.408 235.104 659.985 209.081 662.282V662.281Z" fill="#710125"/>
<path d="M103.184 632.561C102.136 645.604 124.134 655.169 172.457 661.15C245.179 670.151 257.665 639.383 242.892 630.865C228.118 622.348 194.967 611.552 148.158 613.785C113.299 615.446 103.922 623.383 103.185 632.561H103.184Z" fill="#710125"/>
<path d="M94.2589 781.179L94.1047 779.044C93.2095 766.628 93.4895 752.785 94.9355 737.899L94.955 737.701C95.3981 733.175 95.9535 728.5 96.6061 723.808C96.7214 722.981 96.8397 722.158 96.9594 721.338C97.1944 719.741 97.4504 718.069 97.7214 716.364C97.7573 716.138 97.9175 715.145 97.9175 715.145C98.1196 713.916 98.3202 712.707 98.5282 711.506C98.5282 711.506 98.5507 711.383 98.5552 711.352L98.5627 711.302C98.9174 709.252 99.2558 707.377 99.5971 705.57C99.8695 704.117 100.161 702.608 100.489 700.958C100.706 699.866 100.926 698.786 101.148 697.717L101.178 697.573C101.822 694.477 102.509 691.342 103.22 688.255C104.678 681.947 106.259 675.739 107.919 669.803C107.986 669.559 108.056 669.308 108.127 669.059L108.181 668.868C108.221 668.719 108.266 668.563 108.311 668.406C108.383 668.147 108.456 667.89 108.529 667.636L108.567 667.504C108.868 666.457 109.161 665.451 109.447 664.485L109.688 663.674C109.77 663.396 109.853 663.128 109.934 662.863C110.209 661.949 110.478 661.074 110.739 660.24L111.11 659.056L112.321 658.808C112.627 658.745 143.22 652.514 173.265 649.863C210.396 646.587 230.449 649.907 234.572 660.012C234.976 661.001 235.374 661.991 235.765 662.98C235.949 663.444 236.132 663.907 236.311 664.371C236.868 665.796 237.432 667.274 238.031 668.885C238.214 669.373 238.396 669.866 238.576 670.36C238.923 671.305 239.295 672.329 239.705 673.484L240.143 674.734C240.501 675.759 240.853 676.778 241.196 677.794C241.341 678.216 241.485 678.647 241.627 679.075L242.091 680.469C242.098 680.49 242.104 680.511 242.11 680.532C242.208 680.827 242.304 681.12 242.399 681.413L242.567 681.929C242.745 682.482 242.917 683.021 243.091 683.556C243.568 685.063 243.979 686.383 244.35 687.603C244.492 688.073 244.634 688.542 244.772 689.004L244.842 689.242C244.958 689.629 245.073 690.015 245.187 690.401C245.58 691.734 245.982 693.128 246.378 694.541C246.595 695.315 246.808 696.081 247.014 696.841L247.131 697.266C247.255 697.717 247.378 698.172 247.498 698.627C247.872 700.026 248.245 701.456 248.609 702.874L248.922 704.117C249.005 704.451 249.088 704.783 249.169 705.112C250.264 709.546 251.287 714.059 252.207 718.521L252.387 719.397L252.556 720.24C252.588 720.389 252.621 720.557 252.655 720.727L252.698 720.944C252.884 721.877 253.065 722.798 253.237 723.71C254.369 729.636 255.35 735.61 256.153 741.467C258.102 755.645 258.373 764.34 258.384 764.703L258.442 766.689L94.2604 781.176L94.2589 781.179Z" fill="#390176"/>
<path d="M256.286 764.768L96.2001 778.894C95.2346 765.493 95.7151 751.509 97.0459 737.911V737.908C97.501 733.247 98.0564 728.632 98.6866 724.1C98.8018 723.279 98.9201 722.459 99.0369 721.643C99.2809 719.982 99.5353 718.334 99.7943 716.698C99.8587 716.291 99.9261 715.885 99.9904 715.48C100.19 714.267 100.39 713.063 100.597 711.869C100.609 711.799 100.622 711.732 100.631 711.664C100.963 709.741 101.305 707.84 101.66 705.967C101.95 704.415 102.248 702.883 102.547 701.373C102.763 700.285 102.983 699.211 103.203 698.148C103.215 698.1 103.224 698.053 103.233 698.005C103.899 694.806 104.58 691.705 105.266 688.731C106.848 681.887 108.454 675.688 109.941 670.373C110.026 670.062 110.116 669.75 110.201 669.444C110.243 669.292 110.285 669.14 110.33 668.988C110.414 668.685 110.501 668.383 110.586 668.089C110.885 667.049 111.177 666.049 111.462 665.087C111.542 664.812 111.625 664.542 111.704 664.273C111.783 664.007 111.863 663.743 111.944 663.483C112.219 662.57 112.486 661.701 112.745 660.874C112.745 660.874 223.401 638.187 232.631 660.812C233.034 661.798 233.428 662.78 233.817 663.761C234 664.221 234.179 664.679 234.356 665.135C234.943 666.638 235.512 668.135 236.067 669.624C236.25 670.11 236.429 670.597 236.606 671.084C236.989 672.126 237.362 673.161 237.73 674.195C237.874 674.608 238.02 675.021 238.166 675.433C238.52 676.451 238.871 677.463 239.212 678.473C239.357 678.896 239.499 679.32 239.639 679.741C239.788 680.19 239.937 680.637 240.086 681.084C240.094 681.109 240.104 681.138 240.112 681.166C240.269 681.641 240.422 682.114 240.576 682.587C240.749 683.13 240.923 683.67 241.097 684.207C241.523 685.551 241.941 686.889 242.344 688.219C242.484 688.684 242.625 689.152 242.763 689.611C242.901 690.075 243.038 690.537 243.174 690.998C243.583 692.381 243.977 693.753 244.36 695.115C244.574 695.881 244.787 696.643 244.992 697.398C245.031 697.541 245.07 697.682 245.109 697.825C245.233 698.274 245.353 698.723 245.471 699.171C245.851 700.593 246.219 702.005 246.577 703.401C246.667 703.758 246.755 704.113 246.844 704.464C246.941 704.852 247.038 705.238 247.132 705.621C248.275 710.245 249.278 714.703 250.153 718.954C250.213 719.247 250.273 719.538 250.333 719.83L250.501 720.664C250.55 720.896 250.595 721.131 250.641 721.365C250.825 722.29 251.005 723.205 251.177 724.109C252.42 730.614 253.361 736.552 254.075 741.76C256.03 755.989 256.286 764.771 256.286 764.771V764.768Z" fill="#FFA300"/>
<path d="M128.426 776.049C128.426 776.049 122.596 697.313 147.231 670.746C147.231 670.746 182.393 700.232 183.694 771.172L128.426 776.049Z" fill="#FFF3E0"/>
<g style="mix-blend-mode:multiply" opacity="0.6">
<path d="M256.284 764.768L229.715 767.113C229.373 762.234 228.772 757.256 228.068 752.57C225.477 753.355 221.401 754.531 218.823 755.18C218.047 755.376 212.606 768.419 212.606 768.419L207.4 769.143L209.563 757.091L171.359 760.019L171.151 773.398L167.444 773.197L170.794 757.303L159.13 756.481L150.358 706.461L143.962 762.3C137.318 761.199 131.05 759.117 125.375 756.597C122.974 765.812 117.934 771.168 110.011 772.381L109.737 777.699L96.1966 778.893C95.231 765.492 95.7116 751.508 97.0424 737.91V737.907C97.4974 733.246 98.0528 728.631 98.683 724.099H98.686C98.8013 723.278 98.9166 722.458 99.0348 721.642C99.2788 719.981 99.5333 718.333 99.7923 716.697C99.8566 716.29 99.924 715.884 99.9884 715.479C100.187 714.266 100.388 713.062 100.595 711.868C100.607 711.798 100.62 711.731 100.629 711.663C100.963 709.737 101.306 707.839 101.657 705.966C101.948 704.414 102.246 702.882 102.545 701.372C102.761 700.285 102.981 699.21 103.201 698.147C103.213 698.099 103.222 698.052 103.231 698.004C103.897 694.805 104.578 691.704 105.264 688.73C106.846 681.886 108.452 675.687 109.939 670.372C110.024 670.061 110.114 669.749 110.199 669.443C110.241 669.291 110.283 669.139 110.328 668.987C110.412 668.684 110.499 668.382 110.584 668.088C110.883 667.048 111.175 666.048 111.46 665.086C111.54 664.811 111.623 664.541 111.702 664.272C111.781 664.006 111.861 663.742 111.942 663.482C112.217 662.569 112.483 661.7 112.742 660.873C112.742 660.873 223.399 638.186 232.629 660.811C233.032 661.797 233.426 662.779 233.815 663.76C233.998 664.22 234.177 664.678 234.354 665.134C234.941 666.637 235.509 668.134 236.065 669.623C236.247 670.109 236.427 670.596 236.604 671.083C236.987 672.125 237.36 673.16 237.728 674.194C237.872 674.607 238.018 675.02 238.164 675.432C238.518 676.45 238.869 677.462 239.21 678.472C239.355 678.895 239.497 679.319 239.637 679.74C239.786 680.189 239.934 680.636 240.084 681.083C240.092 681.108 240.102 681.137 240.11 681.165C240.267 681.64 240.419 682.113 240.574 682.586C240.747 683.129 240.921 683.669 241.095 684.206C241.521 685.55 241.939 686.888 242.342 688.218C242.482 688.683 242.623 689.151 242.761 689.61C242.898 690.074 243.036 690.536 243.172 690.997C243.581 692.38 243.975 693.752 244.358 695.114C244.572 695.88 244.785 696.642 244.99 697.397C245.029 697.54 245.068 697.681 245.106 697.824C245.231 698.273 245.35 698.722 245.469 699.17C245.849 700.592 246.217 702.004 246.575 703.4C246.665 703.757 246.753 704.112 246.841 704.463C246.939 704.851 247.036 705.237 247.13 705.62C248.273 710.244 249.275 714.702 250.151 718.953C250.211 719.246 250.271 719.537 250.331 719.829L250.498 720.663C250.548 720.895 250.593 721.13 250.639 721.364C250.823 722.289 251.003 723.204 251.175 724.108C252.418 730.613 253.359 736.551 254.073 741.759C256.028 755.988 256.284 764.77 256.284 764.77V764.768Z" fill="#B2A8C1"/>
</g>
<path d="M138.912 752.823C122.408 749.096 111.235 741.794 104.767 736.326C97.6951 730.346 94.568 725.252 94.4378 725.039L94.1294 724.531L94.1399 723.936C94.4482 705.936 98.496 690.724 101.839 681.133C105.47 670.71 108.999 664.605 109.147 664.351L110.37 662.251L111.967 663.595C114.677 664.573 135.722 671.761 149.825 676.565L151.422 677.109L141.087 753.315L138.911 752.824L138.912 752.823Z" fill="#390176"/>
<path d="M149.17 678.505L139.362 750.82C136.054 750.073 132.961 749.182 130.077 748.186C105.778 739.798 96.1871 723.97 96.1871 723.97C96.7186 692.841 108.404 669.982 110.571 666.004C110.794 665.596 110.916 665.387 110.916 665.387H110.919C111.022 665.514 149.17 678.505 149.17 678.505Z" fill="#DFDAE5"/>
<g style="mix-blend-mode:multiply" opacity="0.6">
<path d="M131.193 735.665L130.077 748.184V748.187C105.778 739.799 96.1871 723.971 96.1871 723.971C96.7186 692.842 108.404 669.983 110.571 666.005L114.887 668.948C114.887 668.948 114.208 672.072 114.062 674.237C114.062 674.237 125.514 680.266 127.189 689.969C128.864 699.668 133.054 721.213 131.193 735.665Z" fill="#B2A8C1"/>
</g>
<path d="M192.731 753.455C175.774 754.951 164.43 753.335 163.955 753.266L162.466 753.048L148.365 676.242L151.359 676.79C156.237 677.684 161.535 678.518 167.105 679.269C176.662 680.555 186.823 680.738 197.306 679.812C221.858 677.646 240.27 670.062 240.453 669.985L242.302 669.215L243.158 671.029C254.132 694.319 258.475 729.32 258.654 730.8L258.819 732.158L257.65 732.861C233.72 747.259 209.138 752.007 192.731 753.455Z" fill="#390176"/>
<path d="M256.57 731.055C243.711 738.791 230.662 743.75 218.577 746.884V746.887C188.397 754.719 164.257 751.183 164.257 751.183L150.981 678.865C155.693 679.729 160.955 680.568 166.824 681.359C182.266 683.436 197.085 682.419 209.377 680.417C228.313 677.339 241.258 671.933 241.258 671.933C252.212 695.183 256.569 731.057 256.569 731.057L256.57 731.055Z" fill="#DFDAE5"/>
<g style="mix-blend-mode:multiply" opacity="0.6">
<path d="M218.577 746.883C231.62 719.844 209.621 680.849 209.379 680.415C228.315 677.337 241.259 671.931 241.259 671.931C252.214 695.181 256.57 731.055 256.57 731.055C243.711 738.791 230.662 743.75 218.577 746.883Z" fill="#B2A8C1"/>
</g>
<path d="M203.348 666.661C202.761 666.712 202.167 666.76 201.567 666.804C200.212 666.902 198.866 666.981 197.564 667.04C174.752 668.091 149.203 664.482 135.439 658.261C131.985 656.699 129.066 655.517 126.719 654.568C119.198 651.521 115.055 649.845 113.847 643.171C111.362 629.437 109.026 623.524 107.48 619.613C105.366 614.264 104.562 611.728 105.935 602.603L106.22 600.696C106.736 597.232 107.224 593.961 107.805 590.785C109.886 579.43 113.14 569.865 122.262 560.084C123.453 558.809 124.737 557.558 126.095 556.349C125.14 552.126 123.953 542.442 129.339 531.449L129.628 530.859C134.779 520.351 136.704 516.42 141.174 516.025C143.305 515.837 145.295 516.781 146.958 517.728C151.712 520.437 154.776 524.595 157.237 527.936C158.052 529.041 158.821 530.084 159.568 530.971C161.826 533.648 164.168 537.459 165.487 539.717C170.056 539.329 174.687 539.388 179.258 539.893C186.687 540.713 193.718 542.47 200.191 545.119C202.287 543.011 205.375 538.686 207.158 532.143C207.33 531.512 207.499 530.88 207.668 530.25C210.02 521.502 212.782 517.683 219.337 517.105C222.249 516.848 223.981 517.583 227.398 520.884C237.673 530.814 240.384 539.682 241.919 549.783C242.018 550.435 242.115 551.078 242.214 551.71C243.449 559.637 240.462 568.591 238.061 575.786C237.245 578.23 236.47 580.559 235.967 582.525C242.203 597.799 247.416 619.749 243.762 636.739C239.768 655.316 227.3 664.545 203.345 666.658L203.348 666.661Z" fill="#390176"/>
<path d="M232.573 582.8C239.522 599.385 243.926 620.571 240.597 636.055C236.657 654.377 224.051 661.907 201.333 663.56C200.044 663.653 198.74 663.731 197.42 663.791C175.512 664.802 150.064 661.303 136.772 655.295C122.678 648.921 118.222 649.127 117.039 642.59C115.783 635.642 114.56 630.648 113.454 626.883C113.45 626.876 113.45 626.871 113.45 626.871C109.722 614.195 107.284 615.463 109.144 603.088C109.766 598.947 110.321 595.068 110.998 591.371C112.947 580.736 115.932 571.635 124.633 562.306C126.202 560.625 127.924 559.008 129.776 557.468H129.768C129.768 557.468 125.705 546.245 132.256 532.882C137.308 522.566 139.027 518.927 142.128 519.274C143.045 519.377 144.08 519.829 145.36 520.557C150.969 523.752 153.944 529.331 157.095 533.07C160.251 536.812 163.715 543.157 163.715 543.157L163.712 543.166C168.593 542.601 173.677 542.549 178.907 543.127C186.835 544.003 194.176 545.976 200.775 548.897C200.775 548.897 207.158 544.495 210.288 533.002C212.876 523.503 217.741 517.464 224.316 521.87L224.329 521.881C225.704 522.8 227.151 524.183 228.672 526.082C237.811 537.522 237.434 542.045 239.018 552.213C240.6 562.381 234.286 575.005 232.578 582.798L232.573 582.8Z" fill="#FFA300"/>
<g style="mix-blend-mode:multiply" opacity="0.6">
<path d="M141.284 526.983C141.284 526.983 142.769 547.153 136.928 553.17C136.928 553.17 154.564 543.904 141.284 526.983Z" fill="#B2A8C1"/>
</g>
<g style="mix-blend-mode:multiply" opacity="0.6">
<path d="M226.076 533.659C226.076 533.659 223.792 549.373 220.846 552.899C217.9 556.424 210.322 553.827 210.322 553.827C210.322 553.827 216.32 556.971 217.483 560.952C218.645 564.931 221.248 569.053 221.248 569.053C221.248 569.053 233.134 553.855 226.076 533.659Z" fill="#B2A8C1"/>
</g>
<g style="mix-blend-mode:multiply" opacity="0.6">
<path d="M163.712 543.158L158.245 544.134C152.575 525.856 142.837 520.429 142.126 519.275C143.042 519.378 144.078 519.83 145.358 520.558C150.967 523.753 153.942 529.332 157.093 533.071C160.248 536.813 163.712 543.158 163.712 543.158Z" fill="#B2A8C1"/>
</g>
<path d="M204.142 631.526C194.916 638.259 197.292 662.96 197.292 662.96L197.418 663.789C175.51 664.8 150.062 661.302 136.77 655.293C122.676 648.92 118.22 649.126 117.037 642.588C111.546 612.231 106.728 619.14 109.141 603.088C109.762 598.946 110.317 595.068 110.994 591.371C117.639 577.517 130.451 583.572 135.053 574.981C139.65 566.391 140.535 557.319 146.723 556.582C152.912 555.847 156.686 563.165 158.832 568.123C160.983 573.081 165.54 577.209 173.327 571.603C181.11 565.997 184.36 558.974 192.895 563.529C202.882 568.857 192.126 580.134 193.485 584.092C194.842 588.054 205.281 593.73 210.717 604.411C216.152 615.093 213.369 624.788 204.144 631.526H204.142Z" fill="#FFF3E0"/>
<g style="mix-blend-mode:multiply" opacity="0.6">
<path d="M232.573 582.799C239.522 599.384 243.926 620.571 240.596 636.055C236.657 654.376 224.051 661.907 201.333 663.559C200.044 663.652 198.74 663.73 197.42 663.79C175.512 664.801 150.063 661.303 136.772 655.294C122.678 648.921 118.222 649.126 117.039 642.589C115.783 635.642 114.56 630.647 113.454 626.883C113.608 627.302 118.704 640.838 134.181 644.668C139.669 646.026 140.643 660.2 149.508 657.983C157.072 656.09 161.716 648.742 168.912 647.289C184.01 644.244 194.787 649.541 202.792 646.287C216.738 640.62 227.232 626.671 225.711 608.394C224.19 590.118 226.456 579.993 229.188 573.797C234.618 561.479 234.758 548.735 233.21 540.784C231.714 533.087 224.579 522.135 224.325 521.88C225.699 522.799 227.146 524.183 228.667 526.081C237.806 537.522 237.429 542.045 239.013 552.213C240.595 562.381 234.281 575.005 232.573 582.798V582.799Z" fill="#B2A8C1"/>
</g>
<path d="M138.114 576.499C138.114 576.499 148.975 568.335 174.606 582.288C174.606 582.288 170.577 592.032 155.031 588.71C133.17 584.038 138.116 576.499 138.116 576.499H138.114Z" fill="#FFA300"/>
<path d="M183.077 620.935C181.157 621.448 179.202 621.551 177.274 621.367C175.473 621.195 173.694 620.776 171.994 620.208C171.989 620.205 171.982 620.205 171.977 620.202C171.973 620.202 171.968 620.199 171.965 620.199C166.835 618.484 162.409 615.45 160.13 613.925C156.288 611.349 151.475 613.112 145.944 610.335C140.413 607.557 132.268 607.46 126.59 609.1C120.912 610.74 118.946 608.636 117.529 602.638C117.289 601.625 117.147 600.688 117.072 599.796C116.705 595.383 118.055 592.039 118.329 586.287C118.659 579.371 124.534 579.568 124.534 579.568L183.079 620.94L183.077 620.935Z" fill="#FFF3E0"/>
<g style="mix-blend-mode:multiply" opacity="0.6">
<path d="M171.965 620.197C166.835 618.481 162.409 615.447 160.13 613.922C156.287 611.346 151.475 613.109 145.943 610.332C140.412 607.555 132.267 607.457 126.589 609.097C120.911 610.738 118.946 608.633 117.528 602.635C117.289 601.623 117.147 600.685 117.072 599.793C119.878 603.039 121.239 605.431 127.239 603.847C133.236 602.268 141.026 603.705 144.664 605.384C148.301 607.063 157.213 607.735 161.424 611.127C165.63 614.511 168.359 619.002 171.965 620.198V620.197Z" fill="#B2A8C1"/>
</g>
<path d="M148.319 650.47C142.534 650.981 136.505 649.367 133.656 646.548C130.52 643.447 131.388 639.205 132.394 634.293C132.94 631.627 133.559 628.603 133.633 625.342C133.648 624.752 133.62 624.152 133.55 623.554C132.672 616.147 125.646 610.424 125.575 610.367L123.131 608.404L126.138 607.533C127.846 607.04 129.719 606.7 131.707 606.525C137.261 606.035 142.714 606.891 146.666 608.875C149.173 610.134 151.553 610.364 153.854 610.585C156.273 610.818 158.776 611.058 161.029 612.568L161.296 612.746C164.376 614.812 170.785 619.113 177.425 619.745L180.732 619.712L178.58 622.665C178.565 622.685 177.05 624.642 174.842 627.422C171.346 631.825 164.827 639.899 160.387 644.578L160.344 644.629L160.294 644.673C159.902 645.089 159.495 645.505 159.049 645.947C155.758 649.191 151.398 650.196 148.319 650.468V650.47Z" fill="#390176"/>
<path d="M177.275 621.366L177.301 621.669C177.301 621.669 175.803 623.606 173.576 626.412C172.088 628.286 170.276 630.544 168.365 632.872C165.226 636.697 161.826 640.712 159.178 643.497C159.17 643.506 159.163 643.51 159.155 643.519C158.72 643.982 158.302 644.407 157.913 644.793C151.548 651.071 138.785 649.339 134.797 645.393C130.806 641.446 135.048 634.565 135.256 625.383C135.274 624.699 135.238 624.025 135.161 623.367C135.111 622.934 135.041 622.512 134.956 622.094C133.412 614.557 126.588 609.101 126.588 609.101C132.265 607.46 140.41 607.558 145.942 610.336C151.473 613.113 156.286 611.35 160.128 613.926C163.167 615.96 170.02 620.678 177.273 621.369L177.275 621.366Z" fill="#BC0F0F"/>
<g style="mix-blend-mode:multiply" opacity="0.6">
<path d="M177.275 621.365L177.301 621.668C177.301 621.668 175.803 623.605 173.576 626.411C172.088 628.285 170.276 630.543 168.365 632.871C169.609 622.736 158.666 617.227 156.594 616.928C152.997 616.412 148.382 617.261 143.783 615.585C139.186 613.913 136.9 616.234 137.934 621.828L134.956 622.09C133.412 614.553 126.588 609.097 126.588 609.097C132.265 607.457 140.41 607.554 145.942 610.332C151.473 613.109 156.286 611.346 160.128 613.922C163.167 615.956 170.02 620.674 177.273 621.365H177.275Z" fill="#B2A8C1"/>
</g>
<path d="M173.194 620.417C171.867 619.982 170.58 619.443 169.324 618.847C166.814 617.641 164.453 616.156 162.178 614.551L160.469 613.326C159.836 612.904 159.164 612.517 158.449 612.267C157.025 611.721 155.559 611.525 154.166 611.333C152.768 611.145 151.413 610.973 150.127 610.648C148.84 610.328 147.621 609.864 146.488 609.242C140.268 606.119 131.638 606.37 126.254 607.925C124.049 608.562 122.543 608.578 121.517 607.976C120.315 607.271 119.477 605.589 118.712 602.352C117.682 597.99 118.005 595.54 118.595 591.092C118.781 589.686 118.992 588.09 119.194 586.189C119.444 583.833 120.571 582.199 122.546 581.328C124.126 580.631 125.686 580.673 125.697 580.674L125.794 578.236C122.971 578.124 117.448 579.587 116.776 585.93C116.579 587.801 116.369 589.378 116.185 590.769C115.579 595.349 115.213 598.113 116.347 602.914C117.005 605.7 117.987 608.73 120.291 610.08C121.93 611.042 124.038 611.102 126.927 610.267C132.03 608.793 140.015 608.716 145.401 611.42C146.778 612.053 148.239 612.484 149.696 612.735C151.154 612.99 152.598 613.064 153.988 613.151C155.377 613.239 156.726 613.329 157.959 613.708C158.586 613.875 159.157 614.159 159.717 614.47L161.516 615.571C163.938 617.029 166.45 618.366 169.083 619.403C170.4 619.916 171.743 620.367 173.111 620.706C174.483 621.037 175.876 621.264 177.274 621.361C175.885 621.163 174.523 620.836 173.194 620.412V620.417Z" fill="#390176"/>
<path d="M248.296 638.652C247.748 639.713 246.82 640.635 245.39 642.84C239.672 651.659 228.988 655.765 206.047 657.79C196.519 658.631 185.231 658.94 172.497 658.712C155.676 658.41 139.255 655.176 126.255 649.608C114.612 644.619 106.901 638.163 105.616 632.33L104.618 625.573L100.738 632.735L100.793 633.022C100.811 633.117 107.633 666.634 107.633 666.634L108.009 667.098C108.351 667.521 116.936 677.513 164.67 683.934C174.559 685.265 185.057 685.456 195.871 684.501C221.17 682.269 240.173 674.421 240.362 674.343L241.437 673.894L250.01 644.365C250.401 641.825 250.267 640.003 249.95 638.72L248.294 638.649L248.296 638.652Z" fill="#390176"/>
<path d="M239.427 672.091C239.427 672.091 226.504 677.489 207.591 680.568C195.289 682.573 180.455 683.596 164.994 681.516C117.666 675.148 109.895 665.559 109.895 665.559L103.246 632.875C106.195 646.151 135.374 660.484 172.455 661.153C186.82 661.411 198.77 660.986 208.608 660.001C232.18 657.638 243.638 652.048 247.157 644.891C247.574 644.045 239.427 672.091 239.427 672.091Z" fill="#DFDAE5"/>
<g style="mix-blend-mode:multiply" opacity="0.6">
<path d="M239.428 672.092C239.428 672.092 226.504 677.489 207.592 680.568C215.813 671.413 208.737 660.204 208.608 660.001C232.181 657.638 243.639 652.049 247.158 644.891C247.574 644.045 239.428 672.092 239.428 672.092Z" fill="#B2A8C1"/>
</g>
<path d="M137.577 663.043C136.342 663.153 135.147 663.022 134.025 662.656C124.748 659.633 124.529 640.706 127.014 631.408C128.19 627.01 130.683 623.815 134.427 621.91C136.739 620.732 139.495 620.035 143.096 619.717C143.586 619.673 144.071 619.639 144.55 619.61C147.247 619.448 148.714 619.864 149.892 620.198C150.687 620.423 151.211 620.572 152.002 620.502C153.02 620.412 154.401 619.968 156.347 619.104C157.346 618.661 158.419 618.386 159.536 618.287C166.982 617.63 174.404 624.943 174.716 625.255L175.745 626.283L174.841 627.423C173.369 629.279 171.149 632.051 168.748 634.955L168.321 635.474C165.099 639.363 162.429 642.426 160.385 644.58L160.341 644.631L160.262 644.703C159.856 645.085 159.471 645.48 159.115 645.878C158.528 646.533 157.894 647.262 157.217 648.037C151.922 654.105 144.673 662.417 137.575 663.043H137.577Z" fill="#390176"/>
<path d="M173.573 626.411C171.756 628.702 169.452 631.568 167.075 634.431V634.436C164.316 637.766 161.466 641.087 159.175 643.497C159.168 643.506 159.16 643.51 159.153 643.519C158.713 643.934 158.298 644.357 157.91 644.793C152.352 650.998 142.481 663.708 134.525 661.112C130.212 659.709 128.133 653.813 127.513 647.3C126.988 641.807 127.5 635.87 128.579 631.832C129.759 627.418 132.215 624.861 135.16 623.365C138.097 621.869 141.519 621.429 144.647 621.238C150.908 620.861 149.571 623.894 157.003 620.596C164.436 617.295 173.575 626.413 173.575 626.413L173.573 626.411Z" fill="#FC2D81"/>
<g style="mix-blend-mode:multiply" opacity="0.6">
<path d="M173.574 626.411C171.757 628.702 169.453 631.568 167.076 634.431V634.436C164.317 637.766 161.467 641.087 159.177 643.497C159.169 643.506 159.162 643.51 159.154 643.519C158.714 643.934 158.299 644.357 157.912 644.793C152.354 650.998 142.483 663.708 134.526 661.112C130.214 659.709 128.134 653.813 127.515 647.3C129.321 652.871 134.73 656.432 139.411 655.063C144.095 653.69 157.529 638.09 161.829 632.217C166.132 626.347 163.551 623.272 157.003 620.596C164.435 617.295 173.574 626.413 173.574 626.413V626.411Z" fill="#B2A8C1"/>
</g>
<path d="M158.915 642.516C158.884 642.427 158.13 640.312 157.633 637.951C156.865 634.308 157.113 632.133 158.414 631.109C158.838 630.775 159.333 630.581 159.884 630.532C162.628 630.29 166.025 633.97 166.677 634.711L166.935 635.004L167.011 635.88L166.701 636.258C164.354 639.09 162.411 641.32 160.921 642.89L160.89 642.928L160.878 642.938L159.609 644.458L158.914 642.517L158.915 642.516Z" fill="#390176"/>
<path d="M166.004 635.395V635.398C164.821 636.828 163.613 638.252 162.473 639.559C161.562 640.598 160.694 641.563 159.913 642.384C159.907 642.392 159.901 642.395 159.895 642.402C159.895 642.402 156.709 633.508 158.961 631.737C159.365 631.419 159.857 631.33 160.384 631.407V631.41C162.785 631.749 166.004 635.396 166.004 635.396V635.395Z" fill="#F6F0F0"/>
<g style="mix-blend-mode:multiply" opacity="0.6">
<path d="M162.473 639.559C161.562 640.598 160.694 641.563 159.913 642.384C159.907 642.392 159.901 642.395 159.895 642.402C159.895 642.402 156.709 633.508 158.961 631.737C159.365 631.419 159.857 631.33 160.384 631.407V631.41C160.384 631.41 158.91 635.26 162.473 639.56V639.559Z" fill="#B2A8C1"/>
</g>
<path d="M228.472 542.567C228.036 539.503 227.211 536.51 226.078 533.659C227.021 536.579 227.638 539.596 227.867 542.633C227.987 544.152 227.994 545.673 227.946 547.19C227.87 548.706 227.722 550.216 227.496 551.71C227.015 554.698 226.24 557.629 225.171 560.442C224.64 561.85 224.038 563.229 223.37 564.567C223.039 565.239 222.685 565.897 222.319 566.544C222.295 566.588 222.268 566.631 222.244 566.675C221.203 564.769 220.128 562.886 219.029 561.018C218.706 560.46 218.309 559.82 217.912 559.248C217.499 558.671 217.064 558.113 216.596 557.585C215.661 556.531 214.62 555.581 213.498 554.758C212.383 553.929 211.186 553.222 209.941 552.645C208.697 552.071 207.407 551.59 206.068 551.345C208.392 552.726 210.49 554.333 212.345 556.131C212.805 556.585 213.255 557.042 213.676 557.525C214.104 558 214.508 558.493 214.89 559C215.282 559.499 215.629 560.028 215.974 560.557C216.32 561.097 216.602 561.613 216.941 562.221C218.255 564.575 219.682 566.861 221.253 569.051C222.035 570.149 222.86 571.217 223.72 572.26C224.595 573.293 225.475 574.321 226.472 575.261C225.593 573.14 224.593 571.121 223.554 569.128C223.836 568.619 224.086 568.124 224.337 567.609C224.68 566.897 225.006 566.181 225.306 565.455C225.914 564.005 226.443 562.529 226.899 561.031C227.815 558.037 228.413 554.957 228.704 551.856C228.836 550.304 228.885 548.748 228.86 547.195C228.807 545.643 228.695 544.095 228.473 542.562L228.472 542.567Z" fill="#390176"/>
<path d="M147.314 545.652C146.686 545.82 146.067 546.025 145.457 546.242C145.8 545.416 146.088 544.57 146.31 543.705C146.545 542.688 146.719 541.661 146.768 540.624C146.814 539.589 146.771 538.556 146.632 537.54C146.335 535.511 145.675 533.572 144.753 531.796C143.824 530.025 142.671 528.383 141.282 526.983C142.518 528.517 143.481 530.249 144.201 532.05C144.915 533.856 145.341 535.757 145.422 537.653C145.452 538.601 145.394 539.544 145.258 540.471C145.117 541.398 144.864 542.299 144.566 543.178C143.954 544.829 143.077 546.364 142.011 547.764C140.446 548.611 138.96 549.592 137.58 550.705C136.162 551.866 134.825 553.142 133.743 554.668C135.453 553.933 137.045 553.122 138.625 552.304L143.297 549.835C144.85 549.03 146.398 548.239 147.969 547.458C149.551 546.702 151.145 545.995 152.849 545.227C151 544.985 149.118 545.215 147.316 545.655L147.314 545.652Z" fill="#390176"/>
<g style="mix-blend-mode:multiply" opacity="0.6">
<path d="M201.353 598.945L209.586 582.789L214.785 590.498L208.779 605.042L201.353 598.945Z" fill="#B2A8C1"/>
</g>
<path d="M199.834 597.696L209.586 582.789L213.13 587.874L207.248 603.785L199.834 597.696Z" fill="#390176"/>
<path d="M207.534 583.68L211.007 588.203L206.399 600.667L202.079 597.125L207.534 583.68Z" fill="#2F4272"/>
<path d="M200.878 598.552C200.577 598.309 170.81 574.671 133.297 578.461C129.793 578.815 126.281 579.404 122.858 580.209L120.205 580.834L123.624 564.877L124.57 564.525C124.756 564.456 129.202 562.831 136.904 562.005C146.315 560.995 156.232 561.593 166.397 563.8C180.547 566.872 194.744 573.024 208.603 582.147L209.843 582.963L202.865 600.158L200.879 598.55L200.878 598.552Z" fill="#390176"/>
<path d="M207.534 583.679L202.077 597.126C202.077 597.126 199.038 594.673 193.651 591.442H193.648C180.53 583.586 153.496 571.163 122.496 578.478L125.132 566.186C125.132 566.186 158.227 553.93 202.237 580.341V580.344C203.987 581.394 205.752 582.503 207.534 583.677V583.679Z" fill="#6777A5"/>
<g style="mix-blend-mode:multiply" opacity="0.6">
<path d="M207.533 583.679L202.077 597.126C202.077 597.126 199.038 594.673 193.65 591.442C197.554 592.193 200.813 592.475 203.202 588.959C206.602 583.955 202.285 580.485 202.237 580.344C203.987 581.394 205.752 582.502 207.533 583.677V583.679Z" fill="#B2A8C1"/>
</g>
<path d="M129.168 567.737C125.868 568.514 123.758 574.564 128.19 574.554C132.639 574.543 141.044 572.663 156.77 574.94C172.702 577.247 189.225 586.588 195.525 589.204C201.86 591.835 204.195 586.077 200.144 582.78C198.029 581.06 180.711 570.295 159.932 567.569C139.501 564.888 132.814 566.879 129.168 567.739V567.737Z" fill="#390176"/>
<g style="mix-blend-mode:multiply" opacity="0.6">
<path d="M125.447 580.706C123.878 585.929 128.309 587.705 130.193 588.451C132.722 589.453 137.27 590.276 139.988 588.812C142.708 587.347 145.795 585.442 145.44 581.391C145.085 577.34 127.336 574.417 125.447 580.706Z" fill="#B2A8C1"/>
</g>
<path d="M124.534 579.563C122.965 584.786 127.396 586.562 129.281 587.309C131.809 588.31 136.357 589.134 139.075 587.669C141.795 586.204 144.882 584.3 144.527 580.248C144.173 576.197 126.423 573.274 124.534 579.563Z" fill="#390176"/>
<path d="M146.014 627.968C145.257 628.688 144.538 629.445 143.853 630.228C143.164 631.007 142.51 631.815 141.886 632.643C141.268 633.477 140.672 634.324 140.127 635.206C139.573 636.081 139.069 636.984 138.613 637.912C138.375 638.372 138.169 638.845 137.956 639.315L137.663 640.034C137.56 640.271 137.485 640.519 137.39 640.759C137.299 641.001 137.209 641.243 137.134 641.491C137.057 641.737 136.974 641.982 136.901 642.23C136.769 642.73 136.621 643.226 136.516 643.732C136.389 644.233 136.317 644.747 136.221 645.256C136.181 645.512 136.154 645.77 136.118 646.027L136.069 646.413L136.039 646.801L135.976 647.579L135.956 648.36L135.944 648.752L135.955 649.142L135.968 649.928L135.865 649.149L135.817 648.758L135.79 648.364L135.744 647.576V646.786C135.744 646.653 135.745 646.521 135.75 646.391L135.775 645.996C135.795 645.733 135.805 645.468 135.831 645.205C135.895 644.681 135.953 644.155 136.057 643.637C136.106 643.377 136.143 643.114 136.209 642.859L136.395 642.087C136.464 641.832 136.542 641.579 136.614 641.324C136.684 641.068 136.768 640.818 136.855 640.568C137.016 640.064 137.221 639.577 137.416 639.084C137.63 638.6 137.835 638.114 138.076 637.644C138.551 636.7 139.07 635.778 139.649 634.898C140.232 634.019 140.848 633.163 141.519 632.353C142.184 631.537 142.895 630.762 143.64 630.023C144.39 629.29 145.17 628.586 146.014 627.967V627.968Z" fill="#390176"/>
<path d="M135.255 625.379C135.255 625.379 127.258 632.35 130.665 642.99C130.665 642.99 128.873 636.167 135.255 625.379Z" fill="#FF71B2"/>
<g style="mix-blend-mode:multiply" opacity="0.6">
<path d="M176.51 612.698C174.408 612.514 178.03 630.632 181.589 629.468L182.04 620.172L176.51 612.698Z" fill="#B2A8C1"/>
</g>
<path d="M176.51 612.699C177.96 613.381 179.103 614.566 180.02 615.858C180.933 617.167 181.598 618.643 182.04 620.174C182.215 620.949 182.418 621.723 182.481 622.514C182.516 622.909 182.58 623.3 182.58 623.696C182.586 624.091 182.582 624.487 182.573 624.88C182.573 625.274 182.532 625.666 182.475 626.056C182.424 626.447 182.361 626.834 182.294 627.219C182.221 627.603 182.103 627.984 181.986 628.359C181.868 628.735 181.743 629.107 181.588 629.471C181.36 628.694 181.242 627.944 181.1 627.205C181.019 626.836 180.942 626.471 180.878 626.107C180.842 625.926 180.815 625.744 180.785 625.564C180.752 625.383 180.7 625.205 180.667 625.026C180.589 624.668 180.516 624.312 180.453 623.958C180.381 623.603 180.287 623.256 180.209 622.906C180.128 622.558 180.071 622.203 179.96 621.864L179.698 620.829C179.305 619.463 178.872 618.117 178.348 616.776C177.823 615.432 177.243 614.098 176.511 612.701L176.51 612.699Z" fill="#390176"/>
<path d="M189.138 659.467L186.758 658.974L181.507 684.461L183.888 684.955L189.138 659.467Z" fill="#390176"/>
<path d="M211.822 750.241L209.55 749.77L205.356 770.126L207.628 770.597L211.822 750.241Z" fill="#390176"/>
<path d="M198.387 676.822C198.244 676.819 183.976 676.533 175.969 677.239C175.363 677.293 174.801 677.352 174.298 677.413L173.855 677.468L171.107 675.138L172.698 670.335L198.56 666.778L200.428 668.739L199.122 676.835L198.387 676.82V676.822Z" fill="#390176"/>
<path d="M197.626 667.012L199.568 669.008L198.423 676.107C198.423 676.107 181.847 675.763 174.204 676.707L171.418 674.697L173.298 670.97L197.626 667.013V667.012Z" fill="#A57F4C"/>
<path d="M196.279 674.661C185.832 674.174 172.139 675.012 172.002 675.021L171.066 675.08L171.96 666.961L172.608 666.88C174.157 666.687 175.714 666.521 177.233 666.387C190.178 665.245 197.535 666.594 197.842 666.651L198.586 666.792L197.01 674.695L196.279 674.661Z" fill="#390176"/>
<path d="M172.703 667.585L171.964 674.307C171.964 674.307 185.721 673.451 196.34 673.947L197.656 667.35C197.656 667.35 188.505 665.621 172.703 667.585Z" fill="#FFD18D"/>
<path d="M107.416 770.299C105.792 770.441 104.096 770.323 102.374 769.943C95.8713 768.51 91.2277 765.711 88.1784 761.389C85.3058 757.317 83.8672 751.857 83.7789 744.695C83.6381 733.19 86.8446 717.877 92.4313 695.313L92.4807 695.115L92.566 694.93C92.8115 694.397 98.6661 681.824 106.283 678.713C107.218 678.331 108.161 678.097 109.086 678.015C109.971 677.936 110.854 677.997 111.712 678.195C116.293 679.254 120.022 684.02 123.111 692.767C126.978 703.712 128.873 716.855 128.447 729.777C128.014 742.876 125.233 754.062 120.613 761.275C117.124 766.725 112.561 769.845 107.419 770.299H107.416Z" fill="#390176"/>
<path d="M102.833 767.84C90.8067 765.188 86.0823 757.696 85.9236 744.668C85.7814 732.996 89.3007 716.882 94.5131 695.831C94.5131 695.831 100.172 683.532 107.091 680.706C108.435 680.158 109.823 679.969 111.23 680.292C114.571 681.064 118 684.749 121.087 693.487C132.165 724.844 125.636 772.866 102.835 767.84H102.833Z" fill="#FFA300"/>
<path d="M102.833 767.839C133.42 739.195 111.06 680.586 111.06 680.586L111.228 680.293C114.569 681.065 117.999 684.75 121.085 693.488C132.163 724.845 125.635 772.867 102.833 767.841V767.839Z" fill="#FFF3E0"/>
<g style="mix-blend-mode:multiply" opacity="0.6">
<path d="M102.834 767.84C90.8079 765.188 86.0835 757.696 85.9248 744.668C87.4637 746.716 99.9408 762.528 110.527 750.984C121.831 738.659 107.041 680.941 107.041 680.941L107.09 680.706C108.435 680.158 109.822 679.969 111.229 680.292C114.571 681.064 118 684.749 121.087 693.487C132.164 724.844 125.636 772.866 102.834 767.84Z" fill="#B2A8C1"/>
</g>
<path d="M120.971 684.957L120.893 684.843L120.888 684.84C115.135 676.404 105.559 675.909 100.35 676.369C95.4819 676.799 90.0494 678.337 84.2008 680.94C72.7835 686.025 65.1775 693.049 62.7868 700.717C61.3976 705.17 61.8542 709.487 64.1071 713.203C65.7044 715.836 67.1115 717.884 68.5396 719.644C73.8583 726.206 79.9 729.09 87.0121 728.463C87.3399 728.435 87.6767 728.397 88.0135 728.352C90.4102 728.034 92.5553 727.84 94.6301 727.652C101.561 727.027 115.576 725.429 117.911 706.981C118.068 705.737 121.075 695.394 121.536 694.235C123.432 689.474 120.972 684.957 120.972 684.957H120.971Z" fill="#390176"/>
<path d="M121.03 699.043C121.03 699.043 121.027 699.046 121.026 699.052C118.12 706.358 115.683 714.552 110.123 719.852C104.558 725.155 98.1432 724.268 87.6601 725.662C80.0211 726.678 74.7772 723.038 70.6381 717.932C70.1142 717.285 69.6052 716.613 69.1172 715.924L69.1112 715.918C68.1622 714.591 67.2715 713.199 66.4182 711.791C61.6354 703.901 66.6158 691.739 85.2994 683.419C104.236 674.987 114.43 679.889 118.857 686.667L118.86 686.67C121.708 691.036 122.169 696.178 121.029 699.041L121.03 699.043Z" fill="#FFA300"/>
<path d="M121.029 699.043C118.12 706.352 115.685 714.551 110.121 719.852C104.555 725.155 98.1405 724.269 87.6573 725.663C80.0183 726.678 74.7745 723.038 70.6354 717.933C70.6384 717.933 70.6384 717.936 70.6414 717.936C75.8882 720.516 84.5167 723.656 102.342 717.175C110.938 714.051 117.51 694.118 118.854 686.67L118.857 686.673C121.706 691.04 122.167 696.181 121.026 699.045L121.029 699.043Z" fill="#FFF3E0"/>
<path d="M95.8324 727.509C95.533 727.274 95.3099 727.074 95.0644 726.848C94.8249 726.628 94.5944 726.402 94.3684 726.173C93.9178 725.711 93.4896 725.229 93.087 724.726C92.2816 723.72 91.5705 722.627 91.0212 721.442C90.4718 720.26 90.0886 718.979 89.9718 717.661C89.849 716.347 90.0107 715.007 90.4164 713.78C91.2083 711.42 92.2472 709.174 93.4717 707.05C94.6917 704.925 96.0644 702.894 97.6138 701.015C96.2306 703.017 95.042 705.144 94.0196 707.336C92.9926 709.524 92.1693 711.802 91.6035 714.118C91.334 715.229 91.2951 716.367 91.4867 717.468C91.6753 718.569 92.0855 719.628 92.6409 720.61C93.1962 721.594 93.8968 722.504 94.6812 723.336C95.0734 723.753 95.4881 724.149 95.9192 724.525C96.1348 724.712 96.3548 724.894 96.5764 725.068C96.7919 725.237 97.0404 725.421 97.229 725.546L95.8324 727.509Z" fill="#390176"/>
<path d="M82.639 728.37C82.3396 728.134 82.1166 727.934 81.8711 727.709C81.6316 727.488 81.401 727.263 81.175 727.033C80.7244 726.572 80.2963 726.09 79.8936 725.586C79.0882 724.58 78.3772 723.488 77.8278 722.303C77.2784 721.12 76.8952 719.839 76.7784 718.522C76.6557 717.207 76.8174 715.867 77.223 714.64C78.0149 712.28 79.0538 710.035 80.2783 707.911C81.4983 705.785 82.871 703.754 84.4204 701.875C83.0372 703.877 81.8486 706.004 80.8262 708.196C79.7993 710.385 78.976 712.662 78.4101 714.978C78.1407 716.09 78.1017 717.227 78.2933 718.328C78.482 719.429 78.8921 720.488 79.4475 721.47C80.0029 722.454 80.7035 723.365 81.4879 724.197C81.8801 724.613 82.2947 725.01 82.7258 725.385C82.9414 725.573 83.1615 725.755 83.383 725.929C83.5986 726.097 83.8471 726.282 84.0357 726.406L82.639 728.37Z" fill="#390176"/>
<path d="M72.9184 724.085C72.619 723.849 72.396 723.649 72.1505 723.424C71.911 723.203 71.6805 722.978 71.4544 722.748C71.0038 722.287 70.5757 721.804 70.173 721.301C69.3677 720.295 68.6566 719.203 68.1072 718.017C67.5578 716.835 67.1746 715.554 67.0578 714.237C66.9351 712.922 67.0968 711.582 67.5024 710.355C68.2943 707.995 69.3332 705.749 70.5577 703.625C71.7778 701.5 73.1505 699.469 74.6998 697.59C73.3166 699.592 72.128 701.719 71.1056 703.911C70.0787 706.099 69.2554 708.377 68.6895 710.693C68.4201 711.805 68.3812 712.942 68.5728 714.043C68.7614 715.144 69.1716 716.203 69.7269 717.185C70.2823 718.169 70.9829 719.079 71.7673 719.912C72.1595 720.328 72.5741 720.724 73.0053 721.1C73.2208 721.288 73.4409 721.469 73.6624 721.644C73.878 721.812 74.1265 721.997 74.3151 722.121L72.9184 724.085Z" fill="#390176"/>
<g style="mix-blend-mode:multiply" opacity="0.6">
<path d="M121.024 699.051C118.118 706.357 115.681 714.551 110.122 719.851C104.556 725.154 98.1415 724.267 87.6583 725.661C80.0193 726.677 74.7755 723.037 70.6364 717.931C70.1125 717.284 69.6035 716.612 69.1155 715.923C69.334 716.106 76.4281 721.979 82.7528 721.855C89.1732 721.73 100.713 720.554 106.572 716.183C112.337 711.879 120.762 699.438 121.023 699.052L121.024 699.051Z" fill="#B2A8C1"/>
</g>
<path d="M169.073 747.318C169.082 743.395 169.089 739.472 169.098 735.549C170.097 735.622 170.597 735.654 171.597 735.708C172.568 735.761 173.308 736.057 173.82 736.606C174.332 737.156 174.597 737.915 174.613 738.888C174.649 741.096 174.668 742.2 174.704 744.408C174.722 745.514 174.459 746.319 173.911 746.821C173.362 747.323 172.562 747.548 171.517 747.485C170.538 747.426 170.05 747.393 169.073 747.318ZM170.791 737.249C170.802 740.117 170.812 742.986 170.823 745.854C171.145 745.875 171.306 745.884 171.628 745.903C172.119 745.932 172.466 745.831 172.67 745.604C172.874 745.377 172.972 745.009 172.966 744.502C172.942 742.229 172.929 741.093 172.905 738.82C172.9 738.356 172.802 737.994 172.61 737.73C172.418 737.467 172.074 737.323 171.574 737.296C171.261 737.278 171.104 737.269 170.791 737.251V737.249Z" fill="#390176"/>
<path d="M176.114 738.666C176.104 738.191 176.178 737.772 176.337 737.41C176.496 737.048 176.71 736.747 176.981 736.509C177.24 736.28 177.538 736.108 177.871 735.987C178.205 735.869 178.544 735.809 178.886 735.809C179.229 735.809 179.57 735.869 179.913 735.987C180.255 736.108 180.579 736.279 180.855 736.51C181.13 736.74 181.358 737.051 181.54 737.414C181.722 737.776 181.823 738.197 181.843 738.673C181.946 741.173 181.997 742.423 182.099 744.922C182.12 745.421 182.051 745.849 181.894 746.206C181.737 746.564 181.524 746.86 181.258 747.096C180.979 747.342 180.668 747.527 180.32 747.65C179.973 747.773 179.621 747.833 179.265 747.832C178.909 747.83 178.553 747.766 178.198 747.641C177.843 747.515 177.526 747.316 177.244 747.079C176.963 746.84 176.716 746.543 176.536 746.185C176.357 745.828 176.262 745.4 176.25 744.903C176.196 742.407 176.169 741.161 176.116 738.666H176.114ZM177.993 744.934C178.005 745.344 178.129 745.646 178.368 745.843C178.608 746.038 178.889 746.137 179.21 746.139C179.53 746.139 179.804 746.043 180.033 745.849C180.261 745.655 180.367 745.352 180.353 744.942C180.265 742.444 180.222 741.194 180.133 738.696C180.118 738.286 179.994 737.985 179.759 737.793C179.524 737.601 179.252 737.504 178.94 737.503C178.629 737.503 178.362 737.599 178.139 737.79C177.916 737.982 177.81 738.283 177.822 738.691C177.891 741.188 177.925 742.436 177.994 744.933L177.993 744.934Z" fill="#390176"/>
<path d="M183.247 738.639C183.225 738.163 183.289 737.739 183.439 737.368C183.588 736.997 183.796 736.685 184.061 736.431C184.316 736.187 184.608 735.998 184.94 735.861C185.271 735.725 185.608 735.647 185.951 735.63C186.293 735.612 186.636 735.654 186.98 735.756C187.325 735.858 187.653 736.015 187.934 736.231C188.214 736.447 188.45 736.748 188.641 737.102C188.831 737.457 188.941 737.873 188.973 738.349C188.988 738.589 188.997 738.708 189.012 738.948C188.328 738.996 187.986 739.019 187.302 739.059C187.287 738.819 187.281 738.7 187.266 738.46C187.242 738.05 187.109 737.754 186.871 737.574C186.632 737.392 186.356 737.311 186.045 737.326C185.733 737.342 185.47 737.452 185.251 737.656C185.033 737.861 184.936 738.167 184.957 738.577C185.085 741.078 185.15 742.33 185.28 744.831C185.301 745.241 185.434 745.538 185.678 745.723C185.922 745.906 186.205 745.992 186.525 745.977C186.846 745.962 187.118 745.851 187.341 745.643C187.564 745.436 187.663 745.128 187.639 744.716C187.587 743.824 187.56 743.378 187.507 742.487C186.958 742.519 186.683 742.534 186.133 742.559C186.1 741.96 186.084 741.661 186.051 741.062C187.287 741.002 187.904 740.966 189.139 740.879C189.236 742.37 189.284 743.115 189.382 744.607C189.414 745.106 189.356 745.54 189.208 745.906C189.06 746.273 188.853 746.582 188.594 746.832C188.322 747.093 188.015 747.296 187.671 747.437C187.326 747.578 186.976 747.658 186.62 747.674C186.263 747.691 185.906 747.646 185.548 747.538C185.19 747.429 184.867 747.248 184.581 747.024C184.293 746.798 184.039 746.515 183.85 746.165C183.662 745.815 183.557 745.391 183.534 744.892C183.419 742.391 183.362 741.141 183.249 738.64L183.247 738.639Z" fill="#390176"/>
<path d="M191.114 747.29C190.837 743.34 190.559 739.391 190.282 735.44C192.295 735.272 193.301 735.17 195.311 734.928C195.367 735.566 195.395 735.886 195.451 736.526C194.108 736.687 193.437 736.759 192.091 736.887C192.198 738.277 192.25 738.974 192.356 740.365C193.542 740.254 194.135 740.193 195.317 740.056C195.373 740.696 195.4 741.014 195.455 741.654C194.265 741.791 193.669 741.853 192.478 741.964C192.584 743.355 192.636 744.052 192.743 745.443C194.126 745.315 194.817 745.243 196.199 745.081C196.259 745.76 196.289 746.099 196.347 746.778C194.258 747.021 193.21 747.124 191.114 747.29Z" fill="#390176"/>
<path d="M197.482 746.641C197.121 742.692 196.762 738.741 196.401 734.792C197.048 734.71 197.371 734.666 198.018 734.574C199.126 736.963 199.687 738.152 200.831 740.524C200.844 740.523 200.85 740.521 200.864 740.52C201.478 737.876 201.774 736.551 202.349 733.897C203 733.784 203.325 733.726 203.974 733.605C204.437 737.55 204.9 741.495 205.362 745.438C204.666 745.564 204.317 745.626 203.618 745.743C203.298 742.863 203.136 741.423 202.816 738.543C202.802 738.546 202.796 738.546 202.783 738.549C202.335 740.699 202.105 741.773 201.633 743.916C201.286 743.97 201.112 743.997 200.765 744.05C199.874 742.117 199.436 741.146 198.567 739.204L198.535 739.208C198.814 742.091 198.954 743.532 199.234 746.413C198.533 746.509 198.183 746.554 197.482 746.641Z" fill="#390176"/>
<path d="M205.792 736.115C205.733 735.639 205.765 735.202 205.885 734.804C206.004 734.406 206.185 734.057 206.428 733.759C206.66 733.473 206.935 733.234 207.253 733.043C207.57 732.853 207.896 732.719 208.235 732.645C208.572 732.572 208.914 732.558 209.263 732.606C209.612 732.653 209.949 732.758 210.242 732.929C210.536 733.101 210.793 733.366 211.007 733.692C211.223 734.018 211.363 734.419 211.431 734.894C211.784 737.388 211.961 738.633 212.315 741.126C212.386 741.624 212.362 742.07 212.244 742.462C212.125 742.855 211.946 743.199 211.708 743.492C211.459 743.799 211.17 744.053 210.842 744.251C210.513 744.449 210.173 744.586 209.822 744.661C209.47 744.736 209.113 744.748 208.751 744.699C208.389 744.648 208.055 744.517 207.754 744.338C207.453 744.159 207.179 743.913 206.965 743.592C206.753 743.27 206.615 742.86 206.554 742.361C206.248 739.863 206.096 738.613 205.789 736.115H205.792ZM208.278 742.017C208.331 742.427 208.485 742.705 208.741 742.851C208.997 742.997 209.283 743.036 209.598 742.968C209.914 742.901 210.175 742.744 210.38 742.499C210.585 742.256 210.658 741.929 210.603 741.519C210.263 739.024 210.094 737.777 209.754 735.282C209.699 734.873 209.545 734.597 209.295 734.452C209.045 734.31 208.766 734.271 208.459 734.337C208.152 734.403 207.899 734.558 207.7 734.798C207.5 735.04 207.426 735.364 207.479 735.773C207.799 738.269 207.959 739.518 208.28 742.016L208.278 742.017Z" fill="#390176"/>
<path d="M218.404 733.685C217.738 733.878 217.406 733.973 216.738 734.159C216.714 734.008 216.702 733.931 216.677 733.779C216.615 733.393 216.472 733.085 216.249 732.854C216.025 732.623 215.702 732.565 215.279 732.68C215.051 732.741 214.873 732.834 214.746 732.961C214.618 733.087 214.517 733.228 214.454 733.383C214.386 733.545 214.353 733.727 214.349 733.917C214.344 734.108 214.356 734.302 214.386 734.502C214.422 734.733 214.46 734.924 214.499 735.074C214.539 735.224 214.6 735.352 214.684 735.456C214.768 735.559 214.88 735.64 215.02 735.694C215.159 735.75 215.346 735.792 215.579 735.822C216.124 735.89 216.398 735.923 216.945 735.986C217.34 736.026 217.669 736.109 217.931 736.237C218.193 736.364 218.422 736.536 218.584 736.75C218.75 736.968 218.88 737.257 218.98 737.58C219.081 737.903 219.166 738.278 219.236 738.708C219.319 739.203 219.346 739.677 219.316 740.13C219.286 740.582 219.184 740.991 219.009 741.351C218.826 741.726 218.557 742.056 218.204 742.337C217.85 742.618 217.398 742.834 216.849 742.98C216.433 743.091 216.034 743.12 215.653 743.068C215.271 743.017 214.931 742.897 214.635 742.708C214.338 742.519 214.09 742.274 213.889 741.975C213.689 741.676 213.56 741.326 213.502 740.929C213.464 740.677 213.446 740.552 213.41 740.3C214.093 740.133 214.434 740.048 215.115 739.872C215.147 740.084 215.163 740.19 215.196 740.402C215.243 740.712 215.377 740.965 215.599 741.167C215.822 741.367 216.151 741.41 216.587 741.294C216.877 741.216 217.097 741.114 217.246 740.988C217.394 740.862 217.5 740.709 217.566 740.53C217.63 740.351 217.654 740.151 217.636 739.932C217.618 739.713 217.588 739.471 217.546 739.206C217.497 738.899 217.445 738.648 217.392 738.455C217.338 738.263 217.269 738.108 217.183 738.012C217.093 737.913 216.969 737.841 216.829 737.799C216.69 737.757 216.509 737.719 216.284 737.688C215.77 737.62 215.512 737.584 214.999 737.512C214.225 737.404 213.677 737.132 213.356 736.702C213.036 736.273 212.822 735.687 212.714 734.948C212.65 734.506 212.648 734.072 212.71 733.644C212.771 733.217 212.906 732.828 213.096 732.481C213.283 732.142 213.538 731.834 213.862 731.571C214.187 731.308 214.593 731.111 215.079 730.981C215.49 730.87 215.876 730.844 216.241 730.903C216.605 730.963 216.931 731.083 217.222 731.265C217.804 731.651 218.154 732.184 218.266 732.866C218.322 733.196 218.349 733.362 218.403 733.692L218.404 733.685Z" fill="#390176"/>
<path d="M221.117 741.67C220.45 737.753 219.784 733.837 219.116 729.923C219.773 729.724 220.101 729.622 220.755 729.415C221.444 733.327 222.134 737.238 222.822 741.148C222.141 741.362 221.8 741.465 221.117 741.67Z" fill="#390176"/>
<path d="M228.269 730.417C227.614 730.66 227.288 730.78 226.632 731.015C226.603 730.864 226.588 730.788 226.559 730.638C226.484 730.255 226.332 729.956 226.101 729.739C225.87 729.523 225.549 729.488 225.133 729.634C224.908 729.712 224.734 729.819 224.613 729.954C224.49 730.089 224.396 730.24 224.338 730.399C224.276 730.567 224.249 730.752 224.252 730.944C224.254 731.136 224.273 731.33 224.311 731.528C224.354 731.758 224.397 731.947 224.442 732.096C224.487 732.245 224.553 732.368 224.64 732.466C224.727 732.565 224.841 732.637 224.981 732.682C225.122 732.727 225.309 732.757 225.541 732.769C226.085 732.798 226.357 732.811 226.902 732.834C227.296 732.846 227.625 732.904 227.89 733.014C228.155 733.122 228.387 733.28 228.556 733.483C228.728 733.69 228.867 733.969 228.978 734.286C229.089 734.603 229.186 734.976 229.272 735.401C229.37 735.892 229.414 736.367 229.399 736.823C229.385 737.28 229.299 737.698 229.137 738.072C228.969 738.461 228.713 738.812 228.372 739.12C228.032 739.428 227.591 739.677 227.049 739.865C226.64 740.006 226.245 740.065 225.865 740.043C225.484 740.02 225.143 739.922 224.842 739.754C224.541 739.586 224.287 739.358 224.076 739.072C223.866 738.785 223.725 738.444 223.654 738.049C223.609 737.798 223.586 737.674 223.54 737.424C224.212 737.206 224.547 737.095 225.218 736.87L225.317 737.396C225.374 737.702 225.516 737.949 225.743 738.135C225.971 738.32 226.3 738.339 226.728 738.19C227.014 738.091 227.228 737.973 227.372 737.834C227.516 737.696 227.616 737.535 227.673 737.351C227.731 737.166 227.746 736.965 227.722 736.745C227.697 736.526 227.659 736.286 227.607 736.023C227.547 735.716 227.487 735.468 227.427 735.279C227.367 735.09 227.293 734.94 227.204 734.85C227.113 734.756 226.986 734.693 226.845 734.66C226.706 734.627 226.525 734.605 226.302 734.588C225.788 734.557 225.532 734.54 225.019 734.506C224.246 734.453 223.694 734.219 223.36 733.812C223.028 733.403 222.794 732.831 222.661 732.096C222.582 731.658 222.565 731.22 222.612 730.786C222.658 730.352 222.778 729.953 222.956 729.591C223.13 729.236 223.371 728.907 223.685 728.62C223.999 728.333 224.395 728.106 224.872 727.938C225.275 727.797 225.658 727.743 226.022 727.776C226.385 727.809 226.713 727.907 227.008 728.067C227.599 728.413 227.965 728.922 228.101 729.6C228.167 729.927 228.2 730.091 228.266 730.418L228.269 730.417Z" fill="#390176"/>
<path d="M211.286 695.289C210.565 693.865 208.933 692.665 206.208 691.549C204.024 690.664 201.842 690.383 200.227 690.777C199.903 690.856 199.616 690.955 199.334 691.086C198.629 691.409 198.09 692.085 197.838 692.962C197.526 694.005 197.661 695.269 198.137 695.938C198.302 696.139 198.507 696.39 198.734 696.605C198.559 696.77 198.394 696.923 198.24 697.063C198.008 697.27 197.797 697.449 197.607 697.604C195.585 697.378 193.472 697.5 191.351 698.02C181.753 700.366 175.53 709.89 177.449 719.293C179.368 728.697 188.7 734.415 198.299 732.067C207.897 729.721 214.12 720.198 212.201 710.794C211.497 707.348 209.794 704.4 207.448 702.16C207.464 701.503 207.532 700.799 207.641 700.075C208.075 700.09 208.499 700.046 208.909 699.946C209.994 699.68 210.846 699.019 211.274 698.1C211.702 697.18 211.726 696.087 211.286 695.289ZM178.096 716.239C178.096 716.256 178.096 716.272 178.096 716.289C178.096 716.256 178.096 716.224 178.094 716.191C178.094 716.208 178.094 716.224 178.094 716.239H178.096Z" fill="#390176"/>
<path d="M199.166 730.507C194.571 731.934 190.092 731.575 189.903 731.559L189.453 731.521L188.543 728.187C187.76 727.613 184.914 725.349 184.074 722.27C183.788 721.223 183.598 720.357 183.472 719.549C183.29 718.368 183.252 717.311 183.359 716.318C183.489 715.088 183.841 713.954 184.435 712.85C185.933 710.062 186.373 707.975 185.903 705.872C185.394 703.59 185.67 702.267 186.721 701.941C187.18 701.798 187.695 701.901 188.296 702.252C189.498 702.955 190.516 703.972 190.992 704.486C192.192 704.14 195.658 703.17 197.36 702.973C197.849 702.055 199.202 699.601 200.403 698.157C201.267 697.119 202.012 696.53 202.749 696.302C203.711 696.003 204.615 696.311 205.436 697.214L205.537 697.326V697.331C205.593 697.393 205.645 697.459 205.699 697.528C206.813 698.953 207.403 701.469 207.876 703.493C208.06 704.278 208.219 704.957 208.37 705.39C208.783 706.577 209.055 707.491 209.171 707.891C209.819 708.391 211.693 710.146 211.672 713.655C211.672 713.812 211.668 713.978 211.66 714.147C211.563 716.626 210.65 722.932 204.311 727.904C202.901 729.01 201.171 729.887 199.165 730.509L199.166 730.507Z" fill="#390176"/>
<path d="M210.99 713.68C210.99 713.833 210.986 713.989 210.978 714.149C210.827 717.969 209.077 723.321 203.904 727.381C198.515 731.61 189.991 730.885 189.991 730.885L189.139 727.761C189.139 727.761 185.636 725.383 184.729 722.063C184.479 721.144 184.274 720.265 184.144 719.414C183.981 718.356 183.928 717.344 184.034 716.354C184.15 715.262 184.463 714.198 185.031 713.141C186.53 710.353 187.102 708.084 186.567 705.693C186.034 703.303 186.371 701.921 187.928 702.831C189.485 703.742 190.744 705.247 190.744 705.247C190.744 705.247 196.122 703.658 197.775 703.61C197.775 703.61 199.486 700.29 200.919 698.568C202.276 696.939 203.547 696.165 204.919 697.675C204.996 697.76 205.074 697.852 205.151 697.951C206.612 699.821 207.174 704.06 207.722 705.633C208.27 707.206 208.573 708.311 208.573 708.311C208.573 708.311 211.013 709.84 210.989 713.681L210.99 713.68Z" fill="#FFA300"/>
<path d="M210.982 714.149C210.831 717.969 209.081 723.321 203.908 727.382C198.519 731.61 189.995 730.886 189.995 730.886L189.143 727.762C189.143 727.762 185.64 725.384 184.733 722.064C184.172 720.005 183.845 718.141 184.038 716.356C185.009 715.01 185.591 715.177 186.272 716.257C186.955 717.335 186.869 717.685 188.82 716.99C190.77 716.294 192.08 716.299 195.728 717.026C199.376 717.753 200.086 715.557 202.557 713.28C205.029 711.002 206.798 711.382 208.535 711.845C210.271 712.308 210.982 714.149 210.982 714.149Z" fill="#FFF3E0"/>
<path d="M202.322 698.48C202.322 698.48 204.632 701.713 204.704 704.594C204.704 704.594 201.933 703.595 199.763 703.921C199.763 703.921 201.486 703.32 202.369 702.357C203.56 701.058 202.322 698.48 202.322 698.48Z" fill="#390176"/>
<g style="mix-blend-mode:multiply" opacity="0.6">
<path d="M210.99 713.682C210.99 713.835 210.986 713.991 210.978 714.151C210.827 717.971 209.077 723.323 203.904 727.383C198.515 731.612 189.991 730.888 189.991 730.888L189.139 727.763C189.139 727.763 185.636 725.385 184.729 722.065C184.479 721.146 184.274 720.267 184.144 719.416C184.632 718.522 185.651 719.339 186.301 720.415C186.952 721.49 188.472 723.574 188.786 723.649C189.1 723.722 189.341 722.839 188.879 722.449C188.415 722.056 187.654 720.577 187.654 720.577C187.654 720.577 192.501 718.723 192.545 719.175C192.588 719.626 191.558 721.806 192.409 722.527C193.259 723.246 194.657 722.702 196.185 721.764C197.714 720.825 198.028 719.797 199.387 719.189C200.747 718.581 201.275 717.745 203.202 716.521C205.128 715.3 208.345 715.318 208.345 715.318C209.121 712.057 207.308 708.902 205.649 706.745C203.99 704.588 199.765 703.926 199.765 703.926C201.628 703.347 203.339 703.513 204.621 703.724C205.902 703.936 206.182 703.908 206.11 702.769C206.037 701.63 205.709 699.99 204.922 697.68C204.999 697.764 205.077 697.855 205.154 697.955C206.615 699.825 207.177 704.064 207.725 705.637C208.273 707.209 208.576 708.315 208.576 708.315C208.576 708.315 211.016 709.844 210.992 713.685L210.99 713.682Z" fill="#DBB89E"/>
</g>
<path d="M198.392 713.931C198.055 714.036 197.744 714.121 197.467 714.184C196.977 714.295 195.491 714.631 195.22 713.638C195.021 712.907 195.48 711.686 196.482 711.031C196.703 710.886 196.944 710.774 197.197 710.694C197.26 710.675 197.326 710.657 197.393 710.64C199.082 710.242 199.795 710.913 200.229 711.544C200.281 711.619 200.321 711.704 200.347 711.791C200.395 711.947 200.401 712.118 200.36 712.295V712.304C200.356 712.315 200.348 712.345 200.348 712.345C200.167 713.009 199.423 713.61 198.393 713.93L198.392 713.931Z" fill="#390176"/>
<path d="M200.127 711.865C200.166 711.99 200.169 712.128 200.136 712.271C200.136 712.271 200.136 712.274 200.136 712.277C200.011 712.797 199.414 713.384 198.335 713.719C198.013 713.818 197.709 713.902 197.428 713.967C196.357 714.21 195.603 714.165 195.441 713.572C195.278 712.974 195.651 711.84 196.603 711.218C196.844 711.06 197.122 710.935 197.438 710.86C199.002 710.491 199.646 711.104 200.04 711.679C200.08 711.738 200.11 711.799 200.13 711.865H200.127Z" fill="#FFF3E0"/>
<path d="M200.127 711.865C200.145 712.002 200.148 712.137 200.136 712.271C200.136 712.271 200.136 712.274 200.136 712.277C200.012 712.797 199.415 713.384 198.336 713.719C198.014 713.818 197.71 713.902 197.428 713.967C196.915 713.764 196.508 713.337 196.352 712.767C196.205 712.227 196.312 711.67 196.602 711.218C196.843 711.06 197.122 710.935 197.437 710.86C199.002 710.491 199.645 711.104 200.039 711.679C200.08 711.738 200.109 711.799 200.129 711.865H200.127Z" fill="#390176"/>
<path d="M198.672 711.779C198.849 711.644 198.89 711.396 198.761 711.226C198.633 711.056 198.385 711.028 198.207 711.163C198.029 711.299 197.989 711.546 198.117 711.716C198.245 711.886 198.494 711.914 198.672 711.779Z" fill="#FFF3E0"/>
<path d="M187.897 719.57L187.349 719.194C188.213 717.998 189.761 713.606 189.776 713.562L190.418 713.756C190.354 713.941 188.821 718.29 187.897 719.568V719.57Z" fill="#390176"/>
<path d="M189.017 715.404C188.967 715.419 188.917 715.433 188.864 715.443C188.366 715.544 187.846 715.395 187.542 715.062C187.292 714.788 187.219 714.428 187.336 714.048C187.427 713.753 187.533 713.51 187.664 713.307C187.897 712.941 188.212 712.7 188.622 712.573C188.75 712.534 188.89 712.502 189.051 712.479C189.506 712.415 190.114 712.643 190.343 713.136C190.518 713.514 190.532 714.157 189.59 715.066C189.429 715.222 189.235 715.337 189.015 715.404H189.017Z" fill="#390176"/>
<path d="M189.439 714.907C189.266 715.076 189.053 715.178 188.833 715.221C188.112 715.367 187.315 714.889 187.556 714.102C187.641 713.823 187.742 713.599 187.857 713.42C188.164 712.938 188.576 712.771 189.077 712.701C189.764 712.603 191.04 713.363 189.441 714.907H189.439Z" fill="#FFF3E0"/>
<path d="M189.439 714.907C189.266 715.075 189.053 715.177 188.833 715.221C188.36 715.102 187.969 714.748 187.833 714.247C187.757 713.968 187.77 713.681 187.857 713.418C188.164 712.936 188.575 712.769 189.077 712.699C189.764 712.601 191.039 713.361 189.441 714.905L189.439 714.907Z" fill="#390176"/>
<path d="M189.496 713.478C189.597 713.401 189.62 713.26 189.547 713.162C189.473 713.065 189.331 713.049 189.23 713.126C189.128 713.203 189.105 713.345 189.179 713.442C189.252 713.539 189.394 713.555 189.496 713.478Z" fill="#FFF3E0"/>
<path d="M187.656 720.576C186.706 719.557 187.49 718.444 188.502 718.118C189.514 717.792 190.622 717.229 191.541 717.461C192.46 717.692 192.957 718.812 192.225 719.969C191.493 721.127 191.011 721.974 190.075 722.032C189.14 722.09 187.992 720.935 187.656 720.576Z" fill="#390176"/>
<path d="M188.443 720.447C188.383 720.465 188.317 720.46 188.262 720.427C188.235 720.411 187.591 720.022 187.719 719.406C187.781 719.104 188.168 718.541 189.218 718.348C189.343 718.326 189.457 718.407 189.474 718.529C189.491 718.65 189.404 718.768 189.28 718.79C188.448 718.942 188.192 719.335 188.163 719.475C188.1 719.782 188.506 720.035 188.509 720.038C188.614 720.101 188.644 720.238 188.575 720.346C188.543 720.396 188.495 720.43 188.443 720.447Z" fill="#FFF3E0"/>
<path d="M190.665 723.755C190.484 723.812 190.297 723.713 190.249 723.536L189.74 721.67C189.692 721.493 189.8 721.304 189.981 721.247C190.162 721.19 190.349 721.289 190.397 721.466L190.906 723.332C190.954 723.509 190.846 723.698 190.665 723.755Z" fill="#390176"/>
<path d="M195.214 723.717C194.262 724.013 193.279 723.96 191.566 723.738C190.592 723.612 190.219 723.95 189.824 724.306C189.545 724.558 189.23 724.844 188.74 724.874C187.625 724.943 186.86 722.461 186.652 721.698C186.604 721.521 186.712 721.332 186.893 721.275C187.074 721.218 187.261 721.317 187.309 721.494C187.703 722.931 188.379 724.222 188.728 724.201C188.957 724.187 189.116 724.054 189.376 723.818C189.803 723.43 190.388 722.901 191.683 723.068C193.53 723.307 194.457 723.34 195.411 722.936C196.208 722.597 197.705 720.955 198.214 720.351C198.339 720.205 198.553 720.18 198.695 720.295C198.837 720.411 198.852 720.623 198.729 720.768C198.53 721.004 196.755 723.086 195.655 723.553C195.506 723.616 195.36 723.671 195.213 723.716L195.214 723.717Z" fill="#390176"/>
<path d="M195.002 726.565C191.308 727.711 189.802 725.605 189.733 725.503C189.63 725.353 189.673 725.141 189.83 725.033C189.987 724.923 190.197 724.956 190.3 725.105C190.369 725.202 191.999 727.421 196.275 725.341C196.447 725.258 196.647 725.324 196.724 725.491C196.8 725.657 196.724 725.86 196.552 725.943C195.998 726.212 195.481 726.416 195.002 726.565Z" fill="#390176"/>
<path d="M195.873 708.848C195.252 709.622 195.671 710.579 197.03 709.963C198.388 709.347 198.787 708.195 197.901 707.996C197.015 707.798 196.496 708.075 195.874 708.848H195.873Z" fill="#FFF3E0"/>
<path d="M190.146 710.69C190.663 711.259 190.363 712.123 189.269 711.786C188.175 711.45 187.822 710.532 188.516 710.245C189.211 709.958 189.63 710.122 190.148 710.69H190.146Z" fill="#FFF3E0"/>
<path d="M191.083 705.106C190.947 705.151 190.793 705.21 190.648 705.27C190.501 705.33 190.354 705.395 190.211 705.464C189.922 705.6 189.639 705.754 189.363 705.92C189.089 706.09 188.827 706.279 188.579 706.488C188.333 706.7 188.107 706.936 187.907 707.199C188.059 706.909 188.245 706.632 188.459 706.374C188.676 706.12 188.914 705.878 189.167 705.656C189.422 705.435 189.69 705.226 189.967 705.033C190.106 704.935 190.246 704.842 190.392 704.752C190.538 704.66 190.679 704.576 190.842 704.49L191.082 705.109L191.083 705.106Z" fill="#390176"/>
<path d="M189.06 727.729C189.163 727.82 189.287 727.918 189.409 728.008C189.53 728.1 189.656 728.187 189.784 728.272C190.04 728.442 190.307 728.597 190.584 728.736C190.861 728.875 191.15 728.99 191.449 729.086C191.75 729.177 192.061 729.237 192.383 729.261C192.06 729.292 191.731 729.289 191.406 729.252C191.082 729.208 190.761 729.142 190.446 729.052C190.133 728.959 189.825 728.849 189.526 728.72C189.376 728.655 189.226 728.588 189.079 728.516C188.931 728.442 188.791 728.37 188.638 728.278L189.06 727.73V727.729Z" fill="#390176"/>
<path d="M208.602 708.316C208.403 708.017 208.187 707.717 207.969 707.422C207.75 707.128 207.524 706.839 207.289 706.558C207.055 706.276 206.81 706.003 206.549 705.744C206.287 705.487 206.017 705.237 205.695 705.049C206.045 705.186 206.359 705.396 206.665 705.614C206.969 705.833 207.259 706.07 207.539 706.318C207.82 706.564 208.094 706.82 208.361 707.081C208.629 707.344 208.889 707.608 209.147 707.888L208.6 708.316H208.602Z" fill="#390176"/>
</g>
</g>
</g>
<defs>
<radialGradient id="paint0_radial_1023_38489" cx="0" cy="0" r="1" gradientUnits="userSpaceOnUse" gradientTransform="translate(73.3525 716.515) rotate(-84.9772) scale(538.974 720.913)">
<stop stop-color="#F530E4"/>
<stop offset="0.298236" stop-color="#7E1BFD" stop-opacity="0.85"/>
<stop offset="0.631636" stop-color="#2F0F64" stop-opacity="0.446602"/>
<stop offset="1" stop-color="#140F34" stop-opacity="0"/>
</radialGradient>
<radialGradient id="paint1_radial_1023_38489" cx="0" cy="0" r="1" gradientUnits="userSpaceOnUse" gradientTransform="translate(183.615 752.148) rotate(-69.8203) scale(270.875 510.728)">
<stop stop-color="#CA2EBD"/>
<stop offset="1" stop-color="#170F4F" stop-opacity="0"/>
</radialGradient>
<radialGradient id="paint2_radial_1023_38489" cx="0" cy="0" r="1" gradientUnits="userSpaceOnUse" gradientTransform="translate(39.2459 742.999) rotate(-70.1609) scale(243.67 254.773)">
<stop stop-color="#F7752F"/>
<stop offset="1" stop-color="#27094C" stop-opacity="0"/>
</radialGradient>
<linearGradient id="paint3_linear_1023_38489" x1="190.377" y1="268.68" x2="190.377" y2="563.18" gradientUnits="userSpaceOnUse">
<stop stop-color="#D9D9D9" stop-opacity="0"/>
<stop offset="1" stop-color="#737373"/>
</linearGradient>
<linearGradient id="paint4_linear_1023_38489" x1="300.189" y1="603.076" x2="364.878" y2="755.806" gradientUnits="userSpaceOnUse">
<stop stop-color="#1B0939"/>
<stop offset="1" stop-color="#DD35E6"/>
</linearGradient>
<linearGradient id="paint5_linear_1023_38489" x1="348.87" y1="730.046" x2="286.87" y2="708.231" gradientUnits="userSpaceOnUse">
<stop stop-color="#FAA185"/>
<stop offset="0.300609" stop-color="#FA825D" stop-opacity="0.55"/>
<stop offset="1" stop-color="#CA2EBD" stop-opacity="0"/>
</linearGradient>
<linearGradient id="paint6_linear_1023_38489" x1="260.447" y1="581.359" x2="346.9" y2="610.19" gradientUnits="userSpaceOnUse">
<stop stop-color="#F3E0FA"/>
<stop offset="0.329161" stop-color="#FF8642"/>
<stop offset="0.606741" stop-color="#CA36FE"/>
<stop offset="1" stop-color="#492CE1"/>
</linearGradient>
<linearGradient id="paint7_linear_1023_38489" x1="43.4421" y1="603.032" x2="69.3154" y2="630.018" gradientUnits="userSpaceOnUse">
<stop stop-color="#291A87"/>
<stop offset="1" stop-color="#D44ABE"/>
</linearGradient>
<linearGradient id="paint8_linear_1023_38489" x1="0.598037" y1="497.869" x2="0.598037" y2="605.535" gradientUnits="userSpaceOnUse">
<stop offset="0.0663438" stop-color="#291A87"/>
<stop offset="0.575691" stop-color="#FF8642"/>
<stop offset="1" stop-color="#D44ABE"/>
</linearGradient>
<linearGradient id="paint9_linear_1023_38489" x1="93.7987" y1="577.158" x2="6.71961" y2="576.045" gradientUnits="userSpaceOnUse">
<stop stop-color="#F3E0FA"/>
<stop offset="0.329161" stop-color="#FF8642"/>
<stop offset="0.606741" stop-color="#CA36FE"/>
<stop offset="1" stop-color="#492CE1"/>
</linearGradient>
<linearGradient id="paint10_linear_1023_38489" x1="93.7987" y1="577.158" x2="6.71961" y2="576.045" gradientUnits="userSpaceOnUse">
<stop stop-color="#F3E0FA"/>
<stop offset="0.329161" stop-color="#FF8642"/>
<stop offset="0.606741" stop-color="#CA36FE"/>
<stop offset="1" stop-color="#492CE1"/>
</linearGradient>
<linearGradient id="paint11_linear_1023_38489" x1="5.01888" y1="679.947" x2="-4.8497" y2="760.776" gradientUnits="userSpaceOnUse">
<stop stop-color="#291A87"/>
<stop offset="0.508576" stop-color="#FF8642"/>
<stop offset="1" stop-color="#D44ABE"/>
</linearGradient>
<linearGradient id="paint12_linear_1023_38489" x1="70.0951" y1="635.092" x2="1.44044" y2="663.834" gradientUnits="userSpaceOnUse">
<stop stop-color="#F5DFC1"/>
<stop offset="0.508576" stop-color="#FF8642"/>
<stop offset="1" stop-color="#D44ABE"/>
</linearGradient>
<linearGradient id="paint13_linear_1023_38489" x1="5.57529" y1="669.036" x2="5.57529" y2="723.565" gradientUnits="userSpaceOnUse">
<stop stop-color="#291A87"/>
<stop offset="0.508576" stop-color="#FF8642"/>
<stop offset="1" stop-color="#D44ABE"/>
</linearGradient>
<linearGradient id="paint14_linear_1023_38489" x1="103.503" y1="651.787" x2="-3.65834" y2="719.782" gradientUnits="userSpaceOnUse">
<stop stop-color="#F3E0FA"/>
<stop offset="0.329161" stop-color="#FF8642"/>
<stop offset="0.606741" stop-color="#CA36FE"/>
<stop offset="1" stop-color="#492CE1"/>
</linearGradient>
<clipPath id="clip0_1023_38489">
<rect width="342" height="755" fill="white" transform="translate(0 0.179688)"/>
</clipPath>
<clipPath id="clip1_1023_38489">
<rect width="343" height="491" fill="white" transform="translate(0 264)"/>
</clipPath>
<clipPath id="clip2_1023_38489">
<rect width="196.819" height="265.179" fill="white" transform="translate(62 516)"/>
</clipPath>
</defs>
</svg>
