<svg width="416" height="755" viewBox="0 0 416 755" fill="none" xmlns="http://www.w3.org/2000/svg">
<g clip-path="url(#clip0_1076_29493)">
<rect width="416" height="755" transform="matrix(-1 0 0 1 416 0)" fill="url(#paint0_radial_1076_29493)"/>
<rect width="416" height="755" transform="matrix(-1 0 0 1 416 0)" fill="url(#paint1_radial_1076_29493)"/>
<rect width="416" height="755" transform="matrix(-1 0 0 1 416 0)" fill="url(#paint2_radial_1076_29493)"/>
<g clip-path="url(#clip1_1076_29493)">
<g opacity="0.15">
<mask id="mask0_1076_29493" style="mask-type:alpha" maskUnits="userSpaceOnUse" x="-77" y="219" width="687" height="688">
<circle cx="266.5" cy="562.68" r="343.5" fill="url(#paint3_linear_1076_29493)"/>
</mask>
<g mask="url(#mask0_1076_29493)">
<path d="M192.054 554.625L-201.053 162.031" stroke="white" stroke-width="0.942597"/>
<path d="M192.054 637.253L-201.053 902.973" stroke="white" stroke-width="0.942597"/>
<path d="M192.055 620.839L-201.053 750.773" stroke="white" stroke-width="0.942597"/>
<path d="M192.055 602.755L-201.053 615.028" stroke="white" stroke-width="0.942597"/>
<path d="M192.298 584.691L-201.053 465.4" stroke="white" stroke-width="0.942597"/>
<path d="M192.054 568.257L-201.053 319.886" stroke="white" stroke-width="0.942597"/>
<path d="M192.054 655.893L-201.053 1049" stroke="white" stroke-width="0.942597"/>
<path d="M293.045 655.893L685.917 1049" stroke="white" stroke-width="0.942597"/>
<path d="M274.054 655.649L539.888 1049" stroke="white" stroke-width="0.942597"/>
<path d="M257.6 655.649L387.689 1049" stroke="white" stroke-width="0.942597"/>
<path d="M239.604 655.135L251.944 1049" stroke="white" stroke-width="0.942597"/>
<path d="M221.607 655.649L102.316 1049" stroke="white" stroke-width="0.942597"/>
<path d="M205.667 655.135L-43.199 1049" stroke="white" stroke-width="0.942597"/>
<path d="M293.045 554.903L685.875 161.517" stroke="white" stroke-width="0.942597"/>
<path d="M274.056 554.868L539.89 161.517" stroke="white" stroke-width="0.942597"/>
<path d="M257.6 554.868L387.689 161.517" stroke="white" stroke-width="0.942597"/>
<path d="M239.628 554.624L251.944 161.517" stroke="white" stroke-width="0.942597"/>
<path d="M221.267 554.624L102.194 161.517" stroke="white" stroke-width="0.942597"/>
<path d="M205.131 554.624L-43.1973 161.517" stroke="white" stroke-width="0.942597"/>
<path d="M293.321 637.807L686.429 903.484" stroke="white" stroke-width="0.942597"/>
<path d="M293.321 621.116L686.429 751.287" stroke="white" stroke-width="0.942597"/>
<path d="M293.321 603.311L686.429 615.542" stroke="white" stroke-width="0.942597"/>
<path d="M293.321 584.949L686.429 465.914" stroke="white" stroke-width="0.942597"/>
<path d="M293.321 569.091L686.429 320.399" stroke="white" stroke-width="0.942597"/>
<rect x="192.255" y="554.826" width="100.866" height="100.866" stroke="white" stroke-width="0.942597"/>
<rect x="186.087" y="548.655" width="113.206" height="113.206" stroke="white" stroke-width="0.942597"/>
<rect x="173.745" y="536.315" width="137.887" height="137.887" stroke="white" stroke-width="0.942597"/>
<rect x="162.758" y="524.215" width="160.512" height="160.512" stroke="white" stroke-width="0.942597"/>
<rect x="151.122" y="513.691" width="183.136" height="183.136" stroke="white" stroke-width="0.942597"/>
<rect x="137.751" y="500.321" width="209.873" height="209.873" stroke="white" stroke-width="0.942597"/>
<rect x="117.185" y="479.755" width="251.008" height="251.008" stroke="white" stroke-width="0.942597"/>
<rect x="97.6461" y="460.215" width="290.086" height="290.086" stroke="white" stroke-width="0.942597"/>
<rect x="72.9635" y="435.536" width="339.448" height="339.448" stroke="white" stroke-width="0.942597"/>
<rect x="45.1979" y="407.768" width="394.98" height="394.98" stroke="white" stroke-width="0.942597"/>
<rect x="11.2623" y="373.833" width="462.852" height="462.852" stroke="white" stroke-width="0.942597"/>
<rect x="-28.8441" y="333.726" width="543.065" height="543.065" stroke="white" stroke-width="0.942597"/>
<rect x="-75.1215" y="287.449" width="635.618" height="635.618" stroke="white" stroke-width="0.942597"/>
<rect x="-132.708" y="229.86" width="750.796" height="750.796" stroke="white" stroke-width="0.942597"/>
</g>
</g>
<path d="M424.879 617.813L358.286 615.804L357.999 687.851L424.879 733.777V617.813Z" fill="url(#paint4_linear_1076_29493)" stroke="#9084CF" stroke-opacity="0.25"/>
<path d="M425.166 708.805L384.694 687.758V616.378" stroke="#9084CF" stroke-opacity="0.25" stroke-width="0.754078"/>
<path d="M424.879 692.73L414.546 687.614V617.812" stroke="#9084CF" stroke-opacity="0.25" stroke-width="0.754078"/>
<path d="M358.286 687.562H425.166" stroke="#9084CF" stroke-opacity="0.25" stroke-width="0.754078"/>
<path d="M358.286 650.822H425.166" stroke="#9084CF" stroke-opacity="0.25" stroke-width="0.754078"/>
<path d="M378.953 702.49H424.879" stroke="#9084CF" stroke-opacity="0.25" stroke-width="0.754078"/>
<path d="M424.879 617.813L339.055 615.804L343.647 740.953L424.879 733.777V617.813Z" fill="url(#paint5_linear_1076_29493)"/>
<path d="M417.338 559.798C417.222 559.802 417.109 559.83 416.998 559.863L359.637 577.015C359.526 577.048 359.412 577.07 359.3 577.097C358.535 577.282 357.984 577.969 357.984 578.771L357.983 615.803C357.983 616.732 358.72 617.494 359.648 617.525L417.343 619.188C418.316 619.221 419.122 618.441 419.122 617.467V561.519C419.122 560.533 418.3 559.762 417.338 559.798Z" fill="url(#paint6_linear_1076_29493)"/>
<path d="M103.81 597.189L129.324 621.662C130.447 622.739 131.943 623.341 133.5 623.341H140.812L133.578 598.594L103.81 597.189Z" fill="url(#paint7_linear_1076_29493)"/>
<path d="M82.3879 494.809H74.4735C72.3912 494.809 70.7031 496.497 70.7031 498.579V601.765C70.7031 603.847 72.3912 605.535 74.4735 605.535H82.3879V494.809Z" fill="url(#paint8_linear_1076_29493)"/>
<mask id="mask1_1076_29493" style="mask-type:alpha" maskUnits="userSpaceOnUse" x="80" y="494" width="62" height="130">
<path d="M141.925 534.928C141.925 534.37 141.647 533.85 141.184 533.54L83.3163 494.874C82.2071 494.133 80.7197 494.928 80.7197 496.262V603.835C80.7197 604.769 81.4856 605.521 82.4193 605.504L119.324 604.833C119.761 604.825 120.184 604.989 120.501 605.29L139.109 622.9C140.173 623.907 141.925 623.153 141.925 621.688V534.928Z" fill="url(#paint9_linear_1076_29493)"/>
</mask>
<g mask="url(#mask1_1076_29493)">
<path d="M141.925 534.928C141.925 534.37 141.647 533.85 141.184 533.54L83.3163 494.874C82.2071 494.133 80.7197 494.928 80.7197 496.262V603.835C80.7197 604.769 81.4856 605.521 82.4193 605.504L119.324 604.833C119.761 604.825 120.184 604.989 120.501 605.29L139.109 622.9C140.173 623.907 141.925 623.153 141.925 621.688V534.928Z" fill="url(#paint10_linear_1076_29493)"/>
</g>
<mask id="mask2_1076_29493" style="mask-type:alpha" maskUnits="userSpaceOnUse" x="62" y="634" width="90" height="88">
<path d="M143.701 634.816C143.057 634.816 142.417 634.92 141.805 635.122L67.0197 659.877C64.5502 660.694 62.8828 663.003 62.8828 665.604V715.306C62.8828 718.638 65.5837 721.339 68.9154 721.339H74.5675L149.011 670.277C150.651 669.152 151.631 667.291 151.631 665.302V639.341C151.631 636.842 149.605 634.816 147.107 634.816H143.701Z" fill="url(#paint11_linear_1076_29493)"/>
</mask>
<g mask="url(#mask2_1076_29493)">
<path d="M141.542 635.285L62.8828 660.968L75.4022 663.194L151.631 638.711L151.909 634.538L144.49 634.769C143.488 634.8 142.495 634.974 141.542 635.285Z" fill="url(#paint12_linear_1076_29493)"/>
<path d="M77.3496 660.968H62.8828V718.115C62.8828 719.753 64.1899 721.092 65.8273 721.131L72.3249 721.286C73.7813 721.32 75.2101 720.885 76.4002 720.045L79.2971 718L77.3496 660.968Z" fill="url(#paint13_linear_1076_29493)"/>
<mask id="mask3_1076_29493" style="mask-type:alpha" maskUnits="userSpaceOnUse" x="74" y="636" width="78" height="83">
<path d="M149.337 670.052L79.2889 718.1C77.2873 719.473 74.5664 718.04 74.5664 715.612V666.372C74.5664 663.141 76.6245 660.27 79.684 659.231L146.648 636.507C149.093 635.677 151.63 637.495 151.63 640.077V665.699C151.63 667.439 150.772 669.068 149.337 670.052Z" fill="#D9D9D9"/>
</mask>
<g mask="url(#mask3_1076_29493)">
<path d="M151.63 668.48L74.5664 721.339V660.968L151.63 634.816V668.48Z" fill="url(#paint14_linear_1076_29493)"/>
<path d="M104.022 684.501L103.095 683.584C99.6578 680.22 97.2714 677.878 97.2783 673.525C97.2853 669.973 99.0007 666.563 101.096 665.77C102.245 665.334 103.317 665.802 104.009 666.895C104.686 665.269 105.71 664.019 106.761 663.623C108.56 662.939 109.936 664.852 109.943 667.975C109.957 671.794 108.027 675.932 104.928 682.549L104.015 684.501H104.022Z" fill="white"/>
<path d="M112.137 670.11L114.004 669.232L114.053 678.972L112.178 680.058L112.137 670.11ZM119.559 675.771L114.779 678.549L114.724 668.334L115.782 664.743L116.052 660.637C116.072 660.305 116.155 659.987 116.28 659.726C116.404 659.466 116.564 659.29 116.73 659.232L116.778 659.212C117.048 659.115 117.311 659.225 117.497 659.525C117.691 659.824 117.795 660.286 117.802 660.806L117.829 664.762L120.423 663.617C120.755 663.474 121.073 663.598 121.309 663.975C121.544 664.346 121.675 664.931 121.682 665.601L121.724 670.039C121.73 671.216 121.516 672.472 121.115 673.546C120.714 674.626 120.153 675.426 119.559 675.777V675.771Z" fill="white"/>
<path d="M128.827 666.317L128.807 664.417L131.117 655.419L132.258 654.97L132.362 662.432L132.964 662.133L132.991 664.124L132.39 664.443L132.424 666.785L131.442 667.332L131.407 664.957L128.834 666.31L128.827 666.317ZM131.373 657.813L129.955 663.636L131.435 662.894L131.366 657.813H131.373Z" fill="white"/>
<path d="M124.774 668.158C125.299 666.909 125.714 665.894 126.026 665.106C126.33 664.313 126.579 663.525 126.773 662.745C126.966 661.97 127.063 661.255 127.056 660.598C127.056 659.999 126.98 659.557 126.849 659.27C126.717 658.984 126.517 658.893 126.247 659.01C125.977 659.127 125.77 659.413 125.624 659.882C125.479 660.337 125.41 660.916 125.41 661.612L124.262 662.12C124.269 660.65 124.462 659.465 124.829 658.561C125.202 657.67 125.673 657.11 126.24 656.895C126.849 656.661 127.319 656.837 127.644 657.416C127.969 657.982 128.135 658.834 128.149 659.979C128.163 660.884 128.059 661.795 127.852 662.719C127.644 663.649 127.395 664.501 127.118 665.263C126.835 666.024 126.468 666.961 126.005 668.093L128.357 666.85L128.377 668.873L124.359 671.112L124.338 669.199L124.774 668.158Z" fill="white"/>
</g>
</g>
<g clip-path="url(#clip2_1076_29493)">
<path d="M316.092 623.003C310.706 619.898 298.686 614.038 278.683 609.678C259.441 605.484 238.488 603.892 216.408 604.944C213.32 605.091 210.348 605.29 207.572 605.535C181.101 607.87 168.318 614.613 167.342 626.755C166.699 634.769 172.847 641.538 185.618 646.877C197.688 651.923 216.467 656.048 241.434 659.139C255.768 660.913 268.735 661.31 279.969 660.319C292.935 659.175 303.39 656.246 311.04 651.613C317.412 647.755 321.554 642.746 322.703 637.512C323.989 631.656 321.456 626.095 316.09 623.003H316.092Z" fill="#390176"/>
<path d="M279.748 657.797C268.689 658.773 255.902 658.379 241.742 656.627C217.003 653.565 198.447 649.498 186.589 644.542C174.941 639.672 169.312 633.758 169.857 626.96C170.714 616.273 182.769 610.267 207.793 608.06C210.534 607.818 213.473 607.622 216.527 607.475C238.389 606.432 259.119 608.007 278.147 612.155C297.817 616.443 309.575 622.168 314.833 625.2C319.208 627.722 321.28 632.232 320.239 636.969C318.37 645.477 306.753 655.416 279.748 657.799V657.797Z" fill="#710125"/>
<path d="M169.858 626.957C168.77 640.492 191.598 650.417 241.743 656.624C317.208 665.965 330.165 634.036 314.834 625.198C299.504 616.359 265.102 605.156 216.528 607.473C180.354 609.197 170.624 617.433 169.859 626.957H169.858Z" fill="#710125"/>
<path d="M160.596 781.18L160.436 778.965C159.507 766.08 159.798 751.715 161.299 736.268L161.319 736.062C161.779 731.365 162.355 726.515 163.032 721.645C163.152 720.788 163.274 719.933 163.399 719.082C163.643 717.425 163.908 715.69 164.189 713.921C164.227 713.686 164.393 712.655 164.393 712.655C164.603 711.38 164.811 710.125 165.027 708.88C165.027 708.88 165.05 708.752 165.055 708.719L165.062 708.668C165.431 706.54 165.782 704.595 166.136 702.72C166.419 701.212 166.721 699.646 167.062 697.934C167.287 696.801 167.515 695.68 167.745 694.57L167.776 694.421C168.444 691.208 169.157 687.955 169.895 684.751C171.408 678.206 173.049 671.764 174.771 665.603C174.841 665.351 174.914 665.09 174.987 664.832L175.043 664.634C175.085 664.479 175.132 664.317 175.178 664.154C175.253 663.885 175.329 663.619 175.405 663.356L175.444 663.218C175.756 662.132 176.061 661.087 176.357 660.085L176.607 659.243C176.693 658.955 176.778 658.678 176.862 658.402C177.148 657.454 177.428 656.545 177.698 655.68L178.083 654.452L179.34 654.195C179.657 654.129 211.404 647.663 242.582 644.912C281.113 641.512 301.922 644.957 306.201 655.443C306.62 656.47 307.033 657.498 307.439 658.523C307.63 659.005 307.819 659.485 308.006 659.967C308.583 661.446 309.169 662.98 309.79 664.651C309.98 665.157 310.169 665.669 310.356 666.182C310.716 667.162 311.102 668.225 311.527 669.424L311.982 670.721C312.354 671.784 312.719 672.842 313.074 673.896C313.225 674.334 313.374 674.781 313.522 675.226L314.003 676.672C314.011 676.694 314.017 676.716 314.023 676.738C314.124 677.043 314.224 677.347 314.323 677.651L314.497 678.187C314.682 678.761 314.861 679.321 315.041 679.876C315.536 681.439 315.962 682.809 316.347 684.075C316.495 684.563 316.643 685.049 316.785 685.529L316.858 685.776C316.978 686.178 317.098 686.578 317.216 686.979C317.624 688.362 318.041 689.808 318.452 691.275C318.677 692.078 318.898 692.873 319.112 693.661L319.234 694.103C319.363 694.57 319.49 695.043 319.614 695.515C320.003 696.966 320.389 698.45 320.767 699.922L321.091 701.212C321.178 701.558 321.264 701.903 321.348 702.244C322.485 706.846 323.546 711.528 324.501 716.159L324.688 717.068L324.863 717.943C324.896 718.097 324.93 718.272 324.966 718.448L325.011 718.674C325.203 719.642 325.391 720.597 325.57 721.544C326.744 727.693 327.762 733.892 328.596 739.97C330.619 754.683 330.9 763.706 330.911 764.083L330.971 766.144L160.598 781.177L160.596 781.18Z" fill="#390176"/>
<path d="M328.734 764.149L162.611 778.808C161.609 764.902 162.107 750.389 163.488 736.279V736.276C163.961 731.439 164.537 726.651 165.191 721.948C165.31 721.095 165.433 720.244 165.554 719.398C165.808 717.674 166.072 715.964 166.34 714.266C166.407 713.844 166.477 713.423 166.544 713.002C166.75 711.744 166.959 710.494 167.173 709.254C167.185 709.183 167.199 709.113 167.209 709.042C167.554 707.047 167.908 705.074 168.276 703.13C168.577 701.52 168.886 699.93 169.197 698.363C169.421 697.235 169.649 696.12 169.877 695.017C169.89 694.967 169.899 694.918 169.909 694.868C170.6 691.548 171.307 688.331 172.018 685.244C173.66 678.143 175.327 671.709 176.869 666.195C176.958 665.872 177.051 665.548 177.14 665.23C177.183 665.072 177.227 664.915 177.273 664.757C177.36 664.442 177.45 664.129 177.539 663.824C177.85 662.745 178.153 661.707 178.448 660.709C178.532 660.424 178.617 660.143 178.699 659.864C178.782 659.588 178.864 659.314 178.948 659.044C179.234 658.097 179.51 657.196 179.779 656.337C179.779 656.337 294.608 632.794 304.187 656.273C304.605 657.295 305.013 658.315 305.417 659.333C305.607 659.81 305.793 660.285 305.976 660.759C306.585 662.318 307.176 663.872 307.752 665.417C307.941 665.922 308.128 666.427 308.311 666.932C308.709 668.014 309.096 669.088 309.478 670.16C309.627 670.589 309.779 671.017 309.93 671.445C310.298 672.501 310.661 673.552 311.016 674.599C311.166 675.039 311.314 675.479 311.458 675.915C311.614 676.381 311.767 676.846 311.923 677.309C311.931 677.335 311.941 677.365 311.949 677.394C312.112 677.887 312.271 678.378 312.431 678.869C312.611 679.432 312.791 679.993 312.971 680.549C313.414 681.945 313.847 683.333 314.265 684.713C314.411 685.196 314.557 685.681 314.7 686.158C314.843 686.64 314.986 687.118 315.127 687.597C315.552 689.032 315.96 690.456 316.358 691.869C316.58 692.664 316.8 693.455 317.013 694.239C317.054 694.387 317.094 694.533 317.134 694.681C317.263 695.147 317.388 695.614 317.51 696.078C317.905 697.554 318.287 699.019 318.658 700.468C318.752 700.839 318.843 701.206 318.935 701.571C319.036 701.973 319.137 702.374 319.235 702.771C320.42 707.569 321.461 712.196 322.369 716.607C322.432 716.911 322.494 717.214 322.556 717.516L322.73 718.381C322.781 718.623 322.828 718.866 322.876 719.109C323.067 720.069 323.253 721.019 323.432 721.957C324.721 728.707 325.698 734.868 326.439 740.273C328.468 755.039 328.734 764.152 328.734 764.152V764.149Z" fill="#FFA300"/>
<path d="M196.052 775.856C196.052 775.856 190.001 694.151 215.566 666.582C215.566 666.582 252.054 697.179 253.404 770.795L196.052 775.856Z" fill="#FFF3E0"/>
<g style="mix-blend-mode:multiply" opacity="0.6">
<path d="M328.732 764.149L301.16 766.583C300.806 761.52 300.182 756.354 299.451 751.49C296.762 752.306 292.533 753.526 289.858 754.2C289.053 754.402 283.406 767.937 283.406 767.937L278.003 768.689L280.248 756.182L240.604 759.22L240.388 773.105L236.541 772.896L240.018 756.402L227.914 755.55L218.811 703.643L212.173 761.588C205.279 760.446 198.775 758.285 192.886 755.67C190.394 765.233 185.164 770.79 176.942 772.049L176.658 777.567L162.607 778.807C161.605 764.901 162.104 750.388 163.485 736.278V736.275C163.957 731.438 164.533 726.65 165.187 721.947H165.19C165.31 721.094 165.43 720.243 165.552 719.397C165.805 717.673 166.07 715.963 166.338 714.265C166.405 713.843 166.475 713.422 166.542 713.001C166.748 711.743 166.957 710.493 167.171 709.254C167.183 709.182 167.197 709.112 167.207 709.042C167.553 707.043 167.909 705.073 168.274 703.129C168.575 701.519 168.884 699.929 169.195 698.362C169.419 697.234 169.647 696.119 169.875 695.016C169.888 694.966 169.897 694.917 169.906 694.867C170.598 691.547 171.305 688.33 172.016 685.243C173.658 678.142 175.325 671.709 176.867 666.194C176.956 665.871 177.049 665.547 177.138 665.229C177.181 665.071 177.225 664.914 177.271 664.756C177.358 664.441 177.448 664.128 177.537 663.823C177.847 662.744 178.15 661.706 178.446 660.708C178.529 660.423 178.615 660.142 178.697 659.863C178.78 659.587 178.862 659.313 178.946 659.043C179.232 658.096 179.508 657.195 179.777 656.336C179.777 656.336 294.606 632.793 304.185 656.272C304.602 657.294 305.011 658.314 305.415 659.332C305.604 659.809 305.791 660.284 305.974 660.758C306.583 662.317 307.173 663.871 307.75 665.416C307.939 665.921 308.126 666.426 308.309 666.931C308.707 668.013 309.093 669.087 309.476 670.159C309.625 670.588 309.777 671.016 309.928 671.444C310.296 672.5 310.659 673.551 311.013 674.599C311.164 675.038 311.312 675.478 311.456 675.914C311.611 676.38 311.765 676.845 311.921 677.308C311.928 677.334 311.939 677.364 311.947 677.393C312.11 677.886 312.269 678.377 312.429 678.868C312.609 679.431 312.789 679.992 312.969 680.548C313.412 681.944 313.845 683.332 314.263 684.712C314.409 685.195 314.555 685.68 314.698 686.157C314.841 686.639 314.984 687.117 315.125 687.596C315.549 689.031 315.958 690.455 316.356 691.868C316.578 692.663 316.798 693.454 317.011 694.238C317.052 694.386 317.092 694.532 317.132 694.68C317.261 695.146 317.385 695.613 317.508 696.077C317.903 697.553 318.285 699.019 318.656 700.467C318.749 700.838 318.841 701.205 318.933 701.57C319.034 701.972 319.135 702.373 319.232 702.77C320.418 707.568 321.459 712.195 322.367 716.606C322.429 716.91 322.492 717.213 322.554 717.515L322.728 718.38C322.779 718.622 322.826 718.865 322.874 719.108C323.065 720.068 323.251 721.018 323.43 721.956C324.719 728.706 325.696 734.868 326.437 740.272C328.466 755.038 328.732 764.151 328.732 764.151V764.149Z" fill="#B2A8C1"/>
</g>
<path d="M206.934 751.754C189.807 747.886 178.213 740.309 171.5 734.635C164.162 728.43 160.917 723.144 160.782 722.922L160.462 722.396L160.473 721.778C160.793 703.099 164.993 687.313 168.462 677.361C172.23 666.544 175.892 660.209 176.046 659.946L177.315 657.767L178.972 659.162C181.784 660.176 203.623 667.635 218.258 672.62L219.915 673.185L209.191 752.265L206.932 751.755L206.934 751.754Z" fill="#390176"/>
<path d="M217.578 674.634L207.401 749.676C203.967 748.901 200.758 747.977 197.765 746.943C172.55 738.239 162.597 721.814 162.597 721.814C163.149 689.511 175.274 665.79 177.524 661.662C177.755 661.238 177.881 661.021 177.881 661.021H177.884C177.991 661.154 217.578 674.634 217.578 674.634Z" fill="#DFDAE5"/>
<g style="mix-blend-mode:multiply" opacity="0.6">
<path d="M198.924 733.949L197.765 746.94V746.943C172.55 738.239 162.597 721.814 162.597 721.814C163.149 689.511 175.274 665.79 177.524 661.662L182.002 664.716C182.002 664.716 181.297 667.958 181.146 670.204C181.146 670.204 193.03 676.461 194.768 686.529C196.506 696.595 200.854 718.952 198.924 733.949Z" fill="#B2A8C1"/>
</g>
<path d="M262.782 752.409C245.185 753.962 233.413 752.284 232.921 752.213L231.375 751.987L216.742 672.284L219.849 672.853C224.912 673.781 230.409 674.646 236.189 675.425C246.106 676.759 256.651 676.95 267.529 675.989C293.007 673.742 312.114 665.871 312.303 665.792L314.222 664.992L315.11 666.875C326.498 691.043 331.005 727.364 331.191 728.899L331.362 730.309L330.149 731.038C305.316 745.979 279.808 750.906 262.782 752.409Z" fill="#390176"/>
<path d="M329.028 729.165C315.684 737.193 302.143 742.338 289.603 745.59V745.593C258.284 753.72 233.234 750.051 233.234 750.051L219.457 675.006C224.347 675.903 229.807 676.774 235.898 677.594C251.922 679.75 267.3 678.694 280.055 676.617C299.706 673.423 313.138 667.812 313.138 667.812C324.506 691.939 329.027 729.166 329.027 729.166L329.028 729.165Z" fill="#DFDAE5"/>
<g style="mix-blend-mode:multiply" opacity="0.6">
<path d="M289.603 745.589C303.138 717.531 280.309 677.065 280.057 676.615C299.708 673.421 313.14 667.811 313.14 667.811C324.508 691.937 329.028 729.164 329.028 729.164C315.685 737.192 302.144 742.338 289.603 745.589Z" fill="#B2A8C1"/>
</g>
<path d="M273.799 662.343C273.19 662.396 272.574 662.446 271.951 662.491C270.545 662.592 269.149 662.675 267.797 662.736C244.125 663.827 217.613 660.081 203.329 653.626C199.745 652.005 196.716 650.778 194.28 649.793C186.476 646.632 182.176 644.892 180.923 637.966C178.344 623.714 175.921 617.579 174.316 613.52C172.123 607.969 171.288 605.338 172.713 595.868L173.008 593.89C173.544 590.296 174.05 586.901 174.653 583.605C176.812 571.822 180.189 561.896 189.656 551.747C190.891 550.423 192.224 549.125 193.633 547.87C192.642 543.488 191.41 533.439 196.999 522.032L197.299 521.419C202.644 510.515 204.642 506.436 209.28 506.026C211.492 505.831 213.557 506.81 215.283 507.794C220.216 510.604 223.396 514.919 225.95 518.386C226.795 519.533 227.593 520.615 228.368 521.536C230.711 524.314 233.142 528.268 234.511 530.611C239.252 530.209 244.058 530.27 248.8 530.794C256.51 531.645 263.806 533.468 270.523 536.217C272.698 534.03 275.903 529.542 277.753 522.752C277.931 522.097 278.107 521.441 278.283 520.788C280.723 511.709 283.589 507.747 290.391 507.147C293.413 506.88 295.21 507.642 298.756 511.069C309.419 521.372 312.232 530.575 313.825 541.057C313.927 541.733 314.028 542.4 314.131 543.057C315.412 551.282 312.313 560.574 309.821 568.041C308.975 570.577 308.17 572.993 307.648 575.034C314.12 590.883 319.529 613.662 315.737 631.292C311.592 650.569 298.654 660.146 273.796 662.34L273.799 662.343Z" fill="#390176"/>
<path d="M304.126 575.318C311.337 592.529 315.907 614.514 312.453 630.582C308.364 649.595 295.283 657.409 271.708 659.124C270.371 659.22 269.018 659.301 267.648 659.364C244.914 660.413 218.506 656.782 204.713 650.547C190.088 643.933 185.463 644.147 184.236 637.363C182.933 630.154 181.663 624.971 180.515 621.064C180.511 621.056 180.511 621.052 180.511 621.052C176.643 607.897 174.112 609.213 176.043 596.371C176.688 592.074 177.264 588.049 177.966 584.213C179.989 573.177 183.086 563.732 192.116 554.052C193.744 552.308 195.531 550.629 197.452 549.031H197.444C197.444 549.031 193.229 537.385 200.026 523.518C205.269 512.813 207.052 509.037 210.271 509.397C211.222 509.503 212.297 509.973 213.625 510.729C219.445 514.044 222.532 519.833 225.802 523.713C229.077 527.596 232.671 534.18 232.671 534.18L232.668 534.19C237.734 533.604 243.009 533.549 248.437 534.149C256.664 535.058 264.281 537.106 271.129 540.137C271.129 540.137 277.753 535.569 281.001 523.643C283.687 513.785 288.735 507.519 295.558 512.091L295.572 512.102C296.998 513.056 298.5 514.491 300.078 516.462C309.562 528.333 309.17 533.027 310.814 543.578C312.456 554.13 305.903 567.23 304.131 575.317L304.126 575.318Z" fill="#FFA300"/>
<g style="mix-blend-mode:multiply" opacity="0.6">
<path d="M209.395 517.397C209.395 517.397 210.936 538.327 204.875 544.572C204.875 544.572 223.175 534.956 209.395 517.397Z" fill="#B2A8C1"/>
</g>
<g style="mix-blend-mode:multiply" opacity="0.6">
<path d="M297.384 524.325C297.384 524.325 295.014 540.632 291.957 544.29C288.9 547.949 281.036 545.253 281.036 545.253C281.036 545.253 287.261 548.516 288.468 552.647C289.673 556.776 292.375 561.053 292.375 561.053C292.375 561.053 304.709 545.283 297.384 524.325Z" fill="#B2A8C1"/>
</g>
<g style="mix-blend-mode:multiply" opacity="0.6">
<path d="M232.669 534.183L226.996 535.196C221.112 516.228 211.007 510.597 210.269 509.399C211.219 509.505 212.294 509.975 213.623 510.731C219.443 514.046 222.53 519.836 225.8 523.715C229.074 527.598 232.669 534.183 232.669 534.183Z" fill="#B2A8C1"/>
</g>
<path d="M274.623 625.883C265.05 632.869 267.515 658.502 267.515 658.502L267.645 659.363C244.911 660.412 218.503 656.781 204.711 650.546C190.085 643.932 185.461 644.146 184.234 637.362C178.536 605.86 173.535 613.029 176.039 596.372C176.684 592.074 177.26 588.05 177.962 584.213C184.858 569.837 198.154 576.12 202.929 567.205C207.699 558.291 208.617 548.877 215.039 548.112C221.461 547.35 225.377 554.944 227.605 560.088C229.837 565.234 234.566 569.517 242.646 563.7C250.723 557.882 254.095 550.595 262.953 555.321C273.315 560.85 262.154 572.552 263.565 576.659C264.972 580.772 275.805 586.661 281.446 597.745C287.086 608.83 284.199 618.89 274.625 625.883H274.623Z" fill="#FFF3E0"/>
<g style="mix-blend-mode:multiply" opacity="0.6">
<path d="M304.126 575.319C311.337 592.53 315.907 614.515 312.452 630.583C308.364 649.595 295.283 657.41 271.708 659.124C270.371 659.221 269.018 659.302 267.647 659.364C244.913 660.413 218.505 656.783 204.713 650.548C190.087 643.934 185.463 644.148 184.236 637.364C182.932 630.154 181.663 624.971 180.515 621.065C180.675 621.5 185.963 635.546 202.024 639.521C207.718 640.93 208.73 655.639 217.929 653.338C225.778 651.374 230.597 643.748 238.064 642.241C253.732 639.081 264.915 644.578 273.223 641.201C287.694 635.32 298.584 620.845 297.005 601.879C295.427 582.914 297.779 572.407 300.614 565.977C306.248 553.195 306.394 539.971 304.788 531.72C303.234 523.733 295.831 512.368 295.567 512.103C296.993 513.057 298.495 514.492 300.073 516.462C309.557 528.334 309.165 533.028 310.809 543.579C312.451 554.131 305.899 567.231 304.126 575.318V575.319Z" fill="#B2A8C1"/>
</g>
<path d="M206.106 568.78C206.106 568.78 217.376 560.308 243.973 574.787C243.973 574.787 239.793 584.899 223.661 581.451C200.975 576.603 206.107 568.78 206.107 568.78H206.106Z" fill="#FFA300"/>
<path d="M252.764 614.892C250.771 615.423 248.742 615.531 246.742 615.339C244.873 615.162 243.027 614.727 241.263 614.137C241.258 614.134 241.25 614.134 241.246 614.131C241.241 614.131 241.236 614.128 241.233 614.128C235.91 612.348 231.316 609.199 228.952 607.617C224.964 604.944 219.97 606.774 214.23 603.892C208.49 601.009 200.038 600.908 194.146 602.61C188.254 604.312 186.215 602.129 184.744 595.904C184.495 594.854 184.347 593.881 184.27 592.955C183.889 588.375 185.29 584.906 185.575 578.937C185.916 571.76 192.013 571.964 192.013 571.964L252.766 614.897L252.764 614.892Z" fill="#FFF3E0"/>
<g style="mix-blend-mode:multiply" opacity="0.6">
<path d="M241.233 614.126C235.909 612.346 231.316 609.197 228.952 607.615C224.964 604.942 219.97 606.772 214.23 603.89C208.49 601.007 200.038 600.906 194.146 602.608C188.254 604.31 186.214 602.127 184.743 595.902C184.495 594.852 184.347 593.879 184.269 592.953C187.182 596.322 188.594 598.803 194.82 597.16C201.043 595.522 209.127 597.012 212.902 598.755C216.677 600.498 225.924 601.194 230.294 604.714C234.659 608.226 237.491 612.887 241.233 614.128V614.126Z" fill="#B2A8C1"/>
</g>
<path d="M216.695 645.54C210.692 646.07 204.435 644.396 201.479 641.47C198.225 638.253 199.126 633.851 200.169 628.754C200.736 625.987 201.378 622.849 201.456 619.465C201.471 618.852 201.442 618.23 201.369 617.61C200.458 609.924 193.167 603.985 193.094 603.925L190.557 601.888L193.678 600.984C195.45 600.473 197.393 600.12 199.456 599.938C205.22 599.43 210.879 600.318 214.98 602.377C217.582 603.684 220.052 603.922 222.439 604.151C224.949 604.393 227.547 604.642 229.885 606.209L230.161 606.394C233.358 608.538 240.008 613.001 246.899 613.657L250.331 613.623L248.097 616.687C248.081 616.707 246.509 618.738 244.218 621.624C240.591 626.193 233.826 634.571 229.218 639.427L229.173 639.48L229.122 639.525C228.715 639.957 228.292 640.388 227.829 640.847C224.415 644.214 219.89 645.257 216.695 645.539V645.54Z" fill="#390176"/>
<path d="M246.743 615.339L246.77 615.654C246.77 615.654 245.216 617.663 242.904 620.575C241.36 622.52 239.48 624.863 237.497 627.279C234.239 631.248 230.711 635.414 227.963 638.304C227.956 638.314 227.948 638.318 227.94 638.328C227.488 638.808 227.055 639.249 226.651 639.65C220.046 646.164 206.801 644.366 202.663 640.271C198.522 636.177 202.924 629.036 203.14 619.507C203.159 618.798 203.121 618.098 203.04 617.415C202.989 616.966 202.916 616.528 202.828 616.095C201.226 608.273 194.144 602.611 194.144 602.611C200.036 600.909 208.488 601.01 214.228 603.892C219.968 606.775 224.962 604.945 228.95 607.618C232.103 609.729 239.215 614.625 246.741 615.342L246.743 615.339Z" fill="#BC0F0F"/>
<g style="mix-blend-mode:multiply" opacity="0.6">
<path d="M246.743 615.338L246.77 615.653C246.77 615.653 245.216 617.662 242.904 620.574C241.36 622.519 239.48 624.862 237.497 627.278C238.788 616.761 227.432 611.043 225.282 610.733C221.549 610.199 216.76 611.079 211.988 609.34C207.218 607.605 204.846 610.013 205.919 615.818L202.828 616.091C201.226 608.269 194.144 602.607 194.144 602.607C200.036 600.905 208.488 601.006 214.228 603.889C219.968 606.771 224.962 604.941 228.95 607.614C232.103 609.725 239.215 614.621 246.741 615.338H246.743Z" fill="#B2A8C1"/>
</g>
<path d="M242.508 614.354C241.131 613.904 239.795 613.344 238.492 612.725C235.887 611.473 233.437 609.933 231.076 608.267L229.304 606.997C228.647 606.559 227.949 606.156 227.207 605.898C225.729 605.33 224.209 605.128 222.762 604.928C221.311 604.733 219.906 604.554 218.571 604.217C217.235 603.885 215.971 603.404 214.795 602.758C208.341 599.517 199.385 599.778 193.797 601.391C191.509 602.052 189.947 602.069 188.883 601.444C187.635 600.713 186.765 598.967 185.971 595.608C184.903 591.081 185.238 588.539 185.85 583.923C186.043 582.464 186.262 580.809 186.472 578.835C186.731 576.391 187.901 574.695 189.95 573.791C191.59 573.068 193.209 573.112 193.22 573.113L193.321 570.583C190.391 570.466 184.66 571.985 183.963 578.567C183.758 580.508 183.54 582.145 183.349 583.588C182.72 588.341 182.341 591.209 183.517 596.191C184.201 599.083 185.22 602.227 187.61 603.628C189.311 604.626 191.498 604.688 194.497 603.821C199.792 602.292 208.078 602.213 213.667 605.018C215.096 605.675 216.612 606.122 218.124 606.382C219.637 606.647 221.136 606.724 222.577 606.814C224.019 606.906 225.419 607 226.699 607.393C227.35 607.566 227.941 607.86 228.522 608.183L230.39 609.325C232.903 610.839 235.51 612.226 238.242 613.302C239.609 613.835 241.002 614.303 242.422 614.655C243.845 614.998 245.291 615.233 246.742 615.335C245.301 615.129 243.887 614.789 242.508 614.349V614.354Z" fill="#390176"/>
<path d="M320.442 633.278C319.874 634.379 318.91 635.336 317.427 637.624C311.493 646.776 300.406 651.036 276.6 653.137C266.713 654.01 254.999 654.331 241.785 654.094C224.33 653.781 207.289 650.425 193.799 644.647C181.717 639.47 173.715 632.77 172.382 626.717L171.346 619.706L167.32 627.138L167.377 627.436C167.396 627.534 174.475 662.316 174.475 662.316L174.864 662.797C175.22 663.235 184.129 673.604 233.663 680.268C243.924 681.649 254.818 681.847 266.04 680.856C292.293 678.539 312.013 670.396 312.209 670.315L313.324 669.849L322.221 639.206C322.626 636.571 322.488 634.68 322.159 633.349L320.441 633.275L320.442 633.278Z" fill="#390176"/>
<path d="M311.239 667.979C311.239 667.979 297.828 673.579 278.203 676.775C265.437 678.856 250.043 679.917 233.999 677.758C184.886 671.151 176.823 661.199 176.823 661.199L169.922 627.283C172.983 641.06 203.262 655.934 241.741 656.627C256.648 656.896 269.048 656.454 279.257 655.432C303.719 652.98 315.609 647.18 319.261 639.752C319.693 638.874 311.239 667.979 311.239 667.979Z" fill="#DFDAE5"/>
<g style="mix-blend-mode:multiply" opacity="0.6">
<path d="M311.239 667.978C311.239 667.978 297.829 673.579 278.203 676.775C286.734 667.274 279.391 655.642 279.258 655.432C303.719 652.98 315.609 647.18 319.261 639.752C319.693 638.874 311.239 667.978 311.239 667.978Z" fill="#B2A8C1"/>
</g>
<path d="M205.548 658.588C204.266 658.702 203.027 658.566 201.862 658.186C192.235 655.049 192.008 635.409 194.587 625.76C195.807 621.196 198.395 617.88 202.28 615.904C204.678 614.682 207.538 613.958 211.275 613.628C211.783 613.583 212.287 613.547 212.784 613.517C215.583 613.349 217.105 613.781 218.328 614.127C219.153 614.36 219.696 614.515 220.517 614.443C221.573 614.35 223.007 613.888 225.026 612.992C226.062 612.532 227.176 612.247 228.335 612.144C236.062 611.463 243.763 619.051 244.088 619.375L245.155 620.441L244.217 621.624C242.69 623.551 240.386 626.427 237.895 629.44L237.452 629.979C234.107 634.015 231.338 637.194 229.216 639.429L229.171 639.482L229.088 639.557C228.667 639.953 228.268 640.363 227.898 640.776C227.289 641.455 226.631 642.211 225.929 643.016C220.434 649.313 212.911 657.938 205.546 658.588H205.548Z" fill="#390176"/>
<path d="M242.902 620.576C241.016 622.953 238.625 625.927 236.158 628.898V628.903C233.295 632.358 230.338 635.805 227.961 638.305C227.953 638.315 227.945 638.319 227.938 638.329C227.481 638.759 227.051 639.198 226.648 639.651C220.88 646.09 210.637 659.279 202.381 656.585C197.905 655.129 195.748 649.011 195.105 642.252C194.559 636.552 195.091 630.391 196.211 626.201C197.435 621.62 199.984 618.967 203.039 617.414C206.087 615.862 209.638 615.405 212.885 615.207C219.381 614.816 217.994 617.963 225.707 614.542C233.419 611.115 242.903 620.577 242.903 620.577L242.902 620.576Z" fill="#FC2D81"/>
<g style="mix-blend-mode:multiply" opacity="0.6">
<path d="M242.903 620.575C241.017 622.952 238.626 625.926 236.16 628.897V628.902C233.297 632.358 230.339 635.804 227.962 638.304C227.954 638.314 227.947 638.318 227.939 638.328C227.482 638.758 227.052 639.197 226.65 639.65C220.882 646.089 210.639 659.278 202.382 656.584C197.907 655.128 195.749 649.01 195.106 642.251C196.981 648.033 202.593 651.727 207.451 650.307C212.312 648.882 226.252 632.694 230.715 626.599C235.179 620.508 232.501 617.317 225.707 614.541C233.419 611.114 242.903 620.576 242.903 620.576V620.575Z" fill="#B2A8C1"/>
</g>
<path d="M227.691 637.287C227.658 637.195 226.876 635 226.36 632.55C225.563 628.769 225.821 626.512 227.171 625.449C227.61 625.103 228.125 624.902 228.696 624.851C231.544 624.6 235.068 628.419 235.746 629.187L236.013 629.491L236.092 630.4L235.77 630.793C233.335 633.731 231.318 636.046 229.773 637.675L229.74 637.714L229.728 637.725L228.41 639.302L227.69 637.288L227.691 637.287Z" fill="#390176"/>
<path d="M235.047 629.897V629.9C233.82 631.384 232.566 632.862 231.382 634.218C230.438 635.297 229.537 636.297 228.726 637.15C228.72 637.158 228.714 637.161 228.707 637.169C228.707 637.169 225.402 627.939 227.738 626.101C228.157 625.771 228.669 625.679 229.215 625.758V625.761C231.707 626.114 235.047 629.898 235.047 629.898V629.897Z" fill="#F6F0F0"/>
<g style="mix-blend-mode:multiply" opacity="0.6">
<path d="M231.382 634.218C230.438 635.297 229.537 636.297 228.726 637.15C228.72 637.158 228.714 637.161 228.707 637.169C228.707 637.169 225.402 627.939 227.738 626.101C228.157 625.771 228.669 625.679 229.215 625.758V625.761C229.215 625.761 227.685 629.757 231.382 634.219V634.218Z" fill="#B2A8C1"/>
</g>
<path d="M299.871 533.569C299.419 530.389 298.563 527.284 297.387 524.325C298.365 527.355 299.005 530.486 299.243 533.637C299.367 535.213 299.375 536.792 299.325 538.367C299.246 539.94 299.092 541.506 298.858 543.057C298.359 546.158 297.554 549.199 296.445 552.118C295.894 553.579 295.269 555.01 294.577 556.399C294.233 557.096 293.865 557.778 293.486 558.45C293.461 558.495 293.433 558.541 293.408 558.586C292.327 556.608 291.212 554.655 290.072 552.715C289.736 552.137 289.324 551.473 288.913 550.879C288.484 550.281 288.032 549.701 287.547 549.154C286.576 548.059 285.497 547.074 284.332 546.22C283.175 545.359 281.933 544.625 280.641 544.027C279.35 543.431 278.011 542.932 276.622 542.678C279.033 544.111 281.211 545.779 283.136 547.645C283.613 548.115 284.08 548.589 284.517 549.091C284.961 549.584 285.38 550.095 285.776 550.622C286.183 551.139 286.544 551.688 286.901 552.237C287.26 552.798 287.554 553.333 287.905 553.964C289.269 556.407 290.749 558.779 292.38 561.052C293.191 562.191 294.047 563.3 294.94 564.381C295.847 565.454 296.761 566.52 297.795 567.496C296.883 565.295 295.846 563.2 294.768 561.131C295.06 560.603 295.319 560.09 295.58 559.555C295.936 558.817 296.274 558.073 296.585 557.32C297.216 555.816 297.766 554.284 298.238 552.729C299.189 549.623 299.81 546.426 300.111 543.208C300.248 541.598 300.299 539.983 300.273 538.371C300.219 536.761 300.102 535.154 299.872 533.564L299.871 533.569Z" fill="#390176"/>
<path d="M215.653 536.77C215 536.945 214.359 537.157 213.725 537.383C214.08 536.525 214.38 535.648 214.61 534.75C214.854 533.695 215.034 532.628 215.086 531.553C215.134 530.479 215.089 529.406 214.944 528.353C214.637 526.247 213.952 524.234 212.995 522.392C212.03 520.554 210.834 518.85 209.392 517.397C210.675 518.989 211.674 520.786 212.421 522.655C213.162 524.529 213.605 526.502 213.689 528.47C213.72 529.453 213.66 530.432 213.518 531.394C213.372 532.356 213.11 533.291 212.8 534.203C212.165 535.916 211.255 537.509 210.149 538.962C208.525 539.841 206.983 540.859 205.551 542.014C204.08 543.219 202.692 544.542 201.569 546.126C203.343 545.364 204.996 544.522 206.635 543.672L211.483 541.111C213.096 540.276 214.702 539.454 216.331 538.644C217.973 537.86 219.628 537.125 221.395 536.329C219.477 536.078 217.524 536.316 215.654 536.773L215.653 536.77Z" fill="#390176"/>
<g style="mix-blend-mode:multiply" opacity="0.6">
<path d="M271.729 592.072L280.272 575.308L285.667 583.307L279.435 598.4L271.729 592.072Z" fill="#B2A8C1"/>
</g>
<path d="M270.152 590.777L280.273 575.308L283.95 580.584L277.846 597.095L270.152 590.777Z" fill="#390176"/>
<path d="M278.143 576.231L281.747 580.925L276.966 593.86L272.483 590.184L278.143 576.231Z" fill="#2F4272"/>
<path d="M271.236 591.665C270.923 591.412 240.034 566.883 201.107 570.816C197.47 571.184 193.826 571.795 190.274 572.63L187.521 573.279L191.069 556.72L192.051 556.355C192.243 556.283 196.857 554.597 204.849 553.739C214.615 552.692 224.907 553.312 235.454 555.602C250.139 558.79 264.871 565.175 279.253 574.641L280.539 575.488L273.299 593.331L271.237 591.663L271.236 591.665Z" fill="#390176"/>
<path d="M278.143 576.231L272.481 590.185C272.481 590.185 269.327 587.64 263.736 584.287H263.733C250.121 576.134 222.068 563.243 189.898 570.834L192.634 558.079C192.634 558.079 226.977 545.361 272.647 572.767V572.77C274.463 573.86 276.294 575.01 278.143 576.229V576.231Z" fill="#6777A5"/>
<g style="mix-blend-mode:multiply" opacity="0.6">
<path d="M278.142 576.231L272.48 590.185C272.48 590.185 269.327 587.64 263.736 584.287C267.787 585.066 271.169 585.359 273.648 581.71C277.176 576.518 272.696 572.917 272.646 572.771C274.462 573.86 276.294 575.01 278.142 576.229V576.231Z" fill="#B2A8C1"/>
</g>
<path d="M196.821 559.688C193.398 560.494 191.207 566.773 195.807 566.762C200.424 566.751 209.146 564.799 225.465 567.162C241.998 569.557 259.144 579.249 265.681 581.965C272.255 584.694 274.678 578.719 270.475 575.298C268.28 573.513 250.308 562.343 228.746 559.513C207.545 556.731 200.606 558.798 196.821 559.69V559.688Z" fill="#390176"/>
<g style="mix-blend-mode:multiply" opacity="0.6">
<path d="M192.96 573.146C191.332 578.566 195.93 580.409 197.886 581.183C200.51 582.223 205.229 583.077 208.05 581.558C210.873 580.038 214.076 578.061 213.708 573.857C213.339 569.653 194.921 566.62 192.96 573.146Z" fill="#B2A8C1"/>
</g>
<path d="M192.013 571.96C190.385 577.38 194.983 579.222 196.939 579.997C199.563 581.037 204.282 581.891 207.103 580.371C209.925 578.851 213.129 576.875 212.76 572.671C212.392 568.467 193.974 565.433 192.013 571.96Z" fill="#390176"/>
<path d="M214.304 622.191C213.517 622.938 212.772 623.723 212.06 624.535C211.346 625.344 210.667 626.183 210.019 627.042C209.378 627.907 208.759 628.786 208.194 629.701C207.619 630.61 207.096 631.547 206.623 632.51C206.376 632.987 206.162 633.478 205.942 633.966L205.637 634.711C205.53 634.957 205.452 635.215 205.354 635.464C205.26 635.715 205.166 635.966 205.089 636.223C205.008 636.479 204.922 636.733 204.846 636.99C204.71 637.509 204.556 638.024 204.447 638.549C204.315 639.07 204.241 639.603 204.141 640.131C204.099 640.396 204.071 640.664 204.034 640.931L203.983 641.331L203.952 641.734L203.886 642.541L203.866 643.352L203.854 643.758L203.865 644.164L203.879 644.979L203.771 644.17L203.722 643.765L203.694 643.356L203.646 642.538V641.718C203.646 641.581 203.647 641.444 203.652 641.308L203.678 640.898C203.698 640.625 203.709 640.351 203.736 640.078C203.802 639.534 203.863 638.989 203.97 638.451C204.021 638.181 204.06 637.908 204.129 637.643L204.321 636.842C204.393 636.577 204.474 636.315 204.548 636.05C204.621 635.785 204.708 635.525 204.798 635.266C204.966 634.742 205.179 634.237 205.381 633.726C205.603 633.224 205.816 632.719 206.066 632.231C206.558 631.252 207.097 630.295 207.698 629.382C208.303 628.47 208.943 627.581 209.639 626.741C210.328 625.895 211.066 625.09 211.84 624.323C212.618 623.563 213.427 622.832 214.304 622.189V622.191Z" fill="#390176"/>
<path d="M203.138 619.504C203.138 619.504 194.84 626.738 198.375 637.779C198.375 637.779 196.516 630.699 203.138 619.504Z" fill="#FF71B2"/>
<g style="mix-blend-mode:multiply" opacity="0.6">
<path d="M245.949 606.344C243.768 606.154 247.526 624.955 251.22 623.747L251.688 614.101L245.949 606.344Z" fill="#B2A8C1"/>
</g>
<path d="M245.949 606.346C247.454 607.053 248.639 608.283 249.592 609.624C250.539 610.982 251.229 612.514 251.687 614.102C251.869 614.907 252.08 615.709 252.146 616.531C252.181 616.941 252.248 617.346 252.248 617.758C252.254 618.168 252.25 618.578 252.24 618.986C252.24 619.394 252.198 619.801 252.139 620.206C252.086 620.612 252.021 621.014 251.951 621.413C251.875 621.812 251.753 622.206 251.631 622.596C251.509 622.986 251.38 623.372 251.218 623.75C250.982 622.944 250.859 622.166 250.712 621.399C250.628 621.015 250.549 620.637 250.482 620.259C250.445 620.071 250.417 619.882 250.386 619.695C250.351 619.508 250.297 619.323 250.263 619.137C250.182 618.766 250.106 618.397 250.041 618.029C249.966 617.661 249.868 617.301 249.787 616.938C249.704 616.576 249.645 616.208 249.53 615.856L249.258 614.782C248.849 613.365 248.4 611.968 247.857 610.576C247.311 609.181 246.71 607.797 245.951 606.347L245.949 606.346Z" fill="#390176"/>
<path d="M259.054 654.878L256.583 654.365L251.135 680.814L253.605 681.326L259.054 654.878Z" fill="#390176"/>
<path d="M282.593 749.074L280.235 748.585L275.883 769.709L278.241 770.198L282.593 749.074Z" fill="#390176"/>
<path d="M268.651 672.886C268.502 672.883 253.697 672.587 245.388 673.319C244.759 673.375 244.176 673.436 243.654 673.5L243.194 673.556L240.342 671.139L241.993 666.155L268.83 662.464L270.769 664.498L269.414 672.9L268.651 672.884V672.886Z" fill="#390176"/>
<path d="M267.862 662.706L269.877 664.778L268.688 672.145C268.688 672.145 251.487 671.788 243.556 672.766L240.665 670.681L242.616 666.813L267.862 662.708V662.706Z" fill="#A57F4C"/>
<path d="M266.464 670.644C255.623 670.139 241.413 671.009 241.271 671.018L240.3 671.079L241.227 662.654L241.9 662.57C243.507 662.37 245.123 662.197 246.7 662.058C260.132 660.874 267.767 662.274 268.086 662.333L268.858 662.479L267.222 670.68L266.464 670.644Z" fill="#390176"/>
<path d="M241.998 663.301L241.231 670.277C241.231 670.277 255.507 669.389 266.527 669.903L267.892 663.057C267.892 663.057 258.396 661.263 241.998 663.301Z" fill="#FFD18D"/>
<path d="M174.249 769.888C172.564 770.036 170.804 769.913 169.017 769.519C162.269 768.032 157.451 765.128 154.286 760.643C151.305 756.417 149.813 750.751 149.721 743.319C149.575 731.38 152.902 715.49 158.7 692.075L158.751 691.869L158.839 691.678C159.094 691.124 165.17 678.077 173.073 674.849C174.044 674.453 175.023 674.21 175.983 674.124C176.901 674.043 177.817 674.105 178.708 674.311C183.461 675.41 187.331 680.356 190.537 689.433C194.549 700.79 196.516 714.43 196.073 727.839C195.624 741.431 192.738 753.039 187.944 760.525C184.323 766.18 179.588 769.418 174.252 769.888H174.249Z" fill="#390176"/>
<path d="M169.494 767.336C157.014 764.585 152.111 756.81 151.947 743.291C151.799 731.179 155.451 714.458 160.86 692.613C160.86 692.613 166.732 679.849 173.912 676.917C175.307 676.348 176.747 676.152 178.207 676.487C181.674 677.288 185.233 681.112 188.436 690.18C199.931 722.719 193.157 772.552 169.495 767.336H169.494Z" fill="#FFA300"/>
<path d="M169.494 767.336C201.234 737.612 178.031 676.792 178.031 676.792L178.205 676.488C181.672 677.289 185.231 681.113 188.434 690.181C199.93 722.72 193.155 772.553 169.494 767.338V767.336Z" fill="#FFF3E0"/>
<g style="mix-blend-mode:multiply" opacity="0.6">
<path d="M169.495 767.336C157.015 764.585 152.112 756.81 151.948 743.291C153.545 745.417 166.492 761.825 177.478 749.845C189.208 737.055 173.86 677.16 173.86 677.16L173.911 676.917C175.306 676.348 176.746 676.152 178.207 676.487C181.674 677.288 185.233 681.112 188.436 690.18C199.931 722.719 193.157 772.552 169.495 767.336Z" fill="#B2A8C1"/>
</g>
<path d="M188.315 681.328L188.235 681.21L188.23 681.206C182.26 672.452 172.323 671.939 166.917 672.416C161.865 672.862 156.228 674.458 150.159 677.16C138.311 682.436 130.418 689.725 127.937 697.683C126.496 702.303 126.97 706.783 129.308 710.639C130.965 713.372 132.425 715.497 133.907 717.324C139.426 724.132 145.696 727.125 153.076 726.475C153.416 726.446 153.766 726.407 154.115 726.36C156.603 726.029 158.829 725.828 160.982 725.633C168.174 724.985 182.717 723.326 185.14 704.183C185.303 702.892 188.424 692.158 188.903 690.957C190.869 686.015 188.317 681.328 188.317 681.328H188.315Z" fill="#390176"/>
<path d="M188.377 695.945C188.377 695.945 188.374 695.948 188.373 695.954C185.357 703.536 182.828 712.039 177.059 717.539C171.283 723.041 164.627 722.122 153.749 723.568C145.822 724.622 140.38 720.845 136.085 715.547C135.541 714.875 135.013 714.178 134.507 713.463L134.5 713.456C133.515 712.08 132.591 710.635 131.706 709.174C126.743 700.986 131.911 688.366 151.299 679.732C170.949 670.982 181.528 676.069 186.122 683.102L186.125 683.105C189.081 687.637 189.559 692.972 188.376 695.943L188.377 695.945Z" fill="#FFA300"/>
<path d="M188.376 695.945C185.358 703.53 182.83 712.038 177.056 717.539C171.281 723.042 164.624 722.122 153.746 723.568C145.819 724.622 140.377 720.845 136.082 715.547C136.085 715.547 136.085 715.55 136.088 715.55C141.533 718.228 150.487 721.486 168.985 714.761C177.904 711.519 184.724 690.834 186.119 683.105L186.122 683.109C189.078 687.64 189.556 692.976 188.373 695.947L188.376 695.945Z" fill="#FFF3E0"/>
<path d="M162.229 725.485C161.918 725.24 161.687 725.033 161.432 724.799C161.184 724.57 160.944 724.336 160.71 724.098C160.242 723.619 159.798 723.119 159.38 722.597C158.544 721.552 157.807 720.419 157.236 719.189C156.666 717.962 156.269 716.633 156.148 715.266C156.02 713.902 156.188 712.511 156.609 711.238C157.431 708.789 158.509 706.459 159.779 704.254C161.045 702.049 162.47 699.941 164.078 697.991C162.642 700.069 161.409 702.276 160.348 704.551C159.282 706.822 158.428 709.185 157.841 711.589C157.561 712.742 157.521 713.922 157.72 715.065C157.915 716.207 158.341 717.306 158.917 718.326C159.494 719.347 160.221 720.291 161.035 721.155C161.442 721.587 161.872 721.998 162.319 722.388C162.543 722.583 162.771 722.771 163.001 722.952C163.225 723.127 163.483 723.318 163.678 723.448L162.229 725.485Z" fill="#390176"/>
<path d="M148.538 726.379C148.228 726.134 147.996 725.927 147.741 725.693C147.493 725.464 147.254 725.23 147.019 724.991C146.551 724.513 146.107 724.012 145.689 723.49C144.854 722.446 144.116 721.313 143.546 720.083C142.975 718.856 142.578 717.526 142.457 716.159C142.329 714.795 142.497 713.405 142.918 712.131C143.74 709.682 144.818 707.352 146.089 705.148C147.355 702.942 148.779 700.835 150.387 698.885C148.951 700.963 147.718 703.17 146.657 705.444C145.591 707.715 144.737 710.078 144.15 712.482C143.87 713.636 143.83 714.816 144.029 715.958C144.224 717.101 144.65 718.2 145.226 719.219C145.803 720.24 146.53 721.185 147.344 722.048C147.751 722.48 148.181 722.892 148.628 723.281C148.852 723.476 149.08 723.665 149.31 723.846C149.534 724.02 149.792 724.212 149.988 724.341L148.538 726.379Z" fill="#390176"/>
<path d="M138.451 721.931C138.14 721.687 137.909 721.479 137.654 721.246C137.406 721.016 137.166 720.783 136.932 720.544C136.464 720.066 136.02 719.565 135.602 719.043C134.766 717.999 134.028 716.865 133.458 715.635C132.888 714.409 132.491 713.079 132.369 711.712C132.242 710.348 132.41 708.958 132.831 707.684C133.653 705.235 134.731 702.905 136.001 700.701C137.267 698.495 138.692 696.388 140.3 694.438C138.864 696.515 137.631 698.723 136.57 700.997C135.504 703.268 134.65 705.631 134.063 708.035C133.783 709.188 133.743 710.368 133.941 711.511C134.137 712.654 134.563 713.752 135.139 714.772C135.715 715.793 136.442 716.738 137.256 717.601C137.663 718.033 138.094 718.444 138.541 718.834C138.765 719.029 138.993 719.218 139.223 719.398C139.447 719.573 139.705 719.765 139.9 719.894L138.451 721.931Z" fill="#390176"/>
<g style="mix-blend-mode:multiply" opacity="0.6">
<path d="M188.371 695.954C185.356 703.536 182.827 712.039 177.057 717.539C171.282 723.041 164.625 722.121 153.747 723.568C145.82 724.622 140.378 720.845 136.083 715.547C135.539 714.875 135.011 714.178 134.505 713.462C134.732 713.653 142.093 719.747 148.656 719.618C155.319 719.489 167.294 718.268 173.374 713.732C179.356 709.266 188.099 696.356 188.369 695.956L188.371 695.954Z" fill="#B2A8C1"/>
</g>
<path d="M240.391 773.105L239.897 754.429L242.632 772.907L240.391 773.105Z" fill="#390176"/>
<path d="M238.231 746.04C238.241 741.969 238.248 737.899 238.258 733.827C239.294 733.904 239.813 733.936 240.85 733.992C241.858 734.047 242.626 734.354 243.157 734.925C243.688 735.495 243.963 736.282 243.98 737.292C244.018 739.584 244.038 740.729 244.075 743.021C244.094 744.168 243.82 745.004 243.252 745.524C242.682 746.045 241.852 746.279 240.768 746.213C239.752 746.153 239.246 746.118 238.231 746.04ZM240.015 735.592C240.025 738.567 240.036 741.545 240.047 744.52C240.381 744.542 240.549 744.552 240.883 744.572C241.392 744.602 241.753 744.497 241.964 744.262C242.175 744.026 242.278 743.644 242.272 743.118C242.247 740.759 242.233 739.581 242.208 737.222C242.203 736.741 242.101 736.365 241.902 736.091C241.703 735.818 241.346 735.668 240.827 735.64C240.502 735.621 240.339 735.612 240.015 735.593V735.592Z" fill="#390176"/>
<path d="M245.538 737.062C245.527 736.57 245.605 736.135 245.77 735.759C245.934 735.384 246.156 735.072 246.438 734.824C246.706 734.587 247.015 734.408 247.362 734.283C247.708 734.16 248.059 734.098 248.415 734.098C248.771 734.098 249.125 734.16 249.481 734.283C249.835 734.408 250.172 734.586 250.458 734.826C250.744 735.064 250.98 735.387 251.169 735.764C251.357 736.14 251.463 736.576 251.483 737.07C251.59 739.664 251.643 740.961 251.749 743.555C251.77 744.072 251.699 744.517 251.536 744.888C251.373 745.259 251.152 745.566 250.876 745.81C250.587 746.066 250.264 746.258 249.903 746.386C249.543 746.513 249.178 746.576 248.808 746.574C248.438 746.573 248.069 746.506 247.7 746.376C247.332 746.245 247.003 746.04 246.711 745.793C246.419 745.545 246.163 745.237 245.976 744.866C245.79 744.495 245.692 744.051 245.679 743.535C245.624 740.945 245.596 739.652 245.54 737.062H245.538ZM247.488 743.567C247.5 743.993 247.629 744.306 247.878 744.51C248.126 744.713 248.418 744.816 248.751 744.817C249.083 744.817 249.367 744.718 249.605 744.517C249.841 744.316 249.951 744.001 249.937 743.575C249.846 740.983 249.801 739.686 249.709 737.094C249.693 736.668 249.565 736.356 249.321 736.157C249.077 735.957 248.794 735.858 248.471 735.856C248.148 735.856 247.871 735.956 247.64 736.154C247.408 736.353 247.298 736.665 247.311 737.089C247.382 739.68 247.418 740.975 247.489 743.566L247.488 743.567Z" fill="#390176"/>
<path d="M252.94 737.035C252.917 736.541 252.984 736.101 253.139 735.716C253.294 735.331 253.51 735.007 253.785 734.743C254.049 734.491 254.352 734.294 254.697 734.152C255.04 734.011 255.39 733.93 255.746 733.912C256.101 733.894 256.457 733.937 256.814 734.043C257.172 734.149 257.512 734.311 257.804 734.536C258.094 734.76 258.34 735.072 258.537 735.44C258.734 735.808 258.849 736.24 258.882 736.734C258.897 736.983 258.907 737.106 258.922 737.356C258.212 737.406 257.858 737.429 257.148 737.471C257.133 737.222 257.127 737.099 257.111 736.849C257.086 736.424 256.948 736.117 256.701 735.929C256.452 735.741 256.166 735.657 255.843 735.672C255.52 735.689 255.247 735.803 255.02 736.015C254.793 736.227 254.692 736.545 254.714 736.971C254.848 739.566 254.914 740.865 255.05 743.46C255.071 743.886 255.21 744.194 255.463 744.386C255.716 744.576 256.01 744.665 256.342 744.649C256.674 744.634 256.957 744.518 257.189 744.303C257.42 744.088 257.523 743.769 257.498 743.342C257.443 742.416 257.415 741.953 257.361 741.028C256.791 741.061 256.505 741.077 255.935 741.103C255.901 740.481 255.884 740.171 255.85 739.549C257.133 739.487 257.773 739.449 259.054 739.359C259.155 740.907 259.205 741.68 259.306 743.228C259.34 743.745 259.28 744.196 259.126 744.576C258.972 744.956 258.758 745.278 258.489 745.536C258.206 745.808 257.888 746.018 257.53 746.164C257.173 746.311 256.81 746.394 256.44 746.411C256.07 746.428 255.699 746.381 255.328 746.269C254.956 746.157 254.621 745.968 254.324 745.736C254.026 745.502 253.762 745.207 253.566 744.844C253.37 744.481 253.262 744.041 253.238 743.524C253.119 740.929 253.06 739.632 252.942 737.036L252.94 737.035Z" fill="#390176"/>
<path d="M261.104 746.011C260.816 741.912 260.527 737.814 260.24 733.714C262.329 733.54 263.373 733.434 265.459 733.183C265.517 733.845 265.546 734.177 265.604 734.841C264.21 735.008 263.514 735.083 262.118 735.215C262.228 736.659 262.283 737.382 262.393 738.825C263.623 738.71 264.238 738.646 265.466 738.504C265.523 739.168 265.551 739.499 265.608 740.163C264.373 740.305 263.755 740.369 262.519 740.484C262.629 741.927 262.683 742.651 262.794 744.094C264.229 743.962 264.947 743.887 266.38 743.718C266.443 744.423 266.474 744.775 266.534 745.48C264.366 745.732 263.278 745.838 261.104 746.011Z" fill="#390176"/>
<path d="M267.712 745.338C267.338 741.24 266.965 737.14 266.59 733.042C267.261 732.956 267.597 732.911 268.268 732.816C269.418 735.294 270 736.529 271.187 738.99C271.201 738.989 271.207 738.987 271.221 738.986C271.858 736.242 272.166 734.867 272.762 732.113C273.438 731.996 273.775 731.935 274.449 731.811C274.929 735.904 275.409 739.997 275.889 744.089C275.167 744.22 274.805 744.284 274.079 744.406C273.747 741.417 273.579 739.922 273.247 736.934C273.233 736.937 273.227 736.937 273.213 736.941C272.748 739.171 272.509 740.286 272.02 742.51C271.659 742.566 271.479 742.594 271.119 742.649C270.194 740.643 269.739 739.636 268.838 737.62L268.804 737.625C269.094 740.616 269.239 742.111 269.529 745.101C268.802 745.201 268.439 745.247 267.712 745.338Z" fill="#390176"/>
<path d="M276.335 734.416C276.274 733.922 276.307 733.468 276.431 733.055C276.555 732.642 276.743 732.28 276.995 731.97C277.236 731.674 277.522 731.426 277.851 731.228C278.18 731.03 278.519 730.891 278.87 730.815C279.22 730.739 279.575 730.725 279.937 730.774C280.299 730.823 280.649 730.932 280.953 731.11C281.258 731.287 281.525 731.563 281.747 731.901C281.971 732.24 282.117 732.656 282.187 733.148C282.553 735.736 282.736 737.028 283.105 739.616C283.178 740.132 283.153 740.595 283.03 741.002C282.907 741.41 282.721 741.767 282.474 742.071C282.216 742.389 281.916 742.652 281.576 742.858C281.234 743.064 280.882 743.206 280.517 743.284C280.152 743.362 279.782 743.374 279.406 743.323C279.03 743.27 278.684 743.134 278.371 742.949C278.059 742.763 277.775 742.507 277.553 742.174C277.332 741.84 277.189 741.415 277.126 740.897C276.809 738.305 276.65 737.008 276.332 734.416H276.335ZM278.915 740.54C278.969 740.966 279.129 741.254 279.395 741.405C279.661 741.557 279.957 741.597 280.285 741.527C280.613 741.457 280.883 741.295 281.096 741.041C281.309 740.788 281.385 740.448 281.328 740.023C280.975 737.434 280.799 736.14 280.447 733.551C280.389 733.127 280.229 732.84 279.97 732.69C279.71 732.542 279.422 732.502 279.103 732.57C278.785 732.639 278.522 732.799 278.315 733.049C278.107 733.3 278.031 733.636 278.086 734.06C278.418 736.651 278.584 737.946 278.917 740.539L278.915 740.54Z" fill="#390176"/>
<path d="M289.423 731.893C288.732 732.094 288.387 732.192 287.694 732.386C287.669 732.228 287.657 732.149 287.63 731.991C287.567 731.591 287.418 731.271 287.186 731.031C286.955 730.791 286.619 730.732 286.18 730.85C285.943 730.914 285.759 731.011 285.626 731.142C285.494 731.273 285.389 731.419 285.324 731.58C285.254 731.748 285.219 731.937 285.215 732.135C285.21 732.333 285.223 732.534 285.254 732.741C285.291 732.981 285.33 733.179 285.37 733.335C285.412 733.491 285.476 733.623 285.563 733.731C285.65 733.839 285.766 733.923 285.911 733.979C286.055 734.037 286.249 734.08 286.492 734.111C287.057 734.181 287.341 734.216 287.908 734.281C288.319 734.323 288.66 734.409 288.932 734.542C289.204 734.674 289.442 734.852 289.609 735.075C289.782 735.301 289.917 735.6 290.021 735.935C290.125 736.27 290.214 736.66 290.287 737.106C290.372 737.62 290.4 738.111 290.369 738.582C290.338 739.051 290.232 739.475 290.051 739.849C289.861 740.237 289.581 740.58 289.215 740.872C288.848 741.163 288.379 741.388 287.809 741.539C287.377 741.654 286.964 741.684 286.568 741.631C286.172 741.578 285.819 741.453 285.512 741.257C285.204 741.06 284.946 740.806 284.738 740.496C284.53 740.186 284.396 739.823 284.336 739.411C284.297 739.149 284.278 739.02 284.241 738.758C284.949 738.585 285.303 738.496 286.01 738.314C286.043 738.534 286.06 738.644 286.094 738.864C286.142 739.185 286.282 739.449 286.512 739.657C286.743 739.865 287.085 739.91 287.537 739.79C287.839 739.709 288.067 739.603 288.221 739.472C288.374 739.341 288.485 739.182 288.553 738.997C288.62 738.811 288.645 738.604 288.626 738.376C288.607 738.149 288.576 737.898 288.533 737.623C288.482 737.304 288.427 737.043 288.373 736.844C288.317 736.644 288.246 736.484 288.155 736.384C288.062 736.281 287.933 736.206 287.789 736.163C287.644 736.119 287.456 736.08 287.223 736.047C286.689 735.977 286.422 735.94 285.889 735.865C285.086 735.753 284.517 735.471 284.185 735.025C283.853 734.579 283.63 733.971 283.519 733.204C283.452 732.746 283.45 732.295 283.514 731.851C283.578 731.408 283.717 731.005 283.915 730.645C284.109 730.292 284.373 729.973 284.71 729.7C285.047 729.427 285.468 729.223 285.973 729.087C286.399 728.972 286.799 728.946 287.178 729.006C287.556 729.069 287.894 729.193 288.196 729.382C288.8 729.783 289.164 730.336 289.28 731.044C289.338 731.387 289.366 731.558 289.421 731.901L289.423 731.893Z" fill="#390176"/>
<path d="M292.238 740.179C291.546 736.115 290.854 732.051 290.162 727.989C290.844 727.783 291.184 727.677 291.863 727.462C292.577 731.521 293.293 735.58 294.008 739.638C293.301 739.859 292.947 739.967 292.238 740.179Z" fill="#390176"/>
<path d="M299.659 728.502C298.981 728.755 298.642 728.879 297.962 729.122C297.93 728.967 297.915 728.887 297.885 728.731C297.808 728.334 297.649 728.024 297.41 727.799C297.171 727.575 296.837 727.539 296.405 727.69C296.172 727.771 295.992 727.882 295.866 728.022C295.739 728.162 295.641 728.318 295.58 728.483C295.516 728.658 295.488 728.85 295.492 729.049C295.493 729.249 295.513 729.45 295.552 729.656C295.597 729.894 295.642 730.09 295.689 730.245C295.735 730.399 295.804 730.527 295.894 730.628C295.984 730.731 296.102 730.806 296.248 730.853C296.394 730.899 296.588 730.931 296.829 730.943C297.393 730.973 297.676 730.987 298.241 731.01C298.65 731.023 298.991 731.083 299.266 731.197C299.541 731.309 299.782 731.473 299.958 731.684C300.136 731.899 300.281 732.189 300.396 732.518C300.511 732.846 300.612 733.233 300.7 733.674C300.803 734.184 300.848 734.676 300.832 735.15C300.818 735.624 300.728 736.058 300.56 736.446C300.386 736.849 300.121 737.214 299.767 737.534C299.414 737.853 298.956 738.112 298.393 738.307C297.969 738.453 297.559 738.514 297.165 738.491C296.77 738.467 296.416 738.366 296.104 738.192C295.791 738.017 295.527 737.78 295.308 737.484C295.091 737.186 294.945 736.832 294.87 736.422C294.824 736.162 294.8 736.033 294.752 735.774C295.45 735.548 295.798 735.432 296.494 735.199L296.596 735.744C296.655 736.062 296.803 736.318 297.039 736.511C297.275 736.703 297.617 736.723 298.061 736.569C298.358 736.466 298.58 736.343 298.729 736.199C298.878 736.056 298.982 735.889 299.041 735.697C299.102 735.506 299.117 735.297 299.092 735.069C299.066 734.842 299.027 734.592 298.973 734.319C298.911 734.001 298.848 733.744 298.786 733.548C298.724 733.351 298.647 733.196 298.555 733.102C298.46 733.005 298.328 732.94 298.182 732.906C298.038 732.871 297.85 732.848 297.618 732.831C297.085 732.798 296.82 732.781 296.287 732.745C295.485 732.691 294.912 732.447 294.566 732.025C294.221 731.601 293.979 731.007 293.84 730.245C293.758 729.79 293.741 729.336 293.789 728.886C293.837 728.435 293.961 728.02 294.146 727.645C294.327 727.277 294.577 726.935 294.903 726.638C295.229 726.34 295.639 726.105 296.135 725.93C296.553 725.784 296.95 725.727 297.328 725.762C297.705 725.796 298.045 725.897 298.351 726.064C298.965 726.423 299.344 726.951 299.485 727.654C299.554 727.994 299.588 728.164 299.656 728.504L299.659 728.502Z" fill="#390176"/>
<path d="M282.037 692.051C281.288 690.573 279.595 689.327 276.767 688.169C274.501 687.251 272.236 686.96 270.56 687.368C270.224 687.451 269.926 687.554 269.634 687.689C268.902 688.024 268.343 688.726 268.081 689.636C267.758 690.718 267.897 692.03 268.391 692.724C268.562 692.933 268.775 693.193 269.011 693.416C268.829 693.588 268.659 693.747 268.499 693.892C268.258 694.107 268.039 694.292 267.841 694.453C265.743 694.219 263.551 694.345 261.35 694.885C251.389 697.319 244.932 707.202 246.923 716.96C248.915 726.718 258.599 732.652 268.559 730.216C278.52 727.781 284.977 717.899 282.986 708.141C282.256 704.565 280.488 701.505 278.054 699.181C278.071 698.499 278.141 697.768 278.254 697.017C278.704 697.033 279.144 696.987 279.57 696.883C280.696 696.607 281.58 695.921 282.024 694.967C282.468 694.013 282.493 692.878 282.037 692.051ZM247.594 713.791C247.594 713.808 247.594 713.825 247.594 713.843C247.594 713.808 247.594 713.776 247.593 713.741C247.593 713.758 247.593 713.776 247.593 713.791H247.594Z" fill="#390176"/>
<path d="M269.46 728.596C264.691 730.077 260.043 729.705 259.847 729.687L259.38 729.648L258.435 726.188C257.623 725.593 254.67 723.243 253.798 720.048C253.502 718.961 253.304 718.064 253.174 717.225C252.984 716 252.945 714.902 253.056 713.872C253.191 712.595 253.556 711.418 254.173 710.273C255.728 707.38 256.184 705.214 255.697 703.032C255.168 700.664 255.454 699.291 256.545 698.953C257.022 698.805 257.556 698.911 258.179 699.275C259.426 700.005 260.483 701.06 260.977 701.593C262.222 701.235 265.819 700.228 267.585 700.024C268.093 699.071 269.497 696.524 270.743 695.026C271.639 693.949 272.413 693.338 273.177 693.101C274.176 692.791 275.114 693.11 275.965 694.047L276.071 694.164V694.169C276.129 694.233 276.183 694.301 276.239 694.373C277.395 695.852 278.007 698.463 278.497 700.563C278.689 701.378 278.853 702.083 279.01 702.532C279.439 703.763 279.722 704.713 279.841 705.127C280.514 705.646 282.459 707.467 282.437 711.108C282.437 711.272 282.432 711.443 282.424 711.62C282.324 714.192 281.376 720.735 274.799 725.895C273.335 727.042 271.54 727.953 269.458 728.598L269.46 728.596Z" fill="#390176"/>
<path d="M281.729 711.134C281.729 711.293 281.725 711.455 281.717 711.621C281.56 715.585 279.744 721.139 274.375 725.352C268.783 729.74 259.938 728.989 259.938 728.989L259.054 725.746C259.054 725.746 255.419 723.279 254.478 719.834C254.218 718.88 254.006 717.968 253.87 717.084C253.701 715.987 253.647 714.936 253.757 713.909C253.877 712.776 254.201 711.672 254.792 710.575C256.347 707.682 256.94 705.328 256.385 702.846C255.832 700.366 256.182 698.932 257.797 699.877C259.413 700.821 260.719 702.383 260.719 702.383C260.719 702.383 266.301 700.734 268.016 700.684C268.016 700.684 269.791 697.239 271.278 695.453C272.687 693.762 274.006 692.959 275.429 694.525C275.509 694.614 275.59 694.709 275.669 694.812C277.186 696.753 277.77 701.152 278.338 702.784C278.907 704.416 279.221 705.563 279.221 705.563C279.221 705.563 281.753 707.15 281.728 711.136L281.729 711.134Z" fill="#FFA300"/>
<path d="M281.721 711.622C281.564 715.586 279.748 721.14 274.38 725.353C268.787 729.741 259.942 728.99 259.942 728.99L259.058 725.747C259.058 725.747 255.423 723.28 254.482 719.835C253.899 717.698 253.561 715.763 253.761 713.911C254.768 712.515 255.372 712.688 256.079 713.809C256.787 714.928 256.699 715.291 258.723 714.569C260.747 713.847 262.106 713.852 265.892 714.607C269.677 715.361 270.414 713.082 272.978 710.719C275.543 708.356 277.379 708.75 279.181 709.23C280.983 709.71 281.721 711.622 281.721 711.622Z" fill="#FFF3E0"/>
<path d="M272.735 695.362C272.735 695.362 275.132 698.717 275.206 701.707C275.206 701.707 272.331 700.67 270.078 701.008C270.078 701.008 271.866 700.385 272.783 699.386C274.019 698.037 272.735 695.362 272.735 695.362Z" fill="#390176"/>
<g style="mix-blend-mode:multiply" opacity="0.6">
<path d="M281.729 711.136C281.729 711.295 281.725 711.457 281.717 711.622C281.56 715.586 279.744 721.14 274.376 725.354C268.783 729.742 259.938 728.99 259.938 728.99L259.054 725.748C259.054 725.748 255.419 723.281 254.478 719.836C254.219 718.882 254.006 717.97 253.871 717.086C254.377 716.158 255.435 717.006 256.109 718.123C256.785 719.239 258.362 721.401 258.688 721.479C259.014 721.555 259.264 720.638 258.784 720.233C258.302 719.826 257.513 718.291 257.513 718.291C257.513 718.291 262.543 716.367 262.588 716.837C262.633 717.304 261.565 719.566 262.447 720.314C263.329 721.061 264.78 720.497 266.366 719.522C267.952 718.548 268.278 717.482 269.689 716.851C271.099 716.219 271.648 715.353 273.647 714.082C275.646 712.815 278.985 712.834 278.985 712.834C279.789 709.449 277.908 706.176 276.187 703.938C274.466 701.699 270.08 701.012 270.08 701.012C272.014 700.412 273.79 700.583 275.12 700.803C276.449 701.023 276.74 700.993 276.665 699.811C276.589 698.63 276.249 696.928 275.432 694.53C275.513 694.618 275.593 694.713 275.673 694.816C277.189 696.756 277.773 701.155 278.341 702.787C278.91 704.419 279.224 705.567 279.224 705.567C279.224 705.567 281.756 707.153 281.731 711.139L281.729 711.136Z" fill="#DBB89E"/>
</g>
<path d="M268.656 711.396C268.306 711.505 267.983 711.592 267.696 711.658C267.188 711.773 265.646 712.122 265.364 711.092C265.158 710.333 265.635 709.065 266.674 708.386C266.904 708.236 267.154 708.119 267.416 708.037C267.482 708.016 267.55 707.998 267.62 707.981C269.372 707.567 270.112 708.264 270.562 708.919C270.616 708.997 270.658 709.084 270.685 709.175C270.734 709.337 270.741 709.514 270.699 709.698V709.708C270.694 709.719 270.686 709.75 270.686 709.75C270.498 710.439 269.726 711.062 268.658 711.394L268.656 711.396Z" fill="#390176"/>
<path d="M270.456 709.251C270.497 709.381 270.5 709.524 270.465 709.672C270.465 709.672 270.465 709.675 270.465 709.678C270.337 710.218 269.717 710.827 268.597 711.175C268.263 711.278 267.947 711.365 267.655 711.432C266.545 711.684 265.762 711.638 265.594 711.022C265.425 710.402 265.811 709.225 266.799 708.579C267.05 708.416 267.338 708.286 267.666 708.208C269.29 707.825 269.958 708.461 270.366 709.058C270.408 709.119 270.439 709.183 270.459 709.251H270.456Z" fill="#FFF3E0"/>
<path d="M270.457 709.251C270.476 709.393 270.479 709.533 270.466 709.672C270.466 709.672 270.466 709.675 270.466 709.678C270.337 710.218 269.717 710.827 268.597 711.175C268.263 711.278 267.948 711.365 267.656 711.432C267.123 711.221 266.701 710.779 266.539 710.186C266.387 709.627 266.497 709.048 266.799 708.579C267.049 708.416 267.338 708.286 267.665 708.208C269.289 707.825 269.957 708.461 270.365 709.058C270.407 709.119 270.438 709.183 270.458 709.251H270.457Z" fill="#390176"/>
<path d="M268.946 709.161C269.131 709.021 269.173 708.764 269.039 708.587C268.906 708.411 268.649 708.382 268.464 708.522C268.279 708.663 268.238 708.919 268.371 709.096C268.504 709.272 268.761 709.301 268.946 709.161Z" fill="#FFF3E0"/>
<path d="M257.766 717.246L257.197 716.857C258.093 715.616 259.7 711.058 259.715 711.013L260.381 711.214C260.315 711.406 258.724 715.918 257.766 717.245V717.246Z" fill="#390176"/>
<path d="M258.927 712.923C258.876 712.939 258.823 712.953 258.769 712.964C258.252 713.068 257.713 712.914 257.397 712.568C257.138 712.284 257.062 711.91 257.183 711.515C257.278 711.21 257.388 710.957 257.523 710.747C257.766 710.367 258.092 710.117 258.517 709.985C258.651 709.944 258.795 709.911 258.963 709.888C259.435 709.821 260.066 710.058 260.304 710.569C260.486 710.962 260.5 711.629 259.522 712.572C259.355 712.734 259.154 712.853 258.926 712.923H258.927Z" fill="#390176"/>
<path d="M259.366 712.409C259.186 712.583 258.965 712.689 258.737 712.735C257.988 712.886 257.162 712.39 257.412 711.573C257.5 711.283 257.604 711.051 257.724 710.866C258.042 710.365 258.47 710.192 258.99 710.119C259.703 710.018 261.026 710.806 259.367 712.409H259.366Z" fill="#FFF3E0"/>
<path d="M259.366 712.408C259.185 712.582 258.965 712.688 258.737 712.733C258.246 712.61 257.84 712.242 257.699 711.723C257.62 711.433 257.634 711.136 257.724 710.863C258.042 710.362 258.469 710.189 258.99 710.116C259.703 710.015 261.026 710.804 259.367 712.406L259.366 712.408Z" fill="#390176"/>
<path d="M259.424 710.926C259.53 710.846 259.553 710.699 259.477 710.598C259.401 710.497 259.254 710.48 259.148 710.56C259.043 710.64 259.019 710.787 259.095 710.888C259.171 710.989 259.319 711.006 259.424 710.926Z" fill="#FFF3E0"/>
<path d="M257.516 718.291C256.529 717.234 257.343 716.079 258.393 715.741C259.443 715.403 260.593 714.818 261.547 715.058C262.5 715.298 263.016 716.461 262.257 717.661C261.497 718.863 260.997 719.742 260.026 719.802C259.055 719.862 257.863 718.664 257.516 718.291Z" fill="#390176"/>
<path d="M258.332 718.157C258.27 718.176 258.201 718.171 258.144 718.137C258.116 718.12 257.448 717.716 257.58 717.077C257.645 716.764 258.046 716.179 259.137 715.979C259.266 715.956 259.384 716.04 259.402 716.167C259.419 716.293 259.329 716.414 259.2 716.438C258.337 716.595 258.071 717.004 258.041 717.149C257.976 717.467 258.397 717.73 258.4 717.733C258.509 717.799 258.54 717.94 258.469 718.053C258.436 718.104 258.386 718.14 258.332 718.157Z" fill="#FFF3E0"/>
<path d="M260.638 721.59C260.45 721.649 260.256 721.546 260.206 721.362L259.678 719.426C259.628 719.242 259.74 719.046 259.928 718.986C260.116 718.927 260.31 719.03 260.36 719.214L260.888 721.15C260.938 721.334 260.826 721.53 260.638 721.59Z" fill="#390176"/>
<path d="M265.359 721.55C264.371 721.857 263.35 721.803 261.573 721.572C260.562 721.441 260.175 721.792 259.765 722.161C259.476 722.423 259.148 722.719 258.64 722.75C257.483 722.822 256.689 720.247 256.473 719.455C256.424 719.271 256.535 719.075 256.723 719.015C256.911 718.956 257.106 719.059 257.155 719.243C257.564 720.735 258.266 722.074 258.628 722.052C258.866 722.038 259.03 721.899 259.3 721.654C259.743 721.252 260.351 720.704 261.694 720.877C263.611 721.125 264.573 721.159 265.562 720.739C266.39 720.387 267.944 718.683 268.472 718.057C268.601 717.906 268.823 717.879 268.97 717.999C269.118 718.119 269.134 718.339 269.006 718.49C268.8 718.735 266.957 720.895 265.815 721.38C265.662 721.446 265.509 721.502 265.357 721.549L265.359 721.55Z" fill="#390176"/>
<path d="M265.138 724.505C261.305 725.694 259.742 723.509 259.67 723.403C259.563 723.247 259.608 723.027 259.771 722.915C259.935 722.801 260.152 722.835 260.259 722.99C260.331 723.091 262.022 725.393 266.459 723.234C266.638 723.149 266.846 723.217 266.925 723.39C267.004 723.563 266.925 723.774 266.746 723.86C266.172 724.139 265.636 724.351 265.138 724.505Z" fill="#390176"/>
<path d="M266.042 706.12C265.397 706.923 265.832 707.916 267.243 707.277C268.652 706.637 269.066 705.442 268.147 705.236C267.227 705.03 266.688 705.317 266.044 706.12H266.042Z" fill="#FFF3E0"/>
<path d="M260.099 708.031C260.635 708.622 260.325 709.518 259.189 709.169C258.054 708.82 257.687 707.867 258.408 707.57C259.129 707.272 259.564 707.442 260.101 708.031H260.099Z" fill="#FFF3E0"/>
<path d="M261.072 702.237C260.93 702.284 260.77 702.344 260.62 702.407C260.467 702.469 260.315 702.536 260.166 702.608C259.866 702.75 259.573 702.909 259.287 703.082C259.003 703.258 258.731 703.454 258.473 703.671C258.218 703.891 257.984 704.135 257.775 704.408C257.934 704.107 258.126 703.82 258.349 703.552C258.574 703.289 258.821 703.038 259.083 702.807C259.347 702.578 259.626 702.361 259.913 702.16C260.057 702.059 260.203 701.962 260.354 701.869C260.506 701.774 260.652 701.687 260.822 701.598L261.07 702.24L261.072 702.237Z" fill="#390176"/>
<path d="M258.972 725.713C259.079 725.808 259.208 725.909 259.334 726.003C259.46 726.098 259.59 726.188 259.724 726.277C259.99 726.453 260.266 726.614 260.553 726.759C260.841 726.902 261.141 727.022 261.451 727.122C261.764 727.216 262.087 727.278 262.421 727.303C262.085 727.336 261.743 727.332 261.406 727.294C261.071 727.248 260.737 727.18 260.411 727.086C260.086 726.99 259.766 726.876 259.455 726.742C259.3 726.675 259.145 726.605 258.992 726.53C258.839 726.453 258.693 726.378 258.534 726.283L258.972 725.714V725.713Z" fill="#390176"/>
<path d="M279.251 705.568C279.044 705.258 278.821 704.946 278.594 704.641C278.367 704.335 278.132 704.036 277.889 703.744C277.646 703.451 277.391 703.168 277.121 702.899C276.849 702.633 276.568 702.373 276.234 702.178C276.598 702.32 276.924 702.538 277.241 702.764C277.556 702.991 277.857 703.238 278.148 703.495C278.44 703.751 278.724 704.016 279.001 704.287C279.279 704.56 279.549 704.834 279.816 705.124L279.249 705.568H279.251Z" fill="#390176"/>
</g>
</g>
</g>
<defs>
<radialGradient id="paint0_radial_1076_29493" cx="0" cy="0" r="1" gradientUnits="userSpaceOnUse" gradientTransform="translate(89.224 715.567) rotate(-83.8898) scale(539.258 875.28)">
<stop stop-color="#F530E4"/>
<stop offset="0.298236" stop-color="#7E1BFD" stop-opacity="0.85"/>
<stop offset="0.631636" stop-color="#2F0F64" stop-opacity="0.446602"/>
<stop offset="1" stop-color="#140F34" stop-opacity="0"/>
</radialGradient>
<radialGradient id="paint1_radial_1076_29493" cx="0" cy="0" r="1" gradientUnits="userSpaceOnUse" gradientTransform="translate(223.344 751.153) rotate(-65.8847) scale(278.19 604.101)">
<stop stop-color="#CA2EBD"/>
<stop offset="1" stop-color="#170F4F" stop-opacity="0"/>
</radialGradient>
<radialGradient id="paint2_radial_1076_29493" cx="0" cy="0" r="1" gradientUnits="userSpaceOnUse" gradientTransform="translate(47.7377 742.016) rotate(-66.2773) scale(250.031 301.615)">
<stop stop-color="#F7752F"/>
<stop offset="1" stop-color="#27094C" stop-opacity="0"/>
</radialGradient>
<linearGradient id="paint3_linear_1076_29493" x1="264.377" y1="268.68" x2="264.377" y2="563.18" gradientUnits="userSpaceOnUse">
<stop stop-color="#D9D9D9" stop-opacity="0"/>
<stop offset="1" stop-color="#737373"/>
</linearGradient>
<linearGradient id="paint4_linear_1076_29493" x1="374.189" y1="603.076" x2="438.878" y2="755.806" gradientUnits="userSpaceOnUse">
<stop stop-color="#1B0939"/>
<stop offset="1" stop-color="#DD35E6"/>
</linearGradient>
<linearGradient id="paint5_linear_1076_29493" x1="422.87" y1="730.046" x2="360.87" y2="708.231" gradientUnits="userSpaceOnUse">
<stop stop-color="#FAA185"/>
<stop offset="0.300609" stop-color="#FA825D" stop-opacity="0.55"/>
<stop offset="1" stop-color="#CA2EBD" stop-opacity="0"/>
</linearGradient>
<linearGradient id="paint6_linear_1076_29493" x1="334.447" y1="581.359" x2="420.9" y2="610.19" gradientUnits="userSpaceOnUse">
<stop stop-color="#F3E0FA"/>
<stop offset="0.329161" stop-color="#FF8642"/>
<stop offset="0.606741" stop-color="#CA36FE"/>
<stop offset="1" stop-color="#492CE1"/>
</linearGradient>
<linearGradient id="paint7_linear_1076_29493" x1="117.442" y1="603.032" x2="143.315" y2="630.018" gradientUnits="userSpaceOnUse">
<stop stop-color="#291A87"/>
<stop offset="1" stop-color="#D44ABE"/>
</linearGradient>
<linearGradient id="paint8_linear_1076_29493" x1="74.598" y1="497.869" x2="74.598" y2="605.535" gradientUnits="userSpaceOnUse">
<stop offset="0.0663438" stop-color="#291A87"/>
<stop offset="0.575691" stop-color="#FF8642"/>
<stop offset="1" stop-color="#D44ABE"/>
</linearGradient>
<linearGradient id="paint9_linear_1076_29493" x1="167.799" y1="577.158" x2="80.7197" y2="576.045" gradientUnits="userSpaceOnUse">
<stop stop-color="#F3E0FA"/>
<stop offset="0.329161" stop-color="#FF8642"/>
<stop offset="0.606741" stop-color="#CA36FE"/>
<stop offset="1" stop-color="#492CE1"/>
</linearGradient>
<linearGradient id="paint10_linear_1076_29493" x1="167.799" y1="577.158" x2="80.7197" y2="576.045" gradientUnits="userSpaceOnUse">
<stop stop-color="#F3E0FA"/>
<stop offset="0.329161" stop-color="#FF8642"/>
<stop offset="0.606741" stop-color="#CA36FE"/>
<stop offset="1" stop-color="#492CE1"/>
</linearGradient>
<linearGradient id="paint11_linear_1076_29493" x1="79.0189" y1="679.947" x2="69.1503" y2="760.776" gradientUnits="userSpaceOnUse">
<stop stop-color="#291A87"/>
<stop offset="0.508576" stop-color="#FF8642"/>
<stop offset="1" stop-color="#D44ABE"/>
</linearGradient>
<linearGradient id="paint12_linear_1076_29493" x1="144.095" y1="635.092" x2="75.4404" y2="663.834" gradientUnits="userSpaceOnUse">
<stop stop-color="#F5DFC1"/>
<stop offset="0.508576" stop-color="#FF8642"/>
<stop offset="1" stop-color="#D44ABE"/>
</linearGradient>
<linearGradient id="paint13_linear_1076_29493" x1="79.5753" y1="669.036" x2="79.5753" y2="723.565" gradientUnits="userSpaceOnUse">
<stop stop-color="#291A87"/>
<stop offset="0.508576" stop-color="#FF8642"/>
<stop offset="1" stop-color="#D44ABE"/>
</linearGradient>
<linearGradient id="paint14_linear_1076_29493" x1="177.503" y1="651.787" x2="70.3417" y2="719.782" gradientUnits="userSpaceOnUse">
<stop stop-color="#F3E0FA"/>
<stop offset="0.329161" stop-color="#FF8642"/>
<stop offset="0.606741" stop-color="#CA36FE"/>
<stop offset="1" stop-color="#492CE1"/>
</linearGradient>
<clipPath id="clip0_1076_29493">
<rect width="416" height="755" fill="white"/>
</clipPath>
<clipPath id="clip1_1076_29493">
<rect width="417" height="491" fill="white" transform="translate(0 264)"/>
</clipPath>
<clipPath id="clip2_1076_29493">
<rect width="204.241" height="275.179" fill="white" transform="translate(127.121 506)"/>
</clipPath>
</defs>
</svg>
