<svg width="1120" height="448" viewBox="0 0 1120 448" fill="none" xmlns="http://www.w3.org/2000/svg">
<g clip-path="url(#clip0_769_36935)">
<rect width="1120" height="449" transform="matrix(-1 0 0 1 1120 -0.984375)" fill="url(#paint0_radial_769_36935)"/>
<rect width="1120" height="449" transform="matrix(-1 0 0 1 1120 -0.984375)" fill="url(#paint1_radial_769_36935)"/>
<rect width="1120" height="449" transform="matrix(-1 0 0 1 1120 -0.984375)" fill="url(#paint2_radial_769_36935)"/>
<g clip-path="url(#clip1_769_36935)">
<g opacity="0.15">
<mask id="mask0_769_36935" style="mask-type:alpha" maskUnits="userSpaceOnUse" x="488" y="-102" width="742" height="742">
<circle cx="858.503" cy="269.006" r="370.501" fill="url(#paint3_linear_769_36935)"/>
</mask>
<g mask="url(#mask0_769_36935)">
<path d="M804.812 162.856L225.698 -415.5" stroke="white" stroke-width="1.02462"/>
<path d="M804.812 284.58L225.698 676.029" stroke="white" stroke-width="1.02462"/>
<path d="M804.812 260.4L225.698 451.815" stroke="white" stroke-width="1.02462"/>
<path d="M804.812 233.76L225.698 251.841" stroke="white" stroke-width="1.02462"/>
<path d="M805.171 207.15L225.698 31.4141" stroke="white" stroke-width="1.02462"/>
<path d="M804.812 182.939L225.698 -182.953" stroke="white" stroke-width="1.02462"/>
<path d="M804.812 312.04L225.698 891.153" stroke="white" stroke-width="1.02462"/>
<path d="M953.586 312.04L1532.35 891.154" stroke="white" stroke-width="1.02462"/>
<path d="M925.609 311.681L1317.23 891.154" stroke="white" stroke-width="1.02462"/>
<path d="M901.371 311.681L1093.01 891.154" stroke="white" stroke-width="1.02462"/>
<path d="M874.859 310.924L893.039 891.154" stroke="white" stroke-width="1.02462"/>
<path d="M848.347 311.681L672.611 891.154" stroke="white" stroke-width="1.02462"/>
<path d="M824.864 310.924L458.243 891.154" stroke="white" stroke-width="1.02462"/>
<path d="M953.586 163.266L1532.29 -416.258" stroke="white" stroke-width="1.02462"/>
<path d="M925.611 163.215L1317.23 -416.258" stroke="white" stroke-width="1.02462"/>
<path d="M901.371 163.215L1093.01 -416.258" stroke="white" stroke-width="1.02462"/>
<path d="M874.896 162.856L893.04 -416.258" stroke="white" stroke-width="1.02462"/>
<path d="M847.846 162.856L672.432 -416.258" stroke="white" stroke-width="1.02462"/>
<path d="M824.075 162.856L458.246 -416.258" stroke="white" stroke-width="1.02462"/>
<path d="M953.997 285.4L1533.11 676.787" stroke="white" stroke-width="1.02462"/>
<path d="M953.997 260.809L1533.11 452.573" stroke="white" stroke-width="1.02462"/>
<path d="M953.997 234.579L1533.11 252.598" stroke="white" stroke-width="1.02462"/>
<path d="M953.997 207.529L1533.11 32.1709" stroke="white" stroke-width="1.02462"/>
<path d="M953.997 184.168L1533.11 -182.196" stroke="white" stroke-width="1.02462"/>
<rect x="804.926" y="162.97" width="148.956" height="148.956" stroke="white" stroke-width="1.02462"/>
<rect x="795.838" y="153.88" width="167.136" height="167.136" stroke="white" stroke-width="1.02462"/>
<rect x="777.657" y="135.701" width="203.495" height="203.495" stroke="white" stroke-width="1.02462"/>
<rect x="761.471" y="117.875" width="236.824" height="236.824" stroke="white" stroke-width="1.02462"/>
<rect x="744.328" y="102.372" width="270.153" height="270.153" stroke="white" stroke-width="1.02462"/>
<rect x="724.633" y="82.6769" width="309.542" height="309.542" stroke="white" stroke-width="1.02462"/>
<rect x="694.336" y="52.3775" width="370.141" height="370.141" stroke="white" stroke-width="1.02462"/>
<rect x="665.549" y="23.5929" width="427.709" height="427.709" stroke="white" stroke-width="1.02462"/>
<rect x="629.191" y="-12.7655" width="500.427" height="500.427" stroke="white" stroke-width="1.02462"/>
<rect x="588.287" y="-53.6698" width="582.235" height="582.235" stroke="white" stroke-width="1.02462"/>
<rect x="538.294" y="-103.663" width="682.223" height="682.223" stroke="white" stroke-width="1.02462"/>
<rect x="479.21" y="-162.746" width="800.39" height="800.39" stroke="white" stroke-width="1.02462"/>
<rect x="411.036" y="-230.92" width="936.736" height="936.736" stroke="white" stroke-width="1.02462"/>
<rect x="326.199" y="-315.757" width="1106.41" height="1106.41" stroke="white" stroke-width="1.02462"/>
</g>
</g>
<path d="M1133.07 236.792L1034.97 233.832L1034.55 339.969L1133.07 407.627V236.792Z" fill="url(#paint4_linear_769_36935)" stroke="#9084CF" stroke-opacity="0.25" stroke-width="0.819694"/>
<path d="M1133.5 370.838L1073.87 339.832V234.678" stroke="#9084CF" stroke-opacity="0.25" stroke-width="0.819694"/>
<path d="M1133.07 347.158L1117.85 339.621V236.792" stroke="#9084CF" stroke-opacity="0.25" stroke-width="0.819694"/>
<path d="M1034.97 339.546H1133.5" stroke="#9084CF" stroke-opacity="0.25" stroke-width="0.819694"/>
<path d="M1034.97 285.421H1133.5" stroke="#9084CF" stroke-opacity="0.25" stroke-width="0.819694"/>
<path d="M1065.42 361.535H1133.07" stroke="#9084CF" stroke-opacity="0.25" stroke-width="0.819694"/>
<path d="M1133.07 236.792L1006.64 233.832L1013.41 418.198L1133.07 407.627V236.792Z" fill="url(#paint5_linear_769_36935)"/>
<path d="M1035.39 236.792L920.8 233.832L925.874 340.815H1035.39H1133.92V236.792H1035.39Z" fill="url(#paint6_linear_769_36935)" fill-opacity="0.5"/>
<path d="M1121.89 151.33C1121.77 151.338 1121.65 151.368 1121.53 151.404L1036.89 176.709C1036.77 176.745 1036.65 176.77 1036.53 176.796C1035.37 177.045 1034.52 178.073 1034.52 179.277L1034.52 233.832C1034.52 235.2 1035.61 236.322 1036.98 236.368L1121.97 238.819C1123.4 238.867 1124.59 237.718 1124.59 236.283V153.863C1124.59 152.388 1123.34 151.238 1121.89 151.33Z" fill="url(#paint7_linear_769_36935)"/>
<mask id="mask1_769_36935" style="mask-type:alpha" maskUnits="userSpaceOnUse" x="588" y="292" width="131" height="129">
<path d="M706.686 292.778C705.986 292.778 705.29 292.89 704.625 293.111L592.5 330.225C589.815 331.114 588.003 333.623 588.003 336.451V413.683C588.003 417.305 590.939 420.241 594.56 420.241H605.216L715.896 344.323C717.679 343.101 718.744 341.078 718.744 338.916V297.696C718.744 294.98 716.542 292.778 713.826 292.778H706.686Z" fill="url(#paint8_linear_769_36935)"/>
</mask>
<g mask="url(#mask1_769_36935)">
<path d="M704.436 293.288L588.003 331.304L606.446 334.582L718.744 298.516L719.154 292.368L707.64 292.727C706.551 292.761 705.472 292.95 704.436 293.288Z" fill="url(#paint9_linear_769_36935)"/>
<path d="M609.315 331.304H588.003V416.629C588.003 418.409 589.424 419.864 591.204 419.907L602.779 420.182C604.362 420.22 605.915 419.747 607.209 418.834L612.184 415.322L609.315 331.304Z" fill="url(#paint10_linear_769_36935)"/>
<mask id="mask2_769_36935" style="mask-type:alpha" maskUnits="userSpaceOnUse" x="605" y="294" width="114" height="124">
<path d="M716.252 344.079L610.35 416.72C608.174 418.212 605.217 416.654 605.217 414.016V337.178C605.217 333.666 607.454 330.545 610.78 329.416L713.329 294.616C715.987 293.714 718.744 295.69 718.744 298.497V339.348C718.744 341.239 717.812 343.009 716.252 344.079Z" fill="#D9D9D9"/>
</mask>
<g mask="url(#mask2_769_36935)">
<path d="M718.744 342.37L605.217 420.241V331.304L718.744 292.778V342.37Z" fill="url(#paint11_linear_769_36935)"/>
<path d="M651.858 361.953L650.763 360.797C646.704 356.559 643.885 353.608 643.894 348.124C643.902 343.649 645.928 339.354 648.403 338.354C649.759 337.804 651.025 338.395 651.842 339.772C652.642 337.723 653.851 336.149 655.093 335.649C657.217 334.788 658.842 337.198 658.85 341.132C658.867 345.944 656.588 351.157 652.928 359.494L651.85 361.953H651.858Z" fill="white"/>
<path d="M661.44 343.821L663.646 342.714L663.703 354.985L661.489 356.354L661.44 343.821ZM670.205 350.952L664.561 354.452L664.495 341.583L665.745 337.058L666.064 331.886C666.088 331.468 666.186 331.066 666.333 330.738C666.48 330.411 666.668 330.189 666.864 330.116L666.921 330.091C667.24 329.968 667.55 330.107 667.771 330.484C668 330.861 668.122 331.443 668.13 332.099L668.163 337.083L671.226 335.64C671.618 335.46 671.994 335.616 672.272 336.091C672.549 336.558 672.705 337.296 672.713 338.14L672.762 343.731C672.77 345.214 672.517 346.796 672.043 348.149C671.569 349.509 670.908 350.518 670.205 350.96V350.952Z" fill="white"/>
<path d="M681.15 339.042L681.126 336.649L683.854 325.312L685.202 324.747L685.325 334.148L686.035 333.771L686.068 336.28L685.357 336.681L685.398 339.632L684.238 340.321L684.197 337.329L681.159 339.034L681.15 339.042ZM684.157 328.329L682.482 335.665L684.23 334.73L684.148 328.329H684.157Z" fill="white"/>
<path d="M676.364 341.361C676.984 339.788 677.474 338.509 677.842 337.517C678.201 336.517 678.496 335.525 678.724 334.542C678.953 333.566 679.067 332.665 679.059 331.837C679.059 331.082 678.969 330.525 678.814 330.164C678.659 329.804 678.422 329.689 678.103 329.837C677.785 329.984 677.54 330.345 677.368 330.935C677.197 331.509 677.115 332.238 677.115 333.115L675.759 333.755C675.767 331.902 675.996 330.41 676.429 329.271C676.87 328.148 677.425 327.443 678.095 327.173C678.814 326.877 679.37 327.099 679.753 327.828C680.137 328.541 680.333 329.615 680.35 331.058C680.366 332.197 680.244 333.345 679.999 334.509C679.753 335.681 679.459 336.755 679.133 337.714C678.798 338.673 678.365 339.853 677.818 341.279L680.595 339.714L680.619 342.263L675.873 345.083L675.849 342.673L676.364 341.361Z" fill="white"/>
</g>
</g>
<path d="M677.76 225.563L716.022 262.264C717.243 263.435 718.87 264.089 720.561 264.089H732.27L721.614 227.632L677.76 225.563Z" fill="url(#paint12_linear_769_36935)"/>
<path d="M646.202 74.7393H633.087C630.823 74.7393 628.988 76.5742 628.988 78.8377V233.76C628.988 236.023 630.823 237.858 633.087 237.858H646.202V74.7393Z" fill="url(#paint13_linear_769_36935)"/>
<mask id="mask3_769_36935" style="mask-type:alpha" maskUnits="userSpaceOnUse" x="643" y="74" width="91" height="191">
<path d="M733.908 133.842C733.908 133.021 733.498 132.254 732.816 131.797L647.567 74.8361C645.933 73.7442 643.742 74.9155 643.742 76.8807V235.354C643.742 236.73 644.871 237.838 646.246 237.813L700.612 236.824C701.256 236.812 701.879 237.054 702.347 237.497L729.759 263.44C731.327 264.924 733.908 263.812 733.908 261.654V133.842Z" fill="url(#paint14_linear_769_36935)"/>
</mask>
<g mask="url(#mask3_769_36935)">
<path d="M733.908 133.842C733.908 133.021 733.498 132.254 732.816 131.797L647.567 74.8361C645.933 73.7442 643.742 74.9155 643.742 76.8807V235.354C643.742 236.73 644.871 237.838 646.246 237.813L700.612 236.824C701.256 236.812 701.879 237.054 702.347 237.497L729.759 263.44C731.327 264.924 733.908 263.812 733.908 261.654V133.842Z" fill="url(#paint15_linear_769_36935)"/>
</g>
<g clip-path="url(#clip2_769_36935)">
<path d="M986.179 268.331C978.902 264.15 962.661 256.261 935.635 250.39C909.637 244.742 881.328 242.599 851.495 244.016C847.322 244.213 843.307 244.482 839.557 244.812C803.791 247.956 786.519 257.035 785.201 273.383C784.332 284.173 792.64 293.288 809.894 300.477C826.202 307.271 851.575 312.824 885.307 316.986C904.675 319.374 922.194 319.91 937.373 318.575C954.892 317.034 969.017 313.091 979.353 306.853C987.963 301.658 993.558 294.915 995.111 287.867C996.849 279.982 993.426 272.495 986.177 268.331H986.179Z" fill="#390176"/>
<path d="M937.076 315.179C922.134 316.493 904.857 315.962 885.726 313.603C852.3 309.481 827.229 304.005 811.207 297.331C795.47 290.774 787.864 282.811 788.601 273.658C789.759 259.268 806.046 251.182 839.856 248.21C843.56 247.884 847.531 247.62 851.658 247.423C881.195 246.018 909.203 248.138 934.912 253.723C961.489 259.497 977.375 267.206 984.48 271.288C990.39 274.684 993.19 280.756 991.784 287.134C989.259 298.59 973.562 311.972 937.076 315.181V315.179Z" fill="#710125"/>
<path d="M788.601 273.656C787.132 291.88 817.974 305.243 885.726 313.6C987.687 326.177 1005.19 283.186 984.48 271.286C963.767 259.386 917.286 244.301 851.658 247.42C802.783 249.742 789.636 260.832 788.603 273.656H788.601Z" fill="#710125"/>
<path d="M776.088 481.308L775.872 478.325C774.617 460.977 775.009 441.636 777.037 420.837L777.064 420.559C777.685 414.236 778.464 407.704 779.379 401.147C779.541 399.993 779.707 398.843 779.875 397.697C780.204 395.466 780.563 393.13 780.943 390.748C780.993 390.431 781.218 389.044 781.218 389.044C781.501 387.327 781.782 385.637 782.074 383.96C782.074 383.96 782.106 383.788 782.112 383.744L782.122 383.675C782.62 380.81 783.094 378.19 783.573 375.666C783.955 373.636 784.364 371.527 784.824 369.222C785.128 367.696 785.436 366.187 785.747 364.693L785.789 364.491C786.692 360.166 787.655 355.785 788.652 351.472C790.696 342.659 792.912 333.985 795.24 325.69C795.334 325.35 795.433 325 795.532 324.652L795.607 324.385C795.664 324.177 795.727 323.959 795.79 323.739C795.891 323.378 795.994 323.019 796.096 322.664L796.149 322.479C796.571 321.016 796.982 319.61 797.383 318.261L797.721 317.127C797.836 316.739 797.952 316.365 798.065 315.994C798.451 314.718 798.829 313.494 799.194 312.329L799.715 310.675L801.413 310.329C801.841 310.241 844.735 301.535 886.86 297.831C938.919 293.253 967.035 297.891 972.816 312.01C973.382 313.393 973.94 314.777 974.488 316.158C974.746 316.806 975.002 317.453 975.254 318.101C976.035 320.093 976.826 322.158 977.666 324.408C977.922 325.09 978.178 325.779 978.43 326.469C978.917 327.789 979.437 329.221 980.012 330.835L980.627 332.581C981.129 334.012 981.622 335.437 982.103 336.856C982.306 337.446 982.508 338.048 982.707 338.646L983.358 340.594C983.368 340.624 983.377 340.653 983.385 340.682C983.522 341.094 983.656 341.503 983.79 341.912L984.025 342.634C984.275 343.407 984.516 344.16 984.76 344.907C985.429 347.012 986.005 348.857 986.525 350.562C986.724 351.218 986.924 351.873 987.117 352.52L987.216 352.851C987.377 353.393 987.539 353.932 987.698 354.472C988.25 356.333 988.813 358.281 989.369 360.256C989.673 361.337 989.971 362.407 990.261 363.469L990.425 364.063C990.599 364.693 990.771 365.329 990.939 365.965C991.464 367.919 991.986 369.917 992.496 371.898L992.935 373.636C993.052 374.102 993.168 374.566 993.281 375.025C994.818 381.221 996.251 387.526 997.542 393.762L997.794 394.985L998.031 396.163C998.075 396.371 998.121 396.606 998.169 396.843L998.23 397.147C998.49 398.45 998.744 399.737 998.986 401.011C1000.57 409.291 1001.95 417.638 1003.07 425.821C1005.81 445.632 1006.19 457.78 1006.2 458.288L1006.28 461.063L776.09 481.304L776.088 481.308Z" fill="#390176"/>
<path d="M1003.26 458.378L778.807 478.115C777.454 459.392 778.127 439.852 779.993 420.853V420.849C780.631 414.336 781.41 407.889 782.294 401.557C782.455 400.409 782.621 399.263 782.785 398.123C783.127 395.802 783.484 393.499 783.847 391.214C783.937 390.645 784.031 390.078 784.122 389.511C784.401 387.818 784.682 386.134 784.972 384.466C784.989 384.369 785.007 384.275 785.02 384.18C785.486 381.494 785.964 378.837 786.462 376.22C786.869 374.051 787.287 371.911 787.706 369.801C788.009 368.282 788.317 366.781 788.626 365.295C788.643 365.228 788.655 365.163 788.668 365.096C789.602 360.625 790.557 356.293 791.518 352.138C793.736 342.575 795.988 333.913 798.073 326.488C798.192 326.053 798.318 325.617 798.438 325.189C798.497 324.977 798.555 324.765 798.618 324.553C798.736 324.129 798.858 323.707 798.977 323.296C799.397 321.843 799.806 320.445 800.205 319.102C800.318 318.718 800.434 318.34 800.545 317.965C800.656 317.593 800.767 317.224 800.881 316.861C801.267 315.584 801.641 314.371 802.004 313.215C802.004 313.215 957.151 281.516 970.092 313.129C970.657 314.506 971.209 315.878 971.755 317.249C972.011 317.891 972.263 318.531 972.51 319.169C973.333 321.268 974.131 323.361 974.909 325.441C975.165 326.121 975.417 326.801 975.665 327.481C976.202 328.937 976.725 330.383 977.241 331.827C977.443 332.404 977.648 332.982 977.852 333.557C978.349 334.98 978.84 336.394 979.319 337.805C979.523 338.397 979.722 338.988 979.917 339.576C980.127 340.204 980.335 340.829 980.545 341.452C980.555 341.488 980.57 341.528 980.58 341.568C980.801 342.231 981.015 342.892 981.231 343.553C981.474 344.311 981.718 345.067 981.961 345.816C982.56 347.694 983.145 349.564 983.71 351.422C983.907 352.073 984.104 352.725 984.297 353.368C984.49 354.016 984.684 354.66 984.875 355.305C985.448 357.238 985.999 359.154 986.537 361.058C986.837 362.128 987.135 363.192 987.423 364.248C987.477 364.447 987.532 364.645 987.586 364.844C987.76 365.471 987.928 366.099 988.094 366.724C988.627 368.712 989.144 370.685 989.645 372.635C989.771 373.134 989.895 373.63 990.019 374.121C990.155 374.662 990.292 375.202 990.424 375.737C992.025 382.197 993.431 388.426 994.659 394.366C994.743 394.775 994.827 395.182 994.911 395.59L995.146 396.754C995.215 397.08 995.278 397.407 995.343 397.735C995.602 399.028 995.853 400.306 996.095 401.569C997.837 410.657 999.157 418.954 1000.16 426.23C1002.9 446.113 1003.26 458.382 1003.26 458.382V458.378Z" fill="#FFA300"/>
<path d="M823.992 474.139C823.992 474.139 815.817 364.127 850.357 327.007C850.357 327.007 899.656 368.205 901.48 467.324L823.992 474.139Z" fill="#FFF3E0"/>
<g style="mix-blend-mode:multiply" opacity="0.6">
<path d="M1003.26 458.378L966.006 461.654C965.528 454.837 964.684 447.882 963.697 441.333C960.064 442.431 954.349 444.074 950.735 444.981C949.648 445.254 942.019 463.478 942.019 463.478L934.719 464.49L937.752 447.651L884.188 451.741L883.896 470.436L878.699 470.154L883.396 447.947L867.042 446.799L854.743 376.91L845.775 454.929C836.46 453.391 827.672 450.482 819.716 446.96C816.349 459.836 809.283 467.319 798.173 469.015L797.789 476.444L778.806 478.113C777.452 459.389 778.125 439.849 779.991 420.851V420.847C780.629 414.334 781.408 407.886 782.292 401.554H782.296C782.457 400.406 782.619 399.26 782.785 398.12C783.127 395.799 783.484 393.497 783.847 391.211C783.937 390.642 784.032 390.076 784.122 389.509C784.401 387.815 784.682 386.132 784.972 384.463C784.989 384.367 785.008 384.272 785.02 384.178C785.488 381.487 785.969 378.834 786.462 376.217C786.869 374.049 787.287 371.908 787.707 369.799C788.009 368.279 788.317 366.779 788.626 365.293C788.643 365.226 788.655 365.16 788.668 365.093C789.602 360.623 790.557 356.291 791.518 352.135C793.737 342.573 795.989 333.911 798.073 326.485C798.192 326.051 798.318 325.614 798.438 325.186C798.497 324.974 798.555 324.762 798.618 324.55C798.736 324.126 798.858 323.704 798.977 323.293C799.397 321.841 799.806 320.443 800.205 319.1C800.318 318.716 800.434 318.338 800.545 317.962C800.656 317.591 800.768 317.221 800.881 316.858C801.267 315.582 801.641 314.369 802.004 313.212C802.004 313.212 957.151 281.514 970.093 313.126C970.657 314.503 971.209 315.876 971.755 317.246C972.011 317.889 972.263 318.529 972.51 319.167C973.333 321.266 974.131 323.358 974.909 325.438C975.165 326.118 975.417 326.798 975.665 327.478C976.202 328.935 976.725 330.381 977.241 331.825C977.443 332.402 977.648 332.979 977.852 333.554C978.349 334.977 978.841 336.392 979.319 337.802C979.523 338.394 979.722 338.986 979.917 339.574C980.127 340.201 980.335 340.827 980.545 341.45C980.555 341.486 980.57 341.526 980.58 341.565C980.801 342.229 981.015 342.89 981.231 343.551C981.475 344.309 981.718 345.064 981.961 345.813C982.56 347.692 983.145 349.562 983.71 351.419C983.907 352.07 984.104 352.723 984.297 353.365C984.491 354.014 984.684 354.658 984.875 355.302C985.448 357.235 986 359.152 986.537 361.055C986.837 362.126 987.135 363.19 987.423 364.245C987.477 364.445 987.532 364.642 987.586 364.841C987.761 365.469 987.928 366.097 988.094 366.722C988.627 368.71 989.144 370.683 989.645 372.632C989.771 373.132 989.895 373.627 990.019 374.118C990.155 374.66 990.292 375.199 990.424 375.734C992.025 382.195 993.432 388.424 994.659 394.364C994.743 394.773 994.827 395.18 994.911 395.587L995.146 396.752C995.216 397.077 995.279 397.405 995.344 397.732C995.602 399.025 995.854 400.303 996.095 401.567C997.837 410.655 999.157 418.951 1000.16 426.228C1002.9 446.11 1003.26 458.38 1003.26 458.38V458.378Z" fill="#B2A8C1"/>
</g>
<path d="M838.694 441.688C815.554 436.481 799.888 426.278 790.819 418.639C780.904 410.283 776.52 403.166 776.337 402.868L775.905 402.159L775.92 401.327C776.352 376.177 782.027 354.922 786.714 341.521C791.806 326.958 796.753 318.428 796.96 318.073L798.675 315.139L800.915 317.018C804.714 318.384 834.221 328.427 853.994 335.139L856.233 335.899L841.743 442.376L838.691 441.69L838.694 441.688Z" fill="#390176"/>
<path d="M853.077 337.851L839.325 438.89C834.687 437.847 830.351 436.602 826.306 435.211C792.238 423.491 778.791 401.376 778.791 401.376C779.536 357.882 795.919 325.942 798.958 320.384C799.271 319.813 799.441 319.521 799.441 319.521H799.445C799.59 319.7 853.077 337.851 853.077 337.851Z" fill="#DFDAE5"/>
<g style="mix-blend-mode:multiply" opacity="0.6">
<path d="M827.87 417.715L826.304 435.207V435.211C792.236 423.491 778.789 401.376 778.789 401.376C779.534 357.882 795.917 325.942 798.956 320.384L805.007 324.496C805.007 324.496 804.054 328.861 803.851 331.886C803.851 331.886 819.907 340.311 822.256 353.867C824.604 367.419 830.479 397.522 827.87 417.715Z" fill="#B2A8C1"/>
</g>
<path d="M914.153 442.569C890.378 444.66 874.473 442.402 873.808 442.305L871.719 442.001L851.948 334.686L856.146 335.452C862.986 336.7 870.414 337.865 878.223 338.915C891.622 340.711 905.869 340.967 920.567 339.674C954.99 336.648 980.806 326.051 981.062 325.944L983.654 324.867L984.854 327.403C1000.24 359.943 1006.33 408.848 1006.58 410.915L1006.81 412.812L1005.17 413.795C971.621 433.912 937.156 440.546 914.153 442.569Z" fill="#390176"/>
<path d="M1003.66 411.271C985.63 422.08 967.335 429.008 950.391 433.387V433.391C908.076 444.334 874.231 439.393 874.231 439.393L855.616 338.35C862.223 339.556 869.601 340.73 877.83 341.834C899.48 344.736 920.258 343.315 937.491 340.518C964.042 336.217 982.19 328.664 982.19 328.664C997.549 361.149 1003.66 411.273 1003.66 411.273L1003.66 411.271Z" fill="#DFDAE5"/>
<g style="mix-blend-mode:multiply" opacity="0.6">
<path d="M950.391 433.387C968.678 395.608 937.834 341.123 937.494 340.516C964.044 336.216 982.193 328.662 982.193 328.662C997.552 361.148 1003.66 411.272 1003.66 411.272C985.63 422.081 967.335 429.009 950.391 433.387Z" fill="#B2A8C1"/>
</g>
<path d="M929.038 321.299C928.215 321.37 927.382 321.438 926.54 321.498C924.64 321.635 922.754 321.746 920.928 321.828C888.944 323.297 853.123 318.254 833.824 309.562C828.982 307.38 824.89 305.728 821.599 304.401C811.054 300.145 805.244 297.803 803.551 288.478C800.067 269.288 796.793 261.027 794.624 255.562C791.661 248.088 790.534 244.545 792.458 231.795L792.857 229.131C793.581 224.291 794.266 219.72 795.08 215.283C797.997 199.418 802.56 186.053 815.35 172.387C817.019 170.605 818.82 168.857 820.723 167.168C819.384 161.268 817.72 147.737 825.271 132.377L825.677 131.553C832.899 116.871 835.598 111.379 841.865 110.827C844.854 110.564 847.643 111.882 849.975 113.207C856.641 116.991 860.937 122.8 864.387 127.468C865.529 129.013 866.608 130.47 867.655 131.71C870.82 135.45 874.105 140.775 875.954 143.929C882.36 143.388 888.853 143.47 895.261 144.175C905.678 145.321 915.536 147.776 924.611 151.477C927.549 148.532 931.879 142.489 934.379 133.347C934.62 132.465 934.858 131.582 935.095 130.702C938.392 118.479 942.264 113.144 951.455 112.336C955.537 111.977 957.966 113.003 962.757 117.616C977.164 131.49 980.965 143.881 983.116 157.994C983.254 158.904 983.391 159.803 983.529 160.686C985.261 171.762 981.074 184.273 977.707 194.326C976.563 197.741 975.476 200.994 974.771 203.742C983.515 225.083 990.823 255.753 985.7 279.49C980.1 305.447 962.619 318.342 929.033 321.295L929.038 321.299Z" fill="#390176"/>
<path d="M970.012 204.126C979.755 227.299 985.93 256.901 981.262 278.535C975.738 304.135 958.064 314.656 926.212 316.965C924.405 317.095 922.577 317.204 920.726 317.288C890.009 318.701 854.329 313.812 835.694 305.417C815.933 296.512 809.685 296.799 808.027 287.665C806.266 277.958 804.551 270.98 803 265.72C802.994 265.709 802.994 265.703 802.994 265.703C797.768 247.991 794.349 249.763 796.958 232.472C797.829 226.686 798.608 221.267 799.556 216.102C802.289 201.242 806.474 188.525 818.674 175.491C820.874 173.143 823.288 170.882 825.884 168.731H825.873C825.873 168.731 820.177 153.051 829.362 134.38C836.445 119.965 838.855 114.881 843.203 115.366C844.488 115.509 845.94 116.141 847.735 117.159C855.599 121.623 859.769 129.418 864.187 134.642C868.612 139.87 873.468 148.736 873.468 148.736L873.464 148.748C880.309 147.959 887.436 147.886 894.77 148.694C905.885 149.917 916.178 152.675 925.429 156.755C925.429 156.755 934.379 150.606 938.767 134.547C942.396 121.275 949.217 112.837 958.435 118.993L958.454 119.008C960.381 120.292 962.411 122.225 964.543 124.878C977.356 140.863 976.827 147.182 979.048 161.389C981.266 175.596 972.413 193.235 970.019 204.124L970.012 204.126Z" fill="#FFA300"/>
<g style="mix-blend-mode:multiply" opacity="0.6">
<path d="M842.018 126.138C842.018 126.138 844.1 154.319 835.91 162.727C835.91 162.727 860.636 149.779 842.018 126.138Z" fill="#B2A8C1"/>
</g>
<g style="mix-blend-mode:multiply" opacity="0.6">
<path d="M960.905 135.465C960.905 135.465 957.702 157.421 953.572 162.347C949.441 167.273 938.817 163.644 938.817 163.644C938.817 163.644 947.227 168.037 948.858 173.598C950.487 179.158 954.136 184.917 954.136 184.917C954.136 184.917 970.801 163.684 960.905 135.465Z" fill="#B2A8C1"/>
</g>
<g style="mix-blend-mode:multiply" opacity="0.6">
<path d="M873.466 148.738L865.801 150.102C857.851 124.564 844.198 116.981 843.201 115.369C844.486 115.511 845.938 116.143 847.733 117.161C855.597 121.625 859.767 129.42 864.185 134.644C868.61 139.872 873.466 148.738 873.466 148.738Z" fill="#B2A8C1"/>
</g>
<path d="M930.152 272.208C917.217 281.615 920.547 316.128 920.547 316.128L920.724 317.286C890.007 318.699 854.327 313.811 835.692 305.415C815.931 296.51 809.683 296.798 808.025 287.663C800.327 245.248 793.57 254.901 796.954 232.473C797.825 226.686 798.603 221.267 799.552 216.102C808.869 196.744 826.833 205.205 833.284 193.202C839.73 181.198 840.97 168.524 849.647 167.493C858.323 166.467 863.615 176.692 866.624 183.618C869.64 190.547 876.029 196.314 886.947 188.481C897.859 180.648 902.416 170.836 914.383 177.2C928.384 184.645 913.304 200.401 915.21 205.931C917.112 211.468 931.749 219.397 939.37 234.322C946.991 249.247 943.089 262.792 930.154 272.208H930.152Z" fill="#FFF3E0"/>
<g style="mix-blend-mode:multiply" opacity="0.6">
<path d="M970.013 204.125C979.756 227.298 985.931 256.9 981.263 278.535C975.739 304.134 958.064 314.656 926.213 316.964C924.406 317.095 922.577 317.204 920.726 317.288C890.01 318.7 854.33 313.812 835.694 305.417C815.934 296.511 809.686 296.799 808.028 287.665C806.267 277.958 804.552 270.979 803.001 265.719C803.217 266.305 810.362 285.218 832.061 290.57C839.756 292.467 841.122 312.271 853.551 309.174C864.157 306.529 870.667 296.262 880.756 294.232C901.925 289.978 917.034 297.378 928.259 292.832C947.812 284.913 962.524 265.424 960.392 239.887C958.26 214.351 961.437 200.205 965.268 191.547C972.88 174.337 973.077 156.53 970.907 145.421C968.808 134.667 958.805 119.364 958.448 119.007C960.375 120.292 962.405 122.225 964.537 124.878C977.351 140.862 976.822 147.182 979.042 161.389C981.261 175.596 972.408 193.234 970.013 204.123V204.125Z" fill="#B2A8C1"/>
</g>
<path d="M837.577 195.323C837.577 195.323 852.804 183.916 888.74 203.412C888.74 203.412 883.092 217.027 861.296 212.384C830.645 205.857 837.579 195.323 837.579 195.323H837.577Z" fill="#FFA300"/>
<path d="M900.618 257.409C897.925 258.124 895.184 258.269 892.481 258.011C889.956 257.772 887.462 257.186 885.078 256.393C885.072 256.389 885.061 256.389 885.055 256.385C885.049 256.385 885.042 256.38 885.038 256.38C877.846 253.983 871.639 249.744 868.445 247.614C863.057 244.014 856.309 246.478 848.554 242.597C840.799 238.717 829.379 238.58 821.419 240.872C813.458 243.164 810.702 240.224 808.714 231.843C808.379 230.428 808.179 229.119 808.074 227.872C807.56 221.706 809.453 217.034 809.837 208.997C810.299 199.334 818.537 199.609 818.537 199.609L900.62 257.415L900.618 257.409Z" fill="#FFF3E0"/>
<g style="mix-blend-mode:multiply" opacity="0.6">
<path d="M885.035 256.378C877.843 253.982 871.636 249.742 868.442 247.612C863.054 244.012 856.307 246.476 848.551 242.595C840.796 238.715 829.376 238.578 821.416 240.87C813.455 243.162 810.699 240.222 808.711 231.841C808.376 230.426 808.176 229.117 808.071 227.87C812.007 232.406 813.914 235.747 822.327 233.535C830.734 231.329 841.657 233.335 846.757 235.682C851.857 238.028 864.351 238.967 870.255 243.706C876.153 248.434 879.979 254.71 885.035 256.381V256.378Z" fill="#B2A8C1"/>
</g>
<path d="M851.884 298.676C843.774 299.39 835.32 297.136 831.326 293.196C826.929 288.864 828.146 282.937 829.557 276.074C830.323 272.348 831.19 268.124 831.295 263.567C831.316 262.742 831.276 261.905 831.177 261.069C829.947 250.72 820.095 242.724 819.997 242.644L816.569 239.901L820.786 238.683C823.181 237.995 825.806 237.521 828.594 237.275C836.38 236.591 844.026 237.787 849.567 240.56C853.083 242.318 856.42 242.64 859.646 242.948C863.037 243.273 866.547 243.609 869.705 245.719L870.079 245.968C874.398 248.854 883.383 254.863 892.694 255.747L897.33 255.701L894.312 259.827C894.291 259.854 892.167 262.589 889.071 266.474C884.17 272.626 875.03 283.907 868.805 290.445L868.744 290.516L868.675 290.577C868.125 291.158 867.554 291.74 866.929 292.357C862.315 296.89 856.201 298.294 851.884 298.674V298.676Z" fill="#390176"/>
<path d="M892.479 258.011L892.517 258.435C892.517 258.435 890.416 261.14 887.293 265.061C885.207 267.68 882.667 270.835 879.987 274.088C875.586 279.432 870.819 285.042 867.107 288.933C867.096 288.946 867.086 288.952 867.075 288.964C866.464 289.611 865.879 290.205 865.333 290.744C856.409 299.515 838.514 297.095 832.923 291.582C827.328 286.068 833.276 276.453 833.567 263.623C833.593 262.668 833.542 261.726 833.433 260.807C833.364 260.202 833.265 259.612 833.146 259.029C830.982 248.497 821.413 240.874 821.413 240.874C829.374 238.582 840.794 238.718 848.549 242.599C856.304 246.48 863.052 244.016 868.439 247.615C872.7 250.457 882.308 257.05 892.477 258.015L892.479 258.011Z" fill="#BC0F0F"/>
<g style="mix-blend-mode:multiply" opacity="0.6">
<path d="M892.479 258.011L892.517 258.435C892.517 258.435 890.416 261.141 887.293 265.061C885.207 267.681 882.667 270.835 879.987 274.088C881.731 259.927 866.389 252.229 863.484 251.811C858.441 251.091 851.97 252.277 845.522 249.935C839.077 247.599 835.872 250.842 837.322 258.658L833.146 259.025C830.982 248.493 821.413 240.87 821.413 240.87C829.374 238.578 840.794 238.715 848.549 242.595C856.304 246.476 863.052 244.012 868.439 247.612C872.7 250.453 882.308 257.046 892.477 258.011H892.479Z" fill="#B2A8C1"/>
</g>
<path d="M886.758 256.685C884.899 256.078 883.094 255.324 881.333 254.491C877.813 252.806 874.503 250.732 871.313 248.489L868.918 246.778C868.031 246.188 867.088 245.647 866.085 245.298C864.089 244.534 862.034 244.262 860.08 243.993C858.12 243.731 856.22 243.489 854.418 243.036C852.613 242.589 850.904 241.94 849.315 241.071C840.595 236.708 828.495 237.058 820.945 239.231C817.854 240.121 815.742 240.144 814.305 239.302C812.619 238.318 811.444 235.967 810.372 231.444C808.928 225.349 809.381 221.926 810.208 215.711C810.468 213.747 810.764 211.518 811.047 208.861C811.398 205.57 812.978 203.286 815.747 202.069C817.963 201.095 820.15 201.154 820.165 201.156L820.301 197.749C816.343 197.592 808.6 199.636 807.658 208.5C807.381 211.113 807.087 213.316 806.829 215.26C805.979 221.659 805.467 225.521 807.055 232.229C807.979 236.122 809.356 240.356 812.586 242.242C814.884 243.586 817.839 243.67 821.89 242.503C829.045 240.444 840.24 240.337 847.792 244.115C849.722 244.998 851.771 245.601 853.813 245.951C855.857 246.308 857.883 246.411 859.83 246.532C861.778 246.656 863.669 246.782 865.399 247.311C866.278 247.544 867.078 247.941 867.863 248.375L870.385 249.914C873.781 251.952 877.303 253.82 880.995 255.268C882.842 255.986 884.725 256.615 886.643 257.09C888.565 257.551 890.519 257.868 892.48 258.005C890.532 257.728 888.622 257.27 886.758 256.678V256.685Z" fill="#390176"/>
<path d="M992.058 282.165C991.29 283.646 989.989 284.935 987.984 288.016C979.967 300.338 964.987 306.074 932.823 308.904C919.464 310.079 903.637 310.511 885.784 310.192C862.2 309.77 839.175 305.252 820.949 297.471C804.625 290.501 793.813 281.48 792.013 273.331L790.613 263.89L785.173 273.897L785.25 274.298C785.275 274.43 794.84 321.262 794.84 321.262L795.367 321.91C795.847 322.5 807.884 336.461 874.809 345.434C888.674 347.293 903.393 347.56 918.555 346.225C954.025 343.106 980.67 332.142 980.934 332.033L982.441 331.405L994.461 290.146C995.009 286.597 994.822 284.051 994.377 282.259L992.056 282.16L992.058 282.165Z" fill="#390176"/>
<path d="M979.624 328.887C979.624 328.887 961.505 336.428 934.988 340.731C917.74 343.532 896.94 344.962 875.264 342.055C808.907 333.158 798.012 319.759 798.012 319.759L788.689 274.093C792.824 292.642 833.734 312.669 885.724 313.603C905.865 313.964 922.62 313.37 936.413 311.993C969.463 308.692 985.528 300.882 990.462 290.881C991.045 289.7 979.624 328.887 979.624 328.887Z" fill="#DFDAE5"/>
<g style="mix-blend-mode:multiply" opacity="0.6">
<path d="M979.625 328.887C979.625 328.887 961.506 336.428 934.989 340.73C946.516 327.938 936.595 312.277 936.414 311.993C969.464 308.692 985.529 300.882 990.463 290.881C991.047 289.7 979.625 328.887 979.625 328.887Z" fill="#B2A8C1"/>
</g>
<path d="M836.823 316.245C835.092 316.398 833.417 316.216 831.843 315.704C818.836 311.481 818.53 285.036 822.014 272.044C823.661 265.898 827.158 261.434 832.407 258.773C835.648 257.127 839.512 256.154 844.561 255.709C845.248 255.648 845.928 255.6 846.599 255.56C850.381 255.333 852.438 255.914 854.09 256.38C855.205 256.695 855.939 256.903 857.047 256.806C858.475 256.68 860.412 256.059 863.14 254.852C864.54 254.233 866.045 253.849 867.611 253.711C878.05 252.793 888.456 263.01 888.895 263.447L890.337 264.883L889.069 266.476C887.006 269.07 883.893 272.942 880.527 276.999L879.929 277.725C875.41 283.159 871.668 287.439 868.801 290.448L868.74 290.52L868.629 290.621C868.06 291.154 867.521 291.706 867.021 292.262C866.198 293.177 865.308 294.195 864.36 295.278C856.936 303.757 846.772 315.37 836.821 316.245H836.823Z" fill="#390176"/>
<path d="M887.293 265.061C884.746 268.262 881.515 272.267 878.182 276.267V276.273C874.314 280.926 870.318 285.567 867.107 288.933C867.096 288.946 867.086 288.952 867.075 288.965C866.458 289.544 865.877 290.136 865.333 290.745C857.541 299.415 843.701 317.173 832.546 313.546C826.499 311.586 823.584 303.348 822.715 294.248C821.978 286.572 822.696 278.278 824.209 272.636C825.863 266.468 829.307 262.895 833.436 260.805C837.553 258.714 842.351 258.1 846.738 257.833C855.515 257.306 853.641 261.544 864.062 256.937C874.482 252.324 887.296 265.063 887.296 265.063L887.293 265.061Z" fill="#FC2D81"/>
<g style="mix-blend-mode:multiply" opacity="0.6">
<path d="M887.293 265.061C884.745 268.262 881.515 272.267 878.182 276.267V276.273C874.314 280.926 870.318 285.567 867.107 288.933C867.096 288.946 867.086 288.952 867.075 288.965C866.458 289.544 865.877 290.136 865.333 290.745C857.54 299.415 843.701 317.173 832.546 313.546C826.499 311.586 823.584 303.348 822.715 294.248C825.248 302.032 832.831 307.006 839.394 305.094C845.961 303.176 864.796 281.38 870.826 273.173C876.858 264.971 873.24 260.675 864.059 256.937C874.48 252.324 887.293 265.063 887.293 265.063V265.061Z" fill="#B2A8C1"/>
</g>
<path d="M866.741 287.563C866.697 287.439 865.639 284.484 864.942 281.184C863.865 276.095 864.214 273.056 866.038 271.624C866.632 271.158 867.326 270.887 868.099 270.818C871.946 270.48 876.708 275.622 877.623 276.657L877.984 277.066L878.091 278.29L877.657 278.819C874.366 282.775 871.642 285.892 869.553 288.085L869.509 288.138L869.492 288.152L867.713 290.276L866.739 287.565L866.741 287.563Z" fill="#390176"/>
<path d="M876.678 277.612V277.616C875.02 279.614 873.326 281.604 871.727 283.43C870.451 284.882 869.234 286.23 868.138 287.378C868.13 287.388 868.121 287.392 868.113 287.403C868.113 287.403 863.647 274.976 866.803 272.501C867.37 272.056 868.06 271.933 868.799 272.04V272.044C872.166 272.518 876.678 277.614 876.678 277.614V277.612Z" fill="#F6F0F0"/>
<g style="mix-blend-mode:multiply" opacity="0.6">
<path d="M871.728 283.43C870.452 284.882 869.235 286.23 868.139 287.378C868.131 287.388 868.123 287.392 868.114 287.403C868.114 287.403 863.648 274.976 866.805 272.501C867.371 272.056 868.062 271.933 868.801 272.04V272.044C868.801 272.044 866.733 277.423 871.728 283.432V283.43Z" fill="#B2A8C1"/>
</g>
<path d="M964.261 147.911C963.65 143.63 962.493 139.449 960.905 135.465C962.227 139.545 963.092 143.76 963.413 148.004C963.581 150.126 963.591 152.252 963.524 154.372C963.417 156.489 963.209 158.599 962.892 160.687C962.218 164.862 961.131 168.956 959.633 172.887C958.888 174.854 958.044 176.781 957.108 178.651C956.644 179.589 956.147 180.508 955.634 181.413C955.601 181.474 955.563 181.535 955.53 181.595C954.069 178.932 952.562 176.302 951.021 173.691C950.568 172.913 950.012 172.019 949.456 171.219C948.876 170.413 948.265 169.632 947.611 168.895C946.299 167.422 944.84 166.096 943.266 164.945C941.702 163.787 940.025 162.798 938.279 161.992C936.535 161.191 934.726 160.519 932.85 160.177C936.107 162.106 939.05 164.351 941.65 166.864C942.294 167.498 942.926 168.136 943.516 168.811C944.116 169.475 944.683 170.163 945.218 170.873C945.768 171.569 946.255 172.308 946.738 173.047C947.222 173.803 947.619 174.522 948.093 175.372C949.936 178.661 951.936 181.856 954.14 184.916C955.236 186.45 956.392 187.942 957.599 189.399C958.825 190.843 960.059 192.278 961.457 193.592C960.225 190.629 958.823 187.808 957.366 185.023C957.761 184.311 958.111 183.621 958.464 182.901C958.944 181.906 959.402 180.905 959.822 179.891C960.674 177.866 961.417 175.803 962.055 173.71C963.339 169.527 964.179 165.222 964.586 160.891C964.771 158.722 964.84 156.548 964.804 154.378C964.731 152.21 964.573 150.046 964.263 147.905L964.261 147.911Z" fill="#390176"/>
<path d="M850.475 152.222C849.594 152.457 848.727 152.742 847.871 153.047C848.351 151.892 848.756 150.711 849.067 149.502C849.396 148.081 849.64 146.645 849.709 145.197C849.774 143.751 849.713 142.307 849.518 140.888C849.103 138.053 848.177 135.343 846.884 132.862C845.581 130.388 843.965 128.094 842.017 126.138C843.751 128.281 845.1 130.701 846.11 133.217C847.111 135.74 847.709 138.397 847.822 141.046C847.864 142.37 847.782 143.688 847.591 144.983C847.394 146.278 847.039 147.537 846.622 148.765C845.763 151.072 844.533 153.217 843.039 155.173C840.846 156.357 838.762 157.727 836.827 159.282C834.839 160.905 832.965 162.687 831.447 164.819C833.844 163.793 836.077 162.659 838.292 161.516L844.842 158.067C847.021 156.942 849.191 155.836 851.392 154.745C853.611 153.689 855.846 152.7 858.235 151.628C855.643 151.29 853.004 151.611 850.477 152.226L850.475 152.222Z" fill="#390176"/>
<g style="mix-blend-mode:multiply" opacity="0.6">
<path d="M926.242 226.684L937.786 204.111L945.075 214.882L936.654 235.203L926.242 226.684Z" fill="#B2A8C1"/>
</g>
<path d="M924.111 224.94L937.784 204.111L942.752 211.215L934.506 233.446L924.111 224.94Z" fill="#390176"/>
<path d="M934.905 205.355L939.774 211.675L933.314 229.091L927.257 224.142L934.905 205.355Z" fill="#2F4272"/>
<path d="M925.574 226.136C925.152 225.796 883.417 192.769 830.822 198.064C825.909 198.559 820.985 199.382 816.185 200.507L812.466 201.38L817.26 179.084L818.586 178.593C818.846 178.497 825.08 176.226 835.878 175.072C849.074 173.661 862.978 174.496 877.229 177.58C897.07 181.872 916.975 190.469 936.406 203.215L938.144 204.354L928.361 228.38L925.576 226.134L925.574 226.136Z" fill="#390176"/>
<path d="M934.906 205.355L927.256 224.144C927.256 224.144 922.995 220.717 915.441 216.202H915.437C897.045 205.225 859.142 187.868 815.678 198.089L819.374 180.915C819.374 180.915 865.775 163.79 927.48 200.692V200.696C929.934 202.163 932.408 203.712 934.906 205.353V205.355Z" fill="#6777A5"/>
<g style="mix-blend-mode:multiply" opacity="0.6">
<path d="M934.905 205.355L927.255 224.144C927.255 224.144 922.994 220.717 915.44 216.202C920.914 217.251 925.483 217.646 928.833 212.733C933.599 205.741 927.546 200.893 927.479 200.696C929.933 202.163 932.407 203.712 934.905 205.353V205.355Z" fill="#B2A8C1"/>
</g>
<path d="M825.032 183.08C820.407 184.166 817.447 192.62 823.662 192.605C829.9 192.59 841.685 189.963 863.733 193.144C886.071 196.368 909.237 209.419 918.069 213.075C926.952 216.75 930.226 208.705 924.546 204.098C921.581 201.695 897.299 186.655 868.165 182.845C839.521 179.099 830.145 181.882 825.032 183.083V183.08Z" fill="#390176"/>
<g style="mix-blend-mode:multiply" opacity="0.6">
<path d="M819.814 201.202C817.615 208.5 823.827 210.981 826.47 212.024C830.015 213.424 836.391 214.574 840.202 212.527C844.016 210.481 848.344 207.82 847.846 202.159C847.349 196.499 822.463 192.414 819.814 201.202Z" fill="#B2A8C1"/>
</g>
<path d="M818.534 199.605C816.334 206.903 822.547 209.383 825.189 210.427C828.734 211.826 835.111 212.977 838.922 210.93C842.736 208.884 847.063 206.223 846.566 200.562C846.069 194.902 821.183 190.817 818.534 199.605Z" fill="#390176"/>
<path d="M848.652 267.237C847.59 268.242 846.583 269.3 845.621 270.394C844.656 271.483 843.739 272.612 842.863 273.769C841.997 274.933 841.161 276.117 840.397 277.349C839.621 278.573 838.913 279.834 838.275 281.131C837.942 281.773 837.652 282.435 837.354 283.091L836.943 284.095C836.798 284.426 836.693 284.773 836.561 285.108C836.433 285.446 836.307 285.784 836.202 286.131C836.093 286.475 835.977 286.817 835.874 287.163C835.69 287.862 835.482 288.555 835.335 289.262C835.157 289.963 835.056 290.681 834.921 291.392C834.865 291.749 834.827 292.11 834.777 292.469L834.707 293.008L834.665 293.55L834.577 294.637L834.55 295.729L834.533 296.276L834.548 296.822L834.567 297.92L834.422 296.83L834.355 296.285L834.317 295.735L834.252 294.633V293.529C834.252 293.344 834.254 293.16 834.26 292.977L834.296 292.425C834.323 292.058 834.338 291.688 834.374 291.321C834.464 290.589 834.546 289.854 834.691 289.13C834.76 288.767 834.812 288.399 834.905 288.043L835.165 286.964C835.261 286.607 835.371 286.254 835.471 285.898C835.57 285.541 835.688 285.19 835.809 284.842C836.036 284.137 836.323 283.457 836.596 282.768C836.896 282.092 837.184 281.412 837.522 280.756C838.187 279.437 838.916 278.149 839.728 276.919C840.544 275.691 841.409 274.495 842.349 273.363C843.281 272.224 844.278 271.141 845.323 270.108C846.375 269.084 847.468 268.1 848.652 267.235V267.237Z" fill="#390176"/>
<path d="M833.568 263.62C833.568 263.62 822.356 273.36 827.133 288.226C827.133 288.226 824.621 278.693 833.568 263.62Z" fill="#FF71B2"/>
<g style="mix-blend-mode:multiply" opacity="0.6">
<path d="M891.41 245.9C888.463 245.644 893.54 270.958 898.531 269.332L899.163 256.344L891.41 245.9Z" fill="#B2A8C1"/>
</g>
<path d="M891.409 245.901C893.443 246.854 895.044 248.51 896.331 250.315C897.611 252.143 898.543 254.206 899.162 256.345C899.408 257.428 899.693 258.509 899.781 259.615C899.83 260.167 899.92 260.712 899.92 261.266C899.928 261.818 899.922 262.37 899.909 262.92C899.909 263.47 899.853 264.018 899.773 264.564C899.702 265.109 899.613 265.651 899.519 266.188C899.416 266.725 899.25 267.256 899.087 267.781C898.921 268.306 898.747 268.826 898.528 269.334C898.209 268.249 898.044 267.202 897.844 266.169C897.731 265.653 897.624 265.143 897.534 264.635C897.483 264.381 897.445 264.127 897.403 263.875C897.357 263.623 897.284 263.374 897.238 263.124C897.128 262.624 897.026 262.127 896.937 261.632C896.837 261.136 896.705 260.651 896.595 260.162C896.482 259.675 896.402 259.18 896.247 258.706L895.88 257.26C895.328 255.352 894.721 253.471 893.987 251.597C893.25 249.719 892.438 247.855 891.411 245.903L891.409 245.901Z" fill="#390176"/>
<path d="M909.117 311.248L905.779 310.558L898.418 346.169L901.755 346.859L909.117 311.248Z" fill="#390176"/>
<path d="M940.918 438.08L937.732 437.421L931.853 465.864L935.039 466.522L940.918 438.08Z" fill="#390176"/>
<path d="M922.08 335.498C921.879 335.494 901.875 335.095 890.648 336.082C889.798 336.157 889.011 336.239 888.306 336.325L887.685 336.401L883.831 333.145L886.062 326.435L922.322 321.465L924.941 324.204L923.111 335.517L922.08 335.496V335.498Z" fill="#390176"/>
<path d="M921.014 321.791L923.736 324.58L922.131 334.499C922.131 334.499 898.89 334.019 888.174 335.337L884.268 332.529L886.904 327.321L921.014 321.793V321.791Z" fill="#A57F4C"/>
<path d="M919.125 332.478C904.477 331.798 885.279 332.969 885.086 332.982L883.774 333.064L885.027 321.719L885.936 321.606C888.108 321.337 890.291 321.104 892.422 320.918C910.57 319.323 920.886 321.207 921.316 321.287L922.359 321.484L920.149 332.526L919.125 332.478Z" fill="#390176"/>
<path d="M886.071 322.593L885.034 331.985C885.034 331.985 904.323 330.788 919.212 331.481L921.057 322.263C921.057 322.263 908.226 319.847 886.071 322.593Z" fill="#FFD18D"/>
<path d="M794.531 466.103C792.254 466.303 789.876 466.137 787.463 465.606C778.345 463.604 771.835 459.694 767.559 453.655C763.532 447.965 761.515 440.336 761.391 430.329C761.194 414.254 765.689 392.859 773.522 361.332L773.591 361.055L773.711 360.797C774.055 360.052 782.264 342.485 792.943 338.138C794.254 337.605 795.577 337.277 796.874 337.162C798.114 337.053 799.352 337.137 800.555 337.414C806.978 338.894 812.206 345.553 816.538 357.775C821.959 373.067 824.616 391.431 824.018 409.485C823.411 427.787 819.512 443.417 813.035 453.496C808.142 461.11 801.745 465.47 794.536 466.103H794.531Z" fill="#390176"/>
<path d="M788.106 462.667C771.244 458.963 764.62 448.494 764.398 430.291C764.198 413.983 769.133 391.469 776.441 362.056C776.441 362.056 784.374 344.871 794.075 340.923C795.96 340.157 797.905 339.892 799.878 340.344C804.563 341.422 809.371 346.571 813.699 358.78C829.23 402.593 820.077 469.69 788.108 462.667H788.106Z" fill="#FFA300"/>
<path d="M788.106 462.667C830.992 422.645 799.642 340.755 799.642 340.755L799.877 340.346C804.561 341.424 809.37 346.573 813.697 358.782C829.229 402.595 820.076 469.692 788.106 462.67V462.667Z" fill="#FFF3E0"/>
<g style="mix-blend-mode:multiply" opacity="0.6">
<path d="M788.107 462.667C771.245 458.963 764.621 448.494 764.398 430.291C766.556 433.154 784.05 455.246 798.893 439.117C814.741 421.896 794.004 341.25 794.004 341.25L794.074 340.923C795.958 340.157 797.904 339.892 799.877 340.344C804.562 341.422 809.37 346.571 813.698 358.78C829.229 402.593 820.076 469.69 788.107 462.667Z" fill="#B2A8C1"/>
</g>
<path d="M813.54 346.863L813.431 346.703L813.424 346.699C805.359 334.912 791.932 334.222 784.628 334.864C777.803 335.464 770.186 337.613 761.986 341.251C745.979 348.355 735.314 358.169 731.963 368.884C730.015 375.105 730.655 381.137 733.814 386.329C736.053 390.009 738.026 392.869 740.028 395.329C747.485 404.497 755.956 408.527 765.928 407.651C766.387 407.611 766.86 407.559 767.332 407.496C770.692 407.051 773.7 406.78 776.609 406.518C786.326 405.645 805.976 403.412 809.25 377.636C809.47 375.898 813.687 361.446 814.333 359.827C816.99 353.174 813.542 346.863 813.542 346.863H813.54Z" fill="#390176"/>
<path d="M813.622 366.544C813.622 366.544 813.618 366.548 813.615 366.557C809.542 376.765 806.125 388.214 798.33 395.619C790.526 403.028 781.533 401.79 766.835 403.737C756.124 405.156 748.772 400.071 742.969 392.937C742.234 392.032 741.521 391.094 740.837 390.131L740.828 390.122C739.498 388.269 738.249 386.323 737.052 384.357C730.347 373.332 737.329 356.339 763.525 344.714C790.075 332.933 804.368 339.782 810.574 349.252L810.578 349.256C814.573 355.357 815.219 362.542 813.62 366.542L813.622 366.544Z" fill="#FFA300"/>
<path d="M813.622 366.544C809.544 376.757 806.129 388.212 798.328 395.619C790.524 403.028 781.531 401.789 766.833 403.737C756.122 405.156 748.77 400.071 742.967 392.937C742.971 392.937 742.971 392.941 742.975 392.941C750.332 396.547 762.429 400.933 787.422 391.879C799.474 387.513 808.687 359.662 810.572 349.256L810.576 349.26C814.57 355.361 815.217 362.546 813.618 366.546L813.622 366.544Z" fill="#FFF3E0"/>
<path d="M778.294 406.318C777.874 405.989 777.561 405.71 777.217 405.395C776.881 405.086 776.558 404.772 776.241 404.45C775.609 403.806 775.009 403.132 774.444 402.429C773.315 401.023 772.318 399.497 771.548 397.841C770.778 396.189 770.241 394.399 770.077 392.559C769.905 390.722 770.131 388.85 770.7 387.135C771.81 383.838 773.267 380.7 774.984 377.732C776.694 374.763 778.619 371.925 780.791 369.299C778.852 372.097 777.186 375.069 775.752 378.131C774.312 381.189 773.158 384.371 772.365 387.607C771.987 389.161 771.932 390.749 772.201 392.288C772.465 393.826 773.04 395.306 773.819 396.679C774.598 398.053 775.58 399.325 776.68 400.488C777.23 401.069 777.811 401.623 778.415 402.148C778.718 402.41 779.026 402.664 779.337 402.908C779.639 403.143 779.987 403.401 780.252 403.575L778.294 406.318Z" fill="#390176"/>
<path d="M759.798 407.521C759.378 407.192 759.065 406.912 758.721 406.598C758.385 406.289 758.062 405.974 757.745 405.653C757.113 405.009 756.513 404.335 755.948 403.632C754.819 402.226 753.822 400.7 753.052 399.044C752.282 397.392 751.744 395.602 751.581 393.761C751.409 391.925 751.635 390.053 752.204 388.338C753.314 385.041 754.771 381.903 756.488 378.935C758.198 375.965 760.123 373.128 762.295 370.502C760.356 373.3 758.689 376.272 757.256 379.334C755.816 382.392 754.662 385.574 753.868 388.81C753.491 390.363 753.436 391.952 753.705 393.49C753.969 395.029 754.544 396.509 755.323 397.881C756.102 399.256 757.084 400.528 758.184 401.691C758.734 402.272 759.315 402.826 759.919 403.351C760.222 403.613 760.53 403.867 760.841 404.11C761.143 404.346 761.491 404.604 761.756 404.778L759.798 407.521Z" fill="#390176"/>
<path d="M746.166 401.533C745.746 401.204 745.433 400.925 745.089 400.61C744.753 400.301 744.43 399.986 744.113 399.665C743.481 399.021 742.881 398.347 742.317 397.644C741.187 396.238 740.19 394.712 739.42 393.056C738.65 391.404 738.113 389.614 737.949 387.773C737.777 385.937 738.003 384.065 738.572 382.35C739.682 379.053 741.139 375.915 742.856 372.947C744.566 369.977 746.491 367.14 748.663 364.514C746.724 367.312 745.058 370.284 743.624 373.346C742.184 376.404 741.03 379.586 740.237 382.822C739.859 384.375 739.804 385.964 740.073 387.503C740.337 389.041 740.912 390.521 741.691 391.893C742.47 393.268 743.452 394.54 744.552 395.703C745.102 396.284 745.683 396.838 746.288 397.363C746.59 397.625 746.898 397.879 747.209 398.123C747.511 398.358 747.86 398.616 748.124 398.79L746.166 401.533Z" fill="#390176"/>
<g style="mix-blend-mode:multiply" opacity="0.6">
<path d="M813.615 366.556C809.541 376.765 806.124 388.214 798.329 395.619C790.526 403.027 781.532 401.789 766.834 403.737C756.124 405.156 748.772 400.07 742.968 392.936C742.234 392.032 741.52 391.094 740.836 390.13C741.142 390.386 751.089 398.593 759.956 398.418C768.958 398.244 785.138 396.601 793.353 390.493C801.435 384.48 813.248 367.098 813.613 366.558L813.615 366.556Z" fill="#B2A8C1"/>
</g>
<path d="M883.898 470.436L883.231 445.29L886.927 470.17L883.898 470.436Z" fill="#390176"/>
<path d="M880.981 433.996C880.994 428.513 881.005 423.033 881.017 417.551C882.417 417.654 883.118 417.698 884.52 417.774C885.882 417.847 886.919 418.261 887.637 419.029C888.355 419.797 888.726 420.857 888.749 422.217C888.8 425.302 888.827 426.845 888.877 429.93C888.902 431.475 888.533 432.6 887.765 433.301C886.995 434.002 885.874 434.317 884.409 434.229C883.036 434.147 882.352 434.101 880.981 433.996ZM883.391 419.927C883.406 423.934 883.42 427.943 883.435 431.949C883.886 431.979 884.113 431.991 884.564 432.018C885.253 432.058 885.739 431.918 886.025 431.601C886.31 431.284 886.449 430.77 886.44 430.06C886.407 426.885 886.388 425.298 886.354 422.123C886.348 421.474 886.21 420.968 885.941 420.599C885.672 420.231 885.19 420.03 884.489 419.992C884.05 419.967 883.83 419.954 883.391 419.929V419.927Z" fill="#390176"/>
<path d="M890.855 421.906C890.84 421.243 890.945 420.658 891.168 420.152C891.39 419.646 891.69 419.226 892.07 418.893C892.433 418.574 892.851 418.332 893.319 418.164C893.787 417.998 894.261 417.915 894.742 417.915C895.223 417.915 895.701 417.998 896.182 418.164C896.66 418.332 897.116 418.571 897.502 418.895C897.888 419.216 898.207 419.65 898.463 420.158C898.717 420.664 898.86 421.252 898.887 421.917C899.032 425.409 899.103 427.156 899.246 430.648C899.275 431.345 899.179 431.943 898.958 432.443C898.738 432.942 898.44 433.356 898.066 433.685C897.676 434.029 897.24 434.287 896.753 434.46C896.266 434.632 895.772 434.716 895.273 434.714C894.773 434.711 894.274 434.621 893.776 434.447C893.279 434.271 892.834 433.994 892.439 433.662C892.045 433.328 891.699 432.913 891.447 432.413C891.195 431.914 891.063 431.316 891.046 430.621C890.97 427.135 890.933 425.393 890.857 421.906H890.855ZM893.489 430.665C893.506 431.238 893.68 431.66 894.016 431.935C894.352 432.208 894.746 432.346 895.195 432.348C895.644 432.348 896.028 432.214 896.35 431.943C896.669 431.672 896.818 431.248 896.799 430.675C896.675 427.185 896.614 425.439 896.49 421.948C896.469 421.376 896.295 420.956 895.966 420.687C895.636 420.418 895.254 420.284 894.817 420.282C894.381 420.282 894.007 420.416 893.695 420.683C893.382 420.952 893.233 421.371 893.25 421.942C893.346 425.43 893.394 427.175 893.491 430.663L893.489 430.665Z" fill="#390176"/>
<path d="M900.856 421.868C900.824 421.203 900.914 420.611 901.124 420.093C901.334 419.574 901.626 419.138 901.997 418.783C902.354 418.443 902.764 418.179 903.229 417.988C903.693 417.797 904.166 417.687 904.646 417.664C905.127 417.639 905.607 417.698 906.09 417.841C906.573 417.983 907.033 418.202 907.427 418.504C907.82 418.806 908.151 419.226 908.418 419.721C908.684 420.217 908.84 420.798 908.884 421.463C908.905 421.799 908.917 421.965 908.938 422.301C907.979 422.368 907.501 422.399 906.541 422.456C906.52 422.12 906.512 421.954 906.491 421.619C906.457 421.046 906.271 420.632 905.937 420.38C905.601 420.126 905.215 420.013 904.778 420.034C904.342 420.057 903.972 420.21 903.666 420.496C903.36 420.781 903.223 421.209 903.253 421.782C903.433 425.277 903.523 427.025 903.706 430.52C903.735 431.093 903.922 431.508 904.264 431.766C904.606 432.022 905.003 432.142 905.452 432.121C905.901 432.1 906.283 431.945 906.596 431.655C906.909 431.366 907.047 430.935 907.014 430.36C906.94 429.113 906.902 428.49 906.829 427.246C906.059 427.29 905.673 427.311 904.902 427.346C904.856 426.509 904.833 426.091 904.787 425.254C906.52 425.17 907.385 425.119 909.117 424.998C909.253 427.082 909.32 428.123 909.457 430.207C909.503 430.904 909.421 431.51 909.213 432.022C909.005 432.535 908.716 432.967 908.353 433.315C907.971 433.681 907.54 433.964 907.058 434.161C906.575 434.358 906.084 434.47 905.584 434.493C905.085 434.516 904.583 434.453 904.082 434.302C903.58 434.151 903.127 433.897 902.726 433.584C902.323 433.269 901.966 432.872 901.702 432.383C901.437 431.894 901.29 431.303 901.259 430.606C901.097 427.111 901.017 425.365 900.858 421.87L900.856 421.868Z" fill="#390176"/>
<path d="M911.884 433.955C911.496 428.436 911.106 422.918 910.718 417.398C913.54 417.163 914.951 417.02 917.77 416.682C917.847 417.574 917.887 418.021 917.965 418.915C916.082 419.14 915.142 419.241 913.255 419.419C913.404 421.362 913.477 422.336 913.627 424.28C915.289 424.125 916.12 424.038 917.778 423.848C917.856 424.742 917.893 425.187 917.971 426.081C916.303 426.272 915.467 426.358 913.797 426.513C913.946 428.457 914.019 429.43 914.168 431.374C916.107 431.196 917.077 431.095 919.014 430.868C919.098 431.817 919.14 432.291 919.222 433.24C916.292 433.58 914.823 433.722 911.884 433.955Z" fill="#390176"/>
<path d="M920.811 433.049C920.305 427.531 919.802 422.011 919.296 416.494C920.203 416.378 920.656 416.317 921.563 416.189C923.116 419.526 923.903 421.189 925.506 424.503C925.525 424.501 925.534 424.498 925.553 424.496C926.413 420.802 926.829 418.951 927.635 415.243C928.548 415.085 929.003 415.003 929.914 414.835C930.562 420.347 931.211 425.858 931.859 431.368C930.884 431.544 930.394 431.63 929.414 431.794C928.965 427.771 928.739 425.758 928.289 421.734C928.27 421.738 928.262 421.738 928.243 421.743C927.616 424.746 927.292 426.247 926.631 429.242C926.144 429.317 925.901 429.355 925.414 429.429C924.165 426.727 923.55 425.372 922.333 422.658L922.287 422.664C922.679 426.692 922.874 428.705 923.267 432.73C922.285 432.864 921.794 432.927 920.811 433.049Z" fill="#390176"/>
<path d="M932.464 418.343C932.382 417.677 932.426 417.067 932.594 416.51C932.762 415.954 933.016 415.467 933.356 415.05C933.681 414.651 934.068 414.317 934.513 414.051C934.957 413.784 935.415 413.597 935.889 413.494C936.362 413.392 936.842 413.373 937.331 413.44C937.82 413.505 938.293 413.652 938.704 413.891C939.115 414.13 939.476 414.502 939.776 414.957C940.079 415.413 940.276 415.973 940.37 416.636C940.866 420.12 941.113 421.86 941.611 425.344C941.709 426.039 941.676 426.662 941.51 427.21C941.344 427.76 941.092 428.241 940.759 428.65C940.41 429.078 940.005 429.433 939.545 429.71C939.084 429.987 938.607 430.178 938.114 430.283C937.621 430.388 937.121 430.405 936.613 430.335C936.106 430.264 935.637 430.081 935.216 429.832C934.794 429.582 934.41 429.238 934.11 428.789C933.812 428.339 933.618 427.766 933.532 427.07C933.104 423.579 932.89 421.833 932.46 418.343H932.464ZM935.95 426.589C936.024 427.162 936.24 427.55 936.599 427.754C936.958 427.957 937.359 428.012 937.801 427.918C938.244 427.823 938.609 427.605 938.897 427.263C939.184 426.923 939.287 426.465 939.21 425.892C938.733 422.406 938.496 420.664 938.02 417.178C937.942 416.607 937.726 416.221 937.375 416.019C937.025 415.82 936.634 415.765 936.204 415.858C935.774 415.95 935.419 416.166 935.14 416.502C934.859 416.84 934.756 417.293 934.829 417.864C935.279 421.352 935.503 423.097 935.952 426.587L935.95 426.589Z" fill="#390176"/>
<path d="M950.149 414.947C949.215 415.218 948.749 415.35 947.813 415.61C947.779 415.398 947.762 415.291 947.726 415.079C947.64 414.54 947.439 414.109 947.126 413.786C946.813 413.463 946.36 413.383 945.766 413.543C945.447 413.629 945.197 413.759 945.019 413.935C944.841 414.111 944.698 414.309 944.61 414.525C944.515 414.752 944.469 415.006 944.463 415.272C944.456 415.539 944.473 415.809 944.515 416.089C944.566 416.412 944.618 416.678 944.673 416.888C944.729 417.098 944.815 417.276 944.933 417.421C945.05 417.566 945.208 417.679 945.403 417.755C945.598 417.833 945.861 417.891 946.188 417.933C946.952 418.028 947.336 418.074 948.102 418.162C948.656 418.219 949.118 418.334 949.485 418.513C949.853 418.691 950.174 418.93 950.4 419.23C950.633 419.535 950.816 419.938 950.957 420.389C951.097 420.84 951.217 421.365 951.315 421.965C951.431 422.658 951.469 423.319 951.427 423.953C951.385 424.585 951.242 425.155 950.996 425.659C950.74 426.182 950.363 426.644 949.867 427.036C949.372 427.429 948.738 427.731 947.968 427.934C947.384 428.09 946.826 428.13 946.291 428.058C945.756 427.987 945.279 427.819 944.864 427.554C944.448 427.29 944.1 426.948 943.818 426.53C943.537 426.113 943.357 425.624 943.275 425.069C943.222 424.717 943.197 424.543 943.147 424.19C944.104 423.957 944.582 423.837 945.537 423.592C945.581 423.888 945.605 424.037 945.651 424.333C945.716 424.765 945.905 425.12 946.215 425.401C946.528 425.68 946.99 425.741 947.601 425.579C948.008 425.47 948.316 425.328 948.524 425.151C948.732 424.975 948.881 424.761 948.973 424.511C949.063 424.261 949.097 423.982 949.072 423.676C949.047 423.369 949.005 423.031 948.946 422.662C948.877 422.232 948.803 421.881 948.73 421.613C948.654 421.344 948.558 421.128 948.436 420.993C948.31 420.855 948.136 420.754 947.941 420.695C947.745 420.637 947.491 420.584 947.177 420.54C946.455 420.446 946.094 420.395 945.374 420.295C944.289 420.143 943.52 419.764 943.071 419.163C942.622 418.563 942.322 417.745 942.171 416.712C942.081 416.095 942.079 415.488 942.165 414.89C942.251 414.294 942.44 413.75 942.706 413.266C942.968 412.791 943.325 412.361 943.781 411.994C944.236 411.626 944.805 411.351 945.487 411.169C946.062 411.014 946.604 410.978 947.116 411.06C947.626 411.144 948.083 411.312 948.49 411.566C949.307 412.105 949.798 412.85 949.955 413.803C950.033 414.265 950.071 414.496 950.146 414.957L950.149 414.947Z" fill="#390176"/>
<path d="M953.951 426.102C953.015 420.631 952.081 415.159 951.145 409.689C952.066 409.412 952.526 409.27 953.443 408.98C954.408 414.445 955.376 419.911 956.341 425.374C955.386 425.672 954.908 425.817 953.951 426.102Z" fill="#390176"/>
<path d="M963.977 410.38C963.06 410.72 962.603 410.888 961.683 411.215C961.641 411.005 961.62 410.898 961.58 410.688C961.475 410.153 961.261 409.735 960.938 409.433C960.615 409.131 960.164 409.083 959.58 409.286C959.265 409.395 959.022 409.544 958.852 409.733C958.68 409.922 958.548 410.132 958.466 410.354C958.38 410.59 958.342 410.848 958.346 411.116C958.348 411.385 958.375 411.656 958.428 411.933C958.489 412.254 958.55 412.518 958.613 412.726C958.676 412.934 958.768 413.106 958.89 413.242C959.011 413.381 959.171 413.482 959.368 413.545C959.566 413.608 959.828 413.65 960.153 413.666C960.915 413.706 961.297 413.725 962.061 413.757C962.613 413.773 963.075 413.855 963.446 414.009C963.818 414.16 964.143 414.38 964.38 414.663C964.622 414.953 964.817 415.343 964.972 415.786C965.127 416.229 965.264 416.75 965.383 417.344C965.522 418.03 965.583 418.693 965.562 419.331C965.543 419.969 965.421 420.553 965.195 421.075C964.959 421.619 964.601 422.11 964.122 422.54C963.646 422.97 963.026 423.319 962.267 423.581C961.694 423.779 961.14 423.86 960.607 423.829C960.073 423.797 959.595 423.661 959.173 423.426C958.751 423.191 958.394 422.872 958.098 422.473C957.805 422.072 957.607 421.596 957.507 421.044C957.444 420.693 957.412 420.519 957.347 420.171C958.289 419.866 958.76 419.711 959.7 419.396L959.838 420.131C959.918 420.559 960.117 420.903 960.437 421.163C960.756 421.422 961.217 421.449 961.818 421.241C962.218 421.103 962.519 420.937 962.72 420.744C962.922 420.551 963.062 420.326 963.142 420.068C963.224 419.81 963.245 419.528 963.211 419.222C963.176 418.916 963.123 418.58 963.05 418.212C962.966 417.784 962.882 417.438 962.798 417.174C962.714 416.909 962.609 416.699 962.485 416.573C962.357 416.443 962.179 416.355 961.981 416.309C961.786 416.263 961.532 416.231 961.219 416.208C960.5 416.164 960.141 416.141 959.421 416.093C958.338 416.019 957.563 415.692 957.095 415.123C956.629 414.552 956.302 413.752 956.115 412.726C956.004 412.113 955.981 411.503 956.046 410.896C956.111 410.289 956.279 409.731 956.529 409.225C956.772 408.73 957.11 408.27 957.551 407.869C957.991 407.469 958.545 407.152 959.215 406.917C959.78 406.719 960.317 406.644 960.827 406.69C961.337 406.736 961.797 406.873 962.21 407.097C963.039 407.58 963.551 408.291 963.742 409.238C963.835 409.695 963.881 409.924 963.973 410.382L963.977 410.38Z" fill="#390176"/>
<path d="M940.168 361.299C939.156 359.309 936.869 357.632 933.049 356.072C929.987 354.836 926.927 354.444 924.662 354.994C924.209 355.105 923.806 355.243 923.411 355.426C922.423 355.877 921.667 356.822 921.312 358.047C920.876 359.504 921.065 361.271 921.732 362.205C921.963 362.486 922.25 362.837 922.569 363.137C922.324 363.368 922.093 363.582 921.877 363.777C921.552 364.067 921.256 364.317 920.989 364.533C918.154 364.218 915.192 364.388 912.218 365.114C898.76 368.393 890.036 381.699 892.726 394.838C895.417 407.976 908.501 415.967 921.959 412.686C935.416 409.408 944.141 396.101 941.45 382.963C940.464 378.148 938.076 374.028 934.787 370.899C934.81 369.981 934.904 368.997 935.057 367.985C935.666 368.006 936.26 367.946 936.835 367.805C938.357 367.433 939.551 366.51 940.151 365.225C940.752 363.941 940.785 362.413 940.168 361.299ZM893.633 390.571C893.633 390.594 893.633 390.617 893.633 390.64C893.633 390.594 893.633 390.55 893.631 390.504C893.631 390.527 893.631 390.55 893.631 390.571H893.633Z" fill="#390176"/>
<path d="M923.174 410.504C916.73 412.497 910.451 411.996 910.186 411.973L909.554 411.92L908.278 407.261C907.181 406.459 903.191 403.296 902.013 398.994C901.612 397.531 901.346 396.322 901.17 395.193C900.913 393.543 900.861 392.065 901.01 390.678C901.193 388.959 901.686 387.374 902.519 385.832C904.62 381.936 905.237 379.021 904.578 376.083C903.864 372.895 904.251 371.046 905.724 370.59C906.368 370.391 907.09 370.534 907.932 371.025C909.617 372.007 911.045 373.428 911.712 374.146C913.395 373.663 918.254 372.307 920.64 372.032C921.327 370.75 923.224 367.32 924.907 365.303C926.118 363.853 927.164 363.03 928.196 362.711C929.546 362.294 930.813 362.724 931.964 363.985L932.106 364.143V364.149C932.184 364.235 932.257 364.327 932.333 364.424C933.894 366.416 934.721 369.931 935.385 372.758C935.643 373.856 935.865 374.805 936.077 375.409C936.657 377.067 937.039 378.345 937.2 378.904C938.109 379.603 940.737 382.054 940.707 386.957C940.707 387.177 940.701 387.408 940.69 387.645C940.554 391.108 939.274 399.919 930.387 406.866C928.41 408.411 925.984 409.637 923.172 410.506L923.174 410.504Z" fill="#390176"/>
<path d="M939.753 386.994C939.753 387.208 939.746 387.427 939.736 387.649C939.524 392.986 937.07 400.465 929.817 406.138C922.261 412.046 910.31 411.034 910.31 411.034L909.116 406.669C909.116 406.669 904.205 403.346 902.933 398.708C902.583 397.423 902.295 396.196 902.112 395.006C901.884 393.528 901.81 392.113 901.959 390.73C902.121 389.204 902.559 387.718 903.357 386.241C905.458 382.345 906.26 379.176 905.51 375.835C904.763 372.496 905.235 370.565 907.418 371.837C909.601 373.108 911.366 375.211 911.366 375.211C911.366 375.211 918.907 372.991 921.224 372.924C921.224 372.924 923.623 368.285 925.632 365.88C927.535 363.603 929.317 362.522 931.24 364.631C931.349 364.751 931.458 364.879 931.565 365.017C933.614 367.631 934.403 373.553 935.171 375.751C935.939 377.948 936.363 379.493 936.363 379.493C936.363 379.493 939.784 381.63 939.751 386.996L939.753 386.994Z" fill="#FFA300"/>
<path d="M939.738 387.647C939.526 392.985 937.072 400.463 929.819 406.136C922.263 412.044 910.312 411.033 910.312 411.033L909.118 406.667C909.118 406.667 904.207 403.345 902.935 398.706C902.148 395.829 901.69 393.224 901.961 390.731C903.321 388.85 904.137 389.083 905.092 390.592C906.049 392.099 905.93 392.588 908.664 391.616C911.399 390.645 913.236 390.651 918.351 391.667C923.465 392.682 924.46 389.614 927.925 386.432C931.391 383.25 933.871 383.781 936.306 384.428C938.741 385.074 939.738 387.647 939.738 387.647Z" fill="#FFF3E0"/>
<path d="M927.6 365.756C927.6 365.756 930.839 370.273 930.94 374.299C930.94 374.299 927.055 372.903 924.011 373.358C924.011 373.358 926.427 372.519 927.666 371.173C929.336 369.358 927.6 365.756 927.6 365.756Z" fill="#390176"/>
<g style="mix-blend-mode:multiply" opacity="0.6">
<path d="M939.751 386.994C939.751 387.208 939.745 387.426 939.735 387.649C939.523 392.986 937.069 400.464 929.816 406.137C922.26 412.046 910.309 411.034 910.309 411.034L909.115 406.668C909.115 406.668 904.204 403.346 902.932 398.708C902.581 397.423 902.294 396.195 902.111 395.005C902.795 393.756 904.225 394.898 905.135 396.401C906.048 397.904 908.179 400.815 908.62 400.92C909.06 401.023 909.398 399.789 908.75 399.243C908.099 398.695 907.033 396.628 907.033 396.628C907.033 396.628 913.829 394.038 913.89 394.669C913.951 395.299 912.507 398.345 913.699 399.352C914.891 400.357 916.851 399.598 918.994 398.286C921.137 396.974 921.578 395.538 923.483 394.688C925.389 393.838 926.13 392.671 928.831 390.961C931.532 389.255 936.043 389.28 936.043 389.28C937.13 384.723 934.588 380.316 932.263 377.302C929.937 374.288 924.012 373.362 924.012 373.362C926.625 372.554 929.024 372.785 930.821 373.081C932.618 373.377 933.01 373.337 932.909 371.746C932.806 370.155 932.347 367.863 931.243 364.635C931.352 364.753 931.461 364.881 931.568 365.019C933.617 367.632 934.406 373.555 935.174 375.753C935.942 377.95 936.366 379.495 936.366 379.495C936.366 379.495 939.787 381.632 939.754 386.998L939.751 386.994Z" fill="#DBB89E"/>
</g>
<path d="M922.088 387.345C921.616 387.492 921.179 387.61 920.791 387.698C920.105 387.853 918.021 388.323 917.641 386.936C917.362 385.914 918.006 384.207 919.41 383.292C919.721 383.091 920.059 382.933 920.413 382.822C920.501 382.795 920.594 382.77 920.688 382.747C923.056 382.19 924.055 383.129 924.663 384.01C924.737 384.115 924.794 384.233 924.829 384.354C924.896 384.573 924.905 384.812 924.848 385.06V385.072C924.842 385.087 924.831 385.129 924.831 385.129C924.577 386.056 923.534 386.896 922.09 387.343L922.088 387.345Z" fill="#390176"/>
<path d="M924.522 384.457C924.576 384.631 924.58 384.824 924.534 385.024C924.534 385.024 924.534 385.028 924.534 385.032C924.36 385.758 923.522 386.579 922.009 387.047C921.558 387.185 921.132 387.303 920.737 387.393C919.237 387.733 918.179 387.67 917.952 386.841C917.723 386.006 918.246 384.421 919.581 383.552C919.919 383.332 920.309 383.158 920.752 383.053C922.945 382.537 923.848 383.393 924.4 384.197C924.456 384.279 924.498 384.365 924.526 384.457H924.522Z" fill="#FFF3E0"/>
<path d="M924.521 384.457C924.547 384.648 924.551 384.837 924.534 385.024C924.534 385.024 924.534 385.028 924.534 385.032C924.36 385.758 923.522 386.579 922.009 387.047C921.558 387.185 921.132 387.303 920.737 387.393C920.017 387.11 919.446 386.514 919.228 385.716C919.023 384.963 919.172 384.184 919.579 383.552C919.917 383.332 920.307 383.158 920.75 383.053C922.943 382.537 923.846 383.393 924.398 384.197C924.454 384.279 924.496 384.365 924.524 384.457H924.521Z" fill="#390176"/>
<path d="M922.48 384.336C922.729 384.147 922.786 383.802 922.606 383.564C922.426 383.327 922.078 383.287 921.828 383.476C921.579 383.665 921.523 384.011 921.702 384.248C921.882 384.486 922.23 384.525 922.48 384.336Z" fill="#FFF3E0"/>
<path d="M907.374 395.222L906.606 394.697C907.817 393.026 909.987 386.889 910.008 386.829L910.909 387.099C910.819 387.358 908.669 393.434 907.374 395.22V395.222Z" fill="#390176"/>
<path d="M908.945 389.4C908.876 389.421 908.805 389.44 908.731 389.454C908.032 389.595 907.304 389.387 906.878 388.921C906.527 388.539 906.424 388.036 906.588 387.505C906.716 387.093 906.865 386.753 907.048 386.47C907.375 385.958 907.816 385.622 908.391 385.443C908.572 385.389 908.767 385.345 908.993 385.313C909.631 385.223 910.484 385.542 910.805 386.231C911.05 386.759 911.069 387.658 909.749 388.927C909.522 389.146 909.252 389.305 908.943 389.4H908.945Z" fill="#390176"/>
<path d="M909.536 388.708C909.292 388.943 908.994 389.085 908.686 389.146C907.674 389.35 906.557 388.682 906.895 387.583C907.015 387.192 907.156 386.88 907.317 386.63C907.747 385.956 908.325 385.723 909.028 385.624C909.991 385.488 911.779 386.55 909.538 388.708H909.536Z" fill="#FFF3E0"/>
<path d="M909.536 388.707C909.293 388.942 908.995 389.085 908.686 389.145C908.023 388.98 907.475 388.484 907.284 387.785C907.177 387.395 907.196 386.994 907.318 386.627C907.748 385.953 908.325 385.72 909.028 385.622C909.991 385.485 911.78 386.547 909.538 388.705L909.536 388.707Z" fill="#390176"/>
<path d="M909.614 386.71C909.757 386.602 909.789 386.405 909.686 386.269C909.583 386.133 909.384 386.11 909.242 386.218C909.099 386.326 909.068 386.523 909.17 386.659C909.273 386.795 909.472 386.818 909.614 386.71Z" fill="#FFF3E0"/>
<path d="M907.036 396.628C905.703 395.205 906.803 393.65 908.222 393.195C909.64 392.739 911.194 391.952 912.482 392.276C913.771 392.599 914.468 394.164 913.441 395.781C912.415 397.399 911.739 398.582 910.427 398.662C909.116 398.744 907.506 397.13 907.036 396.628Z" fill="#390176"/>
<path d="M908.14 396.448C908.057 396.473 907.964 396.466 907.887 396.42C907.849 396.397 906.946 395.854 907.125 394.993C907.213 394.571 907.754 393.784 909.228 393.516C909.402 393.484 909.561 393.597 909.587 393.767C909.61 393.937 909.488 394.101 909.314 394.133C908.147 394.345 907.788 394.894 907.748 395.09C907.66 395.518 908.229 395.872 908.233 395.877C908.38 395.965 908.422 396.156 908.325 396.307C908.281 396.376 908.214 396.424 908.14 396.448Z" fill="#FFF3E0"/>
<path d="M911.255 401.071C911.001 401.151 910.739 401.012 910.672 400.765L909.958 398.158C909.891 397.91 910.042 397.646 910.296 397.566C910.55 397.486 910.812 397.625 910.879 397.872L911.593 400.479C911.66 400.727 911.509 400.991 911.255 401.071Z" fill="#390176"/>
<path d="M917.636 401.017C916.301 401.43 914.922 401.357 912.521 401.046C911.155 400.87 910.632 401.342 910.078 401.84C909.688 402.192 909.245 402.591 908.559 402.633C906.995 402.729 905.923 399.262 905.631 398.196C905.564 397.948 905.715 397.684 905.969 397.604C906.223 397.524 906.485 397.663 906.552 397.911C907.104 399.919 908.053 401.722 908.542 401.693C908.863 401.674 909.086 401.487 909.451 401.157C910.049 400.616 910.87 399.877 912.685 400.11C915.275 400.444 916.574 400.49 917.911 399.925C919.03 399.451 921.129 397.157 921.842 396.313C922.016 396.11 922.317 396.074 922.516 396.236C922.715 396.397 922.736 396.693 922.564 396.897C922.285 397.226 919.796 400.135 918.253 400.788C918.046 400.876 917.84 400.952 917.634 401.015L917.636 401.017Z" fill="#390176"/>
<path d="M917.334 404.994C912.154 406.595 910.043 403.653 909.946 403.51C909.801 403.3 909.862 403.004 910.083 402.853C910.303 402.7 910.597 402.746 910.742 402.954C910.838 403.09 913.124 406.19 919.118 403.284C919.36 403.168 919.641 403.26 919.748 403.493C919.855 403.726 919.748 404.01 919.506 404.125C918.73 404.501 918.006 404.786 917.334 404.994Z" fill="#390176"/>
<path d="M918.558 380.241C917.687 381.322 918.274 382.659 920.18 381.798C922.084 380.938 922.644 379.328 921.402 379.051C920.159 378.774 919.431 379.16 918.56 380.241H918.558Z" fill="#FFF3E0"/>
<path d="M910.528 382.814C911.252 383.609 910.832 384.816 909.298 384.346C907.764 383.876 907.268 382.593 908.242 382.193C909.216 381.792 909.804 382.021 910.53 382.814H910.528Z" fill="#FFF3E0"/>
<path d="M911.841 375.012C911.65 375.075 911.434 375.157 911.23 375.241C911.025 375.325 910.819 375.415 910.618 375.512C910.212 375.703 909.816 375.917 909.43 376.15C909.046 376.387 908.678 376.652 908.33 376.943C907.986 377.239 907.669 377.569 907.387 377.936C907.602 377.531 907.862 377.145 908.162 376.784C908.466 376.429 908.8 376.091 909.155 375.781C909.511 375.472 909.887 375.18 910.275 374.91C910.471 374.773 910.668 374.643 910.871 374.517C911.077 374.389 911.274 374.271 911.503 374.152L911.839 375.017L911.841 375.012Z" fill="#390176"/>
<path d="M909.003 406.621C909.148 406.749 909.322 406.886 909.492 407.011C909.662 407.14 909.838 407.261 910.019 407.381C910.377 407.618 910.751 407.834 911.139 408.029C911.528 408.222 911.933 408.384 912.352 408.518C912.774 408.644 913.211 408.728 913.662 408.762C913.209 408.806 912.747 408.802 912.292 408.749C911.838 408.688 911.387 408.596 910.946 408.47C910.508 408.34 910.075 408.187 909.655 408.006C909.446 407.916 909.236 407.822 909.03 407.721C908.822 407.618 908.625 407.517 908.411 407.389L909.003 406.623V406.621Z" fill="#390176"/>
<path d="M936.403 379.498C936.124 379.08 935.822 378.66 935.515 378.249C935.209 377.837 934.892 377.434 934.562 377.042C934.235 376.647 933.891 376.265 933.526 375.904C933.158 375.545 932.778 375.195 932.327 374.933C932.818 375.124 933.259 375.417 933.687 375.722C934.113 376.028 934.52 376.36 934.913 376.706C935.307 377.05 935.692 377.407 936.065 377.772C936.441 378.14 936.806 378.509 937.167 378.899L936.401 379.498H936.403Z" fill="#390176"/>
</g>
</g>
</g>
<defs>
<radialGradient id="paint0_radial_769_36935" cx="0" cy="0" r="1" gradientUnits="userSpaceOnUse" gradientTransform="translate(6.93064e-05 449) rotate(-35.6049) scale(892.317 1103.29)">
<stop stop-color="#F530E4"/>
<stop offset="0.298236" stop-color="#7E1BFD"/>
<stop offset="0.631636" stop-color="#381573" stop-opacity="0.446602"/>
<stop offset="1" stop-color="#232047" stop-opacity="0"/>
</radialGradient>
<radialGradient id="paint1_radial_769_36935" cx="0" cy="0" r="1" gradientUnits="userSpaceOnUse" gradientTransform="translate(1133.92 551.952) rotate(-134.211) scale(318.271 617.039)">
<stop stop-color="#CA2EBD"/>
<stop offset="1" stop-color="#161136" stop-opacity="0"/>
</radialGradient>
<radialGradient id="paint2_radial_769_36935" cx="0" cy="0" r="1" gradientUnits="userSpaceOnUse" gradientTransform="translate(233.864 304.776) rotate(-45) scale(326.366 325.673)">
<stop stop-color="#F7752F"/>
<stop offset="1" stop-color="#321469" stop-opacity="0"/>
</radialGradient>
<linearGradient id="paint3_linear_769_36935" x1="494.15" y1="311.221" x2="1063.43" y2="311.221" gradientUnits="userSpaceOnUse">
<stop stop-color="#D9D9D9" stop-opacity="0"/>
<stop offset="0.639052" stop-color="#737373"/>
</linearGradient>
<linearGradient id="paint4_linear_769_36935" x1="1083.81" y1="233.832" x2="1083.81" y2="407.627" gradientUnits="userSpaceOnUse">
<stop stop-color="#1B0939"/>
<stop offset="1" stop-color="#4C199F"/>
</linearGradient>
<linearGradient id="paint5_linear_769_36935" x1="1130.11" y1="402.129" x2="1038.78" y2="369.992" gradientUnits="userSpaceOnUse">
<stop stop-color="#FAA185"/>
<stop offset="0.300609" stop-color="#FA825D" stop-opacity="0.55"/>
<stop offset="1" stop-color="#CA2EBD" stop-opacity="0"/>
</linearGradient>
<linearGradient id="paint6_linear_769_36935" x1="1133.92" y1="342.084" x2="1074.72" y2="246.095" gradientUnits="userSpaceOnUse">
<stop stop-color="#FAA185"/>
<stop offset="0.300609" stop-color="#FA825D" stop-opacity="0.55"/>
<stop offset="1" stop-color="#CA2EBD" stop-opacity="0"/>
</linearGradient>
<linearGradient id="paint7_linear_769_36935" x1="999.849" y1="183.089" x2="1127.21" y2="225.563" gradientUnits="userSpaceOnUse">
<stop stop-color="#F3E0FA"/>
<stop offset="0.329161" stop-color="#FF8642"/>
<stop offset="0.606741" stop-color="#CA36FE"/>
<stop offset="1" stop-color="#492CE1"/>
</linearGradient>
<linearGradient id="paint8_linear_769_36935" x1="611.774" y1="359.264" x2="597.236" y2="478.338" gradientUnits="userSpaceOnUse">
<stop stop-color="#291A87"/>
<stop offset="0.508576" stop-color="#FF8642"/>
<stop offset="1" stop-color="#D44ABE"/>
</linearGradient>
<linearGradient id="paint9_linear_769_36935" x1="707.642" y1="293.184" x2="606.502" y2="335.526" gradientUnits="userSpaceOnUse">
<stop stop-color="#F5DFC1"/>
<stop offset="0.508576" stop-color="#FF8642"/>
<stop offset="1" stop-color="#D44ABE"/>
</linearGradient>
<linearGradient id="paint10_linear_769_36935" x1="612.594" y1="343.189" x2="612.594" y2="423.519" gradientUnits="userSpaceOnUse">
<stop stop-color="#291A87"/>
<stop offset="0.508576" stop-color="#FF8642"/>
<stop offset="1" stop-color="#D44ABE"/>
</linearGradient>
<linearGradient id="paint11_linear_769_36935" x1="756.86" y1="317.779" x2="598.993" y2="417.947" gradientUnits="userSpaceOnUse">
<stop stop-color="#F3E0FA"/>
<stop offset="0.329161" stop-color="#FF8642"/>
<stop offset="0.606741" stop-color="#CA36FE"/>
<stop offset="1" stop-color="#492CE1"/>
</linearGradient>
<linearGradient id="paint12_linear_769_36935" x1="697.842" y1="234.17" x2="735.958" y2="273.925" gradientUnits="userSpaceOnUse">
<stop stop-color="#291A87"/>
<stop offset="1" stop-color="#D44ABE"/>
</linearGradient>
<linearGradient id="paint13_linear_769_36935" x1="634.726" y1="79.2476" x2="634.726" y2="237.858" gradientUnits="userSpaceOnUse">
<stop offset="0.0663438" stop-color="#291A87"/>
<stop offset="0.575691" stop-color="#FF8642"/>
<stop offset="1" stop-color="#D44ABE"/>
</linearGradient>
<linearGradient id="paint14_linear_769_36935" x1="772.024" y1="196.054" x2="643.742" y2="194.415" gradientUnits="userSpaceOnUse">
<stop stop-color="#F3E0FA"/>
<stop offset="0.329161" stop-color="#FF8642"/>
<stop offset="0.606741" stop-color="#CA36FE"/>
<stop offset="1" stop-color="#492CE1"/>
</linearGradient>
<linearGradient id="paint15_linear_769_36935" x1="772.024" y1="196.054" x2="643.742" y2="194.415" gradientUnits="userSpaceOnUse">
<stop stop-color="#F3E0FA"/>
<stop offset="0.329161" stop-color="#FF8642"/>
<stop offset="0.606741" stop-color="#CA36FE"/>
<stop offset="1" stop-color="#492CE1"/>
</linearGradient>
<clipPath id="clip0_769_36935">
<rect width="1120" height="449" fill="white" transform="translate(0 -0.984375)"/>
</clipPath>
<clipPath id="clip1_769_36935">
<rect width="631.984" height="453.291" fill="white" transform="translate(488 -2.98438)"/>
</clipPath>
<clipPath id="clip2_769_36935">
<rect width="275.952" height="370.514" fill="white" transform="translate(730.859 110.793)"/>
</clipPath>
</defs>
</svg>
