<svg width="358" height="1663" viewBox="0 0 358 1663" fill="none" xmlns="http://www.w3.org/2000/svg">
<mask id="mask0_1022_34215" style="mask-type:alpha" maskUnits="userSpaceOnUse" x="0" y="0" width="359" height="1663">
<rect x="0.000244141" width="358" height="1663" fill="url(#paint0_linear_1022_34215)"/>
</mask>
<g mask="url(#mask0_1022_34215)">
<path d="M4 163.899L354.422 163.899" stroke="#3C356D"/>
<path d="M1 245L356.999 245" stroke="#3C356D"/>
<path d="M1 326L357 326" stroke="#3C356D"/>
<path d="M26.624 142.085L331.832 142.085" stroke="#3C356D"/>
<path d="M45.3857 127.798L313.529 127.798" stroke="#3C356D"/>
<path d="M65.5184 112.083L293.395 112.083" stroke="#3C356D"/>
<path d="M75.1289 104.114L283.329 104.114" stroke="#3C356D"/>
<path d="M84.2792 77.3699H274.634" stroke="#3C356D"/>
<path d="M84.2792 31.3439H274.634" stroke="#3C356D"/>
<path d="M1 404.155V176.735C1 167.472 5.27813 158.73 12.5914 153.046L72.6886 106.344C80.0019 100.66 84.2801 91.9175 84.2801 82.6555V-202.469" stroke="#3C356D"/>
<path d="M357 470L357 176.635C357 167.429 352.774 158.734 345.535 153.046L286.1 106.344C278.861 100.656 274.635 91.9606 274.635 82.755V-202.469" stroke="#3C356D"/>
<path d="M89.6992 459.5L89.6992 170.757C89.6992 164.891 91.4189 159.153 94.6456 154.255L127.272 104.721C130.498 99.8227 132.218 94.0854 132.218 88.2194V-203.509" stroke="#3C356D"/>
<path d="M269.307 472L269.307 170.757C269.307 164.891 267.587 159.153 264.36 154.255L231.734 104.721C228.507 99.8227 226.788 94.0854 226.788 88.2194V-203.509" stroke="#3C356D"/>
<path d="M179.138 -202.818L179.138 190.98L179.138 496" stroke="#3C356D"/>
<path d="M1 1298L356.999 1298" stroke="#3C356D"/>
<path d="M1 893L356.999 893" stroke="#3C356D"/>
<path d="M1 1055L356.999 1055" stroke="#3C356D"/>
<path d="M1 731L356.999 731" stroke="#3C356D"/>
<path d="M1 488L356.999 488" stroke="#3C356D"/>
<path d="M1 1217L357 1217" stroke="#3C356D"/>
<path d="M1 1136L357 1136" stroke="#3C356D"/>
<path d="M1 812L357 812" stroke="#3C356D"/>
<path d="M1 569L357 569" stroke="#3C356D"/>
<path d="M1 974L357 974" stroke="#3C356D"/>
<path d="M1 650L357 650" stroke="#3C356D"/>
<path d="M1 407L357 407" stroke="#3C356D"/>
<path d="M26.624 1328.92L331.832 1328.92" stroke="#3C356D"/>
<path d="M45.3857 1343.2L313.529 1343.2" stroke="#3C356D"/>
<path d="M65.5186 1358.92L293.395 1358.92" stroke="#3C356D"/>
<path d="M75.1289 1366.89L283.329 1366.89" stroke="#3C356D"/>
<path d="M84.2793 1393.63H274.634" stroke="#3C356D"/>
<path d="M84.2793 1439.66H274.634" stroke="#3C356D"/>
<path d="M84.2793 1486.6H274.634" stroke="#3C356D"/>
<path d="M84.2793 1532.63H274.634" stroke="#3C356D"/>
<path d="M84.2793 1578.65H274.634" stroke="#3C356D"/>
<path d="M84.2793 1625.6H274.634" stroke="#3C356D"/>
<path d="M1 370.931L1 1294.27C1 1303.53 5.27816 1312.27 12.5915 1317.95L72.6886 1364.66C80.0019 1370.34 84.2801 1379.08 84.2801 1388.34V1673.47" stroke="#3C356D"/>
<path d="M357 437.669L357 1294.36C357 1303.57 352.774 1312.27 345.535 1317.95L286.1 1364.66C278.861 1370.34 274.635 1379.04 274.635 1388.24V1673.47" stroke="#3C356D"/>
<path d="M89.6992 431.225V1300.24C89.6992 1306.11 91.4189 1311.85 94.6456 1316.75L127.272 1366.28C130.498 1371.18 132.218 1376.91 132.218 1382.78V1674.51" stroke="#3C356D"/>
<path d="M269.307 426.162V1300.24C269.307 1306.11 267.587 1311.85 264.36 1316.75L231.734 1366.28C228.507 1371.18 226.788 1376.91 226.788 1382.78V1674.51" stroke="#3C356D"/>
<path d="M179.138 1673.82L179.138 1280.02L179.138 457.46" stroke="#3C356D"/>
</g>
<defs>
<linearGradient id="paint0_linear_1022_34215" x1="179" y1="-24.1198" x2="179" y2="1612.59" gradientUnits="userSpaceOnUse">
<stop stop-color="#D9D9D9" stop-opacity="0"/>
<stop offset="0.2" stop-color="#D9D9D9"/>
<stop offset="0.8" stop-color="#D9D9D9"/>
<stop offset="1" stop-color="#D9D9D9" stop-opacity="0"/>
</linearGradient>
</defs>
</svg>
