<svg width="358" height="650" viewBox="0 0 358 650" fill="none" xmlns="http://www.w3.org/2000/svg">
<mask id="mask0_1023_35984" style="mask-type:alpha" maskUnits="userSpaceOnUse" x="0" y="0" width="358" height="650">
<rect y="0.179199" width="358" height="649" fill="url(#paint0_linear_1023_35984)"/>
</mask>
<g mask="url(#mask0_1023_35984)">
<path d="M1 281.179L356.999 281.179" stroke="#3C356D"/>
<path d="M1 38.1792L356.999 38.1791" stroke="#3C356D"/>
<path d="M1 200.179L357 200.179" stroke="#3C356D"/>
<path d="M1 119.179L357 119.179" stroke="#3C356D"/>
<path d="M26.624 312.094L331.832 312.094" stroke="#3C356D"/>
<path d="M45.3857 326.38L313.529 326.38" stroke="#3C356D"/>
<path d="M65.5186 342.096L293.395 342.096" stroke="#3C356D"/>
<path d="M75.1289 350.064L283.329 350.064" stroke="#3C356D"/>
<path d="M84.2793 376.809H274.634" stroke="#3C356D"/>
<path d="M84.2793 422.835H274.634" stroke="#3C356D"/>
<path d="M84.2793 469.782H274.634" stroke="#3C356D"/>
<path d="M84.2793 515.808H274.634" stroke="#3C356D"/>
<path d="M84.2793 561.834H274.634" stroke="#3C356D"/>
<path d="M84.2793 608.78H274.634" stroke="#3C356D"/>
<path d="M1 -645.89L1 277.444C1 286.706 5.27816 295.449 12.5915 301.133L72.6886 347.835C80.0019 353.519 84.2801 362.261 84.2801 371.523V656.647" stroke="#3C356D"/>
<path d="M357 -579.152L357 277.544C357 286.75 352.774 295.446 345.535 301.133L286.1 347.835C278.861 353.522 274.635 362.218 274.635 371.424V656.647" stroke="#3C356D"/>
<path d="M89.6992 -585.596V283.422C89.6992 289.288 91.4189 295.026 94.6456 299.924L127.272 349.457C130.498 354.356 132.218 360.094 132.218 365.96V657.688" stroke="#3C356D"/>
<path d="M269.307 -590.659V283.422C269.307 289.288 267.587 295.026 264.36 299.924L231.734 349.457C228.507 354.356 226.788 360.094 226.788 365.96V657.688" stroke="#3C356D"/>
<path d="M179.138 656.997L179.138 263.199L179.138 -559.361" stroke="#3C356D"/>
</g>
<defs>
<linearGradient id="paint0_linear_1023_35984" x1="179" y1="-9.23378" x2="179" y2="629.507" gradientUnits="userSpaceOnUse">
<stop stop-color="#D9D9D9" stop-opacity="0"/>
<stop offset="0.2" stop-color="#D9D9D9"/>
<stop offset="0.8" stop-color="#D9D9D9"/>
<stop offset="1" stop-color="#D9D9D9" stop-opacity="0"/>
</linearGradient>
</defs>
</svg>
