<svg width="72" height="73" viewBox="0 0 72 73" fill="none" xmlns="http://www.w3.org/2000/svg">
<rect x="-0.000976562" y="0.5" width="72" height="72" rx="36" fill="#2D374B"/>
<path d="M40.3945 40.1474L38.0146 46.5193C37.9444 46.696 37.9444 46.8923 38.0146 47.069L42.1015 58.0358L46.8311 55.3652L41.1577 40.1474C41.027 39.794 40.525 39.794 40.3945 40.1474Z" fill="#28A0F0"/>
<path d="M45.1537 29.4262C45.0232 29.0728 44.5212 29.0728 44.3907 29.4262L42.0108 35.798C41.9404 35.9749 41.9404 36.1712 42.0108 36.3479L48.7084 54.305L53.4381 51.6344L45.1537 29.4262Z" fill="#28A0F0"/>
<path d="M36.749 15.4748C36.8695 15.4748 36.98 15.5043 37.0904 15.5632L55.1251 25.7444C55.336 25.8622 55.4665 26.0782 55.4665 26.3139V46.6763C55.4665 46.9119 55.336 47.1279 55.1251 47.2457L37.0904 57.4368C36.9901 57.4956 36.8695 57.5252 36.749 57.5252C36.6286 57.5252 36.518 57.4956 36.4076 57.4368L18.383 47.2556C18.1722 47.1377 18.0416 46.9217 18.0416 46.6862V26.3139C18.0416 26.0782 18.1722 25.8622 18.383 25.7444L36.4177 15.5632C36.518 15.5043 36.6386 15.4748 36.749 15.4748ZM36.749 12.5C36.1064 12.5 35.4637 12.6669 34.8913 12.9909L16.8567 23.1721C15.712 23.8201 14.999 25.0179 14.999 26.3139L14.999 46.6763C14.999 47.9723 15.712 49.18 16.8567 49.8279L34.8913 60.0091C35.4637 60.333 36.1064 60.5 36.749 60.5C37.3916 60.5 38.0344 60.333 38.6068 60.0091L56.6413 49.8279C57.7961 49.18 58.499 47.9821 58.499 46.6763V26.3139C58.499 25.0179 57.7861 23.8103 56.6413 23.1623L38.6168 12.9909C38.0344 12.6669 37.3916 12.5 36.749 12.5Z" fill="#96BEDC"/>
<path d="M35.2322 24.8607H30.6634C30.322 24.8607 30.0106 25.0669 29.9002 25.3811L20.0996 51.6539L24.8292 54.3243L35.6239 25.3909C35.7142 25.1356 35.5234 24.8607 35.2322 24.8607Z" fill="white"/>
<path d="M43.2344 24.8607H38.6656C38.3242 24.8607 38.0128 25.0669 37.9024 25.3811L26.7061 55.3847L31.4356 58.0553L43.616 25.4007C43.7164 25.1356 43.5157 24.8607 43.2344 24.8607Z" fill="white"/>
</svg>
