<svg width="25" height="24" viewBox="0 0 25 24" fill="none" xmlns="http://www.w3.org/2000/svg">
<path d="M10.333 14.5H10.3324C10.3324 13.9944 10.3743 14.2272 7.67457 8.82781C7.12301 7.725 5.54363 7.72281 4.99113 8.82781C2.26863 14.2734 2.33363 14.0103 2.33363 14.5H2.33301C2.33301 15.8806 4.12395 17 6.33301 17C8.54207 17 10.333 15.8806 10.333 14.5ZM6.33301 9.5L8.58301 14H4.08301L6.33301 9.5ZM22.3324 14.5C22.3324 13.9944 22.3743 14.2272 19.6746 8.82781C19.123 7.725 17.5436 7.72281 16.9911 8.82781C14.2686 14.2734 14.3336 14.0103 14.3336 14.5H14.333C14.333 15.8806 16.1239 17 18.333 17C20.5421 17 22.333 15.8806 22.333 14.5H22.3324ZM16.083 14L18.333 9.5L20.583 14H16.083ZM18.833 18H13.333V8.78906C14.0677 8.4675 14.6193 7.80531 14.7827 7H18.833C19.1093 7 19.333 6.77625 19.333 6.5V5.5C19.333 5.22375 19.1093 5 18.833 5H14.3218C13.8655 4.39625 13.1483 4 12.333 4C11.5177 4 10.8005 4.39625 10.3443 5H5.83301C5.55676 5 5.33301 5.22375 5.33301 5.5V6.5C5.33301 6.77625 5.55676 7 5.83301 7H9.88332C10.0468 7.805 10.598 8.4675 11.333 8.78906V18H5.83301C5.55676 18 5.33301 18.2238 5.33301 18.5V19.5C5.33301 19.7762 5.55676 20 5.83301 20H18.833C19.1093 20 19.333 19.7762 19.333 19.5V18.5C19.333 18.2238 19.1093 18 18.833 18Z" fill="#D44ABE"/>
</svg>
