<svg width="24" height="24" viewBox="0 0 24 24" fill="none" xmlns="http://www.w3.org/2000/svg">
<path d="M7.5 22.0005C6.53333 22.0005 5.70833 21.6588 5.025 20.9755C4.34167 20.2922 4 19.4672 4 18.5005V5.50049C4 4.53382 4.34167 3.70882 5.025 3.02549C5.70833 2.34215 6.53333 2.00049 7.5 2.00049H19.5C19.7761 2.00049 20 2.22435 20 2.50049V16.7005C20 16.8662 19.8645 16.9968 19.7016 17.0274C19.4116 17.0818 19.1569 17.2186 18.9375 17.438C18.6458 17.7297 18.5 18.0838 18.5 18.5005C18.5 18.9172 18.6458 19.2713 18.9375 19.563C19.1569 19.7823 19.4116 19.9192 19.7016 19.9736C19.8645 20.0041 20 20.1348 20 20.3005V21.5005C20 21.7766 19.7761 22.0005 19.5 22.0005H7.5ZM8 14.6005C8 14.8214 8.17909 15.0005 8.4 15.0005H9.6C9.82091 15.0005 10 14.8214 10 14.6005V4.40049C10 4.17957 9.82091 4.00049 9.6 4.00049H8.4C8.17909 4.00049 8 4.17957 8 4.40049V14.6005ZM7.5 20.0005H16.825C16.725 19.7672 16.6458 19.5297 16.5875 19.288C16.5292 19.0463 16.5 18.7838 16.5 18.5005C16.5 18.2338 16.525 17.9755 16.575 17.7255C16.625 17.4755 16.7083 17.2338 16.825 17.0005H7.5C7.06667 17.0005 6.70833 17.1463 6.425 17.438C6.14167 17.7297 6 18.0838 6 18.5005C6 18.9338 6.14167 19.2922 6.425 19.5755C6.70833 19.8588 7.06667 20.0005 7.5 20.0005Z" fill="#E8722F"/>
</svg>
