<svg width="25" height="24" viewBox="0 0 25 24" fill="none" xmlns="http://www.w3.org/2000/svg">
<path d="M12.5 20.6135C11.7727 20.0377 10.9848 19.5908 10.1364 19.2726C9.28788 18.9544 8.40909 18.7953 7.5 18.7953C6.86364 18.7953 6.23864 18.8787 5.625 19.0453C5.01136 19.212 4.42424 19.4468 3.86364 19.7499C3.54545 19.9165 3.23864 19.909 2.94318 19.7271C2.64773 19.5453 2.5 19.2802 2.5 18.9317V7.97714C2.5 7.81047 2.54167 7.65138 2.625 7.49987C2.70833 7.34835 2.83333 7.23472 3 7.15896C3.69697 6.79532 4.42424 6.52259 5.18182 6.34078C5.93939 6.15896 6.71212 6.06805 7.5 6.06805C8.37879 6.06805 9.23864 6.18168 10.0795 6.40896C10.9205 6.63623 11.7273 6.97714 12.5 7.43168V18.4317C13.2727 17.9468 14.0833 17.5832 14.9318 17.3408C15.7803 17.0984 16.6364 16.9771 17.5 16.9771C18.0455 16.9771 18.5795 17.0226 19.1023 17.1135C19.625 17.2044 20.1515 17.3408 20.6818 17.5226V6.6135C20.9091 6.68926 21.1326 6.76881 21.3523 6.85214C21.572 6.93547 21.7879 7.03775 22 7.15896C22.1667 7.23472 22.2917 7.34835 22.375 7.49987C22.4583 7.65138 22.5 7.81047 22.5 7.97714V18.9317C22.5 19.2802 22.3523 19.5453 22.0568 19.7271C21.7614 19.909 21.4545 19.9165 21.1364 19.7499C20.5758 19.4468 19.9886 19.212 19.375 19.0453C18.7614 18.8787 18.1364 18.7953 17.5 18.7953C16.5909 18.7953 15.7121 18.9544 14.8636 19.2726C14.0152 19.5908 13.2273 20.0377 12.5 20.6135ZM14.3182 16.068V7.43168L18.8636 2.88623V11.9771L14.3182 16.068Z" fill="#5AB6E9"/>
</svg>
