<svg width="24" height="24" viewBox="0 0 24 24" fill="none" xmlns="http://www.w3.org/2000/svg">
<path fill-rule="evenodd" clip-rule="evenodd" d="M12 1.99999C11.2086 2.01126 10.4538 2.33474 9.89995 2.89999L8.99995 3.79999C8.81532 3.9884 8.56372 4.09623 8.29995 4.09999H6.99995C6.2043 4.09999 5.44124 4.41606 4.87863 4.97867C4.31602 5.54127 3.99995 6.30434 3.99995 7.09999V8.29999C3.99995 8.59999 3.99995 8.79999 3.79995 8.99999L2.79995 9.89998C2.25027 10.4608 1.94238 11.2147 1.94238 12C1.94238 12.7852 2.25027 13.5392 2.79995 14.1L3.79995 15C3.99995 15.2 4.09995 15.4 4.09995 15.7V17C4.09995 17.7956 4.41602 18.5587 4.97863 19.1213C5.54124 19.6839 6.3043 20 7.09995 20H8.29995C8.59995 20 8.79995 20 8.99995 20.2L9.89995 21.2C10.4607 21.7497 11.2147 22.0576 12 22.0576C12.7852 22.0576 13.5392 21.7497 14.1 21.2L15 20.2C15.2 20 15.4 19.9 15.7 19.9H17C17.7956 19.9 18.5587 19.5839 19.1213 19.0213C19.6839 18.4587 20 17.6956 20 16.9V15.7C20 15.4 20 15.2 20.2 15L21.2 14.1C21.7496 13.5392 22.0575 12.7852 22.0575 12C22.0575 11.2147 21.7496 10.4608 21.2 9.89998L20.2 8.99999C20.0115 8.81535 19.9037 8.56375 19.9 8.29999V6.99999C19.9 6.20434 19.5839 5.44127 19.0213 4.87867C18.4587 4.31606 17.6956 3.99999 16.9 3.99999H15.7C15.4498 4.02364 15.1999 3.95224 15 3.79999L14.1 2.79999C13.53 2.27131 12.7772 1.9845 12 1.99999ZM15.7 9.69999C15.8146 9.61402 15.9094 9.50443 15.978 9.37864C16.0465 9.25285 16.0873 9.11379 16.0974 8.97087C16.1076 8.82796 16.0869 8.68454 16.0368 8.55031C15.9867 8.41608 15.9084 8.29419 15.8071 8.19288C15.7058 8.09157 15.5839 8.01321 15.4496 7.96311C15.3154 7.91302 15.172 7.89234 15.0291 7.9025C14.8862 7.91266 14.7471 7.9534 14.6213 8.02198C14.4955 8.09056 14.3859 8.18537 14.3 8.29999L9.99995 12.6L8.69995 11.3C8.50738 11.1556 8.26917 11.0854 8.02907 11.1025C7.78896 11.1196 7.56306 11.2227 7.39285 11.3929C7.22264 11.5631 7.11953 11.789 7.10247 12.0291C7.08541 12.2692 7.15553 12.5074 7.29995 12.7L9.29995 14.7C9.69995 15.1 10.3 15.1 10.7 14.7L15.7 9.69999Z" fill="#F9F8F7" fill-opacity="0.2"/>
</svg>
