<svg width="24" height="24" viewBox="0 0 24 24" fill="none" xmlns="http://www.w3.org/2000/svg">
<path d="M18.9225 5.6476C17.6558 5.05711 16.2844 4.62853 14.8557 4.3809C14.8432 4.3805 14.8308 4.38285 14.8192 4.38779C14.8077 4.39273 14.7974 4.40013 14.7891 4.40948C14.6176 4.72377 14.4176 5.1333 14.2843 5.4476C12.769 5.21902 11.228 5.21902 9.71275 5.4476C9.57941 5.12378 9.37941 4.72377 9.19845 4.40948C9.18893 4.39043 9.16035 4.3809 9.13178 4.3809C7.70317 4.62853 6.34123 5.05711 5.065 5.6476C5.05548 5.6476 5.04595 5.65713 5.03643 5.66665C2.44588 9.54295 1.73158 13.3145 2.08397 17.0479C2.08397 17.067 2.09349 17.086 2.11254 17.0955C3.82687 18.3527 5.47454 19.1146 7.10315 19.6194C7.13173 19.6289 7.1603 19.6194 7.16982 19.6004C7.55078 19.0765 7.89365 18.5241 8.1889 17.9432C8.20795 17.9051 8.1889 17.867 8.1508 17.8575C7.60793 17.6479 7.09363 17.4003 6.58885 17.1146C6.55076 17.0955 6.55076 17.0384 6.57933 17.0098C6.68409 16.9336 6.78886 16.8479 6.89362 16.7717C6.91267 16.7527 6.94124 16.7527 6.96029 16.7622C10.2366 18.2575 13.77 18.2575 17.0082 16.7622C17.0272 16.7527 17.0558 16.7527 17.0749 16.7717C17.1796 16.8574 17.2844 16.9336 17.3891 17.0193C17.4272 17.0479 17.4272 17.1051 17.3796 17.1241C16.8844 17.4194 16.3605 17.6575 15.8177 17.867C15.7796 17.8765 15.7701 17.9241 15.7796 17.9527C16.0844 18.5337 16.4272 19.0861 16.7987 19.6099C16.8272 19.6194 16.8558 19.6289 16.8844 19.6194C18.5225 19.1146 20.1702 18.3527 21.8845 17.0955C21.9036 17.086 21.9131 17.067 21.9131 17.0479C22.3321 12.7335 21.2178 8.99055 18.9606 5.66665C18.9511 5.65713 18.9416 5.6476 18.9225 5.6476ZM8.68415 14.7717C7.70317 14.7717 6.8841 13.8669 6.8841 12.7526C6.8841 11.6382 7.68412 10.7335 8.68415 10.7335C9.6937 10.7335 10.4937 11.6478 10.4842 12.7526C10.4842 13.8669 9.68418 14.7717 8.68415 14.7717ZM15.3224 14.7717C14.3414 14.7717 13.5224 13.8669 13.5224 12.7526C13.5224 11.6382 14.3224 10.7335 15.3224 10.7335C16.332 10.7335 17.132 11.6478 17.1225 12.7526C17.1225 13.8669 16.332 14.7717 15.3224 14.7717Z" fill="#E8722F"/>
</svg>
