<svg width="24" height="24" viewBox="0 0 24 24" fill="none" xmlns="http://www.w3.org/2000/svg">
<path d="M7.8 8.15C7.8 8.06716 7.73284 8 7.65 8H4C2.9 8 2 8.9 2 10V16C2 17.1 2.9 18 4 18H5V20.0343C5 20.3907 5.43086 20.5691 5.68284 20.3172L8 18H13C14.1 18 15 17.1 15 16V14.3306C15 14.2475 14.9349 14.1803 14.8518 14.1806C14.3371 14.1827 12.5615 14.1899 10.8 14.1952C9.14315 14.2001 7.8 12.8579 7.8 11.201V8.15ZM20 3H11C9.9 3 9 3.9 9 5V11C9 12.1046 9.89543 13 11 13H16L18.3172 15.3172C18.5691 15.5691 19 15.3907 19 15.0343V13H20C21.1 13 22 12.101 22 11V5C22 3.9 21.1 3 20 3Z" fill="#F7F7F7"/>
</svg>
