<svg width="72" height="73" viewBox="0 0 72 73" fill="none" xmlns="http://www.w3.org/2000/svg">
<rect y="0.5" width="72" height="72" rx="36" fill="#E6007A"/>
<path d="M36.5788 19.6024C42.4647 19.6024 47.2362 16.8362 47.2362 13.424C47.2362 10.0117 42.4647 7.24551 36.5788 7.24551C30.6929 7.24551 25.9214 10.0117 25.9214 13.424C25.9214 16.8362 30.6929 19.6024 36.5788 19.6024Z" fill="white"/>
<path d="M36.5788 66.1559C42.4647 66.1559 47.2362 63.3898 47.2362 59.9775C47.2362 56.5652 42.4647 53.799 36.5788 53.799C30.6929 53.799 25.9214 56.5652 25.9214 59.9775C25.9214 63.3898 30.6929 66.1559 36.5788 66.1559Z" fill="white"/>
<path d="M21.7277 28.1549C24.6706 23.0741 24.6515 17.5712 21.685 15.8639C18.7185 14.1566 13.9279 16.8914 10.9849 21.9723C8.04199 27.0532 8.06109 32.5561 11.0276 34.2634C13.9941 35.9707 18.7847 33.2358 21.7277 28.1549Z" fill="white"/>
<path d="M62.1691 51.429C65.1121 46.3481 65.0946 40.8461 62.1301 39.14C59.1656 37.4338 54.3766 40.1696 51.4337 45.2505C48.4907 50.3314 48.5082 55.8333 51.4727 57.5395C54.4372 59.2456 59.2262 56.5098 62.1691 51.429Z" fill="white"/>
<path d="M21.686 57.5381C24.6525 55.8308 24.6716 50.3279 21.7286 45.247C18.7857 40.1661 13.9951 37.4313 11.0286 39.1386C8.06206 40.8459 8.04296 46.3488 10.9859 51.4296C13.9289 56.5105 18.7194 59.2454 21.686 57.5381Z" fill="white"/>
<path d="M62.1325 34.2645C65.097 32.5584 65.1145 27.0564 62.1716 21.9756C59.2286 16.8947 54.4397 14.1589 51.4751 15.8651C48.5106 17.5712 48.4932 23.0731 51.4361 28.154C54.3791 33.2349 59.168 35.9707 62.1325 34.2645Z" fill="white"/>
</svg>
