<svg width="70" height="70" viewBox="0 0 70 70" fill="none" xmlns="http://www.w3.org/2000/svg">
<rect width="70" height="70" rx="35" fill="#24201F"/>
<path d="M12.8072 41.0405C11.6981 39.9311 10.9543 38.6502 10.5757 37.1974C10.206 35.7357 10.206 34.2742 10.5757 32.8128C10.9543 31.3424 11.6937 30.0569 12.794 28.9563C13.912 27.8382 15.2016 27.0942 16.6628 26.7244C18.1241 26.3546 19.5853 26.3546 21.0466 26.7244C22.5078 27.0942 23.793 27.8338 24.9022 28.9431L27.6486 31.6901L31.7154 27.6225L28.969 24.8755C27.8599 23.7661 27.116 22.485 26.7375 21.0323C26.3678 19.5708 26.3634 18.1136 26.7243 16.6609C27.0941 15.1993 27.8379 13.9095 28.9558 12.7913C30.065 11.682 31.3501 10.9424 32.8114 10.5726C34.2726 10.2028 35.7296 10.2072 37.1819 10.5858C38.6432 10.9556 39.9284 11.6952 41.0377 12.8046C42.1467 13.9139 42.8861 15.1993 43.2559 16.6609C43.6344 18.1136 43.6387 19.5708 43.2689 21.0323C42.9082 22.5027 42.1731 23.7925 41.0639 24.9019L38.3306 27.6357L42.3845 31.6901L45.1176 28.9563C46.2268 27.847 47.5075 27.103 48.9601 26.7244C50.4213 26.3546 51.878 26.359 53.3306 26.7376C54.7919 27.1074 56.0815 27.8514 57.1994 28.9696C58.3084 30.0789 59.048 31.3643 59.4176 32.826C59.7961 34.2786 59.7961 35.7313 59.4176 37.1841C59.048 38.6456 58.3084 39.9311 57.1994 41.0405C56.0815 42.1586 54.7919 42.9025 53.3306 43.2724C51.878 43.6335 50.4213 43.6289 48.9601 43.2591C47.5164 42.8893 46.24 42.1499 45.1308 41.0405L42.3975 38.3066L38.3306 42.3743L41.0639 45.1082C42.1731 46.2176 42.9082 47.4985 43.2689 48.9513C43.6387 50.4128 43.6387 51.8744 43.2689 53.3359C42.8993 54.7974 42.1556 56.0874 41.0377 57.2055C39.9373 58.306 38.6521 59.0456 37.1819 59.4241C35.7207 59.7939 34.2594 59.7939 32.7982 59.4241C31.3545 59.0545 30.0781 58.3149 28.969 57.2055C27.851 56.0874 27.1029 54.8019 26.7243 53.3491C26.3546 51.8877 26.3546 50.426 26.7243 48.9645C27.1117 47.5031 27.8555 46.2219 28.9558 45.1214L31.7154 42.3611L27.6618 38.3066L24.9022 41.0669C23.8018 42.1675 22.5122 42.9025 21.0334 43.2724C19.5721 43.6422 18.1109 43.6422 16.6496 43.2724C15.1972 42.8939 13.9164 42.1499 12.8072 41.0405ZM16.1082 37.7389C16.61 38.2407 17.191 38.5752 17.8512 38.7425C18.5202 38.9185 19.1848 38.9231 19.845 38.7557C20.5052 38.5884 21.0862 38.2539 21.5879 37.7521L24.3476 34.9917L21.6011 32.2448C21.0994 31.743 20.514 31.4128 19.845 31.2544C19.1848 31.087 18.5246 31.087 17.8644 31.2544C17.2042 31.4215 16.6188 31.7605 16.1082 32.2713C15.6065 32.7731 15.2676 33.3497 15.0915 34.0013C14.9243 34.6616 14.9243 35.3221 15.0915 35.9824C15.2676 36.6515 15.6065 37.237 16.1082 37.7389ZM32.2701 21.5738L35.0164 24.3208L37.7497 21.587C38.2604 21.0763 38.5949 20.4952 38.7533 19.8437C38.9205 19.1834 38.9161 18.5186 38.7401 17.8495C38.5728 17.1892 38.2383 16.6081 37.7365 16.1062C37.2348 15.6044 36.6539 15.2698 35.9936 15.1025C35.3333 14.9352 34.6732 14.9352 34.013 15.1025C33.3615 15.261 32.7806 15.5955 32.2701 16.1062C31.7683 16.6081 31.4249 17.1892 31.2402 17.8495C31.0729 18.5098 31.0729 19.1702 31.2402 19.8305C31.4249 20.4908 31.7683 21.0719 32.2701 21.5738ZM44.9252 35.005L47.6585 37.7389C48.1603 38.2407 48.7369 38.5797 49.3883 38.7557C50.0484 38.9231 51.4776 38.9185 52.1291 38.7425C52.7891 38.5752 53.3746 38.2363 53.8851 37.7256C54.3956 37.2149 54.7301 36.6338 54.8886 35.9824C55.0648 35.3308 55.0691 34.6748 54.9018 34.0145C54.7347 33.3542 54.4002 32.7731 53.8983 32.2713C53.3878 31.7605 52.8023 31.4215 52.1423 31.2544C51.482 31.087 50.0484 31.087 49.3883 31.2544C48.7456 31.4215 48.169 31.7605 47.6585 32.2713L44.9252 35.005ZM32.2701 53.9038C32.7717 54.4057 33.3529 54.7402 34.013 54.9075C34.6732 55.0748 35.329 55.0703 35.9804 54.8943C36.6407 54.7269 37.2216 54.3925 37.7232 53.8906C38.2339 53.3799 38.5728 52.7944 38.7401 52.1341C38.9161 51.4825 38.9205 50.8266 38.7533 50.1663C38.5949 49.4971 38.2647 48.9116 37.7629 48.4098L35.0296 45.6761L32.2701 48.4363C31.7683 48.9381 31.4295 49.5147 31.2532 50.1663C31.0861 50.8266 31.0861 51.4871 31.2532 52.1474C31.4206 52.8076 31.7596 53.3931 32.2701 53.9038ZM30.9628 35.005L35.0164 39.0594L39.0833 34.9917L35.0296 30.9373L30.9628 35.005Z" fill="#F1E1D4"/>
</svg>
