<svg width="24" height="25" viewBox="0 0 24 25" fill="none" xmlns="http://www.w3.org/2000/svg">
<path d="M17.5 8.58122C17.5 10.0147 17.0434 11.9047 14.9084 12.7678C14.7894 12.8159 14.6748 12.6964 14.7193 12.5759C15.3098 10.978 15.3701 9.38543 14.9 7.88122C14.2 5.78122 11.9 4.18122 10.3 3.28122C9.9 2.98122 9.2 3.38122 9.3 3.98122C9.3 5.08122 9 6.68122 7.3 8.38122C5.1 10.5812 4 12.8812 4 15.0812C4 17.8923 5.8793 21.3612 9.6379 21.5712C9.77133 21.5787 9.83739 21.4162 9.7464 21.3183C6.73519 18.0796 8.22149 15.2163 8.80293 14.3491C8.87503 14.2415 9.02883 14.2867 9.04951 14.4145C9.95959 20.0417 14.0382 21.5812 16 21.5812C17.7 21.5812 21 20.3812 21 15.1812C21 12.0812 19.7 9.68122 18.6 8.28122C18.3 7.78122 17.6 8.08122 17.5 8.58122Z" fill="#CA2EBD"/>
</svg>
