<svg width="14" height="14" viewBox="0 0 14 14" fill="none" xmlns="http://www.w3.org/2000/svg">
<path d="M12.229 3.912H10.6879C10.9084 3.59742 11.031 3.22678 11.0408 2.84514C11.0496 2.55441 10.9977 2.26499 10.8882 1.99465C10.7788 1.72431 10.6142 1.47876 10.4045 1.27309C10.1948 1.06742 9.94438 0.905976 9.66872 0.798666C9.39305 0.691357 9.09793 0.640452 8.80148 0.649079C8.52766 0.65481 8.25801 0.715998 8.00945 0.828801C7.7609 0.941605 7.53881 1.10359 7.35713 1.30458C7.22313 1.45448 7.10378 1.6164 7.00065 1.78819C6.89752 1.6164 6.77817 1.45448 6.64417 1.30458C6.46249 1.10359 6.2404 0.941605 5.99185 0.828801C5.74329 0.715998 5.47364 0.65481 5.19983 0.649079C4.90337 0.640452 4.60825 0.691357 4.33259 0.798666C4.05692 0.905976 3.80654 1.06742 3.59683 1.27309C3.38711 1.47876 3.22248 1.72431 3.11306 1.99465C3.00364 2.26499 2.95173 2.55441 2.96053 2.84514C2.97031 3.22678 3.09291 3.59742 3.31344 3.912H1.77226C1.45711 3.912 1.15487 4.03478 0.932021 4.25332C0.709177 4.47186 0.583984 4.76827 0.583984 5.07733V6.94186C0.583928 7.2105 0.678519 7.47092 0.851748 7.67903C1.02498 7.88713 1.2662 8.03016 1.5346 8.08388V11.6032C1.5346 11.9122 1.65979 12.2087 1.88264 12.4272C2.10548 12.6457 2.40772 12.7685 2.72287 12.7685H11.2784C11.5936 12.7685 11.8958 12.6457 12.1187 12.4272C12.3415 12.2087 12.4667 11.9122 12.4667 11.6032V8.08388C12.7351 8.03016 12.9763 7.88713 13.1496 7.67903C13.3228 7.47092 13.4174 7.2105 13.4173 6.94186V5.07733C13.4173 4.76827 13.2921 4.47186 13.0693 4.25332C12.8464 4.03478 12.5442 3.912 12.229 3.912ZM11.9914 6.70879H7.71361V5.3104H11.9914V6.70879ZM8.42658 2.23218C8.47917 2.17493 8.54326 2.12898 8.61484 2.09719C8.68641 2.0654 8.76391 2.04848 8.84247 2.04747H8.86327C8.96381 2.0472 9.06338 2.06675 9.15607 2.10498C9.24875 2.1432 9.33264 2.19932 9.40276 2.26999C9.47288 2.34065 9.52779 2.42443 9.56423 2.51633C9.60066 2.60823 9.61788 2.70638 9.61485 2.80494C9.61383 2.88198 9.59657 2.95799 9.56416 3.02818C9.53174 3.09837 9.48488 3.16123 9.42651 3.2128C9.01655 3.5694 8.34221 3.75235 7.78491 3.83975C7.87403 3.29554 8.06059 2.63422 8.42658 2.23218ZM4.60628 2.26306C4.74732 2.12624 4.93728 2.04887 5.13566 2.04747H5.15883C5.23739 2.04848 5.31489 2.0654 5.38647 2.09719C5.45804 2.12898 5.52213 2.17493 5.57473 2.23218C5.93834 2.63422 6.1249 3.29496 6.21342 3.84092C5.66087 3.75293 4.98059 3.56998 4.57479 3.2128C4.51642 3.16123 4.46956 3.09837 4.43715 3.02818C4.40473 2.95799 4.38748 2.88198 4.38645 2.80494C4.38383 2.70473 4.40195 2.60504 4.43974 2.5119C4.47752 2.41876 4.53418 2.33411 4.60628 2.26306ZM2.00991 5.3104H6.28769V6.70879H2.00991V5.3104ZM2.96053 8.10719H6.28769V11.3701H2.96053V8.10719ZM7.71361 11.3701V8.10719H11.0408V11.3701H7.71361Z" fill="#02345E"/>
</svg>
