<svg width="25" height="24" viewBox="0 0 25 24" fill="none" xmlns="http://www.w3.org/2000/svg">
<path d="M3.66602 11.5C3.66602 9.567 5.23302 8 7.16602 8C8.36952 8 9.18561 8.4338 9.86516 9.11336C10.5915 9.8397 11.1511 10.8322 11.7918 11.9856L11.8255 12.0462C12.4265 13.1283 13.1091 14.3573 14.0526 15.3009C15.0606 16.3088 16.3695 17 18.166 17C21.2036 17 23.666 14.5376 23.666 11.5C23.666 8.46243 21.2036 6 18.166 6C16.6439 6 15.2663 6.61827 14.2705 7.61737C14.1102 7.77813 14.098 8.02965 14.2214 8.2202C14.4791 8.61853 14.7088 9.00979 14.9139 9.37176C15.0098 9.54093 15.2567 9.54407 15.374 9.38906C16.0131 8.54518 17.0258 8 18.166 8C20.099 8 21.666 9.567 21.666 11.5C21.666 13.433 20.099 15 18.166 15C16.9625 15 16.1464 14.5662 15.4669 13.8866C14.7405 13.1603 14.1809 12.1678 13.5402 11.0144L13.5065 10.9538C12.9055 9.8717 12.2229 8.64265 11.2794 7.69914C10.2714 6.6912 8.96252 6 7.16602 6C4.12845 6 1.66602 8.46243 1.66602 11.5C1.66602 14.5376 4.12845 17 7.16602 17C8.68809 17 10.0658 16.3817 11.0616 15.3826C11.2218 15.2218 11.234 14.9703 11.1107 14.7798C10.8529 14.3815 10.6233 13.9902 10.4182 13.6282C10.3223 13.4591 10.0754 13.4559 9.95803 13.6109C9.319 14.4548 8.30618 15 7.16602 15C5.23302 15 3.66602 13.433 3.66602 11.5Z" fill="#D44ABE"/>
</svg>
