<svg width="15" height="15" viewBox="0 0 15 15" fill="none" xmlns="http://www.w3.org/2000/svg">
<path d="M6.875 4.625C6.875 4.48693 6.98693 4.375 7.125 4.375H7.875C8.01307 4.375 8.125 4.48693 8.125 4.625V5.375C8.125 5.51307 8.01307 5.625 7.875 5.625H7.125C6.98693 5.625 6.875 5.51307 6.875 5.375V4.625ZM6.875 7.125C6.875 6.98693 6.98693 6.875 7.125 6.875H7.875C8.01307 6.875 8.125 6.98693 8.125 7.125V10.375C8.125 10.5131 8.01307 10.625 7.875 10.625H7.125C6.98693 10.625 6.875 10.5131 6.875 10.375V7.125ZM7.5 1.25C4.05 1.25 1.25 4.05 1.25 7.5C1.25 10.95 4.05 13.75 7.5 13.75C10.95 13.75 13.75 10.95 13.75 7.5C13.75 4.05 10.95 1.25 7.5 1.25ZM7.5 12.5C4.74375 12.5 2.5 10.2562 2.5 7.5C2.5 4.74375 4.74375 2.5 7.5 2.5C10.2562 2.5 12.5 4.74375 12.5 7.5C12.5 10.2562 10.2562 12.5 7.5 12.5Z" fill="#F7F7F7"/>
</svg>
