<svg width="72" height="73" viewBox="0 0 72 73" fill="none" xmlns="http://www.w3.org/2000/svg">
<rect y="0.5" width="72" height="72" rx="36" fill="url(#paint0_linear_1721_669)"/>
<path d="M18.855 21.6821C19.1292 21.344 19.4197 21.0188 19.7103 20.6937C19.7234 20.6775 19.7528 20.6743 19.7659 20.6581C19.792 20.626 19.8346 20.6066 19.8607 20.5745L19.8868 20.5421C20.0893 20.3585 20.3049 20.1587 20.5534 19.9847C21.4327 19.3302 22.3452 18.8331 23.3075 18.5056C26.3936 17.4433 29.8292 18.0982 32.5231 20.592C36.285 24.0493 35.9481 29.6189 32.9453 33.3207C29.1504 38.8394 22.6295 46.5391 31.6584 53.4362C33.2819 54.6763 34.4862 55.6987 39.5999 57.1477C36.2553 57.7521 33.1544 57.5639 29.7027 56.6995C27.261 55.3483 23.4224 52.4552 22.1164 48.5474C20.1425 42.6216 25.5915 33.7631 28.2249 30.3511C31.8407 25.6294 25.9902 20.5178 21.683 26.2244C19.4315 29.1985 15.4927 37.6139 16.8615 43.8561C17.6618 47.396 18.7286 49.9763 22.9584 53.5207C22.174 53.067 21.4123 52.552 20.6734 51.9762C10.8459 43.0005 11.9861 29.1217 18.855 21.6821Z" fill="white"/>
<path d="M51.7835 50.4255C51.5164 50.7694 51.2332 51.1001 50.9499 51.4307C50.9374 51.4472 50.9084 51.4505 50.8959 51.4666C50.8704 51.4996 50.8289 51.5193 50.8035 51.5519L50.7781 51.5849C50.5808 51.7716 50.3706 51.9745 50.1286 52.1517C49.2716 52.8173 48.3827 53.3229 47.4452 53.6556C44.4379 54.7362 41.0908 54.0702 38.4656 51.5342C34.8006 48.0183 35.1288 42.3543 38.0547 38.5894C41.7519 32.9775 48.1056 25.1473 39.3082 18.1333C37.7264 16.8722 36.553 15.8321 31.5703 14.3587C34.8292 13.7443 37.8506 13.9354 41.2138 14.8145C43.5928 16.1887 47.3332 19.1309 48.6057 23.1049C50.529 29.1312 45.2197 38.1398 42.6537 41.6093C39.1309 46.4113 44.8312 51.6092 49.0279 45.8063C51.2216 42.7818 55.0595 34.2237 53.7258 27.8757C52.946 24.2758 51.9064 21.6518 47.7853 18.0473C48.5494 18.5088 49.2915 19.0321 50.0115 19.618C59.587 28.7459 58.4761 42.8598 51.7835 50.4255Z" fill="white"/>
<defs>
<linearGradient id="paint0_linear_1721_669" x1="36" y1="0.5" x2="36" y2="72.5" gradientUnits="userSpaceOnUse">
<stop stop-color="#38BDF6"/>
<stop offset="1" stop-color="#3144F0"/>
</linearGradient>
</defs>
</svg>
