<svg width="24" height="24" viewBox="0 0 24 24" fill="none" xmlns="http://www.w3.org/2000/svg">
<rect width="24" height="24" rx="6" fill="#742968"/>
<rect x="0.5" y="0.5" width="23" height="23" rx="5.5" stroke="#F9F8F7" stroke-opacity="0.2"/>
<path fill-rule="evenodd" clip-rule="evenodd" d="M11.9995 4L14.4715 4.39201L16.7017 5.52774L18.4713 7.29735L19.608 9.52748L20 11.9995L19.608 14.4715L18.4713 16.7017L16.7017 18.4713L14.4715 19.608L11.9995 20L9.52748 19.608L7.29735 18.4713L5.52774 16.7017L4.39201 14.4715L4 11.9995L4.39201 9.52751L5.52774 7.29737L7.29737 5.52774L9.52751 4.39201L11.9995 4ZM10.8561 10.3012L11.9995 11.875L13.1431 10.3012H10.8561ZM10.7372 10.3865L11.8812 11.961L10.0306 12.5624L10.7372 10.3865ZM9.78501 12.6422L8.17981 10.8977L7.62858 13.3429L9.78501 12.6422ZM7.49336 13.2775L8.03987 10.8532L6.17439 11.4394L7.49336 13.2775ZM4.85103 11.8553L5.97016 11.5036L5.70133 13.7611L4.85103 11.8553ZM4.3008 12.0282L4.66854 11.9127L4.53532 13.5071L4.3008 12.0282ZM4.66215 14.3068L4.63147 14.1133L4.79974 12.0994L5.64251 13.9883L4.66215 14.3068ZM5.68689 14.1277L6.11545 16.1503L4.7959 14.6199L4.70735 14.4459L5.68689 14.1277ZM5.87295 14.0672L7.46948 15.7908L7.45634 13.5527L5.87295 14.0672ZM7.67345 13.4821L9.55624 15.1371L9.83073 12.7811L7.67345 13.4821ZM9.46837 15.2546L7.603 13.615L7.61628 15.8763L9.46837 15.2546ZM7.41258 15.9447L5.86813 14.2773L6.30051 16.3179L7.41258 15.9447ZM6.11927 16.3788L5.07463 15.1671L5.75409 16.5013L6.11927 16.3788ZM9.97468 12.8097L9.70055 15.1627L11.8553 14.1759L9.97468 12.8097ZM11.9264 14.3043L9.77025 15.2917L11.9264 16.5721V14.3043ZM9.66582 17.366L9.68477 15.411L11.8221 16.6803L9.66582 17.366ZM9.65237 18.7538L9.66375 17.5799L11.7282 18.5341L9.65237 18.7538ZM9.64678 19.3307L9.65052 18.9443L11.1324 19.5663L9.64678 19.3307ZM11.9264 19.6921L11.74 19.6626L9.87019 18.8779L11.9264 18.6602V19.6921ZM12.0727 18.4655L14.2045 17.4797L12.0727 16.8007V18.4655ZM12.0727 18.6612V19.6921L12.2629 19.662L14.1289 18.8789L12.0727 18.6612ZM12.8706 19.5656L14.3513 19.3308L14.3475 18.9457L12.8706 19.5656ZM14.3457 18.7547L14.3343 17.5809L12.2708 18.5351L14.3457 18.7547ZM14.3322 17.3669L14.3133 15.4121L12.1769 16.6804L14.3322 17.3669ZM14.2279 15.2926L12.0727 16.5721V14.3043L14.2279 15.2926ZM12.1437 14.176L14.0243 12.8097L14.2976 15.1636L12.1437 14.176ZM14.1683 12.781L14.4418 15.1372L16.3257 13.482L14.1683 12.781ZM16.3819 15.8775L14.5289 15.2553L16.396 13.615L16.3819 15.8775ZM17.6975 16.3192L16.5847 15.9455L18.13 14.2773L17.6975 16.3192ZM18.2443 16.5027L17.8786 16.38L18.926 15.1652L18.2443 16.5027ZM19.2926 14.4459L19.2053 14.6172L17.8826 16.1513L18.3113 14.1271L19.2926 14.4459ZM18.1712 13.9278L16.5882 13.4135L17.8926 11.5957L18.1712 13.9278ZM16.3705 13.3427L14.2141 12.6421L15.8194 10.8983L16.3705 13.3427ZM15.9595 10.8543L17.8241 11.4403L16.5057 13.2775L15.9595 10.8543ZM18.0291 11.5047L19.1481 11.8563L18.2987 13.7611L18.0291 11.5047ZM19.3305 11.9136L19.4636 13.5139L19.699 12.0295L19.3305 11.9136ZM19.3673 14.1211L19.3379 14.3068L18.3575 13.9883L19.1993 12.1007L19.3673 14.1211ZM14.1135 12.5355L13.3955 10.3244L15.7181 10.7924L14.1135 12.5355ZM13.4129 10.1787L14.7463 8.34353L15.7375 10.647L13.4129 10.1787ZM15.8587 6.81249L14.8802 8.1592L17.0049 8.86305L15.8587 6.81249ZM17.7653 7.68717L15.9736 6.65431L16.5799 5.8198L16.7145 5.95441L17.7653 7.68717ZM14.8946 8.31808L15.8769 10.6006L17.0417 9.02935L14.8946 8.31808ZM17.1493 6.38915L18.2115 7.45136L17.9815 7.76155L17.1493 6.38915ZM16.0601 6.87306L17.8677 7.91507L17.1693 8.85727L16.0601 6.87306ZM15.9873 10.6973L17.1349 9.14926L17.8299 11.2887L15.9918 10.7111L16.0018 10.7003L15.9873 10.6973ZM19.6834 11.8712L19.3271 11.7592L19.4561 10.4382L19.6834 11.8712ZM19.338 9.69319L19.3652 9.86477L19.2098 11.4546L18.7047 9.89916L19.338 9.69319ZM18.0421 11.3554L18.6028 10.0591L19.1354 11.6989L18.0421 11.3554ZM18.0695 7.88846L18.9501 8.88115L18.2915 7.58904L18.0695 7.88846ZM19.2143 9.39941L19.2931 9.55397L18.6595 9.76001L18.1536 8.20367L19.2143 9.39941ZM17.9498 8.04999L18.4831 9.69041L17.2677 8.97012L17.9498 8.04999ZM18.1255 14.0667L16.5427 13.5525L16.5287 15.7907L18.1255 14.0667ZM14.4595 15.3987L14.4729 15.4049L14.4712 15.3903L16.2963 16.0031L14.4781 17.3243L14.4595 15.3987ZM14.4969 19.2666L14.4933 18.8946L15.7855 18.6098L14.4969 19.2666ZM16.4603 18.2659L16.3033 18.3459L14.7456 18.6892L16.0693 17.7277L16.4603 18.2659ZM14.4803 17.5477L15.8858 17.6801L14.4914 18.693L14.4803 17.5477ZM17.5944 16.4389L16.5079 16.0741L16.1991 17.4524L17.5944 16.4389ZM16.7026 18.0565L16.5789 18.1802L16.1876 17.6416L17.5113 16.6801L16.7026 18.0565ZM17.114 17.6451L17.7851 16.5029L18.1378 16.6213L17.114 17.6451ZM11.9264 18.4645V16.8007L9.7938 17.4788L11.9264 18.4645ZM9.52685 15.3893L9.52515 15.4039L9.53859 15.3977L9.51993 17.3233L7.70077 16.0023L9.52685 15.3893ZM5.86 16.6201L6.21198 16.502L6.88309 17.6432L5.86 16.6201ZM7.41905 18.1792L7.29508 18.0552L6.48594 16.6793L7.80953 17.6407L7.41905 18.1792ZM7.48989 16.073L7.79808 17.4516L6.4027 16.4379L7.48989 16.073ZM9.50667 18.692L9.51777 17.5467L8.11148 17.6791L9.50667 18.692ZM7.69296 18.3445L7.53739 18.2652L7.92793 17.7267L9.25236 18.6881L7.69296 18.3445ZM8.2107 18.6084L9.50471 18.8935L9.5011 19.2661L8.2107 18.6084ZM5.82881 13.9277L7.41098 13.4136L6.10651 11.5957L5.82881 13.9277ZM9.88557 12.5354L10.6035 10.3244L8.28089 10.7914L9.88557 12.5354ZM9.11837 8.15841L6.99417 8.86297L8.14011 6.81201L9.11837 8.15841ZM9.25251 8.34305L8.26041 10.6463L10.5862 10.1787L9.25251 8.34305ZM8.12157 10.5989L9.10436 8.31719L6.9579 9.02913L8.12157 10.5989ZM6.83008 8.85671L6.13129 7.91409L7.93899 6.87203L6.83008 8.85671ZM6.01749 7.76057L5.78795 7.45094L6.84829 6.39061L6.01749 7.76057ZM7.28301 5.95588L6.2337 7.68619L8.02501 6.65358L7.41917 5.81973L7.28301 5.95588ZM8.01171 10.6963L6.86442 9.1487L6.16961 11.2876L8.00725 10.7101L7.99726 10.6993L8.01171 10.6963ZM5.70782 7.58851L5.92951 7.88755L5.05141 8.87746L5.70782 7.58851ZM4.70721 9.55335L4.78779 9.39509L5.84553 8.20269L5.33959 9.75901L4.70721 9.55335ZM6.04929 8.04912L5.516 9.68956L6.73183 8.96983L6.04929 8.04912ZM4.66209 9.69251L5.29438 9.89815L4.78925 11.4536L4.63427 9.868L4.66209 9.69251ZM4.54333 10.4415L4.67203 11.7582L4.31682 11.8698L4.54333 10.4415ZM4.86371 11.6979L5.39627 10.0581L5.95673 11.3545L4.86371 11.6979ZM9.23711 8.07295L8.25896 6.72669L10.5631 6.27025L9.23711 8.07295ZM10.7043 10.0922L9.37118 8.25748L11.8673 8.02601L10.7043 10.0922ZM10.7324 6.28689L11.8662 7.87919L9.3925 8.10858L10.7324 6.28689ZM9.92783 5.15693L10.608 6.1122L8.37827 6.55391L9.92783 5.15693ZM9.59317 4.68693L9.81685 5.00106L8.25665 5.36757L9.59317 4.68693ZM9.67985 5.18352L7.7089 5.64651L7.53755 5.73377L8.14386 6.56827L9.67985 5.18352ZM12.1317 8.026L13.2949 10.0923L14.628 8.2574L12.1317 8.026ZM15.8553 6.56825L16.4615 5.73382L16.2899 5.64641L14.3201 5.18352L15.8553 6.56825ZM15.742 5.36737L14.4059 4.68693L14.1823 5.00085L15.742 5.36737ZM14.0716 5.15634L13.391 6.11218L15.621 6.55394L14.0716 5.15634ZM13.2667 6.28679L12.1328 7.87918L14.6075 8.10858L13.2667 6.28679ZM15.7402 6.72669L14.7625 8.07229L13.4361 6.27027L15.7402 6.72669ZM13.1622 10.1549L11.9995 8.0894L10.8369 10.1549H13.1622ZM12.0067 7.80399L11.9995 7.79115L11.9923 7.80403L10.8751 6.23505H13.1239L12.0067 7.80399ZM14.2503 4.65318L14.0344 4.95632L12.8201 4.42637L14.2503 4.65318ZM12.0727 4.30786L12.2455 4.33525L13.7093 4.97406H12.0727V4.30786ZM13.2532 6.05351L12.1933 5.12035H13.9177L13.2532 6.05351ZM10.0814 5.12035L10.7459 6.05359L11.8058 5.12035H10.0814ZM9.96483 4.95668L9.74873 4.65318L11.1797 4.42625L9.96483 4.95668ZM11.7539 4.33519L10.2907 4.97406H11.9265V4.30784L11.7539 4.33519ZM13.2619 10.3866L12.1179 11.9611L13.9683 12.5623L13.2619 10.3866ZM13.9241 12.7017L12.0727 12.1002V14.0467L13.9241 12.7017ZM11.9264 14.0468V12.1002L10.075 12.7018L11.9264 14.0468ZM10.9273 6.08876L11.9996 5.14467L13.0719 6.08876H10.9273ZM6.70911 9.15329L5.47925 9.88133L6.04642 11.1933L6.70911 9.15329ZM7.65735 16.1515L7.96901 17.5456L9.39239 17.4115L7.65735 16.1515ZM14.6056 17.4125L16.0281 17.5465L16.3406 16.1517L14.6056 17.4125ZM17.2901 9.15343L18.5199 9.88228L17.9527 11.1933L17.2901 9.15343Z" fill="#F7F7F7"/>
</svg>
