<svg width="72" height="73" viewBox="0 0 72 73" fill="none" xmlns="http://www.w3.org/2000/svg">
<rect y="0.5" width="72" height="72" rx="36" fill="#8247E5"/>
<path d="M46.8153 28.8987C46.0073 28.4351 44.974 28.4351 44.06 28.8987L37.6222 32.7137L33.2508 35.1379L26.9321 38.9397C26.1241 39.4033 25.0908 39.4033 24.1768 38.9397L19.2358 35.9327C18.4278 35.469 17.8581 34.5418 17.8581 33.5085V27.733C17.8581 26.8057 18.3218 25.8917 19.2358 25.3089L24.1768 22.4211C24.9848 21.9575 26.0181 21.9575 26.9321 22.4211L31.8731 25.4281C32.6811 25.8917 33.2508 26.819 33.2508 27.8522V31.6673L37.6222 29.1239V25.2029C37.6222 24.2756 37.1585 23.3616 36.2445 22.7788L27.0513 17.3476C26.2433 16.884 25.21 16.884 24.296 17.3476L14.8777 22.898C13.9636 23.3616 13.5 24.2889 13.5 25.2029V36.0519C13.5 36.9792 13.9636 37.8932 14.8777 38.476L24.19 43.9072C24.9981 44.3708 26.0313 44.3708 26.9454 43.9072L33.264 40.2113L37.6354 37.668L43.9541 33.9722C44.7621 33.5085 45.7953 33.5085 46.7094 33.9722L51.6504 36.8599C52.4584 37.3236 53.028 38.2508 53.028 39.2841V45.0596C53.028 45.9869 52.5644 46.9009 51.6504 47.4838L46.8286 50.3715C46.0205 50.8352 44.9873 50.8352 44.0733 50.3715L39.119 47.4838C38.311 47.0201 37.7414 46.0929 37.7414 45.0596V41.3638L33.37 43.9072V47.7222C33.37 48.6495 33.8336 49.5635 34.7476 50.1463L44.06 55.5775C44.8681 56.0411 45.9013 56.0411 46.8153 55.5775L56.1277 50.1463C56.9358 49.6827 57.5054 48.7554 57.5054 47.7222V36.754C57.5054 35.8267 57.0417 34.9127 56.1277 34.3298L46.8153 28.8987Z" fill="white"/>
</svg>
