<svg width="24" height="24" viewBox="0 0 24 24" fill="none" xmlns="http://www.w3.org/2000/svg">
<rect width="24" height="24" rx="6" fill="#742968"/>
<rect x="0.5" y="0.5" width="23" height="23" rx="5.5" stroke="#F9F8F7" stroke-opacity="0.2"/>
<path d="M16.854 5.84606C15.9987 5.52958 15.3244 4.85526 15.0079 4C14.6914 4.85526 14.0171 5.52958 13.1619 5.84606C14.0171 6.16253 14.6914 6.83685 15.0079 7.69211C15.3244 6.83685 15.9987 6.16253 16.854 5.84606Z" fill="#F7F7F7"/>
<path fill-rule="evenodd" clip-rule="evenodd" d="M8.91369 10.8369L12.2731 6.32465L14.2152 8.93331C17.1168 8.08342 19.4173 8.11084 19.9062 9.15911C20.3947 10.2067 18.9391 11.9851 16.4259 13.6606C15.4876 14.2861 14.4018 14.8974 13.2148 15.4509L15.9097 15.2985C15.7268 15.6201 15.4973 15.9219 15.2222 16.1938C13.7905 17.6086 11.5769 17.7798 9.95599 16.7073C6.97403 17.6089 4.5923 17.6013 4.0939 16.5325C3.62643 15.53 4.9392 13.8584 7.25543 12.248C7.16392 12.6665 7.12867 13.093 7.14901 13.517C6.7275 14.0862 6.57008 14.6069 6.75434 15.0021C6.99557 15.5194 7.77815 15.7265 8.85756 15.6455C7.84488 14.2198 7.83792 12.2818 8.91369 10.8369ZM15.6324 10.8369L14.6059 9.45805C16.0722 9.20358 17.1762 9.37236 17.4711 10.0048C17.7409 10.5834 17.2781 11.4313 16.3264 12.3063C16.1994 11.7888 15.9689 11.2887 15.6324 10.8369Z" fill="#F7F7F7"/>
</svg>
