<svg width="24" height="25" viewBox="0 0 24 25" fill="none" xmlns="http://www.w3.org/2000/svg">
<path d="M20.8414 6.13981L20.1256 6.85557C19.6918 6.13 19.1624 5.44565 18.5375 4.82068C17.8981 4.18127 17.1965 3.6419 16.4522 3.20259L17.1782 2.4766C17.5747 2.08006 18.2176 2.08007 18.6142 2.4766L20.8414 4.70382C21.2379 5.10036 21.2379 5.74328 20.8414 6.13981Z" fill="#CA2EBD"/>
<path d="M14.6184 9.90693C15.4189 10.0111 16.1523 9.44662 16.2564 8.64611C16.3606 7.8456 15.7961 7.1122 14.9956 7.00802C14.1951 6.90384 13.4617 7.46832 13.3575 8.26883C13.2534 9.06935 13.8178 9.80274 14.6184 9.90693Z" fill="#CA2EBD"/>
<path d="M17.9217 10.6971C17.854 11.2171 17.374 11.559 16.8846 11.4953C16.4257 11.4356 16.0187 10.9782 16.0863 10.4582C16.154 9.9382 16.634 9.59628 17.1234 9.65997C17.6434 9.72765 17.9893 10.1771 17.9217 10.6971Z" fill="#CA2EBD"/>
<path d="M4.24244 10.0029C4.10418 10.5714 4.03083 11.166 4.03083 11.7779C4.03083 15.8487 7.27668 19.1487 11.2806 19.1487C13.0008 19.1487 14.5811 18.5395 15.8242 17.5219C13.9925 17.1702 11.6797 16.1892 9.37955 14.6879C7.1161 13.2106 5.30892 11.5193 4.24244 10.0029Z" fill="#CA2EBD"/>
<path d="M9.85815 13.8546C13.1145 15.98 16.183 17.0461 16.7118 16.2359C17.2406 15.4256 15.0295 13.0459 11.7732 10.9205C8.51685 8.79518 5.44836 7.72906 4.91954 8.53929C4.39072 9.34953 6.60181 11.7293 9.85815 13.8546Z" fill="#CA2EBD"/>
<path fill-rule="evenodd" clip-rule="evenodd" d="M20.2768 12.0406C20.2768 17.0877 16.1853 21.1792 11.1382 21.1792C6.09112 21.1792 1.99965 17.0877 1.99965 12.0406C1.99965 6.99355 6.09112 2.90207 11.1382 2.90207C16.1853 2.90207 20.2768 6.99355 20.2768 12.0406ZM19.1091 12.0406C19.1091 16.4428 15.5404 20.0115 11.1382 20.0115C6.73603 20.0115 3.16735 16.4428 3.16735 12.0406C3.16735 7.63845 6.73603 4.06978 11.1382 4.06978C15.5404 4.06978 19.1091 7.63845 19.1091 12.0406Z" fill="#CA2EBD"/>
</svg>
