<svg width="80" height="81" viewBox="0 0 80 81" fill="none" xmlns="http://www.w3.org/2000/svg">
<g clip-path="url(#clip0_625_33545)">
<path d="M76.7422 14.3215C75.9497 11.2597 73.4021 8.1979 68.8164 4.78942C65.1364 2.07421 61.2301 0.514404 58.1163 0.514404C57.4935 0.514404 56.9275 0.57216 56.3613 0.687711C54.946 0.976569 53.7005 2.01643 52.9079 3.57623C51.9454 5.42489 51.719 7.90904 52.3418 9.41109C52.5682 9.87325 52.8513 10.4509 53.191 10.9708C50.1905 12.8195 48.492 13.3395 48.2656 13.3973C56.0783 16.0546 62.5889 21.6007 66.6651 28.822L66.7216 28.1287C66.8915 26.2223 67.4575 24.027 68.2501 21.7739C69.0428 22.005 69.8354 22.1206 70.628 22.1206C72.7227 22.1206 74.5343 21.254 75.6666 19.6942C76.7989 18.1344 77.2519 16.0546 76.7422 14.3215Z" fill="#5E12A0"/>
<path d="M68.5902 20.0988C73.7421 21.5432 75.8366 17.4993 75.1573 14.784C74.4214 12.0688 72.0436 9.29578 67.8541 6.17616C63.6648 3.05656 59.4188 1.78559 56.7013 2.36331C53.9838 2.941 53.1911 7.15826 53.8707 8.77584C54.1536 9.41131 54.7764 10.3356 55.6255 11.3754C54.55 12.1265 53.531 12.7042 52.6816 13.2241C57.8901 15.5928 62.4192 19.2902 65.8161 23.9118C66.2123 22.352 66.7785 20.9654 67.288 19.7523C67.6843 19.8101 68.1372 19.9256 68.5902 20.0988Z" fill="url(#paint0_radial_625_33545)"/>
<path d="M39.0952 76.7134C56.5735 76.7134 70.7424 62.255 70.7424 44.4197C70.7424 26.5844 56.5735 12.126 39.0952 12.126C21.6171 12.126 7.44824 26.5844 7.44824 44.4197C7.44824 62.255 21.6171 76.7134 39.0952 76.7134Z" fill="url(#paint1_radial_625_33545)"/>
<path opacity="0.6" d="M72.5536 12.1262C68.251 7.50451 64.6278 6.29133 60.2685 5.30924C56.8716 4.50044 57.7776 2.53625 61.9103 2.94064C59.9288 2.24739 58.0605 2.07409 56.7018 2.36293C53.9843 2.94064 53.1919 7.1579 53.8712 8.77548C54.1541 9.41095 54.7769 10.3353 55.6261 11.3752C54.0976 12.4151 52.7955 13.1661 51.7197 13.7438C52.2294 13.9749 52.852 14.2636 53.5881 14.6681C55.513 15.708 57.6077 17.441 57.6077 17.441C54.4372 14.6681 55.1166 13.3971 59.4759 10.2775C60.8345 9.29542 63.3257 9.41095 65.6468 10.6242C67.9679 11.8373 70.6854 14.8992 70.6854 14.8992L68.0812 19.9829C68.251 20.0407 68.4209 20.0986 68.5907 20.1564C70.2325 20.6185 71.5346 20.5029 72.5536 20.0986C73.7426 19.3476 76.8563 16.8057 72.5536 12.1262Z" fill="#A98698"/>
<path d="M60.2112 8.0828C61.3435 8.54496 62.8155 9.35376 64.6271 10.567C66.7785 12.0112 68.6467 13.6289 69.8355 14.8998C67.8541 17.5571 66.552 21.1967 65.7594 23.7386C66.1558 24.3163 66.6087 24.8941 67.0049 25.4719C67.4011 24.0275 68.0807 21.8899 68.9864 19.7525C69.2129 19.8103 69.4959 19.8103 69.779 19.8103C70.4583 19.8103 71.2509 19.6947 71.8737 19.1748C72.3267 18.8281 72.8362 18.1927 72.7794 17.0372C72.7794 15.9397 71.9303 14.5531 70.1754 12.8778C68.9298 11.6645 67.2313 10.3358 65.533 9.12268C60.6642 5.82975 57.2673 4.90542 55.7388 6.46522C54.7198 7.5051 54.8329 8.77607 55.1726 9.70039C53.361 10.9135 51.8325 11.7802 50.8135 12.3579C51.4928 12.589 52.1156 12.8779 52.7949 13.1665C54.6065 12.1845 57.2108 10.5092 60.2112 8.0828ZM70.9113 16.344C71.0811 16.6329 71.1377 16.9217 71.1377 17.095C71.1377 17.6149 70.9678 17.7882 70.8547 17.9038C70.6282 18.0771 70.1752 18.1927 69.779 18.1927C70.1187 17.4995 70.5151 16.9217 70.9113 16.344ZM56.9277 7.73618C57.0975 7.56288 57.5504 7.44733 58.2865 7.56288C57.7203 8.02504 57.1542 8.42943 56.588 8.83382C56.5314 8.42943 56.588 8.02504 56.9277 7.73618Z" fill="#5E12A0"/>
<path d="M39.0945 10.2205C20.5818 10.2205 5.5791 25.5298 5.5791 44.4207C5.5791 63.3118 20.5818 78.6209 39.0945 78.6209C57.6071 78.6209 72.6097 63.3118 72.6097 44.4207C72.6097 25.5298 57.5505 10.2205 39.0945 10.2205ZM39.0945 76.7144C21.6007 76.7144 7.44736 62.2719 7.44736 44.4207C7.44736 26.5697 21.6007 12.127 39.0945 12.127C56.5881 12.127 70.7415 26.5697 70.7415 44.4207C70.7415 62.2719 56.5315 76.7144 39.0945 76.7144Z" fill="#5E12A0"/>
<path opacity="0.6" d="M39.0952 76.7134C56.5735 76.7134 70.7424 62.255 70.7424 44.4197C70.7424 26.5844 56.5735 12.126 39.0952 12.126C21.6171 12.126 7.44824 26.5844 7.44824 44.4197C7.44824 62.255 21.6171 76.7134 39.0952 76.7134Z" fill="url(#paint2_linear_625_33545)"/>
<path opacity="0.6" d="M38.8674 72.7858C21.6002 69.955 9.88111 53.375 12.7117 35.7548C13.9573 27.9559 17.8069 21.3123 23.242 16.5172C15.316 21.1967 9.4282 29.3423 7.84302 39.279C5.06894 56.8989 16.7879 73.4792 33.9986 76.31C43.6229 77.9274 52.9076 74.8656 59.7578 68.8573C53.7002 72.4393 46.3404 73.9989 38.8674 72.7858Z" fill="#A98698"/>
<path opacity="0.6" d="M44.1338 12.5883C36.1512 11.2596 28.3953 13.1083 22.0546 17.21C21.9413 17.3256 21.8282 17.441 21.8282 17.441C24.2624 15.939 27.8292 14.6103 27.8292 14.6103C18.6578 20.0407 15.8271 26.2222 15.8271 26.2222C19.3938 19.1743 29.8672 14.206 38.0761 13.8593C46.2852 13.5128 51.6635 15.9968 58.2307 21.3695C64.7978 26.8 68.7609 37.892 68.3645 46.6731C68.0248 55.4541 63.4959 62.56 63.4959 62.56C66.6096 58.4583 68.478 55.4541 69.6668 52.3923C69.8934 51.468 70.1197 50.5438 70.233 49.5615C73.0636 31.9994 61.4009 15.4191 44.1338 12.5883Z" fill="url(#paint3_linear_625_33545)"/>
<path d="M69.1568 44.1316C69.1568 61.0584 55.6827 74.8079 39.0951 74.8079C22.5073 74.8079 8.97656 61.0584 8.97656 44.1316H69.1568Z" fill="url(#paint4_linear_625_33545)"/>
<g opacity="0.6">
<path opacity="0.6" d="M66.7792 44.1316C66.7792 60.654 53.9846 74.1723 37.9062 74.8079C38.3027 74.8079 38.6989 74.8079 39.0951 74.8079C55.6829 74.8079 69.157 61.0584 69.157 44.1316H66.7792Z" fill="url(#paint5_linear_625_33545)"/>
</g>
<g opacity="0.7">
<path opacity="0.7" d="M13.2226 44.1316H8.97656C8.97656 61.0584 22.4507 74.8079 39.0383 74.8079C39.7744 74.8079 40.4537 74.8079 41.1331 74.7501C25.5644 73.5947 13.2226 60.3074 13.2226 44.1316Z" fill="url(#paint6_linear_625_33545)"/>
</g>
<path d="M69.1003 44.4195C69.1003 40.8955 63.0992 38.8736 55.1167 38.1804C49.3422 37.7181 43.5109 38.2958 36.8305 40.3756C31.0558 42.1087 25.8473 41.8198 22.0543 41.3577C13.6188 40.3756 8.97656 40.26 8.97656 44.4195C8.97656 50.4277 20.9786 57.9379 38.9818 55.3382C48.0966 54.0095 52.7956 51.2943 58.1739 49.4456C64.0051 47.4813 69.1003 47.5391 69.1003 44.4195Z" fill="url(#paint7_linear_625_33545)"/>
<path d="M48.9458 29.862C51.7598 29.862 54.0409 27.5343 54.0409 24.6628C54.0409 21.7912 51.7598 19.4634 48.9458 19.4634C46.1318 19.4634 43.8506 21.7912 43.8506 24.6628C43.8506 27.5343 46.1318 29.862 48.9458 29.862Z" fill="white"/>
<path d="M57.2655 33.733C58.4538 33.733 59.4168 32.7502 59.4168 31.5376C59.4168 30.3252 58.4538 29.3424 57.2655 29.3424C56.0775 29.3424 55.1143 30.3252 55.1143 31.5376C55.1143 32.7502 56.0775 33.733 57.2655 33.733Z" fill="white"/>
<g opacity="0.6">
<path opacity="0.6" d="M64.9674 20.5022C64.9108 20.5022 64.8541 20.5022 64.8541 20.5022C64.5144 20.4444 64.288 20.0979 64.3446 19.6934C64.8541 17.0361 67.0054 14.494 67.1187 14.3785C67.345 14.0897 67.798 14.0897 68.0246 14.3207C68.3075 14.5518 68.3075 15.0139 68.0811 15.2452C68.0246 15.3028 66.0429 17.6714 65.5902 19.9823C65.5334 20.3289 65.2505 20.5022 64.9674 20.5022Z" fill="url(#paint8_linear_625_33545)"/>
</g>
<path opacity="0.2" d="M37.0042 68.51C37.8795 68.51 38.5892 67.7858 38.5892 66.8925C38.5892 65.9991 37.8795 65.2749 37.0042 65.2749C36.1287 65.2749 35.4189 65.9991 35.4189 66.8925C35.4189 67.7858 36.1287 68.51 37.0042 68.51Z" fill="white"/>
<g opacity="0.4">
<path opacity="0.6" d="M36.0939 67.9344C35.4713 67.2988 35.4713 66.259 36.0939 65.6236C36.2071 65.508 36.3204 65.4503 36.4335 65.3347C36.2071 65.3925 36.0373 65.508 35.8675 65.6814C35.2447 66.3168 35.2447 67.3567 35.8675 67.9922C36.377 68.5122 37.1696 68.6276 37.7924 68.2811C37.2261 68.5122 36.5468 68.3965 36.0939 67.9344Z" fill="url(#paint9_linear_625_33545)"/>
</g>
<path opacity="0.3" d="M37.5653 66.4298C37.7529 66.4298 37.9051 66.2747 37.9051 66.0833C37.9051 65.8918 37.7529 65.7366 37.5653 65.7366C37.3777 65.7366 37.2256 65.8918 37.2256 66.0833C37.2256 66.2747 37.3777 66.4298 37.5653 66.4298Z" fill="white"/>
<path opacity="0.2" d="M45.2686 67.7022C46.1442 67.7022 46.8539 66.978 46.8539 66.0848C46.8539 65.1914 46.1442 64.4672 45.2686 64.4672C44.3933 64.4672 43.6836 65.1914 43.6836 66.0848C43.6836 66.978 44.3933 67.7022 45.2686 67.7022Z" fill="white"/>
<g opacity="0.4">
<path opacity="0.6" d="M44.3614 67.1255C43.7387 66.4899 43.7387 65.45 44.3614 64.8146C44.4747 64.699 44.5878 64.6414 44.7011 64.5258C44.4747 64.5836 44.3049 64.699 44.1351 64.8724C43.5123 65.5078 43.5123 66.5477 44.1351 67.1833C44.6446 67.7032 45.4372 67.8186 46.0598 67.4721C45.4937 67.7032 44.8144 67.5876 44.3614 67.1255Z" fill="url(#paint10_linear_625_33545)"/>
</g>
<path opacity="0.3" d="M45.8328 65.6222C46.0204 65.6222 46.1725 65.467 46.1725 65.2755C46.1725 65.0841 46.0204 64.9288 45.8328 64.9288C45.6452 64.9288 45.4932 65.0841 45.4932 65.2755C45.4932 65.467 45.6452 65.6222 45.8328 65.6222Z" fill="white"/>
<path opacity="0.2" d="M41.19 71.4565C41.8466 71.4565 42.3788 70.9134 42.3788 70.2434C42.3788 69.5733 41.8466 69.03 41.19 69.03C40.5332 69.03 40.001 69.5733 40.001 70.2434C40.001 70.9134 40.5332 71.4565 41.19 71.4565Z" fill="white"/>
<g opacity="0.4">
<path opacity="0.6" d="M40.5105 70.9965C40.0576 70.5343 40.0576 69.7255 40.5105 69.2634C40.5671 69.2056 40.6804 69.1478 40.7369 69.09C40.5671 69.1478 40.4538 69.2634 40.3407 69.3788C39.8877 69.841 39.8877 70.6498 40.3407 71.1119C40.7369 71.5164 41.303 71.5742 41.8126 71.2854C41.3597 71.4586 40.8502 71.3432 40.5105 70.9965Z" fill="url(#paint11_linear_625_33545)"/>
</g>
<path opacity="0.3" d="M41.584 69.8394C41.7089 69.8394 41.8104 69.7359 41.8104 69.6084C41.8104 69.4807 41.7089 69.3773 41.584 69.3773C41.4589 69.3773 41.3574 69.4807 41.3574 69.6084C41.3574 69.7359 41.4589 69.8394 41.584 69.8394Z" fill="white"/>
<path opacity="0.2" d="M48.4935 70.5901C49.1501 70.5901 49.6823 70.047 49.6823 69.3769C49.6823 68.7069 49.1501 68.1638 48.4935 68.1638C47.8369 68.1638 47.3047 68.7069 47.3047 69.3769C47.3047 70.047 47.8369 70.5901 48.4935 70.5901Z" fill="white"/>
<g opacity="0.4">
<path opacity="0.6" d="M47.8142 70.1303C47.3613 69.6679 47.3613 68.8591 47.8142 68.397C47.8708 68.3392 47.9841 68.2816 48.0406 68.2238C47.8708 68.2816 47.7575 68.397 47.6444 68.5126C47.1914 68.9748 47.1914 69.7836 47.6444 70.2457C48.0406 70.6502 48.6067 70.7078 49.1164 70.4189C48.6634 70.5924 48.1539 70.4768 47.8142 70.1303Z" fill="url(#paint12_linear_625_33545)"/>
</g>
<path opacity="0.3" d="M48.8904 68.9734C49.0156 68.9734 49.117 68.8699 49.117 68.7422C49.117 68.6147 49.0156 68.5111 48.8904 68.5111C48.7655 68.5111 48.6641 68.6147 48.6641 68.7422C48.6641 68.8699 48.7655 68.9734 48.8904 68.9734Z" fill="white"/>
<path opacity="0.2" d="M30.2624 67.9325C31.7008 67.9325 32.8667 66.7425 32.8667 65.2749C32.8667 63.8072 31.7008 62.6174 30.2624 62.6174C28.8241 62.6174 27.6582 63.8072 27.6582 65.2749C27.6582 66.7425 28.8241 67.9325 30.2624 67.9325Z" fill="white"/>
<g opacity="0.4">
<path opacity="0.6" d="M28.7924 66.9514C27.7734 65.9115 27.7734 64.2361 28.7924 63.1962C28.9622 63.0229 29.1321 62.9073 29.3586 62.7919C29.019 62.9073 28.7358 63.1386 28.4527 63.3696C27.4337 64.4095 27.4337 66.0848 28.4527 67.1246C29.3021 67.9913 30.6042 68.1645 31.6232 67.529C30.6607 67.9335 29.5285 67.7602 28.7924 66.9514Z" fill="url(#paint13_linear_625_33545)"/>
</g>
<path opacity="0.3" d="M31.1686 64.4661C31.4813 64.4661 31.7348 64.2075 31.7348 63.8885C31.7348 63.5694 31.4813 63.3108 31.1686 63.3108C30.856 63.3108 30.6025 63.5694 30.6025 63.8885C30.6025 64.2075 30.856 64.4661 31.1686 64.4661Z" fill="white"/>
<path opacity="0.2" d="M53.532 61.4053C54.9701 61.4053 56.1362 60.2155 56.1362 58.7478C56.1362 57.2802 54.9701 56.0905 53.532 56.0905C52.0936 56.0905 50.9277 57.2802 50.9277 58.7478C50.9277 60.2155 52.0936 61.4053 53.532 61.4053Z" fill="white"/>
<g opacity="0.4">
<path opacity="0.6" d="M52.0014 60.4229C50.9824 59.3831 50.9824 57.7078 52.0014 56.6679C52.1712 56.4945 52.341 56.3791 52.5676 56.2634C52.2279 56.3791 51.9448 56.6101 51.6617 56.8412C50.6427 57.8811 50.6427 59.5565 51.6617 60.5964C52.5109 61.4628 53.813 61.6363 54.8322 61.0007C53.8697 61.405 52.794 61.2318 52.0014 60.4229Z" fill="url(#paint14_linear_625_33545)"/>
</g>
<path opacity="0.3" d="M54.4354 57.938C54.7481 57.938 55.0014 57.6793 55.0014 57.3602C55.0014 57.0411 54.7481 56.7825 54.4354 56.7825C54.1226 56.7825 53.8691 57.0411 53.8691 57.3602C53.8691 57.6793 54.1226 57.938 54.4354 57.938Z" fill="white"/>
</g>
<defs>
<radialGradient id="paint0_radial_625_33545" cx="0" cy="0" r="1" gradientUnits="userSpaceOnUse" gradientTransform="translate(74.1247 11.1444) scale(25.3032 25.8203)">
<stop stop-color="#FFEAFF" stop-opacity="0.6"/>
<stop offset="0.6807" stop-color="#A087C9"/>
<stop offset="1" stop-color="#10002F"/>
</radialGradient>
<radialGradient id="paint1_radial_625_33545" cx="0" cy="0" r="1" gradientUnits="userSpaceOnUse" gradientTransform="translate(60.0483 22.1557) scale(61.9076 63.1727)">
<stop stop-color="#FFEAFF" stop-opacity="0.6"/>
<stop offset="0.6807" stop-color="#A087C9"/>
<stop offset="1" stop-color="#10002F"/>
</radialGradient>
<linearGradient id="paint2_linear_625_33545" x1="34.0188" y1="76.2553" x2="44.548" y2="12.5978" gradientUnits="userSpaceOnUse">
<stop stop-color="#81FFFF"/>
<stop offset="0.6202" stop-color="white" stop-opacity="0"/>
</linearGradient>
<linearGradient id="paint3_linear_625_33545" x1="61.3983" y1="22.4883" x2="34.746" y2="46.4528" gradientUnits="userSpaceOnUse">
<stop offset="0.2888" stop-color="white"/>
<stop offset="0.7796" stop-color="white" stop-opacity="0"/>
</linearGradient>
<linearGradient id="paint4_linear_625_33545" x1="9.00203" y1="59.4518" x2="69.1423" y2="59.4518" gradientUnits="userSpaceOnUse">
<stop stop-color="#0002E9"/>
<stop offset="0.9952" stop-color="#FF00C7"/>
</linearGradient>
<linearGradient id="paint5_linear_625_33545" x1="71.9894" y1="46.8236" x2="38.6312" y2="77.7174" gradientUnits="userSpaceOnUse">
<stop offset="0.2888" stop-color="white"/>
<stop offset="0.7796" stop-color="white" stop-opacity="0"/>
</linearGradient>
<linearGradient id="paint6_linear_625_33545" x1="9.00203" y1="59.4518" x2="41.1768" y2="59.4518" gradientUnits="userSpaceOnUse">
<stop stop-color="#000292"/>
<stop offset="0.9952" stop-color="#7D00C7"/>
</linearGradient>
<linearGradient id="paint7_linear_625_33545" x1="9.04239" y1="46.9679" x2="69.1018" y2="46.9679" gradientUnits="userSpaceOnUse">
<stop stop-color="#000292"/>
<stop offset="0.9952" stop-color="#BE00C7"/>
</linearGradient>
<linearGradient id="paint8_linear_625_33545" x1="68.1165" y1="14.0971" x2="63.6721" y2="21.1746" gradientUnits="userSpaceOnUse">
<stop offset="0.2888" stop-color="white"/>
<stop offset="0.7796" stop-color="white" stop-opacity="0"/>
</linearGradient>
<linearGradient id="paint9_linear_625_33545" x1="35.3989" y1="66.9441" x2="37.7941" y2="66.9441" gradientUnits="userSpaceOnUse">
<stop offset="0.2888" stop-color="white"/>
<stop offset="0.7796" stop-color="white" stop-opacity="0"/>
</linearGradient>
<linearGradient id="paint10_linear_625_33545" x1="43.6605" y1="66.1241" x2="46.0558" y2="66.1241" gradientUnits="userSpaceOnUse">
<stop offset="0.2888" stop-color="white"/>
<stop offset="0.7796" stop-color="white" stop-opacity="0"/>
</linearGradient>
<linearGradient id="paint11_linear_625_33545" x1="39.9936" y1="70.2593" x2="41.7918" y2="70.2593" gradientUnits="userSpaceOnUse">
<stop offset="0.2888" stop-color="white"/>
<stop offset="0.7796" stop-color="white" stop-opacity="0"/>
</linearGradient>
<linearGradient id="paint12_linear_625_33545" x1="47.2728" y1="69.3907" x2="49.0709" y2="69.3907" gradientUnits="userSpaceOnUse">
<stop offset="0.2888" stop-color="white"/>
<stop offset="0.7796" stop-color="white" stop-opacity="0"/>
</linearGradient>
<linearGradient id="paint13_linear_625_33545" x1="27.6626" y1="65.3437" x2="31.5741" y2="65.3437" gradientUnits="userSpaceOnUse">
<stop offset="0.2888" stop-color="white"/>
<stop offset="0.7796" stop-color="white" stop-opacity="0"/>
</linearGradient>
<linearGradient id="paint14_linear_625_33545" x1="50.8932" y1="58.8134" x2="54.8049" y2="58.8134" gradientUnits="userSpaceOnUse">
<stop offset="0.2888" stop-color="white"/>
<stop offset="0.7796" stop-color="white" stop-opacity="0"/>
</linearGradient>
<clipPath id="clip0_625_33545">
<rect width="80" height="80" fill="white" transform="translate(0 0.514404)"/>
</clipPath>
</defs>
</svg>
