<svg width="20" height="20" viewBox="0 0 20 20" fill="none" xmlns="http://www.w3.org/2000/svg">
<path d="M9.21067 6.14313L9.837 3.19646C10.0284 2.29611 10.9134 1.72136 11.8138 1.91274L14.4773 2.47887C14.8628 2.05151 15.4593 1.83566 16.0627 1.96391C16.963 2.15529 17.5378 3.04032 17.3464 3.94068C17.155 4.84104 16.27 5.41578 15.3697 5.22441C14.7663 5.09615 14.3091 4.65632 14.1308 4.10912L11.4673 3.54298L10.9121 6.15511C12.3993 6.26932 13.877 6.76428 15.2153 7.57163C15.9078 7.18665 16.7495 7.12477 17.506 7.43105C18.4778 7.82446 19.1278 8.75188 19.1661 9.79955L19.1665 9.81705C19.1794 10.6534 18.7993 11.435 18.1602 11.9421C18.1584 11.9785 18.1561 12.0128 18.1532 12.0445C18.1532 15.3761 14.4453 17.9026 9.98784 17.9026C5.54377 17.9026 1.8976 15.3826 1.90005 12.1085C1.89619 12.0581 1.89318 12.0078 1.89104 11.9575C1.22267 11.453 0.820764 10.6534 0.833804 9.7938C0.849787 8.74005 1.48634 7.7951 2.45686 7.38438C3.21607 7.06309 4.06766 7.11612 4.76992 7.50014C6.13167 6.68573 7.63164 6.22397 9.21067 6.14313ZM16.9489 10.7478C17.289 10.5788 17.5027 10.2309 17.5003 9.85163C17.4826 9.46405 17.2408 9.12171 16.8806 8.97588C16.5177 8.82896 16.1023 8.90888 15.8199 9.18004L15.3328 9.64755L14.7743 9.26796C13.4283 8.35296 11.8978 7.83004 10.4164 7.79808L9.57767 7.79799C8.01509 7.82154 6.53463 8.29713 5.2131 9.19338L4.66055 9.56813L4.17431 9.11063C3.88767 8.84096 3.46886 8.76588 3.10641 8.91929C2.74397 9.07263 2.50625 9.42554 2.50016 9.81905C2.49431 10.2125 2.72121 10.5725 3.07884 10.7368L3.60631 10.9791L3.56182 11.558C3.551 11.6986 3.551 11.84 3.56427 12.0445C3.56427 14.3029 6.36111 16.2359 9.98784 16.2359C13.6303 16.2359 16.4865 14.2897 16.4889 11.9807C16.4998 11.84 16.4998 11.6986 16.4889 11.558L16.4458 10.9979L16.9489 10.7478ZM5.79246 10.8802C5.79246 10.1899 6.3521 9.63021 7.04246 9.63021C7.73282 9.63021 8.29246 10.1899 8.29246 10.8802C8.29246 11.5705 7.73282 12.1302 7.04246 12.1302C6.71093 12.1302 6.39299 11.9985 6.15857 11.7641C5.92415 11.5297 5.79246 11.2117 5.79246 10.8802ZM11.6258 10.8802C11.6258 10.1899 12.1854 9.63021 12.8758 9.63021C13.5662 9.63021 14.1258 10.1899 14.1258 10.8802C14.1258 11.5705 13.5662 12.1302 12.8758 12.1302C12.5443 12.1302 12.2263 11.9985 11.9919 11.7641C11.7575 11.5297 11.6258 11.2117 11.6258 10.8802ZM9.97225 15.1326C8.80792 15.1326 7.66678 14.8244 6.73769 14.1243C6.62232 13.9837 6.6324 13.7785 6.76099 13.65C6.88958 13.5214 7.09474 13.5113 7.23532 13.6266C8.02264 14.2041 9.00433 14.4516 9.95909 14.4516C10.9139 14.4516 11.9013 14.223 12.696 13.6529C12.7896 13.5616 12.9248 13.5272 13.0505 13.5626C13.1763 13.598 13.2737 13.6979 13.3059 13.8245C13.3381 13.9512 13.2933 14.0758 13.2068 14.1766C12.6367 14.8412 11.1365 15.1326 9.97225 15.1326Z" fill="#F7F7F7"/>
</svg>
