<svg width="24" height="24" viewBox="0 0 24 24" fill="none" xmlns="http://www.w3.org/2000/svg">
<path d="M6.40798 11.7714C6.80789 10.7563 7.28854 9.7796 7.84995 8.84137C8.41135 7.90313 9.04582 7.01872 9.75334 6.18815L8.55363 5.93436C8.24601 5.87284 7.94608 5.88822 7.65384 5.98051C7.3616 6.07279 7.10782 6.2266 6.89248 6.44194L3.98548 9.34894C3.75477 9.57965 3.66633 9.85651 3.72016 10.1795C3.77399 10.5025 3.95472 10.7255 4.26234 10.8486L6.40798 11.7714ZM19.974 2.77358C18.3436 2.69667 16.794 3.01198 15.3251 3.71951C13.8562 4.42703 12.545 5.35758 11.3914 6.51115C10.6531 7.24944 10.0033 8.04925 9.44188 8.91058C8.88047 9.77191 8.39213 10.6794 7.97684 11.633C7.89994 11.833 7.86148 12.0368 7.86148 12.2444C7.86148 12.452 7.93839 12.6328 8.0922 12.7866L10.9761 15.6705C11.1299 15.8243 11.3107 15.9012 11.5183 15.9012C11.7259 15.9012 11.9297 15.8628 12.1297 15.7859C13.0833 15.3706 13.9908 14.8822 14.8521 14.3208C15.7135 13.7594 16.5133 13.1096 17.2516 12.3713C18.4051 11.2177 19.3357 9.9065 20.0432 8.43762C20.7507 6.96873 21.066 5.4191 20.9891 3.78872C20.9891 3.66567 20.9584 3.54263 20.8968 3.41958C20.8353 3.29653 20.7584 3.18886 20.6661 3.09658C20.5738 3.00429 20.4662 2.92739 20.3431 2.86586C20.2201 2.80434 20.097 2.77358 19.974 2.77358ZM14.1138 9.64887C13.7601 9.2951 13.5832 8.86059 13.5832 8.34533C13.5832 7.83007 13.7601 7.39556 14.1138 7.04179C14.4676 6.68803 14.9021 6.51115 15.4174 6.51115C15.9326 6.51115 16.3672 6.68803 16.7209 7.04179C17.0747 7.39556 17.2516 7.83007 17.2516 8.34533C17.2516 8.86059 17.0747 9.2951 16.7209 9.64887C16.3672 10.0026 15.9326 10.1795 15.4174 10.1795C14.9021 10.1795 14.4676 10.0026 14.1138 9.64887ZM11.9913 17.3547L12.9141 19.5004C13.0372 19.808 13.2602 19.9926 13.5832 20.0541C13.9062 20.1156 14.1831 20.031 14.4138 19.8003L17.3208 16.8933C17.5361 16.678 17.6899 16.4203 17.7822 16.1204C17.8745 15.8205 17.8899 15.5167 17.8283 15.2091L17.5976 14.0094C16.7517 14.7169 15.8634 15.3514 14.9329 15.9128C14.0023 16.4742 13.0218 16.9548 11.9913 17.3547ZM4.49305 15.3706C5.03139 14.8322 5.68508 14.5592 6.45413 14.5515C7.22317 14.5439 7.87686 14.8092 8.4152 15.3475C8.95353 15.8858 9.2227 16.5395 9.2227 17.3086C9.2227 18.0776 8.95353 18.7313 8.4152 19.2697C7.67691 20.0079 6.80404 20.4463 5.79659 20.5847C4.78914 20.7232 3.77784 20.8616 2.7627 21C2.90112 19.9849 3.0434 18.9736 3.18952 17.9661C3.33564 16.9587 3.77015 16.0935 4.49305 15.3706Z" fill="#CA2EBD"/>
</svg>
