<svg width="24" height="24" viewBox="0 0 24 24" fill="none" xmlns="http://www.w3.org/2000/svg">
<path d="M6.40749 11.7714C6.8074 10.7563 7.28805 9.7796 7.84946 8.84137C8.41086 7.90313 9.04533 7.01872 9.75285 6.18815L8.55314 5.93436C8.24552 5.87284 7.94559 5.88822 7.65335 5.98051C7.36111 6.07279 7.10733 6.2266 6.89199 6.44194L3.98499 9.34894C3.75428 9.57965 3.66584 9.85651 3.71967 10.1795C3.77351 10.5025 3.95423 10.7255 4.26185 10.8486L6.40749 11.7714ZM19.9735 2.77358C18.3431 2.69667 16.7935 3.01198 15.3246 3.71951C13.8557 4.42703 12.5445 5.35758 11.3909 6.51115C10.6526 7.24944 10.0028 8.04925 9.44139 8.91058C8.87998 9.77191 8.39164 10.6794 7.97635 11.633C7.89945 11.833 7.86099 12.0368 7.86099 12.2444C7.86099 12.452 7.9379 12.6328 8.09171 12.7866L10.9756 15.6705C11.1294 15.8243 11.3102 15.9012 11.5178 15.9012C11.7255 15.9012 11.9293 15.8628 12.1292 15.7859C13.0828 15.3706 13.9903 14.8822 14.8516 14.3208C15.713 13.7594 16.5128 13.1096 17.2511 12.3713C18.4046 11.2177 19.3352 9.9065 20.0427 8.43762C20.7502 6.96873 21.0655 5.4191 20.9886 3.78872C20.9886 3.66567 20.9579 3.54263 20.8964 3.41958C20.8348 3.29653 20.7579 3.18886 20.6656 3.09658C20.5734 3.00429 20.4657 2.92739 20.3426 2.86586C20.2196 2.80434 20.0965 2.77358 19.9735 2.77358ZM14.1134 9.64887C13.7596 9.2951 13.5827 8.86059 13.5827 8.34533C13.5827 7.83007 13.7596 7.39556 14.1134 7.04179C14.4671 6.68803 14.9016 6.51115 15.4169 6.51115C15.9322 6.51115 16.3667 6.68803 16.7204 7.04179C17.0742 7.39556 17.2511 7.83007 17.2511 8.34533C17.2511 8.86059 17.0742 9.2951 16.7204 9.64887C16.3667 10.0026 15.9322 10.1795 15.4169 10.1795C14.9016 10.1795 14.4671 10.0026 14.1134 9.64887ZM11.9908 17.3547L12.9136 19.5004C13.0367 19.808 13.2597 19.9926 13.5827 20.0541C13.9057 20.1156 14.1826 20.031 14.4133 19.8003L17.3203 16.8933C17.5356 16.678 17.6894 16.4203 17.7817 16.1204C17.874 15.8205 17.8894 15.5167 17.8279 15.2091L17.5971 14.0094C16.7512 14.7169 15.8629 15.3514 14.9324 15.9128C14.0018 16.4742 13.0213 16.9548 11.9908 17.3547ZM4.49256 15.3706C5.0309 14.8322 5.68459 14.5592 6.45364 14.5515C7.22268 14.5439 7.87638 14.8092 8.41471 15.3475C8.95304 15.8858 9.22221 16.5395 9.22221 17.3086C9.22221 18.0776 8.95304 18.7313 8.41471 19.2697C7.67642 20.0079 6.80355 20.4463 5.7961 20.5847C4.78865 20.7232 3.77735 20.8616 2.76221 21C2.90064 19.9849 3.04291 18.9736 3.18903 17.9661C3.33515 16.9587 3.76966 16.0935 4.49256 15.3706Z" fill="#FF8642"/>
</svg>
