<svg width="24" height="24" viewBox="0 0 24 24" fill="none" xmlns="http://www.w3.org/2000/svg">
<path d="M6.40798 11.7714C6.80789 10.7562 7.28854 9.77954 7.84995 8.8413C8.41135 7.90307 9.04582 7.01866 9.75334 6.18809L8.55363 5.9343C8.24601 5.87278 7.94608 5.88816 7.65384 5.98045C7.3616 6.07273 7.10782 6.22654 6.89248 6.44188L3.98548 9.34888C3.75477 9.57959 3.66633 9.85645 3.72016 10.1794C3.77399 10.5024 3.95472 10.7255 4.26234 10.8485L6.40798 11.7714ZM19.974 2.77352C18.3436 2.69661 16.794 3.01192 15.3251 3.71945C13.8562 4.42697 12.545 5.35752 11.3914 6.51109C10.6531 7.24938 10.0033 8.04919 9.44188 8.91052C8.88047 9.77185 8.39213 10.6793 7.97684 11.6329C7.89994 11.8329 7.86148 12.0367 7.86148 12.2443C7.86148 12.452 7.93839 12.6327 8.0922 12.7865L10.9761 15.6704C11.1299 15.8243 11.3107 15.9012 11.5183 15.9012C11.7259 15.9012 11.9297 15.8627 12.1297 15.7858C13.0833 15.3705 13.9908 14.8822 14.8521 14.3208C15.7135 13.7594 16.5133 13.1095 17.2516 12.3712C18.4051 11.2177 19.3357 9.90644 20.0432 8.43755C20.7507 6.96867 21.066 5.41904 20.9891 3.78866C20.9891 3.66561 20.9584 3.54256 20.8968 3.41952C20.8353 3.29647 20.7584 3.1888 20.6661 3.09652C20.5738 3.00423 20.4662 2.92733 20.3431 2.8658C20.2201 2.80428 20.097 2.77352 19.974 2.77352ZM14.1138 9.64881C13.7601 9.29504 13.5832 8.86053 13.5832 8.34527C13.5832 7.83001 13.7601 7.39549 14.1138 7.04173C14.4676 6.68797 14.9021 6.51109 15.4174 6.51109C15.9326 6.51109 16.3672 6.68797 16.7209 7.04173C17.0747 7.39549 17.2516 7.83001 17.2516 8.34527C17.2516 8.86053 17.0747 9.29504 16.7209 9.64881C16.3672 10.0026 15.9326 10.1794 15.4174 10.1794C14.9021 10.1794 14.4676 10.0026 14.1138 9.64881ZM11.9913 17.3547L12.9141 19.5003C13.0372 19.8079 13.2602 19.9925 13.5832 20.054C13.9062 20.1155 14.1831 20.031 14.4138 19.8002L17.3208 16.8932C17.5361 16.6779 17.6899 16.4203 17.7822 16.1203C17.8745 15.8204 17.8899 15.5166 17.8283 15.209L17.5976 14.0093C16.7517 14.7168 15.8634 15.3513 14.9329 15.9127C14.0023 16.4741 13.0218 16.9548 11.9913 17.3547ZM4.49305 15.3705C5.03139 14.8322 5.68508 14.5592 6.45413 14.5515C7.22317 14.5438 7.87686 14.8091 8.4152 15.3475C8.95353 15.8858 9.2227 16.5395 9.2227 17.3085C9.2227 18.0776 8.95353 18.7313 8.4152 19.2696C7.67691 20.0079 6.80404 20.4462 5.79659 20.5847C4.78914 20.7231 3.77784 20.8615 2.7627 21C2.90112 19.9848 3.0434 18.9735 3.18952 17.9661C3.33564 16.9586 3.77015 16.0934 4.49305 15.3705Z" fill="#F9F8F7" fill-opacity="0.2"/>
</svg>
