<svg width="24" height="25" viewBox="0 0 24 25" fill="none" xmlns="http://www.w3.org/2000/svg">
<path d="M11.775 14.6542L8.15 11.0292C8.1 10.9792 8.0625 10.925 8.0375 10.8667C8.0125 10.8084 8 10.7459 8 10.6792C8 10.5459 8.04583 10.4292 8.1375 10.3292C8.22917 10.2292 8.35 10.1792 8.5 10.1792H16.1C16.25 10.1792 16.3708 10.2292 16.4625 10.3292C16.5542 10.4292 16.6 10.5459 16.6 10.6792C16.6 10.7125 16.55 10.8292 16.45 11.0292L12.825 14.6542C12.7417 14.7375 12.6583 14.7959 12.575 14.8292C12.4917 14.8625 12.4 14.8792 12.3 14.8792C12.2 14.8792 12.1083 14.8625 12.025 14.8292C11.9417 14.7959 11.8583 14.7375 11.775 14.6542Z" fill="#F9F8F7" fill-opacity="0.6"/>
</svg>
