<svg width="72" height="73" viewBox="0 0 72 73" fill="none" xmlns="http://www.w3.org/2000/svg">
<rect y="0.5" width="72" height="72" rx="36" fill="url(#paint0_linear_1721_603)"/>
<path d="M23.533 44.1299C23.7633 43.8996 24.08 43.7652 24.4159 43.7652L54.8749 43.7652C55.4316 43.7652 55.7098 44.437 55.3164 44.8304L49.2994 50.8474C49.0691 51.0777 48.7524 51.2121 48.4166 51.2121L17.9575 51.2121C17.4009 51.2121 17.1226 50.5403 17.5161 50.1469L23.533 44.1299Z" fill="white"/>
<path d="M23.533 21.6653C23.7729 21.4349 24.0896 21.3006 24.4159 21.3006L54.8749 21.3006C55.4316 21.3006 55.7098 21.9723 55.3164 22.3658L49.2994 28.3828C49.0691 28.6131 48.7524 28.7474 48.4166 28.7474L17.9575 28.7474C17.4009 28.7474 17.1226 28.0756 17.5161 27.6823L23.533 21.6653Z" fill="white"/>
<path d="M49.2994 32.8257C49.0691 32.5954 48.7524 32.461 48.4166 32.461L17.9575 32.461C17.4009 32.461 17.1226 33.1327 17.5161 33.5262L23.533 39.5431C23.7633 39.7734 24.08 39.9078 24.4159 39.9078L54.8749 39.9078C55.4316 39.9078 55.7098 39.2361 55.3164 38.8426L49.2994 32.8257Z" fill="white"/>
<defs>
<linearGradient id="paint0_linear_1721_603" x1="36" y1="0.5" x2="36" y2="72.5" gradientUnits="userSpaceOnUse">
<stop stop-color="#1CE3AF"/>
<stop offset="1" stop-color="#CD2FF9"/>
</linearGradient>
</defs>
</svg>
