<svg width="70" height="70" viewBox="0 0 70 70" fill="none" xmlns="http://www.w3.org/2000/svg">
<rect width="70" height="70" rx="35" fill="black"/>
<path d="M38.018 16.8831C38.4544 16.1755 39.5759 16.4368 39.6547 17.2643L40.8072 29.3732C40.8425 29.7433 41.1187 30.0527 41.4915 30.1396L53.6878 32.9807C54.5213 33.1749 54.6273 34.2884 53.8425 34.6057L42.3585 39.2482C42.0075 39.3901 41.7937 39.7368 41.8289 40.1069L42.9815 52.2158C43.0603 53.0434 42.0042 53.4703 41.4404 52.8388L33.1903 43.5991C32.9382 43.3167 32.5298 43.2216 32.1788 43.3635L20.6948 48.0061C19.91 48.3234 19.1513 47.4737 19.5877 46.7661L25.9729 36.4132C26.168 36.0967 26.1294 35.6913 25.8773 35.4089L17.6272 26.1692C17.0634 25.5377 17.6505 24.5857 18.4841 24.7799L30.6804 27.6211C31.0532 27.7079 31.4377 27.5525 31.6328 27.236L38.018 16.8831Z" fill="url(#paint0_linear_2003_6768)"/>
<path fill-rule="evenodd" clip-rule="evenodd" d="M35 63.4375C50.7056 63.4375 63.4375 50.7056 63.4375 35C63.4375 19.2944 50.7056 6.5625 35 6.5625C19.2944 6.5625 6.5625 19.2944 6.5625 35C6.5625 50.7056 19.2944 63.4375 35 63.4375ZM35 65.625C51.9137 65.625 65.625 51.9137 65.625 35C65.625 18.0863 51.9137 4.375 35 4.375C18.0863 4.375 4.375 18.0863 4.375 35C4.375 51.9137 18.0863 65.625 35 65.625Z" fill="url(#paint1_linear_2003_6768)"/>
<defs>
<linearGradient id="paint0_linear_2003_6768" x1="19.6876" y1="29.1666" x2="50.3126" y2="44.4791" gradientUnits="userSpaceOnUse">
<stop stop-color="#C45B85"/>
<stop offset="0.315353" stop-color="#FF8C65"/>
<stop offset="0.507527" stop-color="#FFF423"/>
<stop offset="0.785" stop-color="#AFE649"/>
<stop offset="1" stop-color="#4EF0D2"/>
</linearGradient>
<linearGradient id="paint1_linear_2003_6768" x1="9.30606" y1="33.623" x2="63.5332" y2="45.5957" gradientUnits="userSpaceOnUse">
<stop stop-color="#C45B85"/>
<stop offset="0.315353" stop-color="#FF8C65"/>
<stop offset="0.507527" stop-color="#FFF423"/>
<stop offset="0.785" stop-color="#AFE649"/>
<stop offset="1" stop-color="#4EF0D2"/>
</linearGradient>
</defs>
</svg>
