<svg width="70" height="70" viewBox="0 0 70 70" fill="none" xmlns="http://www.w3.org/2000/svg">
<rect width="70" height="70" rx="35" fill="#8038F6"/>
<path fill-rule="evenodd" clip-rule="evenodd" d="M56.3922 35.6361C56.3878 35.7807 56.1909 35.8189 56.1341 35.6857C56.1097 35.6282 56.0848 35.5705 56.0594 35.5128C56.013 35.4072 56.026 35.2844 56.0953 35.1921C56.1095 35.1732 56.1387 35.135 56.1735 35.0895C56.2671 34.9671 56.4021 34.9854 56.4021 35.1212C56.4021 35.2993 56.3979 35.4536 56.3922 35.6361ZM55.3564 32.8074C55.1969 33.0947 54.7879 33.1079 54.6108 32.8309C54.5833 32.7881 54.5556 32.7453 54.5277 32.7023C53.8893 31.7221 53.1547 30.7599 52.3341 29.8248C52.1327 29.5952 52.2974 29.2349 52.603 29.2347H52.6103C54.5277 29.2347 55.5329 29.7084 55.8397 30.2867C56.0957 30.7704 56.0172 31.6163 55.3564 32.8074ZM54.9279 42.8344C54.825 43.096 54.7174 43.356 54.6043 43.6135C54.5867 43.649 54.5701 43.6849 54.5518 43.7201C53.8461 45.0785 52.6619 46.1481 51.0795 46.8924C50.7244 47.0592 50.336 46.7344 50.4417 46.3567C50.9672 44.476 51.3649 42.4365 51.6226 40.2983C51.6706 39.8996 51.8672 39.5337 52.1711 39.2709C52.8218 38.7079 53.4296 38.1457 53.9886 37.5875L53.9947 37.5812C54.2698 37.3067 54.739 37.4249 54.8511 37.7972C55.4034 39.6331 55.434 41.3432 54.9279 42.8344ZM50.6264 49.6242C50.4655 49.7963 50.3011 49.9663 50.1337 50.1337C49.842 50.425 49.5434 50.7068 49.2383 50.979C49.0458 51.1504 48.7548 50.936 48.8637 50.7022C48.8947 50.6355 48.9256 50.5683 48.9562 50.5005C49.0844 50.2179 49.2083 49.9279 49.3287 49.6324C49.3572 49.5627 49.4173 49.5107 49.4903 49.492C49.7937 49.415 50.0896 49.33 50.3777 49.237C50.6113 49.1619 50.7943 49.445 50.6264 49.6242ZM47.4676 47.9265C46.8288 48.0191 46.1571 48.0789 45.4543 48.1036C43.7396 48.1637 41.9265 48.0157 40.0641 47.6728C39.8371 47.6311 39.7934 47.3241 39.9993 47.22C40.4055 47.0143 40.812 46.8041 41.2183 46.5887C44.068 45.0783 46.727 43.4272 49.0546 41.7343C49.2292 41.6074 49.4697 41.7572 49.4343 41.9702C49.1115 43.9102 48.6645 45.7366 48.1032 47.3944C48.0075 47.6768 47.7628 47.8837 47.4676 47.9265ZM46.8088 50.5112C45.2809 53.5163 43.3992 55.2034 41.5752 55.1694C39.5928 55.1342 37.616 53.0697 36.1521 49.5058L36.1504 49.5019C36.0575 49.2756 36.1643 49.0167 36.3884 48.9193C36.4039 48.9124 36.4195 48.9057 36.435 48.8988C36.5311 48.857 36.639 48.8494 36.7401 48.878C39.4784 49.6464 42.1765 50.0475 44.7043 50.0475C44.979 50.0475 45.2518 50.0428 45.5223 50.0334C45.8389 50.0221 46.1506 50.0042 46.4567 49.9799C46.7406 49.9574 46.9381 50.2573 46.8088 50.5112ZM37.761 56.2258C36.8526 56.3425 35.9307 56.4023 34.9999 56.4023C30.8398 56.4023 26.8609 55.2234 23.4448 53.0235C23.2097 52.872 23.3096 52.5073 23.5889 52.4945C23.6469 52.4918 23.701 52.4888 23.7486 52.4859C24.6168 52.4295 25.5686 52.3023 26.6001 52.1036C28.794 51.6816 31.2329 50.9576 33.7865 49.9826C34.0155 49.8953 34.271 50.0089 34.3642 50.2355L34.3659 50.2395C35.3555 52.649 36.5735 54.4696 37.9411 55.6277C38.1671 55.8193 38.0548 56.188 37.761 56.2258ZM25.3844 41.2301C27.2703 39.6944 29.48 38.1621 31.904 36.7114C31.956 39.8117 32.296 42.7882 32.8976 45.4768C31.9986 45.0934 31.1023 44.6712 30.2138 44.2097C28.4929 43.3153 26.8737 42.3135 25.3844 41.2301ZM19.5194 49.5371C19.0694 48.6883 19.6509 46.722 22.605 43.7336L22.6064 43.7321C22.9149 43.4205 22.8853 42.9091 22.541 42.6377C22.4226 42.5448 22.3051 42.4508 22.1884 42.3567C21.8942 42.119 21.4684 42.1408 21.2013 42.4084C21.1427 42.4669 21.0991 42.511 21.0863 42.5242C19.6096 44.0399 18.5761 45.443 17.9971 46.705C17.833 47.0626 17.3374 47.1012 17.1204 46.773C14.8286 43.3086 13.5976 39.2491 13.5976 34.9999C13.5976 33.4808 13.7555 31.9858 14.0625 30.5337C14.1088 30.314 14.4188 30.2999 14.4838 30.5148C14.9279 31.9808 15.6506 33.4972 16.6493 35.0305C17.9935 37.095 19.7663 39.0795 21.8671 40.9C22.5842 41.5213 23.3415 42.1223 24.1314 42.7021C25.7325 43.8771 27.4724 44.9614 29.3235 45.9231C30.144 46.3495 30.9431 46.7564 31.7615 47.1249C32.2171 47.3299 32.7356 47.3459 33.2006 47.1633C33.5865 47.0122 33.9752 46.855 34.3661 46.6916C34.7913 46.5142 35.0219 46.0507 34.9092 45.6039C34.8951 45.5481 34.884 45.5032 34.8777 45.4768C34.2333 42.7647 33.8751 39.7116 33.8329 36.5137L33.8316 36.5144C33.8312 36.4764 33.8314 36.4378 33.831 36.3994C33.8291 36.2246 33.8302 36.0485 33.827 35.8741C33.826 35.8185 33.8276 35.7243 33.8283 35.6685C33.8287 35.6462 33.8283 35.6242 33.8283 35.6021L33.8291 35.6019C33.8302 35.4017 33.8316 35.2018 33.8352 35.0009C33.8451 34.4524 33.8648 33.9078 33.8931 33.3677L33.8921 33.3683C34.0908 29.5094 34.7451 25.8834 35.7862 22.8333C35.8825 22.5511 35.732 22.2447 35.4498 22.1484C35.1747 22.0544 34.8998 21.9645 34.6253 21.8785C34.3476 21.7914 34.0509 21.9412 33.9571 22.2168C32.8288 25.5292 32.1325 29.4591 31.9468 33.6176C31.9231 34.1452 31.636 34.6253 31.1817 34.8945C28.7187 36.3542 26.4567 37.9017 24.5026 39.4615C24.0955 39.7865 23.514 39.7741 23.1203 39.4327C21.1618 37.7346 19.5135 35.8903 18.2674 33.9767C15.8187 30.2166 15.2368 26.6744 16.6293 24.0043C16.6331 23.998 16.6365 23.9915 16.64 23.9854C16.8176 23.6907 17.0022 23.4001 17.1944 23.1135C18.7945 20.9955 21.7727 19.7681 25.7225 19.6293C25.9724 19.6205 26.224 19.6161 26.4779 19.6161C28.9006 19.6161 31.5006 20.0159 34.1449 20.7789L34.1456 20.7783C34.2035 20.7951 34.2614 20.8125 34.3193 20.8295C34.364 20.8427 34.4087 20.8551 34.4534 20.8685C35.0645 21.0511 35.6772 21.2536 36.2908 21.4743C36.3051 21.4794 36.3196 21.4846 36.3339 21.4896C36.4938 21.5474 36.6535 21.6065 36.8131 21.6668C36.8631 21.6856 36.9132 21.7047 36.9632 21.724C37.0112 21.7425 37.0593 21.7604 37.1076 21.779L37.1069 21.7799C38.3983 22.2797 39.6887 22.861 40.9629 23.5233C43.4292 24.8046 45.6868 26.3067 47.6514 27.9547C43.902 28.8136 39.5439 30.4705 35.1621 32.7046C34.96 32.8078 34.8269 33.0109 34.8141 33.2376C34.7988 33.5091 34.7787 34.0551 34.7642 34.4891C34.7552 34.7615 35.0433 34.942 35.2846 34.8152L35.2871 34.8137C39.6255 32.5356 43.9553 30.8329 47.6736 29.9331C48.3686 29.765 48.8186 29.0975 48.721 28.3892C48.6526 27.8944 48.5756 27.4074 48.4904 26.9289C48.3833 26.3279 48.0543 25.7905 47.5687 25.4207C45.8272 24.0941 43.9079 22.8772 41.8533 21.8095C40.4687 21.0901 39.0638 20.4597 37.6559 19.9221C37.3548 19.8071 37.2257 19.4512 37.3829 19.1698C38.8334 16.575 40.5585 15.1218 42.2392 15.1218C42.2566 15.1218 42.274 15.1218 42.2914 15.1222C44.2739 15.1577 46.2507 17.222 47.7146 20.7858C48.4555 22.5899 49.0297 24.6703 49.4221 26.9312C49.42 26.9293 49.4179 26.9277 49.416 26.9258C49.5835 27.8906 49.7184 28.8878 49.8185 29.9109C49.8099 29.9163 49.8007 29.9211 49.792 29.9266C49.8038 29.9386 49.8162 29.9505 49.8281 29.9627C49.9941 31.6792 50.0642 33.4667 50.0315 35.2907C50.0109 36.4445 49.9494 37.5823 49.85 38.6955C47.1977 40.8389 43.9184 42.972 40.3138 44.8823C39.1292 45.5101 37.9449 46.0946 36.772 46.6326C36.7538 46.641 36.7357 46.6492 36.7175 46.6576C36.6279 46.6985 36.538 46.74 36.4484 46.7805L36.4463 46.7799C35.4745 47.2195 34.512 47.6262 33.5653 47.9977L33.5658 47.9985C33.5122 48.0195 33.4591 48.0396 33.4058 48.0604C33.3393 48.0864 33.2728 48.112 33.2065 48.1376C33.0476 48.1985 32.8894 48.2585 32.7316 48.3175C32.6882 48.3336 32.6445 48.3506 32.6011 48.3666C32.4095 48.4377 32.2189 48.5068 32.029 48.5747C32.0053 48.5831 31.9816 48.5922 31.9581 48.6006L31.9573 48.6001C29.9287 49.3226 27.9962 49.8685 26.2351 50.2074C21.9796 51.0266 19.9758 50.3981 19.5194 49.5371ZM22.5758 17.5686C26.1776 14.9894 30.4816 13.5977 34.9999 13.5977C36.1924 13.5977 37.3697 13.6953 38.5232 13.8856C38.8321 13.9366 38.9358 14.3309 38.6894 14.5242C37.5715 15.4005 36.533 16.6971 35.6139 18.3786C35.3895 18.7889 34.9138 18.9895 34.4639 18.8628C31.4188 18.0055 28.4228 17.6022 25.6547 17.6994C24.6336 17.7353 23.6666 17.8387 22.7582 18.0062C22.503 18.0532 22.3649 17.7195 22.5758 17.5686ZM51.9541 33.1666C51.9478 32.9213 52.2626 32.8166 52.4049 33.0164C52.5797 33.2617 52.7482 33.5083 52.9096 33.7561C53.124 34.0856 53.3236 34.4131 53.5091 34.7386C53.6247 34.9415 53.597 35.1961 53.4396 35.3686C53.1897 35.6431 52.9186 35.9268 52.6242 36.221C52.5167 36.3282 52.4072 36.4357 52.2955 36.5433C52.157 36.6772 51.9247 36.5752 51.9323 36.3826C51.9459 36.0315 51.956 35.6792 51.9623 35.3251C51.9753 34.5999 51.9722 33.8799 51.9541 33.1666ZM49.7346 19.4774C49.8691 19.605 50.0021 19.7347 50.1337 19.8663C52.1961 21.9287 53.7846 24.3385 54.8469 26.9631C54.9541 27.2277 54.7294 27.5047 54.4484 27.4542C53.8337 27.3438 53.1421 27.2945 52.3763 27.3073C51.8456 27.3161 51.3844 26.9442 51.2912 26.4217C50.8751 24.0884 50.2734 21.9331 49.5008 20.052C49.4567 19.9447 49.4122 19.8388 49.3671 19.7338C49.2689 19.5049 49.5539 19.3058 49.7346 19.4774ZM57.8292 30.1469C56.9072 25.7659 54.739 21.7406 51.499 18.5006C47.0919 14.0935 41.2326 11.6667 34.9999 11.6667C28.7674 11.6667 22.9078 14.0935 18.5008 18.5006C17.4288 19.5725 16.4755 20.7306 15.6443 21.9587C15.3971 22.2877 15.1757 22.6352 14.9789 22.9989C12.8197 26.5867 11.6666 30.7047 11.6666 34.9999C11.6666 41.2326 14.0937 47.092 18.5008 51.499C22.9078 55.906 28.7674 58.3333 34.9999 58.3333C41.2326 58.3333 47.0919 55.906 51.499 51.499C53.579 49.4192 55.2173 47.0156 56.3681 44.4021C56.5087 44.1125 56.6314 43.816 56.737 43.5136C57.7845 40.8368 58.3333 37.9606 58.3333 34.9999C58.3333 33.3702 58.1658 31.7668 57.842 30.2074C57.8376 30.1872 57.8336 30.1671 57.8292 30.1469Z" fill="white"/>
</svg>
