<svg width="24" height="24" viewBox="0 0 24 24" fill="none" xmlns="http://www.w3.org/2000/svg">
<path d="M10.6222 12.8667L11.7778 14.0222C11.9407 14.1852 12.1481 14.2667 12.4 14.2667C12.6519 14.2667 12.8593 14.1852 13.0222 14.0222L15.5556 11.4889V12.0222C15.5556 12.2741 15.6407 12.4815 15.8111 12.6444C15.9815 12.8074 16.1926 12.8889 16.4444 12.8889C16.6963 12.8889 16.9074 12.8037 17.0778 12.6333C17.2481 12.463 17.3333 12.2519 17.3333 12V9.33333C17.3333 9.08148 17.2481 8.87037 17.0778 8.7C16.9074 8.52963 16.6963 8.44444 16.4444 8.44444H13.7556C13.5037 8.44444 13.2963 8.52963 13.1333 8.7C12.9704 8.87037 12.8889 9.08148 12.8889 9.33333C12.8889 9.58519 12.9741 9.7963 13.1444 9.96667C13.3148 10.137 13.5259 10.2222 13.7778 10.2222H14.2889L12.4 12.1333L11.2444 10.9778C11.0815 10.8 10.8741 10.7111 10.6222 10.7111C10.3704 10.7111 10.163 10.8 10 10.9778L7.28889 13.6889C7.11111 13.8519 7.02222 14.0593 7.02222 14.3111C7.02222 14.563 7.11111 14.7704 7.28889 14.9333C7.45185 15.1111 7.65926 15.2 7.91111 15.2C8.16296 15.2 8.37037 15.1111 8.53333 14.9333L10.6222 12.8667ZM5.77778 20C5.28889 20 4.87037 19.8259 4.52222 19.4778C4.17407 19.1296 4 18.7111 4 18.2222V5.77778C4 5.28889 4.17407 4.87037 4.52222 4.52222C4.87037 4.17407 5.28889 4 5.77778 4H18.2222C18.7111 4 19.1296 4.17407 19.4778 4.52222C19.8259 4.87037 20 5.28889 20 5.77778V18.2222C20 18.7111 19.8259 19.1296 19.4778 19.4778C19.1296 19.8259 18.7111 20 18.2222 20H5.77778Z" fill="#F9F8F7" fill-opacity="0.2"/>
</svg>
