<svg width="48" height="48" viewBox="0 0 48 48" fill="none" xmlns="http://www.w3.org/2000/svg">
<g clip-path="url(#clip0_611_14111)">
<path d="M24 48C37.3001 48 48 37.3001 48 24C48 10.6999 37.3001 0 24 0C10.6999 0 0 10.6999 0 24C0 37.3001 10.6999 48 24 48Z" fill="#2775CA"/>
<path d="M30.5991 27.8C30.5991 24.3 28.4991 23.1 24.2991 22.6001C21.2991 22.2 20.6991 21.4001 20.6991 20C20.6991 18.5998 21.6992 17.7 23.6991 17.7C25.4991 17.7 26.4992 18.3 26.9991 19.8C27.0992 20.1 27.3992 20.3 27.6992 20.3H29.2991C29.6991 20.3 29.9991 20 29.9991 19.6001V19.5C29.5991 17.3 27.7991 15.6 25.4991 15.4001V13.0001C25.4991 12.6 25.1991 12.3 24.6992 12.2H23.1992C22.7991 12.2 22.4991 12.5 22.3991 13.0001V15.3C19.3991 15.7001 17.4992 17.7 17.4992 20.2001C17.4992 23.5001 19.4991 24.8 23.6991 25.3001C26.4992 25.8 27.3992 26.4 27.3992 28.0001C27.3992 29.6002 25.9991 30.7001 24.0992 30.7001C21.4991 30.7001 20.5991 29.6 20.2991 28.1C20.1992 27.7001 19.8992 27.5 19.5992 27.5H17.8991C17.4992 27.5 17.1992 27.8 17.1992 28.2V28.3001C17.5991 30.8 19.1991 32.6 22.4991 33.1001V35.5001C22.4991 35.9 22.7991 36.2 23.2991 36.3H24.7991C25.1991 36.3 25.4991 36 25.5992 35.5001V33.1001C28.5992 32.6 30.5991 30.5 30.5991 27.8Z" fill="#F7F7F7"/>
<path d="M18.9 38.3C11.1 35.5001 7.09992 26.8001 10.0001 19.1C11.5001 14.9 14.8001 11.7 18.9 10.2C19.3001 10.0001 19.5 9.70012 19.5 9.19996V7.80004C19.5 7.39996 19.3001 7.09996 18.9 7.00012C18.7999 7.00012 18.6 7.00012 18.4999 7.09996C9 10.1 3.79992 20.2001 6.79992 29.7C8.59992 35.3 12.9 39.6 18.4999 41.4C18.9 41.6 19.3001 41.4 19.3999 41C19.5 40.9001 19.5 40.8 19.5 40.6001V39.2C19.5 38.9 19.2 38.5001 18.9 38.3ZM29.5001 7.09996C29.1 6.90004 28.6999 7.09996 28.6001 7.50004C28.5 7.60012 28.5 7.69996 28.5 7.90012V9.30004C28.5 9.70012 28.8 10.1 29.1 10.3001C36.9 13.1 40.9001 21.8 37.9999 29.5001C36.4999 33.7001 33.1999 36.9 29.1 38.4C28.6999 38.6 28.5 38.9 28.5 39.4001V40.8C28.5 41.2001 28.6999 41.5001 29.1 41.6C29.2001 41.6 29.4 41.6 29.5001 41.5001C39 38.5001 44.2001 28.4 41.2001 18.9C39.4001 13.2 34.9999 8.89996 29.5001 7.09996Z" fill="#F7F7F7"/>
</g>
<defs>
<clipPath id="clip0_611_14111">
<rect width="48" height="48" fill="white"/>
</clipPath>
</defs>
</svg>
