<svg width="72" height="73" viewBox="0 0 72 73" fill="none" xmlns="http://www.w3.org/2000/svg">
<rect y="0.5" width="72" height="72" rx="36" fill="url(#paint0_linear_1721_490)"/>
<path fill-rule="evenodd" clip-rule="evenodd" d="M24.1471 22.3786H48.3387C48.9159 22.3786 49.4492 22.6883 49.737 23.1909L56.785 35.4952C57.1505 36.1333 57.0419 36.9386 56.5206 37.4561L37.1208 56.7108C36.4923 57.3345 35.4814 57.3345 34.853 56.7108L15.4794 37.4821C14.946 36.9526 14.8461 36.1238 15.2383 35.4817L22.7721 23.1514C23.0655 22.6712 23.5862 22.3786 24.1471 22.3786ZM45.2151 27.872V31.3244H38.3239V33.7181C43.1639 33.9739 46.7951 35.0244 46.822 36.2837L46.8218 38.9088C46.7949 40.1681 43.1639 41.2186 38.3239 41.4744V47.3487H33.748V41.4744C28.9081 41.2186 25.2769 40.1681 25.25 38.9088L25.2501 36.2837C25.2771 35.0244 28.9081 33.9739 33.748 33.7181V31.3244H26.8568V27.872H45.2151ZM36.036 39.671C41.201 39.671 45.5182 38.7826 46.5747 37.5963C45.6787 36.5903 42.438 35.7985 38.3239 35.581V38.0872C37.5866 38.1262 36.821 38.1467 36.036 38.1467C35.2509 38.1467 34.4855 38.1262 33.748 38.0872V35.581C29.6339 35.7985 26.3932 36.5903 25.4973 37.5963C26.5538 38.7826 30.8709 39.671 36.036 39.671Z" fill="white"/>
<defs>
<linearGradient id="paint0_linear_1721_490" x1="36" y1="0.5" x2="36" y2="72.5" gradientUnits="userSpaceOnUse">
<stop stop-color="#5FC6C6"/>
<stop offset="1" stop-color="#0BDBDB"/>
</linearGradient>
</defs>
</svg>
