<svg width="24" height="24" viewBox="0 0 24 24" fill="none" xmlns="http://www.w3.org/2000/svg">
<path d="M11.3298 9.28723L6.70223 13.9148C6.6384 13.9787 6.59053 14.0478 6.55861 14.1223C6.5267 14.1968 6.51074 14.2765 6.51074 14.3616C6.51074 14.5319 6.56925 14.6808 6.68627 14.8085C6.80329 14.9361 6.95755 14.9999 7.14903 14.9999H16.8511C17.0426 14.9999 17.1968 14.9361 17.3138 14.8085C17.4308 14.6808 17.4894 14.5319 17.4894 14.3616C17.4894 14.3191 17.4255 14.1702 17.2979 13.9148L12.6703 9.28723C12.5639 9.18085 12.4575 9.10638 12.3511 9.06383C12.2447 9.02128 12.1277 9 12 9C11.8724 9 11.7554 9.02128 11.649 9.06383C11.5426 9.10638 11.4362 9.18085 11.3298 9.28723Z" fill="#37D56D"/>
</svg>
