<svg width="24" height="24" viewBox="0 0 24 24" fill="none" xmlns="http://www.w3.org/2000/svg">
<path d="M11.3299 14.7128L6.70223 10.0851C6.6384 10.0213 6.59053 9.95213 6.55861 9.87766C6.5267 9.80319 6.51074 9.7234 6.51074 9.6383C6.51074 9.46809 6.56925 9.31915 6.68627 9.19149C6.8033 9.06383 6.95755 9 7.14904 9H16.8512C17.0427 9 17.1969 9.06383 17.3139 9.19149C17.431 9.31915 17.4895 9.46809 17.4895 9.6383C17.4895 9.68085 17.4256 9.82979 17.298 10.0851L12.6703 14.7128C12.5639 14.8191 12.4576 14.8936 12.3512 14.9362C12.2448 14.9787 12.1278 15 12.0001 15C11.8724 15 11.7554 14.9787 11.649 14.9362C11.5427 14.8936 11.4363 14.8191 11.3299 14.7128Z" fill="#F99575"/>
</svg>
