<svg width="456" height="268" viewBox="0 0 456 268" fill="none" xmlns="http://www.w3.org/2000/svg">
<rect y="93.8013" width="79.99" height="79.99" rx="23.0187" fill="url(#paint0_linear_2004_4739)"/>
<mask id="mask0_2004_4739" style="mask-type:luminance" maskUnits="userSpaceOnUse" x="9" y="116" width="37" height="36">
<path d="M27.3604 134.141C27.3604 134.148 27.3604 134.149 27.3604 134.148C27.3607 134.146 27.3607 134.143 27.3604 134.141ZM30.9572 130.979L34.5561 127.824L38.1561 124.667L41.761 121.511L38.1602 124.668L34.5561 127.824L30.9552 130.983L27.3552 134.139C27.3491 134.139 27.345 134.119 27.3552 134.131C27.3696 134.114 27.3552 134.126 27.3552 134.131L30.9552 130.975M22.8414 117.64C20.5224 118.555 18.3788 119.864 16.5052 121.508L16.497 121.515C14.6154 123.164 13.031 125.125 11.813 127.311C10.63 129.428 9.84444 131.743 9.49507 134.142C9.27106 135.789 9.27383 137.458 9.50329 139.104C9.91507 141.929 11.1083 144.582 12.9484 146.764L12.9545 146.771C14.3941 148.436 16.1875 149.758 18.2036 150.64C20.2997 151.547 22.5608 152.01 24.8445 151.999C27.2493 151.986 29.6307 151.525 31.867 150.64C34.186 149.724 36.3298 148.416 38.2043 146.771L38.2114 146.764C40.0929 145.116 41.6769 143.156 42.8944 140.971C44.0785 138.854 44.8645 136.538 45.2133 134.138C45.2133 134.138 45.2502 133.846 45.3046 133.262C45.3261 132.97 45.3743 132.604 45.3765 132.17C45.3784 131.736 45.3836 131.227 45.3589 130.653C45.2707 129.514 45.1067 128.089 44.5631 126.505C43.9618 124.675 43.0102 122.979 41.761 121.511C40.5041 120.059 38.9744 118.867 37.2586 118.003C35.7787 117.235 34.4002 116.875 33.2966 116.623C32.7377 116.521 32.2403 116.451 31.8146 116.394C31.389 116.336 31.0249 116.332 30.7367 116.313C30.1592 116.285 29.8679 116.281 29.8679 116.281C27.4631 116.293 25.0816 116.754 22.8455 117.64" fill="white"/>
</mask>
<g mask="url(#mask0_2004_4739)">
<circle cx="30.463" cy="132.994" r="23.4286" transform="rotate(180 30.463 132.994)" fill="url(#paint1_angular_2004_4739)"/>
</g>
<mask id="mask1_2004_4739" style="mask-type:luminance" maskUnits="userSpaceOnUse" x="34" y="116" width="37" height="36">
<path d="M52.752 134.028L52.7571 134.022V134.028M52.7674 134.028C52.7735 134.028 52.7766 134.048 52.7622 134.035L52.7674 134.028ZM52.752 134.035C52.7525 134.038 52.7525 134.04 52.752 134.043V134.035ZM48.2392 117.545C45.9203 118.46 43.7768 119.769 41.9029 121.413L41.8958 121.419C40.0149 123.069 38.4306 125.028 37.2118 127.213C36.0294 129.325 35.2425 131.636 34.8898 134.03C34.8898 134.03 34.8529 134.323 34.7985 134.906C34.778 135.197 34.7297 135.564 34.7278 135.999C34.7256 136.433 34.7196 136.94 34.7452 137.514C34.8334 138.654 34.9974 140.078 35.541 141.663C36.1435 143.494 37.0963 145.19 38.3461 146.657C39.6038 148.109 41.1338 149.301 42.8496 150.165C44.3286 150.934 45.708 151.294 46.8116 151.545C47.3696 151.648 47.8669 151.717 48.2925 151.775C48.7182 151.832 49.0823 151.836 49.3705 151.856C49.9489 151.883 50.2393 151.887 50.2393 151.887C52.6444 151.874 55.0263 151.413 57.2626 150.529C59.5844 149.614 61.7306 148.305 63.6072 146.66L63.6144 146.654C65.4955 145.004 67.0797 143.044 68.2974 140.859C69.4812 138.742 70.2677 136.426 70.6175 134.026C70.8405 132.379 70.8378 130.709 70.609 129.063C70.1969 126.239 69.0033 123.585 67.163 121.403V121.397C65.7235 119.732 63.9302 118.41 61.9138 117.528C59.8182 116.621 57.5568 116.158 55.2731 116.169C52.8677 116.182 50.486 116.643 48.2495 117.528" fill="white"/>
</mask>
<g mask="url(#mask1_2004_4739)">
<circle cx="53.0744" cy="131.632" r="20.9767" fill="url(#paint2_angular_2004_4739)"/>
</g>
<rect x="35.6797" y="187.603" width="79.99" height="79.99" rx="23.0187" fill="url(#paint3_radial_2004_4739)"/>
<path fill-rule="evenodd" clip-rule="evenodd" d="M77.9433 217.951L80.9782 204.648C81.0345 204.396 81.289 204.243 81.5398 204.305C92.2144 206.913 100.132 216.48 100.132 227.885C100.132 239.29 92.2144 248.857 81.5398 251.465C81.289 251.526 81.0357 251.373 80.9782 251.122L77.9433 237.819C77.8386 237.361 78.0999 236.895 78.5498 236.751C82.3236 235.546 85.0559 232.033 85.0559 227.885C85.0559 223.737 82.3236 220.224 78.5498 219.019C78.0999 218.876 77.8386 218.409 77.9433 217.951ZM72.8016 236.751C73.2517 236.894 73.5129 237.361 73.4081 237.82L70.3721 251.123C70.3157 251.374 70.0614 251.527 69.8104 251.466C59.1359 248.858 51.2178 239.29 51.2178 227.885C51.2178 216.48 59.1359 206.913 69.8104 204.305C70.0614 204.245 70.3145 204.398 70.3721 204.648L73.4071 217.951C73.5118 218.409 73.2505 218.876 72.8005 219.02C69.0267 220.224 66.2945 223.737 66.2945 227.885C66.2945 232.034 69.0267 235.547 72.8016 236.751Z" fill="white"/>
<rect x="129.48" y="187.603" width="79.99" height="79.99" rx="23.0187" fill="#FF5500"/>
<path d="M169.763 202.565C164.755 202.565 159.859 204.05 155.696 206.832C151.532 209.614 148.286 213.569 146.37 218.196C144.453 222.822 143.952 227.914 144.929 232.825C145.906 237.737 148.317 242.249 151.859 245.79C155.4 249.331 159.911 251.743 164.823 252.72C169.735 253.697 174.826 253.195 179.453 251.279C184.079 249.362 188.034 246.117 190.816 241.953C193.599 237.789 195.084 232.893 195.084 227.885C195.084 221.17 192.416 214.73 187.667 209.981C182.919 205.233 176.478 202.565 169.763 202.565ZM178.616 240.544H160.911C159.902 240.544 158.933 240.143 158.219 239.429C157.505 238.715 157.104 237.747 157.104 236.737V219.032C157.104 218.023 157.505 217.054 158.219 216.34C158.933 215.626 159.902 215.225 160.911 215.225H178.616C179.626 215.225 180.594 215.626 181.308 216.34C182.022 217.054 182.423 218.023 182.423 219.032V236.737C182.423 237.747 182.022 238.715 181.308 239.429C180.594 240.143 179.626 240.544 178.616 240.544Z" fill="white"/>
<g clip-path="url(#clip0_2004_4739)">
<rect x="93.8008" y="93.8013" width="79.99" height="79.99" rx="23.0187" fill="black"/>
<mask id="mask2_2004_4739" style="mask-type:alpha" maskUnits="userSpaceOnUse" x="92" y="92" width="88" height="88">
<path d="M160.426 92.0752H111.613C100.822 92.0752 92.0742 100.823 92.0742 111.614V160.427C92.0742 171.218 100.822 179.966 111.613 179.966H160.426C171.217 179.966 179.965 171.218 179.965 160.427V111.614C179.965 100.823 171.217 92.0752 160.426 92.0752Z" fill="white"/>
</mask>
<g mask="url(#mask2_2004_4739)">
<path d="M91.9834 98.1825C91.9834 94.7596 94.7582 91.9849 98.181 91.9849H173.797C177.22 91.9849 179.995 94.7596 179.995 98.1825V173.799C179.995 177.222 177.22 179.996 173.797 179.996H98.181C94.7582 179.996 91.9834 177.222 91.9834 173.799V98.1825Z" fill="white"/>
<path d="M92.0742 92.0752H180.106V180.107H92.0742V92.0752Z" fill="url(#paint4_radial_2004_4739)"/>
</g>
<path d="M133.772 134.913L92.0742 114.349V160.427C92.0742 171.218 100.822 179.966 111.613 179.966H157.691L134.097 135.229C134.025 135.091 133.911 134.98 133.772 134.912V134.913Z" fill="black"/>
<path d="M160.425 92.0752H114.348L138.262 136.972C138.334 137.108 138.448 137.218 138.586 137.286L179.965 157.692V111.614C179.964 100.823 171.216 92.0752 160.425 92.0752Z" fill="black"/>
</g>
<rect x="187.604" y="93.8013" width="79.99" height="79.99" rx="23.0187" fill="#E91179"/>
<path d="M244.659 146.229C240.432 146.229 237.013 142.739 237.013 138.439V126.772H246.875V119.986H237.013V108.763L229.456 112.874V119.986H215.123C205.132 119.986 202.507 132.253 210.192 136.82L218.005 142.171C219.734 143.476 219.029 146.216 216.596 146.216H205.965V153.067H216.596C226.651 153.067 229.212 140.801 221.527 136.233L213.778 130.883C212.049 129.578 212.69 126.772 215.123 126.772H229.456V138.53C229.456 147.404 235.476 153.074 244.57 153.074H246.875V146.229H244.659Z" fill="white"/>
<rect x="35.6797" width="79.99" height="79.99" rx="23.0187" fill="url(#paint5_linear_2004_4739)"/>
<path d="M95.5131 26.0761L90.1664 20.7295L83.4302 17.2996L75.9613 16.1143L68.4924 17.2996L61.7549 20.7295L56.4082 26.0761L52.9783 32.8137L51.793 40.2813L52.9783 47.7502L56.4082 54.4877L61.7549 59.8344L68.4924 63.268L75.9613 64.4534L83.4302 63.268L90.1677 59.8344L95.5143 54.4877L98.948 47.7502L100.132 40.2813L98.9468 32.8137L95.5131 26.0761Z" stroke="white" stroke-width="2.30187" stroke-miterlimit="10"/>
<path d="M81.4178 32.7744L75.959 23.6157" stroke="white" stroke-width="1.15093" stroke-linecap="round" stroke-linejoin="round"/>
<path d="M64.7314 24.8313L75.9594 23.6157L87.1911 24.8313" stroke="white" stroke-width="1.15093" stroke-miterlimit="10"/>
<path d="M70.5029 32.7706H81.4181M75.9593 23.6157L70.5029 32.7744" stroke="white" stroke-width="1.15093" stroke-linecap="round" stroke-linejoin="round"/>
<path d="M64.7314 24.8315L68.4917 17.3008L75.9594 23.6159L83.4283 17.3008L87.1911 24.8315" stroke="white" stroke-width="1.15093" stroke-miterlimit="10"/>
<path d="M90.1674 20.7295L75.9623 40.2825L61.7559 20.7295" stroke="white" stroke-width="1.15093" stroke-linecap="round" stroke-linejoin="round"/>
<path d="M60.1084 35.1303L70.5053 32.771L67.1322 43.1541L75.9629 49.5688L85.7634 53.7704M60.1084 35.1354L67.1322 43.1578" stroke="white" stroke-width="1.15093" stroke-linecap="round" stroke-linejoin="round"/>
<path d="M57.7918 46.1891L51.792 40.2851L60.107 35.1339M57.7918 46.1891L60.107 35.1339M57.7918 46.1891L66.1636 53.774L75.9616 59.3943L83.4292 63.2731L85.7608 53.7753L95.5121 54.494L94.13 46.1903M60.107 35.1339L56.4072 26.0799L64.7311 24.8315L60.107 35.1339Z" stroke="white" stroke-width="1.15093" stroke-miterlimit="10"/>
<path d="M67.1315 43.1538L66.1631 53.7714M66.1643 53.7689L75.961 49.5673" stroke="white" stroke-width="1.15093" stroke-linecap="round" stroke-linejoin="round"/>
<path d="M75.959 59.3941L68.4914 63.273L66.1623 53.7726L56.4072 54.4914L57.7905 46.189" stroke="white" stroke-width="1.15093" stroke-miterlimit="10"/>
<path d="M52.9795 47.7489L75.9625 40.28V64.4534M84.7932 43.1576L85.7604 53.774L94.1297 46.1891M84.7932 43.1576L81.4188 32.7746L91.8157 35.1339M84.7932 43.1576L91.817 35.1339L94.1297 46.1891M94.1297 46.1891L100.131 40.2851L91.8157 35.1339M91.8157 35.1339L95.513 26.0799L87.1917 24.8315L91.8157 35.1339ZM75.9599 40.28L98.9454 47.7489M75.9599 49.5698L84.792 43.1539" stroke="white" stroke-width="1.15093" stroke-linecap="round" stroke-linejoin="round"/>
<path d="M75.9599 59.3955L85.7604 53.774L90.1651 59.8394M75.9599 23.6134V16.1143M91.8145 35.1326L98.9454 32.8149M66.1645 53.7753L61.756 59.8394M60.1092 35.1326L52.9795 32.8149" stroke="white" stroke-width="1.15093" stroke-linecap="round" stroke-linejoin="round"/>
<g clip-path="url(#clip1_2004_4739)">
<rect x="129.48" width="79.99" height="79.99" rx="23.0187" fill="#121212"/>
<rect x="130.056" y="0.575684" width="79.4145" height="79.4145" rx="39.7072" fill="#121212"/>
<path d="M146.594 26.8408H156.322V40.4597H146.594V26.8408Z" fill="#FF661E"/>
<rect x="146.594" y="17.1128" width="9.72779" height="9.72779" rx="4.8639" fill="#FFCDC4"/>
<rect x="160.212" y="40.4595" width="9.72779" height="23.3467" fill="#EBFFBF"/>
<path d="M146.594 40.4595V40.4595C154.115 40.4595 160.213 46.5569 160.213 54.0784V63.8062H146.594V40.4595Z" fill="#12BB77"/>
<path d="M156.321 28.7861C156.321 22.3391 161.548 17.1128 167.995 17.1128H193.287V40.4595H167.995C161.548 40.4595 156.321 35.2331 156.321 28.7861V28.7861Z" fill="#F8C81D"/>
<path d="M166.048 28.7864C166.048 27.7119 166.919 26.8408 167.993 26.8408H193.286V30.7319H167.993C166.919 30.7319 166.048 29.8609 166.048 28.7864V28.7864Z" fill="#121212"/>
<path d="M169.939 52.1328C169.939 50.5999 170.241 49.0819 170.828 47.6656C171.414 46.2493 172.274 44.9625 173.358 43.8785C174.442 42.7945 175.729 41.9347 177.145 41.3481C178.561 40.7614 180.079 40.4595 181.612 40.4595L181.612 52.1328H169.939Z" fill="#CECBFF"/>
<path d="M193.286 52.1328C193.286 53.6658 192.984 55.1837 192.397 56.6C191.81 58.0163 190.951 59.3031 189.867 60.3871C188.783 61.4711 187.496 62.3309 186.08 62.9176C184.663 63.5042 183.145 63.8062 181.612 63.8062L181.612 52.1328H193.286Z" fill="#4B65FF"/>
<path d="M181.612 40.4595H193.286L181.612 52.1328V40.4595Z" fill="#CECBFF"/>
<path d="M181.612 63.8062H169.939L181.612 52.1328V63.8062Z" fill="#4B65FF"/>
</g>
<rect x="223.281" y="187.603" width="79.99" height="79.99" rx="23.0187" fill="#240A34"/>
<path d="M263.633 251.291C263.597 251.294 263.563 251.296 263.529 251.3C264.1 251.237 264.784 251.425 265.368 251.434C266.072 251.445 266.776 251.409 267.475 251.322C269.14 251.115 270.768 250.62 272.278 249.892C272.278 249.892 272.256 249.873 272.22 249.834C272.091 249.7 271.79 249.329 271.798 248.842C269.313 250.146 266.555 250.996 263.633 251.291Z" fill="#781C6D"/>
<path d="M243.991 243.241C242.413 241.338 241.145 239.172 240.261 236.818C240.3 237.432 240.365 238.067 240.461 238.723C240.467 238.76 240.473 238.8 240.478 238.838C240.514 239.074 240.537 239.295 240.548 239.503C241.057 241.956 242.064 244.452 244.269 246.491C244.269 246.491 244.254 246.442 244.233 246.357C244.231 246.351 244.229 246.345 244.229 246.34C243.983 245.898 243.353 244.543 243.991 243.241Z" fill="#781C6D"/>
<path d="M256.582 250.896C255.662 250.701 254.765 250.448 253.891 250.14C254.625 250.869 255.454 251.544 256.379 252.088C256.406 252.103 256.434 252.121 256.463 252.135C256.499 252.145 256.534 252.153 256.571 252.16C256.571 252.16 256.567 252.147 256.561 252.124C256.531 251.979 256.427 251.406 256.582 250.896Z" fill="#781C6D"/>
<path d="M244.746 213.728C247.744 210.461 251.697 208.081 256.164 207.031L255.039 206.897L254.998 206.891C255.013 206.899 255.026 206.906 255.039 206.914C255.039 206.914 245.972 206.619 240.862 213.8C240.862 213.8 240.889 213.796 240.936 213.792L240.94 213.79C240.965 213.785 241.004 213.773 241.059 213.758C241.557 213.626 243.226 213.256 244.746 213.728Z" fill="#781C6D"/>
<path d="M238.933 226.765C239.132 224.664 239.622 222.646 240.362 220.754C240.068 221.036 239.8 221.308 239.567 221.567C239.484 221.661 239.404 221.754 239.33 221.845C239.226 221.973 239.135 222.069 239.06 222.13C237.574 224.065 236.215 226.351 235.98 229.04C236.001 229.012 236.022 228.984 236.043 228.953C236.836 227.87 237.877 226.78 238.933 226.765Z" fill="#781C6D"/>
<path d="M284.026 224.919L283.608 225.457L283.551 225.531L283.28 225.55L282.476 225.605C282.686 226.644 282.796 227.721 282.796 228.823C282.796 233.054 281.176 236.905 278.525 239.796C276.952 242.145 274.978 243.577 273.046 244.484C272.983 244.512 272.923 244.541 272.86 244.568C272.474 244.743 272.092 244.896 271.713 245.033C271.696 245.038 271.679 245.046 271.662 245.051C268.941 246.025 266.52 246.1 265.71 246.446C265.563 246.508 265.468 246.58 265.436 246.669C264.959 247.958 266.729 248.577 266.729 248.577C261.24 249.08 257.833 246.531 255.572 244.683L255.566 244.679C254.468 243.78 253.641 243.048 252.977 242.916C252.937 242.907 252.9 242.901 252.862 242.897C250.854 242.706 250.901 244.376 250.901 244.376C247.984 240.367 246.982 234.256 245.117 234.781C243.251 235.306 243.157 237.026 243.157 237.026C241.722 233.254 243.109 228.528 245.45 226.427C247.793 224.327 247.22 221.557 245.45 221.653C243.683 221.748 242.965 223.086 242.965 223.086C242.952 223.021 242.941 222.957 242.931 222.893L242.965 222.846C242.965 222.846 243.187 217.768 250.242 215.011C250.806 214.79 251.416 214.584 252.072 214.397C262.614 211.389 251.857 206.806 261.73 212.235L261.702 212.258C254.65 214.04 249.432 220.418 249.432 228.012C249.432 232.706 251.425 236.935 254.614 239.9C252.409 237.542 250.903 234.53 250.416 231.187C250.415 231.181 250.415 231.174 250.413 231.168C250.413 231.162 250.411 231.158 250.411 231.153C250.301 230.391 250.244 229.614 250.244 228.823C250.244 228.43 250.258 228.04 250.286 227.655C250.288 227.632 250.29 227.61 250.292 227.587C250.922 219.189 257.947 212.572 266.52 212.572C266.844 212.572 267.166 212.581 267.485 212.6L266.564 207.037C264.891 206.64 263.146 206.43 261.352 206.43C259.567 206.43 257.83 206.638 256.164 207.031C251.698 208.082 247.744 210.461 244.746 213.728C245.072 213.828 245.39 213.968 245.689 214.157C247.385 215.23 242.928 218.307 240.361 220.754C239.621 222.645 239.131 224.664 238.933 226.765C239.112 226.763 239.294 226.791 239.474 226.856C241.484 227.583 239.898 231.325 240.261 236.818C241.145 239.173 242.413 241.338 243.991 243.241C244.118 242.978 244.298 242.718 244.542 242.466C246.262 240.701 248.749 242.228 249.993 244.615C250.695 245.962 251.978 248.241 253.891 250.14C254.766 250.448 255.663 250.702 256.582 250.896C256.681 250.569 256.883 250.269 257.279 250.119C257.304 250.108 257.326 250.101 257.353 250.091C257.761 249.963 258.358 249.983 259.221 250.27C260.506 250.698 261.951 251.1 263.53 251.301H263.537C266.495 251.015 269.286 250.16 271.798 248.842C271.798 248.842 271.786 248.48 271.932 248.205C272.1 247.89 272.463 247.642 272.752 247.438C273.263 247.08 273.836 246.819 274.419 246.6C274.947 246.401 275.433 246.261 276.044 245.96L276.049 245.956C279.997 242.559 282.75 237.817 283.597 232.443C283.639 232.174 284.021 232.161 284.081 232.426C284.082 232.431 284.084 232.436 284.085 232.441C284.119 232.169 284.147 231.893 284.172 231.612C284.348 229.62 284.322 227.396 284.026 224.919Z" fill="#451065"/>
<path d="M279.466 243.273C279.419 243.322 279.371 243.373 279.322 243.422C279.256 243.492 279.188 243.56 279.12 243.628C279.095 243.653 279.071 243.679 279.044 243.705C279.188 243.568 279.328 243.422 279.466 243.273Z" fill="white"/>
<path d="M282.43 218.484C282.224 220.857 281.862 223.505 281.253 226.36C280.756 228.696 280.164 230.832 279.544 232.753C280.17 232.473 280.796 232.194 281.422 231.915C281.179 233.488 280.167 238.211 276.528 240.967C273.876 242.891 270.579 244.066 266.992 244.153H266.986C266.848 244.155 266.711 244.157 266.571 244.157C257.557 244.157 250.248 237.283 250.248 228.805C250.248 222.423 254.592 216.156 261.295 215.233C261.823 215.97 262.57 216.737 263.696 216.736C267.396 216.736 268.975 216.21 270.982 216.736C272.988 217.264 275.152 219.425 275.152 219.425L277.106 217.475L277.739 219.425C277.739 219.425 279.709 215.705 279.709 211.91C279.709 211.91 276.681 214.367 274.044 209.778C273.093 206.932 256.938 203.452 256.093 196.81C256.093 196.81 253.348 202.925 259.789 206.299L253.348 203.347C253.348 203.347 253.764 205.741 255.752 207.638C250.365 208.615 246.756 211.414 244.345 214.778C244.424 214.917 244.477 215.08 244.494 215.268C244.613 216.577 243.636 217.968 242.589 218.671C242.387 218.806 242.179 218.928 241.969 219.046C239.783 224.183 239.544 229.435 239.595 231.201C242.615 248.948 262.454 249.129 262.691 249.129C271.353 249.129 278.87 243.821 282.135 236.313L282.138 236.307L282.139 236.303C282.903 234.543 283.435 232.662 283.691 230.7C284.953 222.275 282.43 218.484 282.43 218.484Z" fill="#451065"/>
<mask id="mask3_2004_4739" style="mask-type:luminance" maskUnits="userSpaceOnUse" x="239" y="196" width="46" height="54">
<path d="M259.789 206.299L253.348 203.347C253.348 203.347 253.764 205.74 255.752 207.638C240.533 210.398 239.494 227.69 239.595 231.201C242.615 248.947 262.454 249.129 262.691 249.129C271.353 249.129 278.87 243.821 282.135 236.312L282.139 236.307L282.139 236.302C282.904 234.542 283.435 232.662 283.691 230.7C284.953 222.275 282.431 218.484 282.431 218.484C282.224 220.856 281.862 223.505 281.253 226.359C280.756 228.696 280.165 230.832 279.544 232.753C280.17 232.473 280.796 232.194 281.423 231.914C281.179 233.488 280.167 238.211 276.528 240.967C273.876 242.891 270.579 244.066 266.992 244.153H266.986C266.849 244.155 266.711 244.157 266.571 244.157C257.557 244.157 250.248 237.283 250.248 228.805C250.248 222.423 254.592 216.156 261.295 215.233C261.823 215.97 262.57 216.737 263.696 216.736C267.396 216.735 268.975 216.209 270.982 216.736C272.988 217.264 275.152 219.425 275.152 219.425L277.106 217.475L277.739 219.425C277.739 219.425 279.709 215.705 279.709 211.91C279.709 211.91 276.681 214.366 274.044 209.778C273.093 206.931 256.938 203.452 256.093 196.81C256.093 196.81 253.348 202.925 259.789 206.299Z" fill="#8A267E"/>
</mask>
<g mask="url(#mask3_2004_4739)">
<path d="M253.833 202.885L275.727 212.986L277.441 217.474C276.592 216.358 275.215 214.831 273.155 213.62C269.411 211.419 266.387 212.011 263.105 211.158C260.295 210.427 255.859 208.454 253.833 202.885Z" fill="#8A267E"/>
</g>
<mask id="mask4_2004_4739" style="mask-type:luminance" maskUnits="userSpaceOnUse" x="239" y="196" width="46" height="54">
<path d="M259.789 206.299L253.348 203.347C253.348 203.347 253.764 205.74 255.752 207.638C240.533 210.398 239.494 227.69 239.595 231.201C242.615 248.947 262.454 249.129 262.691 249.129C271.353 249.129 278.87 243.821 282.135 236.312L282.139 236.307L282.139 236.302C282.904 234.542 283.435 232.662 283.691 230.7C284.953 222.275 282.431 218.484 282.431 218.484C282.224 220.856 281.862 223.505 281.253 226.359C280.756 228.696 280.165 230.832 279.544 232.753C280.17 232.473 280.796 232.194 281.423 231.914C281.179 233.488 280.167 238.211 276.528 240.967C273.876 242.891 270.579 244.066 266.992 244.153H266.986C266.849 244.155 266.711 244.157 266.571 244.157C257.557 244.157 250.248 237.283 250.248 228.805C250.248 222.423 254.592 216.156 261.295 215.233C261.823 215.97 262.57 216.737 263.696 216.736C267.396 216.735 268.975 216.209 270.982 216.736C272.988 217.264 275.152 219.425 275.152 219.425L277.106 217.475L277.739 219.425C277.739 219.425 279.709 215.705 279.709 211.91C279.709 211.91 276.681 214.366 274.044 209.778C273.093 206.931 256.938 203.452 256.093 196.81C256.093 196.81 253.348 202.925 259.789 206.299Z" fill="#781C6D"/>
</mask>
<g mask="url(#mask4_2004_4739)">
<path d="M255.132 201.991L277.026 212.092L278.74 216.58C277.891 215.464 276.514 213.937 274.454 212.726C270.71 210.525 267.686 211.117 264.404 210.264C261.594 209.533 257.157 207.56 255.132 201.991Z" fill="#781C6D"/>
</g>
<mask id="mask5_2004_4739" style="mask-type:luminance" maskUnits="userSpaceOnUse" x="239" y="196" width="46" height="54">
<path d="M259.789 206.299L253.348 203.347C253.348 203.347 253.764 205.74 255.752 207.638C240.533 210.398 239.494 227.69 239.595 231.201C242.615 248.947 262.454 249.129 262.691 249.129C271.353 249.129 278.87 243.821 282.135 236.312L282.139 236.307L282.139 236.302C282.904 234.542 283.435 232.662 283.691 230.7C284.953 222.275 282.431 218.484 282.431 218.484C282.224 220.856 281.862 223.505 281.253 226.359C280.756 228.696 280.165 230.832 279.544 232.753C280.17 232.473 280.796 232.194 281.423 231.914C281.179 233.488 280.167 238.211 276.528 240.967C273.876 242.891 270.579 244.066 266.992 244.153H266.986C266.849 244.155 266.711 244.157 266.571 244.157C257.557 244.157 250.248 237.283 250.248 228.805C250.248 222.423 254.592 216.156 261.295 215.233C261.823 215.97 262.57 216.737 263.696 216.736C267.396 216.735 268.975 216.209 270.982 216.736C272.988 217.264 275.152 219.425 275.152 219.425L277.106 217.475L277.739 219.425C277.739 219.425 279.709 215.705 279.709 211.91C279.709 211.91 276.681 214.366 274.044 209.778C273.093 206.931 256.938 203.452 256.093 196.81C256.093 196.81 253.348 202.925 259.789 206.299Z" fill="#C0177B"/>
</mask>
<g mask="url(#mask5_2004_4739)">
<path d="M256.586 195.171C256.586 195.171 256.892 199.761 261.92 202.095C266.948 204.428 274.775 207.012 275.675 209.641C276.574 212.27 280.656 209.831 280.656 209.831C280.656 209.831 279.336 218.976 278.012 220.299L277.106 217.474L276.826 216.693C276.202 214.797 274.916 213.183 273.189 212.178C272.346 211.689 271.294 211.209 269.987 210.808C267.759 210.123 263.463 208.319 259.789 206.299C259.233 205.993 258.626 205.701 258.139 205.338C254.511 202.634 252.643 199.108 256.586 195.171Z" fill="#C0177B"/>
</g>
<mask id="mask6_2004_4739" style="mask-type:luminance" maskUnits="userSpaceOnUse" x="255" y="196" width="25" height="24">
<path d="M259.52 206.153C259.61 206.202 259.7 206.25 259.789 206.299C263.463 208.32 267.758 210.123 269.987 210.808C271.294 211.209 272.346 211.689 273.189 212.179C274.916 213.183 276.202 214.797 276.826 216.693L277.106 217.475L277.739 219.425C277.739 219.425 279.709 215.705 279.709 211.91C279.709 211.91 276.681 214.366 274.043 209.778C273.093 206.931 256.938 203.452 256.093 196.81C256.093 196.81 253.425 202.752 259.52 206.153Z" fill="#E84A86"/>
</mask>
<g mask="url(#mask6_2004_4739)">
<path d="M277.826 219.591C277.826 219.591 279.15 218.139 278.449 215.26C277.748 212.382 272.657 211.241 271.645 210.23C270.632 209.218 271.645 208.803 271.645 208.803C271.645 208.803 251.049 201.283 257.049 195.293C263.048 189.303 278.189 205.614 278.189 205.614L284.046 209.815V214.534C284.046 214.897 277.826 219.591 277.826 219.591Z" fill="#E84A86"/>
</g>
<mask id="mask7_2004_4739" style="mask-type:luminance" maskUnits="userSpaceOnUse" x="239" y="196" width="46" height="54">
<path d="M259.789 206.299L253.348 203.347C253.348 203.347 253.764 205.74 255.752 207.638C240.533 210.398 239.494 227.69 239.595 231.201C242.615 248.947 262.454 249.129 262.691 249.129C271.353 249.129 278.87 243.821 282.135 236.312L282.139 236.307L282.139 236.302C282.904 234.542 283.435 232.662 283.691 230.7C284.953 222.275 282.431 218.484 282.431 218.484C282.224 220.856 281.862 223.505 281.253 226.359C280.756 228.696 280.165 230.832 279.544 232.753C280.17 232.473 280.796 232.194 281.423 231.914C281.179 233.488 280.167 238.211 276.528 240.967C273.876 242.891 270.579 244.066 266.992 244.153H266.986C266.849 244.155 266.711 244.157 266.571 244.157C257.557 244.157 250.248 237.283 250.248 228.805C250.248 222.423 254.592 216.156 261.295 215.233C261.823 215.97 262.57 216.737 263.696 216.736C267.396 216.735 268.975 216.209 270.982 216.736C272.988 217.264 275.152 219.425 275.152 219.425L277.106 217.475L277.739 219.425C277.739 219.425 279.709 215.705 279.709 211.91C279.709 211.91 276.681 214.366 274.044 209.778C273.093 206.931 256.938 203.452 256.093 196.81C256.093 196.81 253.348 202.925 259.789 206.299Z" fill="#2B0042"/>
</mask>
<g mask="url(#mask7_2004_4739)">
<path d="M258.789 242.177C258.789 242.177 274.839 251.357 283.02 233.853C291.201 216.349 282.163 217.36 282.163 217.36L273.671 227.085L258.789 242.177Z" fill="#2B0042"/>
</g>
<path d="M270.982 216.736C270.982 216.736 266.153 216.592 258.981 217.738C258.981 217.738 261.276 214.587 264.575 213.441C267.874 212.296 270.982 216.736 270.982 216.736Z" fill="#451065"/>
<path d="M258.981 217.738C258.981 217.738 271.747 215.399 275.189 215.9C275.189 215.9 269.395 214.603 265.962 214.301C261.886 213.943 258.981 217.738 258.981 217.738Z" fill="#781C6D"/>
<path d="M275.189 215.9L258.981 217.738C258.981 217.738 260.667 213.633 275.189 215.9Z" fill="#C0177B"/>
<path d="M266.798 216.843L275.189 215.9C275.189 215.9 273.789 217.281 275.152 219.425C275.152 219.425 271.388 216.808 266.798 216.843Z" fill="#310C4A"/>
<path d="M254.614 239.9C251.425 236.935 249.432 232.706 249.432 228.013C249.432 220.418 254.65 214.04 261.702 212.258L261.73 212.236C251.857 206.806 262.614 211.389 252.072 214.397C251.416 214.584 250.806 214.79 250.242 215.011C243.187 217.768 242.966 222.846 242.966 222.846L242.931 222.893C242.941 222.957 242.952 223.022 242.966 223.086C242.966 223.086 243.683 221.748 245.45 221.654C247.22 221.557 247.793 224.327 245.45 226.427C243.109 228.528 241.722 233.254 243.157 237.026C243.157 237.026 243.251 235.306 245.117 234.781C246.981 234.256 247.984 240.367 250.901 244.377C250.901 244.377 250.853 242.706 252.862 242.897C252.9 242.901 252.937 242.907 252.977 242.916C253.641 243.048 254.468 243.78 255.566 244.679L255.572 244.683C257.833 246.531 261.24 249.08 266.728 248.577C266.728 248.577 264.959 247.958 265.436 246.669C265.468 246.58 265.563 246.509 265.71 246.446C266.685 246.034 267.885 246.017 268.914 245.805C272.207 245.129 275.302 243.693 277.524 241.113C277.884 240.695 278.218 240.255 278.525 239.797C279.637 238.133 280.589 236.009 281.145 233.287C281.137 233.311 281.128 233.334 281.118 233.358C280.991 233.689 280.869 234.02 280.717 234.34C280.56 234.672 280.398 235.004 280.233 235.333C280.084 235.631 279.93 235.927 279.761 236.215C279.352 236.912 278.89 237.579 278.382 238.208C277.369 239.461 276.169 240.564 274.835 241.469C272.169 243.275 268.942 244.263 265.708 244.263C261.422 244.263 257.521 242.608 254.614 239.9Z" fill="#53009C"/>
<path d="M276.049 245.957C276.143 245.908 276.24 245.855 276.339 245.798C280.147 243.659 282.521 239.518 283.549 235.393C283.78 234.466 284.085 233.403 284.085 232.442C283.965 231.922 283.86 231.446 283.772 231.045C283.214 236.992 280.335 242.268 276.049 245.957Z" fill="#781C6D"/>
<path d="M253.891 250.14C251.977 248.241 250.694 245.962 249.992 244.615C248.749 242.228 246.262 240.701 244.541 242.466C244.297 242.718 244.118 242.978 243.991 243.241C243.353 244.543 243.983 245.898 244.229 246.34C244.125 245.907 243.906 244.652 244.666 244.022C244.812 243.902 244.992 243.804 245.217 243.74C245.243 243.73 245.272 243.723 245.299 243.717C245.539 243.657 245.823 243.634 246.162 243.657C247.961 243.776 249.076 246.629 251.29 249.038C252.549 250.41 254.163 251.637 256.462 252.136C256.434 252.121 256.406 252.103 256.379 252.088C255.454 251.544 254.625 250.87 253.891 250.14Z" fill="#310C4A"/>
<path d="M240.461 238.723C240.364 238.067 240.3 237.432 240.26 236.818C239.897 231.325 241.483 227.583 239.473 226.856C239.293 226.791 239.111 226.763 238.932 226.765C237.876 226.78 236.835 227.87 236.042 228.953C236.021 228.983 236 229.012 235.979 229.04C235.954 229.31 235.941 229.584 235.941 229.862C235.941 229.862 235.964 229.843 236.009 229.813C236.131 229.728 236.409 229.545 236.763 229.41C236.823 229.386 236.886 229.363 236.95 229.342C236.963 229.339 236.977 229.335 236.988 229.331C237.037 229.316 237.088 229.303 237.139 229.292C237.684 229.165 238.324 229.21 238.848 229.792C239.119 230.095 239.357 230.542 239.537 231.185C239.9 232.491 239.929 234.356 240.116 236.425C240.205 237.417 240.332 238.456 240.548 239.503C240.536 239.295 240.514 239.074 240.478 238.838C240.472 238.8 240.466 238.761 240.461 238.723Z" fill="#310C4A"/>
<path d="M239.329 221.844C239.403 221.754 239.483 221.661 239.566 221.566C239.799 221.308 240.067 221.036 240.361 220.754C242.927 218.307 247.384 215.23 245.688 214.157C245.389 213.968 245.071 213.828 244.746 213.728C243.226 213.256 241.557 213.626 241.059 213.758C241.004 213.774 240.965 213.785 240.94 213.791C241.322 213.756 242.988 213.713 243.279 215.497C243.308 215.669 243.323 215.86 243.323 216.068C243.323 217.173 242.032 218.577 240.531 220.332C240.05 220.896 239.549 221.493 239.059 222.13C239.135 222.069 239.225 221.973 239.329 221.844Z" fill="#310C4A"/>
<rect x="317.083" y="187.603" width="79.99" height="79.99" rx="23.0187" fill="#ABE20D"/>
<path d="M383.261 229.916V242.699C383.261 243.686 382.145 244.179 381.49 243.48L366.007 226.98C365.963 226.932 365.91 226.893 365.85 226.867C365.791 226.841 365.726 226.827 365.661 226.827C365.596 226.827 365.532 226.841 365.472 226.867C365.413 226.893 365.359 226.932 365.315 226.98L349.831 243.48C349.182 244.179 348.066 243.686 348.066 242.699V229.916C348.065 229.626 348.174 229.347 348.37 229.135L364.928 211.484C365.022 211.382 365.135 211.301 365.262 211.245C365.388 211.19 365.524 211.161 365.662 211.161C365.8 211.161 365.936 211.19 366.062 211.245C366.188 211.301 366.302 211.382 366.395 211.484L382.957 229.135C383.154 229.347 383.263 229.626 383.261 229.916Z" fill="white"/>
<path d="M355.525 218.657L348.795 211.485C348.702 211.382 348.588 211.299 348.461 211.242C348.335 211.186 348.197 211.157 348.059 211.157C347.92 211.157 347.783 211.186 347.656 211.242C347.529 211.299 347.416 211.382 347.323 211.485L330.765 229.134C330.568 229.347 330.46 229.626 330.461 229.916V242.7C330.461 243.684 331.577 244.177 332.231 243.481L355.525 218.657Z" fill="white"/>
<path d="M365.662 229.916V242.699C365.662 243.686 364.546 244.179 363.892 243.48L358.207 237.423L365.602 229.542C365.642 229.663 365.662 229.789 365.662 229.916Z" fill="white"/>
<rect x="375.643" y="93.8013" width="79.99" height="79.99" rx="23.0187" fill="#684EEC"/>
<rect x="281.403" y="93.8013" width="79.99" height="79.99" rx="23.0187" fill="url(#paint6_linear_2004_4739)"/>
<g clip-path="url(#clip2_2004_4739)" filter="url(#filter0_f_2004_4739)">
<path d="M340.005 121.657C339.469 120.899 337.95 119.33 336.417 118.434C335.194 117.706 333.884 117.564 332.241 118.036C332.04 117.72 331.712 117.225 331.501 116.932C329.628 114.326 327.319 112.626 324.914 111.927C320.397 110.612 314.895 114.049 313.496 117.629C311.493 117.644 309.515 118.06 307.756 119.118C303.574 121.633 303.798 126.454 304.405 129.387L304.674 129.296C304.904 128.551 305.242 126.612 308.766 124.855C308.766 124.855 306.783 126.925 306.123 129.742C310.23 128.709 319.499 129.784 320.086 127.57C319.499 126.098 314.327 127.728 311.935 128.154C308.994 128.677 306.425 129.509 304.36 130.5C300.756 132.235 298.723 134.458 299.059 136.375C299.351 138.033 301.412 138.779 303.206 139.115L303.184 139.017C300.262 138.125 297.98 136.041 304.798 133.564C310.754 131.401 332.49 129.725 332.49 129.725C332.49 129.725 314.666 133.664 310.349 135.69C306.617 137.437 306.046 138.898 305.93 139.318C306.415 140.915 307.117 142.431 308.015 143.822C307.748 148.074 307.955 154.993 314.776 156.399C318.343 157.134 322.311 154.463 322.311 154.463L323.122 153.877C326.388 151.201 329.925 147.247 332.216 142.194C334.788 136.517 335.643 132.343 335.813 130.343L336.047 129.916C339.845 134.663 340.131 139.445 339.582 142.091C339.161 144.122 338.611 146.922 335.808 149.402C334.215 150.818 331.419 151.49 330.206 151.535L330.023 151.741C331.957 151.945 334.15 151.041 335.401 150.284C339.382 147.853 341.989 144.029 343.324 137.592C344.755 130.624 342.514 125.208 340.005 121.657ZM323.664 120.192C321.193 119.038 318.103 117.778 314.197 117.637L314.243 117.488C315.576 117.076 318.32 116.601 322.197 118.096C326.981 119.942 334.509 127.453 335.708 129.107C335.318 128.685 328.085 122.261 323.664 120.192ZM332.289 135.188C332.289 135.188 324.064 148.15 315.26 148.939C312.198 149.212 309.554 146.283 308.478 144.769L308.479 144.539C309.562 146.031 312.475 149.183 316.845 147.473C323.776 144.762 332.216 135.922 332.216 135.922L335.614 130.094L332.289 135.188ZM335.999 129.167C335.993 129.018 335.961 128.704 335.94 128.538C335.498 124.906 334.298 121.426 332.422 118.335C334.11 117.89 335.482 118.005 336.429 118.788C340.042 121.785 335.996 129.166 335.996 129.166L335.999 129.167Z" fill="white"/>
</g>
<g clip-path="url(#clip3_2004_4739)">
<path d="M340.005 121.657C339.469 120.899 337.95 119.33 336.417 118.434C335.194 117.706 333.884 117.564 332.241 118.036C332.04 117.72 331.712 117.225 331.501 116.932C329.628 114.326 327.319 112.626 324.914 111.927C320.397 110.612 314.895 114.049 313.496 117.629C311.493 117.644 309.515 118.06 307.756 119.118C303.574 121.633 303.798 126.454 304.405 129.387L304.674 129.296C304.904 128.551 305.242 126.612 308.766 124.855C308.766 124.855 306.783 126.925 306.123 129.742C310.23 128.709 319.499 129.784 320.086 127.57C319.499 126.098 314.327 127.728 311.935 128.154C308.994 128.677 306.425 129.509 304.36 130.5C300.756 132.235 298.723 134.458 299.059 136.375C299.351 138.033 301.412 138.779 303.206 139.115L303.184 139.017C300.262 138.125 297.98 136.041 304.798 133.564C310.754 131.401 332.49 129.725 332.49 129.725C332.49 129.725 314.666 133.664 310.349 135.69C306.617 137.437 306.046 138.898 305.93 139.318C306.415 140.915 307.117 142.431 308.015 143.822C307.748 148.074 307.955 154.993 314.776 156.399C318.343 157.134 322.311 154.463 322.311 154.463L323.122 153.877C326.388 151.201 329.925 147.247 332.216 142.194C334.788 136.517 335.643 132.343 335.813 130.343L336.047 129.916C339.845 134.663 340.131 139.445 339.582 142.091C339.161 144.122 338.611 146.922 335.808 149.402C334.215 150.818 331.419 151.49 330.206 151.535L330.023 151.741C331.957 151.945 334.15 151.041 335.401 150.284C339.382 147.853 341.989 144.029 343.324 137.592C344.755 130.624 342.514 125.208 340.005 121.657ZM323.664 120.192C321.193 119.038 318.103 117.778 314.197 117.637L314.243 117.488C315.576 117.076 318.32 116.601 322.197 118.096C326.981 119.942 334.509 127.453 335.708 129.107C335.318 128.685 328.085 122.261 323.664 120.192ZM332.289 135.188C332.289 135.188 324.064 148.15 315.26 148.939C312.198 149.212 309.554 146.283 308.478 144.769L308.479 144.539C309.562 146.031 312.475 149.183 316.845 147.473C323.776 144.762 332.216 135.922 332.216 135.922L335.614 130.094L332.289 135.188ZM335.999 129.167C335.993 129.018 335.961 128.704 335.94 128.538C335.498 124.906 334.298 121.426 332.422 118.335C334.11 117.89 335.482 118.005 336.429 118.788C340.042 121.785 335.996 129.166 335.996 129.166L335.999 129.167Z" fill="white"/>
</g>
<rect x="317.083" width="79.99" height="79.99" rx="23.0187" fill="url(#paint7_linear_2004_4739)"/>
<path d="M346.495 37.9807C344.774 37.9807 343.259 37.6029 341.949 36.8474C340.649 36.0918 339.632 34.9682 338.899 33.4762C338.166 31.9843 337.799 30.1337 337.799 27.9243C337.799 25.7056 338.161 23.8501 338.884 22.3583C339.617 20.8664 340.639 19.7426 341.949 18.987C343.259 18.2219 344.774 17.8394 346.495 17.8394C348.978 17.8394 350.87 18.4131 352.17 19.5608C353.471 20.7084 354.243 22.1957 354.487 24.0224L349.501 24.8687C349.277 24.0462 348.92 23.3672 348.431 22.8316C347.952 22.2865 347.307 22.014 346.495 22.014C345.772 22.014 345.131 22.2291 344.574 22.6596C344.027 23.0802 343.601 23.7258 343.298 24.5961C342.995 25.4665 342.844 26.5758 342.844 27.9243C342.844 29.2442 343 30.3392 343.313 31.2095C343.626 32.0702 344.056 32.7111 344.603 33.1319C345.161 33.5526 345.791 33.763 346.495 33.763C347.502 33.763 348.255 33.5048 348.753 32.9884C349.252 32.4625 349.501 31.8265 349.501 31.0805H354.458C354.458 32.5629 354.15 33.8205 353.534 34.8533C352.928 35.8767 352.033 36.6561 350.85 37.1917C349.668 37.7176 348.216 37.9807 346.495 37.9807Z" fill="white"/>
<path d="M357.365 36.8298L364.04 17.8394H370.05L376.356 36.8298H371.379L370.301 33.4902H363.464L362.386 36.8298H357.365ZM364.66 30.1364H369.223L366.978 23.1883L364.66 30.1364Z" fill="white"/>
<path d="M346.504 43.1602V58.1883H354.488V62.1506H341.828V43.1602H346.504Z" fill="white"/>
<path d="M368.364 62.726C366.643 62.726 365.128 62.3591 363.817 61.6251C362.517 60.8911 361.501 59.7996 360.767 58.3503C360.034 56.9009 359.667 55.1032 359.667 52.957C359.667 50.8016 360.029 48.9992 360.752 47.55C361.486 46.1007 362.507 45.009 363.817 44.275C365.128 43.5317 366.643 43.1602 368.364 43.1602C370.848 43.1602 372.738 43.7175 374.04 44.8324C375.34 45.9472 376.112 47.392 376.356 49.1665L371.37 49.9887C371.146 49.1897 370.788 48.5301 370.3 48.0098C369.821 47.4802 369.176 47.2155 368.364 47.2155C367.641 47.2155 367.001 47.4245 366.443 47.8426C365.896 48.2513 365.469 48.8784 365.166 49.7238C364.864 50.5694 364.712 51.647 364.712 52.957C364.712 54.2392 364.869 55.3029 365.181 56.1483C365.494 56.9844 365.924 57.607 366.471 58.0158C367.029 58.4244 367.661 58.6288 368.364 58.6288C369.371 58.6288 370.123 58.378 370.623 57.8764C371.121 57.3655 371.37 56.7477 371.37 56.023H376.327C376.327 57.463 376.02 58.6847 375.403 59.688C374.797 60.6821 373.903 61.4393 372.72 61.9595C371.536 62.4705 370.085 62.726 368.364 62.726Z" fill="white"/>
<g clip-path="url(#clip4_2004_4739)">
<rect x="223.281" width="79.99" height="79.99" rx="23.0187" fill="#0B3075"/>
<path d="M257.771 10.0971C249.635 10.398 243.256 13.2407 237.471 18.9417C232.275 24.0791 229.11 32.4923 233.145 38.3486C237.628 44.2066 241.718 44.1878 245.094 48.1468C249.323 53.0998 249.065 60.7458 253.308 65.6998C255.972 68.8152 260.029 70.5067 263.939 70.5391C267.857 70.5777 269.979 70.2522 275.553 66.5686C281.801 62.4397 285.555 55.4512 287.252 49.8479C289.107 43.6934 289.881 40.6576 289.115 34.2893C288.315 27.5587 283.041 18.4428 274.035 13.616C266.55 10.3671 264.46 9.84999 257.771 10.0971Z" fill="#5493F6" fill-opacity="0.75"/>
<path d="M257.75 41.3752C253.141 44.3585 249.988 48.5731 249.249 53.3889C248.646 57.184 250.112 61.9026 251.483 63.7338C252.995 66.0552 254.432 67.5703 256.888 68.9635C259.102 70.2594 261.446 70.6179 264.944 70.7285C268.083 70.7657 271.037 69.1341 272.679 68.2344C276.675 66.0898 280.881 62.0262 282.829 59.4672C284.583 57.1615 286.786 53.4233 287.869 49.9257C288.954 46.6234 289.564 42.8606 289.688 39.3923C289.813 35.8404 289.706 32.2862 286.134 31.3789C282.303 30.4062 265.007 36.5914 257.75 41.3752Z" fill="#2043B5" fill-opacity="0.8"/>
<path d="M267.499 15.4269C260.415 15.3245 256.384 16.3389 252.268 17.9414C248.177 19.5636 242.285 22.6149 238.756 30.4336C232.708 41.811 236.044 58.3193 245.408 67.4083C249.022 70.9201 254.022 73.6047 258.864 73.7233C261.194 73.8022 263.502 73.2671 265.543 71.949C269.963 68.9954 271.569 63.3435 275.609 59.9526C280.694 55.7177 288.569 55.8198 293.672 51.3238C298.139 47.4861 299.346 40.7638 297.451 35.2387C295.864 30.4594 287.437 22.1579 280.873 18.9083C277.636 17.3052 275.094 15.5377 267.499 15.4269Z" fill="#3573EC" fill-opacity="0.7"/>
<path d="M268.098 53.6149L263.446 44.4342L260.344 47.224L258.937 53.6149H253.635L258.72 30.0986H264.059L262.075 39.2438L272.318 30.0986H279.712L267.63 40.7624L274.482 53.6149H268.098Z" fill="white"/>
</g>
<defs>
<filter id="filter0_f_2004_4739" x="295.214" y="108.763" width="52.368" height="50.6409" filterUnits="userSpaceOnUse" color-interpolation-filters="sRGB">
<feFlood flood-opacity="0" result="BackgroundImageFix"/>
<feBlend mode="normal" in="SourceGraphic" in2="BackgroundImageFix" result="shape"/>
<feGaussianBlur stdDeviation="1.43867" result="effect1_foregroundBlur_2004_4739"/>
</filter>
<linearGradient id="paint0_linear_2004_4739" x1="74.523" y1="100.419" x2="2.87734" y2="173.791" gradientUnits="userSpaceOnUse">
<stop stop-color="#00F0FF"/>
<stop offset="1" stop-color="#4230FF"/>
</linearGradient>
<radialGradient id="paint1_angular_2004_4739" cx="0" cy="0" r="1" gradientUnits="userSpaceOnUse" gradientTransform="translate(30.463 132.994) rotate(134.397) scale(18.3012)">
<stop stop-color="white"/>
<stop offset="0.282107" stop-color="white"/>
<stop offset="1" stop-color="white" stop-opacity="0.55"/>
</radialGradient>
<radialGradient id="paint2_angular_2004_4739" cx="0" cy="0" r="1" gradientUnits="userSpaceOnUse" gradientTransform="translate(53.0744 131.632) rotate(134.397) scale(16.386 15.1098)">
<stop stop-color="white"/>
<stop offset="0.247101" stop-color="white"/>
<stop offset="1" stop-color="white" stop-opacity="0.55"/>
</radialGradient>
<radialGradient id="paint3_radial_2004_4739" cx="0" cy="0" r="1" gradientUnits="userSpaceOnUse" gradientTransform="translate(75.6746 227.597) scale(39.7685 40.7568)">
<stop offset="0.256717" stop-color="#FF4B94"/>
<stop offset="1" stop-color="#FF2E79"/>
</radialGradient>
<radialGradient id="paint4_radial_2004_4739" cx="0" cy="0" r="1" gradientUnits="userSpaceOnUse" gradientTransform="translate(136.09 136.091) rotate(-135) scale(74.6972 56.3337)">
<stop offset="0.140625" stop-color="#FFFBD8"/>
<stop offset="0.307292" stop-color="#5FECDB" stop-opacity="0.64"/>
<stop offset="0.520833" stop-color="#4FBAF7"/>
<stop offset="0.791667" stop-color="#A745F4"/>
</radialGradient>
<linearGradient id="paint5_linear_2004_4739" x1="75.6747" y1="0" x2="75.6747" y2="79.99" gradientUnits="userSpaceOnUse">
<stop stop-color="#FE735F"/>
<stop offset="1" stop-color="#FF2A2A"/>
</linearGradient>
<linearGradient id="paint6_linear_2004_4739" x1="321.398" y1="93.8013" x2="321.398" y2="173.791" gradientUnits="userSpaceOnUse">
<stop stop-color="#6A97FF"/>
<stop offset="1" stop-color="#92D8FF"/>
</linearGradient>
<linearGradient id="paint7_linear_2004_4739" x1="323.989" y1="8.34428" x2="393.62" y2="77.4004" gradientUnits="userSpaceOnUse">
<stop stop-color="#FB9B29"/>
<stop offset="1" stop-color="#F4B67C"/>
</linearGradient>
<clipPath id="clip0_2004_4739">
<rect x="93.8008" y="93.8013" width="79.99" height="79.99" rx="23.0187" fill="white"/>
</clipPath>
<clipPath id="clip1_2004_4739">
<rect x="129.48" width="79.99" height="79.99" rx="23.0187" fill="white"/>
</clipPath>
<clipPath id="clip2_2004_4739">
<rect width="46.6129" height="44.8865" fill="white" transform="translate(298.092 111.641)"/>
</clipPath>
<clipPath id="clip3_2004_4739">
<rect width="46.6129" height="44.8865" fill="white" transform="translate(298.092 111.641)"/>
</clipPath>
<clipPath id="clip4_2004_4739">
<rect x="223.281" width="79.99" height="79.99" rx="23.0187" fill="white"/>
</clipPath>
</defs>
</svg>
