<svg width="226" height="213" viewBox="0 0 226 213" fill="none" xmlns="http://www.w3.org/2000/svg">
<rect x="0.260742" y="37.0137" width="225.739" height="167.248" rx="11" fill="#2B2B2B"/>
<path d="M112.674 53.7559C112.674 46.0239 118.942 39.7559 126.674 39.7559H213.431C217.849 39.7559 221.431 43.3376 221.431 47.7559V191.693C221.431 196.111 217.849 199.693 213.431 199.693H112.674V53.7559Z" fill="#797979"/>
<path d="M112.674 53.7559C112.674 46.0239 106.406 39.7559 98.6738 39.7559H11.9168C7.49857 39.7559 3.91685 43.3376 3.91685 47.7559V191.693C3.91685 196.111 7.49858 199.693 11.9169 199.693H112.674V53.7559Z" fill="#4A4A4A"/>
<path d="M112.674 53.7559C112.674 46.0239 106.406 39.7559 98.6738 39.7559H11.9168C7.49857 39.7559 3.91685 43.3376 3.91685 47.7559V179.812C3.91685 184.23 7.49858 187.812 11.9169 187.812H112.674V53.7559Z" fill="#979797"/>
<path d="M112.674 49.7559C112.674 44.233 117.151 39.7559 122.674 39.7559H213.431C217.849 39.7559 221.431 43.3376 221.431 47.7559V177.984C221.431 182.402 217.849 185.984 213.431 185.984H119.985C115.947 185.984 112.674 189.257 112.674 193.295V193.295V49.7559Z" fill="#CBCBCB"/>
<path d="M112.674 53.9607C112.674 45.8571 106.615 39.0329 98.5687 38.0733L16.4114 28.2747C14.6263 28.0618 13.0561 29.4559 13.0561 31.2536V167C13.0561 171.052 16.0854 174.464 20.1087 174.944L105.621 185.142C109.645 185.622 112.674 189.034 112.674 193.086V193.295V53.9607Z" fill="#696969"/>
<path d="M112.674 63.7106C112.674 49.4243 103.481 36.7603 89.8976 32.3343L35.264 14.5323C33.3252 13.9006 31.3346 15.3456 31.3346 17.3847V153.673C31.3346 157.136 33.5631 160.206 36.8561 161.279L107.152 184.184C110.445 185.257 112.674 188.328 112.674 191.791V193.295V63.7106Z" fill="#989898"/>
<path d="M112.674 52.5421C112.674 44.5909 108.567 37.2036 101.814 33.0068L53.2826 2.84829C51.2842 1.60642 48.6991 3.04352 48.6991 5.39636V141.78C48.6991 144.546 50.1276 147.116 52.4766 148.575L108.896 183.636C111.245 185.096 112.674 187.665 112.674 190.431V193.295V52.5421Z" fill="#D9D9D9"/>
<path d="M98.9648 199.692H125.469V199.692C125.469 204.235 121.786 207.918 117.243 207.918H107.19C102.647 207.918 98.9648 204.235 98.9648 199.692V199.692Z" fill="#2B2B2B"/>
<rect x="137" y="49" width="73" height="5" rx="1" fill="#B3B3B3"/>
<rect x="137" y="58" width="45" height="5" rx="1" fill="#B3B3B3"/>
<rect width="16" height="5" rx="1" transform="matrix(-1 0 0 1 201 58)" fill="#B3B3B3"/>
<rect x="126" y="67" width="50" height="5" rx="1" fill="#B3B3B3"/>
<rect x="119" y="67" width="5" height="5" rx="1" fill="#B3B3B3"/>
<rect x="119" y="58" width="5" height="5" rx="1" fill="#B3B3B3"/>
<rect x="119" y="49" width="5" height="5" rx="1" fill="#B3B3B3"/>
<rect x="177" y="76" width="29" height="5" rx="1" fill="#B3B3B3"/>
<rect x="162" y="76" width="13" height="5" rx="1" fill="#B3B3B3"/>
<rect x="119" y="76" width="5" height="5" rx="1" fill="#B3B3B3"/>
<path d="M183.959 191H210.463V211.254C210.463 212.012 209.652 212.495 208.986 212.134L198.164 206.266C197.57 205.943 196.852 205.943 196.258 206.266L185.436 212.134C184.769 212.495 183.959 212.012 183.959 211.254V191Z" fill="#818181"/>
<path d="M183.959 188.726H210.463V208.98C210.463 209.738 209.652 210.22 208.986 209.859L198.164 203.991C197.57 203.669 196.852 203.669 196.258 203.991L185.436 209.859C184.769 210.22 183.959 209.738 183.959 208.98V188.726Z" fill="#D9D9D9"/>
<path d="M132 97L202 167" stroke="#B1B1B1"/>
<path d="M202 98L132 168" stroke="#B1B1B1"/>
<path d="M195.7 198.3L193.4 196L195.7 193.7L195 193L192 196L195 199L195.7 198.3ZM198.3 198.3L200.6 196L198.3 193.7L199 193L202 196L199 199L198.3 198.3Z" fill="#636363"/>
<rect x="127.5" y="93.5" width="78" height="78" rx="13.5" stroke="#B1B1B1"/>
<rect x="127.5" y="93.5" width="78" height="78" rx="39" stroke="#B1B1B1" stroke-dasharray="2 2"/>
<rect x="137.5" y="103.5" width="58" height="58" rx="29" stroke="#B1B1B1" stroke-dasharray="2 2"/>
<path fill-rule="evenodd" clip-rule="evenodd" d="M180.502 112.685C183.038 114.57 184.447 116.264 184.885 117.957C185.167 118.916 184.917 120.066 184.291 120.929C183.664 121.791 182.662 122.271 181.504 122.271C181.065 122.271 180.627 122.207 180.189 122.079C179.75 123.325 179.437 124.539 179.343 125.594L179.312 125.977C177.058 121.983 173.457 118.916 169.136 117.446C169.261 117.414 170.2 117.126 171.86 116.104C171.672 115.816 171.515 115.497 171.39 115.241C171.046 114.411 171.171 113.037 171.703 112.014C172.142 111.152 172.831 110.576 173.613 110.417C173.926 110.353 174.239 110.321 174.584 110.321C176.306 110.321 178.467 111.183 180.502 112.685ZM184.01 118.213C184.385 119.715 183.227 121.952 180.378 121.153C180.127 121.057 179.877 120.993 179.657 120.961C179.376 121.632 179.063 122.399 178.843 123.262C176.965 120.705 174.46 118.66 171.579 117.35C171.692 117.282 171.81 117.211 171.932 117.137C172.321 116.904 172.755 116.644 173.207 116.328C172.738 115.753 172.393 115.242 172.237 114.89C171.861 113.996 172.299 111.663 173.802 111.344C175.305 111.024 177.654 111.727 179.971 113.452C182.288 115.178 183.603 116.711 184.01 118.213Z" fill="#5E12A0"/>
<path d="M175.742 114.507C176.368 114.762 177.182 115.209 178.184 115.88C179.374 116.679 180.407 117.574 181.065 118.277C179.969 119.747 179.249 121.759 178.81 123.165C179.029 123.485 179.28 123.804 179.499 124.124C179.718 123.325 180.094 122.143 180.595 120.961C180.72 120.993 180.877 120.993 181.033 120.993C181.409 120.993 181.847 120.929 182.192 120.641C182.442 120.449 182.724 120.098 182.693 119.459C182.693 118.852 182.223 118.085 181.253 117.159C180.564 116.487 179.624 115.753 178.685 115.082C175.992 113.26 174.113 112.749 173.268 113.612C172.704 114.187 172.767 114.89 172.955 115.401C171.953 116.072 171.108 116.551 170.544 116.871C170.92 116.999 171.264 117.159 171.64 117.318C172.642 116.775 174.082 115.849 175.742 114.507ZM181.66 119.076C181.753 119.235 181.785 119.395 181.785 119.491C181.785 119.778 181.691 119.874 181.628 119.938C181.503 120.034 181.252 120.098 181.033 120.098C181.221 119.715 181.44 119.395 181.66 119.076ZM173.926 114.315C174.019 114.219 174.27 114.155 174.677 114.219C174.364 114.475 174.051 114.698 173.738 114.922C173.706 114.698 173.738 114.475 173.926 114.315Z" fill="#5E12A0"/>
<path d="M164.063 115.689C153.824 115.689 145.526 124.156 145.526 134.604C145.526 145.052 153.824 153.52 164.063 153.52C174.302 153.52 182.599 145.052 182.599 134.604C182.599 124.156 174.27 115.689 164.063 115.689ZM164.063 152.465C154.388 152.465 146.56 144.477 146.56 134.604C146.56 124.731 154.388 116.743 164.063 116.743C173.738 116.743 181.566 124.731 181.566 134.604C181.566 144.477 173.707 152.465 164.063 152.465Z" fill="#5E12A0"/>
<path d="M180.689 134.444C180.689 143.806 173.237 151.411 164.063 151.411C154.889 151.411 147.405 143.806 147.405 134.444H180.689Z" fill="url(#paint0_linear_2004_5777)"/>
<path d="M180.658 134.604C180.658 132.655 177.339 131.536 172.924 131.153C169.73 130.897 166.505 131.217 162.811 132.367C159.617 133.326 156.736 133.166 154.638 132.91C149.973 132.367 147.405 132.303 147.405 134.604C147.405 137.927 154.043 142.08 164 140.642C169.042 139.908 171.64 138.406 174.615 137.383C177.84 136.297 180.658 136.329 180.658 134.604Z" fill="url(#paint1_linear_2004_5777)"/>
<path d="M169.511 126.552C171.068 126.552 172.329 125.265 172.329 123.677C172.329 122.089 171.068 120.801 169.511 120.801C167.955 120.801 166.693 122.089 166.693 123.677C166.693 125.265 167.955 126.552 169.511 126.552Z" fill="white"/>
<path d="M174.114 128.693C174.771 128.693 175.303 128.149 175.303 127.479C175.303 126.808 174.771 126.265 174.114 126.265C173.457 126.265 172.924 126.808 172.924 127.479C172.924 128.149 173.457 128.693 174.114 128.693Z" fill="white"/>
<path opacity="0.2" d="M162.908 147.927C163.392 147.927 163.785 147.527 163.785 147.033C163.785 146.539 163.392 146.138 162.908 146.138C162.424 146.138 162.031 146.539 162.031 147.033C162.031 147.527 162.424 147.927 162.908 147.927Z" fill="white"/>
<path opacity="0.2" d="M167.479 147.481C167.963 147.481 168.356 147.08 168.356 146.586C168.356 146.092 167.963 145.691 167.479 145.691C166.995 145.691 166.603 146.092 166.603 146.586C166.603 147.08 166.995 147.481 167.479 147.481Z" fill="white"/>
<path opacity="0.2" d="M165.222 149.557C165.585 149.557 165.88 149.256 165.88 148.886C165.88 148.515 165.585 148.215 165.222 148.215C164.859 148.215 164.564 148.515 164.564 148.886C164.564 149.256 164.859 149.557 165.222 149.557Z" fill="white"/>
<path opacity="0.2" d="M169.262 149.078C169.625 149.078 169.92 148.777 169.92 148.407C169.92 148.036 169.625 147.736 169.262 147.736C168.899 147.736 168.604 148.036 168.604 148.407C168.604 148.777 168.899 149.078 169.262 149.078Z" fill="white"/>
<path opacity="0.2" d="M159.179 147.608C159.974 147.608 160.619 146.95 160.619 146.138C160.619 145.326 159.974 144.668 159.179 144.668C158.383 144.668 157.738 145.326 157.738 146.138C157.738 146.95 158.383 147.608 159.179 147.608Z" fill="white"/>
<path opacity="0.2" d="M172.049 143.998C172.844 143.998 173.489 143.34 173.489 142.528C173.489 141.717 172.844 141.059 172.049 141.059C171.253 141.059 170.608 141.717 170.608 142.528C170.608 143.34 171.253 143.998 172.049 143.998Z" fill="white"/>
<defs>
<linearGradient id="paint0_linear_2004_5777" x1="147.419" y1="142.918" x2="180.681" y2="142.918" gradientUnits="userSpaceOnUse">
<stop stop-color="#0002E9"/>
<stop offset="0.9952" stop-color="#FF00C7"/>
</linearGradient>
<linearGradient id="paint1_linear_2004_5777" x1="147.442" y1="136.013" x2="180.659" y2="136.013" gradientUnits="userSpaceOnUse">
<stop stop-color="#000292"/>
<stop offset="0.9952" stop-color="#BE00C7"/>
</linearGradient>
</defs>
</svg>
