<svg width="193" height="258" viewBox="0 0 193 258" fill="none" xmlns="http://www.w3.org/2000/svg">
<rect x="26.1225" y="148.35" width="159.3" height="108.3" rx="9.65" fill="#327A8E" stroke="#390176" stroke-width="1.3"/>
<rect x="4.12246" y="149.35" width="143.3" height="107.3" rx="9.65" fill="#5EBAD0" stroke="#390176" stroke-width="1.3"/>
<path d="M191.306 70.5361H186.572L185.151 77.1637H189.885L191.306 70.5361Z" fill="#390176"/>
<path d="M60.6219 69.097C60.9795 67.2084 62.6299 65.8413 64.552 65.8413H187.067C189.575 65.8413 191.464 68.1219 190.997 70.5857L177.597 141.338C177.24 143.227 175.589 144.594 173.667 144.594H51.1519C48.6444 144.594 46.7552 142.313 47.2218 139.849L60.6219 69.097Z" fill="#327A8E"/>
<path d="M186.571 70.5361H191.305L189.884 79.0573H185.15L186.571 70.5361Z" fill="#73EAF4" fill-opacity="0.57"/>
<path d="M143.772 0L186.098 67.6957L172.843 139.179H47.3928H4.78711L9.04768 0H143.772Z" fill="url(#paint0_linear_2004_5591)"/>
<path d="M60.6219 69.097C60.9795 67.2084 62.6299 65.8413 64.552 65.8413H181.27C183.777 65.8413 185.666 68.1219 185.2 70.5857L171.8 141.338C171.442 143.227 169.792 144.594 167.869 144.594H51.1519C48.6444 144.594 46.7552 142.313 47.2218 139.849L60.6219 69.097Z" fill="#79CFE3"/>
<path d="M60.7702 72.7997C61.1462 70.9324 62.7867 69.5894 64.6914 69.5894H177.425C179.951 69.5894 181.845 71.9024 181.346 74.379L167.513 143.069C167.137 144.936 165.497 146.28 163.592 146.28H50.8585C48.3321 146.28 46.4385 143.967 46.9372 141.49L60.7702 72.7997Z" fill="url(#paint1_linear_2004_5591)"/>
<path d="M181.27 65.1913H64.552C62.3176 65.1913 60.399 66.7806 59.9832 68.976L46.5831 139.728C46.0407 142.593 48.2369 145.244 51.1519 145.244H167.869C170.104 145.244 172.022 143.654 172.438 141.459L185.838 70.7066C186.381 67.8425 184.185 65.1913 181.27 65.1913Z" stroke="#390176" stroke-width="1.3"/>
<path d="M187.067 65.1913H64.552C62.3176 65.1913 60.399 66.7806 59.9832 68.976L46.5831 139.728C46.0407 142.593 48.2369 145.244 51.1519 145.244H173.667C175.902 145.244 177.82 143.654 178.236 141.459L191.636 70.7066C192.178 67.8425 189.982 65.1913 187.067 65.1913Z" stroke="#390176" stroke-width="1.3"/>
<path d="M176.126 139.949H5.0496C4.36506 139.949 3.7516 140.371 3.5078 141.011L1.38315 146.585C0.971501 147.665 1.76915 148.823 2.92496 148.823H174.001C174.686 148.823 175.299 148.4 175.543 147.761L177.668 142.186C178.079 141.106 177.282 139.949 176.126 139.949Z" fill="#5EBAD0" stroke="#390176" stroke-width="1.3"/>
<path d="M126.037 139.949H4.10217C3.38049 139.949 2.74254 140.418 2.52728 141.106L0.785299 146.681C0.453271 147.743 1.24704 148.823 2.36019 148.823H124.295C125.016 148.823 125.654 148.354 125.87 147.665L127.612 142.091C127.944 141.028 127.15 139.949 126.037 139.949Z" fill="#73EAF4" stroke="#390176" stroke-width="1.3"/>
<path d="M56.6581 143.169L57.3345 140.125H79.1107L78.1464 143.019C77.8742 143.835 77.1099 144.386 76.249 144.386H57.6343C56.9946 144.386 56.5193 143.794 56.6581 143.169Z" fill="#390176"/>
<g filter="url(#filter0_d_2004_5591)">
<path d="M52.9366 53.0962C47.4315 53.0962 42.9688 57.5589 42.9688 63.064V107.196C42.9688 112.701 47.4315 117.163 52.9366 117.163H129.007L141.09 128.732C141.724 129.339 142.777 128.89 142.777 128.013V117.163H144.804C150.31 117.163 154.772 112.701 154.772 107.196V63.064C154.772 57.5589 150.31 53.0962 144.804 53.0962H52.9366Z" fill="#155C6C"/>
<path d="M129.353 116.802L129.208 116.663H129.007H52.9366C47.7076 116.663 43.4688 112.424 43.4688 107.196V63.064C43.4688 57.8351 47.7076 53.5962 52.9366 53.5962H144.804C150.033 53.5962 154.272 57.8351 154.272 63.064V107.196C154.272 112.424 150.033 116.663 144.804 116.663H142.777H142.277V117.163V128.013C142.277 128.45 141.752 128.674 141.436 128.371L129.353 116.802Z" stroke="#73EAF4"/>
</g>
<g filter="url(#filter1_f_2004_5591)">
<path d="M57.9202 110.92L57.0529 110.13C53.9729 107.337 51.9395 105.489 51.9395 103.235C51.9395 101.387 53.3868 99.9453 55.2288 99.9453C56.2695 99.9453 57.2683 100.43 57.9202 101.189C58.572 100.43 59.5708 99.9453 60.6115 99.9453C62.4535 99.9453 63.9008 101.387 63.9008 103.235C63.9008 105.489 61.8674 107.337 58.7874 110.13L57.9202 110.92Z" fill="#73EAF4"/>
</g>
<path d="M57.9202 110.92L57.0529 110.13C53.9729 107.337 51.9395 105.489 51.9395 103.235C51.9395 101.387 53.3868 99.9453 55.2288 99.9453C56.2695 99.9453 57.2683 100.43 57.9202 101.189C58.572 100.43 59.5708 99.9453 60.6115 99.9453C62.4535 99.9453 63.9008 101.387 63.9008 103.235C63.9008 105.489 61.8674 107.337 58.7874 110.13L57.9202 110.92Z" fill="#73EAF4"/>
<rect x="49.9453" y="66.0542" width="88.7137" height="1.99357" rx="0.996783" fill="#73EAF4"/>
<rect x="49.9453" y="74.0283" width="88.7137" height="1.99357" rx="0.996783" fill="#73EAF4"/>
<rect x="49.9453" y="82.0029" width="72.7652" height="1.99357" rx="0.996783" fill="#73EAF4"/>
<rect x="49.9453" y="89.9771" width="48.8424" height="1.99357" rx="0.996783" fill="#73EAF4"/>
<defs>
<filter id="filter0_d_2004_5591" x="38.9688" y="49.0962" width="119.804" height="83.915" filterUnits="userSpaceOnUse" color-interpolation-filters="sRGB">
<feFlood flood-opacity="0" result="BackgroundImageFix"/>
<feColorMatrix in="SourceAlpha" type="matrix" values="0 0 0 0 0 0 0 0 0 0 0 0 0 0 0 0 0 0 127 0" result="hardAlpha"/>
<feOffset/>
<feGaussianBlur stdDeviation="2"/>
<feComposite in2="hardAlpha" operator="out"/>
<feColorMatrix type="matrix" values="0 0 0 0 0.45098 0 0 0 0 0.917647 0 0 0 0 0.956863 0 0 0 1 0"/>
<feBlend mode="normal" in2="BackgroundImageFix" result="effect1_dropShadow_2004_5591"/>
<feBlend mode="normal" in="SourceGraphic" in2="effect1_dropShadow_2004_5591" result="shape"/>
</filter>
<filter id="filter1_f_2004_5591" x="47.9395" y="95.9453" width="19.9609" height="18.9746" filterUnits="userSpaceOnUse" color-interpolation-filters="sRGB">
<feFlood flood-opacity="0" result="BackgroundImageFix"/>
<feBlend mode="normal" in="SourceGraphic" in2="BackgroundImageFix" result="shape"/>
<feGaussianBlur stdDeviation="2" result="effect1_foregroundBlur_2004_5591"/>
</filter>
<linearGradient id="paint0_linear_2004_5591" x1="95.772" y1="46" x2="167.161" y2="132.552" gradientUnits="userSpaceOnUse">
<stop stop-color="#21194B" stop-opacity="0"/>
<stop offset="1" stop-color="#73CDFF" stop-opacity="0.81"/>
</linearGradient>
<linearGradient id="paint1_linear_2004_5591" x1="114.142" y1="69.5894" x2="114.142" y2="146.28" gradientUnits="userSpaceOnUse">
<stop stop-color="#B9E8F4"/>
<stop offset="1" stop-color="#EEFCFF" stop-opacity="0"/>
</linearGradient>
</defs>
</svg>
