<svg width="294" height="194" viewBox="0 0 294 194" fill="none" xmlns="http://www.w3.org/2000/svg">
<rect x="8.83789" y="110.417" width="63.9797" height="10.3193" rx="3.09579" fill="url(#paint0_linear_2001_2388)"/>
<rect x="8.83789" y="110.417" width="63.9797" height="10.3193" rx="3.09579" stroke="url(#paint1_linear_2001_2388)" stroke-width="2.06386"/>
<rect x="8.83789" y="110.417" width="63.9797" height="10.3193" rx="3.09579" stroke="#45200C" stroke-opacity="0.35" stroke-width="2.06386"/>
<rect x="8.83789" y="120.736" width="63.9797" height="10.3193" rx="3.09579" fill="url(#paint2_linear_2001_2388)"/>
<rect x="8.83789" y="120.736" width="63.9797" height="10.3193" rx="3.09579" stroke="url(#paint3_linear_2001_2388)" stroke-width="2.06386"/>
<rect x="8.83789" y="120.736" width="63.9797" height="10.3193" rx="3.09579" stroke="#45200C" stroke-opacity="0.35" stroke-width="2.06386"/>
<rect x="11.9336" y="131.055" width="63.9797" height="10.3193" rx="3.09579" fill="url(#paint4_linear_2001_2388)"/>
<rect x="11.9336" y="131.055" width="63.9797" height="10.3193" rx="3.09579" stroke="url(#paint5_linear_2001_2388)" stroke-width="2.06386"/>
<rect x="11.9336" y="131.055" width="63.9797" height="10.3193" rx="3.09579" stroke="#45200C" stroke-opacity="0.35" stroke-width="2.06386"/>
<rect x="8.83789" y="141.375" width="63.9797" height="10.3193" rx="3.09579" fill="url(#paint6_linear_2001_2388)"/>
<rect x="8.83789" y="141.375" width="63.9797" height="10.3193" rx="3.09579" stroke="url(#paint7_linear_2001_2388)" stroke-width="2.06386"/>
<rect x="8.83789" y="141.375" width="63.9797" height="10.3193" rx="3.09579" stroke="#45200C" stroke-opacity="0.35" stroke-width="2.06386"/>
<rect x="8.83789" y="151.694" width="63.9797" height="10.3193" rx="3.09579" fill="url(#paint8_linear_2001_2388)"/>
<rect x="8.83789" y="151.694" width="63.9797" height="10.3193" rx="3.09579" stroke="url(#paint9_linear_2001_2388)" stroke-width="2.06386"/>
<rect x="8.83789" y="151.694" width="63.9797" height="10.3193" rx="3.09579" stroke="#45200C" stroke-opacity="0.35" stroke-width="2.06386"/>
<rect x="1.61426" y="100.097" width="63.9797" height="10.3193" rx="3.09579" fill="url(#paint10_linear_2001_2388)"/>
<rect x="1.61426" y="100.097" width="63.9797" height="10.3193" rx="3.09579" stroke="url(#paint11_linear_2001_2388)" stroke-width="2.06386"/>
<rect x="1.61426" y="100.097" width="63.9797" height="10.3193" rx="3.09579" stroke="#45200C" stroke-opacity="0.35" stroke-width="2.06386"/>
<path d="M43.3844 101.504C43.5694 101.004 44.2766 101.004 44.4616 101.504C45.3665 103.949 47.2944 105.877 49.7396 106.782C50.2396 106.967 50.2396 107.674 49.7396 107.859C47.2944 108.764 45.3665 110.692 44.4616 113.137C44.2766 113.637 43.5694 113.637 43.3844 113.137C42.4796 110.692 40.5517 108.764 38.1064 107.859C37.6064 107.674 37.6064 106.967 38.1064 106.782C40.5517 105.877 42.4796 103.949 43.3844 101.504Z" fill="url(#paint12_linear_2001_2388)"/>
<path d="M109.001 30.8571C109.001 33.6975 111.014 36 113.497 36H221.905C223.615 36 225.001 34.614 225.001 32.9042V20.5714C225.001 9.21014 216.949 0 207.016 0H126.985C117.053 0 109.001 9.21014 109.001 20.5714V30.8571Z" fill="#959595"/>
<path d="M107.001 31.1429C107.001 33.8254 109.014 36 111.497 36H219.905C221.615 36 223.001 34.614 223.001 32.9042V21.4286C223.001 10.6985 216.934 2 207.001 2L124.985 2C115.053 2 107.001 10.6985 107.001 21.4286V31.1429Z" fill="#707070"/>
<path d="M56.001 19.5938V165H170.786C180.495 165 188.001 157.151 188.001 147.469V19.5937C188.001 9.79452 195.501 1.99868 206.316 1.99868C207.295 1.84844 207.819 0.49967 208.001 0H75.6489C64.7976 0 56.001 8.77242 56.001 19.5938Z" fill="#959595"/>
<path d="M53.001 19.3563V163H169.501C181.716 163 186.001 155.246 186.001 145.681V19.3562C186.001 8.67022 194.791 0.00669596 205.636 0L72.6489 4.57764e-05C61.7976 4.57764e-05 53.001 8.66613 53.001 19.3563Z" fill="#D9D9D9"/>
<path d="M136.352 112.48H163.702L163.702 139.125C163.702 139.907 162.865 140.405 162.178 140.032L151.01 133.977C150.397 133.644 149.656 133.644 149.043 133.977L137.875 140.032C137.188 140.405 136.352 139.907 136.352 139.125L136.352 112.48Z" fill="#737373"/>
<path d="M146.897 86.0516C148.115 84.1558 150.887 84.1558 152.105 86.0516L155.285 90.9984C155.911 91.9726 157.028 92.5158 158.181 92.4064L163.978 91.8566C166.191 91.6466 167.898 93.7695 167.217 95.8863L165.348 101.699C165.002 102.773 165.268 103.949 166.042 104.77L170.208 109.19C171.721 110.796 171.117 113.425 169.053 114.208L163.493 116.318C162.426 116.723 161.668 117.682 161.521 118.814L160.746 124.784C160.458 127.01 157.97 128.198 156.057 127.024L151.12 123.994C150.127 123.384 148.875 123.384 147.882 123.994L142.945 127.024C141.032 128.198 138.544 127.01 138.255 124.784L137.48 118.814C137.334 117.682 136.576 116.723 135.509 116.318L129.949 114.208C127.885 113.425 127.281 110.796 128.794 109.19L132.96 104.77C133.734 103.949 134 102.773 133.654 101.699L131.785 95.8863C131.104 93.7695 132.811 91.6466 135.024 91.8566L140.821 92.4064C141.973 92.5158 143.091 91.9726 143.717 90.9984L146.897 86.0516Z" fill="#A6A6A6"/>
<path d="M152.001 132C152.001 130.343 150.658 129 149.001 129H23.0968C21.387 129 20.001 130.386 20.001 132.096V145.457C20.001 156.25 28.7995 165 39.653 165H168.608V163C159.608 162.5 152.001 154.871 152.001 145.457V132Z" fill="#959595"/>
<path d="M150.001 132.096C150.001 130.386 148.615 129 146.905 129H20.0968C18.387 129 17.001 130.386 17.001 132.096V145.457C17.001 156.25 25.7969 165 36.6472 165H169.647C158.797 165 150.001 156.25 150.001 145.457V132.096Z" fill="#E4E4E4"/>
<rect x="65.5947" y="104.409" width="45.1455" height="17.238" rx="3.74738" transform="rotate(-12.1096 65.5947 104.409)" stroke="black" stroke-width="1.49895"/>
<path d="M76.3485 107.256L76.6288 108.54L73.9483 109.125L74.2511 110.512L76.2568 110.075L76.5289 111.321L74.5232 111.759L75.1042 114.421L73.5015 114.771L72.0652 108.191L76.3485 107.256ZM78.578 106.769L79.4373 110.706C79.5233 111.099 79.6863 111.381 79.9263 111.552C80.1664 111.722 80.4739 111.766 80.8488 111.684C81.2237 111.602 81.488 111.433 81.6415 111.177C81.7951 110.921 81.8289 110.596 81.743 110.202L80.8837 106.266L82.4864 105.916L83.3437 109.843C83.4719 110.431 83.4553 110.955 83.2941 111.415C83.1328 111.876 82.8622 112.256 82.4823 112.555C82.1087 112.852 81.6626 113.058 81.144 113.171C80.6253 113.284 80.138 113.286 79.682 113.176C79.2308 113.058 78.8422 112.822 78.5161 112.468C78.1886 112.108 77.9608 111.634 77.8326 111.046L76.9753 107.119L78.578 106.769ZM90.7466 111.006L89.1439 111.356L85.5775 107.883L86.4634 111.941L84.8607 112.291L83.4244 105.711L85.0271 105.362L88.5977 108.853L87.7077 104.776L89.3104 104.427L90.7466 111.006ZM92.7497 103.676C93.4432 103.524 94.0793 103.529 94.658 103.691C95.2366 103.853 95.7211 104.153 96.1114 104.592C96.5065 105.022 96.7751 105.563 96.9169 106.213C97.0574 106.856 97.0385 107.459 96.8602 108.022C96.6881 108.583 96.3697 109.059 95.9048 109.448C95.4462 109.836 94.8733 110.105 94.1859 110.255L91.721 110.793L90.2847 104.214L92.7497 103.676ZM93.78 108.891C94.3861 108.758 94.8217 108.49 95.0869 108.085C95.352 107.68 95.4184 107.175 95.2861 106.569C95.1538 105.962 94.8821 105.528 94.471 105.264C94.06 105 93.5514 104.934 92.9453 105.067L92.1861 105.232L93.0209 109.056L93.78 108.891ZM98.79 103.702L99.0805 105.033L101.227 104.565L101.497 105.802L99.3506 106.27L99.6657 107.714L102.093 107.184L102.373 108.468L98.3433 109.348L96.907 102.768L100.937 101.888L101.218 103.172L98.79 103.702ZM104.255 101.164C104.949 101.013 105.585 101.018 106.164 101.18C106.742 101.341 107.227 101.641 107.617 102.08C108.012 102.511 108.281 103.051 108.423 103.701C108.563 104.345 108.544 104.948 108.366 105.51C108.194 106.072 107.875 106.547 107.41 106.936C106.952 107.325 106.379 107.594 105.692 107.744L103.227 108.282L101.79 101.702L104.255 101.164ZM105.286 106.379C105.892 106.247 106.327 105.978 106.592 105.573C106.858 105.169 106.924 104.663 106.792 104.057C106.659 103.451 106.388 103.016 105.977 102.752C105.566 102.488 105.057 102.423 104.451 102.555L103.692 102.721L104.526 106.545L105.286 106.379Z" fill="black"/>
<rect x="173.946" y="152.726" width="63.9797" height="10.3193" rx="3.09579" fill="url(#paint13_linear_2001_2388)"/>
<rect x="173.946" y="152.726" width="63.9797" height="10.3193" rx="3.09579" stroke="url(#paint14_linear_2001_2388)" stroke-width="2.06386"/>
<rect x="173.946" y="152.726" width="63.9797" height="10.3193" rx="3.09579" stroke="#9C2B07" stroke-opacity="0.15" stroke-width="2.06386"/>
<rect x="173.946" y="141.375" width="63.9797" height="10.3193" rx="3.09579" fill="url(#paint15_linear_2001_2388)"/>
<rect x="173.946" y="141.375" width="63.9797" height="10.3193" rx="3.09579" stroke="url(#paint16_linear_2001_2388)" stroke-width="2.06386"/>
<rect x="173.946" y="141.375" width="63.9797" height="10.3193" rx="3.09579" stroke="#9C2B07" stroke-opacity="0.15" stroke-width="2.06386"/>
<rect x="173.946" y="131.055" width="63.9797" height="10.3193" rx="3.09579" fill="url(#paint17_linear_2001_2388)"/>
<rect x="173.946" y="131.055" width="63.9797" height="10.3193" rx="3.09579" stroke="url(#paint18_linear_2001_2388)" stroke-width="2.06386"/>
<rect x="173.946" y="131.055" width="63.9797" height="10.3193" rx="3.09579" stroke="#9C2B07" stroke-opacity="0.15" stroke-width="2.06386"/>
<rect x="173.946" y="120.736" width="63.9797" height="10.3193" rx="3.09579" fill="url(#paint19_linear_2001_2388)"/>
<rect x="173.946" y="120.736" width="63.9797" height="10.3193" rx="3.09579" stroke="url(#paint20_linear_2001_2388)" stroke-width="2.06386"/>
<rect x="173.946" y="120.736" width="63.9797" height="10.3193" rx="3.09579" stroke="#9C2B07" stroke-opacity="0.15" stroke-width="2.06386"/>
<rect x="173.946" y="110.417" width="63.9797" height="10.3193" rx="3.09579" fill="url(#paint21_linear_2001_2388)"/>
<rect x="173.946" y="110.417" width="63.9797" height="10.3193" rx="3.09579" stroke="url(#paint22_linear_2001_2388)" stroke-width="2.06386"/>
<rect x="173.946" y="110.417" width="63.9797" height="10.3193" rx="3.09579" stroke="#9C2B07" stroke-opacity="0.15" stroke-width="2.06386"/>
<mask id="mask0_2001_2388" style="mask-type:alpha" maskUnits="userSpaceOnUse" x="212" y="101" width="50" height="70">
<path d="M225.271 105.332L225.451 105.642L225.791 105.753C229.465 106.945 233.647 109.712 237.831 113.778C242.004 117.835 246.134 123.139 249.711 129.336C253.288 135.532 255.818 141.76 257.244 147.403C258.674 153.059 258.979 158.064 258.175 161.842L258.1 162.193L258.279 162.503L259.727 165.011L254.231 168.184L254.225 168.187L254.187 168.21C252.475 169.198 250.34 169.402 247.861 168.813C245.376 168.222 242.6 166.844 239.705 164.75C233.916 160.562 227.794 153.619 222.758 144.897C217.722 136.174 214.77 127.401 214.039 120.294C213.673 116.74 213.866 113.647 214.598 111.199C215.327 108.758 216.571 107.011 218.283 106.023C218.283 106.023 218.283 106.023 218.283 106.023L223.823 102.824L225.271 105.332Z" fill="url(#paint23_linear_2001_2388)" stroke="url(#paint24_linear_2001_2388)" stroke-width="1.86574"/>
</mask>
<g mask="url(#mask0_2001_2388)">
<path d="M226.079 104.865L224.165 101.549L217.816 105.215C209.927 109.77 211.778 127.745 221.951 145.363C232.123 162.982 246.764 173.572 254.653 169.018C254.668 169.009 254.683 169 254.698 168.992L261.001 165.352L259.087 162.036C260.777 154.101 257.751 141.395 250.519 128.869C243.287 116.344 233.797 107.37 226.079 104.865Z" fill="url(#paint25_linear_2001_2388)"/>
<path d="M225.271 105.332L225.451 105.642L225.791 105.753C229.465 106.945 233.647 109.712 237.831 113.778C242.004 117.835 246.134 123.139 249.711 129.336C253.288 135.532 255.818 141.76 257.244 147.403C258.674 153.059 258.979 158.064 258.175 161.842L258.1 162.193L258.279 162.503L259.727 165.011L254.231 168.184L254.225 168.187L254.187 168.21C252.475 169.198 250.34 169.402 247.861 168.813C245.376 168.222 242.6 166.844 239.705 164.75C233.916 160.562 227.794 153.619 222.758 144.897C217.722 136.174 214.77 127.401 214.039 120.294C213.673 116.74 213.866 113.647 214.598 111.199C215.327 108.758 216.571 107.011 218.283 106.023C218.283 106.023 218.283 106.023 218.283 106.023L223.823 102.824L225.271 105.332Z" stroke="url(#paint26_linear_2001_2388)" stroke-width="1.86574"/>
</g>
<mask id="mask1_2001_2388" style="mask-type:alpha" maskUnits="userSpaceOnUse" x="219" y="100" width="47" height="67">
<path d="M224.631 102.358C222.919 103.346 221.675 105.093 220.946 107.534C220.214 109.981 220.021 113.075 220.387 116.629C221.118 123.736 224.07 132.509 229.106 141.232C234.142 149.954 240.264 156.897 246.053 161.084C248.948 163.179 251.724 164.557 254.209 165.148C256.688 165.737 258.823 165.533 260.535 164.545C262.246 163.556 263.491 161.81 264.22 159.368C264.951 156.921 265.145 153.827 264.779 150.273C264.047 143.166 261.095 134.393 256.059 125.671C251.023 116.948 244.902 110.005 239.113 105.818C236.217 103.723 233.441 102.345 230.956 101.754C228.478 101.165 226.342 101.369 224.631 102.358Z" fill="url(#paint27_linear_2001_2388)" stroke="#FF7C51" stroke-width="1.86574"/>
</mask>
<g mask="url(#mask1_2001_2388)">
<path d="M224.631 102.358C222.919 103.346 221.675 105.093 220.946 107.534C220.214 109.981 220.021 113.075 220.387 116.629C221.118 123.736 224.07 132.509 229.106 141.232C234.142 149.954 240.264 156.897 246.053 161.084C248.948 163.179 251.724 164.557 254.209 165.148C256.688 165.737 258.823 165.533 260.535 164.545C262.246 163.556 263.491 161.81 264.22 159.368C264.951 156.921 265.145 153.827 264.779 150.273C264.047 143.166 261.095 134.393 256.059 125.671C251.023 116.948 244.902 110.005 239.113 105.818C236.217 103.723 233.441 102.345 230.956 101.754C228.478 101.165 226.342 101.369 224.631 102.358Z" fill="url(#paint28_linear_2001_2388)" stroke="#FF7C51" stroke-width="1.86574"/>
<path d="M243.044 120.33L243.246 121.452C242.398 120.775 241.532 120.183 240.663 119.699C239.774 119.204 238.933 118.851 238.153 118.632L237.949 117.494C237.837 116.873 238.194 116.618 238.746 116.925L241.844 118.649C242.395 118.957 242.933 119.709 243.044 120.33Z" fill="url(#paint29_linear_2001_2388)"/>
<path d="M242.741 127.207C243.273 127.011 243.208 126.06 242.596 125.082C241.984 124.103 241.058 123.468 240.527 123.664C239.995 123.859 240.06 124.811 240.672 125.789C241.284 126.767 242.21 127.402 242.741 127.207Z" fill="url(#paint30_linear_2001_2388)"/>
<path d="M245.235 126.822C245.632 127.458 245.652 128.048 245.327 128.168C245.022 128.28 244.414 127.906 244.017 127.27C243.62 126.635 243.6 126.044 243.925 125.925C244.27 125.798 244.838 126.187 245.235 126.822Z" fill="url(#paint31_linear_2001_2388)"/>
<path d="M237.064 131.431C237.463 132.152 237.919 132.877 238.431 133.593C241.835 138.358 246.395 140.935 248.617 139.348C249.571 138.666 249.939 137.327 249.778 135.643C248.467 135.957 246.364 135.725 243.832 134.88C241.341 134.047 238.924 132.784 237.064 131.431Z" fill="url(#paint32_linear_2001_2388)"/>
<path d="M243.401 133.715C246.985 134.912 249.579 134.944 249.195 133.786C248.811 132.628 245.594 130.718 242.01 129.521C238.426 128.324 235.832 128.292 236.216 129.45C236.6 130.608 239.817 132.517 243.401 133.715Z" fill="url(#paint33_linear_2001_2388)"/>
<path fill-rule="evenodd" clip-rule="evenodd" d="M247.665 127.462C251.885 133.37 253.036 139.781 250.236 141.781C242.678 147.18 227.285 125.864 234.953 120.386C237.754 118.386 243.445 121.554 247.665 127.462ZM247.017 127.925C250.698 133.078 251.702 138.67 249.259 140.414C246.817 142.159 241.853 139.396 238.172 134.243C234.491 129.09 233.487 123.498 235.93 121.753C238.372 120.008 243.336 122.771 247.017 127.925Z" fill="url(#paint34_linear_2001_2388)"/>
</g>
<path d="M234.203 96.4072C234.418 95.8239 235.243 95.8239 235.459 96.4072C236.515 99.26 238.764 101.509 241.617 102.565C242.2 102.781 242.2 103.606 241.617 103.822C238.764 104.877 236.515 107.126 235.459 109.979C235.243 110.563 234.418 110.563 234.203 109.979C233.147 107.126 230.898 104.877 228.045 103.822C227.462 103.606 227.462 102.781 228.045 102.565C230.898 101.509 233.147 99.26 234.203 96.4072Z" fill="url(#paint35_linear_2001_2388)"/>
<defs>
<linearGradient id="paint0_linear_2001_2388" x1="8.83789" y1="115.576" x2="72.8176" y2="115.576" gradientUnits="userSpaceOnUse">
<stop stop-color="#FFAC37"/>
<stop offset="0.334872" stop-color="#FFE6C3"/>
<stop offset="0.339876" stop-color="#FFBB5C"/>
<stop offset="0.715" stop-color="#FFA1AA"/>
<stop offset="0.735" stop-color="#EC6975"/>
<stop offset="0.945" stop-color="#FF8A58"/>
<stop offset="0.97" stop-color="#FFCE88"/>
</linearGradient>
<linearGradient id="paint1_linear_2001_2388" x1="8.83789" y1="115.381" x2="72.8173" y2="115.808" gradientUnits="userSpaceOnUse">
<stop stop-color="#FF9141"/>
<stop offset="0.315" stop-color="#FFCE89"/>
<stop offset="0.68808" stop-color="#EF6C3F"/>
<stop offset="1" stop-color="#FB835F"/>
</linearGradient>
<linearGradient id="paint2_linear_2001_2388" x1="8.83789" y1="125.895" x2="72.8176" y2="125.895" gradientUnits="userSpaceOnUse">
<stop stop-color="#FFAC37"/>
<stop offset="0.334872" stop-color="#FFE6C3"/>
<stop offset="0.339876" stop-color="#FFBB5C"/>
<stop offset="0.715" stop-color="#FFA1AA"/>
<stop offset="0.735" stop-color="#EC6975"/>
<stop offset="0.945" stop-color="#FF8A58"/>
<stop offset="0.97" stop-color="#FFCE88"/>
</linearGradient>
<linearGradient id="paint3_linear_2001_2388" x1="8.83789" y1="125.7" x2="72.8173" y2="126.127" gradientUnits="userSpaceOnUse">
<stop stop-color="#FF9141"/>
<stop offset="0.315" stop-color="#FFCE89"/>
<stop offset="0.68808" stop-color="#EF6C3F"/>
<stop offset="1" stop-color="#FB835F"/>
</linearGradient>
<linearGradient id="paint4_linear_2001_2388" x1="11.9336" y1="136.215" x2="75.9133" y2="136.215" gradientUnits="userSpaceOnUse">
<stop stop-color="#FFAC37"/>
<stop offset="0.334872" stop-color="#FFE6C3"/>
<stop offset="0.339876" stop-color="#FFBB5C"/>
<stop offset="0.715" stop-color="#FFA1AA"/>
<stop offset="0.735" stop-color="#EC6975"/>
<stop offset="0.945" stop-color="#FF8A58"/>
<stop offset="0.97" stop-color="#FFCE88"/>
</linearGradient>
<linearGradient id="paint5_linear_2001_2388" x1="11.9336" y1="136.019" x2="75.9131" y2="136.447" gradientUnits="userSpaceOnUse">
<stop stop-color="#FF9141"/>
<stop offset="0.315" stop-color="#FFCE89"/>
<stop offset="0.68808" stop-color="#EF6C3F"/>
<stop offset="1" stop-color="#FB835F"/>
</linearGradient>
<linearGradient id="paint6_linear_2001_2388" x1="8.83789" y1="146.534" x2="72.8176" y2="146.534" gradientUnits="userSpaceOnUse">
<stop stop-color="#FFAC37"/>
<stop offset="0.334872" stop-color="#FFE6C3"/>
<stop offset="0.339876" stop-color="#FFBB5C"/>
<stop offset="0.715" stop-color="#FFA1AA"/>
<stop offset="0.735" stop-color="#EC6975"/>
<stop offset="0.945" stop-color="#FF8A58"/>
<stop offset="0.97" stop-color="#FFCE88"/>
</linearGradient>
<linearGradient id="paint7_linear_2001_2388" x1="8.83789" y1="146.339" x2="72.8173" y2="146.766" gradientUnits="userSpaceOnUse">
<stop stop-color="#FF9141"/>
<stop offset="0.315" stop-color="#FFCE89"/>
<stop offset="0.68808" stop-color="#EF6C3F"/>
<stop offset="1" stop-color="#FB835F"/>
</linearGradient>
<linearGradient id="paint8_linear_2001_2388" x1="8.83789" y1="156.854" x2="72.8176" y2="156.854" gradientUnits="userSpaceOnUse">
<stop stop-color="#FFAC37"/>
<stop offset="0.334872" stop-color="#FFE6C3"/>
<stop offset="0.339876" stop-color="#FFBB5C"/>
<stop offset="0.715" stop-color="#FFA1AA"/>
<stop offset="0.735" stop-color="#EC6975"/>
<stop offset="0.945" stop-color="#FF8A58"/>
<stop offset="0.97" stop-color="#FFCE88"/>
</linearGradient>
<linearGradient id="paint9_linear_2001_2388" x1="8.83789" y1="156.658" x2="72.8173" y2="157.085" gradientUnits="userSpaceOnUse">
<stop stop-color="#FF9141"/>
<stop offset="0.315" stop-color="#FFCE89"/>
<stop offset="0.68808" stop-color="#EF6C3F"/>
<stop offset="1" stop-color="#FB835F"/>
</linearGradient>
<linearGradient id="paint10_linear_2001_2388" x1="1.61426" y1="105.257" x2="65.594" y2="105.257" gradientUnits="userSpaceOnUse">
<stop stop-color="#FFAC37"/>
<stop offset="0.334872" stop-color="#FFE6C3"/>
<stop offset="0.339876" stop-color="#FFBB5C"/>
<stop offset="0.715" stop-color="#FFA1AA"/>
<stop offset="0.735" stop-color="#EC6975"/>
<stop offset="0.945" stop-color="#FF8A58"/>
<stop offset="0.97" stop-color="#FFCE88"/>
</linearGradient>
<linearGradient id="paint11_linear_2001_2388" x1="1.61426" y1="105.061" x2="65.5937" y2="105.489" gradientUnits="userSpaceOnUse">
<stop stop-color="#FF9141"/>
<stop offset="0.315" stop-color="#FFCE89"/>
<stop offset="0.68808" stop-color="#EF6C3F"/>
<stop offset="1" stop-color="#FB835F"/>
</linearGradient>
<linearGradient id="paint12_linear_2001_2388" x1="43.9228" y1="100.049" x2="43.9228" y2="114.593" gradientUnits="userSpaceOnUse">
<stop stop-color="white"/>
<stop offset="0.755" stop-color="#E3FDFF"/>
</linearGradient>
<linearGradient id="paint13_linear_2001_2388" x1="173.946" y1="157.885" x2="237.926" y2="157.885" gradientUnits="userSpaceOnUse">
<stop stop-color="#FFAC37"/>
<stop offset="0.334872" stop-color="#FFE6C3"/>
<stop offset="0.339876" stop-color="#FFBB5C"/>
<stop offset="0.715" stop-color="#FFA1AA"/>
<stop offset="0.735" stop-color="#EC6975"/>
<stop offset="0.945" stop-color="#FF8A58"/>
<stop offset="0.97" stop-color="#FFCE88"/>
</linearGradient>
<linearGradient id="paint14_linear_2001_2388" x1="173.946" y1="157.69" x2="237.926" y2="158.117" gradientUnits="userSpaceOnUse">
<stop stop-color="#FF9141"/>
<stop offset="0.315" stop-color="#FFCE89"/>
<stop offset="0.68808" stop-color="#EF6C3F"/>
<stop offset="1" stop-color="#FB835F"/>
</linearGradient>
<linearGradient id="paint15_linear_2001_2388" x1="173.946" y1="146.534" x2="237.926" y2="146.534" gradientUnits="userSpaceOnUse">
<stop stop-color="#FFAC37"/>
<stop offset="0.334872" stop-color="#FFE6C3"/>
<stop offset="0.339876" stop-color="#FFBB5C"/>
<stop offset="0.715" stop-color="#FFA1AA"/>
<stop offset="0.735" stop-color="#EC6975"/>
<stop offset="0.945" stop-color="#FF8A58"/>
<stop offset="0.97" stop-color="#FFCE88"/>
</linearGradient>
<linearGradient id="paint16_linear_2001_2388" x1="173.946" y1="146.339" x2="237.926" y2="146.766" gradientUnits="userSpaceOnUse">
<stop stop-color="#FF9141"/>
<stop offset="0.315" stop-color="#FFCE89"/>
<stop offset="0.68808" stop-color="#EF6C3F"/>
<stop offset="1" stop-color="#FB835F"/>
</linearGradient>
<linearGradient id="paint17_linear_2001_2388" x1="173.946" y1="136.215" x2="237.926" y2="136.215" gradientUnits="userSpaceOnUse">
<stop stop-color="#FFAC37"/>
<stop offset="0.334872" stop-color="#FFE6C3"/>
<stop offset="0.339876" stop-color="#FFBB5C"/>
<stop offset="0.715" stop-color="#FFA1AA"/>
<stop offset="0.735" stop-color="#EC6975"/>
<stop offset="0.945" stop-color="#FF8A58"/>
<stop offset="0.97" stop-color="#FFCE88"/>
</linearGradient>
<linearGradient id="paint18_linear_2001_2388" x1="173.946" y1="136.019" x2="237.926" y2="136.447" gradientUnits="userSpaceOnUse">
<stop stop-color="#FF9141"/>
<stop offset="0.315" stop-color="#FFCE89"/>
<stop offset="0.68808" stop-color="#EF6C3F"/>
<stop offset="1" stop-color="#FB835F"/>
</linearGradient>
<linearGradient id="paint19_linear_2001_2388" x1="173.946" y1="125.895" x2="237.926" y2="125.895" gradientUnits="userSpaceOnUse">
<stop stop-color="#FFAC37"/>
<stop offset="0.334872" stop-color="#FFE6C3"/>
<stop offset="0.339876" stop-color="#FFBB5C"/>
<stop offset="0.715" stop-color="#FFA1AA"/>
<stop offset="0.735" stop-color="#EC6975"/>
<stop offset="0.945" stop-color="#FF8A58"/>
<stop offset="0.97" stop-color="#FFCE88"/>
</linearGradient>
<linearGradient id="paint20_linear_2001_2388" x1="173.946" y1="125.7" x2="237.926" y2="126.127" gradientUnits="userSpaceOnUse">
<stop stop-color="#FF9141"/>
<stop offset="0.315" stop-color="#FFCE89"/>
<stop offset="0.68808" stop-color="#EF6C3F"/>
<stop offset="1" stop-color="#FB835F"/>
</linearGradient>
<linearGradient id="paint21_linear_2001_2388" x1="173.946" y1="115.576" x2="237.926" y2="115.576" gradientUnits="userSpaceOnUse">
<stop stop-color="#FFAC37"/>
<stop offset="0.334872" stop-color="#FFE6C3"/>
<stop offset="0.339876" stop-color="#FFBB5C"/>
<stop offset="0.715" stop-color="#FFA1AA"/>
<stop offset="0.735" stop-color="#EC6975"/>
<stop offset="0.945" stop-color="#FF8A58"/>
<stop offset="0.97" stop-color="#FFCE88"/>
</linearGradient>
<linearGradient id="paint22_linear_2001_2388" x1="173.946" y1="115.381" x2="237.926" y2="115.808" gradientUnits="userSpaceOnUse">
<stop stop-color="#FF9141"/>
<stop offset="0.315" stop-color="#FFCE89"/>
<stop offset="0.68808" stop-color="#EF6C3F"/>
<stop offset="1" stop-color="#FB835F"/>
</linearGradient>
<linearGradient id="paint23_linear_2001_2388" x1="257.524" y1="167.863" x2="265.659" y2="112.06" gradientUnits="userSpaceOnUse">
<stop stop-color="#FF7C51"/>
<stop offset="0.163935" stop-color="#EB6474"/>
<stop offset="0.65444" stop-color="#FFBF65"/>
<stop offset="1" stop-color="#EBECD9"/>
</linearGradient>
<linearGradient id="paint24_linear_2001_2388" x1="214.969" y1="106.819" x2="250.045" y2="171.267" gradientUnits="userSpaceOnUse">
<stop stop-color="#EDE9D1"/>
<stop offset="0.360529" stop-color="#FF7C51"/>
<stop offset="0.711797" stop-color="#ED6771"/>
<stop offset="1" stop-color="#FD7A56"/>
</linearGradient>
<linearGradient id="paint25_linear_2001_2388" x1="257.524" y1="167.863" x2="265.659" y2="112.06" gradientUnits="userSpaceOnUse">
<stop stop-color="#FF7C51"/>
<stop offset="0.163935" stop-color="#EB6474"/>
<stop offset="0.65444" stop-color="#FFBF65"/>
<stop offset="1" stop-color="#EBECD9"/>
</linearGradient>
<linearGradient id="paint26_linear_2001_2388" x1="214.969" y1="106.819" x2="250.045" y2="171.267" gradientUnits="userSpaceOnUse">
<stop stop-color="#EDE9D1"/>
<stop offset="0.360529" stop-color="#FF7C51"/>
<stop offset="0.711797" stop-color="#ED6771"/>
<stop offset="1" stop-color="#FD7A56"/>
</linearGradient>
<linearGradient id="paint27_linear_2001_2388" x1="243.132" y1="162.462" x2="249.531" y2="107.582" gradientUnits="userSpaceOnUse">
<stop stop-color="#FFE0EA"/>
<stop offset="0.225" stop-color="#FFD6C1"/>
<stop offset="0.735" stop-color="#FFBF65"/>
<stop offset="1" stop-color="#FF7B50"/>
</linearGradient>
<linearGradient id="paint28_linear_2001_2388" x1="243.132" y1="162.462" x2="249.531" y2="107.582" gradientUnits="userSpaceOnUse">
<stop stop-color="#FFE0EA"/>
<stop offset="0.225" stop-color="#FFD6C1"/>
<stop offset="0.735" stop-color="#FFBF65"/>
<stop offset="1" stop-color="#FF7B50"/>
</linearGradient>
<linearGradient id="paint29_linear_2001_2388" x1="239.946" y1="113.637" x2="231.122" y2="122.914" gradientUnits="userSpaceOnUse">
<stop stop-color="#FF7B50"/>
<stop offset="1" stop-color="#E75409"/>
</linearGradient>
<linearGradient id="paint30_linear_2001_2388" x1="239.946" y1="113.637" x2="231.122" y2="122.914" gradientUnits="userSpaceOnUse">
<stop stop-color="#FF7B50"/>
<stop offset="1" stop-color="#E75409"/>
</linearGradient>
<linearGradient id="paint31_linear_2001_2388" x1="239.946" y1="113.637" x2="231.122" y2="122.914" gradientUnits="userSpaceOnUse">
<stop stop-color="#FF7B50"/>
<stop offset="1" stop-color="#E75409"/>
</linearGradient>
<linearGradient id="paint32_linear_2001_2388" x1="239.946" y1="113.637" x2="231.122" y2="122.914" gradientUnits="userSpaceOnUse">
<stop stop-color="#FF7B50"/>
<stop offset="1" stop-color="#E75409"/>
</linearGradient>
<linearGradient id="paint33_linear_2001_2388" x1="239.946" y1="113.637" x2="231.122" y2="122.914" gradientUnits="userSpaceOnUse">
<stop stop-color="#FF7B50"/>
<stop offset="1" stop-color="#E75409"/>
</linearGradient>
<linearGradient id="paint34_linear_2001_2388" x1="239.946" y1="113.637" x2="231.122" y2="122.914" gradientUnits="userSpaceOnUse">
<stop stop-color="#FF7B50"/>
<stop offset="1" stop-color="#E75409"/>
</linearGradient>
<linearGradient id="paint35_linear_2001_2388" x1="234.831" y1="94.7096" x2="234.831" y2="111.678" gradientUnits="userSpaceOnUse">
<stop stop-color="white"/>
<stop offset="0.755" stop-color="#E3FDFF"/>
</linearGradient>
</defs>
</svg>
