<svg width="1480" height="1468" viewBox="0 0 1480 1468" fill="none" xmlns="http://www.w3.org/2000/svg">
<mask id="mask0_2004_5966" style="mask-type:alpha" maskUnits="userSpaceOnUse" x="0" y="0" width="1480" height="1468">
<rect x="0.5" y="0.5" width="1479" height="1467" fill="url(#paint0_linear_2004_5966)" stroke="#2C2261"/>
</mask>
<g mask="url(#mask0_2004_5966)">
<path d="M30.6758 384L1450.32 384" stroke="#2C2261"/>
<path d="M21 500H1459" stroke="#2C2261"/>
<path d="M21 732H1459" stroke="#2C2261"/>
<path d="M21 964H1459" stroke="#2C2261"/>
<path d="M21 1196H1459" stroke="#2C2261"/>
<path d="M21 616H1459" stroke="#2C2261"/>
<path d="M21 848H1459" stroke="#2C2261"/>
<path d="M21 1080H1459" stroke="#2C2261"/>
<path d="M21 1312H1459" stroke="#2C2261"/>
<path d="M124.14 353.927L1357.57 353.927" stroke="#2C2261"/>
<path d="M197.734 333.26L1283.97 333.26" stroke="#2C2261"/>
<path d="M278.761 310.528L1202.95 310.528" stroke="#2C2261"/>
<path d="M319.804 299.161L1161.9 299.161" stroke="#2C2261"/>
<path d="M354 260H1126" stroke="#2C2261"/>
<path d="M354 193H1126" stroke="#2C2261"/>
<path d="M354 126H1126" stroke="#2C2261"/>
<path d="M354 59H1126" stroke="#2C2261"/>
<path d="M21.5312 1427.5V405.434C21.5312 391.984 30.4826 380.178 43.4329 376.548L332.578 295.485C345.528 291.854 354.479 280.048 354.479 266.598V-145.5" stroke="#2C2261"/>
<path d="M1459.47 1428V405.434C1459.47 391.984 1450.52 380.178 1437.57 376.548L1148.42 295.485C1135.47 291.854 1126.52 280.048 1126.52 266.598V-145.5" stroke="#2C2261"/>
<path d="M141.123 1428V404.27C141.123 391.377 149.361 379.925 161.586 375.827L398.537 296.378C410.762 292.279 419 280.828 419 267.934V-145" stroke="#2C2261"/>
<path d="M1339.88 1427.5V404.27C1339.88 391.377 1331.64 379.925 1319.41 375.827L1082.46 296.378C1070.24 292.279 1062 280.828 1062 267.934V-145" stroke="#2C2261"/>
<path d="M261.069 1428.5L261.069 402.587C261.069 390.527 268.291 379.639 279.402 374.949L464.667 296.739C475.778 292.049 483 281.161 483 269.101V-145" stroke="#2C2261"/>
<path d="M1219.93 1428V402.587C1219.93 390.527 1212.71 379.639 1201.6 374.949L1016.33 296.739C1005.22 292.049 998 281.161 998 269.101V-145" stroke="#2C2261"/>
<path d="M379 1428V400.42C379 389.539 384.892 379.51 394.397 374.214L531.603 297.756C541.108 292.459 547 282.431 547 271.55V-145" stroke="#2C2261"/>
<path d="M1102 1428L1102 400.42C1102 389.539 1096.11 379.51 1086.6 374.214L949.397 297.756C939.892 292.459 934 282.431 934 271.55V-145" stroke="#2C2261"/>
<path d="M498 1426.5V396.693C498 387.762 501.979 379.296 508.854 373.597L600.146 297.921C607.021 292.221 611 283.755 611 274.824V-145" stroke="#2C2261"/>
<path d="M983 1428V396.693C983 387.762 979.021 379.296 972.146 373.597L880.854 297.921C873.979 292.221 870 283.755 870 274.824V-145" stroke="#2C2261"/>
<path d="M618 1428.5V390.953C618 385.359 619.564 379.877 622.516 375.125L671.484 296.285C674.436 291.533 676 286.05 676 280.456V-146" stroke="#2C2261"/>
<path d="M863 1428V390.953C863 385.359 861.436 379.877 858.484 375.125L809.516 296.285C806.564 291.533 805 286.05 805 280.456V-146" stroke="#2C2261"/>
<path d="M740 -145L740 424.658L740 1428.5" stroke="#2C2261"/>
<path d="M498 481V481C500.133 490.471 507.529 497.867 517 500V500V500C507.529 502.133 500.133 509.529 498 519V519V519C495.867 509.529 488.471 502.133 479 500V500V500C488.471 497.867 495.867 490.471 498 481V481Z" fill="#0E082C" stroke="#2C2261"/>
<path d="M983 481V481C985.133 490.471 992.529 497.867 1002 500V500V500C992.529 502.133 985.133 509.529 983 519V519V519C980.867 509.529 973.471 502.133 964 500V500V500C973.471 497.867 980.867 490.471 983 481V481Z" fill="#0E082C" stroke="#2C2261"/>
</g>
<defs>
<linearGradient id="paint0_linear_2004_5966" x1="740" y1="0" x2="740" y2="1521.71" gradientUnits="userSpaceOnUse">
<stop offset="0.674992" stop-color="#D9D9D9"/>
<stop offset="1" stop-color="#737373" stop-opacity="0"/>
</linearGradient>
</defs>
</svg>
