<svg width="180" height="180" viewBox="0 0 180 180" fill="none" xmlns="http://www.w3.org/2000/svg">
<g clip-path="url(#clip0_19_7623)">
<g clip-path="url(#clip1_19_7623)">
<path d="M170.324 122.784C170.271 121.248 169.39 120.422 167.872 121.707C165.431 123.774 160.703 125.463 157.895 126.34L158.815 125.958L158.309 124.968L158.104 125.09C160.155 123.048 161.934 120.149 163.107 117.534C163.758 116.093 163.663 113.639 163.107 111.691C162.254 108.762 160.308 107.006 158.134 111.691C156.246 115.745 153.106 119.084 149.178 121.215C149.23 121.14 149.286 121.065 149.336 120.984L148.363 120.447C148.141 120.934 147.874 121.437 147.601 121.921L147.576 121.963C149.8 117.77 148.966 111.97 147.576 107.716C147.209 106.597 146.489 105.628 145.525 104.953C143.231 103.334 140.071 103.684 140.071 106.683C140.071 108.862 139.712 112.771 139.37 116.004C139.201 117.629 139.034 119.084 138.917 120.066C134.069 117.058 130.136 112.776 127.892 109.772C136.699 103.785 143.095 94.8626 145.941 84.5952C148.787 74.3279 147.898 63.3827 143.432 53.7106C143.193 53.1959 142.942 52.6895 142.687 52.1859C142.748 52.0134 142.809 51.8437 142.865 51.674C143.637 49.2758 143.562 47.2476 142.639 45.6478L142.57 45.5309C142.128 44.7519 141.458 43.5834 139.39 42.988L139.24 42.9435H139.223L139.198 42.9213L139.07 42.8851C138.189 42.5737 137.276 42.3592 136.349 42.2452L135.695 42.1589C129.703 35.6507 121.923 31.0588 113.333 28.9595C104.742 26.8601 95.7236 27.3467 87.4085 30.3584C79.0933 33.37 71.8521 38.7724 66.5934 45.8877C61.3347 53.0031 58.2928 61.5144 57.8493 70.3536C57.573 70.3146 57.2944 70.2942 57.0154 70.2924C56.2839 70.2859 55.5611 70.4517 54.9055 70.7765L49.3458 73.6477C47.0553 73.6282 42.6882 72.8576 42.7076 67.296C44.5312 67.0901 45.9795 66.8453 46.541 66.6199C48.6259 65.7853 46.124 63.8238 46.541 62.4466C46.958 61.0695 50.0297 60.7773 52.248 59.9427C54.4663 59.108 58.6416 50.7615 55.8617 47.701C54.4246 46.1208 53.2098 45.3557 52.2202 45.1414C51.8327 45.0404 51.4255 45.0438 51.0397 45.1513C50.654 45.2588 50.3036 45.4666 50.0241 45.7535C49.5571 46.2209 49.5794 46.7718 49.7739 47.3394C50.0519 48.1212 50.6385 48.9363 50.7191 49.6041C50.8275 50.5166 49.8129 51.8298 47.8086 51.8298C47.1921 51.8221 46.5805 51.7179 45.9962 51.521C45.8794 51.4848 45.7654 51.4403 45.6515 51.393L45.8544 51.4487L46.1324 50.3747C45.8681 50.3215 45.6007 50.2852 45.3318 50.2662C45.0705 50.2468 44.812 50.2384 44.5534 50.2412C44.2949 50.244 44.117 50.2412 43.9002 50.2746C43.0314 49.4904 42.492 48.4057 42.3907 47.2392C42.3633 46.6916 42.48 46.1463 42.7293 45.658C42.9786 45.1698 43.3517 44.7556 43.8112 44.457C46.6856 42.4205 47.7669 44.8243 49.7267 44.457C50.7552 44.2623 51.7059 44.0953 52.2118 43.5361C52.6705 43.0298 52.7678 42.2062 52.2396 40.7539C51.1277 37.6935 46.491 35.9129 43.8057 37.0814C41.1204 38.25 37.2203 38.2416 35.5524 45.1971C35.5524 45.1971 34.9964 37.6852 38.0542 36.0159C41.112 34.3466 41.743 33.1252 40.2781 31.8426C38.0542 29.8951 33.6065 30.7297 30.5487 34.3466C27.4909 37.9634 28.9892 41.9614 29.1588 44.6406C29.1588 44.6406 24.9891 41.302 26.379 37.1287C26.7014 36.1605 26.6347 35.5373 26.3317 35.209C25.3282 34.124 21.7367 36.2941 21.0973 39.9109C20.3412 44.2066 22.1481 47.5258 24.7389 50.027C24.5999 50.1327 24.4609 50.244 24.3191 50.3692L25.1058 51.1537C25.2337 51.0202 25.3838 50.8755 25.5284 50.7448L25.545 50.7615C25.545 50.7615 23.8771 54.6565 25.545 57.9951C26.546 59.9907 28.2199 61.5675 30.2707 62.4466C30.2714 62.4568 30.2714 62.4671 30.2707 62.4772C30.09 62.4772 29.9066 62.4606 29.7148 62.4466V63.5595L29.9149 63.54C29.6369 64.5027 29.384 65.8993 29.7148 66.8981C29.9094 67.4824 31.7746 67.7328 34.2042 67.7606C34.1653 71.7503 35.5107 77.86 43.1469 81.5324C43.0872 82.4852 43.0965 83.4411 43.1747 84.3925C43.5249 88.9358 45.19 94.3583 47.8614 99.6612C52.6927 109.237 59.5172 115.929 64.457 115.929C65.1876 115.936 65.9096 115.77 66.564 115.445L75.1815 110.993C75.893 110.622 76.4986 110.077 76.9411 109.407C86.1893 115.882 97.5321 118.639 108.717 117.131C109.076 117.083 109.429 117.03 109.785 116.975L110.179 116.908C110.402 116.869 110.624 116.833 110.847 116.791L111.172 116.727C111.416 116.683 111.664 116.635 111.906 116.585L112.142 116.532C112.42 116.474 112.698 116.416 112.959 116.352L113.12 116.31C113.415 116.24 113.71 116.168 114.002 116.093L114.11 116.065L115.036 115.812L115.108 115.79C115.428 115.698 115.742 115.603 116.056 115.511L116.12 115.492C116.437 115.392 116.751 115.289 117.065 115.183L117.148 115.155L117.376 115.074C119.878 120.875 124.76 124.456 126.883 125.803C126.586 127.978 128.551 131.125 129.744 132.803C129.663 132.778 129.585 132.753 129.513 132.725L129.216 133.799C129.502 133.848 129.792 133.879 130.083 133.89C130.247 133.89 130.408 133.904 130.569 133.89L130.614 133.946C130.614 133.946 129.224 134.224 125.61 132.555C124.896 132.202 124.091 132.076 123.303 132.193C122.952 132.25 122.617 132.379 122.319 132.572C120.754 133.587 120.584 136.33 124.22 139.789C129.78 145.075 136.143 142.849 136.143 142.849C141.255 147.543 145.172 144.694 146.512 143.405C146.498 143.461 146.487 143.522 146.473 143.578L147.56 143.812C147.612 143.425 147.646 143.049 147.668 142.679C154.618 140.609 154.014 135.192 154.762 132.958C154.808 133.066 154.867 133.168 154.937 133.262L155.791 132.113C155.699 132.04 155.61 131.976 155.513 131.912C157.005 130.833 160.333 131.103 165.35 129.506C168.892 128.379 170.382 124.918 170.307 122.801L170.324 122.784Z" fill="#390176"/>
<path d="M141.798 147.117C139.74 147.117 137.703 146.302 135.726 144.688C134.781 144.889 133.816 144.988 132.849 144.986C129.198 144.988 125.691 143.557 123.081 141.002C119.979 138.05 119.49 135.679 119.626 134.21C119.67 133.599 119.855 133.005 120.166 132.477C120.478 131.949 120.907 131.501 121.421 131.167C121.911 130.849 122.461 130.635 123.037 130.541C123.312 130.494 123.591 130.471 123.87 130.471C124.717 130.477 125.551 130.667 126.317 131.028L126.803 131.247C125.983 129.764 125.324 128.154 125.21 126.671C122.962 125.127 119.025 121.927 116.51 117.097C116.198 117.195 115.884 117.289 115.567 117.375L115.492 117.4C115.172 117.489 114.853 117.578 114.53 117.662L114.422 117.69C114.116 117.77 113.81 117.846 113.505 117.918L113.341 117.96C113.063 118.026 112.785 118.088 112.49 118.149L112.245 118.202L111.5 118.349L111.147 118.416C110.961 118.452 110.772 118.483 110.591 118.513L110.313 118.561L110.052 118.605C109.685 118.664 109.315 118.719 108.94 118.769C106.867 119.047 104.777 119.186 102.686 119.187C93.6362 119.204 84.7804 116.565 77.214 111.597C76.8254 111.94 76.3948 112.233 75.9325 112.468L65.8279 117.687L65.7139 117.462C65.2998 117.541 64.8791 117.581 64.4574 117.581C58.8227 117.581 51.5563 110.673 46.3747 100.396C43.5949 94.9036 41.8769 89.2669 41.5128 84.5038C41.46 83.825 41.4349 83.16 41.4433 82.5173C34.6633 78.8393 32.9148 73.2332 32.5951 69.3576C29.7569 69.1851 28.5394 68.6259 28.1474 67.4101C27.8694 66.5392 27.8305 65.4625 28.0612 64.1911V63.1366C26.3509 62.0604 24.963 60.5416 24.0444 58.7408C22.8018 56.2535 23.0631 53.577 23.4551 51.8743L22.3181 49.8906C19.7468 46.8302 18.7822 43.3831 19.4466 39.6216C20.0859 35.9797 23.216 33.2587 25.5844 33.2587C26.1321 33.2385 26.6717 33.3961 27.1226 33.708C27.5735 34.0199 27.9115 34.4693 28.0863 34.9892C28.417 34.3757 28.8111 33.7984 29.2621 33.2671C31.4443 30.6908 34.4354 29.1522 37.268 29.1522C38.7629 29.1124 40.2206 29.6221 41.3655 30.585C42.5886 31.659 42.7554 32.7412 42.672 33.4618C42.533 34.7166 41.599 35.6876 40.4481 36.5055C40.9179 36.3219 41.3738 36.1689 41.8047 36.0242C42.2828 35.8629 42.7331 35.7126 43.1223 35.5429C43.9357 35.2001 44.8112 35.0296 45.6936 35.0421C48.7514 35.0421 52.6209 36.9618 53.7885 40.1752C54.0164 40.7985 54.6447 42.5234 53.8858 43.9924C54.9115 44.5043 55.9623 45.3612 57.0687 46.5771C58.4252 48.0683 58.7755 50.3803 58.0833 53.2543C57.2855 56.5929 54.9782 60.6855 52.8211 61.5007C52.0705 61.7789 51.2755 61.9987 50.5083 62.2046C49.7994 62.3966 48.6764 62.697 48.201 62.9669C48.265 63.1422 48.3706 63.3731 48.4484 63.5456C48.8126 64.3385 49.3074 65.4264 48.8459 66.5782C48.6882 66.9469 48.4551 67.2785 48.1616 67.5516C47.8681 67.8247 47.5208 68.0333 47.1419 68.164C46.2824 68.4488 45.3954 68.6427 44.4955 68.7427C45.1154 71.6 47.6312 71.9228 48.9432 71.9673L54.1304 69.288C54.8048 68.9472 55.5359 68.7331 56.2875 68.6565C57.2638 57.0352 62.5623 46.2038 71.135 38.3048C79.7077 30.4059 90.9303 26.0148 102.583 26H102.688C109.019 26.0088 115.283 27.306 121.098 29.8126C126.912 32.3193 132.157 35.9831 136.513 40.5814H136.574C137.596 40.7164 138.602 40.9579 139.574 41.302L140.074 41.4384L140.116 41.4801C140.952 41.7234 141.73 42.1352 142.402 42.6902C143.073 43.2452 143.624 43.9316 144.021 44.7074L144.088 44.8215C145.239 46.8135 145.375 49.2507 144.494 52.0691C144.658 52.4002 144.808 52.7118 144.947 53.0095C149.458 62.7615 150.463 73.7741 147.792 84.1825C145.12 94.591 138.937 103.756 130.289 110.125C132.429 112.745 134.875 115.098 137.575 117.133C137.622 116.716 137.67 116.279 137.717 115.828C138.17 111.552 138.406 108.389 138.406 106.683C138.406 104.079 140.141 102.329 142.72 102.329C144.076 102.354 145.391 102.794 146.49 103.59C147.752 104.471 148.692 105.741 149.167 107.206C149.87 109.36 151.096 113.995 150.418 118.491C153.106 116.57 155.25 113.985 156.642 110.987C157.087 110.033 158.432 107.129 160.842 107.129C161.848 107.129 163.691 107.663 164.734 111.224L164.798 111.452V111.466C165.354 113.511 165.504 116.326 164.648 118.221C163.872 119.947 162.942 121.599 161.868 123.157C164.075 122.247 165.776 121.318 166.819 120.433C167.625 119.751 168.434 119.404 169.226 119.404C170.48 119.404 171.775 120.316 171.989 122.342L172.017 122.397V122.756C172.114 125.817 170.007 129.781 165.901 131.103C163.811 131.75 161.673 132.232 159.508 132.544C158.64 132.686 157.84 132.822 157.284 132.97L156.172 134.466C156.153 134.58 156.13 134.697 156.111 134.817C155.875 136.183 155.555 138.055 154.443 139.825C153.314 141.653 151.574 143.022 149.259 143.909C149.259 143.951 149.003 145.815 149.003 145.815L146.807 145.356C145.376 146.478 143.615 147.097 141.798 147.117ZM44.6595 48.5607C44.9208 48.5607 45.1877 48.5608 45.4518 48.5914C45.7898 48.6152 46.1259 48.6608 46.4581 48.7277L48.1899 49.0921L47.9119 50.1549C48.5958 50.1271 48.921 49.8573 49.0239 49.7209C48.9627 49.5568 48.8182 49.273 48.7181 49.0755C48.5151 48.6935 48.3378 48.2985 48.1871 47.893C47.9591 47.2804 47.9109 46.6153 48.0481 45.9761C47.7245 45.8746 47.4063 45.7567 47.0947 45.6228C46.7554 45.4451 46.3857 45.3328 46.005 45.2917C45.8799 45.2917 45.5018 45.2917 44.7652 45.8147C44.5359 45.9527 44.3489 46.1509 44.2244 46.3878C44.0999 46.6248 44.0427 46.8913 44.0591 47.1585C44.1068 47.6661 44.2998 48.1491 44.6151 48.5496L44.6595 48.5607Z" fill="#390176"/>
<path d="M137.372 44.0842C137.843 44.6585 138.15 45.3502 138.258 46.0853C138.367 46.8204 138.274 47.5712 137.989 48.2575C134.473 56.6041 121.516 68.5118 104.159 78.5388C87.7577 88.0149 71.8654 93.2427 62.6003 92.8504C61.483 90.635 60.5532 88.3297 59.8205 85.9589C56.7768 76.1481 57.1832 65.5898 60.9722 56.0425C64.7612 46.4951 71.7039 38.5352 80.6441 33.4885C89.5842 28.4417 99.9821 26.6129 110.106 28.3064C120.229 30 129.468 35.1138 136.282 42.7961C136.655 43.2134 137.016 43.6391 137.372 44.0842Z" fill="url(#paint0_radial_19_7623)"/>
<path d="M147.579 72.6016C147.577 82.1402 144.543 91.4308 138.915 99.1285C133.287 106.826 125.357 112.532 116.274 115.419C107.19 118.307 97.4246 118.226 88.3899 115.19C79.3553 112.153 71.5205 106.318 66.0195 98.5288C65.71 98.093 65.4079 97.6497 65.1133 97.199C69.3886 97.6858 75.3986 96.7538 82.376 94.5726C90.0927 92.1632 98.9993 88.2236 108.056 82.9903C126.264 72.4625 139.632 59.862 142.337 51.5099C142.723 52.2333 143.087 52.9705 143.449 53.7162C146.184 59.635 147.593 66.0805 147.579 72.6016Z" fill="url(#paint1_radial_19_7623)"/>
<path d="M67.4866 97.8806C66.6712 97.8838 65.8564 97.841 65.0459 97.7526C61.774 97.377 59.5557 96.2196 58.4466 94.3055L57.3652 92.4136L59.1805 93.4875C60.3619 94.1942 61.9797 94.6254 63.9868 94.7673C64.4788 94.8035 65.0014 94.8202 65.5379 94.8202C75.1644 94.8202 90.6008 89.356 105.826 80.5615C124.073 70.0198 138.169 56.8294 140.112 48.4884C140.126 48.4272 140.137 48.3744 140.145 48.3187C140.261 47.3757 140.216 46.4199 140.012 45.492C139.958 45.1948 139.84 44.9132 139.665 44.667C139.49 44.4208 139.263 44.2162 139 44.0675L138.845 43.9841L138.764 43.8171L138.172 42.6431L139.406 42.9936C141.471 43.5834 142.144 44.7575 142.586 45.5365L142.656 45.6534C143.579 47.2531 143.654 49.2702 142.881 51.6796C140.059 60.3879 126.182 73.1637 108.342 83.4717C92.9469 92.3607 77.2993 97.8806 67.4866 97.8806Z" fill="#390176"/>
<path d="M142.336 51.5099C139.632 59.8564 126.263 72.4653 108.05 82.9903C90.8152 92.9561 74.114 98.2256 65.1074 97.1989C62.1108 96.8567 59.9648 95.8079 58.9279 94.0273L58.8945 93.966C60.1705 94.7284 61.8773 95.1763 63.9455 95.3238C73.1189 95.9748 89.3447 90.7248 106.104 81.0428C125.024 70.1116 138.714 56.9407 140.652 48.6136C140.668 48.5469 140.682 48.4773 140.694 48.405C140.86 47.4646 140.721 46.2877 140.557 45.3919C140.489 45.0135 140.338 44.6549 140.115 44.3418C139.892 44.0287 139.602 43.7688 139.267 43.5806L139.24 43.5278C141.186 44.0842 141.716 45.1665 142.158 45.9316C143.02 47.4228 143.042 49.3203 142.336 51.5099Z" fill="#455399"/>
<path d="M65.5385 95.9331C64.9825 95.9331 64.4266 95.9164 63.9067 95.8802C61.7274 95.7244 59.9455 95.2403 58.6251 94.4446L58.4972 94.3667L58.4249 94.2387C58.0706 93.5967 57.8449 92.8917 57.7606 92.1632C57.5326 90.3436 58.0608 88.1707 59.3312 85.7029L59.9511 84.4955L60.3541 85.7948C61.0504 88.0307 61.9232 90.2077 62.9644 92.3051C63.1794 92.3051 63.3962 92.3051 63.6149 92.3051C73.2414 92.3051 88.6777 86.8437 103.894 78.0492C120.423 68.4979 133.552 56.8489 137.35 48.366C137.65 47.6798 137.753 46.9234 137.647 46.1818C137.542 45.4401 137.232 44.7427 136.752 44.1677C136.474 43.8283 136.174 43.4888 135.882 43.155L134.895 42.0421L136.371 42.2369C137.297 42.3503 138.207 42.5639 139.087 42.874L139.215 42.9101L139.24 42.9324C139.348 42.9782 139.452 43.0302 139.554 43.0882C139.96 43.3168 140.31 43.632 140.581 44.0113C140.851 44.3907 141.035 44.825 141.119 45.2833C141.349 46.3377 141.395 47.4239 141.255 48.494C141.255 48.5719 141.227 48.6581 141.208 48.7388C139.17 57.4888 125.182 70.6624 106.396 81.5158C90.9989 90.4132 75.3485 95.9331 65.5385 95.9331Z" fill="#390176"/>
<path d="M140.694 48.405C140.683 48.4773 140.669 48.5468 140.652 48.6136C138.706 56.9407 125.024 70.1116 106.104 81.0428C89.3449 90.7248 73.1163 95.9748 63.9457 95.3237C61.8775 95.1763 60.1707 94.7284 58.8948 93.966C58.5758 93.3877 58.3728 92.7526 58.2971 92.0964C58.0803 90.3575 58.6168 88.2765 59.8093 85.9589C60.542 88.3297 61.4719 90.6349 62.5891 92.8504C71.8543 93.2427 87.7493 88.0149 104.147 78.5388C121.279 68.6454 134.125 56.9129 137.842 48.6025C138.187 47.8217 138.307 46.9595 138.187 46.114C138.067 45.2685 137.712 44.4737 137.163 43.8199C136.874 43.4749 136.581 43.1336 136.282 42.7961C137.174 42.9061 138.051 43.1122 138.898 43.4109H138.912C139.035 43.4559 139.154 43.5108 139.268 43.5751C139.603 43.7632 139.892 44.0232 140.115 44.3363C140.338 44.6494 140.489 45.0079 140.558 45.3863C140.722 46.2877 140.861 47.4646 140.694 48.405Z" fill="white"/>
<g style="mix-blend-mode:multiply" opacity="0.6">
<path d="M99.5109 112.493C89.384 111.761 80.4469 106.127 80.4469 106.127C81.0029 105.15 80.4469 102.652 80.4469 102.652C80.4469 102.652 82.1148 102.096 83.5937 99.9255C84.4666 98.6894 84.8572 97.1762 84.6917 95.6715C86.1743 95.1911 87.6948 94.657 89.2534 94.069C90.6127 94.6114 92.0673 94.8742 93.5303 94.8418C94.9933 94.8094 96.4349 94.4823 97.7689 93.8802C99.1029 93.278 100.302 92.4132 101.295 91.3371C102.288 90.2611 103.054 88.9959 103.547 87.6171C105.499 86.6025 107.463 85.524 109.44 84.3814C127.07 74.1931 140.16 62.0572 143.435 53.7162C143.087 52.9705 142.723 52.2333 142.323 51.5099C139.618 59.8564 126.25 72.4653 108.037 82.9903C106.719 83.7526 105.406 84.4853 104.098 85.1883C104.321 83.2683 104.029 81.3235 103.254 79.5531C102.479 77.7828 101.248 76.2505 99.6859 75.1132C98.1243 73.976 96.2887 73.2747 94.3671 73.0812C92.4456 72.8876 90.5072 73.2088 88.7504 74.0118C86.9937 74.8148 85.4819 76.0708 84.3698 77.6511C83.2576 79.2313 82.5853 81.0791 82.4215 83.005C82.2577 84.931 82.6084 86.8659 83.4376 88.6115C84.2669 90.3572 85.5449 91.8508 87.1407 92.9394C85.4562 93.5626 83.8049 94.1219 82.2232 94.6087L82.1704 94.6254C81.6886 94.7738 81.2123 94.9166 80.7416 95.0539L80.4636 95.1346L79.2683 95.4684L78.9653 95.5491C78.5511 95.6576 78.1452 95.7633 77.7394 95.8635L77.5448 95.9108C76.5996 96.1408 75.6795 96.343 74.7844 96.5173L74.5259 96.5674L73.5029 96.751L73.1415 96.8094C72.8358 96.8595 72.5328 96.904 72.2353 96.9486L71.8795 96.9986L70.901 97.1155L70.687 97.1405C70.295 97.1795 69.9142 97.2129 69.5389 97.2407L69.2915 97.2546C69.0135 97.2713 68.7355 97.288 68.4576 97.2963H68.0906H67.404H67.0315C66.8036 97.2963 66.5812 97.2963 66.3588 97.2713L66.0447 97.2574C65.7278 97.2351 65.4164 97.2101 65.1162 97.1767C65.4109 97.6274 65.7129 98.0707 66.0224 98.5066C69.8706 103.965 74.8872 108.496 80.7066 111.769C86.5259 115.041 93.0015 116.973 99.6613 117.424C106.321 117.874 112.998 116.832 119.204 114.373C125.41 111.913 130.99 108.099 135.537 103.208C125.288 109.649 109.632 113.222 99.5109 112.493Z" fill="#B2A8C1"/>
</g>
<path d="M94.0152 93.8714C100.032 93.8714 104.909 88.9898 104.909 82.9681C104.909 76.9463 100.032 72.0647 94.0152 72.0647C87.9986 72.0647 83.1211 76.9463 83.1211 82.9681C83.1211 88.9898 87.9986 93.8714 94.0152 93.8714Z" fill="#390176"/>
<path d="M94.0151 92.2967C99.1628 92.2967 103.336 88.1201 103.336 82.968C103.336 77.816 99.1628 73.6394 94.0151 73.6394C88.8674 73.6394 84.6943 77.816 84.6943 82.968C84.6943 88.1201 88.8674 92.2967 94.0151 92.2967Z" fill="white"/>
<g style="mix-blend-mode:multiply" opacity="0.6">
<path d="M95.1049 90.4799C93.5457 90.4799 92.0115 90.0884 90.6427 89.3412C89.2739 88.5941 88.1142 87.5153 87.2698 86.2034C86.4254 84.8916 85.9233 83.3887 85.8094 81.8324C85.6956 80.2761 85.9736 78.7161 86.6181 77.2952C85.8178 78.3384 85.247 79.5392 84.9431 80.8188C84.6392 82.0983 84.6091 83.4278 84.8547 84.7198C85.1003 86.0119 85.6161 87.2373 86.3683 88.3158C87.1205 89.3943 88.092 90.3013 89.2192 90.9775C90.3463 91.6537 91.6036 92.0837 92.9085 92.2393C94.2133 92.3949 95.5364 92.2726 96.7907 91.8804C98.045 91.4882 99.2023 90.8349 100.187 89.9635C101.171 89.0921 101.96 88.0223 102.502 86.8242C101.633 87.9618 100.513 88.8834 99.2304 89.5175C97.9475 90.1515 96.5357 90.4809 95.1049 90.4799Z" fill="#B2A8C1"/>
</g>
<path d="M77.1383 101.425C76.7214 97.1294 75.1119 92.0269 72.6072 87.0607C70.136 82.1612 67.0309 77.8794 63.8647 74.9804L63.2754 74.4434L66.3693 72.8298C66.8417 72.5923 67.364 72.4711 67.8927 72.4764C71.3285 72.4764 76.0542 77.0837 79.3817 83.6803C83.3068 91.4704 83.7432 98.8989 80.3796 100.599L77.219 102.246L77.1383 101.425Z" fill="#390176"/>
<path d="M80.1297 100.101L77.6946 101.372C77.2859 97.1739 75.732 92.0185 73.1051 86.8103C71.9537 84.5149 70.6295 82.3106 69.1438 80.2165C67.712 78.1668 66.0684 76.2737 64.2402 74.5686L66.6281 73.3222C68.207 72.5237 70.4448 73.4224 72.7437 75.5035C74.8814 77.4287 77.083 80.3751 78.876 83.9307C82.6148 91.3341 83.168 98.565 80.1297 100.101Z" fill="#8FFFFF"/>
<g style="mix-blend-mode:multiply" opacity="0.6">
<path d="M69.1438 80.2165C67.712 78.1668 66.0684 76.2737 64.2402 74.5686L66.6281 73.3222C68.207 72.5237 70.4448 73.4224 72.7437 75.5035C72.7437 75.5035 69.8721 73.7145 68.7602 73.7145C66.8143 73.7145 65.3772 74.6688 65.9804 75.3838C66.5836 76.0988 68.2154 77.8878 69.1438 80.2165Z" fill="#B2A8C1"/>
</g>
<g style="mix-blend-mode:multiply" opacity="0.6">
<path d="M80.1291 100.101L77.694 101.372C77.2853 97.1739 75.7314 92.0185 73.1045 86.8103C73.1045 86.8103 75.4812 89.5479 76.5737 92.0658C77.6662 94.5837 81.002 92.6223 80.724 90.1183C80.5072 88.1708 79.0172 84.234 78.8921 83.9335C82.6143 91.3341 83.1674 98.565 80.1291 100.101Z" fill="#B2A8C1"/>
</g>
<path d="M50.7022 73.5754L46.5324 75.7288C44.7756 76.6163 43.8388 78.7892 43.6859 81.7884C30.9682 76.0794 34.7182 63.8377 34.7182 63.8377L42.8742 65.2706C41.3036 75.0499 50.7022 73.5754 50.7022 73.5754Z" fill="#390176"/>
<path d="M48.362 74.1541L46.2771 75.228C44.5509 76.1016 43.4973 78.0686 43.1943 80.9371C38.5353 78.6418 35.7722 75.1585 34.9799 70.5762C34.6424 68.5513 34.6934 66.4807 35.13 64.4749L42.2464 65.7241C42.0439 67.0579 42.1139 68.4189 42.4521 69.7249C42.6765 70.5417 43.0737 71.3008 43.6168 71.9506C44.3306 72.7655 45.2505 73.3729 46.2799 73.7089C46.9538 73.9397 47.6527 74.0891 48.362 74.1541Z" fill="white"/>
<path d="M48.362 74.1541L46.2771 75.228C44.5509 76.1016 43.4973 78.0686 43.1943 80.9371C38.5353 78.6418 35.7722 75.1585 34.9799 70.5762C34.6424 68.5513 34.6934 66.4807 35.13 64.4749L42.2464 65.7241C42.0439 67.0579 42.1139 68.4189 42.4521 69.7249C42.4521 69.7249 38.11 70.1283 38.8383 72.4764C39.5666 74.8246 44.3479 76.7554 46.2688 73.7062C46.9461 73.9387 47.6489 74.0891 48.362 74.1541Z" fill="#B2A8C1"/>
<path d="M34.8185 68.8763C30.1429 68.8763 28.9948 68.2531 28.6612 67.2515C28.2081 65.891 28.5778 64.1187 28.9031 63.0226C27.0333 61.9818 25.518 60.4041 24.5527 58.4932C23.1266 55.6414 23.8049 52.5142 24.2469 51.0953C20.6804 47.7984 19.2432 43.9729 20.0049 39.7162C20.5998 36.3386 23.4463 33.8152 25.5951 33.8152C25.9234 33.802 26.25 33.8687 26.5468 34.0098C26.8436 34.1508 27.1018 34.3618 27.2991 34.6248C27.7912 35.3064 27.8356 36.2635 27.4353 37.471C27.0998 38.506 27.1452 39.627 27.5632 40.6315C27.4242 38.4559 27.7161 35.9658 29.7009 33.6176C31.7774 31.161 34.6101 29.6975 37.2815 29.6975C38.6396 29.6649 39.9627 30.131 41.0009 31.0079C41.8348 31.7424 42.2156 32.5465 42.1128 33.4034C41.9766 34.6387 40.9175 35.7126 38.5685 36.9952C37.9514 37.3319 37.4566 38.1609 37.1119 39.3879C38.6658 37.6629 40.481 37.0536 41.971 36.5528C42.463 36.3887 42.9245 36.2357 43.3359 36.0548C44.0796 35.7441 44.8791 35.5898 45.6849 35.6013C48.5564 35.6013 52.173 37.3847 53.2571 40.3672C53.813 41.8668 53.8131 42.9686 53.3294 43.8366C53.2496 43.9795 53.1565 44.1146 53.0514 44.24C54.1911 44.6629 55.3975 45.5727 56.6651 46.9554C57.9327 48.3382 58.1968 50.4415 57.5491 53.1347C56.7986 56.2535 54.5942 60.2459 52.6288 60.9888C51.9061 61.267 51.1277 61.4729 50.3716 61.676C49.521 61.9041 47.7503 62.3799 47.5918 62.7638C47.5612 62.9308 47.8142 63.4872 47.9504 63.7849C48.2868 64.5277 48.7093 65.4542 48.3368 66.3807C48.2063 66.6781 48.0153 66.945 47.776 67.1644C47.5367 67.3838 47.2543 67.5508 46.9469 67.6549C45.4319 68.2614 39.3135 68.8791 34.8185 68.8791V68.8763ZM46.0045 44.7352C45.433 44.7771 44.8883 44.9948 44.4451 45.3585C44.0997 45.5688 43.8253 45.8779 43.6573 46.2459C43.4893 46.6139 43.4355 47.0239 43.5027 47.4228C43.7028 48.7138 44.8926 49.9852 46.3075 50.4415C46.7815 50.6026 47.2776 50.6889 47.7781 50.6975C48.0705 50.7155 48.3635 50.6738 48.6393 50.5748C48.915 50.4757 49.1677 50.3215 49.382 50.1216C49.4941 50.0187 49.5669 49.88 49.5877 49.7293C49.4986 49.4097 49.3707 49.1023 49.2069 48.8139C48.7983 48.0043 48.1506 46.7301 48.7732 45.5643C48.2657 45.4712 47.7717 45.3151 47.3027 45.0997C46.8978 44.895 46.4568 44.7712 46.0045 44.7352Z" fill="#390176"/>
<path d="M52.2401 59.9427C50.0162 60.7774 46.9584 61.0556 46.5331 62.4467C46.1078 63.8378 48.618 65.7853 46.5331 66.6199C44.4482 67.4546 30.2711 68.5675 29.7152 66.8982C29.1592 65.2289 30.2711 62.4467 30.2711 62.4467C28.2204 61.5676 26.5464 59.9907 25.5455 57.9952C23.8776 54.6565 25.5455 50.7615 25.5455 50.7615C22.5405 48.188 20.2638 44.6407 21.0977 39.911C21.7371 36.2941 25.3286 34.124 26.3321 35.2091C26.6351 35.5374 26.7019 36.1606 26.3794 37.1288C24.9895 41.302 29.1592 44.6407 29.1592 44.6407C28.9897 41.9614 27.4913 37.9634 30.5491 34.3466C33.6069 30.7297 38.0546 29.8951 40.2785 31.8426C41.7435 33.1252 41.1124 34.3466 38.0546 36.0159C34.9968 37.6852 35.5528 45.1971 35.5528 45.1971C37.2207 38.2416 41.1124 38.2416 43.7978 37.0731C46.4831 35.9046 51.1198 37.6852 52.2317 40.7456C52.7599 42.1979 52.6626 43.0214 52.2039 43.5278C51.698 44.0842 50.7473 44.2539 49.7188 44.4487C47.7729 44.816 46.6776 42.4121 43.8033 44.4487C43.3438 44.7473 42.9707 45.1614 42.7214 45.6497C42.4721 46.138 42.3554 46.6832 42.3828 47.2309C42.444 48.5107 43.2362 49.8267 44.4288 50.7031C44.8998 51.0522 45.4247 51.3219 45.9827 51.5015C46.567 51.6985 47.1786 51.8027 47.7951 51.8104C49.7994 51.8104 50.814 50.5083 50.7056 49.5846C50.625 48.9169 50.0301 48.1017 49.7605 47.3199L51.6341 46.8664L52.2039 45.2722V45.1415C53.1935 45.3557 54.4083 46.1208 55.8455 47.7011C58.6253 50.7615 54.4556 59.108 52.2401 59.9427Z" fill="white"/>
<path d="M52.2038 45.1415V45.2583L51.6339 46.8664L49.7575 47.3394C49.563 46.7829 49.5407 46.2265 50.0077 45.7535C50.2872 45.4666 50.6376 45.2588 51.0233 45.1513C51.4091 45.0438 51.8163 45.0404 52.2038 45.1415Z" fill="white"/>
<path d="M52.198 43.5278C51.692 44.0842 50.7414 44.2539 49.7128 44.4487C47.7669 44.8159 46.6717 42.4121 43.7974 44.4487C43.3378 44.7473 42.9648 45.1614 42.7155 45.6497C42.4662 46.138 42.3494 46.6832 42.3769 47.2309C42.1156 45.798 42.363 43.6585 44.3617 42.7794C46.3604 41.9002 47.3666 42.2758 49.3125 43.1105C51.1778 43.9117 52.1201 43.5612 52.198 43.5278Z" fill="#B2A8C1"/>
<path d="M40.2785 31.8426C40.2785 31.8426 36.8148 31.2695 35.2748 32.1709C32.4088 33.8402 30.3934 35.6598 29.5428 40.8513C29.4511 41.4078 29.376 41.9892 29.3121 42.6208C29.2482 43.2524 29.1981 43.9229 29.1592 44.6407C28.9896 41.9614 27.4913 37.9634 30.5491 34.3466C33.6069 30.7297 38.0546 29.8951 40.2785 31.8426Z" fill="#B2A8C1"/>
<path d="M47.7895 51.8187C47.7006 51.8716 46.5108 52.5643 43.6615 52.8398C40.6954 53.118 39.4918 54.114 38.8469 55.5691C38.2019 57.0242 36.673 57.0464 37.0177 56.4789L38.1297 53.7523L40.6649 51.5099L42.9916 50.3803L44.412 50.7114C44.8831 51.0606 45.408 51.3303 45.966 51.5099C46.5539 51.708 47.1693 51.8122 47.7895 51.8187Z" fill="#B2A8C1"/>
<path d="M32.912 65.6462C32.078 64.2551 34.5159 62.544 34.5159 62.544C28.6116 61.1084 27.3523 54.7956 27.0744 52.5699V52.5532C26.9632 51.6629 27.7443 50.0492 28.4643 49.5095C30.9494 47.6705 34.2046 46.9582 34.2046 46.9582C31.6555 47.0946 29.0953 48.2352 27.4469 49.1311C27.4999 48.9759 27.5611 48.8236 27.6303 48.6748C24.2945 48.6748 22.3487 43.1105 22.3487 40.0501C22.3487 36.9896 26.3321 35.209 26.3321 35.209C25.3286 34.124 21.7371 36.2941 21.0977 39.9109C20.2638 44.6407 22.5405 48.188 25.5455 50.7615C25.5455 50.7615 23.8776 54.6565 25.5455 57.9952C26.5464 59.9907 28.2203 61.5676 30.2711 62.4467C30.2711 62.4467 29.1592 65.2288 29.7152 66.8982C30.2711 68.5675 44.4482 67.4546 46.5331 66.6199C43.1973 67.0373 33.7459 67.0373 32.912 65.6462Z" fill="#B2A8C1"/>
<g style="mix-blend-mode:multiply" opacity="0.6">
<path d="M80.5017 70.3508C76.1568 70.3508 71.5813 67.5047 70.3915 64.959C69.9467 64.0102 70.0023 63.1283 70.5444 62.4745C70.772 62.1692 71.0684 61.922 71.4093 61.7528C71.7503 61.5836 72.1264 61.4972 72.5069 61.5007C73.2451 61.552 73.9722 61.7075 74.6669 61.9626C76.3163 62.5243 78.045 62.8183 79.7873 62.8334H80.0653C80.9743 62.8167 81.8444 62.775 82.6839 62.736C83.5234 62.6971 84.3851 62.6553 85.1051 62.6553C86.495 62.6553 87.8293 62.7805 88.2963 63.6959C88.6799 64.4415 88.3741 65.4319 87.3123 66.9121C86.5489 68.0034 85.5275 68.8887 84.3391 69.4887C83.1507 70.0888 81.8323 70.3849 80.5017 70.3508Z" fill="#B2A8C1"/>
</g>
<path d="M66.0579 114.454L66.1162 114.423C70.1525 112.29 69.174 101.798 63.9925 91.5122C63.0623 89.664 62.0217 87.8737 60.8763 86.1509L60.8485 86.1092C56.6788 79.8826 51.7918 75.8568 48.3893 75.8568C47.8333 75.849 47.2835 75.974 46.7854 76.2213L46.2822 75.228L54.8997 70.7765C55.5553 70.4517 56.278 70.2859 57.0096 70.2924C59.2167 70.2924 61.8464 71.6307 64.6179 74.1569C67.2782 76.5857 69.8773 79.9327 72.1373 83.8417L72.179 83.8862L72.2013 83.9557C72.6794 84.7904 73.152 85.6612 73.5912 86.5599C76.1569 91.6457 77.8054 96.8873 78.2363 101.319C78.7227 106.313 77.6303 109.749 75.1785 110.996L66.561 115.447L66.0579 114.454Z" fill="#390176"/>
<path d="M74.9279 110.498L66.3104 114.949C70.7581 112.699 69.9492 102.093 64.4868 91.2618C63.5396 89.3843 62.4795 87.5661 61.3123 85.817C60.3745 84.407 59.3535 83.0543 58.2545 81.7662C53.968 76.7833 49.4814 74.271 46.5459 75.7511L55.1633 71.2996C57.1593 70.2924 59.8723 71.1299 62.7495 73.3361C63.2443 73.7145 63.7446 74.1346 64.245 74.5909C66.7969 76.9196 69.4016 80.2304 71.6894 84.2006C72.1758 85.0352 72.6484 85.92 73.1043 86.8214C75.7312 92.0297 77.274 97.185 77.6938 101.383C78.133 105.907 77.2407 109.329 74.9279 110.498Z" fill="#8FFFFF"/>
<g style="mix-blend-mode:multiply" opacity="0.6">
<path d="M62.7355 73.2972C62.552 73.1943 59.0411 71.1994 57.3732 71.7559C56.2363 72.137 53.0562 73.7423 52.1583 74.2793C51.2604 74.8163 53.4898 76.1823 54.5934 77.042C56.1521 78.3062 57.3983 79.9133 58.235 81.7383C53.9485 76.7554 49.4619 74.2431 46.5264 75.7233L55.1438 71.2718C57.1453 70.2646 59.8584 71.102 62.7355 73.2972Z" fill="#B2A8C1"/>
</g>
<g style="mix-blend-mode:multiply" opacity="0.6">
<path d="M74.9281 110.498L66.3106 114.949C70.7583 112.699 69.9494 102.093 64.487 91.2618C63.5398 89.3843 62.4797 87.566 61.3125 85.817C61.4487 85.984 64.879 89.5869 67.1501 94.3416C68.5845 97.3325 75.156 95.4295 74.6973 92.3273C74.5806 91.5233 73.2129 87.4446 71.6812 84.2034C72.1677 85.038 72.6403 85.9227 73.0962 86.8242C75.7231 92.0324 77.2659 97.1878 77.6856 101.386C78.1332 105.907 77.2409 109.329 74.9281 110.498Z" fill="#B2A8C1"/>
</g>
<path d="M80.5017 69.5162C76.1568 69.5162 71.5813 66.67 70.3915 64.1243C69.9467 63.1756 70.0023 62.2936 70.5444 61.6398C70.772 61.3346 71.0684 61.0873 71.4093 60.9181C71.7503 60.7489 72.1264 60.6626 72.5069 60.6661C73.2451 60.7174 73.9722 60.8728 74.6669 61.1279C76.3163 61.6897 78.045 61.9837 79.7873 61.9987H80.0653C80.9743 61.982 81.8444 61.9403 82.6839 61.9013C83.5234 61.8624 84.3851 61.8207 85.1051 61.8207C86.495 61.8207 87.8293 61.9459 88.2963 62.8612C88.6799 63.6068 88.3741 64.5973 87.3123 66.0774C86.5489 67.1688 85.5275 68.054 84.3391 68.6541C83.1507 69.2541 81.8323 69.5503 80.5017 69.5162Z" fill="#390176"/>
<path d="M86.8486 65.7491C81.225 73.5698 68.4518 65.0202 70.9731 61.9959C71.2593 61.6068 71.6826 61.3413 72.1573 61.2531C73.6834 60.9916 75.771 62.6275 80.0631 62.5552C82.9708 62.5051 85.5782 62.1851 86.9237 62.5552C88.1162 62.8584 88.3163 63.707 86.8486 65.7491Z" fill="#7C9BD1"/>
<g style="mix-blend-mode:multiply" opacity="0.6">
<path d="M86.8486 65.7491C81.225 73.5698 68.4518 65.0202 70.9731 61.9959C71.2593 61.6068 71.6826 61.3413 72.1573 61.2531C72.1322 61.3254 71.9154 64.1048 74.3311 65.0897C81.8366 68.1501 87.2878 64.7225 86.9237 62.5412C88.1162 62.8584 88.3163 63.707 86.8486 65.7491Z" fill="#B2A8C1"/>
</g>
<path d="M64.4568 115.929C59.517 115.929 52.6926 109.237 47.8613 99.6612C45.1898 94.3583 43.5247 88.9359 43.1745 84.3925C42.8103 79.6795 43.9167 76.4244 46.2851 75.228C46.9386 74.903 47.6597 74.7371 48.3894 74.7439C53.3319 74.7439 60.1564 81.4351 64.9849 91.0114C67.6591 96.3142 69.3242 101.737 69.6745 106.28C70.0359 110.993 68.9323 114.248 66.5639 115.445C65.9095 115.77 65.1875 115.936 64.4568 115.929Z" fill="#390176"/>
<path d="M66.3109 114.949C61.9271 117.175 54.0796 110.459 48.6173 99.9255C48.5283 99.7558 48.4422 99.5861 48.356 99.4136C42.8964 88.5825 42.0792 77.9768 46.5324 75.726C50.4242 73.7562 57.0958 78.8476 62.3441 87.4112C63.089 88.627 63.809 89.9152 64.4873 91.259C69.9496 102.093 70.7669 112.699 66.3109 114.949Z" fill="#50CCC9"/>
<g style="mix-blend-mode:multiply" opacity="0.6">
<path d="M62.344 87.414L48.6173 99.9338C48.5283 99.7641 48.4422 99.5944 48.356 99.4219C42.8964 88.5909 42.0792 77.9852 46.5324 75.7344C50.4353 73.7535 57.0846 78.8449 62.344 87.414Z" fill="#B2A8C1"/>
</g>
<path d="M65.2465 112.835C64.7953 113.057 64.2982 113.169 63.7955 113.163C60.7377 113.163 56.6208 109.794 52.982 104.625C52.8708 104.469 52.7624 104.31 52.654 104.149C51.4925 102.445 50.445 100.666 49.5183 98.8237C44.737 89.3393 43.8558 79.7268 47.6002 77.8377C48.0514 77.6157 48.5486 77.5032 49.0513 77.5094C51.8673 77.5094 55.5978 80.3806 59.017 84.8878C60.6591 87.0725 62.1021 89.4003 63.3285 91.8432C65.7191 96.573 67.2063 101.42 67.5176 105.454C67.8123 109.271 66.9839 111.97 65.2465 112.835Z" fill="#4A6899"/>
<g style="mix-blend-mode:multiply" opacity="0.6">
<path d="M52.654 104.149C51.4925 102.445 50.445 100.666 49.5183 98.8237C44.737 89.3393 43.8558 79.7268 47.6002 77.8377C48.0514 77.6157 48.5486 77.5032 49.0513 77.5094C51.8673 77.5094 55.5978 80.3806 59.017 84.8878L59.0392 86.0006L51.8117 94.9203C51.8117 94.9203 50.1438 90.6914 48.4759 91.5261C46.808 92.3607 49.3154 99.1715 52.654 104.149Z" fill="#B2A8C1"/>
</g>
<path d="M68.112 106.08C67.7562 107.337 67.1057 108.23 66.1884 108.695C65.7221 108.926 65.2078 109.045 64.6873 109.04C61.2292 109.04 56.4451 104.338 53.051 97.6051C51.1829 93.8993 50.0099 90.1155 49.7486 86.9438C49.4706 83.6052 50.2489 81.2904 51.9391 80.4363C52.4055 80.2053 52.9198 80.0881 53.4402 80.0941C54.4749 80.1399 55.4803 80.4523 56.359 81.0011C57.0345 81.666 57.7127 82.3921 58.3827 83.2073C60.5079 85.789 62.333 88.6041 63.8228 91.5984C65.9771 95.8718 67.3448 100.104 67.8758 103.706C67.9962 104.493 68.0751 105.285 68.112 106.08Z" fill="#390176"/>
<path d="M67.8759 103.706C67.8342 105.932 67.1976 107.563 65.93 108.2C62.8722 109.738 57.3348 104.883 53.5376 97.3492C49.7403 89.815 49.1343 82.4673 52.181 80.9343C53.7683 80.133 56.0311 81.0651 58.3745 83.2073C60.4996 85.789 62.3247 88.6041 63.8146 91.5984C65.9773 95.8718 67.3449 100.104 67.8759 103.706Z" fill="url(#paint2_linear_19_7623)"/>
<g style="mix-blend-mode:multiply" opacity="0.6">
<path d="M54.1021 97.633C50.3049 90.1016 49.6989 82.7511 52.7456 81.2181C53.6295 80.7729 54.722 80.8647 55.9201 81.4017C54.5052 80.6283 53.2098 80.4252 52.1896 80.9399C49.1318 82.4784 49.7489 89.8429 53.5461 97.3548C56.2398 102.691 59.8091 106.681 62.7446 108.005C59.9231 106.455 56.6262 102.635 54.1021 97.633Z" fill="#B2A8C1"/>
</g>
<path d="M64.7122 105.764C67.2149 104.5 66.7153 98.461 63.5963 92.2758C60.4772 86.0905 55.92 82.1012 53.4173 83.3654C50.9146 84.6296 51.4142 90.6685 54.5332 96.8538C57.6522 103.039 62.2095 107.028 64.7122 105.764Z" fill="url(#paint3_linear_19_7623)"/>
<g opacity="0.4">
<path d="M62.3601 101.1C63.8211 100.362 63.5302 96.8376 61.7102 93.2285C59.8903 89.6194 57.2305 87.2919 55.7695 88.03C54.3084 88.768 54.5994 92.292 56.4193 95.9011C58.2393 99.5102 60.899 101.838 62.3601 101.1Z" fill="url(#paint4_linear_19_7623)"/>
</g>
<path d="M124.52 111.867C119.63 114.598 114.27 116.382 108.72 117.128C108.72 117.128 118.81 110.993 110.749 92.9088C110.749 92.9088 112.461 92.4219 116.865 89.5702C121.59 86.5098 122.98 85.3969 122.98 85.3969C124.191 87.4345 125.179 89.5967 125.927 91.846C127.731 97.1628 128.932 104.928 124.52 111.867Z" fill="#390176"/>
<g style="mix-blend-mode:screen" opacity="0.8">
<path d="M58.7523 92.0514C59.6329 91.8596 59.9102 89.6971 59.3718 87.2212C58.8333 84.7454 57.683 82.8939 56.8024 83.0857C55.9219 83.2776 55.6445 85.4401 56.183 87.9159C56.7214 90.3918 57.8718 92.2433 58.7523 92.0514Z" fill="url(#paint5_linear_19_7623)"/>
</g>
<g style="mix-blend-mode:screen" opacity="0.6">
<path d="M60.6985 106.084C61.1126 105.994 61.2428 104.977 60.9894 103.811C60.736 102.646 60.195 101.775 59.7809 101.865C59.3669 101.955 59.2367 102.973 59.49 104.138C59.7434 105.303 60.2845 106.175 60.6985 106.084Z" fill="url(#paint6_linear_19_7623)"/>
</g>
<path d="M68.0735 105.418C67.7566 101.314 66.2471 96.406 63.8259 91.5984C59.4783 82.9736 53.4016 76.953 49.054 76.953C48.4635 76.946 47.8797 77.0785 47.3499 77.3397C45.3234 78.3663 44.42 81.2737 44.8092 85.5332C45.1844 89.6175 46.68 94.4362 49.0234 99.0741C53.371 107.699 59.4449 113.72 63.7953 113.72C64.3858 113.726 64.9694 113.593 65.4994 113.333C67.4452 112.348 68.3848 109.466 68.0735 105.418ZM65.2464 112.835C64.7953 113.057 64.2981 113.17 63.7953 113.163C59.7118 113.163 53.7101 107.131 49.521 98.8237C44.7369 89.3393 43.8585 79.7268 47.6001 77.8377C48.0522 77.6155 48.5503 77.503 49.054 77.5094C53.1347 77.5094 59.1391 83.5412 63.3283 91.8488C65.719 96.5785 67.2201 101.425 67.5203 105.459C67.8122 109.271 66.9838 111.97 65.2464 112.835Z" fill="#390176"/>
<g style="mix-blend-mode:multiply" opacity="0.6">
<path d="M118.808 96.8066C118.808 96.8066 122.291 108.228 117.073 115.169C114.357 116.086 111.558 116.738 108.717 117.117C108.717 117.117 118.808 110.982 110.746 92.8977C110.746 92.8977 112.458 92.4108 116.862 89.5591C121.587 86.4986 122.977 85.3858 122.977 85.3858C124.188 87.4234 125.176 89.5855 125.924 91.8349C125.924 91.8349 121.309 95.6938 118.808 96.8066Z" fill="#B2A8C1"/>
</g>
<path d="M127.914 126.401C127.517 126.189 118.155 121.129 116.178 111.243C115.65 108.595 115.111 103.732 117.443 100.871C118.313 99.8114 119.478 99.2021 120.642 99.2021C121.105 99.1995 121.561 99.3032 121.977 99.5054C123.483 100.259 124.201 102.171 124.954 104.193C125.468 105.571 126.002 106.992 126.811 108.233C128.924 111.474 134.316 117.879 141.141 121.309L142.978 122.236L140.927 122.361C140.846 122.361 132.826 122.898 128.52 126.334L128.242 126.562L127.914 126.401Z" fill="#390176"/>
<path d="M140.891 121.816C140.891 121.816 132.671 122.319 128.173 125.908C128.173 125.908 118.669 120.873 116.723 111.135C114.777 101.397 119.503 98.8933 121.727 100.006C123.139 100.713 123.792 102.694 124.604 104.85C125.05 106.138 125.633 107.375 126.341 108.539C128.638 111.898 131.385 114.924 134.506 117.534C136.464 119.2 138.607 120.637 140.891 121.816Z" fill="white"/>
<path d="M140.891 121.816C140.891 121.816 132.671 122.319 128.173 125.908C128.173 125.908 118.669 120.873 116.723 111.135C114.777 101.397 119.503 98.8933 121.727 100.006C123.139 100.713 123.792 102.694 124.604 104.85C124.604 104.85 122.144 101.258 120.712 104.85C120.259 105.982 120.523 109.413 122.155 113.222C123.486 116.326 127.403 118.95 130.494 119.342C134.706 119.877 134.517 117.534 134.517 117.534C136.472 119.199 138.61 120.636 140.891 121.816Z" fill="#B2A8C1"/>
<path d="M141.797 146.56C139.802 146.56 137.808 145.726 135.868 144.084C134.879 144.316 133.866 144.432 132.849 144.429C129.341 144.43 125.972 143.055 123.465 140.598C119.551 136.876 120.034 134.199 120.423 133.223C120.963 131.873 122.283 131.033 123.868 131.033C124.638 131.04 125.397 131.215 126.092 131.548C126.884 131.912 127.556 132.177 128.115 132.369C126.803 130.329 125.299 127.361 125.891 125.157C126.103 124.367 126.672 123.31 128.193 122.742C131.979 121.329 136.027 120.631 137.767 120.372C138.075 117.798 138.965 110.055 138.965 106.683C138.965 104.41 140.477 102.883 142.723 102.883C144.969 102.883 147.677 104.424 148.641 107.371C149.398 109.683 150.776 114.935 149.62 119.671C152.889 117.645 155.497 114.71 157.125 111.224C158.237 108.842 159.438 107.685 160.82 107.685C161.468 107.685 162.413 107.963 163.247 109.251C164.556 111.282 165.22 115.542 164.117 117.993C163.091 120.265 161.794 122.406 160.256 124.367C162.716 123.468 165.515 122.244 167.149 120.859C167.853 120.263 168.539 119.96 169.201 119.96C170.088 119.96 171.127 120.544 171.383 122.186C171.789 124.809 170.043 129.177 165.704 130.557C163.635 131.197 161.518 131.672 159.374 131.979C157.173 132.335 156.102 132.535 155.844 133.225C155.696 133.711 155.588 134.208 155.521 134.711C155.049 137.463 154.265 142.037 147.635 143.842C146.926 144.616 144.855 146.56 141.797 146.56Z" fill="#390176"/>
<path d="M170.327 122.792C170.402 124.91 168.912 128.371 165.37 129.497C159.811 131.264 156.333 130.741 155.113 132.28C154.981 132.447 154.878 132.635 154.807 132.836C153.973 135.048 154.807 140.835 147.163 142.816L147.024 142.852C147.024 142.852 142.512 148.694 136.152 142.852C136.152 142.852 129.789 145.078 124.229 139.791C120.593 136.333 120.763 133.59 122.328 132.574C122.626 132.382 122.961 132.253 123.312 132.196C124.1 132.078 124.905 132.205 125.619 132.558C129.233 134.227 130.623 133.949 130.623 133.949C130.623 133.949 123.754 125.586 128.577 123.786C130.536 123.075 132.543 122.505 134.584 122.08C137 121.565 138.754 121.359 138.754 121.359C138.754 121.359 139.054 118.961 139.365 116.004C139.707 112.771 140.066 108.862 140.066 106.683C140.066 103.684 143.226 103.345 145.52 104.953C146.484 105.628 147.204 106.597 147.571 107.716C148.961 111.97 149.795 117.77 147.571 121.963C147.602 121.963 147.866 121.855 148.3 121.654C152.634 119.574 156.113 116.052 158.143 111.691C160.317 107.006 162.263 108.762 163.116 111.691C163.672 113.639 163.764 116.09 163.116 117.534C161.626 120.828 159.188 124.584 156.444 126.49C156.186 126.671 155.918 126.838 155.641 126.991C155.902 126.924 164.309 124.72 167.872 121.704C169.39 120.419 170.271 121.245 170.324 122.781L170.327 122.792Z" fill="white"/>
<path d="M154.857 132.015L152.166 130.471L147.877 129.325L145.375 129.408C145.375 129.408 148.711 129.828 151.413 131.097C151.847 131.299 152.233 131.592 152.546 131.955C152.858 132.319 153.09 132.744 153.225 133.204C153.36 133.664 153.396 134.147 153.33 134.622C153.264 135.097 153.097 135.552 152.842 135.958C151.846 137.543 150.42 138.915 149.656 139.374C148.266 140.209 147.154 138.489 147.154 138.489L147.199 141.372L147.023 142.852L147.162 142.816C154.796 140.835 153.979 135.048 154.807 132.836C154.878 132.635 154.981 132.447 155.113 132.28L154.857 132.015Z" fill="#B2A8C1"/>
<path d="M147.163 139.931V142.816L147.024 142.852C147.024 142.852 142.512 148.694 136.152 142.852C136.152 142.852 129.789 145.078 124.229 139.791C120.593 136.333 120.763 133.59 122.328 132.574C122.626 132.382 122.961 132.253 123.312 132.196C123.312 132.196 121.863 133.253 122.419 134.644C122.975 136.035 125.455 139.602 129.219 140.045C132.983 140.487 134.412 140.437 136.338 140.045C136.338 140.045 138.542 142.713 141.044 142.713C143.546 142.713 147.118 142.799 146.86 137.888L147.163 139.931Z" fill="#B2A8C1"/>
<path d="M170.324 122.784C170.291 122.684 169.918 121.607 169.123 122.403C168.328 123.198 162.452 128.524 151.193 128.384L154.176 127.411L156.45 126.49C156.191 126.671 155.923 126.838 155.647 126.991C155.908 126.924 164.314 124.72 167.878 121.704C169.39 120.422 170.263 121.248 170.324 122.784Z" fill="#B2A8C1"/>
<path d="M163.116 111.691C163.055 111.616 162.129 110.467 160.784 111.274C159.394 112.109 158.838 117.117 155.224 119.621C151.61 122.125 147.997 124.35 144.383 125.741C144.541 125.655 146.607 124.517 148.3 121.66C152.635 119.578 156.114 116.055 158.143 111.691C160.317 107.006 162.263 108.762 163.116 111.691Z" fill="#B2A8C1"/>
<path d="M140.073 106.683C140.073 108.862 139.715 112.771 139.373 116.004C139.062 118.961 138.761 121.359 138.761 121.359C138.761 121.359 138.344 121.41 137.649 121.518C137.43 121.551 137.18 121.59 136.904 121.638H136.871L136.468 121.71H136.432C135.876 121.807 135.275 121.924 134.608 122.066C132.555 122.492 130.535 123.067 128.565 123.786C123.753 125.586 130.622 133.949 130.622 133.949L133.958 132.675C133.958 132.675 131.87 125.741 134.094 125.185C136.318 124.629 135.998 126.128 135.998 126.128L136.14 126.053V126.084C136.14 126.084 139.87 124.236 141.157 121.003C143.259 115.717 141.591 108.483 142.147 106.536C142.703 104.588 145.388 104.931 145.516 104.945C143.234 103.345 140.073 103.684 140.073 106.683Z" fill="#B2A8C1"/>
<path d="M146.481 143.57C146.666 142.82 146.797 142.059 146.873 141.291C146.954 140.513 146.981 139.73 146.954 138.948C146.921 138.163 146.817 137.383 146.643 136.617C146.456 135.844 146.176 135.097 145.809 134.391C146.266 135.056 146.64 135.774 146.921 136.531C147.193 137.296 147.394 138.085 147.521 138.887C147.643 139.694 147.71 140.508 147.721 141.324C147.736 142.151 147.69 142.978 147.582 143.798L146.481 143.57Z" fill="#390176"/>
<path d="M154.946 133.253C154.79 133.106 154.668 132.419 153.834 132.015C153.612 131.873 153.384 131.737 153.15 131.609C152.917 131.481 152.678 131.359 152.439 131.239C151.465 130.773 150.453 130.393 149.414 130.104C148.889 129.973 148.363 129.826 147.827 129.739C147.549 129.692 147.293 129.625 147.021 129.595L146.209 129.489C145.931 129.444 145.667 129.428 145.394 129.408L144.561 129.35C144.005 129.328 143.463 129.33 142.912 129.319C143.468 129.283 144.024 129.236 144.561 129.211H145.394C145.672 129.211 145.95 129.211 146.228 129.211L147.062 129.25C147.34 129.25 147.618 129.3 147.896 129.325C148.452 129.369 149.008 129.472 149.548 129.561C150.639 129.772 151.711 130.078 152.75 130.474C153.011 130.577 153.275 130.68 153.531 130.799C153.787 130.919 154.045 131.039 154.298 131.172C154.551 131.306 154.801 131.45 155.046 131.595C155.304 131.749 155.552 131.919 155.788 132.104L154.946 133.253Z" fill="#390176"/>
<path d="M149.345 120.984C149.008 121.485 148.664 121.938 148.297 122.394C147.93 122.851 147.552 123.282 147.146 123.694C146.745 124.112 146.315 124.5 145.859 124.857C145.408 125.215 144.911 125.512 144.383 125.741C144.858 125.436 145.291 125.07 145.67 124.651C146.05 124.239 146.4 123.801 146.718 123.34C147.04 122.884 147.332 122.406 147.61 121.921C147.888 121.437 148.149 120.934 148.372 120.447L149.345 120.984Z" fill="#390176"/>
<path d="M158.816 125.958C157.576 126.481 156.333 126.963 155.068 127.402C154.44 127.622 153.801 127.822 153.156 128.001C152.516 128.193 151.859 128.322 151.193 128.384C151.837 128.231 152.463 128.015 153.064 127.739C153.67 127.474 154.266 127.191 154.852 126.89C156.025 126.289 157.184 125.641 158.307 124.968L158.816 125.958Z" fill="#390176"/>
<path d="M129.521 132.716C129.751 132.798 129.984 132.866 130.222 132.919C130.468 132.976 130.716 133.019 130.967 133.05C131.47 133.116 131.979 133.124 132.485 133.072C132.995 133.019 133.494 132.885 133.963 132.675C134.44 132.451 134.873 132.145 135.242 131.77C134.932 132.218 134.546 132.606 134.1 132.917C133.639 133.229 133.131 133.466 132.596 133.618C132.052 133.774 131.493 133.867 130.928 133.896C130.65 133.911 130.372 133.911 130.094 133.896C129.803 133.885 129.513 133.854 129.227 133.804L129.521 132.716Z" fill="#390176"/>
<path d="M138.762 121.109C138.715 121.445 138.647 121.778 138.559 122.105C138.478 122.425 138.378 122.737 138.267 123.045C138.047 123.659 137.768 124.25 137.433 124.809C137.096 125.363 136.689 125.87 136.221 126.317C135.757 126.755 135.233 127.124 134.664 127.411C135.175 127.052 135.63 126.62 136.015 126.128C136.391 125.645 136.703 125.115 136.941 124.551C137.171 123.993 137.345 123.413 137.461 122.82C137.519 122.522 137.569 122.225 137.6 121.927C137.633 121.638 137.65 121.347 137.65 121.056L138.762 121.109Z" fill="#390176"/>
<path d="M29.7148 62.4467C30.3069 62.4884 30.9213 62.5134 31.5273 62.5301C32.1333 62.5468 32.7449 62.5552 33.3536 62.5552C34.573 62.5552 35.7943 62.519 37.0174 62.4467C35.8203 62.7008 34.6157 62.9215 33.4037 63.1088C32.7977 63.2034 32.1861 63.2869 31.5745 63.3648C30.963 63.4427 30.3542 63.5095 29.7232 63.5595L29.7148 62.4467Z" fill="#390176"/>
<path d="M45.8349 51.4375C45.6238 51.3762 45.4094 51.327 45.1927 51.2901C44.9676 51.2511 44.7396 51.2205 44.5089 51.2038C44.0465 51.1618 43.5813 51.1618 43.119 51.2038C42.1888 51.2831 41.2864 51.5611 40.4726 52.019C40.0589 52.2504 39.6744 52.5306 39.3273 52.8537C39.1438 53.0039 38.9882 53.1847 38.8186 53.3545C38.649 53.5242 38.5017 53.7134 38.3655 53.9109C37.7937 54.6986 37.3378 55.5643 37.0117 56.4816C37.2494 55.524 37.6239 54.6057 38.1236 53.7551C38.246 53.5353 38.4016 53.3406 38.5406 53.1319C38.6796 52.9232 38.8464 52.734 39.0215 52.5532C39.363 52.1769 39.7463 51.8409 40.164 51.5516C41.0122 50.9663 41.9749 50.5681 42.9883 50.3831C43.4952 50.2871 44.0097 50.2368 44.5256 50.2328C44.7841 50.2328 45.0426 50.2329 45.3039 50.2579C45.5728 50.2769 45.8402 50.3132 46.1045 50.3664L45.8349 51.4375Z" fill="#390176"/>
<path d="M24.3223 50.3692C24.7099 50.0389 25.1185 49.7341 25.5454 49.4566C25.9651 49.1784 26.3793 48.9391 26.8297 48.7138C28.5647 47.8092 30.4477 47.223 32.3893 46.9833C32.8647 46.9082 33.3511 46.8942 33.832 46.8636C34.3129 46.833 34.7938 46.8636 35.272 46.8636C34.7938 46.9109 34.3157 46.9276 33.8431 47C33.3706 47.0723 32.898 47.1363 32.4366 47.2559C31.5108 47.4598 30.6055 47.7475 29.7318 48.1156C28.8638 48.4768 28.031 48.9173 27.2439 49.4316C26.8491 49.6848 26.4738 49.9602 26.1069 50.244C25.7543 50.5257 25.4192 50.8286 25.1034 51.151L24.3223 50.3692Z" fill="#390176"/>
<g style="mix-blend-mode:screen">
<path d="M101.852 36.934C103.398 36.934 104.651 35.6796 104.651 34.1323C104.651 32.585 103.398 31.3307 101.852 31.3307C100.306 31.3307 99.0527 32.585 99.0527 34.1323C99.0527 35.6796 100.306 36.934 101.852 36.934Z" fill="url(#paint7_linear_19_7623)"/>
</g>
<path d="M124.732 46.922C124.19 47.1325 123.59 47.1385 123.044 46.9389C122.498 46.7392 122.043 46.3476 121.764 45.837C117.658 38.3418 108.604 36.7893 108.512 36.7754C107.923 36.6365 107.407 36.2795 107.07 35.7762C106.733 35.2728 106.598 34.6603 106.693 34.0617C106.788 33.463 107.106 32.9225 107.582 32.5485C108.059 32.1746 108.659 31.995 109.263 32.0457C109.727 32.118 120.713 33.9404 125.972 43.5417C126.277 44.1007 126.348 44.7581 126.17 45.3695C125.991 45.9809 125.577 46.4963 125.019 46.8024C124.927 46.85 124.831 46.89 124.732 46.922Z" fill="url(#paint8_linear_19_7623)"/>
<path style="mix-blend-mode:color-dodge" opacity="0.45" d="M67.5177 105.459C67.2064 101.425 65.7192 96.5924 63.3285 91.8488C62.1021 89.4059 60.6592 87.0781 59.017 84.8933C55.5978 80.3862 51.8673 77.515 49.0514 77.515C48.5486 77.5088 48.0515 77.6212 47.6003 77.8433L-40.5 105.459L-1.60529 175L65.2466 112.835C66.984 111.97 67.8124 109.271 67.5177 105.459Z" fill="url(#paint9_linear_19_7623)"/>
</g>
</g>
<defs>
<radialGradient id="paint0_radial_19_7623" cx="0" cy="0" r="1" gradientUnits="userSpaceOnUse" gradientTransform="translate(114.266 34.7249) scale(78.2908 78.3575)">
<stop stop-color="#56C1FC"/>
<stop offset="1" stop-color="#3A8CFC"/>
</radialGradient>
<radialGradient id="paint1_radial_19_7623" cx="0" cy="0" r="1" gradientUnits="userSpaceOnUse" gradientTransform="translate(115.628 50.1856) scale(70.0348 70.0944)">
<stop stop-color="#5577E5"/>
<stop offset="1" stop-color="#3F3EE5"/>
</radialGradient>
<linearGradient id="paint2_linear_19_7623" x1="50.249" y1="94.567" x2="67.8759" y2="94.567" gradientUnits="userSpaceOnUse">
<stop stop-color="#30A4E4"/>
<stop offset="1" stop-color="#9DD0E4"/>
</linearGradient>
<linearGradient id="paint3_linear_19_7623" x1="51.8233" y1="94.5665" x2="66.3034" y2="94.5665" gradientUnits="userSpaceOnUse">
<stop stop-color="#85D0E4"/>
<stop offset="1" stop-color="#BBD0E4"/>
</linearGradient>
<linearGradient id="paint4_linear_19_7623" x1="54.8367" y1="94.5665" x2="63.2901" y2="94.5665" gradientUnits="userSpaceOnUse">
<stop stop-color="#87D0E5"/>
<stop offset="0.3" stop-color="#6ECAE1"/>
<stop offset="0.95" stop-color="#2DBBD6"/>
<stop offset="1" stop-color="#28BAD5"/>
</linearGradient>
<linearGradient id="paint5_linear_19_7623" x1="57.1313" y1="93.4831" x2="56.9253" y2="84.1623" gradientUnits="userSpaceOnUse">
<stop stop-color="white" stop-opacity="0"/>
<stop offset="0.22" stop-color="white" stop-opacity="0.24"/>
<stop offset="0.6" stop-color="white" stop-opacity="0.64"/>
<stop offset="0.87" stop-color="white" stop-opacity="0.9"/>
<stop offset="1" stop-color="white"/>
</linearGradient>
<linearGradient id="paint6_linear_19_7623" x1="61.3295" y1="100.531" x2="61.4409" y2="104.918" gradientUnits="userSpaceOnUse">
<stop stop-color="white" stop-opacity="0"/>
<stop offset="0.22" stop-color="white" stop-opacity="0.24"/>
<stop offset="0.6" stop-color="white" stop-opacity="0.64"/>
<stop offset="0.87" stop-color="white" stop-opacity="0.9"/>
<stop offset="1" stop-color="white"/>
</linearGradient>
<linearGradient id="paint7_linear_19_7623" x1="129.591" y1="47.329" x2="97.2819" y2="31.9816" gradientUnits="userSpaceOnUse">
<stop stop-color="white" stop-opacity="0"/>
<stop offset="0.22" stop-color="white" stop-opacity="0.24"/>
<stop offset="0.6" stop-color="white" stop-opacity="0.64"/>
<stop offset="0.87" stop-color="white" stop-opacity="0.9"/>
<stop offset="1" stop-color="white"/>
</linearGradient>
<linearGradient id="paint8_linear_19_7623" x1="130.334" y1="45.7628" x2="98.0259" y2="30.418" gradientUnits="userSpaceOnUse">
<stop stop-color="white" stop-opacity="0"/>
<stop offset="0.22" stop-color="white" stop-opacity="0.24"/>
<stop offset="0.6" stop-color="white" stop-opacity="0.64"/>
<stop offset="0.87" stop-color="white" stop-opacity="0.9"/>
<stop offset="1" stop-color="white"/>
</linearGradient>
<linearGradient id="paint9_linear_19_7623" x1="10.5" y1="122.5" x2="65.6328" y2="97.2381" gradientUnits="userSpaceOnUse">
<stop stop-color="#A79DFF" stop-opacity="0"/>
<stop offset="1" stop-color="#9D92FF"/>
</linearGradient>
<clipPath id="clip0_19_7623">
<rect width="180" height="180" fill="white"/>
</clipPath>
<clipPath id="clip1_19_7623">
<rect width="208" height="149" fill="white" transform="translate(-36 26)"/>
</clipPath>
</defs>
</svg>
