<svg width="38" height="38" viewBox="0 0 38 38" fill="none" xmlns="http://www.w3.org/2000/svg">
<circle cx="19" cy="19" r="19" fill="url(#paint0_radial_321_2044)"/>
<path d="M28.7595 13.8949C29.0802 13.5742 29.0802 13.052 28.7595 12.7313L25.2687 9.24053C24.948 8.91982 24.4258 8.91982 24.1051 9.24053L22.4193 10.9263C22.1932 11.1524 21.856 11.2306 21.56 11.1195C18.1967 9.83261 14.2989 10.6138 11.7044 13.2083C8.09852 16.8142 8.09852 22.6856 11.7044 26.2915C13.5094 28.0965 15.8777 28.9969 18.246 28.9969C20.6143 28.9969 22.9826 28.0965 24.7876 26.2915C27.3821 23.697 28.1633 19.7992 26.8763 16.4359C26.7612 16.1398 26.8434 15.8027 27.0696 15.5766L28.7595 13.8949ZM26.1445 13.603L24.545 15.2024C24.3189 15.4285 24.2655 15.778 24.4217 16.0576C24.9233 16.9622 25.2317 17.9449 25.3386 18.9358C25.4373 19.8403 24.8658 20.6955 23.9941 20.9463C23.4801 21.0944 22.8017 21.2013 21.9218 21.2013C18.9738 21.2013 17.6293 18.8124 15.0143 18.8124C13.7438 18.8124 12.7693 19.0961 12.1074 19.388C11.6016 19.6101 11.0589 19.1948 11.1411 18.6438C11.2686 17.8133 11.54 17.0033 11.9635 16.2509C13.3121 13.8456 15.7708 12.571 18.2543 12.571C19.4466 12.571 20.6472 12.8629 21.7368 13.4714L21.9424 13.5824C22.222 13.7387 22.5715 13.6893 22.8017 13.4632L24.4011 11.8638C24.5615 11.7034 24.8205 11.7034 24.9809 11.8638L26.1445 13.0273C26.3048 13.1836 26.3048 13.4426 26.1445 13.603Z" fill="#5AB6E9"/>
<defs>
<radialGradient id="paint0_radial_321_2044" cx="0" cy="0" r="1" gradientUnits="userSpaceOnUse" gradientTransform="translate(19 19) rotate(90) scale(17.5)">
<stop stop-color="#2994D0" stop-opacity="0.58"/>
<stop offset="1" stop-color="#154B6A" stop-opacity="0"/>
</radialGradient>
</defs>
</svg>
