<svg width="222" height="251" viewBox="0 0 222 251" fill="none" xmlns="http://www.w3.org/2000/svg">
<mask id="mask0_2004_5890" style="mask-type:alpha" maskUnits="userSpaceOnUse" x="82" y="0" width="140" height="182">
<path d="M82.9785 69.5106C82.9785 31.121 114.099 0 152.489 0C190.879 0 222 31.121 222 69.5106V181.532H82.9785V69.5106Z" fill="#D9D9D9"/>
</mask>
<g mask="url(#mask0_2004_5890)">
<path d="M82.9785 69.5106C82.9785 31.121 114.099 0 152.489 0C190.879 0 222 31.121 222 69.5106V181.532H82.9785V69.5106Z" fill="#9B9B9B"/>
<path d="M105.957 73.0556C105.957 35.8808 137.078 5.74463 175.468 5.74463C213.857 5.74463 244.978 35.8808 244.978 73.0556V181.532H105.957V73.0556Z" fill="#202020"/>
<path d="M201.868 32.5879C202.074 32.0312 202.862 32.0312 203.068 32.5879C204.075 35.3104 206.221 37.4569 208.944 38.4644C209.501 38.6703 209.501 39.4577 208.944 39.6637C206.221 40.6711 204.075 42.8176 203.068 45.5401C202.862 46.0968 202.074 46.0968 201.868 45.5401C200.861 42.8176 198.714 40.6711 195.992 39.6637C195.435 39.4577 195.435 38.6703 195.992 38.4644C198.714 37.4569 200.861 35.3104 201.868 32.5879Z" fill="url(#paint0_linear_2004_5890)"/>
<path d="M203.117 150.859C203.289 150.395 203.945 150.395 204.116 150.859C204.956 153.127 206.745 154.916 209.014 155.756C209.477 155.927 209.477 156.583 209.014 156.755C206.745 157.595 204.956 159.383 204.116 161.652C203.945 162.116 203.289 162.116 203.117 161.652C202.278 159.383 200.489 157.595 198.22 156.755C197.756 156.583 197.756 155.927 198.22 155.756C200.489 154.916 202.278 153.127 203.117 150.859Z" fill="url(#paint1_linear_2004_5890)"/>
<path d="M177.417 20.9247C177.537 20.6 177.996 20.6 178.116 20.9247C178.704 22.5128 179.956 23.765 181.544 24.3526C181.869 24.4728 181.869 24.9321 181.544 25.0522C179.956 25.6399 178.704 26.892 178.116 28.4802C177.996 28.8049 177.537 28.8049 177.417 28.4802C176.829 26.892 175.577 25.6399 173.989 25.0522C173.664 24.9321 173.664 24.4728 173.989 24.3526C175.577 23.765 176.829 22.5128 177.417 20.9247Z" fill="url(#paint2_linear_2004_5890)"/>
</g>
<rect x="71.4893" y="181.532" width="150.511" height="68.9362" fill="#757575"/>
<rect x="71.4893" y="181.532" width="137.872" height="17.234" fill="#D9D9D9"/>
<rect x="57.7021" y="198.766" width="137.872" height="17.234" fill="#BBBBBB"/>
<rect x="43.915" y="216" width="137.872" height="17.234" fill="#D9D9D9"/>
<rect x="31.2764" y="233.234" width="137.872" height="17.234" fill="#BBBBBB"/>
<circle cx="180.064" cy="40.7874" r="1.7234" fill="white"/>
<circle cx="135.256" cy="169.468" r="1.7234" fill="white"/>
<circle cx="125.489" cy="171.191" r="2.29787" fill="white"/>
<path d="M118.596 73.0425C118.596 66.9674 123.521 62.0425 129.596 62.0425H222V119.489H129.596C123.521 119.489 118.596 114.564 118.596 108.489V73.0425Z" fill="#D9D9D9"/>
<path d="M215.681 131.437V116.042H197.872L213.974 132.144C214.604 132.774 215.681 132.328 215.681 131.437Z" fill="#D9D9D9"/>
<rect x="58.5957" y="59.9131" width="11.4894" height="42.5106" rx="2" fill="#7F7F7F"/>
<rect x="58.5957" y="59.9131" width="9.19149" height="42.5106" rx="2" fill="#B0B0B0"/>
<rect x="51.7021" y="77.147" width="12.6383" height="2.29787" rx="1.14894" fill="#D9D9D9"/>
<rect x="51.7021" y="84.0405" width="12.6383" height="2.29787" rx="1.14894" fill="#D9D9D9"/>
<circle cx="32.1702" cy="79.4451" r="32.1702" fill="url(#paint3_radial_2004_5890)"/>
<ellipse cx="50.6072" cy="56.3313" rx="20.134" ry="15.8338" transform="rotate(33.6073 50.6072 56.3313)" fill="url(#paint4_radial_2004_5890)"/>
<path fill-rule="evenodd" clip-rule="evenodd" d="M14.7964 80.2254C14.7937 80.174 14.7924 80.1225 14.7924 80.0709C14.7924 79.3917 14.9953 78.7955 15.4658 78.3489C15.9132 77.9243 16.5226 77.7128 17.1789 77.6077C18.4746 77.4002 20.3232 77.5577 22.556 77.808L22.5596 77.8084C24.5482 78.0418 27.2291 78.1811 30.1908 77.3257C33.8424 76.2312 37.0465 75.9235 40.2228 76.1685L40.2272 76.1688C42.3909 76.3498 44.3391 76.7071 45.7676 77.2758C47.1285 77.8176 48.3413 78.6911 48.3413 80.0709C48.3413 80.1234 48.3394 80.1749 48.3355 80.2254H48.3413C48.3413 89.4811 40.8305 96.9999 31.582 96.9999C22.3351 96.9999 14.7924 89.4828 14.7924 80.2254H14.7964ZM16.4682 83.2418C17.8768 90.2947 24.1258 95.6212 31.582 95.6212C39.476 95.6212 45.9932 89.6498 46.8638 81.9778C46.6188 82.0833 46.3586 82.1713 46.0961 82.2497C45.6335 82.3879 45.1014 82.5128 44.5481 82.6427C44.431 82.6702 44.313 82.6979 44.1945 82.7261C43.5047 82.8896 42.7721 83.0722 42.0202 83.3161C41.2995 83.5547 40.5865 83.8293 39.8388 84.1173C37.7104 84.9371 35.3008 85.8652 31.6324 86.3802C26.7097 87.0648 22.5674 86.4244 19.6285 85.1827C18.3439 84.6399 17.2732 83.9754 16.4682 83.2418ZM30.5835 78.6473C34.0786 77.5994 37.113 77.3117 40.1146 77.5429C42.2212 77.7192 44.0132 78.0614 45.2576 78.5568C46.5699 79.0792 46.9626 79.6347 46.9626 80.0709C46.9626 80.2342 46.9118 80.3433 46.7514 80.4694C46.5538 80.6246 46.2203 80.7737 45.7015 80.9287C45.2821 81.0539 44.7999 81.1672 44.2479 81.2969C44.1274 81.3253 44.0036 81.3544 43.8763 81.3845C43.1779 81.5502 42.4004 81.7433 41.5929 82.0053L41.5889 82.0065C40.7824 82.2735 40.0207 82.5669 39.2437 82.8661C37.1475 83.6734 34.9399 84.5235 31.4413 85.0148C26.7312 85.6698 22.8453 85.0451 20.1651 83.9126C18.8231 83.3456 17.804 82.6603 17.1309 81.9651C16.4519 81.2637 16.1711 80.604 16.1711 80.0709C16.1711 79.6783 16.2787 79.4782 16.4149 79.3489C16.5744 79.1976 16.868 79.0538 17.3969 78.9691C18.4713 78.797 20.1208 78.9224 22.4007 79.178C24.4702 79.4207 27.3611 79.5787 30.5769 78.6493L30.5835 78.6473Z" fill="#F2E8E3"/>
<path fill-rule="evenodd" clip-rule="evenodd" d="M32.0264 66.2955C32.0264 64.1033 33.7715 62.3022 35.9535 62.3022C38.1355 62.3022 39.8806 64.1033 39.8806 66.2955C39.8806 68.4877 38.1354 70.2887 35.9535 70.2887C33.7716 70.2887 32.0264 68.4877 32.0264 66.2955ZM35.9535 63.6809C34.5592 63.6809 33.4052 64.8383 33.4052 66.2955C33.4052 67.7527 34.5591 68.91 35.9535 68.91C37.3479 68.91 38.5019 67.7527 38.5019 66.2955C38.5019 64.8383 37.3478 63.6809 35.9535 63.6809Z" fill="#F2E8E3"/>
<path fill-rule="evenodd" clip-rule="evenodd" d="M42.2602 68.2752C40.6104 68.2752 39.2729 69.6126 39.2729 71.2623C39.2729 72.9123 40.6104 74.2497 42.2602 74.2497C43.9101 74.2497 45.2474 72.9122 45.2474 71.2623C45.2474 69.6126 43.9101 68.2752 42.2602 68.2752ZM40.6516 71.2623C40.6516 70.3741 41.3718 69.6539 42.2602 69.6539C43.1487 69.6539 43.8687 70.374 43.8687 71.2623C43.8687 72.1509 43.1486 72.8709 42.2602 72.8709C41.3719 72.8709 40.6516 72.1508 40.6516 71.2623Z" fill="#F2E8E3"/>
<path fill-rule="evenodd" clip-rule="evenodd" d="M50.526 54.5872C53.4399 56.7531 55.0588 58.6987 55.5624 60.6443C55.8863 61.7456 55.5984 63.0672 54.8789 64.0583C54.1594 65.0495 53.0082 65.6002 51.6771 65.6002C51.1735 65.6002 50.6698 65.5268 50.1661 65.3799C49.8675 66.2288 49.6195 67.0649 49.4445 67.8574C51.6501 71.2784 52.9352 75.3719 52.9352 79.771C52.9352 91.7753 43.4018 101.503 31.6381 101.503C19.8742 101.503 10.3408 91.7753 10.3408 79.771C10.3408 67.7668 19.8742 58.0386 31.6381 58.0386C34.239 58.0386 36.7338 58.517 39.0416 59.3927C39.2924 59.2655 39.572 59.116 39.8796 58.9407C40.1009 58.8115 40.3403 58.6692 40.5956 58.5132C40.3803 58.1833 40.2008 57.8171 40.0572 57.524C39.6615 56.5695 39.8053 54.991 40.4169 53.8162C40.9206 52.8251 41.7121 52.1643 42.6114 51.9807C42.9712 51.9073 43.3309 51.8706 43.7266 51.8706C45.7053 51.8706 48.1875 52.8618 50.526 54.5872ZM40.3129 59.9236L40.3387 59.9079L40.3441 59.9102C41.4953 59.2861 43.1501 58.2216 45.0568 56.6797C45.7763 56.9734 46.7116 57.4874 47.8628 58.2583C49.2299 59.176 50.4171 60.204 51.1725 61.0116C49.9155 62.6973 49.0888 65.005 48.5849 66.6199C46.4315 63.7377 43.5893 61.4202 40.3129 59.9236ZM39.5982 60.9172C37.1577 59.8443 34.4666 59.2501 31.6381 59.2501C20.5217 59.2501 11.528 68.4276 11.528 79.771C11.528 91.1145 20.5217 100.292 31.6381 100.292C42.7184 100.292 51.7481 91.1145 51.7481 79.771C51.7481 76.1121 50.8123 72.6785 49.1714 69.7056L49.1589 69.8586C46.9491 65.9437 43.6132 62.8035 39.5982 60.9172ZM41.855 57.7076C41.7383 57.7858 41.6234 57.8616 41.5106 57.9353C41.293 57.6204 41.1287 57.3427 41.0298 57.1206C40.598 56.0927 41.1017 53.4128 42.8285 53.0457C44.5554 52.6786 47.2535 53.4863 49.9155 55.4686C52.5777 57.451 54.0887 59.2131 54.5563 60.9384C54.9817 62.6387 53.6954 65.1589 50.5251 64.3536C50.5604 64.2676 50.5964 64.1814 50.6329 64.0952C50.7769 64.1319 50.9567 64.1319 51.1366 64.1319C51.5682 64.1319 52.0719 64.0585 52.4677 63.7281C52.7555 63.5078 53.0792 63.104 53.0432 62.3698C53.0432 61.6724 52.5036 60.7913 51.3885 59.7267C50.597 58.9557 49.5176 58.1114 48.4384 57.3405C45.3446 55.248 43.1861 54.6607 42.2148 55.6518C41.5673 56.3126 41.6391 57.1203 41.855 57.7076ZM51.8561 61.9293C51.964 62.1128 51.9999 62.2964 51.9999 62.4065C51.9999 62.7366 51.8922 62.8468 51.8203 62.9203C51.6763 63.0304 51.3883 63.104 51.1366 63.104C51.3521 62.6642 51.6036 62.2974 51.855 61.9308L51.8561 61.9293ZM42.9702 56.4595C43.0781 56.3493 43.366 56.2759 43.8337 56.3493C43.4739 56.643 43.1142 56.9 42.7544 57.157C42.7184 56.9 42.7544 56.643 42.9702 56.4595Z" fill="#F2E8E3"/>
<defs>
<linearGradient id="paint0_linear_2004_5890" x1="202.468" y1="30.9678" x2="202.468" y2="47.1612" gradientUnits="userSpaceOnUse">
<stop stop-color="white"/>
<stop offset="0.755" stop-color="#E3FDFF"/>
</linearGradient>
<linearGradient id="paint1_linear_2004_5890" x1="203.617" y1="149.509" x2="203.617" y2="163.003" gradientUnits="userSpaceOnUse">
<stop stop-color="white"/>
<stop offset="0.755" stop-color="#E3FDFF"/>
</linearGradient>
<linearGradient id="paint2_linear_2004_5890" x1="177.766" y1="19.9797" x2="177.766" y2="29.4258" gradientUnits="userSpaceOnUse">
<stop stop-color="white"/>
<stop offset="0.755" stop-color="#E3FDFF"/>
</linearGradient>
<radialGradient id="paint3_radial_2004_5890" cx="0" cy="0" r="1" gradientUnits="userSpaceOnUse" gradientTransform="translate(32.1702 79.4451) rotate(90) scale(28.7234)">
<stop offset="0.545754" stop-color="#E8722F" stop-opacity="0"/>
<stop offset="0.763078" stop-color="#E8722F"/>
<stop offset="1" stop-color="#FF8642" stop-opacity="0"/>
</radialGradient>
<radialGradient id="paint4_radial_2004_5890" cx="0" cy="0" r="1" gradientUnits="userSpaceOnUse" gradientTransform="translate(49.706 58.5017) rotate(-87.5534) scale(12.2349 16.8112)">
<stop stop-color="#E8722F"/>
<stop offset="0.895" stop-color="#FF8642" stop-opacity="0"/>
</radialGradient>
</defs>
</svg>
