<svg width="124" height="142" viewBox="0 0 124 142" fill="none" xmlns="http://www.w3.org/2000/svg">
<mask id="mask0_1023_38896" style="mask-type:alpha" maskUnits="userSpaceOnUse" x="44" y="0" width="79" height="103">
<path d="M44.1729 39.5377C44.1729 17.7901 61.8028 0.160156 83.5504 0.160156C105.298 0.160156 122.928 17.7901 122.928 39.5377V102.997H44.1729V39.5377Z" fill="#D9D9D9"/>
</mask>
<g mask="url(#mask0_1023_38896)">
<path d="M44.1729 39.5377C44.1729 17.7901 61.8028 0.160156 83.5504 0.160156C105.298 0.160156 122.928 17.7901 122.928 39.5377V95.3267C122.928 99.5631 119.494 102.997 115.257 102.997H44.1729V39.5377Z" fill="url(#paint0_linear_1023_38896)"/>
<path d="M57.1896 41.5455C57.1896 20.4861 74.8195 3.41406 96.5671 3.41406C118.315 3.41406 135.945 20.4861 135.945 41.5455V102.997H57.1896V41.5455Z" fill="url(#paint1_linear_1023_38896)"/>
<path d="M111.524 18.6213C111.641 18.3059 112.087 18.3059 112.204 18.6213C112.775 20.1636 113.991 21.3796 115.533 21.9503C115.848 22.067 115.848 22.513 115.533 22.6297C113.991 23.2004 112.775 24.4164 112.204 25.9587C112.087 26.274 111.641 26.274 111.524 25.9587C110.954 24.4164 109.738 23.2004 108.196 22.6297C107.88 22.513 107.88 22.067 108.196 21.9503C109.738 21.3796 110.954 20.1636 111.524 18.6213Z" fill="#FBE2D9"/>
<path d="M112.23 85.6209C112.327 85.3581 112.699 85.3581 112.796 85.6209C113.272 86.9062 114.285 87.9195 115.57 88.3951C115.833 88.4923 115.833 88.864 115.57 88.9613C114.285 89.4368 113.272 90.4502 112.796 91.7354C112.699 91.9982 112.327 91.9982 112.23 91.7354C111.754 90.4502 110.741 89.4368 109.456 88.9613C109.193 88.864 109.193 88.4923 109.456 88.3951C110.741 87.9195 111.754 86.9062 112.23 85.6209Z" fill="#FBE2D9"/>
<path d="M97.6717 12.0139C97.7397 11.83 97.9999 11.83 98.068 12.0139C98.4009 12.9136 99.1102 13.6229 100.01 13.9559C100.194 14.0239 100.194 14.2841 100.01 14.3522C99.1102 14.6851 98.4009 15.3944 98.068 16.2941C97.9999 16.478 97.7397 16.478 97.6717 16.2941C97.3388 15.3944 96.6294 14.6851 95.7298 14.3522C95.5458 14.2841 95.5458 14.0239 95.7298 13.9559C96.6294 13.6229 97.3388 12.9136 97.6717 12.0139Z" fill="#FBE2D9"/>
</g>
<path d="M40.4387 104.847C40.4387 103.543 41.4954 102.486 42.7989 102.486H123.389V135.888C123.389 139.201 120.703 141.888 117.389 141.888H40.4387V104.847Z" fill="url(#paint2_linear_1023_38896)"/>
<path d="M37.3877 103.875C37.3877 103.224 37.916 102.695 38.5678 102.695H115.564V111.712C115.564 112.364 115.036 112.892 114.384 112.892H37.3877V103.875Z" fill="url(#paint3_linear_1023_38896)"/>
<path d="M29.8545 113.941C29.8545 113.289 30.3828 112.761 31.0346 112.761H106.779C107.43 112.761 107.959 113.289 107.959 113.941V121.344C107.959 121.995 107.43 122.524 106.779 122.524H29.8545V113.941Z" fill="url(#paint4_linear_1023_38896)"/>
<path d="M21.7744 123.368C21.7744 122.716 22.3028 122.188 22.9545 122.188H100.577V131.376C100.577 132.028 100.049 132.556 99.397 132.556H21.7744V123.368Z" fill="url(#paint5_linear_1023_38896)"/>
<path d="M14.5166 133.736C14.5166 133.084 15.045 132.556 15.6967 132.556H93.3193V141.888H15.6967C15.0449 141.888 14.5166 141.359 14.5166 140.707V133.736Z" fill="url(#paint6_linear_1023_38896)"/>
<circle cx="99.1716" cy="23.2654" r="0.976303" fill="#FBE2D9"/>
<circle cx="63.8561" cy="75.3474" r="0.976303" fill="#FBE2D9"/>
<circle cx="97.8474" cy="90.0749" r="0.976303" fill="#FBE2D9"/>
<circle cx="79.1521" cy="25.4958" r="0.976303" fill="#FBE2D9"/>
<circle cx="73.7898" cy="96.1628" r="0.976303" fill="#FBE2D9"/>
<circle cx="68.2568" cy="97.1396" r="1.30174" fill="#FBE2D9"/>
<path d="M67.7496 35.3057C65.8724 35.3057 64.3506 36.8274 64.3506 38.7046V64.4501C64.3506 66.3273 65.8724 67.8491 67.7496 67.8491H110.744C111.044 67.8491 111.332 67.9684 111.545 68.1809L118.382 75.0179C118.739 75.3747 119.349 75.122 119.349 74.6173V68.4156C119.349 68.1027 119.603 67.8491 119.915 67.8491H122.929V35.3057H67.7496Z" fill="url(#paint7_linear_1023_38896)"/>
<rect x="32.6268" y="34.1025" width="6.50868" height="24.0821" rx="1.18011" fill="#E1855C"/>
<path d="M32.6268 35.2826C32.6268 34.6309 33.1552 34.1025 33.8069 34.1025H36.6537C37.3054 34.1025 37.8338 34.6309 37.8338 35.2826V57.0046C37.8338 57.6563 37.3054 58.1847 36.6537 58.1847H33.8069C33.1552 58.1847 32.6268 57.6563 32.6268 57.0046V35.2826Z" fill="url(#paint8_linear_1023_38896)"/>
<rect x="28.7217" y="43.8643" width="7.15955" height="1.30174" rx="0.650868" fill="#F8D3C3"/>
<rect x="28.7217" y="47.7705" width="7.15955" height="1.30174" rx="0.650868" fill="#F8D3C3"/>
<circle cx="17.8446" cy="45.1972" r="17.8446" fill="url(#paint9_radial_1023_38896)"/>
<ellipse cx="17.2796" cy="45.4799" rx="14.4457" ry="14.7289" fill="url(#paint10_radial_1023_38896)"/>
<ellipse cx="26.778" cy="34.0646" rx="10.3438" ry="9.69295" transform="rotate(33.6073 26.778 34.0646)" fill="url(#paint11_radial_1023_38896)"/>
<path fill-rule="evenodd" clip-rule="evenodd" d="M7.81704 45.6078C7.81553 45.5787 7.81477 45.5495 7.81477 45.5203C7.81477 45.1355 7.92971 44.7978 8.19627 44.5448C8.44969 44.3043 8.79492 44.1844 9.16672 44.1249C9.90071 44.0074 10.948 44.0965 12.2128 44.2384L12.2148 44.2386C13.3414 44.3708 14.8601 44.4497 16.5379 43.9651C18.6065 43.3451 20.4217 43.1708 22.221 43.3096L22.2235 43.3098C23.4492 43.4123 24.5529 43.6147 25.3621 43.9369C26.1331 44.2438 26.8201 44.7386 26.8201 45.5203C26.8201 45.55 26.819 45.5792 26.8169 45.6078H26.8201C26.8201 50.8511 22.5653 55.1105 17.326 55.1105C12.0877 55.1105 7.81477 50.8521 7.81477 45.6078H7.81704ZM8.7641 47.3166C9.56207 51.312 13.1021 54.3295 17.326 54.3295C21.798 54.3295 25.4899 50.9467 25.9831 46.6005C25.8443 46.6603 25.6969 46.7102 25.5482 46.7546C25.2861 46.8329 24.9847 46.9036 24.6713 46.9772C24.6049 46.9928 24.5381 47.0085 24.4709 47.0244C24.0802 47.1171 23.6652 47.2205 23.2392 47.3587C22.831 47.4939 22.4271 47.6494 22.0035 47.8126C20.7977 48.277 19.4327 48.8027 17.3546 49.0945C14.5659 49.4823 12.2193 49.1195 10.5544 48.4161C9.82671 48.1086 9.22017 47.7322 8.7641 47.3166ZM16.7604 44.7138C18.7403 44.1202 20.4593 43.9572 22.1597 44.0882C23.3531 44.1881 24.3683 44.3819 25.0732 44.6625C25.8166 44.9585 26.0391 45.2732 26.0391 45.5203C26.0391 45.6128 26.0103 45.6746 25.9194 45.746C25.8075 45.834 25.6185 45.9184 25.3247 46.0062C25.0871 46.0772 24.8139 46.1414 24.5012 46.2148C24.433 46.2309 24.3628 46.2474 24.2907 46.2645C23.8951 46.3583 23.4546 46.4677 22.9971 46.6161L22.9949 46.6168C22.538 46.7681 22.1065 46.9342 21.6664 47.1038C20.4789 47.5611 19.2283 48.0427 17.2463 48.321C14.5781 48.692 12.3767 48.3381 10.8584 47.6966C10.0982 47.3754 9.52083 46.9872 9.13955 46.5934C8.75485 46.196 8.59581 45.8223 8.59581 45.5203C8.59581 45.2979 8.65676 45.1845 8.73393 45.1113C8.82426 45.0256 8.99062 44.9441 9.29021 44.8961C9.89887 44.7987 10.8333 44.8696 12.1248 45.0144C13.2972 45.1519 14.9349 45.2415 16.7566 44.7149L16.7604 44.7138Z" fill="#F2E8E3"/>
<path fill-rule="evenodd" clip-rule="evenodd" d="M17.5778 37.7166C17.5778 36.4747 18.5664 35.4544 19.8025 35.4544C21.0385 35.4544 22.0271 36.4747 22.0271 37.7166C22.0271 38.9585 21.0385 39.9787 19.8025 39.9787C18.5664 39.9787 17.5778 38.9585 17.5778 37.7166ZM19.8025 36.2354C19.0126 36.2354 18.3588 36.8911 18.3588 37.7166C18.3588 38.5421 19.0126 39.1977 19.8025 39.1977C20.5924 39.1977 21.2461 38.5421 21.2461 37.7166C21.2461 36.8911 20.5924 36.2354 19.8025 36.2354Z" fill="#F2E8E3"/>
<path fill-rule="evenodd" clip-rule="evenodd" d="M23.3752 38.8381C22.4406 38.8381 21.6829 39.5957 21.6829 40.5303C21.6829 41.465 22.4406 42.2226 23.3752 42.2226C24.3099 42.2226 25.0674 41.4649 25.0674 40.5303C25.0674 39.5957 24.3099 38.8381 23.3752 38.8381ZM22.4639 40.5303C22.4639 40.0271 22.8719 39.6191 23.3752 39.6191C23.8785 39.6191 24.2864 40.0271 24.2864 40.5303C24.2864 41.0336 23.8785 41.4415 23.3752 41.4415C22.8719 41.4415 22.4639 41.0336 22.4639 40.5303Z" fill="#F2E8E3"/>
<path fill-rule="evenodd" clip-rule="evenodd" d="M28.0577 31.0838C29.7085 32.3108 30.6256 33.413 30.9108 34.5152C31.0943 35.1391 30.9313 35.8877 30.5237 36.4492C30.1161 37.0107 29.4639 37.3227 28.7099 37.3227C28.4245 37.3227 28.1392 37.2811 27.8539 37.1979C27.6847 37.6788 27.5442 38.1524 27.4451 38.6014C28.6945 40.5394 29.4225 42.8583 29.4225 45.3504C29.4225 52.1508 24.0219 57.6618 17.3578 57.6618C10.6936 57.6618 5.29297 52.1508 5.29297 45.3504C5.29297 38.5501 10.6936 33.039 17.3578 33.039C18.8312 33.039 20.2445 33.3101 21.5519 33.8062C21.6939 33.7341 21.8523 33.6494 22.0266 33.5501C22.1519 33.4769 22.2876 33.3963 22.4322 33.3079C22.3102 33.121 22.2086 32.9136 22.1272 32.7475C21.903 32.2068 21.9845 31.3126 22.331 30.6471C22.6163 30.0856 23.0647 29.7113 23.5741 29.6073C23.778 29.5657 23.9817 29.5449 24.2059 29.5449C25.3268 29.5449 26.733 30.1064 28.0577 31.0838ZM22.2721 34.1069L22.2867 34.098L22.2897 34.0993C22.9419 33.7458 23.8793 33.1427 24.9594 32.2693C25.367 32.4356 25.8969 32.7268 26.549 33.1635C27.3235 33.6834 27.996 34.2657 28.424 34.7232C27.7119 35.6782 27.2436 36.9855 26.9581 37.9003C25.7382 36.2676 24.1281 34.9548 22.2721 34.1069ZM21.8672 34.6698C20.4847 34.062 18.9602 33.7254 17.3578 33.7254C11.0604 33.7254 5.9655 38.9244 5.9655 45.3504C5.9655 51.7765 11.0604 56.9755 17.3578 56.9755C23.6347 56.9755 28.75 51.7765 28.75 45.3504C28.75 43.2776 28.2199 41.3325 27.2904 39.6484L27.2833 39.7351C26.0314 37.5173 24.1417 35.7384 21.8672 34.6698ZM23.1456 32.8516C23.0795 32.8958 23.0145 32.9388 22.9505 32.9805C22.8273 32.8022 22.7342 32.6449 22.6782 32.519C22.4336 31.9367 22.7189 30.4186 23.6971 30.2106C24.6754 30.0027 26.2039 30.4602 27.7119 31.5832C29.22 32.7062 30.076 33.7044 30.3409 34.6818C30.5819 35.645 29.8532 37.0727 28.0572 36.6165C28.0772 36.5678 28.0976 36.5189 28.1183 36.4701C28.1999 36.4909 28.3017 36.4909 28.4036 36.4909C28.6482 36.4909 28.9335 36.4493 29.1577 36.2621C29.3207 36.1373 29.5041 35.9086 29.4837 35.4927C29.4837 35.0976 29.178 34.5984 28.5463 33.9954C28.0979 33.5586 27.4865 33.0803 26.8751 32.6436C25.1225 31.4582 23.8997 31.1255 23.3495 31.687C22.9826 32.0613 23.0234 32.5188 23.1456 32.8516ZM28.8112 35.2431C28.8724 35.3471 28.8927 35.4511 28.8927 35.5135C28.8927 35.7005 28.8317 35.7629 28.7909 35.8045C28.7094 35.8669 28.5462 35.9086 28.4036 35.9086C28.5257 35.6594 28.6682 35.4517 28.8106 35.244L28.8112 35.2431ZM23.7774 32.1445C23.8385 32.0821 24.0016 32.0405 24.2666 32.0821C24.0627 32.2485 23.859 32.3941 23.6551 32.5396C23.6348 32.3941 23.6551 32.2485 23.7774 32.1445Z" fill="#F2E8E3"/>
<defs>
<linearGradient id="paint0_linear_1023_38896" x1="96.586" y1="2.70939" x2="53.5322" y2="58.5093" gradientUnits="userSpaceOnUse">
<stop stop-color="#FD7033"/>
<stop offset="1" stop-color="#FBE2D9"/>
</linearGradient>
<linearGradient id="paint1_linear_1023_38896" x1="68.8268" y1="50.2946" x2="125.193" y2="77.2031" gradientUnits="userSpaceOnUse">
<stop stop-color="#0E0C11"/>
<stop offset="1" stop-color="#2D1E19"/>
</linearGradient>
<linearGradient id="paint2_linear_1023_38896" x1="89.0804" y1="96.8431" x2="87.0302" y2="135.631" gradientUnits="userSpaceOnUse">
<stop stop-color="#FD7033"/>
<stop offset="1" stop-color="#FBE2D9"/>
</linearGradient>
<linearGradient id="paint3_linear_1023_38896" x1="37.3877" y1="107.794" x2="115.564" y2="107.794" gradientUnits="userSpaceOnUse">
<stop stop-color="#FFAF81"/>
<stop offset="1" stop-color="#FF6A17"/>
</linearGradient>
<linearGradient id="paint4_linear_1023_38896" x1="29.8545" y1="117.642" x2="107.959" y2="117.642" gradientUnits="userSpaceOnUse">
<stop stop-color="#FFA06A"/>
<stop offset="1" stop-color="#E75909"/>
</linearGradient>
<linearGradient id="paint5_linear_1023_38896" x1="21.7744" y1="127.372" x2="100.577" y2="127.372" gradientUnits="userSpaceOnUse">
<stop stop-color="#FFAF81"/>
<stop offset="1" stop-color="#FF6A17"/>
</linearGradient>
<linearGradient id="paint6_linear_1023_38896" x1="14.5166" y1="137.222" x2="93.3193" y2="137.222" gradientUnits="userSpaceOnUse">
<stop stop-color="#FFA06A"/>
<stop offset="1" stop-color="#E75909"/>
</linearGradient>
<linearGradient id="paint7_linear_1023_38896" x1="98.7006" y1="29.5939" x2="95.7353" y2="68.7374" gradientUnits="userSpaceOnUse">
<stop stop-color="#FD7033"/>
<stop offset="1" stop-color="#FBE2D9"/>
</linearGradient>
<linearGradient id="paint8_linear_1023_38896" x1="38.1783" y1="42.2118" x2="32.856" y2="42.2337" gradientUnits="userSpaceOnUse">
<stop stop-color="#FADBD6"/>
<stop offset="1" stop-color="#F66E2B"/>
</linearGradient>
<radialGradient id="paint9_radial_1023_38896" cx="0" cy="0" r="1" gradientUnits="userSpaceOnUse" gradientTransform="translate(17.8446 45.1972) rotate(90) scale(15.9327)">
<stop offset="0.612633" stop-color="#271003" stop-opacity="0"/>
<stop offset="0.766121" stop-color="#FF8642"/>
<stop offset="1" stop-color="#FF8642" stop-opacity="0"/>
</radialGradient>
<radialGradient id="paint10_radial_1023_38896" cx="0" cy="0" r="1" gradientUnits="userSpaceOnUse" gradientTransform="translate(17.2796 45.4799) rotate(90) scale(13.1508 12.8979)">
<stop offset="0.916926" stop-color="#FBC2A2" stop-opacity="0"/>
<stop offset="0.941517" stop-color="#FFD3BB"/>
<stop offset="1" stop-color="#FCE8DD" stop-opacity="0"/>
</radialGradient>
<radialGradient id="paint11_radial_1023_38896" cx="0" cy="0" r="1" gradientUnits="userSpaceOnUse" gradientTransform="translate(26.7775 33.8268) rotate(-86.5125) scale(6.62501 8.61183)">
<stop offset="0.14" stop-color="#FF701F" stop-opacity="0"/>
<stop offset="0.479014" stop-color="#FF701F" stop-opacity="0.73"/>
<stop offset="0.895" stop-color="#EE5A07" stop-opacity="0"/>
</radialGradient>
</defs>
</svg>
