<svg width="131" height="122" viewBox="0 0 131 122" fill="none" xmlns="http://www.w3.org/2000/svg">
<path d="M57.1465 114.33H72.4916C72.4916 116.96 70.3594 119.092 67.7293 119.092H61.9088C59.2786 119.092 57.1465 116.96 57.1465 114.33Z" fill="#A4341C"/>
<path d="M0 27.7223C0 23.5367 3.39313 20.1436 7.57877 20.1436H59.2095C61.0593 20.1436 62.8452 20.82 64.2307 22.0456L65.349 23.0347L66.2687 22.1776C67.6716 20.8704 69.5178 20.1436 71.4354 20.1436H123.119C127.305 20.1436 130.698 23.5367 130.698 27.7223V109.398C130.698 113.583 127.305 116.976 123.119 116.976H7.57877C3.39313 116.976 0 113.583 0 109.398V27.7223Z" fill="url(#paint0_linear_1023_38728)"/>
<path d="M65.084 31.3771C65.084 26.05 69.4025 21.7314 74.7297 21.7314H122.54C125.584 21.7314 128.052 24.1992 128.052 27.2433V108.819C128.052 111.863 125.584 114.331 122.54 114.331H65.084V31.3771Z" fill="url(#paint1_linear_1023_38728)"/>
<path d="M65.084 31.3771C65.084 26.05 60.7655 21.7314 55.4383 21.7314H7.628C4.5839 21.7314 2.11616 24.1992 2.11616 27.2433V108.819C2.11616 111.863 4.58389 114.331 7.62799 114.331H65.084V31.3771Z" fill="url(#paint2_linear_1023_38728)"/>
<path d="M65.084 27.5212C65.084 24.3236 67.6762 21.7314 70.8738 21.7314H123.42C125.978 21.7314 128.052 23.8052 128.052 26.3633V101.762C128.052 104.32 125.978 106.394 123.42 106.394H69.3171C66.9792 106.394 65.084 108.289 65.084 110.627V27.5212Z" fill="url(#paint3_linear_1023_38728)"/>
<path d="M65.1328 28.6212C65.1328 24.8161 62.0481 21.7314 58.243 21.7314H7.67683C4.63272 21.7314 2.16499 24.1992 2.16499 27.2433V100.882C2.16499 103.926 4.63272 106.394 7.67682 106.394H60.8997C63.2376 106.394 65.1328 108.289 65.1328 110.627V28.6212Z" fill="url(#paint4_linear_1023_38728)"/>
<path d="M65.084 31.5174C65.084 25.9342 60.9098 21.2326 55.3658 20.5714L9.71929 15.1273C8.48943 14.9806 7.40758 15.9411 7.40758 17.1797V94.6207C7.40758 97.4123 9.49469 99.7631 12.2667 100.094L60.8806 105.892C63.2785 106.178 65.084 108.211 65.084 110.626V31.5174Z" fill="url(#paint5_linear_1023_38728)"/>
<path d="M65.2664 35.564C65.2664 27.3222 59.6499 20.0163 51.3508 17.4629L17.9711 7.19288C16.7865 6.82842 15.5703 7.66204 15.5703 8.83844V87.4632C15.5703 89.4613 16.9319 91.2324 18.9438 91.8514L61.8929 105.066C63.9049 105.685 65.2664 107.456 65.2664 109.454V110.322V35.564Z" fill="url(#paint6_linear_1023_38728)"/>
<path d="M65.0847 29.1337C65.0847 24.5301 62.707 20.253 58.7969 17.8232L30.6985 0.362074C29.5415 -0.356939 28.0448 0.475107 28.0448 1.83735V80.8006C28.0448 82.4019 28.8718 83.8895 30.2319 84.7347L62.8976 105.034C64.2577 105.879 65.0847 107.367 65.0847 108.968V110.626V29.1337Z" fill="url(#paint7_linear_1023_38728)"/>
<rect x="79.1682" y="27.083" width="42.2654" height="2.89489" rx="0.688979" fill="#F56819"/>
<rect x="79.1682" y="32.293" width="26.054" height="2.89489" rx="0.688979" fill="#F56819"/>
<rect width="9.26364" height="2.89489" rx="0.688979" transform="matrix(-1 0 0 1 116.223 32.293)" fill="#F56819"/>
<rect x="72.7998" y="37.5039" width="28.9489" height="2.89489" rx="0.688979" fill="#F56819"/>
<rect x="68.7471" y="37.5039" width="2.89489" height="2.89489" rx="0.688979" fill="#F56819"/>
<rect x="68.7468" y="32.293" width="2.89489" height="2.89489" rx="0.688979" fill="#F56819"/>
<rect x="68.7468" y="27.083" width="2.89489" height="2.89489" rx="0.688979" fill="#F56819"/>
<rect x="102.329" y="42.7148" width="16.7903" height="2.89489" rx="0.688979" fill="#F56819"/>
<rect x="93.6434" y="42.7148" width="7.52671" height="2.89489" rx="0.688979" fill="#F56819"/>
<rect x="68.7468" y="42.7148" width="2.89489" height="2.89489" rx="0.688979" fill="#F56819"/>
<path d="M106.357 109.297H121.703V120.839C121.703 121.361 121.144 121.694 120.685 121.445L114.687 118.192C114.277 117.97 113.783 117.97 113.373 118.192L107.375 121.445C106.916 121.694 106.357 121.361 106.357 120.839V109.297Z" fill="#D25109"/>
<path d="M106.358 107.98H121.703V119.523C121.703 120.045 121.144 120.377 120.685 120.128L114.687 116.876C114.277 116.654 113.783 116.654 113.373 116.876L107.375 120.128C106.916 120.377 106.358 120.045 106.358 119.523V107.98Z" fill="url(#paint8_linear_1023_38728)"/>
<path d="M113.155 113.524L111.823 112.192L113.155 110.86L112.75 110.455L111.013 112.192L112.75 113.929L113.155 113.524ZM114.66 113.524L115.992 112.192L114.66 110.86L115.065 110.455L116.802 112.192L115.065 113.929L114.66 113.524Z" fill="#FAE1D8"/>
<path d="M76.2732 54.873L116.802 95.4015" stroke="#EFB09C" stroke-width="0.688979"/>
<path d="M116.802 55.4531L76.2741 95.9815" stroke="#EFB09C" stroke-width="0.688979"/>
<rect x="73.7241" y="52.9021" width="45.0502" height="45.0502" rx="9.30122" stroke="#EFB09C" stroke-width="0.688979"/>
<rect x="73.7241" y="52.9021" width="45.0502" height="45.0502" rx="22.5251" stroke="#EFB09C" stroke-width="0.688979" stroke-dasharray="1.38 1.38"/>
<rect x="79.5132" y="58.6921" width="33.4707" height="33.4707" rx="16.7353" stroke="#EFB09C" stroke-width="0.688979" stroke-dasharray="1.38 1.38"/>
<path fill-rule="evenodd" clip-rule="evenodd" d="M104.355 63.9549C105.824 65.0463 106.639 66.0268 106.893 67.0072C107.056 67.5622 106.911 68.2282 106.549 68.7276C106.186 69.2271 105.606 69.5046 104.935 69.5046C104.681 69.5046 104.428 69.4676 104.174 69.3936C103.92 70.1151 103.739 70.8181 103.684 71.4285L103.666 71.6505C102.361 69.3381 100.276 67.5622 97.7744 66.7113C97.8469 66.6927 98.3908 66.5263 99.3516 65.9343C99.2428 65.7678 99.1522 65.5828 99.0797 65.4348C98.8803 64.9538 98.9527 64.1584 99.2609 63.5664C99.5147 63.0669 99.9136 62.7339 100.367 62.6414C100.548 62.6044 100.729 62.5859 100.929 62.5859C101.926 62.5859 103.177 63.0854 104.355 63.9549ZM106.385 67.1554C106.602 68.0249 105.931 69.3199 104.282 68.8573C104.137 68.8019 103.992 68.7649 103.865 68.7464C103.702 69.1349 103.52 69.5789 103.393 70.0783C102.306 68.5984 100.855 67.4144 99.1875 66.656C99.2527 66.616 99.321 66.5751 99.392 66.5325C99.617 66.3976 99.8683 66.2468 100.13 66.064C99.8583 65.731 99.6588 65.435 99.5682 65.2315C99.3507 64.7136 99.6045 63.3631 100.475 63.1781C101.345 62.9931 102.705 63.4001 104.046 64.3991C105.388 65.398 106.149 66.286 106.385 67.1554Z" fill="#F56819"/>
<path d="M94.838 86.9867C100.435 86.9867 104.972 82.3569 104.972 76.6457C104.972 70.9345 100.435 66.3047 94.838 66.3047C89.2412 66.3047 84.7041 70.9345 84.7041 76.6457C84.7041 82.3569 89.2412 86.9867 94.838 86.9867Z" fill="#FAE1D9"/>
<path d="M87.8533 76.5527H85.1934C85.1934 81.973 89.508 86.3758 94.8197 86.3758C95.0554 86.3758 95.2729 86.3758 95.4904 86.3573C90.5051 85.9874 87.8533 81.7325 87.8533 76.5527Z" fill="#F6CBBD"/>
<path opacity="0.6" d="M105.553 66.3049C104.175 64.825 103.015 64.4365 101.619 64.122C100.532 63.863 100.822 63.2341 102.145 63.3635C101.511 63.1416 100.912 63.0861 100.477 63.1785C99.607 63.3635 99.3532 64.714 99.5708 65.232C99.6614 65.4354 99.8608 65.7314 100.133 66.0644C99.6433 66.3974 99.2263 66.6379 98.8818 66.8229C99.045 66.8969 99.2444 66.9893 99.4801 67.1189C100.097 67.4519 100.767 68.0068 100.767 68.0068C99.752 67.1189 99.9696 66.7119 101.365 65.7129C101.801 65.3985 102.598 65.4354 103.342 65.824C104.085 66.2124 104.955 67.1929 104.955 67.1929L104.121 68.8208C104.175 68.8393 104.23 68.8578 104.284 68.8763C104.81 69.0243 105.227 68.9873 105.553 68.8578C105.934 68.6173 106.931 67.8034 105.553 66.3049Z" fill="#F3BCAB"/>
<path d="M101.599 65.0092C101.962 65.1572 102.433 65.4162 103.013 65.8047C103.702 66.2672 104.3 66.7852 104.681 67.1922C104.047 68.0431 103.63 69.2085 103.376 70.0225C103.503 70.2075 103.648 70.3925 103.775 70.5775C103.902 70.115 104.119 69.4305 104.409 68.7461C104.482 68.7646 104.572 68.7646 104.663 68.7646C104.88 68.7646 105.134 68.7276 105.334 68.5611C105.479 68.4501 105.642 68.2466 105.624 67.8766C105.624 67.5251 105.352 67.0811 104.79 66.5447C104.391 66.1562 103.847 65.7307 103.303 65.3422C101.744 64.2878 100.656 63.9918 100.167 64.4913C99.8407 64.8242 99.8769 65.2312 99.9857 65.5272C99.4056 65.9157 98.9161 66.1932 98.5898 66.3782C98.8074 66.4522 99.0068 66.5447 99.2243 66.6371C99.8044 66.3227 100.638 65.7862 101.599 65.0092ZM105.026 67.6546C105.08 67.7471 105.098 67.8396 105.098 67.8951C105.098 68.0616 105.044 68.1171 105.007 68.1541C104.935 68.2096 104.79 68.2466 104.663 68.2466C104.772 68.0246 104.899 67.8396 105.026 67.6546ZM100.548 64.8982C100.602 64.8427 100.747 64.8057 100.983 64.8427C100.802 64.9907 100.62 65.1202 100.439 65.2497C100.421 65.1202 100.439 64.9907 100.548 64.8982Z" fill="#F56819"/>
<path d="M94.8377 65.6943C88.9096 65.6943 84.1055 70.5967 84.1055 76.6459C84.1055 82.6951 88.9096 87.5974 94.8377 87.5974C100.766 87.5974 105.57 82.6951 105.57 76.6459C105.57 70.5967 100.748 65.6943 94.8377 65.6943ZM94.8377 86.9869C89.2359 86.9869 84.7037 82.3621 84.7037 76.6459C84.7037 70.9296 89.2359 66.3048 94.8377 66.3048C100.439 66.3048 104.972 70.9296 104.972 76.6459C104.972 82.3621 100.421 86.9869 94.8377 86.9869Z" fill="#F56819"/>
<path d="M104.114 76.8972C103.936 81.9741 99.8401 86.0313 94.8378 86.0313C89.8348 86.0313 85.7226 81.9733 85.5439 76.8972H104.114Z" stroke="#F56819" stroke-width="0.688979"/>
<path d="M94.2117 75.6803L94.2117 75.6804L94.2151 75.6793C96.3134 75.026 98.1363 74.8465 99.9396 74.9907C101.203 75.1005 102.281 75.3137 103.034 75.6248C103.815 75.9477 104.102 76.3099 104.102 76.6453C104.102 76.781 104.055 76.8727 103.944 76.9628C103.815 77.0678 103.606 77.1632 103.295 77.2597C103.042 77.3382 102.751 77.4091 102.421 77.4897C102.349 77.5072 102.275 77.5253 102.199 77.5439C101.782 77.6468 101.318 77.7663 100.837 77.9283L100.835 77.929C100.356 78.0937 99.9023 78.2751 99.4384 78.4606C98.1824 78.9629 96.8529 79.4945 94.7521 79.8008C91.925 80.209 89.5891 79.8203 87.974 79.1117C87.1655 78.757 86.5472 78.3265 86.1359 77.8854C85.7221 77.4416 85.5378 77.0105 85.5378 76.6453C85.5378 76.3802 85.6093 76.2302 85.7096 76.1314C85.8197 76.0229 86.01 75.9308 86.3308 75.8775C86.9826 75.7691 87.9778 75.8483 89.3403 76.0069C90.5757 76.1574 92.2975 76.2548 94.2117 75.6803Z" fill="#FAE1D9" stroke="#F56819" stroke-width="0.688979"/>
<path d="M97.9922 71.9841C98.8933 71.9841 99.6237 71.2388 99.6237 70.3192C99.6237 69.3997 98.8933 68.6543 97.9922 68.6543C97.0911 68.6543 96.3606 69.3997 96.3606 70.3192C96.3606 71.2388 97.0911 71.9841 97.9922 71.9841Z" fill="#F56819"/>
<path d="M100.657 73.2233C101.037 73.2233 101.346 72.9086 101.346 72.5203C101.346 72.1321 101.037 71.8174 100.657 71.8174C100.276 71.8174 99.9678 72.1321 99.9678 72.5203C99.9678 72.9086 100.276 73.2233 100.657 73.2233Z" fill="#F56819"/>
<path d="M94.1696 84.3592C94.4499 84.3592 94.6772 84.1273 94.6772 83.8412C94.6772 83.5551 94.4499 83.3232 94.1696 83.3232C93.8892 83.3232 93.662 83.5551 93.662 83.8412C93.662 84.1273 93.8892 84.3592 94.1696 84.3592Z" fill="#F56819"/>
<path d="M96.8162 84.1004C97.0965 84.1004 97.3238 83.8685 97.3238 83.5824C97.3238 83.2964 97.0965 83.0645 96.8162 83.0645C96.5359 83.0645 96.3086 83.2964 96.3086 83.5824C96.3086 83.8685 96.5359 84.1004 96.8162 84.1004Z" fill="#F56819"/>
<path d="M95.5088 85.3034C95.7191 85.3034 95.8895 85.1294 95.8895 84.9149C95.8895 84.7003 95.7191 84.5264 95.5088 84.5264C95.2985 84.5264 95.1281 84.7003 95.1281 84.9149C95.1281 85.1294 95.2985 85.3034 95.5088 85.3034Z" fill="#F56819"/>
<path d="M97.8485 85.026C98.0587 85.026 98.2291 84.852 98.2291 84.6375C98.2291 84.4229 98.0587 84.249 97.8485 84.249C97.6382 84.249 97.4678 84.4229 97.4678 84.6375C97.4678 84.852 97.6382 85.026 97.8485 85.026Z" fill="#F56819"/>
<path d="M92.0086 84.1746C92.4692 84.1746 92.8425 83.7936 92.8425 83.3236C92.8425 82.8536 92.4692 82.4727 92.0086 82.4727C91.548 82.4727 91.1747 82.8536 91.1747 83.3236C91.1747 83.7936 91.548 84.1746 92.0086 84.1746Z" fill="#F56819"/>
<path d="M99.4609 82.0847C99.9214 82.0847 100.295 81.7037 100.295 81.2337C100.295 80.7638 99.9214 80.3828 99.4609 80.3828C99.0003 80.3828 98.627 80.7638 98.627 81.2337C98.627 81.7037 99.0003 82.0847 99.4609 82.0847Z" fill="#F56819"/>
<defs>
<linearGradient id="paint0_linear_1023_38728" x1="65.349" y1="20.1436" x2="65.349" y2="116.976" gradientUnits="userSpaceOnUse">
<stop stop-color="#E96419"/>
<stop offset="1" stop-color="#D25109"/>
</linearGradient>
<linearGradient id="paint1_linear_1023_38728" x1="101.582" y1="99.4907" x2="86.6305" y2="118.621" gradientUnits="userSpaceOnUse">
<stop stop-color="#F4C1AF"/>
<stop offset="1" stop-color="#EEAC97"/>
</linearGradient>
<linearGradient id="paint2_linear_1023_38728" x1="28.5859" y1="99.4907" x2="71.6222" y2="112.918" gradientUnits="userSpaceOnUse">
<stop stop-color="#F3BEAD"/>
<stop offset="1" stop-color="#EB967B"/>
</linearGradient>
<linearGradient id="paint3_linear_1023_38728" x1="125.776" y1="64.7172" x2="61.2203" y2="63.8487" gradientUnits="userSpaceOnUse">
<stop stop-color="#FAE1D9"/>
<stop offset="1" stop-color="#F8CFC2"/>
</linearGradient>
<linearGradient id="paint4_linear_1023_38728" x1="59.4228" y1="55.3093" x2="-3.02407" y2="53.2307" gradientUnits="userSpaceOnUse">
<stop stop-color="#E09880"/>
<stop offset="1" stop-color="#ECA48D"/>
</linearGradient>
<linearGradient id="paint5_linear_1023_38728" x1="59.8538" y1="51.0277" x2="2.63702" y2="49.4085" gradientUnits="userSpaceOnUse">
<stop stop-color="#EBAE9B"/>
<stop offset="1" stop-color="#EFAE9A"/>
</linearGradient>
<linearGradient id="paint6_linear_1023_38728" x1="20.0768" y1="46.093" x2="69.3912" y2="44.9773" gradientUnits="userSpaceOnUse">
<stop stop-color="#F3C6B8"/>
<stop offset="1" stop-color="#F5B8A4"/>
</linearGradient>
<linearGradient id="paint7_linear_1023_38728" x1="31.4036" y1="41.8468" x2="69.4079" y2="32.5913" gradientUnits="userSpaceOnUse">
<stop stop-color="#F8D8CD"/>
<stop offset="1" stop-color="#F5B8A4"/>
</linearGradient>
<linearGradient id="paint8_linear_1023_38728" x1="114.03" y1="107.98" x2="114.03" y2="120.68" gradientUnits="userSpaceOnUse">
<stop stop-color="#FF8642"/>
<stop offset="1" stop-color="#FC6A18"/>
</linearGradient>
</defs>
</svg>
