<svg width="178" height="112" viewBox="0 0 178 112" fill="none" xmlns="http://www.w3.org/2000/svg">
<rect x="5.46582" y="32.2607" width="61.9827" height="9.99721" rx="2.52818" fill="url(#paint0_linear_1023_38789)"/>
<rect x="5.46582" y="32.2607" width="61.9827" height="9.99721" rx="2.52818" stroke="url(#paint1_linear_1023_38789)" stroke-width="1.68545"/>
<rect x="5.46582" y="32.2607" width="61.9827" height="9.99721" rx="2.52818" stroke="#45200C" stroke-opacity="0.35" stroke-width="1.68545"/>
<rect x="5.46582" y="42.2588" width="61.9827" height="9.99721" rx="2.52818" fill="url(#paint2_linear_1023_38789)"/>
<rect x="5.46582" y="42.2588" width="61.9827" height="9.99721" rx="2.52818" stroke="url(#paint3_linear_1023_38789)" stroke-width="1.68545"/>
<rect x="5.46582" y="42.2588" width="61.9827" height="9.99721" rx="2.52818" stroke="#45200C" stroke-opacity="0.35" stroke-width="1.68545"/>
<rect x="8.46497" y="52.2549" width="61.9827" height="9.99721" rx="2.52818" fill="url(#paint4_linear_1023_38789)"/>
<rect x="8.46497" y="52.2549" width="61.9827" height="9.99721" rx="2.52818" stroke="url(#paint5_linear_1023_38789)" stroke-width="1.68545"/>
<rect x="8.46497" y="52.2549" width="61.9827" height="9.99721" rx="2.52818" stroke="#45200C" stroke-opacity="0.35" stroke-width="1.68545"/>
<rect x="5.46582" y="62.252" width="61.9827" height="9.99721" rx="2.52818" fill="url(#paint6_linear_1023_38789)"/>
<rect x="5.46582" y="62.252" width="61.9827" height="9.99721" rx="2.52818" stroke="url(#paint7_linear_1023_38789)" stroke-width="1.68545"/>
<rect x="5.46582" y="62.252" width="61.9827" height="9.99721" rx="2.52818" stroke="#45200C" stroke-opacity="0.35" stroke-width="1.68545"/>
<rect x="5.46582" y="72.249" width="61.9827" height="9.99721" rx="2.52818" fill="url(#paint8_linear_1023_38789)"/>
<rect x="5.46582" y="72.249" width="61.9827" height="9.99721" rx="2.52818" stroke="url(#paint9_linear_1023_38789)" stroke-width="1.68545"/>
<rect x="5.46582" y="72.249" width="61.9827" height="9.99721" rx="2.52818" stroke="#45200C" stroke-opacity="0.35" stroke-width="1.68545"/>
<rect x="8.15527" y="22.2637" width="61.9827" height="9.99721" rx="2.52818" fill="url(#paint10_linear_1023_38789)"/>
<rect x="8.15527" y="22.2637" width="61.9827" height="9.99721" rx="2.52818" stroke="url(#paint11_linear_1023_38789)" stroke-width="1.68545"/>
<rect x="8.15527" y="22.2637" width="61.9827" height="9.99721" rx="2.52818" stroke="#45200C" stroke-opacity="0.35" stroke-width="1.68545"/>
<rect x="54.4775" y="71.9756" width="61.9827" height="9.99721" rx="2.52818" fill="url(#paint12_linear_1023_38789)"/>
<rect x="54.4775" y="71.9756" width="61.9827" height="9.99721" rx="2.52818" stroke="url(#paint13_linear_1023_38789)" stroke-width="1.68545"/>
<rect x="54.4775" y="71.9756" width="61.9827" height="9.99721" rx="2.52818" stroke="#9C2B07" stroke-opacity="0.15" stroke-width="1.68545"/>
<rect x="57.333" y="61.5449" width="61.9827" height="9.99721" rx="2.52818" fill="url(#paint14_linear_1023_38789)"/>
<rect x="57.333" y="61.5449" width="61.9827" height="9.99721" rx="2.52818" stroke="url(#paint15_linear_1023_38789)" stroke-width="1.68545"/>
<rect x="57.333" y="61.5449" width="61.9827" height="9.99721" rx="2.52818" stroke="#9C2B07" stroke-opacity="0.15" stroke-width="1.68545"/>
<rect x="54.4775" y="51.5469" width="61.9827" height="9.99721" rx="2.52818" fill="url(#paint16_linear_1023_38789)"/>
<rect x="54.4775" y="51.5469" width="61.9827" height="9.99721" rx="2.52818" stroke="url(#paint17_linear_1023_38789)" stroke-width="1.68545"/>
<rect x="54.4775" y="51.5469" width="61.9827" height="9.99721" rx="2.52818" stroke="#9C2B07" stroke-opacity="0.15" stroke-width="1.68545"/>
<rect x="57.333" y="41.5488" width="61.9827" height="9.99721" rx="2.52818" fill="url(#paint18_linear_1023_38789)"/>
<rect x="57.333" y="41.5488" width="61.9827" height="9.99721" rx="2.52818" stroke="url(#paint19_linear_1023_38789)" stroke-width="1.68545"/>
<rect x="57.333" y="41.5488" width="61.9827" height="9.99721" rx="2.52818" stroke="#9C2B07" stroke-opacity="0.15" stroke-width="1.68545"/>
<rect x="57.333" y="31.5527" width="61.9827" height="9.99721" rx="2.52818" fill="url(#paint20_linear_1023_38789)"/>
<rect x="57.333" y="31.5527" width="61.9827" height="9.99721" rx="2.52818" stroke="url(#paint21_linear_1023_38789)" stroke-width="1.68545"/>
<rect x="57.333" y="31.5527" width="61.9827" height="9.99721" rx="2.52818" stroke="#9C2B07" stroke-opacity="0.15" stroke-width="1.68545"/>
<rect x="57.333" y="21.6777" width="61.9827" height="9.99721" rx="2.52818" fill="url(#paint22_linear_1023_38789)"/>
<rect x="57.333" y="21.6777" width="61.9827" height="9.99721" rx="2.52818" stroke="url(#paint23_linear_1023_38789)" stroke-width="1.68545"/>
<rect x="57.333" y="21.6777" width="61.9827" height="9.99721" rx="2.52818" stroke="#9C2B07" stroke-opacity="0.15" stroke-width="1.68545"/>
<rect x="54.6924" y="11.7158" width="61.9827" height="9.99721" rx="2.52818" fill="url(#paint24_linear_1023_38789)"/>
<rect x="54.6924" y="11.7158" width="61.9827" height="9.99721" rx="2.52818" stroke="url(#paint25_linear_1023_38789)" stroke-width="1.68545"/>
<rect x="54.6924" y="11.7158" width="61.9827" height="9.99721" rx="2.52818" stroke="#9C2B07" stroke-opacity="0.15" stroke-width="1.68545"/>
<mask id="mask0_1023_38789" style="mask-type:alpha" maskUnits="userSpaceOnUse" x="97" y="22" width="48" height="67">
<path d="M109.951 25.9895L110.098 26.2429L110.376 26.3332C113.963 27.4974 118.033 30.1938 122.095 34.1415C126.148 38.0811 130.157 43.231 133.628 49.244C137.1 55.257 139.556 61.3031 140.941 66.7833C142.329 72.2747 142.629 77.1476 141.843 80.8364L141.783 81.1225L141.929 81.3759L143.403 83.9285L137.955 87.0734L137.951 87.0761L137.912 87.0986C136.214 88.0787 134.106 88.2749 131.68 87.6983C129.249 87.1205 126.543 85.7744 123.728 83.7385C118.1 79.6678 112.157 72.9249 107.271 64.4613C102.385 55.9978 99.5165 47.4797 98.805 40.5706C98.4492 37.115 98.6366 34.0982 99.3518 31.7037C100.065 29.3144 101.289 27.5869 102.987 26.6067C102.987 26.6067 102.987 26.6067 102.987 26.6067L108.478 23.4367L109.951 25.9895Z" fill="url(#paint26_linear_1023_38789)" stroke="url(#paint27_linear_1023_38789)" stroke-width="1.52365"/>
</mask>
<g mask="url(#mask0_1023_38789)">
<path d="M110.611 25.6086L108.756 22.396L102.606 25.9469C94.9635 30.3596 96.7567 47.7736 106.611 64.8422C116.466 81.911 130.65 92.1708 138.293 87.7583C138.307 87.75 138.322 87.7416 138.336 87.7332L144.443 84.2073L142.589 80.995C144.225 73.3071 141.294 60.9978 134.288 48.8631C127.282 36.7284 118.088 28.035 110.611 25.6086Z" fill="url(#paint28_linear_1023_38789)"/>
<path d="M109.951 25.9895L110.098 26.2429L110.376 26.3332C113.963 27.4974 118.033 30.1938 122.095 34.1415C126.148 38.0811 130.157 43.231 133.628 49.244C137.1 55.257 139.556 61.3031 140.941 66.7833C142.329 72.2747 142.629 77.1476 141.843 80.8364L141.783 81.1225L141.929 81.3759L143.403 83.9285L137.955 87.0734L137.951 87.0761L137.912 87.0986C136.214 88.0787 134.106 88.2749 131.68 87.6983C129.249 87.1205 126.543 85.7744 123.728 83.7385C118.1 79.6678 112.157 72.9249 107.271 64.4613C102.385 55.9978 99.5165 47.4797 98.805 40.5706C98.4492 37.115 98.6366 34.0982 99.3518 31.7037C100.065 29.3144 101.289 27.5869 102.987 26.6067C102.987 26.6067 102.987 26.6067 102.987 26.6067L108.478 23.4367L109.951 25.9895Z" stroke="url(#paint29_linear_1023_38789)" stroke-width="1.52365"/>
</g>
<mask id="mask1_1023_38789" style="mask-type:alpha" maskUnits="userSpaceOnUse" x="104" y="21" width="46" height="65">
<path d="M109.138 23.0558C107.44 24.036 106.216 25.7635 105.503 28.1527C104.788 30.5473 104.6 33.564 104.956 37.0196C105.667 43.9287 108.535 52.4468 113.422 60.9104C118.308 69.3739 124.251 76.1168 129.879 80.1875C132.694 82.2234 135.4 83.5695 137.831 84.1473C140.257 84.7239 142.365 84.5277 144.063 83.5476C145.761 82.5674 146.985 80.8399 147.698 78.4507C148.413 76.0561 148.601 73.0394 148.245 69.5838C147.534 62.6747 144.666 54.1566 139.779 45.693C134.893 37.2295 128.95 30.4866 123.322 26.4159C120.507 24.38 117.801 23.0339 115.37 22.4561C112.944 21.8795 110.836 22.0757 109.138 23.0558Z" fill="url(#paint30_linear_1023_38789)" stroke="#FF7C51" stroke-width="1.52365"/>
</mask>
<g mask="url(#mask1_1023_38789)">
<path d="M109.138 23.0558C107.44 24.036 106.216 25.7635 105.503 28.1527C104.788 30.5473 104.6 33.564 104.956 37.0196C105.667 43.9287 108.535 52.4468 113.422 60.9104C118.308 69.3739 124.251 76.1168 129.879 80.1875C132.694 82.2234 135.4 83.5695 137.831 84.1473C140.257 84.7239 142.365 84.5277 144.063 83.5476C145.761 82.5674 146.985 80.8399 147.698 78.4507C148.413 76.0561 148.601 73.0394 148.245 69.5838C147.534 62.6747 144.666 54.1566 139.779 45.693C134.893 37.2295 128.95 30.4866 123.322 26.4159C120.507 24.38 117.801 23.0339 115.37 22.4561C112.944 21.8795 110.836 22.0757 109.138 23.0558Z" fill="url(#paint31_linear_1023_38789)" stroke="#FF7C51" stroke-width="1.52365"/>
<path d="M127.047 40.5908L127.242 41.6774C126.421 41.0211 125.582 40.4483 124.74 39.9795C123.878 39.4999 123.064 39.1576 122.308 38.9452L122.11 37.8431C122.002 37.2411 122.348 36.9943 122.882 37.2917L125.884 38.9623C126.418 39.2597 126.939 39.9888 127.047 40.5908Z" fill="url(#paint32_linear_1023_38789)"/>
<path d="M126.753 47.2524C127.268 47.0632 127.205 46.1414 126.613 45.1936C126.02 44.2458 125.123 43.6308 124.608 43.82C124.093 44.0092 124.156 44.931 124.749 45.8788C125.341 46.8267 126.239 47.4417 126.753 47.2524Z" fill="url(#paint33_linear_1023_38789)"/>
<path d="M129.169 46.8801C129.554 47.4958 129.573 48.0679 129.258 48.1836C128.963 48.292 128.374 47.9296 127.989 47.3139C127.604 46.6982 127.585 46.1262 127.9 46.0105C128.234 45.8876 128.784 46.2644 129.169 46.8801Z" fill="url(#paint34_linear_1023_38789)"/>
<path d="M121.253 51.3454C121.64 52.0432 122.082 52.7456 122.578 53.4396C125.875 58.0561 130.293 60.5521 132.445 59.0147C133.37 58.3542 133.726 57.0566 133.57 55.4253C132.301 55.7297 130.263 55.5052 127.81 54.6859C125.397 53.8796 123.055 52.6555 121.253 51.3454Z" fill="url(#paint35_linear_1023_38789)"/>
<path d="M127.392 53.5572C130.864 54.7171 133.378 54.7479 133.005 53.626C132.633 52.5041 129.517 50.6543 126.045 49.4944C122.573 48.3345 120.06 48.3036 120.432 49.4255C120.804 50.5474 123.92 52.3972 127.392 53.5572Z" fill="url(#paint36_linear_1023_38789)"/>
<path fill-rule="evenodd" clip-rule="evenodd" d="M131.523 47.4995C135.612 53.2232 136.727 59.4342 134.014 61.3722C126.692 66.6024 111.779 45.9514 119.208 40.6448C121.921 38.7068 127.435 41.7758 131.523 47.4995ZM130.896 47.9479C134.462 52.9402 135.434 58.3576 133.068 60.0479C130.701 61.7382 125.892 59.0614 122.326 54.0691C118.76 49.0767 117.788 43.6594 120.154 41.969C122.521 40.2787 127.33 42.9555 130.896 47.9479Z" fill="url(#paint37_linear_1023_38789)"/>
</g>
<path d="M118.275 17.3984C118.476 16.8542 119.246 16.8542 119.448 17.3984C120.432 20.0599 122.531 22.1584 125.192 23.1433C125.737 23.3446 125.737 24.1144 125.192 24.3157C122.531 25.3006 120.432 27.3991 119.448 30.0606C119.246 30.6048 118.476 30.6048 118.275 30.0606C117.29 27.3991 115.192 25.3006 112.53 24.3157C111.986 24.1144 111.986 23.3446 112.53 23.1433C115.192 22.1584 117.29 20.0599 118.275 17.3984Z" fill="url(#paint38_linear_1023_38789)"/>
<path d="M56.9464 61.2076C57.0778 60.8527 57.5798 60.8527 57.7111 61.2076C58.3534 62.9434 59.722 64.312 61.4578 64.9543C61.8127 65.0856 61.8127 65.5876 61.4578 65.7189C59.722 66.3612 58.3534 67.7298 57.7111 69.4656C57.5798 69.8205 57.0778 69.8205 56.9464 69.4656C56.3041 67.7298 54.9356 66.3612 53.1998 65.7189C52.8449 65.5876 52.8449 65.0856 53.1998 64.9543C54.9356 64.312 56.3041 62.9434 56.9464 61.2076Z" fill="url(#paint39_linear_1023_38789)"/>
<path d="M4.79117 13.7408C4.9225 13.3859 5.4245 13.3859 5.55583 13.7408C6.19813 15.4766 7.56669 16.8452 9.30248 17.4875C9.6574 17.6188 9.6574 18.1208 9.30248 18.2521C7.56669 18.8944 6.19813 20.263 5.55583 21.9988C5.4245 22.3537 4.9225 22.3537 4.79117 21.9988C4.14887 20.263 2.7803 18.8944 1.04451 18.2521C0.68959 18.1208 0.68959 17.6188 1.04451 17.4875C2.7803 16.8452 4.14887 15.4766 4.79117 13.7408Z" fill="url(#paint40_linear_1023_38789)"/>
<defs>
<linearGradient id="paint0_linear_1023_38789" x1="5.46582" y1="37.2593" x2="67.4485" y2="37.2593" gradientUnits="userSpaceOnUse">
<stop stop-color="#FFAC37"/>
<stop offset="0.334872" stop-color="#FFE6C3"/>
<stop offset="0.339876" stop-color="#FFBB5C"/>
<stop offset="0.715" stop-color="#FFA1AA"/>
<stop offset="0.735" stop-color="#EC6975"/>
<stop offset="0.945" stop-color="#FF8A58"/>
<stop offset="0.97" stop-color="#FFCE88"/>
</linearGradient>
<linearGradient id="paint1_linear_1023_38789" x1="5.46582" y1="37.0699" x2="67.4483" y2="37.4839" gradientUnits="userSpaceOnUse">
<stop stop-color="#FF9141"/>
<stop offset="0.315" stop-color="#FFCE89"/>
<stop offset="0.68808" stop-color="#EF6C3F"/>
<stop offset="1" stop-color="#FB835F"/>
</linearGradient>
<linearGradient id="paint2_linear_1023_38789" x1="5.46582" y1="47.2574" x2="67.4485" y2="47.2574" gradientUnits="userSpaceOnUse">
<stop stop-color="#FFAC37"/>
<stop offset="0.334872" stop-color="#FFE6C3"/>
<stop offset="0.339876" stop-color="#FFBB5C"/>
<stop offset="0.715" stop-color="#FFA1AA"/>
<stop offset="0.735" stop-color="#EC6975"/>
<stop offset="0.945" stop-color="#FF8A58"/>
<stop offset="0.97" stop-color="#FFCE88"/>
</linearGradient>
<linearGradient id="paint3_linear_1023_38789" x1="5.46582" y1="47.068" x2="67.4483" y2="47.4819" gradientUnits="userSpaceOnUse">
<stop stop-color="#FF9141"/>
<stop offset="0.315" stop-color="#FFCE89"/>
<stop offset="0.68808" stop-color="#EF6C3F"/>
<stop offset="1" stop-color="#FB835F"/>
</linearGradient>
<linearGradient id="paint4_linear_1023_38789" x1="8.46497" y1="57.2535" x2="70.4477" y2="57.2535" gradientUnits="userSpaceOnUse">
<stop stop-color="#FFAC37"/>
<stop offset="0.334872" stop-color="#FFE6C3"/>
<stop offset="0.339876" stop-color="#FFBB5C"/>
<stop offset="0.715" stop-color="#FFA1AA"/>
<stop offset="0.735" stop-color="#EC6975"/>
<stop offset="0.945" stop-color="#FF8A58"/>
<stop offset="0.97" stop-color="#FFCE88"/>
</linearGradient>
<linearGradient id="paint5_linear_1023_38789" x1="8.46497" y1="57.0641" x2="70.4475" y2="57.478" gradientUnits="userSpaceOnUse">
<stop stop-color="#FF9141"/>
<stop offset="0.315" stop-color="#FFCE89"/>
<stop offset="0.68808" stop-color="#EF6C3F"/>
<stop offset="1" stop-color="#FB835F"/>
</linearGradient>
<linearGradient id="paint6_linear_1023_38789" x1="5.46582" y1="67.2506" x2="67.4485" y2="67.2506" gradientUnits="userSpaceOnUse">
<stop stop-color="#FFAC37"/>
<stop offset="0.334872" stop-color="#FFE6C3"/>
<stop offset="0.339876" stop-color="#FFBB5C"/>
<stop offset="0.715" stop-color="#FFA1AA"/>
<stop offset="0.735" stop-color="#EC6975"/>
<stop offset="0.945" stop-color="#FF8A58"/>
<stop offset="0.97" stop-color="#FFCE88"/>
</linearGradient>
<linearGradient id="paint7_linear_1023_38789" x1="5.46582" y1="67.0612" x2="67.4483" y2="67.4751" gradientUnits="userSpaceOnUse">
<stop stop-color="#FF9141"/>
<stop offset="0.315" stop-color="#FFCE89"/>
<stop offset="0.68808" stop-color="#EF6C3F"/>
<stop offset="1" stop-color="#FB835F"/>
</linearGradient>
<linearGradient id="paint8_linear_1023_38789" x1="5.46582" y1="77.2476" x2="67.4485" y2="77.2476" gradientUnits="userSpaceOnUse">
<stop stop-color="#FFAC37"/>
<stop offset="0.334872" stop-color="#FFE6C3"/>
<stop offset="0.339876" stop-color="#FFBB5C"/>
<stop offset="0.715" stop-color="#FFA1AA"/>
<stop offset="0.735" stop-color="#EC6975"/>
<stop offset="0.945" stop-color="#FF8A58"/>
<stop offset="0.97" stop-color="#FFCE88"/>
</linearGradient>
<linearGradient id="paint9_linear_1023_38789" x1="5.46582" y1="77.0582" x2="67.4483" y2="77.4722" gradientUnits="userSpaceOnUse">
<stop stop-color="#FF9141"/>
<stop offset="0.315" stop-color="#FFCE89"/>
<stop offset="0.68808" stop-color="#EF6C3F"/>
<stop offset="1" stop-color="#FB835F"/>
</linearGradient>
<linearGradient id="paint10_linear_1023_38789" x1="8.15527" y1="27.2623" x2="70.138" y2="27.2623" gradientUnits="userSpaceOnUse">
<stop stop-color="#FFAC37"/>
<stop offset="0.334872" stop-color="#FFE6C3"/>
<stop offset="0.339876" stop-color="#FFBB5C"/>
<stop offset="0.715" stop-color="#FFA1AA"/>
<stop offset="0.735" stop-color="#EC6975"/>
<stop offset="0.945" stop-color="#FF8A58"/>
<stop offset="0.97" stop-color="#FFCE88"/>
</linearGradient>
<linearGradient id="paint11_linear_1023_38789" x1="8.15527" y1="27.0729" x2="70.1378" y2="27.4868" gradientUnits="userSpaceOnUse">
<stop stop-color="#FF9141"/>
<stop offset="0.315" stop-color="#FFCE89"/>
<stop offset="0.68808" stop-color="#EF6C3F"/>
<stop offset="1" stop-color="#FB835F"/>
</linearGradient>
<linearGradient id="paint12_linear_1023_38789" x1="54.4775" y1="76.9742" x2="116.46" y2="76.9742" gradientUnits="userSpaceOnUse">
<stop stop-color="#FFAC37"/>
<stop offset="0.334872" stop-color="#FFE6C3"/>
<stop offset="0.339876" stop-color="#FFBB5C"/>
<stop offset="0.715" stop-color="#FFA1AA"/>
<stop offset="0.735" stop-color="#EC6975"/>
<stop offset="0.945" stop-color="#FF8A58"/>
<stop offset="0.97" stop-color="#FFCE88"/>
</linearGradient>
<linearGradient id="paint13_linear_1023_38789" x1="54.4775" y1="76.7848" x2="116.46" y2="77.1987" gradientUnits="userSpaceOnUse">
<stop stop-color="#FF9141"/>
<stop offset="0.315" stop-color="#FFCE89"/>
<stop offset="0.68808" stop-color="#EF6C3F"/>
<stop offset="1" stop-color="#FB835F"/>
</linearGradient>
<linearGradient id="paint14_linear_1023_38789" x1="57.333" y1="66.5435" x2="119.316" y2="66.5435" gradientUnits="userSpaceOnUse">
<stop stop-color="#FFAC37"/>
<stop offset="0.334872" stop-color="#FFE6C3"/>
<stop offset="0.339876" stop-color="#FFBB5C"/>
<stop offset="0.715" stop-color="#FFA1AA"/>
<stop offset="0.735" stop-color="#EC6975"/>
<stop offset="0.945" stop-color="#FF8A58"/>
<stop offset="0.97" stop-color="#FFCE88"/>
</linearGradient>
<linearGradient id="paint15_linear_1023_38789" x1="57.333" y1="66.3541" x2="119.315" y2="66.7681" gradientUnits="userSpaceOnUse">
<stop stop-color="#FF9141"/>
<stop offset="0.315" stop-color="#FFCE89"/>
<stop offset="0.68808" stop-color="#EF6C3F"/>
<stop offset="1" stop-color="#FB835F"/>
</linearGradient>
<linearGradient id="paint16_linear_1023_38789" x1="54.4775" y1="56.5455" x2="116.46" y2="56.5455" gradientUnits="userSpaceOnUse">
<stop stop-color="#FFAC37"/>
<stop offset="0.334872" stop-color="#FFE6C3"/>
<stop offset="0.339876" stop-color="#FFBB5C"/>
<stop offset="0.715" stop-color="#FFA1AA"/>
<stop offset="0.735" stop-color="#EC6975"/>
<stop offset="0.945" stop-color="#FF8A58"/>
<stop offset="0.97" stop-color="#FFCE88"/>
</linearGradient>
<linearGradient id="paint17_linear_1023_38789" x1="54.4775" y1="56.3561" x2="116.46" y2="56.77" gradientUnits="userSpaceOnUse">
<stop stop-color="#FF9141"/>
<stop offset="0.315" stop-color="#FFCE89"/>
<stop offset="0.68808" stop-color="#EF6C3F"/>
<stop offset="1" stop-color="#FB835F"/>
</linearGradient>
<linearGradient id="paint18_linear_1023_38789" x1="57.333" y1="46.5474" x2="119.316" y2="46.5474" gradientUnits="userSpaceOnUse">
<stop stop-color="#FFAC37"/>
<stop offset="0.334872" stop-color="#FFE6C3"/>
<stop offset="0.339876" stop-color="#FFBB5C"/>
<stop offset="0.715" stop-color="#FFA1AA"/>
<stop offset="0.735" stop-color="#EC6975"/>
<stop offset="0.945" stop-color="#FF8A58"/>
<stop offset="0.97" stop-color="#FFCE88"/>
</linearGradient>
<linearGradient id="paint19_linear_1023_38789" x1="57.333" y1="46.358" x2="119.315" y2="46.772" gradientUnits="userSpaceOnUse">
<stop stop-color="#FF9141"/>
<stop offset="0.315" stop-color="#FFCE89"/>
<stop offset="0.68808" stop-color="#EF6C3F"/>
<stop offset="1" stop-color="#FB835F"/>
</linearGradient>
<linearGradient id="paint20_linear_1023_38789" x1="57.333" y1="36.5513" x2="119.316" y2="36.5513" gradientUnits="userSpaceOnUse">
<stop stop-color="#FFAC37"/>
<stop offset="0.334872" stop-color="#FFE6C3"/>
<stop offset="0.339876" stop-color="#FFBB5C"/>
<stop offset="0.715" stop-color="#FFA1AA"/>
<stop offset="0.735" stop-color="#EC6975"/>
<stop offset="0.945" stop-color="#FF8A58"/>
<stop offset="0.97" stop-color="#FFCE88"/>
</linearGradient>
<linearGradient id="paint21_linear_1023_38789" x1="57.333" y1="36.3619" x2="119.315" y2="36.7759" gradientUnits="userSpaceOnUse">
<stop stop-color="#FF9141"/>
<stop offset="0.315" stop-color="#FFCE89"/>
<stop offset="0.68808" stop-color="#EF6C3F"/>
<stop offset="1" stop-color="#FB835F"/>
</linearGradient>
<linearGradient id="paint22_linear_1023_38789" x1="57.333" y1="26.6763" x2="119.316" y2="26.6763" gradientUnits="userSpaceOnUse">
<stop stop-color="#FFAC37"/>
<stop offset="0.334872" stop-color="#FFE6C3"/>
<stop offset="0.339876" stop-color="#FFBB5C"/>
<stop offset="0.715" stop-color="#FFA1AA"/>
<stop offset="0.735" stop-color="#EC6975"/>
<stop offset="0.945" stop-color="#FF8A58"/>
<stop offset="0.97" stop-color="#FFCE88"/>
</linearGradient>
<linearGradient id="paint23_linear_1023_38789" x1="57.333" y1="26.4869" x2="119.315" y2="26.9009" gradientUnits="userSpaceOnUse">
<stop stop-color="#FF9141"/>
<stop offset="0.315" stop-color="#FFCE89"/>
<stop offset="0.68808" stop-color="#EF6C3F"/>
<stop offset="1" stop-color="#FB835F"/>
</linearGradient>
<linearGradient id="paint24_linear_1023_38789" x1="54.6924" y1="16.7144" x2="116.675" y2="16.7144" gradientUnits="userSpaceOnUse">
<stop stop-color="#FFAC37"/>
<stop offset="0.334872" stop-color="#FFE6C3"/>
<stop offset="0.339876" stop-color="#FFBB5C"/>
<stop offset="0.715" stop-color="#FFA1AA"/>
<stop offset="0.735" stop-color="#EC6975"/>
<stop offset="0.945" stop-color="#FF8A58"/>
<stop offset="0.97" stop-color="#FFCE88"/>
</linearGradient>
<linearGradient id="paint25_linear_1023_38789" x1="54.6924" y1="16.525" x2="116.675" y2="16.939" gradientUnits="userSpaceOnUse">
<stop stop-color="#FF9141"/>
<stop offset="0.315" stop-color="#FFCE89"/>
<stop offset="0.68808" stop-color="#EF6C3F"/>
<stop offset="1" stop-color="#FB835F"/>
</linearGradient>
<linearGradient id="paint26_linear_1023_38789" x1="141.075" y1="86.64" x2="148.955" y2="32.5788" gradientUnits="userSpaceOnUse">
<stop stop-color="#FF7C51"/>
<stop offset="0.163935" stop-color="#EB6474"/>
<stop offset="0.65444" stop-color="#FFBF65"/>
<stop offset="1" stop-color="#EBECD9"/>
</linearGradient>
<linearGradient id="paint27_linear_1023_38789" x1="99.8473" y1="27.5016" x2="133.829" y2="89.938" gradientUnits="userSpaceOnUse">
<stop stop-color="#EDE9D1"/>
<stop offset="0.360529" stop-color="#FF7C51"/>
<stop offset="0.711797" stop-color="#ED6771"/>
<stop offset="1" stop-color="#FD7A56"/>
</linearGradient>
<linearGradient id="paint28_linear_1023_38789" x1="141.075" y1="86.64" x2="148.955" y2="32.5788" gradientUnits="userSpaceOnUse">
<stop stop-color="#FF7C51"/>
<stop offset="0.163935" stop-color="#EB6474"/>
<stop offset="0.65444" stop-color="#FFBF65"/>
<stop offset="1" stop-color="#EBECD9"/>
</linearGradient>
<linearGradient id="paint29_linear_1023_38789" x1="99.8473" y1="27.5016" x2="133.829" y2="89.938" gradientUnits="userSpaceOnUse">
<stop stop-color="#EDE9D1"/>
<stop offset="0.360529" stop-color="#FF7C51"/>
<stop offset="0.711797" stop-color="#ED6771"/>
<stop offset="1" stop-color="#FD7A56"/>
</linearGradient>
<linearGradient id="paint30_linear_1023_38789" x1="127.133" y1="81.4071" x2="133.332" y2="28.2402" gradientUnits="userSpaceOnUse">
<stop stop-color="#FFE0EA"/>
<stop offset="0.225" stop-color="#FFD6C1"/>
<stop offset="0.735" stop-color="#FFBF65"/>
<stop offset="1" stop-color="#FF7B50"/>
</linearGradient>
<linearGradient id="paint31_linear_1023_38789" x1="127.133" y1="81.4071" x2="133.332" y2="28.2402" gradientUnits="userSpaceOnUse">
<stop stop-color="#FFE0EA"/>
<stop offset="0.225" stop-color="#FFD6C1"/>
<stop offset="0.735" stop-color="#FFBF65"/>
<stop offset="1" stop-color="#FF7B50"/>
</linearGradient>
<linearGradient id="paint32_linear_1023_38789" x1="124.045" y1="34.1064" x2="115.497" y2="43.0941" gradientUnits="userSpaceOnUse">
<stop stop-color="#FF7B50"/>
<stop offset="1" stop-color="#E75409"/>
</linearGradient>
<linearGradient id="paint33_linear_1023_38789" x1="124.045" y1="34.1064" x2="115.497" y2="43.0941" gradientUnits="userSpaceOnUse">
<stop stop-color="#FF7B50"/>
<stop offset="1" stop-color="#E75409"/>
</linearGradient>
<linearGradient id="paint34_linear_1023_38789" x1="124.045" y1="34.1064" x2="115.497" y2="43.0941" gradientUnits="userSpaceOnUse">
<stop stop-color="#FF7B50"/>
<stop offset="1" stop-color="#E75409"/>
</linearGradient>
<linearGradient id="paint35_linear_1023_38789" x1="124.045" y1="34.1064" x2="115.497" y2="43.0941" gradientUnits="userSpaceOnUse">
<stop stop-color="#FF7B50"/>
<stop offset="1" stop-color="#E75409"/>
</linearGradient>
<linearGradient id="paint36_linear_1023_38789" x1="124.045" y1="34.1064" x2="115.497" y2="43.0941" gradientUnits="userSpaceOnUse">
<stop stop-color="#FF7B50"/>
<stop offset="1" stop-color="#E75409"/>
</linearGradient>
<linearGradient id="paint37_linear_1023_38789" x1="124.045" y1="34.1064" x2="115.497" y2="43.0941" gradientUnits="userSpaceOnUse">
<stop stop-color="#FF7B50"/>
<stop offset="1" stop-color="#E75409"/>
</linearGradient>
<linearGradient id="paint38_linear_1023_38789" x1="118.861" y1="15.8146" x2="118.861" y2="31.6454" gradientUnits="userSpaceOnUse">
<stop stop-color="white"/>
<stop offset="0.755" stop-color="#E3FDFF"/>
</linearGradient>
<linearGradient id="paint39_linear_1023_38789" x1="57.3286" y1="60.1747" x2="57.3286" y2="70.4991" gradientUnits="userSpaceOnUse">
<stop stop-color="white"/>
<stop offset="0.755" stop-color="#E3FDFF"/>
</linearGradient>
<linearGradient id="paint40_linear_1023_38789" x1="5.17336" y1="12.7079" x2="5.17336" y2="23.0323" gradientUnits="userSpaceOnUse">
<stop stop-color="white"/>
<stop offset="0.755" stop-color="#E3FDFF"/>
</linearGradient>
</defs>
</svg>
