<svg width="185" height="56" viewBox="0 0 185 56" fill="none" xmlns="http://www.w3.org/2000/svg">
<path d="M46.0563 20.3374H49.6393L55.3827 35.225V20.3374H57.2496V35.6628H53.5403L47.9232 20.8847V35.6628H46.0563V20.3374Z" fill="#F7F7F7"/>
<path d="M86.5863 29.3139V26.6866C86.5863 22.5058 88.7059 20.1396 92.4357 20.1396C96.1655 20.1396 97.9468 22.3079 98.1996 25.6551H96.2715C96.0392 23.5331 95.0405 22.0006 92.4357 22.0006C89.5741 22.0006 88.494 23.8194 88.494 26.6866V29.3139C88.494 32.1811 89.5741 33.9999 92.4357 33.9999C94.7673 33.9999 96.3367 32.8842 96.3367 29.2507V29.1412H92.4153V27.3897H98.2444V29.1412C98.2444 33.1241 96.4223 35.8608 92.4357 35.8608C88.7059 35.8608 86.5863 33.4947 86.5863 29.3139Z" fill="#F7F7F7"/>
<path d="M107.331 20.3374H112.989C115.745 20.3374 117.481 21.8489 117.481 24.455C117.481 27.3433 115.745 28.6822 112.989 28.6822H109.789L118.268 35.667H115.235L109.194 30.5642V35.667H107.327V20.3374H107.331ZM112.883 26.8844C114.473 26.8844 115.553 26.316 115.553 24.4761C115.553 22.6362 114.473 22.0889 112.883 22.0889H109.194V26.8844H112.883Z" fill="#F7F7F7"/>
<path d="M148.032 20.8847V35.6628H146.164V20.3374H149.703L153.559 35.1155L157.416 20.3374H160.953V35.6628H159.086V20.8847L155.357 35.6628H151.753L148.023 20.8847H148.032Z" fill="#F7F7F7"/>
<path d="M34.386 31.701H28.1534L27.0079 35.6628H24.9535L29.5719 20.3374H33.0041L37.5818 35.6628H35.5274L34.3819 31.701H34.386ZM33.8764 29.9495L31.2676 20.8847L28.6588 29.9495H33.8724H33.8764Z" fill="#F7F7F7"/>
<path d="M75.1484 31.701H68.9159L67.7705 35.6628H65.7159L70.3384 20.3374H73.7707L78.3483 35.6628H76.2938L75.1484 31.701ZM74.6389 29.9495L72.0301 20.8847L69.4213 29.9495H74.6349H74.6389Z" fill="#F7F7F7"/>
<path d="M136.301 31.701H130.069L128.923 35.6628H126.869L131.491 20.3374H134.923L139.501 35.6628H137.446L136.301 31.701ZM135.791 29.9495L133.183 20.8847L130.574 29.9495H135.787H135.791Z" fill="#F7F7F7"/>
</svg>
