<svg width="179" height="56" viewBox="0 0 179 56" fill="none" xmlns="http://www.w3.org/2000/svg">
<g clip-path="url(#clip0_1195_13991)">
<path d="M145.095 29.8917C144.487 29.8917 143.967 29.9773 143.359 29.9773C142.318 30.1486 141.71 30.7482 141.71 31.6046C141.71 32.2898 142.144 32.8037 142.838 32.8893C142.925 32.8893 143.012 32.8893 143.012 32.8893C144.14 32.8893 145.095 32.0329 145.095 30.9195C145.095 30.8338 145.095 30.7482 145.095 30.6625V29.8917ZM142.231 34.8592C140.582 35.0305 139.107 33.8315 139.02 32.2042C139.02 32.0329 139.02 31.9472 139.02 31.7759C139.02 30.063 140.148 29.0352 141.971 28.607C143.012 28.4357 144.053 28.35 145.095 28.35C145.095 26.894 144.487 26.3802 142.925 26.3802C141.971 26.3802 140.929 26.6371 140.061 27.0653V24.9242C141.103 24.4959 142.144 24.3246 143.272 24.3246C146.483 24.3246 147.698 25.7806 147.698 28.5213V32.5468H149V34.6023H145.355L145.182 33.5745C144.4 34.431 143.359 34.8592 142.231 34.8592ZM109.601 29.8917C108.993 29.8917 108.473 29.9773 107.865 29.9773C106.824 30.1486 106.216 30.7482 106.216 31.6046C106.216 32.2898 106.65 32.8037 107.344 32.8893C107.431 32.8893 107.518 32.8893 107.518 32.8893C108.646 32.8893 109.601 32.0329 109.601 30.9195C109.601 30.8338 109.601 30.7482 109.601 30.6625V29.8917ZM106.824 34.8592C105.175 35.0305 103.7 33.8315 103.613 32.2042C103.613 32.0329 103.613 31.9472 103.613 31.7759C103.613 30.063 104.741 29.0352 106.563 28.607C107.605 28.4357 108.646 28.35 109.688 28.35C109.688 26.894 109.08 26.3802 107.518 26.3802C106.563 26.3802 105.522 26.6371 104.654 27.0653V24.9242C105.609 24.4959 106.737 24.3246 107.778 24.3246C110.989 24.3246 112.204 25.7806 112.204 28.5213V32.5468H113.506V34.6023H109.861L109.688 33.5745C108.993 34.431 107.952 34.8592 106.824 34.8592ZM69.5941 29.8917C68.9866 29.8917 68.4659 29.8917 67.8584 29.9773C66.817 30.1486 66.2095 30.7482 66.2095 31.6046C66.2095 32.2898 66.6435 32.8037 67.3377 32.8893C67.4245 32.8893 67.5113 32.8893 67.5113 32.8893C68.6394 32.8893 69.5941 32.0329 69.5941 30.9195C69.5941 30.8338 69.5941 30.7482 69.5941 30.6625V29.8917ZM66.7302 34.8592C65.0814 35.0305 63.6061 33.8315 63.5193 32.2042C63.5193 32.0329 63.5193 31.9472 63.5193 31.7759C63.5193 30.063 64.6475 29.0352 66.4699 28.607C67.5113 28.4357 68.5527 28.35 69.5941 28.35C69.5941 26.894 68.9866 26.3802 67.4245 26.3802C66.4699 26.3802 65.4285 26.6371 64.5607 27.0653V24.9242C65.5153 24.4959 66.6435 24.3246 67.7716 24.3246C70.9826 24.3246 72.1975 25.7806 72.1975 28.5213V32.5468H73.4993V34.6023H69.8544L69.6808 33.5745C68.8998 34.431 67.8584 34.8592 66.7302 34.8592ZM122.531 29.5491C122.531 27.6649 121.577 26.4658 120.101 26.4658C118.626 26.4658 117.758 27.7505 117.758 29.5491C117.758 31.3477 118.713 32.718 120.101 32.718C121.49 32.718 122.531 31.4333 122.531 29.5491ZM125.222 29.5491C125.222 32.6324 123.399 34.8592 120.796 34.8592C119.667 34.9449 118.539 34.5166 117.845 33.5745V37.7712L115.242 38.799V26.5515H113.94V24.4959H117.671L117.845 25.7806C118.453 24.7529 119.581 24.239 120.796 24.239C123.486 24.3246 125.135 26.3802 125.222 29.5491ZM86.6902 24.3246C85.3885 24.239 84.1735 24.8385 83.3925 25.8663L83.2189 24.5816H79.2269V26.6371H80.7022V34.6023H83.3925V29.9773C83.3925 27.4936 84.6942 26.5515 85.9091 26.5515C87.1241 26.5515 87.4712 27.2366 87.4712 28.7783V34.6023H90.0747V28.1788C90.0747 25.6093 88.9465 24.3246 86.6902 24.3246ZM98.7529 32.4611C96.0627 32.4611 94.4138 30.6625 94.4138 27.7505C94.4138 24.8385 95.9759 23.0399 98.4926 23.0399C99.1001 23.0399 99.7075 23.1256 100.315 23.2112V26.0376L102.658 25.0955V21.7552C101.443 21.07 100.055 20.7275 98.6661 20.7275C94.5006 20.7275 91.6368 23.2112 91.6368 27.7505C91.6368 32.0329 94.1535 34.7736 98.6661 34.7736C100.055 34.7736 101.443 34.431 102.745 33.7458L102.137 31.519C101.096 32.2042 99.8811 32.4611 98.7529 32.4611ZM152.992 32.6324V20.1279L150.302 21.2413V34.6023H154.207V32.5468L152.992 32.6324ZM59.8744 30.4912C59.8744 29.2065 58.9198 28.5213 57.271 28.5213H54.6675V32.5468H57.271C59.0934 32.5468 59.8744 31.6903 59.8744 30.4912ZM54.6675 26.4658H56.837C58.3991 26.4658 59.0934 25.695 59.0934 24.7529C59.0934 23.5538 58.3991 22.9543 57.0106 22.9543H54.6675V26.4658ZM62.6515 30.6625C62.6515 33.3176 60.5687 34.6023 57.4445 34.6023H51.9772V22.9543H50.3284V20.9844H57.0106C58.2256 20.8988 59.3537 21.1557 60.4819 21.6696C61.4365 22.2691 61.9572 23.2969 61.8704 24.3246C61.8704 25.695 60.9158 26.9797 59.5273 27.2366C61.4365 27.5792 62.6515 28.8639 62.6515 30.6625ZM125.916 26.5515H127.391V34.6023H130.081V24.4959H126.003L125.916 26.5515ZM127.391 22.6973H130.081V20.2992H127.391V22.6973ZM73.6728 26.5515H75.1481V34.6023H77.8384V24.4959H73.7596V26.5515H73.6728ZM75.1481 22.783H77.8384V20.2992H75.1481V22.783ZM135.549 24.4959H138.239V26.5515H135.549V31.0051C135.549 32.1185 135.809 32.8037 136.85 32.8037C137.284 32.8037 137.631 32.718 138.065 32.6324V34.6023C137.371 34.7736 136.677 34.8592 135.983 34.8592C133.9 34.8592 132.858 33.9171 132.858 31.6903V26.5515H131.383V24.4959H132.858V22.783L135.462 21.6696L135.549 24.4959Z" fill="#F7F7F7"/>
<path d="M38.0916 31.5193L44.3399 34.6026V37.172H26.5496L38.0916 31.5193ZM25.161 31.348L31.4094 28.2647L37.137 31.091L25.161 37.0007V31.348ZM25.161 25.1814L30.4548 27.7508L25.161 30.4058V25.1814ZM32.364 27.7508L44.2532 21.9268V33.7461L32.364 27.7508ZM25.161 24.2393V18.5866L37.137 24.4962L31.4094 27.3226L25.161 24.2393ZM26.5496 18.3296H44.2532V20.899L38.0048 23.9823L26.5496 18.3296ZM24.2932 17.4731V38.1141H45.2078V17.4731H24.2932Z" fill="#F7F7F7"/>
</g>
<defs>
<clipPath id="clip0_1195_13991">
<rect width="130" height="21.4118" fill="white" transform="translate(24.2932 17.2939)"/>
</clipPath>
</defs>
</svg>
