<svg width="142" height="56" viewBox="0 0 142 56" fill="none" xmlns="http://www.w3.org/2000/svg">
<g clip-path="url(#clip0_1195_14111)">
<path d="M61.3939 36.3232H69.1143C71.5461 36.3232 73.3876 34.2692 73.3876 31.5777C73.3876 28.8154 71.2864 27.8002 70.035 27.7294V27.5877C71.2392 27.4461 72.821 26.5489 72.821 24.0935C72.821 21.52 71.1211 19.8438 68.406 19.8438H61.3939V36.3232ZM63.6841 28.839H68.4296C69.9878 28.839 70.9322 29.6418 70.9322 31.1764V32.0027C70.9322 33.5373 69.9878 34.3401 68.4296 34.3401H63.6841V28.839ZM63.6841 21.827H68.0518C69.4921 21.827 70.3656 22.6061 70.3656 23.9754V24.7546C70.3656 26.1239 69.4921 26.903 68.0518 26.903H63.6841V21.827Z" fill="#F7F7F7"/>
<path d="M82.4111 36.6067C85.197 36.6067 87.2038 35.1665 88.2663 32.8055L86.4247 31.6959C85.8108 33.3958 84.4415 34.5526 82.4111 34.5526C79.7195 34.5526 78.0905 32.5459 78.0905 29.335V26.8323C78.0905 23.6214 79.7195 21.6146 82.4111 21.6146C84.3942 21.6146 85.6692 22.677 86.283 24.3061L88.1718 23.22C87.1094 20.8591 85.197 19.5605 82.4111 19.5605C78.2085 19.5605 75.6351 22.5826 75.6351 28.0836C75.6351 33.5847 78.2085 36.6067 82.4111 36.6067Z" fill="#F7F7F7"/>
<path d="M103.872 36.3232L98.1821 19.8438H95.3018L89.5883 36.3232H91.902L93.4838 31.6722H99.9057L101.464 36.3232H103.872ZM99.339 29.6418H94.0269L96.624 21.945H96.742L99.339 29.6418Z" fill="#F7F7F7"/>
<path d="M108.817 36.3232V29.5237H113.326C116.301 29.5237 118.001 27.6113 118.001 24.6837C118.001 21.7561 116.301 19.8438 113.326 19.8438H106.527V36.3232H108.817ZM108.817 21.8742H113.232C114.696 21.8742 115.569 22.6769 115.569 24.0935V25.274C115.569 26.6905 114.696 27.4933 113.232 27.4933H108.817V21.8742Z" fill="#F7F7F7"/>
</g>
<g clip-path="url(#clip1_1195_14111)">
<mask id="mask0_1195_14111" style="mask-type:luminance" maskUnits="userSpaceOnUse" x="24" y="13" width="31" height="31">
<path d="M54.2514 13.0469H24V43.3309H54.2514V13.0469Z" fill="white"/>
</mask>
<g mask="url(#mask0_1195_14111)">
<path d="M37.5679 37.2829C37.3566 37.3932 37.0986 37.3093 36.993 37.098L35.8182 34.8276C35.7078 34.6162 35.7918 34.3583 36.0031 34.2542L37.9999 33.2208C38.2315 33.0996 38.3061 32.7997 38.1476 32.5883L35.8927 29.5223C35.7342 29.311 35.4297 29.2907 35.2448 29.4741L33.6643 31.0763C33.5012 31.2441 33.2277 31.2441 33.0583 31.0763L31.2401 29.2799C31.0723 29.1167 31.0723 28.8432 31.2401 28.6738L33.0365 26.8557C33.1997 26.6878 33.4732 26.6878 33.6426 26.8557L35.2448 28.4361C35.4297 28.621 35.7404 28.5946 35.8927 28.3832L38.1165 25.2861C38.2688 25.0748 38.1957 24.7748 37.9643 24.6536L35.9518 23.642C35.7404 23.5363 35.6565 23.2784 35.7622 23.067L36.9106 20.7811C37.0163 20.5698 37.2742 20.4858 37.4856 20.5915L39.7715 21.7399C39.9829 21.8456 40.0668 22.1036 39.9611 22.3149L38.9494 24.3273C38.8329 24.5651 38.9494 24.8432 39.2028 24.9271L42.8328 26.0802C43.0799 26.1595 43.3441 25.9963 43.3861 25.7384L43.7233 23.5146C43.7606 23.2831 43.9766 23.1199 44.2081 23.1556L46.7364 23.5395C46.968 23.5768 47.1312 23.7927 47.0955 24.0243L46.7116 26.5527C46.6743 26.7841 46.4583 26.9474 46.2268 26.9116L44.003 26.5744C43.745 26.5324 43.5073 26.7375 43.5135 27.0017L43.5352 30.8105C43.5352 31.0747 43.773 31.2737 44.031 31.2271L46.2486 30.8634C46.48 30.8261 46.7023 30.9846 46.738 31.2161L47.1545 33.7398C47.1918 33.9714 47.0333 34.1936 46.8017 34.2293L44.2781 34.6458C44.0465 34.6831 43.8243 34.5245 43.7886 34.2931L43.4249 32.0755C43.3829 31.8176 43.1188 31.659 42.8717 31.7382L39.2572 32.9349C39.01 33.0188 38.8935 33.3032 39.01 33.5347L40.0419 35.5316C40.1522 35.7429 40.0683 36.0009 39.8569 36.1066L37.5711 37.2813L37.5679 37.2829Z" fill="#F7F7F7"/>
<path d="M48.0241 37.1884L49.6775 37.2288C49.9137 37.235 50.108 37.0485 50.1142 36.8123L50.1546 35.1589C50.1608 34.9227 49.9743 34.7269 49.7381 34.7222L48.0847 34.6818C47.8485 34.6756 47.6542 34.8621 47.648 35.0983L47.6076 36.7517C47.6014 36.9879 47.7879 37.1822 48.0241 37.1884Z" fill="#F7F7F7"/>
<path d="M50.1805 38.629L49.865 39.6018C49.8106 39.7711 49.9023 39.9514 50.0718 40.0074L51.0429 40.3244C51.2124 40.3788 51.3927 40.2871 51.4486 40.1177L51.764 39.1464C51.8184 38.9771 51.7267 38.7968 51.5573 38.7409L50.5861 38.4239C50.4167 38.3695 50.2364 38.4612 50.1805 38.6305V38.629Z" fill="#F7F7F7"/>
<path d="M34.5616 39.1959L35.034 40.7809C35.1008 41.0062 35.3386 41.1352 35.5655 41.0684L37.1505 40.596C37.3758 40.5291 37.5048 40.2914 37.438 40.0645L36.9656 38.4795C36.8988 38.2541 36.661 38.1251 36.4342 38.192L34.8491 38.6643C34.6238 38.7312 34.4948 38.969 34.5616 39.1959Z" fill="#F7F7F7"/>
<path d="M33.8764 41.667H32.8539C32.6767 41.667 32.5322 41.8115 32.5322 41.9887V43.0112C32.5322 43.1883 32.6767 43.3329 32.8539 43.3329H33.8764C34.0536 43.3329 34.1981 43.1883 34.1981 43.0112V41.9887C34.1981 41.8115 34.0536 41.667 33.8764 41.667Z" fill="#F7F7F7"/>
<path d="M28.4978 27.0111L27.1365 27.9513C26.9422 28.0849 26.8941 28.3506 27.0277 28.5449L27.9679 29.9062C28.1015 30.1004 28.3672 30.1486 28.5615 30.015L29.9228 29.0748C30.117 28.9412 30.1652 28.6754 30.0316 28.4812L29.0914 27.1199C28.9578 26.9257 28.692 26.8774 28.4978 27.0111Z" fill="#F7F7F7"/>
<path d="M25.9133 27.114L25.5978 26.1413C25.5434 25.9719 25.3616 25.8802 25.1922 25.9346L24.2194 26.2501C24.05 26.3044 23.9583 26.4862 24.0127 26.6557L24.3282 27.6284C24.3826 27.7978 24.5644 27.8895 24.7338 27.8351L25.7066 27.5197C25.876 27.4653 25.9676 27.2835 25.9133 27.114Z" fill="#F7F7F7"/>
<path d="M38.2115 17.4792L36.8968 16.4754C36.7088 16.3324 36.4415 16.3681 36.2985 16.5546L35.2947 17.8693C35.1517 18.0573 35.1875 18.3246 35.3739 18.4676L36.6886 19.4714C36.8766 19.6144 37.1439 19.5787 37.2869 19.3922L38.2908 18.0775C38.4337 17.8895 38.398 17.6222 38.2099 17.4792H38.2115Z" fill="#F7F7F7"/>
<path d="M37.3111 15.0565L38.1378 14.4566C38.2808 14.3525 38.3135 14.1521 38.2093 14.0075L37.6095 13.1808C37.5054 13.0379 37.3049 13.0052 37.1604 13.1093L36.3337 13.7092C36.1907 13.8133 36.158 14.0138 36.2622 14.1583L36.862 14.985C36.9661 15.128 37.1666 15.1606 37.3111 15.0565Z" fill="#F7F7F7"/>
<path d="M50.2799 23.7695L50.8285 22.2093C50.9061 21.9871 50.7896 21.7431 50.5673 21.6654L49.0072 21.1168C48.7849 21.0392 48.541 21.1557 48.4633 21.378L47.9147 22.9381C47.837 23.1604 47.9536 23.4043 48.1758 23.482L49.736 24.0306C49.9582 24.1083 50.2022 23.9918 50.2799 23.7695Z" fill="#F7F7F7"/>
<path d="M52.3136 22.1626L53.1403 22.764C53.2833 22.8682 53.4853 22.8371 53.5894 22.6926L54.1908 21.8658C54.2949 21.7228 54.2639 21.5209 54.1193 21.4168L53.2926 20.8153C53.1496 20.7112 52.9476 20.7423 52.8435 20.8868L52.2421 21.7135C52.138 21.8565 52.169 22.0586 52.3136 22.1626Z" fill="#F7F7F7"/>
</g>
</g>
<defs>
<clipPath id="clip0_1195_14111">
<rect width="57.317" height="17.5772" fill="white" transform="translate(60.683 19.2114)"/>
</clipPath>
<clipPath id="clip1_1195_14111">
<rect width="30.5691" height="31.3333" fill="white" transform="translate(24 12.3335)"/>
</clipPath>
</defs>
</svg>
