<svg width="258" height="56" viewBox="0 0 258 56" fill="none" xmlns="http://www.w3.org/2000/svg">
<path fill-rule="evenodd" clip-rule="evenodd" d="M124.796 32.5952C125.488 32.2234 126.128 31.7659 126.7 31.2341L128.351 32.8724C127.988 33.2562 127.592 33.6096 127.168 33.9287C126.753 34.2369 126.308 34.5038 125.839 34.7255C125.343 34.9582 124.82 35.1309 124.282 35.2397C123.666 35.3592 123.04 35.4168 122.413 35.4115C121.393 35.4214 120.381 35.226 119.442 34.8374C118.556 34.4723 117.752 33.9386 117.079 33.2672C116.405 32.5959 115.874 31.8003 115.516 30.9266C115.133 30.011 114.94 29.0299 114.948 28.0405V27.9995C114.939 27.0149 115.128 26.0382 115.505 25.1252C115.866 24.2434 116.402 23.4402 117.082 22.7618C117.762 22.0834 118.571 21.5432 119.465 21.1721C120.431 20.7741 121.47 20.5756 122.518 20.589C123.131 20.5852 123.743 20.6401 124.345 20.753C124.866 20.8534 125.375 21.008 125.863 21.2144C126.311 21.4066 126.738 21.6427 127.136 21.9193C127.528 22.1936 127.899 22.4951 128.246 22.8215L126.595 24.6819C126.037 24.1719 125.411 23.7384 124.734 23.3935C124.038 23.0563 123.27 22.8876 122.494 22.9014C121.829 22.8951 121.169 23.0319 120.563 23.3021C119.982 23.56 119.459 23.928 119.025 24.3846C118.586 24.8521 118.245 25.3985 118.019 25.9934C117.78 26.6211 117.66 27.2864 117.665 27.9564V27.9974C117.66 28.6713 117.78 29.3405 118.019 29.9723C118.244 30.5733 118.585 31.1261 119.025 31.5999C119.456 32.0646 119.979 32.4383 120.563 32.6977C121.17 32.9648 121.829 33.1001 122.494 33.0942C123.292 33.1164 124.083 32.945 124.796 32.5952ZM74.149 32.5952C74.8412 32.2242 75.4812 31.7666 76.0529 31.2341L77.704 32.8724C77.3406 33.2564 76.9445 33.6098 76.5204 33.9287C76.106 34.237 75.6611 34.5039 75.1925 34.7255C74.6964 34.9582 74.1733 35.1309 73.6346 35.2397C73.0191 35.3592 72.3928 35.4168 71.7654 35.4115C70.7452 35.4213 69.7339 35.226 68.7941 34.8374C67.909 34.4706 67.1067 33.9363 66.4331 33.2651C65.7596 32.594 65.228 31.7993 64.8689 30.9266C64.4857 30.011 64.2925 29.0299 64.3005 28.0405V27.9995C64.2918 27.0149 64.4811 26.0382 64.8576 25.1253C65.2192 24.2435 65.7551 23.4403 66.4347 22.7619C67.1142 22.0835 67.9241 21.5433 68.8175 21.1721C69.7834 20.7742 70.8227 20.5756 71.8706 20.589C72.4848 20.5854 73.0978 20.6403 73.7012 20.753C74.2212 20.8539 74.7288 21.0085 75.2155 21.2144C75.6634 21.4064 76.0901 21.6426 76.489 21.9193C76.8806 22.1936 77.2514 22.4951 77.5991 22.8215L75.9478 24.6819C75.3899 24.1717 74.7636 23.7382 74.0862 23.3935C73.391 23.0563 72.6232 22.8876 71.8475 22.9014C71.1814 22.8951 70.5221 23.0319 69.9159 23.3021C69.3351 23.5598 68.8123 23.9278 68.3777 24.3847C67.9392 24.852 67.5977 25.3984 67.3723 25.9934C67.1327 26.6211 67.0126 27.2864 67.0179 27.9564V27.9974C67.0127 28.6713 67.1328 29.3405 67.3723 29.9723C67.5967 30.5734 67.9382 31.1262 68.3777 31.5999C68.8084 32.0649 69.3319 32.4385 69.9159 32.6977C70.5229 32.9649 71.1819 33.1001 71.8475 33.0942C72.645 33.1163 73.4356 32.9449 74.149 32.5952ZM26.5971 29.0611V32.8924H34.9799V35.1642H24.0464V20.8346H34.876V23.1069H26.5971V26.7893H33.9376V29.0611H26.5971ZM40.5852 20.8363V32.8924H48.2797V35.1642H38.0344V20.8363H40.5852ZM53.51 32.8924V29.0611H60.8505V26.7893H53.51V23.1069H61.7888V20.8346H50.9576V35.1642H61.891V32.8924H53.51ZM79.3124 20.8346V23.168H83.9548V35.1642H86.548V23.168H91.1898V20.8346H79.3124ZM103.771 29.1567C103.329 29.4136 102.854 29.6098 102.357 29.7398L106.313 35.1642H103.279L99.6682 30.1671L98.1339 27.9371H100.213C101.001 27.9793 101.78 27.7501 102.413 27.2892C102.682 27.0803 102.897 26.8122 103.039 26.5067C103.182 26.2013 103.249 25.8672 103.235 25.5316V25.4906C103.257 25.1538 103.196 24.8169 103.057 24.5078C102.918 24.1988 102.707 23.9267 102.439 23.7142C101.78 23.2736 100.989 23.0604 100.192 23.1081H96.4379V35.1642H93.8874V20.8355H100.414C101.245 20.8217 102.073 20.9495 102.86 21.2131C103.522 21.4359 104.128 21.7961 104.636 22.2691C105.027 22.6604 105.333 23.1261 105.535 23.6375C105.75 24.1869 105.857 24.7713 105.85 25.3598V25.3979C105.857 25.9371 105.769 26.4735 105.589 26.9833C105.424 27.4384 105.179 27.8617 104.865 28.234C104.556 28.5992 104.186 28.911 103.771 29.1567ZM109.134 20.8346V35.1642H111.685V20.8346H109.134Z" fill="#F7F7F7"/>
<path fill-rule="evenodd" clip-rule="evenodd" d="M154.197 31.2341C153.625 31.7665 152.986 32.2241 152.293 32.5951C151.581 32.9453 150.792 33.1168 149.995 33.0942C149.329 33.1001 148.668 32.9648 148.06 32.6977C147.477 32.4377 146.953 32.0642 146.522 31.5999C146.082 31.1262 145.741 30.5735 145.516 29.9723C145.279 29.3399 145.159 28.6711 145.162 27.9974V27.9564C145.159 27.2866 145.279 26.6216 145.516 25.9934C145.742 25.3983 146.083 24.8519 146.522 24.3846C146.957 23.9284 147.48 23.5605 148.06 23.302C148.668 23.0318 149.328 22.8951 149.995 22.9014C150.77 22.8881 151.536 23.0568 152.231 23.3935C152.908 23.7375 153.535 24.171 154.092 24.682L155.743 22.8214C155.397 22.4951 155.027 22.1936 154.637 21.9193C154.237 21.6426 153.809 21.4064 153.36 21.2144C152.873 21.0085 152.365 20.8539 151.845 20.753C151.242 20.6401 150.629 20.5852 150.015 20.589C148.967 20.5759 147.928 20.7744 146.962 21.1721C146.068 21.5431 145.258 22.0834 144.579 22.7618C143.899 23.4402 143.363 24.2434 143.002 25.1252C142.628 26.0382 142.44 27.0136 142.447 27.997V28.038C142.441 29.0273 142.634 30.008 143.015 30.9241C143.379 31.7974 143.911 32.5935 144.585 33.2681C145.258 33.9369 146.06 34.4693 146.944 34.835C147.882 35.2239 148.893 35.4193 149.912 35.4091C150.541 35.4145 151.168 35.3569 151.784 35.2373C152.322 35.1273 152.843 34.9544 153.338 34.7222C153.806 34.4989 154.251 34.2321 154.666 33.9254C155.089 33.6063 155.484 33.2529 155.847 32.869L154.197 31.2341ZM166.073 20.7319H163.689L157.25 35.1645H159.887L161.389 31.7035L162.332 29.4731L164.84 23.7398L167.372 29.4735L168.315 31.7039L169.797 35.1649H172.516L166.073 20.7319ZM184.844 22.1425C185.322 22.5634 185.699 23.0812 185.95 23.6598C186.217 24.2812 186.349 24.95 186.338 25.624V25.665C186.355 26.3972 186.196 27.123 185.875 27.7847C185.578 28.3788 185.149 28.9 184.618 29.3093C184.061 29.7316 183.429 30.0472 182.753 30.2394C182.011 30.4558 181.241 30.5625 180.467 30.556H177.554V35.1644H175.003V20.8348H180.774C181.559 20.8244 182.34 20.9377 183.087 21.1702C183.734 21.374 184.332 21.7048 184.844 22.1425ZM183.515 26.736C183.662 26.4152 183.733 26.0661 183.722 25.7146L183.721 25.6765C183.746 25.312 183.681 24.9469 183.531 24.6123C183.382 24.2776 183.151 23.9835 182.86 23.7549C182.189 23.292 181.377 23.0638 180.556 23.107H177.554V28.2833H180.556C181.392 28.3306 182.217 28.0756 182.873 27.5669C183.149 27.3408 183.368 27.0567 183.515 26.736ZM189.097 20.8348V35.1644H191.652V20.8348H189.097ZM194.514 23.1681V20.8348H206.391V23.1681H201.749V35.1644H199.155V23.1681H194.514ZM214.673 20.7319H212.29L205.849 35.1645H208.481L209.989 31.7035L210.932 29.4731L213.44 23.7398L215.97 29.4735L216.908 31.7039L218.396 35.1649H221.114L214.673 20.7319ZM226.258 20.8364V32.8926H233.953V35.1644H223.708V20.8364H226.258Z" fill="#F7F7F7"/>
<path d="M137.618 27.1716H134.913V20.5884L132.21 28.8287H134.913V35.4119L137.618 27.1716Z" fill="#F7F7F7"/>
</svg>
