<svg width="278" height="56" viewBox="0 0 278 56" fill="none" xmlns="http://www.w3.org/2000/svg">
<path d="M28.5666 35.1792C25.6872 35.1792 24 33.3366 24 31.1901C24 30.1073 24.3668 28.9485 25.7056 28.0177C24.4768 27.1249 24.055 26.0801 24.055 25.0164C24.055 23.0028 25.6872 21.1792 28.5115 21.1792H31.5559C33.6833 21.1792 35.6273 22.281 36.2325 24.7884H34.4169C33.9217 23.4397 32.858 22.8888 31.5559 22.8888H28.5115C26.916 22.8888 25.834 23.7626 25.834 25.0164C25.834 26.4221 26.8977 27.2009 28.5115 27.2009H33.0781V28.8915H28.5666C26.861 28.8915 25.7606 29.7844 25.7606 31.228C25.7606 32.5388 26.916 33.4696 28.5666 33.4696H31.6109C32.9497 33.4696 33.9401 32.9567 34.4903 31.57H36.3059C35.7007 34.0584 33.775 35.1792 31.6109 35.1792H28.5666Z" fill="#F7F7F7"/>
<path d="M63.1368 34.9134V29.0247H54.994V34.9134H53.2334V21.4453H54.994V27.3341H63.1368V21.4453H64.8974V34.9134H63.1368Z" fill="#F7F7F7"/>
<path d="M68.6572 34.9132H78.8357V33.2035H70.4178V29.0244C69.4458 29.0244 68.6572 29.8412 68.6572 30.848V34.9132Z" fill="#F7F7F7"/>
<path d="M78.8357 23.1549V21.4453H68.6572V25.5104C68.6572 26.5172 69.4458 27.3341 70.4178 27.3341V23.1549H78.8357Z" fill="#F7F7F7"/>
<path d="M70.418 29.0246H78.3224V27.334H70.418V29.0246Z" fill="#F7F7F7"/>
<path d="M90.0595 29.3476L94.1492 34.9134H91.9485L87.8587 29.3476H84.3375V34.9134H82.5769V21.4453H89.656C92.0952 21.4453 93.8008 22.87 93.8008 25.3965C93.8008 27.79 92.2602 29.1957 90.0595 29.3476ZM89.6377 23.1549H84.3192V27.657H89.6377C91.0498 27.657 92.0218 26.8592 92.0218 25.4155C92.0218 23.9718 91.0498 23.1549 89.6377 23.1549Z" fill="#F7F7F7"/>
<path d="M97.3037 34.9132H107.482V33.2035H99.0643V29.0244C98.0923 29.0244 97.3037 29.8412 97.3037 30.848V34.9132Z" fill="#F7F7F7"/>
<path d="M107.482 23.1549V21.4453H97.3037V25.5104C97.3037 26.5172 98.0923 27.3341 99.0643 27.3341V23.1549H107.482Z" fill="#F7F7F7"/>
<path d="M99.0642 29.0246H106.969V27.334H99.0642V29.0246Z" fill="#F7F7F7"/>
<path d="M112.104 34.9134H110.288L116.01 21.4453H117.936L123.639 34.9134H121.75L120.43 31.7981H113.424L112.104 34.9134ZM116.927 23.4399L114.121 30.1075H119.733L116.927 23.4399Z" fill="#F7F7F7"/>
<path d="M128.206 33.2038H136.844V34.9134H126.445V21.4453H128.206V33.2038Z" fill="#F7F7F7"/>
<path d="M49.9509 21.4453V23.1549H44.9809V34.9134H43.2203V23.1549H38.2502V21.4453H49.9509Z" fill="#F7F7F7"/>
<path d="M201.164 21.4263H202.924V29.3096C202.924 32.045 204.41 33.4507 206.794 33.4507C209.178 33.4507 210.664 32.045 210.664 29.3096V21.4263H212.424V29.3096C212.424 33.0708 210.187 35.1413 206.794 35.1413C203.383 35.1413 201.145 33.0518 201.145 29.3096V21.4263H201.164Z" fill="#F7F7F7"/>
<path d="M198.137 21.4263V23.1359H193.167V34.8944H191.407V23.1359H186.437V21.4263H198.137Z" fill="#F7F7F7"/>
<path d="M183.411 21.4263V34.8944H181.43L173.508 24.0287V34.8944H171.747V21.4263H173.728L181.65 32.2919V21.4263H183.411Z" fill="#F7F7F7"/>
<path d="M245.087 31.551C245.674 32.7097 247.086 33.4506 248.81 33.4506C250.791 33.4506 252.203 32.5008 252.203 31.2091C252.203 29.9363 251.304 29.2905 249.434 29.0815L247.16 28.8346C244.592 28.5496 243.51 27.1059 243.51 25.2063C243.51 22.8318 245.436 21.1792 248.517 21.1792C251.708 21.1792 253.45 23.1548 254 24.7884H252.075C251.561 23.6677 250.131 22.8888 248.443 22.8888C246.408 22.8888 245.252 23.9336 245.252 25.1304C245.252 26.3651 246.133 27.0109 247.655 27.1819L250.094 27.4479C252.478 27.7138 253.909 29.1385 253.909 31.1141C253.909 33.1276 252.166 35.1792 248.755 35.1792C245.326 35.1792 243.694 33.3176 243.125 31.57H245.087V31.551Z" fill="#F7F7F7"/>
<path d="M230.342 34.8946H240.52V33.185H232.102V29.0059C231.13 29.0059 230.342 29.8227 230.342 30.8295V34.8946Z" fill="#F7F7F7"/>
<path d="M240.52 23.1359V21.4263H230.342V25.4914C230.342 26.4982 231.13 27.315 232.102 27.315V23.1359H240.52Z" fill="#F7F7F7"/>
<path d="M232.102 29.0056H240.007V27.3149H232.102V29.0056Z" fill="#F7F7F7"/>
<path d="M223.3 29.3286L227.39 34.8944H225.189L221.118 29.3286H217.578V34.8944H215.817V21.4263H222.896C225.336 21.4263 227.041 22.851 227.041 25.3774C227.041 27.7709 225.519 29.1766 223.3 29.3286ZM222.896 23.1359H217.578V27.6379H222.896C224.309 27.6379 225.281 26.8401 225.281 25.3964C225.281 23.9527 224.309 23.1359 222.896 23.1359Z" fill="#F7F7F7"/>
<path d="M157.808 34.8946H167.987V33.185H159.569V29.0059C158.597 29.0059 157.808 29.8227 157.808 30.8295V34.8946Z" fill="#F7F7F7"/>
<path d="M167.987 23.1359V21.4263H157.809V25.4914C157.809 26.4982 158.597 27.315 159.569 27.315V23.1359H167.987Z" fill="#F7F7F7"/>
<path d="M159.569 29.0061H167.492V27.3154H159.569V29.0061Z" fill="#F7F7F7"/>
<path d="M154.545 21.4263L150.217 34.2865C150.088 34.6474 149.758 34.8944 149.391 34.8944H148.034L152.674 21.4263H154.545Z" fill="#F7F7F7"/>
<path d="M149.024 27.1818H147.007L146.438 25.4912H149.611L149.024 27.1818Z" fill="#F7F7F7"/>
<path d="M143.376 21.4263L148.015 34.8944H146.658C146.292 34.8944 145.943 34.6474 145.833 34.2865L141.505 21.4263H143.376Z" fill="#F7F7F7"/>
</svg>
