<svg width="176" height="56" viewBox="0 0 176 56" fill="none" xmlns="http://www.w3.org/2000/svg">
<g clip-path="url(#clip0_1195_14090)">
<path d="M39.6248 32.0251C38.4487 31.1668 38.4315 29.4766 39.8445 28.5029C39.2992 27.8611 38.955 27.143 38.9503 26.2768C38.9051 23.074 42.3385 21.9166 44.8871 23.303C45.4198 22.3122 46.286 22.024 47.378 22.1674V23.842C46.9138 23.9401 45.8747 23.9791 46.2174 24.7222C47.6833 27.872 44.5397 30.3396 41.5191 29.4407C41.1297 29.3239 40.963 29.5451 40.8337 29.8208C40.6904 30.1293 40.7651 30.4299 41.0767 30.5717C41.3228 30.6839 41.6141 30.7275 41.8868 30.7399C43.8013 30.8833 46.6069 30.2975 47.3671 32.6311C48.4342 36.2748 44.4618 37.1145 41.6749 36.7048C41.1717 36.6518 40.653 36.5116 40.1934 36.2997C38.2244 35.3915 38.0592 33.0626 39.6248 32.0251ZM42.7482 32.4551L42.7404 32.5205C42.1485 32.5205 41.4584 32.4193 40.963 32.804C40.2433 33.4022 40.4692 34.4802 41.4038 34.7965C42.4491 35.1501 43.5209 35.108 44.5817 34.8136C45.1067 34.6407 45.4946 34.1936 45.4417 33.6219C45.4105 33.1343 45.113 32.8025 44.6705 32.7075C44.0412 32.5704 43.3916 32.5345 42.7498 32.4551H42.7482ZM41.1016 26.1865C41.1016 27.252 41.7575 27.939 42.7747 27.9375C45.0304 27.9546 45.0039 24.395 42.7638 24.4246C41.7559 24.4262 41.1016 25.121 41.1016 26.188V26.1865Z" fill="#F7F7F7"/>
<path d="M51.098 32.365H48.9326V22.9606C49.4732 22.9606 50.0013 22.9481 50.5294 22.973C50.6166 22.9777 50.7428 23.1382 50.7708 23.2472C50.8394 23.526 50.8627 23.8174 50.9188 24.2037C51.6245 23.2176 52.4984 22.7222 53.6574 22.7409C54.8009 22.7596 55.6826 23.1958 56.259 24.2099C56.315 24.171 56.3602 24.1538 56.3789 24.1227C57.2965 22.6599 59.1658 22.4948 60.4027 22.9559C61.5711 23.3905 62.0805 24.3828 62.1179 25.5263C62.1895 27.7929 62.1397 30.0641 62.1397 32.3635H59.9338C59.9338 30.4287 59.9338 28.525 59.9338 26.5949C59.9385 25.8892 59.8746 24.9732 59.0459 24.7598C57.485 24.3049 56.6157 25.8145 56.6422 27.1884C56.6344 28.916 56.6406 30.6218 56.6391 32.3526H54.4239C54.4239 30.396 54.4254 28.458 54.4208 26.5046C54.3989 25.8238 54.3211 24.9545 53.5266 24.7583C51.8987 24.2987 51.0528 25.9033 51.1011 27.3131C51.0948 29.0002 51.1011 30.6748 51.0995 32.365H51.098Z" fill="#F7F7F7"/>
<path d="M117.058 22.7021H119.113V23.7459C121.825 21.6397 125.685 22.8533 126.539 26.4175C127.171 29.0907 125.632 31.7312 123.104 32.3636C121.638 32.7422 120.312 32.3278 119.124 31.4258V35.769H117.057V22.7021H117.058ZM119.618 27.6482C119.742 28.1358 119.808 28.6545 120.006 29.1172C120.387 30.0145 121.108 30.4756 122.101 30.4584C125.283 30.4616 125.142 24.6307 122.026 24.7351C120.236 24.8176 119.886 26.1324 119.618 27.6482Z" fill="#F7F7F7"/>
<path d="M105.937 24.4667C105.258 24.4667 104.608 24.4839 103.96 24.4527C103.834 24.4465 103.68 24.2782 103.604 24.1458C102.613 22.2718 100.307 21.2063 98.4084 22.4509C95.6916 24.1599 95.6418 28.4719 98.3103 30.254C99.9367 31.3382 102.019 30.8802 103.258 29.1651C103.275 29.1417 103.295 29.1168 103.305 29.0903C103.565 28.2989 104.16 28.1696 104.895 28.2615C105.229 28.3036 105.573 28.2693 105.956 28.2693C105.75 29.3738 105.285 30.3054 104.551 31.1014C102.033 33.8307 97.8772 33.6188 95.5187 30.6637C93.4842 28.1136 93.4687 23.3155 96.7899 20.8511C100.141 18.3648 105.243 20.3339 105.937 24.4652V24.4667Z" fill="#F7F7F7"/>
<path d="M24 19.5752H32.7642V21.6175H26.3087V25.1007H32.0741V27.1835H26.2837V32.3648H24V19.5752Z" fill="#F7F7F7"/>
<path d="M148.116 32.5801H146.016C146.001 32.3464 145.985 32.1174 145.967 31.8588C145.907 31.876 145.848 31.876 145.812 31.9056C144.361 33.1004 142.765 32.8776 141.162 32.3371C139.84 31.8666 139.664 29.9131 140.02 28.7401C140.357 27.6154 141.31 26.9066 142.63 26.8443C143.756 26.796 144.853 26.8162 145.987 26.8084C145.996 26.0202 146.16 24.8908 145.132 24.788C144.537 24.7334 143.924 24.7163 143.332 24.788C142.67 24.869 142.423 25.3721 142.413 26.0202H140.41C140.295 23.4778 142.681 22.5089 144.867 22.8127C146.543 23.0167 148.087 23.8065 148.102 25.6806C148.149 27.9628 148.116 30.2449 148.116 32.5801ZM145.967 28.6186C145.286 28.6186 144.625 28.6093 143.965 28.6217C143.078 28.6404 142.03 28.5765 142.055 29.7916C142.064 30.3618 142.31 30.7201 142.84 30.8073C144.315 31.0534 146.348 30.8727 145.967 28.6186Z" fill="#F7F7F7"/>
<path d="M115.434 32.4832H113.323C113.303 32.2355 113.284 32.0065 113.261 31.7199C112.678 32.181 112.111 32.6094 111.348 32.5969C110.626 32.6001 109.896 32.6063 109.188 32.491C107.179 32.1779 107.011 30.3397 107.335 28.6635C107.601 27.5278 108.59 26.8253 109.922 26.7536C111.053 26.6975 112.17 26.7209 113.306 26.7131C113.31 25.9062 113.469 24.8282 112.446 24.7036C111.869 24.621 111.27 24.6179 110.69 24.6771C110.139 24.7331 109.79 25.0899 109.741 25.6772C109.734 25.7629 109.701 25.8454 109.678 25.9389H107.769C107.575 24.9185 108.118 23.7315 109.126 23.2345C110.748 22.4354 112.412 22.4385 114.024 23.2735C114.96 23.758 115.346 24.6272 115.415 25.6429C115.466 27.9235 115.42 30.1761 115.435 32.4817L115.434 32.4832ZM113.267 28.5311C112.218 28.5529 111.192 28.4625 110.165 28.609C109.607 28.7211 109.333 29.1262 109.349 29.7041C109.364 30.2945 109.64 30.6388 110.235 30.7322C111.678 30.9753 113.675 30.6964 113.268 28.5311H113.267Z" fill="#F7F7F7"/>
<path d="M72.4243 28.3769H66.1651C65.8878 30.5734 68.7401 31.8554 69.8991 29.8692C70.0331 29.6885 70.1125 29.5639 70.3633 29.5733C70.9522 29.5935 71.5426 29.5795 72.1361 29.5795C71.4242 34.0488 64.0013 33.6469 63.8486 28.0793C63.5355 24.6366 66.1869 21.7936 69.6857 23.0024C72.1688 23.8312 72.376 26.0838 72.4243 28.3784V28.3769ZM66.1214 26.724H70.125C70.3384 23.7377 65.9719 23.8701 66.1214 26.724Z" fill="#F7F7F7"/>
<path d="M82.1092 32.3632H79.936C79.8815 30.4814 79.9298 28.5996 79.9142 26.7177C79.922 26.0074 79.8348 25.1833 79.0403 24.9076C77.5199 24.3639 76.4528 25.8298 76.4574 27.1975C76.4325 28.9236 76.4076 30.6278 76.4014 32.3554H74.2126V22.9603C74.7657 22.9603 75.3218 22.9494 75.8764 22.9728C75.9512 22.9759 76.0602 23.1348 76.0836 23.236C76.1443 23.504 76.1661 23.7797 76.2175 24.1598C76.7347 23.3762 77.417 22.993 78.2349 22.8092C80.2772 22.3528 82.0811 23.6785 82.1278 25.7581C82.1497 27.9577 82.1933 30.1683 82.1092 32.3632Z" fill="#F7F7F7"/>
<path d="M89.7704 30.4675C89.7704 30.966 89.7829 31.4957 89.7595 32.0238C89.7548 32.1266 89.6131 32.3042 89.5243 32.3104C88.7189 32.3712 87.8995 32.5083 87.1081 32.4179C85.8743 32.2761 85.1094 31.382 85.0689 30.1279C85.016 28.3551 85.044 26.6089 85.0362 24.8314H83.3367V22.9667H85.0362C85.0362 22.2657 85.0503 21.6052 85.03 20.9478C85.0207 20.6596 85.1126 20.5287 85.3992 20.4696C86.0021 20.3434 86.5987 20.1829 87.2514 20.0225V22.9418H89.571V24.794H87.2639C87.2639 26.3471 87.2592 27.8489 87.2654 29.3958C87.2686 30.1669 87.5692 30.4597 88.3419 30.466C88.7983 30.4706 89.2548 30.466 89.7673 30.466L89.7704 30.4675Z" fill="#F7F7F7"/>
<path d="M133.727 24.9482H132.025V23.1006C132.332 23.1006 132.636 23.1006 132.941 23.1006C133.465 23.1006 133.727 22.8327 133.727 22.2968C133.727 21.7952 133.731 21.2951 133.736 20.7935C133.736 20.7655 133.755 20.739 133.778 20.6736L135.943 20.1377V23.0851H138.264V24.9186H135.984C135.906 26.4375 135.97 27.9361 135.953 29.4534C135.956 30.3133 136.233 30.5765 137.105 30.5781C137.534 30.5781 137.962 30.5781 138.42 30.5781V32.3742C136.453 32.946 133.825 32.7434 133.744 30.1544C133.705 28.4018 133.731 26.7101 133.725 24.9482H133.727Z" fill="#F7F7F7"/>
<path d="M149.945 20.4023H151.998V32.4644H149.945V20.4023Z" fill="#F7F7F7"/>
<path d="M130.39 32.3585H128.17V22.9883H130.39V32.3585Z" fill="#F7F7F7"/>
<path d="M34.5603 22.9805H36.7693V32.3662H34.5603V22.9805Z" fill="#F7F7F7"/>
<path d="M35.6714 19.5615C36.4238 19.5647 37.0002 20.1364 36.9955 20.8748C36.9628 22.5619 34.3488 22.5697 34.3457 20.8623C34.3473 20.1161 34.9159 19.5584 35.6714 19.5615Z" fill="#F7F7F7"/>
<path d="M127.966 20.8511C127.972 20.1049 128.543 19.5519 129.3 19.5582C131.063 19.6158 131.048 22.1581 129.247 22.1426C128.493 22.1254 127.96 21.588 127.965 20.8511H127.966Z" fill="#F7F7F7"/>
</g>
<defs>
<clipPath id="clip0_1195_14090">
<rect width="128" height="17.2418" fill="white" transform="translate(24 19.3789)"/>
</clipPath>
</defs>
</svg>
