<svg width="174" height="56" viewBox="0 0 174 56" fill="none" xmlns="http://www.w3.org/2000/svg">
<path fill-rule="evenodd" clip-rule="evenodd" d="M39.0593 29.7017C38.3129 32.3401 35.8739 34.2745 32.9801 34.2745C29.4928 34.2745 26.6658 31.4654 26.6658 28.0002C26.6658 24.535 29.4928 21.7259 32.9801 21.7259C34.9372 21.7259 36.6863 22.6107 37.8445 23.9998L39.1637 22.915C37.6915 21.1492 35.4679 20.0244 32.9801 20.0244C28.5471 20.0244 24.9535 23.5953 24.9535 28.0002C24.9535 32.405 28.5471 35.9759 32.9801 35.9759C35.3629 35.9759 37.5031 34.9442 38.9731 33.3058V35.657H41.0066V31.8286V31.5095L40.4408 30.9473L39.1872 29.7017H40.8235H41.0066V28.0002H39.2942H32.873V29.7017H39.0593ZM49.9448 20.3434H43.1491V35.657H45.1633V31.6044L43.254 29.7017H48.0699L53.4744 35.657H55.9517L50.3224 29.5537H50.5872C53.487 29.4238 55.5684 27.5988 55.5684 24.9922C55.5684 22.1685 53.3329 20.3434 49.9448 20.3434ZM53.5541 24.9922C53.5541 26.796 52.1803 28.0002 49.9448 28.0002H45.1633V22.0811H49.9448C52.1825 22.0811 53.5541 23.1885 53.5541 24.9922ZM62.1937 20.3434H64.9379L69.4536 32.2242H59.5623L58.2347 35.657H56.3105L62.1937 20.3434ZM69.4549 32.2276L69.4536 32.2242H69.4588L69.4549 32.2276ZM69.4549 32.2276L70.7583 35.657H68.834L68.0075 33.5189L69.4549 32.2276ZM66.9294 30.5972L63.6537 22.0811H63.4541L60.1567 30.5972H66.9272H66.9294ZM116.95 20.3434H114.206L108.322 35.657H110.246L111.575 32.2242H121.466L121.467 32.2276L120.017 33.5146L120.846 35.657H122.77L121.467 32.2276L121.471 32.2242H121.466L116.95 20.3434ZM115.666 22.0811L118.941 30.5972H118.939H112.169L115.466 22.0811H115.666ZM70.0594 20.3436L67.9757 20.3434L72.3899 28.0004H74.4699L70.0594 20.3436ZM81.2463 20.3434L79.1626 20.3436L73.5935 30.0176V35.6564L75.6284 35.6571V30.0928L81.2463 20.3434ZM136.898 27.1835V33.9929H145.78V35.657H134.867V29.8732V28.5773V20.3434H145.887V22.0449H136.898V27.1494H138.77H143.16V28.8509H138.432L136.898 27.1835ZM148.773 22.364C149.464 22.364 149.953 21.8787 149.953 21.1913C149.953 20.5068 149.464 20.0244 148.773 20.0244C148.088 20.0244 147.599 20.5183 147.599 21.1913C147.599 21.8787 148.088 22.364 148.773 22.364ZM148.776 22.2022C148.191 22.2022 147.776 21.7834 147.776 21.1913C147.776 20.6136 148.191 20.189 148.776 20.189C149.362 20.189 149.776 20.6136 149.776 21.1913C149.776 21.7834 149.362 22.2022 148.776 22.2022ZM148.295 21.8961H148.479V21.3242H148.699L149.13 21.8961H149.365L148.908 21.3184H148.917C149.178 21.3184 149.377 21.1451 149.377 20.9025C149.377 20.6483 149.178 20.4634 148.917 20.4634H148.295V21.8961ZM148.479 21.1682V20.6252H148.891C149.059 20.6252 149.193 20.7349 149.193 20.8996C149.193 21.0642 149.065 21.1682 148.891 21.1682H148.479ZM83.4649 24.3556C83.4649 26.3193 85.4139 26.6797 87.5706 27.0173H87.5725C90.2267 27.4606 93.2328 28.053 93.2328 31.4335C93.2328 34.2215 91.139 35.9759 87.552 35.9759C83.725 35.9759 81.3655 33.9357 81.3533 30.6339V30.6111V30.6092V29.7017H83.2169V30.6092C83.2373 32.9124 84.8348 34.2857 87.5706 34.2857C89.9543 34.2857 91.3425 33.2293 91.3425 31.5599C91.3425 29.5112 89.31 29.1715 87.113 28.8132C84.4791 28.3906 81.5768 27.6946 81.5768 24.4613C81.5768 21.7789 83.5259 20.0244 87.113 20.0244C90.7001 20.0244 92.8772 22.0868 92.8972 25.2353H91.072C91.072 23.1225 89.6212 21.7146 87.113 21.7146C84.7494 21.7146 83.4649 22.7503 83.4649 24.3556ZM106.55 31.9332C105.57 33.3457 103.87 34.2839 102.036 34.2839C98.6671 34.2839 96.2308 31.6432 96.2308 27.9878C96.2308 24.3323 98.6465 21.7124 102.036 21.7124C103.859 21.7124 105.528 22.6298 106.496 24.0423C106.575 23.9722 107.033 23.5342 107.389 23.1942L107.389 23.1937L107.391 23.1921C107.612 22.9806 107.793 22.8074 107.818 22.7852C106.473 21.0993 104.351 20.0244 102.036 20.0244C97.5457 20.0244 94.3029 23.363 94.3029 27.9898C94.2822 32.6167 97.5457 35.9759 102.036 35.9759C104.392 35.9759 106.558 34.899 107.894 33.2215C107.853 33.1785 107.478 32.8207 107.134 32.4924L107.133 32.4918C106.847 32.2186 106.582 31.9661 106.55 31.9332ZM125.852 20.3434H123.947V35.657H133.694V33.9555H124.161L125.852 32.3071V20.3434Z" fill="#F7F7F7"/>
</svg>
