<svg width="195" height="56" viewBox="0 0 195 56" fill="none" xmlns="http://www.w3.org/2000/svg">
<g clip-path="url(#clip0_1195_14076)">
<path d="M61.1655 34.3547H62.8865C62.8983 34.3547 62.9096 34.3499 62.9179 34.3416C62.9262 34.3332 62.9309 34.3218 62.9309 34.31V24.268L69.5701 34.3355C69.5749 34.3411 69.5807 34.3457 69.5873 34.349C69.5938 34.3523 69.6009 34.3542 69.6083 34.3547H71.399C71.4108 34.3547 71.4221 34.3499 71.4305 34.3416C71.4388 34.3332 71.4435 34.3218 71.4435 34.31V21.8093C71.4435 21.7974 71.4388 21.7861 71.4305 21.7777C71.4221 21.7693 71.4108 21.7646 71.399 21.7646H69.6939C69.6822 21.7646 69.6709 21.7693 69.6625 21.7777C69.6542 21.7861 69.6495 21.7974 69.6495 21.8093V31.2486L63.5025 21.787C63.4986 21.7802 63.493 21.7746 63.4863 21.7707C63.4797 21.7668 63.4721 21.7647 63.4643 21.7646H61.1655C61.1538 21.7646 61.1424 21.7693 61.1341 21.7777C61.1258 21.7861 61.1211 21.7974 61.1211 21.8093V34.31C61.1211 34.3218 61.1258 34.3332 61.1341 34.3416C61.1424 34.3499 61.1538 34.3547 61.1655 34.3547Z" fill="#F7F7F7"/>
<path d="M81.6956 29.2014L83.7532 23.7802L85.8456 29.2014H81.6956ZM77.8569 34.3867H79.6985C79.7076 34.3871 79.7166 34.3846 79.724 34.3794C79.7315 34.3742 79.737 34.3667 79.7398 34.358L81.0448 30.898H86.4965L87.8364 34.358C87.8392 34.3667 87.8447 34.3742 87.8522 34.3794C87.8596 34.3846 87.8686 34.3871 87.8777 34.3867H89.7383C89.7458 34.387 89.7531 34.3853 89.7598 34.382C89.7665 34.3787 89.7722 34.3737 89.7764 34.3676C89.7795 34.3611 89.7811 34.354 89.7811 34.3468C89.7811 34.3397 89.7795 34.3326 89.7764 34.3261L84.8296 21.8286C84.8267 21.8199 84.8212 21.8124 84.8138 21.8072C84.8063 21.802 84.7973 21.7995 84.7883 21.7999H82.807C82.7975 21.7993 82.788 21.8017 82.78 21.8069C82.772 21.8121 82.7659 21.8197 82.7625 21.8286L77.8157 34.3261C77.8117 34.3323 77.8096 34.3395 77.8096 34.3468C77.8096 34.3542 77.8117 34.3614 77.8157 34.3676C77.8199 34.3737 77.8256 34.3787 77.8323 34.382C77.8389 34.3853 77.8463 34.387 77.8537 34.3867" fill="#F7F7F7"/>
<path d="M99.9281 34.6196C102.405 34.6196 104.275 33.0251 104.275 30.8726C104.275 29.074 103.084 27.7793 101.008 27.3201L99.147 26.9151C98.1564 26.6983 97.5849 26.0541 97.5849 25.142C97.5849 23.9813 98.6009 23.1075 99.944 23.1075C100.785 23.1075 102.278 23.5476 102.535 25.2026C102.535 25.2091 102.537 25.2153 102.541 25.2209C102.544 25.2264 102.549 25.2311 102.554 25.2345C102.566 25.2392 102.58 25.2392 102.592 25.2345L104.138 24.6892C104.148 24.6856 104.157 24.6784 104.162 24.6691C104.167 24.6597 104.169 24.6487 104.167 24.6382C104.015 23.9015 103.259 21.4971 99.9091 21.4971C97.6611 21.4971 95.7591 23.2223 95.7591 25.2632C95.7591 27.0363 96.8768 28.2991 98.8295 28.7264L100.604 29.1155C101.747 29.3579 102.43 30.0721 102.43 31.0098C102.43 31.9473 101.767 32.9582 99.9091 32.9582C97.9119 32.9582 97.08 31.5359 96.9721 30.3177C96.9716 30.3113 96.9696 30.305 96.9663 30.2996C96.963 30.294 96.9584 30.2893 96.953 30.2858C96.9466 30.2827 96.9395 30.2811 96.9324 30.2811C96.9253 30.2811 96.9182 30.2827 96.9117 30.2858L95.2639 30.8152C95.2534 30.8175 95.2443 30.8238 95.2384 30.8327C95.2325 30.8416 95.2302 30.8525 95.2321 30.8631C95.4544 32.5978 96.8197 34.6228 99.9281 34.6228" fill="#F7F7F7"/>
<path d="M116.784 34.6196C119.489 34.6196 121.61 33.0666 122.321 30.5665C122.324 30.5555 122.323 30.5437 122.318 30.5336C122.312 30.5235 122.303 30.5159 122.293 30.5123L120.766 29.9478C120.76 29.9454 120.754 29.9442 120.748 29.9442C120.742 29.9442 120.736 29.9454 120.731 29.9478C120.725 29.9498 120.72 29.9532 120.716 29.9577C120.712 29.9621 120.71 29.9675 120.708 29.9733C120.146 31.858 118.718 32.939 116.784 32.939C114.676 32.939 112.405 31.4084 112.405 28.0472C112.405 24.686 114.676 23.1745 116.784 23.1745C118.784 23.1745 120.146 24.2077 120.619 26.086C120.623 26.0981 120.631 26.1084 120.642 26.1147C120.647 26.117 120.653 26.1183 120.659 26.1183C120.665 26.1183 120.671 26.117 120.677 26.1147L122.264 25.5534C122.275 25.5498 122.284 25.5421 122.289 25.532C122.294 25.5219 122.296 25.5102 122.293 25.4992C121.639 22.9927 119.575 21.4971 116.774 21.4971C115.185 21.4977 113.655 22.1053 112.494 23.1968C111.853 23.826 111.35 24.582 111.015 25.417C110.681 26.2519 110.523 27.1476 110.551 28.0472C110.551 30.0243 111.208 31.705 112.456 32.9072C113.62 34.0219 115.172 34.6353 116.781 34.6165" fill="#F7F7F7"/>
<path d="M129.386 34.3549H136.95C136.961 34.3549 136.973 34.3501 136.981 34.3418C136.99 34.3334 136.994 34.3221 136.994 34.3102V32.7158C136.994 32.7039 136.99 32.6925 136.981 32.6841C136.973 32.6758 136.961 32.6711 136.95 32.6711H131.149V28.9241H136.407C136.419 28.9241 136.43 28.9194 136.438 28.911C136.446 28.9026 136.451 28.8913 136.451 28.8794V27.2562C136.451 27.2444 136.446 27.233 136.438 27.2247C136.43 27.2163 136.419 27.2116 136.407 27.2116H131.149V23.4582H136.95C136.961 23.4582 136.973 23.4535 136.981 23.4451C136.99 23.4367 136.994 23.4254 136.994 23.4135V21.8191C136.994 21.8072 136.99 21.7959 136.981 21.7875C136.973 21.7791 136.961 21.7744 136.95 21.7744H129.386C129.374 21.7744 129.363 21.779 129.354 21.7873C129.345 21.7956 129.34 21.8069 129.339 21.8191V34.3198C129.34 34.3319 129.345 34.3432 129.354 34.3515C129.363 34.3599 129.374 34.3645 129.386 34.3644" fill="#F7F7F7"/>
<path d="M144.713 34.3547H146.431C146.442 34.3547 146.454 34.3499 146.462 34.3416C146.471 34.3332 146.475 34.3218 146.475 34.31V24.268L153.118 34.3355C153.121 34.3411 153.127 34.3456 153.133 34.3489C153.139 34.3522 153.146 34.3542 153.152 34.3547H154.943C154.955 34.3547 154.966 34.3499 154.974 34.3416C154.983 34.3332 154.988 34.3218 154.988 34.31V21.8093C154.988 21.7974 154.983 21.7861 154.974 21.7777C154.966 21.7693 154.955 21.7646 154.943 21.7646H153.225C153.213 21.7646 153.201 21.7692 153.193 21.7775C153.184 21.7858 153.178 21.7972 153.178 21.8093V31.2486L147.047 21.787C147.043 21.7807 147.038 21.7753 147.032 21.7715C147.026 21.7676 147.019 21.7652 147.012 21.7646H144.713C144.701 21.7646 144.689 21.7692 144.681 21.7775C144.672 21.7858 144.666 21.7972 144.665 21.8093V34.31C144.666 34.3221 144.672 34.3335 144.681 34.3418C144.689 34.3501 144.701 34.3547 144.713 34.3547Z" fill="#F7F7F7"/>
<path d="M170.981 21.7646H160.935C160.923 21.7646 160.912 21.7693 160.903 21.7777C160.895 21.7861 160.891 21.7974 160.891 21.8093V23.4038C160.891 23.4159 160.895 23.4276 160.903 23.4365C160.911 23.4454 160.923 23.4508 160.935 23.4516H165.062V34.2941C165.062 34.3059 165.068 34.3172 165.076 34.3256C165.084 34.334 165.095 34.3387 165.107 34.3387H166.828C166.84 34.3387 166.851 34.334 166.86 34.3256C166.868 34.3172 166.872 34.3059 166.872 34.2941V23.4516H171" fill="#F7F7F7"/>
</g>
<g clip-path="url(#clip1_1195_14076)">
<path d="M45.0211 27.1426H44.4756C42.9838 27.1483 41.5193 27.5439 40.2259 28.2906C38.9326 29.0372 37.8551 30.109 37.0993 31.4008C37.0888 31.4189 37.0739 31.434 37.0559 31.4446C37.0379 31.4552 37.0175 31.461 36.9967 31.4613C36.9758 31.461 36.9554 31.4552 36.9374 31.4446C36.9195 31.434 36.9045 31.4189 36.8941 31.4008C36.1392 30.1115 35.0638 29.0413 33.7733 28.2948C32.4828 27.5484 31.0214 27.1513 29.5322 27.1426H24V30.4153H29.5346C31.0239 30.4242 32.4854 30.8214 33.776 31.568C35.0664 32.3147 36.1417 33.3852 36.8965 34.6746C36.9069 34.6928 36.9218 34.7079 36.9398 34.7185C36.9578 34.7291 36.9783 34.7349 36.999 34.7352C37.0199 34.7349 37.0403 34.7291 37.0583 34.7185C37.0763 34.7079 37.0912 34.6928 37.1016 34.6746C37.8573 33.3827 38.9348 32.3106 40.2281 31.5638C41.5215 30.817 42.9861 30.4211 44.478 30.4153H49.9849V27.1426H45.0211Z" fill="#F7F7F7"/>
<path d="M36.9583 26.2602C40.105 26.2602 42.6559 23.6982 42.6559 20.5378C42.6559 17.3774 40.105 14.8154 36.9583 14.8154C33.8116 14.8154 31.2607 17.3774 31.2607 20.5378C31.2607 23.6982 33.8116 26.2602 36.9583 26.2602Z" fill="#F7F7F7"/>
<path d="M44.7217 33.6816H44.4804C42.9888 33.6871 41.5242 34.0826 40.2309 34.829C38.9375 35.5753 37.86 36.647 37.1041 37.9386C37.0938 37.957 37.0789 37.9723 37.061 37.9832C37.0429 37.994 37.0224 38 37.0015 38.0004C36.9805 38 36.96 37.994 36.942 37.9832C36.9241 37.9723 36.9092 37.957 36.8989 37.9386C36.1439 36.6495 35.0685 35.5794 33.778 34.8331C32.4875 34.0869 31.0262 33.6902 29.5371 33.6816H24V36.9543H29.5346C31.0239 36.9632 32.4854 37.3604 33.776 38.1071C35.0664 38.8537 36.1417 39.9242 36.8965 41.2137C36.9069 41.2319 36.9218 41.2469 36.9398 41.2576C36.9578 41.2682 36.9783 41.274 36.999 41.2743C37.0199 41.274 37.0403 41.2682 37.0583 41.2576C37.0763 41.2469 37.0912 41.2319 37.1016 41.2137C37.8571 39.9216 38.9345 38.8492 40.2278 38.1024C41.5213 37.3555 42.986 36.9599 44.478 36.9543H49.9849V33.6816H44.7217Z" fill="#F7F7F7"/>
</g>
<defs>
<clipPath id="clip0_1195_14076">
<rect width="109.879" height="13.3636" fill="white" transform="translate(61.1211 21.3179)"/>
</clipPath>
<clipPath id="clip1_1195_14076">
<rect width="25.9849" height="26.7273" fill="white" transform="translate(24 14.6362)"/>
</clipPath>
</defs>
</svg>
