<svg width="147" height="56" viewBox="0 0 147 56" fill="none" xmlns="http://www.w3.org/2000/svg">
<path d="M44.0696 23.7004L32.154 16.8208L30.6646 17.6814V19.4009L29.1751 18.5403L27.6857 19.4009V21.1203L26.1962 20.2598L24.7068 21.1203V34.8796L26.1962 35.7401L27.6857 34.8796V36.599L29.1751 37.4596L30.6646 36.599V38.3185L32.154 39.1791L44.0696 32.2995V30.58L42.5802 29.7194L44.0696 28.8589V27.1394L42.5802 26.2788L44.0696 25.4182V23.7004ZM27.6857 33.1601L26.1962 34.0206V21.9809L27.6857 22.8415V33.1601ZM32.154 34.019V32.2995L38.1118 28.8605L39.6013 29.7211L32.154 34.019ZM36.6224 28L32.154 30.58V25.4199L36.6224 28ZM38.1118 27.1394L32.154 23.7004V21.9809L39.6013 26.2805L38.1118 27.1394ZM29.1751 20.2598L30.6646 21.1203V22.8398L29.1751 21.9793V20.2598ZM29.1751 23.7004L30.6646 24.561V31.4406L29.1751 32.3012V23.7004ZM29.1751 34.019L30.6646 33.1584V34.8779L29.1751 35.7385V34.019ZM42.5802 31.4389L32.154 37.458V35.7385L41.0907 30.5784L42.5802 31.4389ZM42.5802 28L41.0907 28.8605L39.6013 28L41.0907 27.1394L42.5802 28ZM41.0907 25.4199L32.154 20.2598V18.5403L42.5802 24.5593L41.0907 25.4199Z" fill="#F7F7F7"/>
<path d="M52.979 32.3437H51.2595V20.3057H56.5057C58.9136 20.3057 60.375 21.767 60.375 23.9168C60.375 26.0665 58.9136 27.5278 56.5057 27.5278H52.9807V32.3437H52.979ZM58.6555 23.9168C58.6555 22.7136 57.967 21.767 56.5057 21.767H52.9807V26.0665H56.5057C57.967 26.0665 58.6555 25.1199 58.6555 23.9168ZM61.0121 25.7223C61.1842 24.2941 62.3874 23.1422 64.8135 23.1422C66.293 23.1422 67.5475 23.5378 68.1846 24.6036C68.4594 25.0686 68.6149 25.6875 68.6149 26.4091V32.3421H66.9633V31.2233C66.447 31.9118 65.4159 32.5986 63.953 32.5986C62.1292 32.5986 60.5818 31.652 60.5818 29.6743C60.5818 28.1269 61.6311 27.0264 63.8669 26.8361L66.9633 26.5779V26.4058C66.9633 25.2026 66.4469 24.4281 64.8135 24.4281C63.5061 24.4281 62.8011 24.9445 62.715 25.7173H61.0121V25.7223ZM66.9616 28.4745V27.786L64.0373 28.0442C62.8325 28.1468 62.2318 28.7326 62.2318 29.6776C62.2318 30.8824 63.0924 31.311 64.1234 31.311C65.6724 31.3127 66.9616 30.28 66.9616 28.4745ZM73.7039 24.7773C72.5007 24.7773 71.7262 25.4658 71.7262 27.0132V32.3454H70.0746V23.4004H71.7262V24.4331C72.1565 23.6586 72.8433 23.2283 74.1342 23.2283H74.5992V24.7757H73.7039V24.7773ZM75.0973 25.7223C75.2695 24.2941 76.4726 23.1422 78.8988 23.1422C80.3783 23.1422 81.6327 23.5378 82.2699 24.6036C82.5446 25.0686 82.7002 25.6875 82.7002 26.4091V32.3421H81.0485V31.2233C80.5322 31.9118 79.5012 32.5986 78.0382 32.5986C76.2144 32.5986 74.6671 31.652 74.6671 29.6743C74.6671 28.1269 75.7163 27.0264 77.9521 26.8361L81.0485 26.5779V26.4058C81.0485 25.2026 80.5322 24.4281 78.8988 24.4281C77.5914 24.4281 76.8863 24.9445 76.8003 25.7173H75.0973V25.7223ZM81.0485 28.4745V27.786L78.1242 28.0442C76.9194 28.1468 76.3187 28.7326 76.3187 29.6776C76.3187 30.8824 77.1793 31.311 78.2103 31.311C79.7577 31.3127 81.0485 30.28 81.0485 28.4745ZM90.8177 31.1406C90.3013 32.0012 89.2703 32.6019 87.8934 32.6019C85.2107 32.6019 83.7494 30.4521 83.7494 27.8721C83.7494 25.292 85.2107 23.1422 87.8934 23.1422C89.2686 23.1422 90.3013 23.7446 90.8177 24.6036V20.3057H92.4676V32.3454H90.816V31.1406H90.8177ZM88.1516 24.5192C86.346 24.5192 85.3994 25.9805 85.3994 27.8721C85.3994 29.7637 86.346 31.2266 88.1516 31.2266C89.9571 31.2266 90.9037 29.6793 90.9037 27.8721C90.9037 26.0665 89.9571 24.5192 88.1516 24.5192ZM98.8326 30.9685V32.3437H93.5351V30.9685H95.3588V24.7773H93.5351V23.4021H97.0088V30.9701H98.8326V30.9685ZM97.0088 22.0252H95.3572V20.3057H97.0088V22.0252ZM105.78 30.9685C105.436 31.4848 104.491 32.2577 102.942 32.2577C100.431 32.2577 98.7978 30.194 98.7978 27.7C98.7978 25.206 100.431 23.1422 102.942 23.1422C104.489 23.1422 105.436 23.9168 105.78 24.4314V23.3988H107.432V31.3954C107.432 34.2337 105.798 35.695 103.2 35.695C101.204 35.695 99.7428 34.6623 99.3986 33.1149H101.118C101.274 33.7339 101.909 34.4041 103.198 34.4041C105.09 34.4041 105.778 33.201 105.778 31.3938V30.9685H105.78ZM103.116 24.5192C101.482 24.5192 100.449 25.9805 100.449 27.7016C100.449 29.4211 101.48 30.8841 103.116 30.8841C104.835 30.8841 105.868 29.4228 105.868 27.7016C105.866 25.9805 104.835 24.5192 103.116 24.5192ZM110.596 24.4331C111.112 23.4865 112.143 23.1439 113.176 23.1439C114.379 23.1439 115.498 23.6602 116.014 24.6913C116.531 23.7446 117.476 23.1439 119.025 23.1439C120.916 23.1439 122.293 24.2626 122.293 26.4968V32.3437H120.641V26.755C120.641 25.2937 120.039 24.5192 118.68 24.5192C117.562 24.5192 116.444 25.2076 116.444 27.0132V32.3454H114.793V26.7566C114.793 25.2953 114.19 24.5208 112.832 24.5208C111.713 24.5208 110.596 25.2093 110.596 27.0148V32.347H108.944V23.4004H110.596V24.4331Z" fill="#F7F7F7"/>
</svg>
