<svg width="169" height="56" viewBox="0 0 169 56" fill="none" xmlns="http://www.w3.org/2000/svg">
<g clip-path="url(#clip0_1195_13996)">
<path d="M75.5937 28.4997C75.5937 27.8997 75.5937 27.2997 75.5937 26.7997C75.5937 26.3997 75.4937 26.1997 75.0937 26.2997C74.8937 26.2997 74.6937 26.2997 74.4937 26.2997C73.6937 26.2997 73.4937 25.9997 73.4937 25.2997C73.4937 25.1997 73.4937 24.5997 73.4937 24.3997C73.4937 22.7997 73.6937 23.0997 75.0937 23.0997C75.4937 23.0997 75.5937 22.8997 75.5937 22.5997C75.5937 21.6997 75.5937 20.8997 75.5937 19.9997C75.5937 19.4997 75.7937 19.1997 76.3937 19.1997C77.0937 19.1997 77.7937 19.1997 78.4937 19.1997C78.9937 19.2997 79.2937 19.4997 79.2937 20.0997C79.2937 20.8997 79.2937 21.6997 79.2937 22.3997C79.2937 22.9997 79.4937 23.0997 79.9937 23.0997C80.4937 23.0997 80.9936 23.0997 81.3937 23.0997C81.8937 23.0997 82.0937 23.2997 82.0937 23.7997C82.0937 24.3997 82.0937 24.9997 82.0937 25.5997C82.0937 25.9997 81.9937 26.3997 81.5937 26.3997C81.4937 26.3997 81.3937 26.3997 81.3937 26.3997C80.6937 26.3997 79.4937 26.3997 79.4937 26.3997L79.2937 29.7997C79.2937 30.4997 79.3937 30.3997 81.2937 30.3997C82.2937 30.3997 82.1937 30.6997 82.2937 31.3997C82.2937 31.7997 82.2937 32.1997 82.2937 32.6997C82.2937 33.3997 81.9937 33.6997 81.2937 33.6997C80.4937 33.6997 79.6937 33.6997 78.9937 33.5997C77.0937 33.3997 75.6937 31.9997 75.5937 30.0997C75.5937 29.5997 75.5937 28.9997 75.5937 28.4997Z" fill="#F7F7F7"/>
<path d="M90.2936 29.6999C90.6936 31.3999 91.8936 32.3999 93.5936 32.5999C93.8936 32.5999 94.2936 32.5999 94.6936 32.5999C96.5936 32.4999 97.7936 31.6999 98.2936 29.7999C98.3936 29.2999 98.6936 28.9999 99.1936 29.0999C99.7936 29.1999 99.6936 29.6999 99.5936 30.0999C99.0936 32.3999 97.1936 33.7999 94.5936 33.8999C91.1936 33.9999 89.2936 32.4999 88.8936 29.0999C88.6936 27.0999 88.5936 24.9999 89.0936 22.9999C89.5936 20.7999 91.3936 19.3999 93.6936 19.3999C95.4936 19.2999 97.0936 19.5999 98.4936 20.9999C99.1936 21.6999 99.4936 22.4999 99.6936 23.4999C99.7936 23.8999 99.6936 24.1999 99.2936 24.1999C98.8936 24.2999 98.4936 24.1999 98.3936 23.6999V23.5999C97.5936 20.7999 94.5936 19.6999 92.0936 21.0999C90.8936 21.7999 90.3936 22.9999 90.2936 24.2999C90.0936 24.9999 89.9936 28.6999 90.2936 29.6999Z" fill="#F7F7F7"/>
<path d="M68.594 28.4C68.594 26.9 68.594 25.5 68.594 24C68.594 23.3 68.894 23 69.594 23C70.194 23 70.894 23 71.494 23C72.094 23 72.394 23.2 72.394 23.8C72.394 26.8 72.394 29.8 72.394 32.7C72.394 33.3 72.094 33.5 71.594 33.5C70.894 33.5 70.194 33.5 69.594 33.5C68.994 33.5 68.694 33.2 68.694 32.6C68.594 31.3 68.594 29.9 68.594 28.4Z" fill="#F7F7F7"/>
<path d="M41.9932 28.4C41.9932 29.9 41.9932 31.4 41.9932 32.8C41.9932 33.3 41.7932 33.6 41.2932 33.6C40.4932 33.6 39.7932 33.6 38.9932 33.6C38.4932 33.6 38.2932 33.3 38.2932 32.8C38.2932 29.8 38.2932 26.7 38.2932 23.7C38.2932 23.2 38.5932 23 38.9932 23C39.6932 23 40.4932 23 41.1932 23C41.6932 23 41.8932 23.3 41.8932 23.8C41.9932 25.4 41.9932 26.9 41.9932 28.4Z" fill="#F7F7F7"/>
<path d="M128.094 27.7997C128.094 28.7997 128.094 29.7997 128.094 30.6997C128.194 31.9997 128.694 32.3997 129.994 32.4997C130.294 32.4997 130.494 32.4997 130.794 32.4997C131.094 32.4997 131.294 32.6997 131.294 32.9997C131.294 33.2997 131.294 33.5997 130.894 33.6997C128.894 33.8997 127.094 33.5997 126.994 31.0997C126.894 29.2997 126.894 27.3997 126.894 25.5997C126.894 24.3997 126.894 24.3997 125.694 24.3997C125.394 24.3997 124.994 24.4997 124.894 23.9997C124.794 23.4997 124.894 23.1997 125.494 23.0997C126.894 22.9997 126.894 22.9997 126.894 21.5997C126.894 21.0997 126.894 20.6997 126.894 20.1997C126.894 19.7997 126.694 19.1997 127.494 19.1997C128.394 19.1997 128.094 19.7997 128.194 20.1997C128.194 20.9997 128.194 21.6997 128.194 22.4997C128.194 22.8997 128.294 22.9997 128.694 22.9997C129.294 22.9997 129.894 22.9997 130.394 22.9997C130.794 22.9997 131.094 23.0997 131.094 23.5997C131.094 24.0997 130.794 24.1997 130.394 24.1997C129.894 24.1997 129.294 24.1997 128.794 24.1997C128.294 24.1997 128.094 24.2997 128.094 24.8997C128.094 25.8997 127.994 26.8997 128.094 27.7997Z" fill="#F7F7F7"/>
<path d="M142.994 26.3997C142.994 24.2997 142.994 22.1997 142.994 20.0997C142.994 19.6997 142.894 19.2997 143.594 19.1997C144.294 19.1997 144.294 19.5997 144.294 20.0997C144.294 24.2997 144.294 28.5997 144.294 32.7997C144.294 33.2997 144.194 33.6997 143.594 33.5997C143.094 33.5997 142.994 33.1997 142.994 32.7997C142.994 30.6997 142.994 28.5997 142.994 26.3997Z" fill="#F7F7F7"/>
<path d="M121.893 28.3996C121.893 26.8996 121.893 25.3996 121.893 23.8996C121.893 23.3996 121.993 23.0996 122.493 23.0996C123.093 23.0996 123.193 23.3996 123.193 23.8996C123.193 26.8996 123.193 29.8996 123.193 32.8996C123.193 33.3996 122.993 33.6996 122.493 33.6996C121.993 33.6996 121.793 33.3996 121.793 32.8996C121.893 31.3996 121.893 29.8996 121.893 28.3996Z" fill="#F7F7F7"/>
<path d="M70.4938 18.8996C72.3938 18.8996 72.2938 18.6996 72.2938 20.6996C72.2938 21.9996 72.2938 21.9996 70.9938 21.9996H69.4938C68.7938 21.9996 68.5938 21.6996 68.5938 21.0996C68.5938 20.9996 68.5938 20.7996 68.5938 20.6996C68.5938 18.5996 68.4938 18.8996 70.4938 18.8996Z" fill="#F7F7F7"/>
<path d="M40.1936 18.8999C42.1936 18.8999 41.9936 18.6999 41.9936 20.7999C41.9936 20.9999 41.9936 21.2999 41.9936 21.4999C41.9936 21.8999 41.7936 22.0999 41.3936 22.0999C40.5936 22.0999 39.7936 22.0999 38.9936 22.0999C38.5936 22.0999 38.3936 21.8999 38.3936 21.4999C38.3936 20.7999 38.3936 20.1999 38.3936 19.4999C38.3936 19.0999 38.5936 18.8999 38.9936 18.8999C39.3936 18.7999 39.7936 18.8999 40.1936 18.8999Z" fill="#F7F7F7"/>
<path d="M122.494 20.9998C121.894 21.0998 121.694 20.7998 121.694 20.1998C121.694 19.5998 121.794 19.2998 122.494 19.2998C123.094 19.2998 123.394 19.4998 123.394 20.1998C123.394 20.7998 123.194 21.0998 122.494 20.9998Z" fill="#F7F7F7"/>
<path d="M36.2936 32.7C35.5936 31.4 34.8936 30 34.1936 28.7C33.9936 28.3 33.9936 28.1 34.3936 27.9C35.2936 27.5 35.7936 26.8 36.0936 26C37.2936 22.9 35.7936 19.8 31.6936 19.5H25.6936C24.7936 19.5 24.6936 19.6 24.6936 20.6C24.6936 22.6 24.6936 24.6 24.6936 26.6C24.6936 28.7 24.6936 30.7 24.6936 32.8C24.6936 33.5 24.9936 33.8 25.6936 33.8C26.3936 33.8 27.0936 33.8 27.6936 33.8C28.2936 33.8 28.5936 33.5 28.5936 32.9C28.5936 32 28.5936 28.9 28.5936 28.9H30.3936L32.9936 33.8C32.9936 33.8 34.8936 33.8 35.7936 33.8C35.8936 33.8 35.8936 33.8 35.9936 33.8C36.4936 33.6 36.6936 33.4 36.2936 32.7ZM31.5936 25.5C30.6936 25.7 29.6936 25.6 28.6936 25.6C28.3936 25.6 28.3936 25.4 28.3936 25.2C28.3936 24.8 28.3936 24.4 28.3936 24.1C28.3936 22.7 28.3936 22.6 29.8936 22.7C30.4936 22.7 31.0936 22.6 31.6936 22.8C32.3936 23 32.6936 23.5 32.6936 24.2C32.5936 24.8 32.2936 25.3 31.5936 25.5Z" fill="#F7F7F7"/>
<path d="M55.1932 27.1002C54.8932 24.8002 53.6932 23.4002 51.5932 23.0002C50.2932 22.8002 49.0932 23.0002 47.9932 24.0002C47.9932 22.6002 47.9932 21.4002 47.9932 20.1002C47.9932 19.5002 47.7932 19.2002 47.0932 19.3002C46.3932 19.3002 45.6932 19.3002 45.0932 19.3002C44.5932 19.3002 44.2932 19.5002 44.2932 20.1002C44.2932 24.4002 44.2932 28.6002 44.2932 32.9002C44.2932 33.5002 44.5932 33.7002 45.0932 33.7002C45.6932 33.7002 46.3932 33.7002 46.9932 33.7002C47.4932 33.7002 47.9932 33.6002 47.8932 32.8002C50.5932 35.0002 54.4932 33.6002 55.0932 30.3002C55.2932 29.2002 55.3932 28.1002 55.1932 27.1002ZM49.3932 30.7002C48.6932 30.5002 48.1932 30.1002 47.9932 29.4002C47.8932 28.9002 47.7932 28.4002 47.8932 27.9002C48.0932 26.7002 48.6932 26.2002 49.6932 26.1002C50.7932 26.1002 51.2932 26.6002 51.4932 27.8002C51.4932 28.0002 51.4932 28.2002 51.4932 28.3002C51.5932 30.1002 50.7932 31.0002 49.3932 30.7002Z" fill="#F7F7F7"/>
<path d="M67.1932 26.8998C66.7932 23.0998 62.3932 21.8998 59.9932 23.9998C59.9932 22.6998 59.9932 21.3998 59.9932 20.1998C59.9932 19.5998 59.7932 19.2998 59.1932 19.2998C58.4932 19.2998 57.7932 19.2998 57.0932 19.2998C56.4932 19.2998 56.2932 19.4998 56.2932 20.0998C56.2932 24.3998 56.2932 28.6998 56.2932 32.9998C56.2932 33.4998 56.5932 33.7998 57.0932 33.7998C57.7932 33.7998 58.4932 33.7998 59.0932 33.7998C59.5932 33.7998 59.8932 33.5998 59.8932 32.8998C62.6932 34.9998 66.2932 33.7998 67.0932 30.5998C67.3932 29.2998 67.3932 28.0998 67.1932 26.8998ZM63.6932 28.8998C63.4932 30.0998 62.8932 30.6998 61.8932 30.6998C60.6932 30.6998 60.0932 29.8998 60.0932 28.3998C60.0932 26.7998 60.7932 25.9998 62.1932 26.0998C62.2932 26.0998 62.3932 26.0998 62.4932 26.0998C63.3932 26.3998 63.8932 27.4998 63.6932 28.8998Z" fill="#F7F7F7"/>
<path d="M120.094 26.4002C119.694 24.6002 118.694 23.3002 116.794 23.0002C115.194 22.7002 113.694 23.0002 112.494 24.4002C112.494 24.2002 112.394 24.1002 112.394 24.1002C112.394 23.6002 112.494 23.1002 111.694 23.1002C110.994 23.1002 111.094 23.7002 111.094 24.1002C111.094 28.3002 111.094 32.5002 111.094 36.7002C111.094 37.2002 111.094 37.5002 111.794 37.5002C112.394 37.5002 112.394 37.1002 112.394 36.7002C112.394 35.3002 112.394 33.9002 112.394 32.5002C112.494 32.5002 112.594 32.4002 112.594 32.4002C112.694 32.5002 112.694 32.7002 112.794 32.8002C115.194 35.0002 118.994 33.9002 119.794 30.8002C120.494 29.3002 120.494 27.8002 120.094 26.4002ZM118.994 28.5002C118.994 29.1002 118.994 29.7002 118.794 30.3002C118.494 31.8002 117.494 32.6002 115.994 32.7002C114.594 32.8002 113.294 32.0002 112.794 30.7002C112.294 29.2002 112.294 27.7002 112.794 26.2002C113.294 24.8002 114.494 24.1002 116.094 24.2002C117.394 24.3002 118.394 25.2002 118.794 26.7002C118.994 27.2002 119.094 27.8002 118.994 28.5002Z" fill="#F7F7F7"/>
<path d="M140.594 25.9996C140.594 24.4996 139.594 23.4996 138.194 23.0996C137.394 22.8996 136.694 22.7996 135.894 22.9996C134.594 23.1996 133.494 23.6996 132.994 24.9996C132.894 25.2996 132.794 25.6996 133.194 25.8996C133.594 26.0996 133.894 25.8996 134.094 25.4996C134.894 23.9996 137.294 23.5996 138.594 24.6996C139.094 25.0996 139.394 25.8996 139.294 27.0996C139.294 27.0996 135.694 27.0996 133.794 28.1996C132.794 28.7996 132.094 29.4996 132.094 30.6996C132.094 32.0996 133.094 33.2996 134.694 33.6996C136.394 34.0996 137.994 33.5996 139.294 32.3996C139.294 32.3996 139.294 32.8996 139.294 33.0996C139.294 33.5996 139.494 33.6996 139.894 33.6996C140.294 33.6996 140.594 33.5996 140.494 33.0996C140.594 30.6996 140.594 28.3996 140.594 25.9996ZM139.394 29.1996C139.294 31.7996 137.494 33.0996 135.094 32.5996C134.094 32.3996 133.494 31.6996 133.394 30.8996C133.294 30.1996 133.794 29.4996 134.794 29.0996C136.094 28.5996 137.494 28.3996 139.294 28.2996L139.394 29.1996Z" fill="#F7F7F7"/>
<path d="M109.394 26.1001C109.394 24.6001 108.494 23.5001 107.094 23.1001C106.294 22.9001 105.494 22.8001 104.594 23.0001C103.394 23.2001 102.394 23.7001 101.794 24.9001C101.594 25.3001 101.494 25.7001 101.994 25.9001C102.394 26.1001 102.694 25.9001 102.994 25.5001C103.794 24.0001 106.494 23.7001 107.694 24.9001C107.994 25.2001 108.094 25.5001 108.194 25.9001C108.394 27.0001 108.294 27.2001 107.194 27.3001C106.994 27.3001 106.794 27.3001 106.494 27.4001C104.994 27.5001 103.594 27.6001 102.294 28.5001C100.494 29.7001 100.494 32.0001 102.294 33.2001C102.694 33.5001 103.094 33.7001 103.594 33.8001C105.294 34.1001 106.794 33.8001 108.194 32.5001C108.194 32.8001 108.194 33.0001 108.194 33.2001C108.194 33.6001 108.394 33.8001 108.794 33.8001C109.194 33.8001 109.494 33.7001 109.394 33.2001C109.394 30.7001 109.494 28.4001 109.394 26.1001ZM108.194 29.1001C108.094 31.7001 106.194 33.2001 103.894 32.6001C102.994 32.4001 102.394 31.7001 102.294 31.0001C102.194 30.2001 102.594 29.6001 103.594 29.2001C104.894 28.6001 106.394 28.6001 107.794 28.4001C108.494 28.2001 108.094 28.8001 108.194 29.1001Z" fill="#F7F7F7"/>
</g>
<defs>
<clipPath id="clip0_1195_13996">
<rect width="120" height="19" fill="white" transform="translate(24.2932 18.5)"/>
</clipPath>
</defs>
</svg>
