<svg width="1152" height="688" viewBox="0 0 1152 688" fill="none" xmlns="http://www.w3.org/2000/svg">
<mask id="mask0_1017_23375" style="mask-type:alpha" maskUnits="userSpaceOnUse" x="0" y="0" width="1152" height="688">
<rect width="1152" height="688" transform="matrix(1 0 0 -1 0 688)" fill="url(#paint0_linear_1017_23375)"/>
</mask>
<g mask="url(#mask0_1017_23375)">
<path d="M8.98926 351.419L1143.03 351.419" stroke="#3C356D"/>
<path d="M1.4834 239.841H1152" stroke="#3C356D"/>
<path d="M1 18.1274H1151.52" stroke="#3C356D"/>
<path d="M1.4834 128.984H1152" stroke="#3C356D"/>
<path d="M84.3926 380.244L1069.12 380.244" stroke="#3C356D"/>
<path d="M143.316 400.051L1010.2 400.051" stroke="#3C356D"/>
<path d="M208.232 421.839L945.282 421.839" stroke="#3C356D"/>
<path d="M241.19 432.732L912.325 432.732" stroke="#3C356D"/>
<path d="M269.154 470.265H885.36" stroke="#3C356D"/>
<path d="M268.655 534.461H884.861" stroke="#3C356D"/>
<path d="M268.655 598.379H884.861" stroke="#3C356D"/>
<path d="M268.655 663.295H884.861" stroke="#3C356D"/>
<path d="M1 -649.012V330.859C1 343.771 9.26071 355.234 21.5087 359.318L248.146 434.904C260.394 438.989 268.655 450.452 268.655 463.363V858.044" stroke="#3C356D"/>
<path d="M1151.16 -648.677V331.098C1151.16 343.991 1142.92 355.442 1130.69 359.541L905.3 435.115C893.075 439.214 884.837 450.665 884.837 463.559V858.42" stroke="#3C356D"/>
<path d="M117.231 -649.636L117.231 332.78C117.231 344.841 124.453 355.728 135.564 360.419L311.599 434.732C322.71 439.422 329.932 450.31 329.932 462.37V858.42" stroke="#3C356D"/>
<path d="M1036.2 -649.156V332.781C1036.2 344.841 1028.98 355.729 1017.87 360.419L841.832 434.732C830.721 439.423 823.499 450.31 823.499 462.37V858.42" stroke="#3C356D"/>
<path d="M230.257 -649.156V334.952C230.257 345.833 236.149 355.861 245.654 361.158L375.873 433.722C385.378 439.019 391.269 449.047 391.269 459.928V858.42" stroke="#3C356D"/>
<path d="M923.186 -649.156L923.186 334.952C923.186 345.833 917.294 355.861 907.789 361.158L777.57 433.722C768.065 439.019 762.173 449.047 762.173 459.928V858.42" stroke="#3C356D"/>
<path d="M344.308 -647.719V338.67C344.308 347.601 348.286 356.067 355.162 361.767L441.753 433.547C448.629 439.246 452.608 447.712 452.608 456.643V858.42" stroke="#3C356D"/>
<path d="M809.135 -649.156V338.67C809.135 347.601 805.157 356.067 798.281 361.767L711.69 433.547C704.814 439.246 700.835 447.712 700.835 456.643V858.42" stroke="#3C356D"/>
<path d="M459.315 -649.636V344.402C459.315 349.996 460.88 355.479 463.831 360.231L510.387 435.186C513.339 439.938 514.903 445.421 514.903 451.015V859.378" stroke="#3C356D"/>
<path d="M694.128 -649.156V344.402C694.128 349.996 692.564 355.479 689.612 360.231L643.056 435.186C640.104 439.938 638.54 445.421 638.54 451.015V859.378" stroke="#3C356D"/>
<path d="M576.242 858.42L576.242 312.455L576.242 -649.636" stroke="#3C356D"/>
</g>
<defs>
<linearGradient id="paint0_linear_1017_23375" x1="576" y1="0" x2="576" y2="617.686" gradientUnits="userSpaceOnUse">
<stop stop-color="#D9D9D9" stop-opacity="0"/>
<stop offset="0.215" stop-color="#D9D9D9"/>
<stop offset="0.725957" stop-color="#D9D9D9"/>
<stop offset="1" stop-color="#737373" stop-opacity="0"/>
</linearGradient>
</defs>
</svg>
