<svg width="1155" height="912" viewBox="0 0 1155 912" fill="none" xmlns="http://www.w3.org/2000/svg">
<mask id="mask0_1010_18752" style="mask-type:alpha" maskUnits="userSpaceOnUse" x="0" y="0" width="1155" height="912">
<rect width="1155" height="912" fill="url(#paint0_linear_1010_18752)"/>
</mask>
<g mask="url(#mask0_1010_18752)">
<path d="M9 111H1147" stroke="#3C356D"/>
<path d="M1 222H1153" stroke="#3C356D"/>
<path d="M1 334H1153" stroke="#3C356D"/>
<path d="M83 82L1073 81.9999" stroke="#3C356D"/>
<path d="M142 62L1013 61.9999" stroke="#3C356D"/>
<path d="M208 40L948 39.9999" stroke="#3C356D"/>
<path d="M241 29L914 29.0001" stroke="#3C356D"/>
<path d="M0.580078 446.893V131.151C0.580078 118.257 8.81842 106.806 21.043 102.707L247.574 26.7521C259.798 22.6533 268.037 11.2018 268.037 -1.69159V-398.331" stroke="#3C356D"/>
<path d="M1154.38 446.893V131.151C1154.38 118.257 1146.14 106.806 1133.92 102.707L907.387 26.752C895.162 22.6532 886.924 11.2017 886.924 -1.69171V-398.331" stroke="#3C356D"/>
<path d="M116.028 446.893V129.467C116.028 117.407 123.25 106.519 134.361 101.829L311.304 27.1328C322.415 22.4424 329.637 11.5547 329.637 -0.505456V-398.331" stroke="#3C356D"/>
<path d="M1038.93 446.893V129.467C1038.93 117.407 1031.71 106.519 1020.6 101.829L843.656 27.1326C832.546 22.4423 825.324 11.5546 825.324 -0.505578V-398.331" stroke="#3C356D"/>
<path d="M229.537 446.744V127.296C229.537 116.415 235.429 106.387 244.934 101.09L375.84 28.1428C385.345 22.8462 391.237 12.8181 391.237 1.93697V-398.331" stroke="#3C356D"/>
<path d="M925.424 446.744V127.296C925.424 116.415 919.532 106.387 910.027 101.09L779.121 28.1427C769.616 22.8461 763.724 12.818 763.724 1.93685V-398.331" stroke="#3C356D"/>
<path d="M344.074 446.744V123.577C344.074 114.646 348.053 106.18 354.929 100.481L441.983 28.3174C448.858 22.618 452.837 14.1517 452.837 5.22104V-398.331" stroke="#3C356D"/>
<path d="M810.887 446.744V123.577C810.887 114.646 806.908 106.18 800.033 100.481L712.979 28.3174C706.103 22.618 702.124 14.1517 702.124 5.22104V-398.331" stroke="#3C356D"/>
<path d="M459.574 446.744V117.845C459.574 112.251 461.139 106.768 464.09 102.016L510.884 26.6782C513.835 21.9262 515.399 16.4435 515.399 10.8495V-399.294" stroke="#3C356D"/>
<path d="M695.387 446.744V117.845C695.387 112.251 693.823 106.768 690.871 102.016L644.078 26.6782C641.126 21.9262 639.562 16.4435 639.562 10.8495V-399.294" stroke="#3C356D"/>
<path d="M576.999 -398.331L576.999 149.964L576.999 446.744" stroke="#3C356D"/>
<path d="M9 559L1146 559" stroke="#3C356D"/>
<path d="M1 447H1153" stroke="#3C356D"/>
<path d="M82.9998 587.489L1071.5 587.489" stroke="#3C356D"/>
<path d="M142.5 607.38L1012.5 607.38" stroke="#3C356D"/>
<path d="M208 629.261L947.5 629.261" stroke="#3C356D"/>
<path d="M240 640.201H914.5" stroke="#3C356D"/>
<path d="M268 678H887" stroke="#3C356D"/>
<path d="M268 742H887" stroke="#3C356D"/>
<path d="M268 807H887" stroke="#3C356D"/>
<path d="M268 871H887" stroke="#3C356D"/>
<path d="M0.580078 222.481V538.224C0.580078 551.117 8.81842 562.569 21.043 566.668L247.574 642.623C259.798 646.721 268.037 658.173 268.037 671.066V1067.71" stroke="#3C356D"/>
<path d="M1154.38 222.481V538.224C1154.38 551.117 1146.14 562.569 1133.92 566.668L907.387 642.623C895.162 646.721 886.924 658.173 886.924 671.066V1067.71" stroke="#3C356D"/>
<path d="M116.028 222.481V539.907C116.028 551.968 123.25 562.855 134.361 567.546L311.304 642.242C322.415 646.932 329.637 657.82 329.637 669.88V1067.71" stroke="#3C356D"/>
<path d="M1038.93 222.481V539.907C1038.93 551.967 1031.71 562.855 1020.6 567.546L843.656 642.242C832.546 646.932 825.324 657.82 825.324 669.88V1067.71" stroke="#3C356D"/>
<path d="M229.537 222.631V542.078C229.537 552.96 235.429 562.988 244.934 568.284L375.84 641.232C385.345 646.528 391.237 656.557 391.237 667.438V1067.71" stroke="#3C356D"/>
<path d="M925.424 222.631V542.078C925.424 552.96 919.532 562.988 910.027 568.284L779.121 641.232C769.616 646.528 763.724 656.557 763.724 667.438V1067.71" stroke="#3C356D"/>
<path d="M344.074 222.631V545.798C344.074 554.728 348.053 563.195 354.929 568.894L441.983 641.057C448.858 646.757 452.837 655.223 452.837 664.154V1067.71" stroke="#3C356D"/>
<path d="M810.887 222.631V545.798C810.887 554.728 806.908 563.195 800.033 568.894L712.979 641.057C706.103 646.757 702.124 655.223 702.124 664.154V1067.71" stroke="#3C356D"/>
<path d="M459.574 222.631V551.53C459.574 557.124 461.139 562.607 464.09 567.359L510.884 642.696C513.835 647.448 515.399 652.931 515.399 658.525V1068.67" stroke="#3C356D"/>
<path d="M695.387 222.631V551.53C695.387 557.124 693.823 562.607 690.871 567.359L644.078 642.696C641.126 647.448 639.562 652.931 639.562 658.525V1068.67" stroke="#3C356D"/>
<path d="M576.999 1067.71L576.999 519.41L576.999 222.631" stroke="#3C356D"/>
</g>
<defs>
<linearGradient id="paint0_linear_1010_18752" x1="577.5" y1="18.5" x2="577.5" y2="884.868" gradientUnits="userSpaceOnUse">
<stop stop-color="#D9D9D9" stop-opacity="0"/>
<stop offset="0.169369" stop-color="#D9D9D9"/>
<stop offset="0.736397" stop-color="#D9D9D9"/>
<stop offset="0.987273" stop-color="#D9D9D9" stop-opacity="0"/>
</linearGradient>
</defs>
</svg>
