<svg width="1152" height="788" viewBox="0 0 1152 788" fill="none" xmlns="http://www.w3.org/2000/svg">
<mask id="mask0_1010_20468" style="mask-type:alpha" maskUnits="userSpaceOnUse" x="0" y="0" width="1152" height="788">
<rect width="1152" height="788" transform="matrix(1 0 0 -1 0 788)" fill="url(#paint0_linear_1010_20468)"/>
</mask>
<g mask="url(#mask0_1010_20468)">
<path d="M10.4641 451.722L1143.04 451.722" stroke="#3C356D"/>
<path d="M2.96765 340H1152" stroke="#3C356D"/>
<path d="M2.48438 118H1151.52" stroke="#3C356D"/>
<path d="M2.96765 229H1152" stroke="#3C356D"/>
<path d="M2.48438 6H1151.52" stroke="#3C356D"/>
<path d="M85.7686 480.584L1069.23 480.584" stroke="#3C356D"/>
<path d="M144.617 500.416L1010.38 500.416" stroke="#3C356D"/>
<path d="M209.45 522.232L945.549 522.232" stroke="#3C356D"/>
<path d="M242.364 533.14L912.633 533.14" stroke="#3C356D"/>
<path d="M270.293 570.72H885.704" stroke="#3C356D"/>
<path d="M269.794 635H885.205" stroke="#3C356D"/>
<path d="M269.794 699H885.205" stroke="#3C356D"/>
<path d="M269.794 764H885.205" stroke="#3C356D"/>
<path d="M2.48438 -550V431.181C2.48438 444.083 10.7344 455.541 22.971 459.632L249.307 535.312C261.544 539.404 269.794 550.861 269.794 563.764V959" stroke="#3C356D"/>
<path d="M1151.16 -549.664V431.419C1151.16 444.304 1142.93 455.749 1130.72 459.855L905.623 535.523C893.41 539.629 885.182 551.075 885.182 563.96V959.376" stroke="#3C356D"/>
<path d="M118.565 -550.624L118.565 433.105C118.565 445.155 125.775 456.035 136.872 460.732L312.684 535.142C323.781 539.839 330.991 550.72 330.991 562.77V959.376" stroke="#3C356D"/>
<path d="M1036.35 -550.144V433.105C1036.35 445.155 1029.14 456.035 1018.04 460.732L842.23 535.142C831.133 539.839 823.923 550.72 823.923 562.77V959.376" stroke="#3C356D"/>
<path d="M231.446 -550.144V435.278C231.446 446.147 237.325 456.167 246.814 461.468L376.883 534.136C386.372 539.437 392.251 549.456 392.251 560.326V959.376" stroke="#3C356D"/>
<path d="M923.481 -550.144L923.481 435.278C923.481 446.147 917.602 456.167 908.113 461.468L778.045 534.136C768.556 539.437 762.676 549.456 762.676 560.326V959.376" stroke="#3C356D"/>
<path d="M345.348 -548.705V438.998C345.348 447.915 349.315 456.37 356.173 462.07L442.684 533.968C449.542 539.667 453.509 548.123 453.509 557.04V959.376" stroke="#3C356D"/>
<path d="M809.578 -550.144V438.998C809.578 447.915 805.611 456.37 798.753 462.07L712.243 533.968C705.385 539.667 701.418 548.123 701.418 557.04V959.376" stroke="#3C356D"/>
<path d="M460.209 -550.624V444.725C460.209 450.307 461.767 455.779 464.706 460.524L511.228 535.617C514.167 540.362 515.725 545.834 515.725 551.416V960.336" stroke="#3C356D"/>
<path d="M694.718 -550.144V444.725C694.718 450.307 693.16 455.779 690.22 460.524L643.699 535.617C640.759 540.362 639.202 545.834 639.202 551.416V960.336" stroke="#3C356D"/>
<path d="M576.986 959.376L576.985 412.707L576.985 -550.624" stroke="#3C356D"/>
</g>
<defs>
<linearGradient id="paint0_linear_1010_20468" x1="576" y1="0" x2="576" y2="707.465" gradientUnits="userSpaceOnUse">
<stop stop-color="#D9D9D9" stop-opacity="0"/>
<stop offset="0.215" stop-color="#D9D9D9"/>
<stop offset="0.725957" stop-color="#D9D9D9"/>
<stop offset="1" stop-color="#737373" stop-opacity="0"/>
</linearGradient>
</defs>
</svg>
