<svg width="1152" height="604" viewBox="0 0 1152 604" fill="none" xmlns="http://www.w3.org/2000/svg">
<mask id="mask0_1017_23339" style="mask-type:alpha" maskUnits="userSpaceOnUse" x="0" y="0" width="1152" height="604">
<rect width="1152" height="604" transform="matrix(1 0 0 -1 0 604)" fill="url(#paint0_linear_1017_23339)"/>
</mask>
<g mask="url(#mask0_1017_23339)">
<path d="M8.98926 243.932L1143.03 243.932" stroke="#3C356D"/>
<path d="M1.4834 355.51H1152" stroke="#3C356D"/>
<path d="M1 577.224H1151.52" stroke="#3C356D"/>
<path d="M1.4834 466.367H1152" stroke="#3C356D"/>
<path d="M84.3926 215.107L1069.12 215.107" stroke="#3C356D"/>
<path d="M143.316 195.301L1010.2 195.301" stroke="#3C356D"/>
<path d="M208.232 173.513L945.282 173.513" stroke="#3C356D"/>
<path d="M241.19 162.619L912.325 162.619" stroke="#3C356D"/>
<path d="M269.154 125.087H885.36" stroke="#3C356D"/>
<path d="M268.655 60.8901H884.861" stroke="#3C356D"/>
<path d="M1 1244.36V264.492C1 251.581 9.26071 240.118 21.5087 236.033L248.146 160.448C260.394 156.363 268.655 144.9 268.655 131.989V-262.693" stroke="#3C356D"/>
<path d="M1151.16 1244.03V264.254C1151.16 251.361 1142.92 239.909 1130.69 235.81L905.3 160.237C893.075 156.138 884.837 144.686 884.837 131.793V-263.069" stroke="#3C356D"/>
<path d="M117.231 1244.99L117.231 262.571C117.231 250.511 124.453 239.623 135.564 234.933L311.599 160.62C322.71 155.93 329.932 145.042 329.932 132.982V-263.068" stroke="#3C356D"/>
<path d="M1036.2 1244.51V262.571C1036.2 250.51 1028.98 239.623 1017.87 234.932L841.832 160.619C830.721 155.929 823.499 145.041 823.499 132.981V-263.069" stroke="#3C356D"/>
<path d="M230.257 1244.51V260.4C230.257 249.518 236.149 239.49 245.654 234.194L375.873 161.629C385.378 156.333 391.269 146.304 391.269 135.423V-263.068" stroke="#3C356D"/>
<path d="M923.186 1244.51L923.186 260.4C923.186 249.518 917.294 239.49 907.789 234.194L777.57 161.629C768.065 156.333 762.173 146.304 762.173 135.423V-263.068" stroke="#3C356D"/>
<path d="M344.308 1243.07V256.681C344.308 247.75 348.286 239.284 355.162 233.585L441.753 161.805C448.629 156.105 452.608 147.639 452.608 138.708V-263.068" stroke="#3C356D"/>
<path d="M809.135 1244.51V256.681C809.135 247.75 805.157 239.284 798.281 233.585L711.69 161.805C704.814 156.105 700.835 147.639 700.835 138.708V-263.068" stroke="#3C356D"/>
<path d="M459.315 1244.99V250.95C459.315 245.356 460.88 239.873 463.831 235.121L510.387 160.165C513.339 155.413 514.903 149.931 514.903 144.337V-264.027" stroke="#3C356D"/>
<path d="M694.128 1244.51V250.95C694.128 245.356 692.564 239.873 689.612 235.121L643.056 160.165C640.104 155.413 638.54 149.931 638.54 144.337V-264.027" stroke="#3C356D"/>
<path d="M576.242 -263.068L576.242 282.896L576.242 1244.99" stroke="#3C356D"/>
</g>
<defs>
<linearGradient id="paint0_linear_1017_23339" x1="576" y1="0" x2="576" y2="542.27" gradientUnits="userSpaceOnUse">
<stop stop-color="#D9D9D9" stop-opacity="0"/>
<stop offset="0.215" stop-color="#D9D9D9"/>
<stop offset="0.725957" stop-color="#D9D9D9"/>
<stop offset="1" stop-color="#737373" stop-opacity="0"/>
</linearGradient>
</defs>
</svg>
