<svg width="24" height="25" viewBox="0 0 24 25" fill="none" xmlns="http://www.w3.org/2000/svg">
<rect y="0.179199" width="24" height="24" rx="6" fill="#87087C"/>
<rect x="0.5" y="0.679199" width="23" height="23" rx="5.5" stroke="#F9F8F7" stroke-opacity="0.2"/>
<path d="M5.92689 8.39442C5.90722 8.41881 5.92601 8.4552 5.95749 8.45546C6.15786 8.45709 6.58045 8.51502 6.66649 8.99189C6.90418 10.6193 4.45858 11.353 4.37505 13.0133C4.37343 13.0454 4.41347 13.0638 4.44008 13.0454C4.69264 12.8705 5.12399 12.8801 5.33064 13.0924C5.85752 13.6077 5.65704 14.621 5.70031 15.27C5.76987 16.3133 5.89883 17.1561 6.89109 18.0516C6.92061 18.0783 6.97646 18.04 6.96721 18.0015C6.91554 17.7862 6.93071 17.5148 7.08657 17.39C7.8251 16.8122 8.46846 18.3007 8.83414 18.7543C9.11557 19.1034 9.80311 19.7883 10.387 20.0337C10.4148 20.0454 10.4431 20.0189 10.4365 19.9896C10.3299 19.5162 10.6702 19.162 11.2706 19.3704C12.5877 19.8185 13.7783 19.8424 15.1927 19.2843C15.2171 19.2746 15.2228 19.2422 15.2055 19.2226C14.6044 18.5406 16.4857 17.9704 16.7965 17.6553C16.7982 17.6536 16.7997 17.6523 16.8017 17.651C17.7673 16.9762 18.9329 15.4751 19 12.5855C18.926 10.9401 18.5502 10.0996 18.4035 9.83013C18.3865 9.7989 18.3445 9.81139 18.3443 9.84689C18.3336 11.3192 18.1157 12.5683 17.5178 13.934C17.5045 13.9645 17.5359 13.9958 17.5666 13.9823C17.7031 13.9222 17.8426 13.8614 17.9788 13.7968C18.0055 13.7841 18.0355 13.8079 18.0304 13.8369C17.1323 18.9984 8.71647 18.2097 8.71647 12.8376C8.71647 10.9582 9.97119 9.11052 11.9085 8.77886C11.9433 8.77292 11.9648 8.81427 11.9398 8.83893C11.783 8.99365 11.4326 9.34234 11.2776 9.52095C11.2561 9.54584 11.2779 9.58039 11.3103 9.57387C12.999 9.2345 14.7546 8.64711 16.1255 9.99289C16.1399 10.007 16.1635 10.0075 16.1779 9.99327L16.6979 9.47733C16.7172 9.45821 16.75 9.46597 16.7585 9.49166L16.9062 9.93739C16.9163 9.96788 16.9576 9.97098 16.9715 9.94201C17.0985 9.6779 17.4993 8.77359 17.5205 7.83607C17.5211 7.80543 17.4841 7.78679 17.4579 7.80308C17.2387 7.93953 16.4897 8.28163 15.8242 7.11833C14.8532 5.15467 10.8885 5.2163 10.4779 3.35275C10.47 3.31683 10.4215 3.31049 10.4098 3.34538C10.2733 3.75337 9.96069 5.09242 11.3565 5.95632L11.3457 5.97412L9.67891 5.2082C9.65211 5.19589 9.62341 5.21819 9.63046 5.24664C9.67386 5.42191 9.8225 5.90783 10.2169 6.34558C10.2377 6.36866 10.2229 6.40615 10.1918 6.40819C8.68118 6.50707 6.99977 7.0634 5.92689 8.39442Z" fill="#F7F7F7"/>
</svg>
