<svg width="91" height="25" viewBox="0 0 91 25" fill="none" xmlns="http://www.w3.org/2000/svg">
<rect x="2" y="0.179199" width="24" height="24" rx="6" fill="#87087C"/>
<rect x="2.5" y="0.679199" width="23" height="23" rx="5.5" stroke="#F9F8F7" stroke-opacity="0.2"/>
<path d="M18.4614 15.3256C17.4341 15.3256 16.603 14.3802 16.603 13.2157V10.0563H18.9999V8.21855H16.603V5.1792L14.7663 6.29249V8.21855H11.283C8.85485 8.21855 8.2167 11.5405 10.0845 12.7775L11.9834 14.2264C12.4036 14.5799 12.2324 15.322 11.6409 15.322H9.05724V17.1774H11.641C14.0847 17.1774 14.7072 13.8554 12.8395 12.6184L10.9561 11.1695C10.5359 10.816 10.6915 10.0563 11.283 10.0563H14.7664V13.2405C14.7664 15.6436 16.2295 17.1792 18.4397 17.1792H19V15.3256H18.4614Z" fill="#F7F7F7"/>
<rect x="23" y="0.179199" width="24" height="24" rx="6" fill="#87087C"/>
<rect x="23.5" y="0.679199" width="23" height="23" rx="5.5" stroke="#F9F8F7" stroke-opacity="0.2"/>
<path d="M31.2422 6.1792H38.758V7.65212H31.2422V6.1792Z" fill="#F7F7F7"/>
<path d="M33.2228 17.8312C33.7763 18.0632 34.4024 18.1792 35.101 18.1792C35.8178 18.1792 36.4393 18.0446 36.9656 17.7755C37.4918 17.5065 37.8911 17.1446 38.1633 16.6899C38.4446 16.2352 38.5853 15.7296 38.5853 15.1729C38.5853 14.5883 38.4446 14.1104 38.1633 13.7393C37.8821 13.3681 37.5463 13.0851 37.1561 12.8902C36.775 12.6954 36.276 12.4913 35.6591 12.2778C35.0421 12.0737 34.5884 11.8835 34.298 11.7072C34.0077 11.5309 33.8625 11.285 33.8625 10.9695C33.8625 10.6819 33.9487 10.4639 34.1211 10.3154C34.2935 10.1577 34.5203 10.0788 34.8016 10.0788C35.1282 10.0788 35.3959 10.1715 35.6046 10.3572C35.8133 10.5334 35.9267 10.7793 35.9449 11.0948H38.4628C38.4174 10.1762 38.0725 9.46174 37.4284 8.95142C36.7842 8.43178 35.9358 8.17198 34.8832 8.17198C33.8489 8.17198 33.0096 8.43178 32.3654 8.95142C31.7211 9.46174 31.399 10.1715 31.399 11.0809C31.399 11.6933 31.5397 12.1897 31.821 12.5701C32.1022 12.9506 32.4379 13.2382 32.8281 13.4331C33.2183 13.628 33.7218 13.8228 34.3388 14.0176C34.7653 14.1476 35.092 14.2635 35.3188 14.3656C35.5547 14.4676 35.7498 14.5976 35.904 14.7553C36.0674 14.913 36.149 15.1125 36.149 15.3538C36.149 15.6414 36.0492 15.8687 35.8496 16.0358C35.6499 16.1935 35.3778 16.2724 35.0329 16.2724C34.6973 16.2724 34.425 16.1796 34.2163 15.994C34.0077 15.7992 33.8852 15.5208 33.8489 15.1589H31.3718C31.39 15.7992 31.5624 16.3466 31.889 16.8013C32.2247 17.2559 32.6693 17.5993 33.2228 17.8312Z" fill="#F7F7F7"/>
<rect x="44" y="0.179199" width="24" height="24" rx="6" fill="#87087C"/>
<rect x="44.5" y="0.679199" width="23" height="23" rx="5.5" stroke="#F9F8F7" stroke-opacity="0.2"/>
<path fill-rule="evenodd" clip-rule="evenodd" d="M55.5387 4.75977C51.6002 4.75977 48.41 7.9647 48.41 11.9151C48.41 14.5722 49.952 16.9334 52.0806 18.1674C52.7497 18.6473 53.4907 18.7301 54.0897 18.5688C56.0096 18.0519 57.1218 15.9905 57.3351 13.1456C58.2868 12.7046 59.2428 12.1992 59.895 11.5758C60.669 10.836 61.1693 10.1052 61.3851 9.42023C61.6044 8.72421 61.53 8.06523 61.1374 7.53827C59.8354 5.79076 57.8723 4.75977 55.5387 4.75977ZM49.1715 11.9151C49.1715 8.3824 52.0236 5.52119 55.5387 5.52119C57.6302 5.52119 59.3676 6.43725 60.5268 7.99318C60.7466 8.28826 60.8192 8.68257 60.6589 9.19141C60.4951 9.7113 60.0891 10.337 59.3689 11.0254C58.6782 11.6856 57.5429 12.2257 56.3679 12.747C56.2521 12.7984 56.1359 12.8496 56.0201 12.9006C55.5614 13.1028 55.1074 13.3029 54.7005 13.5027C54.194 13.7514 53.7264 14.0155 53.3892 14.3089C52.4586 15.1186 51.7943 16.0533 51.7943 17.0641C50.2354 15.8831 49.1715 13.9916 49.1715 11.9151ZM56.5376 13.5046C56.4643 13.537 56.3915 13.5691 56.3192 13.6009C55.8622 13.8024 55.4274 13.994 55.0361 14.1862C54.5406 14.4295 54.1478 14.6581 53.889 14.8834C52.7665 15.86 52.3423 16.7697 52.6639 17.64C53.1009 17.9001 53.5462 17.9266 53.8918 17.8336C55.2542 17.4668 56.2631 15.9922 56.5376 13.5046Z" fill="#F7F7F7"/>
<path fill-rule="evenodd" clip-rule="evenodd" d="M61.5775 12.231C60.6194 12.4891 60.144 13.5154 60.0767 14.7755C59.716 14.9508 59.3534 15.1573 59.0898 15.4095C58.7413 15.7429 58.4992 16.0877 58.3915 16.4297C58.2804 16.7827 58.3129 17.1418 58.531 17.4348C59.132 18.2422 60.0412 18.7192 61.1147 18.7192C62.9308 18.7192 64.3999 17.2403 64.3999 15.4199C64.3999 14.2337 63.7373 13.181 62.8123 12.5995C62.7508 12.5266 62.6776 12.4564 62.5918 12.3948C62.3375 12.2121 61.9912 12.1196 61.5775 12.231ZM61.2354 14.2471C61.123 14.3023 61.0024 14.3573 60.8745 14.4143C61.0001 13.5253 61.3723 13.0748 61.7756 12.9662C61.9562 12.9175 62.0666 12.9573 62.1408 13.0085C62.2425 13.2561 62.1598 13.562 61.6823 13.9778C61.5932 14.0554 61.4454 14.1438 61.2354 14.2471ZM61.1147 17.9578C62.5068 17.9578 63.6384 16.8233 63.6384 15.4199C63.6384 14.728 63.3389 14.084 62.8728 13.6167C62.7504 13.9723 62.4843 14.2891 62.1824 14.552C62.0149 14.6979 61.7924 14.8217 61.5712 14.9304C61.3916 15.0187 61.191 15.1072 60.9932 15.1944L60.8459 15.2596C60.3329 15.4873 59.8812 15.7061 59.6161 15.9597C59.3215 16.2417 59.1735 16.4813 59.1178 16.6583C59.0655 16.8244 59.0963 16.919 59.1418 16.9802C59.6001 17.596 60.2836 17.9578 61.1147 17.9578Z" fill="#F7F7F7"/>
<rect x="65" y="0.179199" width="24" height="24" rx="6" fill="#87087C"/>
<rect x="65.5" y="0.679199" width="23" height="23" rx="5.5" stroke="#F9F8F7" stroke-opacity="0.2"/>
<path d="M81.854 6.02526C80.9987 5.70878 80.3244 5.03446 80.0079 4.1792C79.6914 5.03446 79.0171 5.70878 78.1619 6.02526C79.0171 6.34173 79.6914 7.01605 80.0079 7.87131C80.3244 7.01605 80.9987 6.34173 81.854 6.02526Z" fill="#F7F7F7"/>
<path fill-rule="evenodd" clip-rule="evenodd" d="M73.9137 11.0161L77.2731 6.50385L79.2152 9.11251C82.1168 8.26262 84.4173 8.29004 84.9062 9.33831C85.3947 10.3859 83.9391 12.1643 81.4259 13.8398C80.4876 14.4653 79.4018 15.0766 78.2148 15.6301L80.9097 15.4777C80.7268 15.7993 80.4973 16.1011 80.2222 16.373C78.7905 17.7878 76.5769 17.959 74.956 16.8865C71.974 17.7881 69.5923 17.7805 69.0939 16.7117C68.6264 15.7092 69.9392 14.0376 72.2554 12.4272C72.1639 12.8457 72.1287 13.2722 72.149 13.6961C71.7275 14.2654 71.5701 14.7861 71.7543 15.1813C71.9956 15.6986 72.7781 15.9057 73.8576 15.8247C72.8449 14.399 72.8379 12.461 73.9137 11.0161ZM80.6324 11.0161L79.6059 9.63725C81.0722 9.38277 82.1762 9.55156 82.4711 10.184C82.7409 10.7626 82.2781 11.6105 81.3264 12.4855C81.1994 11.968 80.9689 11.4679 80.6324 11.0161Z" fill="#F7F7F7"/>
</svg>
