<svg width="24" height="25" viewBox="0 0 24 25" fill="none" xmlns="http://www.w3.org/2000/svg">
<path d="M12 20.7932C11.2727 20.2174 10.4848 19.7705 9.63636 19.4523C8.78788 19.1341 7.90909 18.975 7 18.975C6.36364 18.975 5.73864 19.0583 5.125 19.225C4.51136 19.3917 3.92424 19.6265 3.36364 19.9296C3.04545 20.0962 2.73864 20.0886 2.44318 19.9068C2.14773 19.725 2 19.4599 2 19.1114V8.15683C2 7.99016 2.04167 7.83107 2.125 7.67955C2.20833 7.52804 2.33333 7.4144 2.5 7.33865C3.19697 6.97501 3.92424 6.70228 4.68182 6.52046C5.43939 6.33864 6.21212 6.24774 7 6.24774C7.87879 6.24774 8.73864 6.36137 9.57955 6.58865C10.4205 6.81592 11.2273 7.15683 12 7.61137V18.6114C12.7727 18.1265 13.5833 17.7629 14.4318 17.5205C15.2803 17.278 16.1364 17.1568 17 17.1568C17.5455 17.1568 18.0795 17.2023 18.6023 17.2932C19.125 17.3841 19.6515 17.5205 20.1818 17.7023V6.79319C20.4091 6.86895 20.6326 6.94849 20.8523 7.03183C21.072 7.11516 21.2879 7.21743 21.5 7.33865C21.6667 7.4144 21.7917 7.52804 21.875 7.67955C21.9583 7.83107 22 7.99016 22 8.15683V19.1114C22 19.4599 21.8523 19.725 21.5568 19.9068C21.2614 20.0886 20.9545 20.0962 20.6364 19.9296C20.0758 19.6265 19.4886 19.3917 18.875 19.225C18.2614 19.0583 17.6364 18.975 17 18.975C16.0909 18.975 15.2121 19.1341 14.3636 19.4523C13.5152 19.7705 12.7273 20.2174 12 20.7932ZM13.8182 16.2477V7.61137L18.3636 3.06592V12.1568L13.8182 16.2477Z" fill="#F9F8F7" fill-opacity="0.2"/>
</svg>
