<svg width="24" height="25" viewBox="0 0 24 25" fill="none" xmlns="http://www.w3.org/2000/svg">
<path d="M7.8 8.32969C7.8 8.24684 7.73284 8.17969 7.65 8.17969H4C2.9 8.17969 2 9.07969 2 10.1797V16.1797C2 17.2797 2.9 18.1797 4 18.1797H5V20.214C5 20.5704 5.43086 20.7488 5.68284 20.4968L8 18.1797H13C14.1 18.1797 15 17.2797 15 16.1797V14.5103C15 14.4272 14.9349 14.36 14.8518 14.3603C14.3371 14.3624 12.5615 14.3696 10.8 14.3748C9.14315 14.3798 7.8 13.0375 7.8 11.3807V8.32969ZM20 3.17969H11C9.9 3.17969 9 4.07969 9 5.17969V11.1797C9 12.2843 9.89543 13.1797 11 13.1797H16L18.3172 15.4968C18.5691 15.7488 19 15.5704 19 15.214V13.1797H20C21.1 13.1797 22 12.2807 22 11.1797V5.17969C22 4.07969 21.1 3.17969 20 3.17969Z" fill="#F9F8F7" fill-opacity="0.2"/>
</svg>
