<svg width="41" height="33" viewBox="0 0 41 33" fill="none" xmlns="http://www.w3.org/2000/svg">
<path fill-rule="evenodd" clip-rule="evenodd" d="M8.67375 7.62158C8.67375 3.51153 12.0056 0.179688 16.1156 0.179688H33.5581C37.6681 0.179688 41 3.51154 41 7.62158V24.7379C41 28.848 37.6681 32.1798 33.5581 32.1798H16.1156C12.0056 32.1798 8.67375 28.848 8.67375 24.7379V24.3463C8.66591 21.0129 6.68997 19.9011 4.6267 19.9011C2.93521 19.9011 0.780151 21.0174 0.780151 24.3662V16.552V16.1801V8.36597C0.780151 11.7148 2.93521 12.8311 4.6267 12.8311C6.68997 12.8311 8.66591 11.7192 8.67375 8.38587V7.62158Z" fill="#02345E"/>
<path d="M26.7751 13.2705L20.7697 13.2705L20.7697 11.7705L29.478 11.7705L29.478 20.0205H27.8947L27.8947 14.3312L21.0811 20.7861L19.9615 19.7255L26.7751 13.2705Z" fill="#F7F7F7"/>
</svg>
