<svg width="24" height="25" viewBox="0 0 24 25" fill="none" xmlns="http://www.w3.org/2000/svg">
<path fill-rule="evenodd" clip-rule="evenodd" d="M11.9981 3.17969C13.3432 3.1793 14.6713 3.48044 15.8846 4.06095C17.098 4.64146 18.1658 5.48658 19.0096 6.53415C19.8533 7.58172 20.4514 8.8051 20.7601 10.1143C21.0687 11.4235 21.0799 12.7853 20.7929 14.0994C20.5059 15.4135 19.928 16.6466 19.1016 17.7079C18.2753 18.7692 17.2216 19.6318 16.0179 20.2323C14.8143 20.8327 13.4914 21.1557 12.1464 21.1775C10.8015 21.1993 9.46883 20.9193 8.24637 20.3582L3.76086 21.1696C3.64837 21.1897 3.53257 21.1796 3.42523 21.1405C3.31789 21.1013 3.22283 21.0344 3.14973 20.9466C3.07663 20.8587 3.02809 20.7531 3.00905 20.6405C2.99001 20.5278 3.00114 20.4121 3.04131 20.3051L4.32769 16.8808C3.49212 15.517 3.03509 13.9552 3.00363 12.3562C2.97217 10.7571 3.36744 9.17853 4.14873 7.78297C4.93002 6.3874 6.06911 5.22526 7.44874 4.41617C8.82838 3.60708 10.3987 3.18027 11.9981 3.17969ZM11.5076 8.87263C11.6835 8.8002 11.8732 8.76761 12.0631 8.77722C12.2531 8.78683 12.4385 8.83839 12.6062 8.9282C12.7738 9.01802 12.9195 9.14385 13.0327 9.29666C13.1459 9.44947 13.2239 9.62546 13.261 9.81199C13.2981 9.99851 13.2934 10.1909 13.2473 10.3755C13.2012 10.56 13.1148 10.732 12.9943 10.8791C12.8738 11.0262 12.7222 11.1449 12.5504 11.2264C12.3786 11.308 12.1909 11.3505 12.0007 11.3509C11.7862 11.3509 11.5804 11.4361 11.4287 11.5878C11.2771 11.7395 11.1918 11.9452 11.1918 12.1598V13.5574C11.1918 13.772 11.2771 13.9777 11.4287 14.1294C11.5804 14.2811 11.7862 14.3663 12.0007 14.3663C12.2152 14.3663 12.4209 14.2811 12.5726 14.1294C12.7243 13.9777 12.8095 13.772 12.8095 13.5574V12.8521C13.3279 12.7019 13.7942 12.4102 14.1561 12.0098C14.518 11.6094 14.7612 11.1161 14.8585 10.5852C14.9557 10.0543 14.9032 9.50681 14.7067 9.00411C14.5103 8.50141 14.1777 8.06337 13.7462 7.7391C13.3148 7.41483 12.8015 7.21716 12.264 7.16824C11.7265 7.11932 11.186 7.22109 10.7031 7.46214C10.2202 7.70318 9.81399 8.07398 9.53 8.53296C9.24602 8.99193 9.09551 9.52094 9.09532 10.0607C9.09532 10.2752 9.18054 10.4809 9.33223 10.6326C9.48392 10.7843 9.68965 10.8695 9.90417 10.8695C10.1187 10.8695 10.3244 10.7843 10.4761 10.6326C10.6278 10.4809 10.713 10.2752 10.713 10.0607C10.713 9.80607 10.7886 9.55721 10.93 9.34553C11.0714 9.13384 11.2724 8.96882 11.5076 8.87134V8.87263ZM12.0007 17.8605C11.6935 17.8601 11.399 17.7378 11.182 17.5203C10.9651 17.3029 10.8434 17.0081 10.8437 16.7009C10.8441 16.3937 10.9664 16.0993 11.1839 15.8823C11.4013 15.6653 11.6961 15.5436 12.0033 15.544H12.0059C12.313 15.5443 12.6075 15.6667 12.8245 15.8841C13.0415 16.1016 13.1632 16.3963 13.1628 16.7035C13.1625 17.0107 13.0401 17.3052 12.8227 17.5221C12.6052 17.7391 12.3105 17.8608 12.0033 17.8605H12.0007Z" fill="#F9F8F7" fill-opacity="0.2"/>
</svg>
