<svg width="24" height="25" viewBox="0 0 24 25" fill="none" xmlns="http://www.w3.org/2000/svg">
<path fill-rule="evenodd" clip-rule="evenodd" d="M19.0319 4.29073C19.2655 4.19241 19.5212 4.1585 19.7724 4.19253C20.0236 4.22656 20.261 4.32729 20.46 4.48423C20.659 4.64117 20.8124 4.84858 20.904 5.08489C20.9957 5.32119 21.0223 5.57774 20.9812 5.82784L18.8372 18.8328C18.6292 20.0872 17.2528 20.8066 16.1023 20.1817C15.14 19.659 13.7107 18.8536 12.425 18.0132C11.7822 17.5925 9.81306 16.2454 10.0551 15.2868C10.263 14.4672 13.5717 11.3873 15.4624 9.55622C16.2044 8.83683 15.866 8.42183 14.9897 9.08356C12.8135 10.7265 9.31959 13.2251 8.1644 13.9284C7.14533 14.5485 6.61405 14.6544 5.97879 14.5485C4.81982 14.3557 3.74498 14.0569 2.86771 13.693C1.68226 13.2014 1.73993 11.5717 2.86676 11.0971L19.0319 4.29073Z" fill="#F9F8F7" fill-opacity="0.2"/>
</svg>
