<svg width="24" height="24" viewBox="0 0 24 24" fill="none" xmlns="http://www.w3.org/2000/svg">
<path fill-rule="evenodd" clip-rule="evenodd" d="M19.0319 4.11104C19.2655 4.01272 19.5212 3.97881 19.7724 4.01284C20.0236 4.04687 20.261 4.1476 20.46 4.30454C20.659 4.46148 20.8124 4.6689 20.904 4.9052C20.9957 5.1415 21.0223 5.39806 20.9812 5.64815L18.8372 18.6531C18.6292 19.9075 17.2528 20.6269 16.1023 20.0021C15.14 19.4793 13.7107 18.6739 12.425 17.8335C11.7822 17.4128 9.81306 16.0657 10.0551 15.1071C10.263 14.2875 13.5717 11.2076 15.4624 9.37654C16.2044 8.65714 15.866 8.24214 14.9897 8.90387C12.8135 10.5469 9.31959 13.0454 8.1644 13.7487C7.14533 14.3688 6.61405 14.4747 5.97879 14.3688C4.81982 14.176 3.74498 13.8773 2.86771 13.5133C1.68226 13.0217 1.73993 11.392 2.86676 10.9174L19.0319 4.11104Z" fill="#F7F7F7"/>
</svg>
