<svg width="1392" height="467" viewBox="0 0 1392 467" fill="none" xmlns="http://www.w3.org/2000/svg">
<g clip-path="url(#clip0_611_11094)">
<g clip-path="url(#clip1_611_11094)">
<rect width="1392" height="466" transform="translate(0 0.96875)" fill="url(#paint0_radial_611_11094)"/>
<rect width="1392" height="466" transform="translate(0 0.96875)" fill="url(#paint1_radial_611_11094)"/>
<ellipse cx="234.366" cy="355.743" rx="417.902" ry="279.123" transform="rotate(29.1566 234.366 355.743)" fill="url(#paint2_radial_611_11094)" fill-opacity="0.9"/>
</g>
<g clip-path="url(#clip2_611_11094)">
<g opacity="0.25">
<mask id="mask0_611_11094" style="mask-type:alpha" maskUnits="userSpaceOnUse" x="-104" y="-272" width="852" height="1088">
<ellipse cx="322" cy="271.664" rx="426" ry="543.5" fill="url(#paint3_linear_611_11094)"/>
</mask>
<g mask="url(#mask0_611_11094)">
<path d="M-604.403 327.818L57.1 556.578L56.7795 557.487L-604.403 328.839V327.818Z" fill="white"/>
<path d="M-604.403 169.832L57.1448 471.58L56.7347 472.459L-604.403 170.898V169.832Z" fill="white"/>
<path d="M-604.403 11.8333L57.1821 386.583L56.6974 387.425L-604.403 12.951V11.8333Z" fill="white"/>
<path d="M-604.403 -146.159L57.2119 301.592L56.6676 302.39L-604.403 -144.99V-146.159Z" fill="white"/>
<path d="M-604.403 -304.161L57.2417 216.6L56.6378 217.36L-604.403 -302.932V-304.161Z" fill="white"/>
<path d="M-604.403 -462.168L57.2641 131.603L56.6154 132.326L-604.403 -460.864V-462.168Z" fill="white"/>
<path d="M-604.403 -620.168L57.2791 46.613L56.5931 47.291L-604.403 -618.797V-620.168Z" fill="white"/>
<path d="M57.4198 1194.71H56.4512V46.9552H57.4198V1194.71Z" fill="white"/>
<path d="M30.1014 1194.71H29.1328V19.3727H30.1014V1194.71Z" fill="white"/>
<path d="M1.6346 1194.71H0.666016V-9.46912H1.6346V1194.71Z" fill="white"/>
<path d="M1066.75 387.626H56.9285V386.657H1066.75V387.626Z" fill="white"/>
<path d="M1066.75 302.576H56.9285V301.608H1066.75V302.576Z" fill="white"/>
<path d="M1066.75 217.533H56.9285V216.565H1066.75V217.533Z" fill="white"/>
<path d="M1066.75 132.484H56.9285V131.515H1066.75V132.484Z" fill="white"/>
<path d="M1066.75 47.4404H56.9285V46.4719H1066.75V47.4404Z" fill="white"/>
<path d="M722.779 1194.71H721.811V46.9552H722.779V1194.71Z" fill="white"/>
<path d="M639.615 1194.71H638.646V47.0818H639.615V1194.71Z" fill="white"/>
<path d="M556.452 1194.71H555.483V45.4502H556.452V1194.71Z" fill="white"/>
<path d="M473.281 1194.71H472.312V47.0818H473.281V1194.71Z" fill="white"/>
<path d="M390.118 1194.71H389.149V47.0818H390.118V1194.71Z" fill="white"/>
<path d="M306.954 1194.71H305.985V46.9552H306.954V1194.71Z" fill="white"/>
<path d="M223.782 1194.71H222.813V47.0818H223.782V1194.71Z" fill="white"/>
<path d="M140.621 1194.71H139.652V46.9478H140.621V1194.71Z" fill="white"/>
<path d="M57.4127 1194.71H56.4441V46.9552H57.4127V1194.71Z" fill="white"/>
<path d="M1066.75 19.7686H29.6182V18.7999H1066.75V19.7686Z" fill="white"/>
<path d="M1066.75 47.4331H56.9736V46.4645H1066.75V47.4331Z" fill="white"/>
<path d="M748.822 -627.015L972.253 46.7917L971.329 47.0972L747.808 -627.015H748.822Z" fill="white"/>
<path d="M625.397 -627.015L889.075 46.7695L888.173 47.1196L624.361 -627.015H625.397Z" fill="white"/>
<path d="M501.972 -627.016L805.905 46.7467L805.018 47.1416L500.914 -627.016H501.972Z" fill="white"/>
<path d="M378.548 -627.016L722.728 46.7245L721.863 47.1641L377.467 -627.016H378.548Z" fill="white"/>
<path d="M255.129 -627.015L639.549 46.7102L638.713 47.187L254.011 -627.015H255.129Z" fill="white"/>
<path d="M131.704 -627.015L556.378 46.6876L555.558 47.2017L130.563 -627.015H131.704Z" fill="white"/>
<path d="M8.27898 -627.015L473.192 46.6734L472.402 47.2173L7.1084 -627.015H8.27898Z" fill="white"/>
<path d="M-115.139 -627.016L390.022 46.6571L389.246 47.2383L-116.347 -627.016H-115.139Z" fill="white"/>
<path d="M-238.556 -627.016L306.844 46.6425L306.098 47.2534L-239.794 -627.016H-238.556Z" fill="white"/>
<path d="M-361.974 -627.015L223.665 46.6279L222.934 47.2612L-363.257 -627.015H-361.974Z" fill="white"/>
<path d="M-485.392 -627.016L140.494 46.6202L139.779 47.2759L-486.712 -627.016H-485.392Z" fill="white"/>
<path d="M-604.403 -622.567L57.3163 46.6056L56.6304 47.2837L-604.403 -621.189V-622.567Z" fill="white"/>
</g>
</g>
</g>
</g>
<defs>
<radialGradient id="paint0_radial_611_11094" cx="0" cy="0" r="1" gradientUnits="userSpaceOnUse" gradientTransform="translate(22.2444 485.098) rotate(-39.4475) scale(812.334 1016.2)">
<stop stop-color="#F530E4"/>
<stop offset="0.38" stop-color="#7E1BFD"/>
<stop offset="0.77" stop-color="#4C1E98" stop-opacity="0.446602"/>
<stop offset="1" stop-color="#232047" stop-opacity="0"/>
</radialGradient>
<radialGradient id="paint1_radial_611_11094" cx="0" cy="0" r="1" gradientUnits="userSpaceOnUse" gradientTransform="translate(1408.31 489.395) rotate(-117.56) scale(393.16 780.574)">
<stop offset="0.012061" stop-color="#8A03A0"/>
<stop offset="0.428159" stop-color="#3D25BE" stop-opacity="0.34"/>
<stop offset="1" stop-color="#0B052A" stop-opacity="0"/>
</radialGradient>
<radialGradient id="paint2_radial_611_11094" cx="0" cy="0" r="1" gradientUnits="userSpaceOnUse" gradientTransform="translate(127.822 672.607) rotate(-94.8817) scale(525.531 733.703)">
<stop stop-color="#FFD0B6"/>
<stop offset="0.235951" stop-color="#FA7733" stop-opacity="0.9"/>
<stop offset="0.58259" stop-color="#E9318E" stop-opacity="0.45"/>
<stop offset="1" stop-color="#6A1BD4" stop-opacity="0"/>
</radialGradient>
<linearGradient id="paint3_linear_611_11094" x1="-35.325" y1="234.164" x2="668.5" y2="234.164" gradientUnits="userSpaceOnUse">
<stop stop-color="#D9D9D9"/>
<stop offset="1" stop-color="#737373" stop-opacity="0"/>
</linearGradient>
<clipPath id="clip0_611_11094">
<rect width="1392" height="466" fill="white" transform="translate(0 0.96875)"/>
</clipPath>
<clipPath id="clip1_611_11094">
<rect width="1392" height="466" fill="white" transform="translate(0 0.96875)"/>
</clipPath>
<clipPath id="clip2_611_11094">
<rect width="876" height="465" fill="white" transform="translate(-24 1.16406)"/>
</clipPath>
</defs>
</svg>
