<svg width="1120" height="411" viewBox="0 0 1120 411" fill="none" xmlns="http://www.w3.org/2000/svg">
<g clip-path="url(#clip0_769_38477)">
<g clip-path="url(#clip1_769_38477)">
<rect width="1120" height="411" fill="url(#paint0_radial_769_38477)"/>
<rect width="1120" height="411" fill="url(#paint1_radial_769_38477)"/>
<ellipse cx="258.366" cy="354.775" rx="417.902" ry="279.123" transform="rotate(29.1566 258.366 354.775)" fill="url(#paint2_radial_769_38477)" fill-opacity="0.9"/>
</g>
<g clip-path="url(#clip2_769_38477)">
<g opacity="0.25">
<mask id="mask0_769_38477" style="mask-type:alpha" maskUnits="userSpaceOnUse" x="-80" y="-273" width="852" height="1088">
<ellipse cx="346" cy="270.695" rx="426" ry="543.5" fill="url(#paint3_linear_769_38477)"/>
</mask>
<g mask="url(#mask0_769_38477)">
<path d="M-580.403 326.85L81.1 555.61L80.7795 556.519L-580.403 327.87V326.85Z" fill="white"/>
<path d="M-580.403 168.864L81.1448 470.611L80.7347 471.49L-580.403 169.929V168.864Z" fill="white"/>
<path d="M-580.403 10.8646L81.1821 385.614L80.6974 386.456L-580.403 11.9822V10.8646Z" fill="white"/>
<path d="M-580.403 -147.129L81.2119 300.623L80.6676 301.42L-580.403 -145.959V-147.129Z" fill="white"/>
<path d="M-580.403 -305.13L81.2417 215.632L80.6378 216.392L-580.403 -303.901V-305.13Z" fill="white"/>
<path d="M-580.403 -463.137L81.2641 130.635L80.6154 131.357L-580.403 -461.833V-463.137Z" fill="white"/>
<path d="M-580.403 -621.137L81.2791 45.6442L80.5931 46.3223L-580.403 -619.766V-621.137Z" fill="white"/>
<path d="M81.4198 1193.74H80.4512V45.9865H81.4198V1193.74Z" fill="white"/>
<path d="M54.1014 1193.74H53.1328V18.4039H54.1014V1193.74Z" fill="white"/>
<path d="M25.6346 1193.74H24.666V-10.4379H25.6346V1193.74Z" fill="white"/>
<path d="M1090.75 386.658H80.9285V385.689H1090.75V386.658Z" fill="white"/>
<path d="M1090.75 301.607H80.9285V300.638H1090.75V301.607Z" fill="white"/>
<path d="M1090.75 216.564H80.9285V215.596H1090.75V216.564Z" fill="white"/>
<path d="M1090.75 131.515H80.9285V130.547H1090.75V131.515Z" fill="white"/>
<path d="M1090.75 46.4717H80.9285V45.5031H1090.75V46.4717Z" fill="white"/>
<path d="M746.779 1193.74H745.811V45.9865H746.779V1193.74Z" fill="white"/>
<path d="M663.615 1193.74H662.646V46.113H663.615V1193.74Z" fill="white"/>
<path d="M580.452 1193.74H579.483V44.4814H580.452V1193.74Z" fill="white"/>
<path d="M497.281 1193.74H496.312V46.113H497.281V1193.74Z" fill="white"/>
<path d="M414.118 1193.74H413.149V46.113H414.118V1193.74Z" fill="white"/>
<path d="M330.954 1193.74H329.985V45.9865H330.954V1193.74Z" fill="white"/>
<path d="M247.782 1193.74H246.813V46.113H247.782V1193.74Z" fill="white"/>
<path d="M164.621 1193.74H163.652V45.979H164.621V1193.74Z" fill="white"/>
<path d="M81.4127 1193.74H80.4441V45.9865H81.4127V1193.74Z" fill="white"/>
<path d="M1090.75 18.7998H53.6182V17.8312H1090.75V18.7998Z" fill="white"/>
<path d="M1090.75 46.4644H80.9736V45.4957H1090.75V46.4644Z" fill="white"/>
<path d="M772.822 -627.984L996.253 45.8229L995.329 46.1284L771.808 -627.984H772.822Z" fill="white"/>
<path d="M649.397 -627.984L913.075 45.8007L912.173 46.1509L648.361 -627.984H649.397Z" fill="white"/>
<path d="M525.972 -627.984L829.905 45.7779L829.018 46.1729L524.914 -627.984H525.972Z" fill="white"/>
<path d="M402.548 -627.984L746.728 45.7557L745.863 46.1953L401.467 -627.984H402.548Z" fill="white"/>
<path d="M279.129 -627.984L663.549 45.7414L662.713 46.2183L278.011 -627.984H279.129Z" fill="white"/>
<path d="M155.704 -627.984L580.378 45.7189L579.558 46.2329L154.563 -627.984H155.704Z" fill="white"/>
<path d="M32.279 -627.983L497.192 45.7046L496.402 46.2485L31.1084 -627.983H32.279Z" fill="white"/>
<path d="M-91.1388 -627.985L414.022 45.6884L413.246 46.2695L-92.3467 -627.985H-91.1388Z" fill="white"/>
<path d="M-214.556 -627.984L330.844 45.6737L330.098 46.2847L-215.794 -627.984H-214.556Z" fill="white"/>
<path d="M-337.974 -627.984L247.665 45.6592L246.934 46.2925L-339.257 -627.984H-337.974Z" fill="white"/>
<path d="M-461.392 -627.984L164.494 45.6515L163.779 46.3071L-462.712 -627.984H-461.392Z" fill="white"/>
<path d="M-580.403 -623.536L81.3163 45.6369L80.6304 46.3149L-580.403 -622.157V-623.536Z" fill="white"/>
</g>
</g>
</g>
</g>
<defs>
<radialGradient id="paint0_radial_769_38477" cx="0" cy="0" r="1" gradientUnits="userSpaceOnUse" gradientTransform="translate(17.8978 427.844) rotate(-42.0481) scale(679.676 861.875)">
<stop stop-color="#F530E4"/>
<stop offset="0.38" stop-color="#7E1BFD"/>
<stop offset="0.77" stop-color="#4C1E98" stop-opacity="0.446602"/>
<stop offset="1" stop-color="#232047" stop-opacity="0"/>
</radialGradient>
<radialGradient id="paint1_radial_769_38477" cx="0" cy="0" r="1" gradientUnits="userSpaceOnUse" gradientTransform="translate(1133.12 431.634) rotate(-115.46) scale(340.473 639.639)">
<stop offset="0.012061" stop-color="#8A03A0"/>
<stop offset="0.428159" stop-color="#3D25BE" stop-opacity="0.34"/>
<stop offset="1" stop-color="#0B052A" stop-opacity="0"/>
</radialGradient>
<radialGradient id="paint2_radial_769_38477" cx="0" cy="0" r="1" gradientUnits="userSpaceOnUse" gradientTransform="translate(151.822 671.638) rotate(-94.8817) scale(525.531 733.703)">
<stop stop-color="#FFD0B6"/>
<stop offset="0.235951" stop-color="#FA7733" stop-opacity="0.9"/>
<stop offset="0.58259" stop-color="#E9318E" stop-opacity="0.45"/>
<stop offset="1" stop-color="#6A1BD4" stop-opacity="0"/>
</radialGradient>
<linearGradient id="paint3_linear_769_38477" x1="-11.325" y1="233.195" x2="692.5" y2="233.195" gradientUnits="userSpaceOnUse">
<stop stop-color="#D9D9D9"/>
<stop offset="1" stop-color="#737373" stop-opacity="0"/>
</linearGradient>
<clipPath id="clip0_769_38477">
<rect width="1124" height="411" fill="white"/>
</clipPath>
<clipPath id="clip1_769_38477">
<rect width="1120" height="411" fill="white"/>
</clipPath>
<clipPath id="clip2_769_38477">
<rect width="876" height="465" fill="white" transform="translate(0 0.195312)"/>
</clipPath>
</defs>
</svg>
