<svg width="608" height="356" viewBox="0 0 608 356" fill="none" xmlns="http://www.w3.org/2000/svg">
<g clip-path="url(#clip0_1082_35420)">
<g clip-path="url(#clip1_1082_35420)">
<rect width="608" height="356" fill="url(#paint0_radial_1082_35420)"/>
<rect width="608" height="356" fill="url(#paint1_radial_1082_35420)"/>
<ellipse cx="160.777" cy="210.616" rx="230.398" ry="153.886" transform="rotate(29.1566 160.777 210.616)" fill="url(#paint2_radial_1082_35420)" fill-opacity="0.9"/>
</g>
<g clip-path="url(#clip2_1082_35420)">
<g opacity="0.25">
<mask id="mask0_1082_35420" style="mask-type:alpha" maskUnits="userSpaceOnUse" x="-58" y="-101" width="530" height="558">
<ellipse cx="207" cy="178.18" rx="264.231" ry="278.82" fill="url(#paint3_linear_1082_35420)"/>
</mask>
<g mask="url(#mask0_1082_35420)">
<path d="M-380.787 327.607L56.5421 430.599L56.3992 431.22L-380.787 328.263V327.607Z" fill="white"/>
<path d="M-380.787 223.153L56.5767 374.402L56.3648 375.003L-380.787 223.828V223.153Z" fill="white"/>
<path d="M-380.787 118.698L56.6063 318.203L56.3352 318.784L-380.787 119.402V118.698Z" fill="white"/>
<path d="M-380.787 14.2338L56.6309 262.006L56.3105 262.562L-380.787 14.9727V14.2338Z" fill="white"/>
<path d="M-380.787 -90.226L56.6506 205.813L56.2908 206.34L-380.787 -89.4526V-90.226Z" fill="white"/>
<path d="M-380.787 -194.691L56.6704 149.62L56.2711 150.122L-380.787 -193.878V-194.691Z" fill="white"/>
<path d="M-380.787 -299.16L56.6852 93.4216L56.2563 93.8994L-380.787 -298.298V-299.16Z" fill="white"/>
<path d="M-380.787 -403.624L56.6951 37.2294L56.2415 37.6777L-380.787 -402.718V-403.624Z" fill="white"/>
<path d="M56.7882 796.313H56.1478V37.4553H56.7882V796.313Z" fill="white"/>
<path d="M38.7262 796.313H38.0858V19.2186H38.7262V796.313Z" fill="white"/>
<path d="M19.9046 796.313H19.2642V0.149353H19.9046V796.313Z" fill="white"/>
<path d="M0.304918 796.313H-0.33548V-19.6392H0.304918V796.313Z" fill="white"/>
<path d="M724.124 318.924H56.4635V318.283H724.124V318.924Z" fill="white"/>
<path d="M724.124 262.696H56.4635V262.056H724.124V262.696Z" fill="white"/>
<path d="M724.124 206.463H56.4635V205.822H724.124V206.463Z" fill="white"/>
<path d="M724.124 150.236H56.4635V149.596H724.124V150.236Z" fill="white"/>
<path d="M724.124 94.0049H56.4635V93.3645H724.124V94.0049Z" fill="white"/>
<path d="M724.124 37.7764H56.4635V37.136H724.124V37.7764Z" fill="white"/>
<path d="M441.717 796.313H441.076V37.5389H441.717V796.313Z" fill="white"/>
<path d="M386.732 796.313H386.092V36.4602H386.732V796.313Z" fill="white"/>
<path d="M331.742 796.313H331.102V37.5389H331.742V796.313Z" fill="white"/>
<path d="M276.757 796.313H276.117V37.5389H276.757V796.313Z" fill="white"/>
<path d="M221.772 796.313H221.132V37.4553H221.772V796.313Z" fill="white"/>
<path d="M166.782 796.313H166.141V37.5389H166.782V796.313Z" fill="white"/>
<path d="M111.798 796.313H111.158V37.4503H111.798V796.313Z" fill="white"/>
<path d="M56.784 796.313H56.1436V37.4553H56.784V796.313Z" fill="white"/>
<path d="M724.124 0.446289H19.5856V-0.194138H724.124V0.446289Z" fill="white"/>
<path d="M724.125 19.4805H38.4072V18.84H724.125V19.4805Z" fill="white"/>
<path d="M724.124 37.7715H56.4935V37.1311H724.124V37.7715Z" fill="white"/>
<path d="M432.316 -408.152L606.651 37.332L606.055 37.5635L431.631 -408.152H432.316Z" fill="white"/>
<path d="M350.712 -408.152L551.662 37.317L551.075 37.5781L350.012 -408.152H350.712Z" fill="white"/>
<path d="M269.107 -408.153L496.668 37.3021L496.096 37.5928L268.393 -408.153H269.107Z" fill="white"/>
<path d="M187.507 -408.153L441.673 37.2921L441.12 37.6074L186.768 -408.153H187.507Z" fill="white"/>
<path d="M105.903 -408.152L386.683 37.2783L386.141 37.6182L105.149 -408.152H105.903Z" fill="white"/>
<path d="M24.2978 -408.152L331.683 37.2683L331.161 37.6279L23.5238 -408.152H24.2978Z" fill="white"/>
<path d="M-57.302 -408.153L276.693 37.2573L276.181 37.6416L-58.1006 -408.153H-57.302Z" fill="white"/>
<path d="M-138.902 -408.152L221.699 37.2484L221.206 37.6523L-139.72 -408.152H-138.902Z" fill="white"/>
<path d="M-220.502 -408.152L166.704 37.2385L166.221 37.6572L-221.349 -408.152H-220.502Z" fill="white"/>
<path d="M-302.101 -408.153L111.714 37.2325L111.241 37.666L-302.974 -408.153H-302.101Z" fill="white"/>
<path d="M-380.788 -405.211L56.7197 37.2236L56.2662 37.6719L-380.788 -404.3V-405.211Z" fill="white"/>
</g>
</g>
</g>
</g>
<defs>
<radialGradient id="paint0_radial_1082_35420" cx="0" cy="0" r="1" gradientUnits="userSpaceOnUse" gradientTransform="translate(14 346.5) rotate(-57.47) scale(410.978 588.732)">
<stop stop-color="#F530E4"/>
<stop offset="0.38" stop-color="#7E1BFD"/>
<stop offset="0.77" stop-color="#4C1E98" stop-opacity="0.446602"/>
<stop offset="1" stop-color="#232047" stop-opacity="0"/>
</radialGradient>
<radialGradient id="paint1_radial_1082_35420" cx="0" cy="0" r="1" gradientUnits="userSpaceOnUse" gradientTransform="translate(615.125 373.873) rotate(-106.615) scale(277.872 368.524)">
<stop offset="0.012061" stop-color="#8A03A0"/>
<stop offset="0.428159" stop-color="#3D25BE" stop-opacity="0.34"/>
<stop offset="1" stop-color="#0B052A" stop-opacity="0"/>
</radialGradient>
<radialGradient id="paint2_radial_1082_35420" cx="0" cy="0" r="1" gradientUnits="userSpaceOnUse" gradientTransform="translate(102.038 385.309) rotate(-94.8817) scale(289.736 404.506)">
<stop stop-color="#FFD0B6"/>
<stop offset="0.235951" stop-color="#FA7733" stop-opacity="0.9"/>
<stop offset="0.58259" stop-color="#E9318E" stop-opacity="0.45"/>
<stop offset="1" stop-color="#6A1BD4" stop-opacity="0"/>
</radialGradient>
<linearGradient id="paint3_linear_1082_35420" x1="-14.6345" y1="158.942" x2="421.92" y2="158.942" gradientUnits="userSpaceOnUse">
<stop stop-color="#D9D9D9"/>
<stop offset="1" stop-color="#737373" stop-opacity="0"/>
</linearGradient>
<clipPath id="clip0_1082_35420">
<rect width="608" height="356" fill="white"/>
</clipPath>
<clipPath id="clip1_1082_35420">
<rect width="608" height="356" fill="white"/>
</clipPath>
<clipPath id="clip2_1082_35420">
<rect width="608" height="356" fill="white"/>
</clipPath>
</defs>
</svg>
