<svg width="416" height="586" viewBox="0 0 416 586" fill="none" xmlns="http://www.w3.org/2000/svg">
<g clip-path="url(#clip0_1076_30023)">
<g clip-path="url(#clip1_1076_30023)">
<rect width="416" height="586" fill="url(#paint0_radial_1076_30023)"/>
<ellipse cx="190.586" cy="440.809" rx="252.429" ry="168.601" transform="rotate(29.1566 190.586 440.809)" fill="url(#paint1_radial_1076_30023)" fill-opacity="0.9"/>
</g>
<g clip-path="url(#clip2_1076_30023)">
<g opacity="0.25">
<mask id="mask0_1076_30023" style="mask-type:alpha" maskUnits="userSpaceOnUse" x="-189" y="-49" width="695" height="888">
<ellipse cx="347.5" cy="443.5" rx="347.5" ry="443.5" transform="matrix(1 0 0 -1 -189 838.18)" fill="url(#paint2_linear_1076_30023)"/>
</mask>
<g mask="url(#mask0_1076_30023)">
<path d="M-361 -51.7871V-51.1788L47.9914 32.9757L48.1159 32.3904L-361 -51.7871Z" fill="white"/>
<path d="M-361 45.9209V46.5246L48.0238 85.5626L48.0837 84.9681L-361 45.9209Z" fill="white"/>
<path d="M-361 144.232L48.056 138.149L48.0514 137.55L-361 143.633V144.232Z" fill="white"/>
<path d="M-361 241.941L48.0883 190.727L48.0145 190.133L-361 241.337V241.941Z" fill="white"/>
<path d="M-361 339.653L48.1205 243.304L47.9868 242.724L-361 339.04V339.653Z" fill="white"/>
<path d="M-361 437.37L48.1529 295.878L47.9546 295.315L-361 436.739V437.37Z" fill="white"/>
<path d="M-361 535.087L48.1805 348.45L47.9269 347.906L-361 534.428V535.087Z" fill="white"/>
<path d="M-361 632.813L48.2036 401.023L47.9038 400.502L-361 632.121V632.813Z" fill="white"/>
<path d="M-361 730.535L48.222 453.592L47.8854 453.099L-361 729.812V730.535Z" fill="white"/>
<path d="M-361 828.262L48.2405 506.16L47.8669 505.69L-361 827.501V828.262Z" fill="white"/>
<path d="M-361 925.991L48.2543 558.732L47.8531 558.285L-361 925.185V925.991Z" fill="white"/>
<path d="M48.3513 -98.8203H47.7521V611.089H48.3513V-98.8203Z" fill="white"/>
<path d="M31.4546 -98.8203H30.8555V628.15H31.4546V-98.8203Z" fill="white"/>
<path d="M13.847 -98.8203H13.2479V645.989H13.847V-98.8203Z" fill="white"/>
<path d="M672.641 32.1553H48.0469V32.7544H672.641V32.1553Z" fill="white"/>
<path d="M672.641 84.7598H48.0469V85.3589H672.641V84.7598Z" fill="white"/>
<path d="M672.641 137.361H48.0469V137.96H672.641V137.361Z" fill="white"/>
<path d="M672.641 189.966H48.0469V190.565H672.641V189.966Z" fill="white"/>
<path d="M672.641 242.567H48.0469V243.167H672.641V242.567Z" fill="white"/>
<path d="M672.641 295.172H48.0469V295.771H672.641V295.172Z" fill="white"/>
<path d="M672.641 347.777H48.0469V348.376H672.641V347.777Z" fill="white"/>
<path d="M672.641 400.377H48.0469V400.976H672.641V400.377Z" fill="white"/>
<path d="M672.641 452.983H48.0469V453.583H672.641V452.983Z" fill="white"/>
<path d="M672.641 505.584H48.0469V506.183H672.641V505.584Z" fill="white"/>
<path d="M672.641 558.188H48.0469V558.788H672.641V558.188Z" fill="white"/>
<path d="M408.451 -98.8203H407.851V611.011H408.451V-98.8203Z" fill="white"/>
<path d="M357.012 -98.8203H356.413V612.02H357.012V-98.8203Z" fill="white"/>
<path d="M305.57 -98.8203H304.971V611.011H305.57V-98.8203Z" fill="white"/>
<path d="M254.131 -98.8203H253.532V611.011H254.131V-98.8203Z" fill="white"/>
<path d="M202.693 -98.8203H202.094V611.089H202.693V-98.8203Z" fill="white"/>
<path d="M151.25 -98.8203H150.651V611.011H151.25V-98.8203Z" fill="white"/>
<path d="M99.8128 -98.8203H99.2137V611.094H99.8128V-98.8203Z" fill="white"/>
<path d="M48.3471 -98.8203H47.748V611.089H48.3471V-98.8203Z" fill="white"/>
</g>
</g>
</g>
</g>
<defs>
<radialGradient id="paint0_radial_1076_30023" cx="0" cy="0" r="1" gradientUnits="userSpaceOnUse" gradientTransform="translate(-35.785 586) rotate(-48.1419) scale(458.168 438.792)">
<stop stop-color="#F530E4"/>
<stop offset="0.38" stop-color="#7E1BFD"/>
<stop offset="0.77" stop-color="#4C1E98" stop-opacity="0.446602"/>
<stop offset="1" stop-color="#232047" stop-opacity="0"/>
</radialGradient>
<radialGradient id="paint1_radial_1076_30023" cx="0" cy="0" r="1" gradientUnits="userSpaceOnUse" gradientTransform="translate(126.23 632.206) rotate(-94.8817) scale(317.441 443.185)">
<stop stop-color="#FFD0B6"/>
<stop offset="0.235951" stop-color="#FA7733" stop-opacity="0.9"/>
<stop offset="0.58259" stop-color="#E9318E" stop-opacity="0.45"/>
<stop offset="1" stop-color="#6A1BD4" stop-opacity="0"/>
</radialGradient>
<linearGradient id="paint2_linear_1076_30023" x1="286.5" y1="325.5" x2="296.434" y2="637.002" gradientUnits="userSpaceOnUse">
<stop stop-color="#D9D9D9"/>
<stop offset="1" stop-color="#737373" stop-opacity="0"/>
</linearGradient>
<clipPath id="clip0_1076_30023">
<rect width="416" height="586" fill="white"/>
</clipPath>
<clipPath id="clip1_1076_30023">
<rect width="416" height="586" fill="white"/>
</clipPath>
<clipPath id="clip2_1076_30023">
<rect width="416" height="587" fill="white" transform="matrix(1 0 0 -1 0 587)"/>
</clipPath>
</defs>
</svg>
