<svg width="110" height="97" viewBox="0 0 110 97" fill="none" xmlns="http://www.w3.org/2000/svg">
<mask id="mask0_1587_14525" style="mask-type:alpha" maskUnits="userSpaceOnUse" x="0" y="5" width="92" height="92">
<mask id="path-1-inside-1_1587_14525" fill="white">
<path fill-rule="evenodd" clip-rule="evenodd" d="M51.841 18.7695C52.492 18.7695 52.7608 17.9443 52.2295 17.5681C35.4231 5.66881 19.0059 1.69678 11.7172 8.98551L4.12451 16.578C-3.08506 23.7878 0.723347 39.9293 12.3233 56.5442C12.6972 57.0797 13.5269 56.8127 13.5269 56.1596V51.5628C13.5269 50.9591 14.0163 50.4697 14.62 50.4697H25.0045C25.6082 50.4697 26.0976 50.9591 26.0976 51.5628V61.9473C26.0976 62.551 25.6082 63.0404 25.0045 63.0404H18.6679C18.0987 63.0404 17.7866 63.7006 18.1525 64.1366C20.3253 66.726 22.6765 69.2956 25.1938 71.8129C46.2644 92.8836 70.9939 102.316 80.4285 92.8818L80.4818 92.8282L87.9847 85.3253L88.0209 85.2892C92.1167 81.1935 92.6567 74.2152 90.2323 65.9052C90.2087 65.8241 90.1289 65.7732 90.0444 65.7732V65.7732H79.788C79.4154 65.7732 79.1133 66.0752 79.1133 66.4479V73.9715C79.1133 74.5752 78.6239 75.0646 78.0202 75.0646H69.8219C69.2182 75.0646 68.7288 74.5752 68.7288 73.9715V65.7732C68.7288 65.1695 69.2182 64.6801 69.8219 64.6801H77.3455C77.7181 64.6801 78.0202 64.378 78.0202 64.0053V53.749C78.0202 53.1453 78.5096 52.6559 79.1133 52.6559H83.3012C83.8181 52.6559 84.1426 52.0998 83.8819 51.6535C79.7118 44.5156 73.9791 37.0815 66.952 30.0544C63.9545 27.057 60.883 24.2951 57.7921 21.7895C57.3541 21.4344 56.7046 21.7483 56.7046 22.3121V28.0609C56.7046 28.6647 56.2152 29.1541 55.6115 29.1541H47.4132C46.8095 29.1541 46.3201 28.6647 46.3201 28.0609V19.8626C46.3201 19.2589 46.8095 18.7695 47.4132 18.7695H51.841Z"/>
</mask>
<path fill-rule="evenodd" clip-rule="evenodd" d="M51.841 18.7695C52.492 18.7695 52.7608 17.9443 52.2295 17.5681C35.4231 5.66881 19.0059 1.69678 11.7172 8.98551L4.12451 16.578C-3.08506 23.7878 0.723347 39.9293 12.3233 56.5442C12.6972 57.0797 13.5269 56.8127 13.5269 56.1596V51.5628C13.5269 50.9591 14.0163 50.4697 14.62 50.4697H25.0045C25.6082 50.4697 26.0976 50.9591 26.0976 51.5628V61.9473C26.0976 62.551 25.6082 63.0404 25.0045 63.0404H18.6679C18.0987 63.0404 17.7866 63.7006 18.1525 64.1366C20.3253 66.726 22.6765 69.2956 25.1938 71.8129C46.2644 92.8836 70.9939 102.316 80.4285 92.8818L80.4818 92.8282L87.9847 85.3253L88.0209 85.2892C92.1167 81.1935 92.6567 74.2152 90.2323 65.9052C90.2087 65.8241 90.1289 65.7732 90.0444 65.7732V65.7732H79.788C79.4154 65.7732 79.1133 66.0752 79.1133 66.4479V73.9715C79.1133 74.5752 78.6239 75.0646 78.0202 75.0646H69.8219C69.2182 75.0646 68.7288 74.5752 68.7288 73.9715V65.7732C68.7288 65.1695 69.2182 64.6801 69.8219 64.6801H77.3455C77.7181 64.6801 78.0202 64.378 78.0202 64.0053V53.749C78.0202 53.1453 78.5096 52.6559 79.1133 52.6559H83.3012C83.8181 52.6559 84.1426 52.0998 83.8819 51.6535C79.7118 44.5156 73.9791 37.0815 66.952 30.0544C63.9545 27.057 60.883 24.2951 57.7921 21.7895C57.3541 21.4344 56.7046 21.7483 56.7046 22.3121V28.0609C56.7046 28.6647 56.2152 29.1541 55.6115 29.1541H47.4132C46.8095 29.1541 46.3201 28.6647 46.3201 28.0609V19.8626C46.3201 19.2589 46.8095 18.7695 47.4132 18.7695H51.841Z" fill="url(#paint0_linear_1587_14525)"/>
<path d="M11.7172 8.98551L14.1026 11.371L14.1026 11.371L11.7172 8.98551ZM4.12451 16.578L1.73907 14.1925L1.73901 14.1926L4.12451 16.578ZM25.1938 71.8129L22.8083 74.1983L22.8083 74.1983L25.1938 71.8129ZM80.4285 92.8818L82.814 95.2673L82.8222 95.2591L80.4285 92.8818ZM80.4818 92.8282L78.0963 90.4427L78.0882 90.4509L80.4818 92.8282ZM87.9847 85.3253L85.6048 82.9342L85.5992 82.9398L87.9847 85.3253ZM88.0209 85.2892L90.4008 87.6803L90.4064 87.6747L88.0209 85.2892ZM66.952 30.0544L64.5665 32.4399L64.5665 32.4399L66.952 30.0544ZM57.7921 21.7895L59.9165 19.1688L57.7921 21.7895ZM83.8819 51.6535L80.969 53.3553L83.8819 51.6535ZM18.1525 64.1366L15.5682 66.3051L18.1525 64.1366ZM12.3233 56.5442L9.55723 58.4754L12.3233 56.5442ZM90.2323 65.9052L93.4709 64.9604L90.2323 65.9052ZM52.2295 17.5681L50.2801 20.3214L52.2295 17.5681ZM14.1026 11.371C16.5447 8.92895 21.0173 7.90689 27.6777 9.3757C34.2231 10.8192 42.1161 14.5411 50.2801 20.3214L54.1789 14.8148C45.5365 8.69576 36.8176 4.48208 29.1307 2.78689C21.5587 1.11705 14.1784 1.75334 9.3317 6.60004L14.1026 11.371ZM6.50996 18.9635L14.1026 11.371L9.33173 6.60001L1.73907 14.1925L6.50996 18.9635ZM15.0895 54.613C9.45639 46.5446 5.84773 38.7698 4.46921 32.3282C3.06753 25.7784 4.09481 21.3787 6.51002 18.9635L1.73901 14.1926C-3.05536 18.9871 -3.72866 26.2631 -2.12853 33.7402C-0.505248 41.3255 3.5903 49.9288 9.55723 58.4754L15.0895 54.613ZM10.1533 51.5628V56.1596H16.9004V51.5628H10.1533ZM14.62 47.0961C12.1531 47.0961 10.1533 49.0959 10.1533 51.5628H16.9004C16.9004 52.8222 15.8794 53.8432 14.62 53.8432V47.0961ZM25.0045 47.0961H14.62V53.8432H25.0045V47.0961ZM29.4712 51.5628C29.4712 49.0959 27.4714 47.0961 25.0045 47.0961V53.8432C23.745 53.8432 22.724 52.8222 22.724 51.5628H29.4712ZM29.4712 61.9473V51.5628H22.724V61.9473H29.4712ZM25.0045 66.414C27.4714 66.414 29.4712 64.4142 29.4712 61.9473H22.724C22.724 60.6878 23.745 59.6668 25.0045 59.6668V66.414ZM18.6679 66.414H25.0045V59.6668H18.6679V66.414ZM27.5792 69.4274C25.1307 66.9788 22.8459 64.4817 20.7368 61.9681L15.5682 66.3051C17.8046 68.9704 20.2222 71.6123 22.8083 74.1983L27.5792 69.4274ZM78.0431 90.4963C76.4545 92.0849 74.0563 93.0649 70.6849 93.1609C67.2889 93.2576 63.1094 92.4399 58.377 90.6348C48.9202 87.0276 37.8586 79.7067 27.5792 69.4274L22.8083 74.1983C33.5996 84.9897 45.4381 92.9207 55.9723 96.9389C61.2355 98.9465 66.3242 100.035 70.877 99.9053C75.4543 99.7749 79.6853 98.396 82.814 95.2673L78.0431 90.4963ZM78.0882 90.4509L78.0349 90.5045L82.8222 95.2591L82.8754 95.2055L78.0882 90.4509ZM85.5992 82.9398L78.0963 90.4427L82.8673 95.2136L90.3702 87.7107L85.5992 82.9398ZM85.641 82.8982L85.6048 82.9343L90.3646 87.7163L90.4008 87.6803L85.641 82.8982ZM86.9938 66.85C89.3138 74.8025 88.3866 80.1526 85.6354 82.9038L90.4064 87.6747C95.8467 82.2344 95.9995 73.6279 93.4709 64.9604L86.9938 66.85ZM90.0444 62.3996H79.788V69.1467H90.0444V62.3996ZM75.7398 66.4479V73.9715H82.4869V66.4479H75.7398ZM75.7398 73.9715C75.7398 72.712 76.7608 71.691 78.0202 71.691V78.4381C80.4871 78.4381 82.4869 76.4384 82.4869 73.9715H75.7398ZM78.0202 71.691H69.8219V78.4381H78.0202V71.691ZM69.8219 71.691C71.0814 71.691 72.1024 72.712 72.1024 73.9715H65.3552C65.3552 76.4383 67.355 78.4381 69.8219 78.4381V71.691ZM72.1024 73.9715V65.7732H65.3552V73.9715H72.1024ZM72.1024 65.7732C72.1024 67.0326 71.0814 68.0536 69.8219 68.0536V61.3065C67.355 61.3065 65.3552 63.3063 65.3552 65.7732H72.1024ZM69.8219 68.0536H77.3455V61.3065H69.8219V68.0536ZM81.3938 64.0053V53.749H74.6466V64.0053H81.3938ZM81.3938 53.749C81.3938 55.0084 80.3728 56.0294 79.1133 56.0294V49.2823C76.6464 49.2823 74.6466 51.2821 74.6466 53.749H81.3938ZM79.1133 56.0294H83.3012V49.2823H79.1133V56.0294ZM64.5665 32.4399C71.408 39.2814 76.9575 46.4888 80.969 53.3553L86.7948 49.9517C82.4661 42.5424 76.5502 34.8817 69.3374 27.669L64.5665 32.4399ZM55.6677 24.4102C58.6663 26.8409 61.6508 29.5242 64.5665 32.4399L69.3374 27.669C66.2583 24.5898 63.0998 21.7493 59.9165 19.1688L55.6677 24.4102ZM53.331 22.3121V28.0609H60.0782V22.3121H53.331ZM53.331 28.0609C53.331 26.8015 54.352 25.7805 55.6115 25.7805V32.5276C58.0784 32.5276 60.0782 30.5278 60.0782 28.0609H53.331ZM55.6115 25.7805H47.4132V32.5276H55.6115V25.7805ZM47.4132 25.7805C48.6727 25.7805 49.6937 26.8015 49.6937 28.0609H42.9465C42.9465 30.5278 44.9463 32.5276 47.4132 32.5276V25.7805ZM49.6937 28.0609V19.8626H42.9465V28.0609H49.6937ZM49.6937 19.8626C49.6937 21.1221 48.6727 22.1431 47.4132 22.1431V15.396C44.9463 15.396 42.9465 17.3958 42.9465 19.8626H49.6937ZM47.4132 22.1431H51.841V15.396H47.4132V22.1431ZM59.9165 19.1688C57.2405 16.9996 53.331 18.9515 53.331 22.3121H60.0782C60.0782 24.5451 57.4676 25.8692 55.6677 24.4102L59.9165 19.1688ZM83.3012 56.0294C86.3758 56.0294 88.393 52.6874 86.7948 49.9517L80.969 53.3553C79.8922 51.5121 81.2603 49.2823 83.3012 49.2823V56.0294ZM18.6679 59.6668C15.2748 59.6668 13.3336 63.642 15.5682 66.3051L20.7368 61.9681C22.2396 63.7592 20.9226 66.414 18.6679 66.414V59.6668ZM79.788 62.3996C77.5522 62.3996 75.7398 64.2121 75.7398 66.4479H82.4869C82.4869 67.9384 81.2786 69.1467 79.788 69.1467V62.3996ZM77.3455 68.0536C79.5813 68.0536 81.3938 66.2411 81.3938 64.0053H74.6466C74.6466 62.5148 75.855 61.3065 77.3455 61.3065V68.0536ZM9.55723 58.4754C11.8669 61.7836 16.9004 60.032 16.9004 56.1596H10.1533C10.1533 53.5934 13.5276 52.3758 15.0895 54.613L9.55723 58.4754ZM93.4709 64.9604C92.96 63.2091 91.3731 62.3996 90.0444 62.3996V69.1467C88.8847 69.1467 87.4574 68.4391 86.9938 66.85L93.4709 64.9604ZM50.2801 20.3214C48.059 18.7488 49.2864 15.396 51.841 15.396V22.1431C55.6976 22.1431 57.4627 17.1397 54.1789 14.8148L50.2801 20.3214Z" fill="#FF7C51" mask="url(#path-1-inside-1_1587_14525)"/>
</mask>
<g mask="url(#mask0_1587_14525)">
<mask id="mask1_1587_14525" style="mask-type:alpha" maskUnits="userSpaceOnUse" x="0" y="8" width="89" height="89">
<path d="M82.8628 82.5154L85.6355 85.2881L79.2894 91.6342L79.2812 91.6425L79.2362 91.6878C77.2625 93.6614 74.4061 94.7411 70.7333 94.8457C67.0481 94.9507 62.6413 94.0653 57.7762 92.2096C48.05 88.4996 36.7942 81.0262 26.3869 70.6189C15.9796 60.2116 8.50617 48.9558 4.79613 39.2296C2.94034 34.3645 2.05494 29.9576 2.15984 26.2724C2.2644 22.5996 3.34405 19.7432 5.31761 17.7695C5.31762 17.7695 5.31763 17.7695 5.31763 17.7695L11.7173 11.3698L14.4904 14.1429L14.9484 14.601L15.5954 14.6347C21.1785 14.9254 28.0958 17.2317 35.532 21.3849C42.9459 25.5256 50.7755 31.4468 58.1672 38.8385C65.5589 46.2302 71.4801 54.0599 75.6208 61.4737C79.7741 68.91 82.0804 75.8273 82.3711 81.4104L82.4047 82.0573L82.8628 82.5154Z" fill="url(#paint1_linear_1587_14525)" stroke="url(#paint2_linear_1587_14525)" stroke-width="3.37357"/>
</mask>
<g mask="url(#mask1_1587_14525)">
<path d="M15.6831 12.9502L11.7173 8.98438L4.12488 16.5768C-5.30956 26.0115 4.12352 50.741 25.1941 71.8116C46.2648 92.8823 70.9943 102.315 80.4289 92.8806C80.4467 92.8627 80.4645 92.8449 80.4822 92.8269L88.021 85.2881L84.0556 81.3226C83.4377 69.4548 74.3398 52.6257 59.36 37.6458C44.3801 22.6659 27.5509 13.5681 15.6831 12.9502Z" fill="url(#paint3_linear_1587_14525)"/>
</g>
<mask id="mask2_1587_14525" style="mask-type:alpha" maskUnits="userSpaceOnUse" x="8" y="5" width="84" height="84">
<path d="M12.9095 10.178C10.9358 12.1516 9.85615 15.008 9.75155 18.6809C9.6466 22.366 10.532 26.7729 12.3877 31.638C16.0977 41.3641 23.5711 52.62 33.9784 63.0273C44.3858 73.4346 55.6416 80.908 65.3678 84.618C70.2328 86.4737 74.6397 87.3591 78.3248 87.2542C81.9977 87.1496 84.8541 86.0699 86.8277 84.0962C88.8014 82.1226 89.8811 79.2662 89.9857 75.5934C90.0906 71.9082 89.2052 67.5013 87.3495 62.6363C83.6395 52.9101 76.1661 41.6543 65.7588 31.2469C55.3514 20.8396 44.0956 13.3662 34.3694 9.65623C29.5044 7.80048 25.0975 6.91511 21.4124 7.02006C17.7395 7.12466 14.8831 8.20436 12.9095 10.178Z" fill="url(#paint4_linear_1587_14525)" stroke="#FF7C51" stroke-width="3.37357"/>
</mask>
<g mask="url(#mask2_1587_14525)">
<ellipse cx="53.9549" cy="24.1589" rx="53.9549" ry="24.1589" transform="matrix(-0.707107 -0.707107 -0.707107 0.707107 105.103 68.2061)" fill="url(#paint5_linear_1587_14525)"/>
<path d="M12.4324 9.70088C10.3047 11.8285 9.18514 14.8682 9.07711 18.6617C8.96886 22.4625 9.88132 26.9603 11.7573 31.8784C15.5084 41.7123 23.0428 53.0458 33.5013 63.5044C43.9599 73.9629 55.2934 81.4973 65.1273 85.2484C70.0454 87.1244 74.5432 88.0368 78.3441 87.9286C82.1375 87.8206 85.1772 86.701 87.3048 84.5733C89.4325 82.4457 90.5521 79.406 90.6601 75.6126C90.7683 71.8117 89.8559 67.314 87.9799 62.3958C84.2288 52.5619 76.6944 41.2284 66.2359 30.7698C55.7773 20.3113 44.4438 12.7769 34.6099 9.02583C29.6918 7.14983 25.194 6.23738 21.3932 6.34562C17.5997 6.45365 14.56 7.57325 12.4324 9.70088Z" stroke="#FF7C51" stroke-width="2.02414"/>
<ellipse cx="48.8369" cy="18.3587" rx="48.8369" ry="18.3587" transform="matrix(-0.707107 -0.707107 -0.707107 0.707107 98.4257 67.6475)" stroke="#AF4724" stroke-width="1.01207"/>
<path d="M28.2868 35.7123L29.7616 29.181C30.0379 27.9573 29.7313 26.6747 28.9315 25.7082L17.0819 11.3906" stroke="#AF4724" stroke-width="1.01207"/>
<path d="M14.0751 18.4941L31.371 39.5087C31.9674 40.2333 32.2935 41.1427 32.2935 42.0813V52.927" stroke="#AF4724" stroke-width="1.01207"/>
<path d="M47.9608 68.2314L57.3929 68.2314C58.1921 68.2314 58.9735 68.468 59.6385 68.9114L66.6169 73.5636C67.2819 74.007 68.0632 74.2435 68.8625 74.2435H77.1273C78.0591 74.2435 78.9622 74.5649 79.6845 75.1534L85.9463 80.2556" stroke="#AF4724" stroke-width="1.01207"/>
<ellipse cx="66.3312" cy="67.9167" rx="1.91294" ry="4.09915" transform="rotate(-41.8384 66.3312 67.9167)" stroke="#AF4724" stroke-width="1.01207"/>
<path d="M40.5829 14.6689L41.2134 20.133C41.3347 21.185 41.8635 22.1475 42.6862 22.8142L56.3477 33.8847C56.9391 34.364 57.6536 34.6667 58.4093 34.7583L66.2709 35.7113" stroke="#AF4724" stroke-width="1.01207"/>
</g>
</g>
<path d="M51.772 0.451338C51.9026 0.098252 52.402 0.0982519 52.5327 0.451338C53.1717 2.17814 54.5331 3.53963 56.26 4.1786C56.613 4.30926 56.613 4.80865 56.26 4.93931C54.5331 5.57828 53.1717 6.93977 52.5327 8.66657C52.402 9.01966 51.9026 9.01966 51.772 8.66657C51.133 6.93977 49.7715 5.57828 48.0447 4.93931C47.6916 4.80865 47.6916 4.30926 48.0447 4.1786C49.7715 3.53963 51.133 2.17814 51.772 0.451338Z" fill="url(#paint6_linear_1587_14525)"/>
<rect x="87.5215" y="50.1324" width="8.87302" height="8.87302" rx="1.01207" fill="url(#paint7_linear_1587_14525)" stroke="#FF7C51" stroke-width="0.674713"/>
<rect x="95.7188" y="37.0142" width="13.792" height="13.792" rx="1.01207" fill="url(#paint8_linear_1587_14525)" stroke="#FF7C51" stroke-width="0.674713"/>
<rect x="3.74223" y="61.2437" width="11.1873" height="11.1873" rx="1.01207" fill="url(#paint9_linear_1587_14525)" stroke="#FF7C51" stroke-width="0.674713"/>
<path d="M48.8934 32.2249L49.4521 33.3767C48.3291 32.9014 47.2123 32.5249 46.1243 32.2657C45.0113 32.0004 43.9945 31.8735 43.0834 31.8733L42.5166 30.7051C42.2071 30.067 42.5157 29.683 43.206 29.8475L47.083 30.7716C47.7733 30.9361 48.5838 31.5867 48.8934 32.2249Z" fill="url(#paint10_linear_1587_14525)"/>
<path d="M50.6552 39.7535C51.1709 39.3809 50.8113 38.3717 49.8521 37.4993C48.8929 36.6269 47.6973 36.2218 47.1817 36.5944C46.666 36.967 47.0256 37.9763 47.9848 38.8486C48.944 39.721 50.1396 40.1261 50.6552 39.7535Z" fill="url(#paint11_linear_1587_14525)"/>
<path d="M53.2371 38.5806C53.8602 39.1472 54.0608 39.7799 53.7456 40.0077C53.45 40.2213 52.678 40.0015 52.0549 39.4348C51.4318 38.8681 51.2312 38.2355 51.5464 38.0077C51.8814 37.7656 52.614 38.0139 53.2371 38.5806Z" fill="url(#paint12_linear_1587_14525)"/>
<path d="M45.7953 46.0468C46.4456 46.7048 47.16 47.3503 47.9315 47.9696C53.0635 52.0894 58.782 53.4908 60.7041 51.0998C61.5298 50.0725 61.5205 48.5124 60.8343 46.7402C59.5116 47.478 57.1646 47.8663 54.1677 47.7206C51.2187 47.5771 48.219 46.9446 45.7953 46.0468Z" fill="url(#paint13_linear_1587_14525)"/>
<path d="M53.347 46.5915C57.5896 46.7978 60.4067 46.0444 59.6391 44.9086C58.8715 43.7728 54.8099 42.6848 50.5673 42.4784C46.3246 42.272 43.5075 43.0255 44.2751 44.1613C45.0427 45.2971 49.1043 46.3851 53.347 46.5915Z" fill="url(#paint14_linear_1587_14525)"/>
<path fill-rule="evenodd" clip-rule="evenodd" d="M56.0615 38.5339C62.4244 43.6418 65.6185 50.2259 63.1956 53.2398C56.6567 61.3741 33.5191 42.9955 40.1535 34.7425C42.5764 31.7286 49.6986 33.426 56.0615 38.5339ZM55.501 39.2312C61.0508 43.6865 63.8367 49.4292 61.7235 52.0581C59.6102 54.6869 53.398 53.2063 47.8481 48.7511C42.2983 44.2959 39.5124 38.5532 41.6257 35.9243C43.7389 33.2955 49.9511 34.776 55.501 39.2312Z" fill="url(#paint15_linear_1587_14525)"/>
<rect x="56.1875" y="8.59428" width="8.87302" height="8.87302" rx="1.01207" fill="url(#paint16_linear_1587_14525)" stroke="#FF7C51" stroke-width="0.674713"/>
<defs>
<linearGradient id="paint0_linear_1587_14525" x1="61.6442" y1="87.9739" x2="49.8933" y2="7.90371" gradientUnits="userSpaceOnUse">
<stop stop-color="#FFE0EA"/>
<stop offset="0.225" stop-color="#FFD6C1"/>
<stop offset="0.735" stop-color="#FFBF65"/>
<stop offset="1" stop-color="#FF7B50"/>
</linearGradient>
<linearGradient id="paint1_linear_1587_14525" x1="84.0538" y1="90.1588" x2="74.4075" y2="8.12508" gradientUnits="userSpaceOnUse">
<stop stop-color="#FF7C51"/>
<stop offset="0.163935" stop-color="#EB6474"/>
<stop offset="0.65444" stop-color="#FFBF65"/>
<stop offset="1" stop-color="#EBECD9"/>
</linearGradient>
<linearGradient id="paint2_linear_1587_14525" x1="0.704375" y1="19.9267" x2="74.7624" y2="97.8106" gradientUnits="userSpaceOnUse">
<stop stop-color="#EDE9D1"/>
<stop offset="0.360529" stop-color="#FF7C51"/>
<stop offset="0.711797" stop-color="#ED6771"/>
<stop offset="1" stop-color="#FD7A56"/>
</linearGradient>
<linearGradient id="paint3_linear_1587_14525" x1="84.0538" y1="90.1588" x2="74.4075" y2="8.12508" gradientUnits="userSpaceOnUse">
<stop stop-color="#FF7C51"/>
<stop offset="0.163935" stop-color="#EB6474"/>
<stop offset="0.65444" stop-color="#FFBF65"/>
<stop offset="1" stop-color="#EBECD9"/>
</linearGradient>
<linearGradient id="paint4_linear_1587_14525" x1="61.6438" y1="87.9735" x2="49.8929" y2="7.90338" gradientUnits="userSpaceOnUse">
<stop stop-color="#FFE0EA"/>
<stop offset="0.225" stop-color="#FFD6C1"/>
<stop offset="0.735" stop-color="#FFBF65"/>
<stop offset="1" stop-color="#FF7B50"/>
</linearGradient>
<linearGradient id="paint5_linear_1587_14525" x1="16.7528" y1="44.7083" x2="81.6801" y2="-3.60073" gradientUnits="userSpaceOnUse">
<stop stop-color="#FFE0EA"/>
<stop offset="0.225" stop-color="#FFD6C1"/>
<stop offset="0.735" stop-color="#FFBF65"/>
<stop offset="1" stop-color="#FF7B50"/>
</linearGradient>
<linearGradient id="paint6_linear_1587_14525" x1="52.1522" y1="-0.576234" x2="52.1522" y2="9.69478" gradientUnits="userSpaceOnUse">
<stop stop-color="white"/>
<stop offset="0.755" stop-color="#E3FDFF"/>
</linearGradient>
<linearGradient id="paint7_linear_1587_14525" x1="89.1317" y1="58.0556" x2="96.0296" y2="55.7575" gradientUnits="userSpaceOnUse">
<stop stop-color="#FFE0EA"/>
<stop offset="0.225" stop-color="#FFD6C1"/>
<stop offset="0.735" stop-color="#FFBF65"/>
<stop offset="1" stop-color="#FF7B50"/>
</linearGradient>
<linearGradient id="paint8_linear_1587_14525" x1="98.0926" y1="49.4889" x2="109.129" y2="45.812" gradientUnits="userSpaceOnUse">
<stop stop-color="#FFE0EA"/>
<stop offset="0.225" stop-color="#FFD6C1"/>
<stop offset="0.735" stop-color="#FFBF65"/>
<stop offset="1" stop-color="#FF7B50"/>
</linearGradient>
<linearGradient id="paint9_linear_1587_14525" x1="5.71165" y1="71.3083" x2="14.5568" y2="68.3615" gradientUnits="userSpaceOnUse">
<stop stop-color="#FFE0EA"/>
<stop offset="0.225" stop-color="#FFD6C1"/>
<stop offset="0.735" stop-color="#FFBF65"/>
<stop offset="1" stop-color="#FF7B50"/>
</linearGradient>
<linearGradient id="paint10_linear_1587_14525" x1="43.5056" y1="25.9271" x2="36.783" y2="38.6443" gradientUnits="userSpaceOnUse">
<stop stop-color="#FF7B50"/>
<stop offset="1" stop-color="#E75409"/>
</linearGradient>
<linearGradient id="paint11_linear_1587_14525" x1="43.5056" y1="25.9271" x2="36.783" y2="38.6443" gradientUnits="userSpaceOnUse">
<stop stop-color="#FF7B50"/>
<stop offset="1" stop-color="#E75409"/>
</linearGradient>
<linearGradient id="paint12_linear_1587_14525" x1="43.5056" y1="25.9271" x2="36.783" y2="38.6443" gradientUnits="userSpaceOnUse">
<stop stop-color="#FF7B50"/>
<stop offset="1" stop-color="#E75409"/>
</linearGradient>
<linearGradient id="paint13_linear_1587_14525" x1="43.5056" y1="25.9271" x2="36.783" y2="38.6443" gradientUnits="userSpaceOnUse">
<stop stop-color="#FF7B50"/>
<stop offset="1" stop-color="#E75409"/>
</linearGradient>
<linearGradient id="paint14_linear_1587_14525" x1="43.5056" y1="25.9271" x2="36.783" y2="38.6443" gradientUnits="userSpaceOnUse">
<stop stop-color="#FF7B50"/>
<stop offset="1" stop-color="#E75409"/>
</linearGradient>
<linearGradient id="paint15_linear_1587_14525" x1="43.5056" y1="25.9271" x2="36.783" y2="38.6443" gradientUnits="userSpaceOnUse">
<stop stop-color="#FF7B50"/>
<stop offset="1" stop-color="#E75409"/>
</linearGradient>
<linearGradient id="paint16_linear_1587_14525" x1="57.7977" y1="16.5175" x2="64.6956" y2="14.2194" gradientUnits="userSpaceOnUse">
<stop stop-color="#FFE0EA"/>
<stop offset="0.225" stop-color="#FFD6C1"/>
<stop offset="0.735" stop-color="#FFBF65"/>
<stop offset="1" stop-color="#FF7B50"/>
</linearGradient>
</defs>
</svg>
