<svg width="449" height="649" viewBox="0 0 449 649" fill="none" xmlns="http://www.w3.org/2000/svg">
<mask id="mask0_1076_28672" style="mask-type:alpha" maskUnits="userSpaceOnUse" x="0" y="0" width="449" height="649">
<rect width="449" height="649" transform="matrix(1 0 0 -1 0 649)" fill="url(#paint0_linear_1076_28672)"/>
</mask>
<g mask="url(#mask0_1076_28672)">
<path d="M6 349.179L444 349.179" stroke="#3C356D"/>
<path d="M2 426.179H448" stroke="#3C356D"/>
<path d="M2 504.179H448" stroke="#3C356D"/>
<path d="M32.9374 326.781L417.5 326.781" stroke="#3C356D"/>
<path d="M56.9999 310.264L393.875 310.264" stroke="#3C356D"/>
<path d="M81.4999 292.925L368.937 292.925" stroke="#3C356D"/>
<path d="M94.1874 283.801L355.812 283.801" stroke="#3C356D"/>
<path d="M105.125 253.094H344.875" stroke="#3C356D"/>
<path d="M105.125 201.417H344.875" stroke="#3C356D"/>
<path d="M105.125 149.74H344.875" stroke="#3C356D"/>
<path d="M105.125 97.1069H344.875" stroke="#3C356D"/>
<path d="M105.125 45.4302H344.875" stroke="#3C356D"/>
<path d="M1.85852 1299.62L1.85852 364.323C1.85852 354.54 6.62883 345.372 14.6403 339.757L92.7779 284.992C100.789 279.377 105.56 270.208 105.56 260.425V-61.0444" stroke="#3C356D"/>
<path d="M448.143 1302.16V364.323C448.143 354.54 443.373 345.372 435.361 339.757L357.224 284.992C349.212 279.377 344.442 270.208 344.442 260.425V-61.0444" stroke="#3C356D"/>
<path d="M75.3141 1399.99V360.622C75.3141 352.882 78.3056 345.441 83.6632 339.855L136.716 284.542C142.074 278.956 145.065 271.516 145.065 263.776V-61.0444" stroke="#3C356D"/>
<path d="M374.688 1283.91V360.622C374.688 352.882 371.697 345.441 366.339 339.855L313.286 284.542C307.929 278.956 304.937 271.516 304.937 263.776V-61.0444" stroke="#3C356D"/>
<path d="M149.385 1349.81L149.385 355.409C149.385 350.802 150.447 346.256 152.487 342.125L182.086 282.188C184.126 278.057 185.187 273.512 185.187 268.905V-61.8208" stroke="#3C356D"/>
<path d="M300.616 1371.1V355.409C300.616 350.802 299.555 346.256 297.515 342.125L267.916 282.188C265.876 278.057 264.815 273.512 264.815 268.905V-61.8208" stroke="#3C356D"/>
<path d="M224.693 -61.0444L224.693 381.217L224.693 1292.02" stroke="#3C356D"/>
<path d="M2 581.179H448" stroke="#3C356D"/>
</g>
<defs>
<linearGradient id="paint0_linear_1076_28672" x1="224.5" y1="-9.41298" x2="224.5" y2="629.328" gradientUnits="userSpaceOnUse">
<stop stop-color="#D9D9D9" stop-opacity="0"/>
<stop offset="0.2" stop-color="#D9D9D9"/>
<stop offset="0.8" stop-color="#D9D9D9"/>
<stop offset="1" stop-color="#D9D9D9" stop-opacity="0"/>
</linearGradient>
</defs>
</svg>
