<svg width="448" height="562" viewBox="0 0 448 562" fill="none" xmlns="http://www.w3.org/2000/svg">
<mask id="mask0_1076_29443" style="mask-type:alpha" maskUnits="userSpaceOnUse" x="0" y="0" width="448" height="562">
<rect y="0.179688" width="448" height="561" fill="url(#paint0_linear_1076_29443)"/>
</mask>
<g mask="url(#mask0_1076_29443)">
<path d="M0.858521 59.6245L0.858521 -875.676C0.858521 -885.459 5.62883 -894.628 13.6403 -900.243L91.7779 -955.008C99.7893 -960.623 104.56 -969.791 104.56 -979.575V-1301.04" stroke="#3C356D"/>
<path d="M447.143 62.159V-875.676C447.143 -885.459 442.373 -894.628 434.361 -900.243L356.224 -955.008C348.212 -960.623 343.442 -969.791 343.442 -979.575V-1301.04" stroke="#3C356D"/>
<path d="M74.3141 159.99V-879.378C74.3141 -887.118 77.3056 -894.558 82.6632 -900.144L135.716 -955.457C141.074 -961.043 144.065 -968.484 144.065 -976.224V-1301.04" stroke="#3C356D"/>
<path d="M373.688 43.9108V-879.378C373.688 -887.118 370.697 -894.558 365.339 -900.144L312.286 -955.457C306.929 -961.043 303.937 -968.484 303.937 -976.224V-1301.04" stroke="#3C356D"/>
<path d="M148.385 109.807L148.385 -884.591C148.385 -889.198 149.447 -893.743 151.487 -897.874L181.086 -957.811C183.126 -961.942 184.187 -966.488 184.187 -971.095V-1301.82" stroke="#3C356D"/>
<path d="M299.616 131.097V-884.591C299.616 -889.198 298.555 -893.743 296.515 -897.874L266.916 -957.811C264.876 -961.942 263.815 -966.488 263.815 -971.095V-1301.82" stroke="#3C356D"/>
<path d="M223.693 -1301.04L223.693 -858.783L223.693 52.0212" stroke="#3C356D"/>
<path d="M6 276.18L442 276.18" stroke="#3C356D"/>
<path d="M1 43.1796L447 43.1798" stroke="#3C356D"/>
<path d="M1 198.18L447 198.18" stroke="#3C356D"/>
<path d="M1 120.18L447 120.18" stroke="#3C356D"/>
<path d="M56 313.073L392.438 313.073" stroke="#3C356D"/>
<path d="M80.0625 330.308L367.938 330.308" stroke="#3C356D"/>
<path d="M93.1875 339.432L354.813 339.432" stroke="#3C356D"/>
<path d="M104.125 370.085H343.875" stroke="#3C356D"/>
<path d="M104.125 421.762H343.875" stroke="#3C356D"/>
<path d="M104.125 474.395H343.875" stroke="#3C356D"/>
<path d="M104.125 526.072H343.875" stroke="#3C356D"/>
<path d="M0.858521 2.75593V259.035C0.858521 268.818 5.62883 277.986 13.6403 283.601L91.7779 338.366C99.7893 343.981 104.56 353.15 104.56 362.933V684.402" stroke="#3C356D"/>
<path d="M447.143 2.75593V259.035C447.143 268.818 442.373 277.986 434.361 283.601L356.224 338.366C348.212 343.981 343.442 353.15 343.442 362.933V684.402" stroke="#3C356D"/>
<path d="M74.3141 2.75593V262.736C74.3141 270.476 77.3056 277.917 82.6632 283.503L135.716 338.816C141.074 344.402 144.065 351.842 144.065 359.582V684.402" stroke="#3C356D"/>
<path d="M373.688 2.75593V262.736C373.688 270.476 370.697 277.917 365.339 283.503L312.286 338.816C306.929 344.402 303.937 351.842 303.937 359.582V684.402" stroke="#3C356D"/>
<path d="M148.385 2.75696V267.95C148.385 272.557 149.447 277.103 151.487 281.234L181.086 341.171C183.126 345.302 184.187 349.847 184.187 354.454V685.18" stroke="#3C356D"/>
<path d="M299.616 2.75696V267.95C299.616 272.557 298.555 277.103 296.515 281.234L266.916 341.171C264.876 345.302 263.815 349.847 263.815 354.454V685.18" stroke="#3C356D"/>
<path d="M223.693 684.402L223.693 242.141L223.693 2.75593" stroke="#3C356D"/>
</g>
<defs>
<linearGradient id="paint0_linear_1076_29443" x1="224" y1="-7.95695" x2="224" y2="544.175" gradientUnits="userSpaceOnUse">
<stop stop-color="#D9D9D9" stop-opacity="0"/>
<stop offset="0.2" stop-color="#D9D9D9"/>
<stop offset="0.8" stop-color="#D9D9D9"/>
<stop offset="1" stop-color="#D9D9D9" stop-opacity="0"/>
</linearGradient>
</defs>
</svg>
