<svg width="448" height="1587" viewBox="0 0 448 1587" fill="none" xmlns="http://www.w3.org/2000/svg">
<mask id="mask0_1074_19918" style="mask-type:alpha" maskUnits="userSpaceOnUse" x="0" y="0" width="448" height="1587">
<rect width="448" height="1587" fill="url(#paint0_linear_1074_19918)"/>
</mask>
<g mask="url(#mask0_1074_19918)">
<path d="M5 102L443 102" stroke="#3C356D"/>
<path d="M1 179H447" stroke="#3C356D"/>
<path d="M1 257H447" stroke="#3C356D"/>
<path d="M31.9374 79.6016L416.5 79.6016" stroke="#3C356D"/>
<path d="M55.9999 63.0844L392.875 63.0844" stroke="#3C356D"/>
<path d="M80.4999 45.7457L367.937 45.7458" stroke="#3C356D"/>
<path d="M93.1874 36.6216L354.812 36.6216" stroke="#3C356D"/>
<path d="M104.125 5.91455H343.875" stroke="#3C356D"/>
<path d="M0.858521 1052.44L0.858521 117.144C0.858521 107.361 5.62883 98.1922 13.6403 92.5772L91.7779 37.8125C99.7893 32.1976 104.56 23.0289 104.56 13.2457V-308.224" stroke="#3C356D"/>
<path d="M447.143 1054.98V117.144C447.143 107.361 442.373 98.1922 434.361 92.5772L356.224 37.8125C348.212 32.1976 343.442 23.0289 343.442 13.2457V-308.224" stroke="#3C356D"/>
<path d="M74.3141 1152.81V113.442C74.3141 105.702 77.3056 98.2619 82.6632 92.676L135.716 37.3627C141.074 31.7769 144.065 24.3364 144.065 16.5965V-308.224" stroke="#3C356D"/>
<path d="M373.688 1036.73V113.442C373.688 105.702 370.697 98.2619 365.339 92.676L312.286 37.3628C306.929 31.7769 303.937 24.3365 303.937 16.5965V-308.224" stroke="#3C356D"/>
<path d="M148.385 1102.63L148.385 108.23C148.385 103.622 149.447 99.0771 151.487 94.9461L181.086 35.0091C183.126 30.8781 184.187 26.3327 184.187 21.7255V-309" stroke="#3C356D"/>
<path d="M299.616 1123.92V108.23C299.616 103.623 298.555 99.0772 296.515 94.9462L266.916 35.0091C264.876 30.8781 263.815 26.3328 263.815 21.7255V-309" stroke="#3C356D"/>
<path d="M223.693 -308.224L223.693 134.037L223.693 1044.84" stroke="#3C356D"/>
<path d="M6 1269L442 1269" stroke="#3C356D"/>
<path d="M1 334H447" stroke="#3C356D"/>
<path d="M1 1036L447 1036" stroke="#3C356D"/>
<path d="M1 1191L447 1191" stroke="#3C356D"/>
<path d="M1 1113L447 1113" stroke="#3C356D"/>
<path d="M1 957L447 957" stroke="#3C356D"/>
<path d="M1 801L447 801" stroke="#3C356D"/>
<path d="M1 647L447 647" stroke="#3C356D"/>
<path d="M1 491L447 491" stroke="#3C356D"/>
<path d="M1 879L447 879" stroke="#3C356D"/>
<path d="M1 723L447 723" stroke="#3C356D"/>
<path d="M0 569L447 569" stroke="#3C356D"/>
<path d="M1 413L447 413" stroke="#3C356D"/>
<path d="M56 1305.89L392.438 1305.89" stroke="#3C356D"/>
<path d="M80.0625 1323.13L367.938 1323.13" stroke="#3C356D"/>
<path d="M93.1875 1332.25L354.813 1332.25" stroke="#3C356D"/>
<path d="M104.125 1362.91H343.875" stroke="#3C356D"/>
<path d="M104.125 1414.58H343.875" stroke="#3C356D"/>
<path d="M104.125 1467.22H343.875" stroke="#3C356D"/>
<path d="M104.125 1518.89H343.875" stroke="#3C356D"/>
<path d="M104.125 1570.57H343.875" stroke="#3C356D"/>
<path d="M0.858521 995.577V1251.86C0.858521 1261.64 5.62883 1270.81 13.6403 1276.42L91.7779 1331.19C99.7893 1336.8 104.56 1345.97 104.56 1355.75V1677.22" stroke="#3C356D"/>
<path d="M447.143 995.577V1251.86C447.143 1261.64 442.373 1270.81 434.361 1276.42L356.224 1331.19C348.212 1336.8 343.442 1345.97 343.442 1355.75V1677.22" stroke="#3C356D"/>
<path d="M74.3141 995.577V1255.56C74.3141 1263.3 77.3056 1270.74 82.6632 1276.32L135.716 1331.64C141.074 1337.22 144.065 1344.66 144.065 1352.4V1677.22" stroke="#3C356D"/>
<path d="M373.688 995.577V1255.56C373.688 1263.3 370.697 1270.74 365.339 1276.32L312.286 1331.64C306.929 1337.22 303.937 1344.66 303.937 1352.4V1677.22" stroke="#3C356D"/>
<path d="M148.385 995.577V1260.77C148.385 1265.38 149.447 1269.92 151.487 1274.05L181.086 1333.99C183.126 1338.12 184.187 1342.67 184.187 1347.27V1678" stroke="#3C356D"/>
<path d="M299.616 995.577V1260.77C299.616 1265.38 298.555 1269.92 296.515 1274.05L266.916 1333.99C264.876 1338.12 263.815 1342.67 263.815 1347.27V1678" stroke="#3C356D"/>
<path d="M223.693 1677.22L223.693 1234.96L223.693 995.577" stroke="#3C356D"/>
</g>
<defs>
<linearGradient id="paint0_linear_1074_19918" x1="224" y1="-56.2997" x2="224" y2="1539.79" gradientUnits="userSpaceOnUse">
<stop stop-color="#D9D9D9" stop-opacity="0"/>
<stop offset="0.169369" stop-color="#D9D9D9"/>
<stop offset="0.736397" stop-color="#D9D9D9"/>
<stop offset="0.987273" stop-color="#D9D9D9" stop-opacity="0"/>
</linearGradient>
</defs>
</svg>
