<svg width="448" height="500" viewBox="0 0 448 500" fill="none" xmlns="http://www.w3.org/2000/svg">
<mask id="mask0_1076_25568" style="mask-type:alpha" maskUnits="userSpaceOnUse" x="0" y="0" width="448" height="500">
<rect width="448" height="500" fill="url(#paint0_linear_1076_25568)"/>
</mask>
<g mask="url(#mask0_1076_25568)">
<path d="M0.858521 67.624L0.858521 -867.677C0.858521 -877.46 5.62883 -886.628 13.6403 -892.243L91.7779 -947.008C99.7893 -952.623 104.56 -961.792 104.56 -971.575V-1293.04" stroke="#3C356D"/>
<path d="M447.143 70.1585V-867.677C447.143 -877.46 442.373 -886.628 434.361 -892.243L356.224 -947.008C348.212 -952.623 343.442 -961.792 343.442 -971.575V-1293.04" stroke="#3C356D"/>
<path d="M74.3141 167.99V-871.378C74.3141 -879.118 77.3056 -886.559 82.6632 -892.145L135.716 -947.458C141.074 -953.044 144.065 -960.484 144.065 -968.224V-1293.04" stroke="#3C356D"/>
<path d="M373.688 51.9103V-871.378C373.688 -879.118 370.697 -886.559 365.339 -892.145L312.286 -947.458C306.929 -953.044 303.937 -960.484 303.937 -968.224V-1293.04" stroke="#3C356D"/>
<path d="M148.385 117.807L148.385 -876.591C148.385 -881.198 149.447 -885.744 151.487 -889.875L181.086 -949.812C183.126 -953.943 184.187 -958.488 184.187 -963.095V-1293.82" stroke="#3C356D"/>
<path d="M299.616 139.097V-876.591C299.616 -881.198 298.555 -885.744 296.515 -889.875L266.916 -949.812C264.876 -953.943 263.815 -958.488 263.815 -963.095V-1293.82" stroke="#3C356D"/>
<path d="M223.693 -1293.04L223.693 -850.783L223.693 60.0207" stroke="#3C356D"/>
<path d="M6 284.179L442 284.179" stroke="#3C356D"/>
<path d="M1 51.1791L447 51.1793" stroke="#3C356D"/>
<path d="M1 206.179L447 206.179" stroke="#3C356D"/>
<path d="M1 128.179L447 128.179" stroke="#3C356D"/>
<path d="M56 321.073L392.438 321.073" stroke="#3C356D"/>
<path d="M80.0625 338.307L367.938 338.307" stroke="#3C356D"/>
<path d="M93.1875 347.432L354.813 347.432" stroke="#3C356D"/>
<path d="M104.125 378.085H343.875" stroke="#3C356D"/>
<path d="M104.125 429.761H343.875" stroke="#3C356D"/>
<path d="M104.125 482.395H343.875" stroke="#3C356D"/>
<path d="M0.858521 10.7564V267.035C0.858521 276.818 5.62883 285.987 13.6403 291.602L91.7779 346.367C99.7893 351.982 104.56 361.15 104.56 370.933V692.403" stroke="#3C356D"/>
<path d="M447.143 10.7564V267.035C447.143 276.818 442.373 285.987 434.361 291.602L356.224 346.367C348.212 351.982 343.442 361.15 343.442 370.933V692.403" stroke="#3C356D"/>
<path d="M74.3141 10.7564V270.737C74.3141 278.477 77.3056 285.917 82.6632 291.503L135.716 346.816C141.074 352.402 144.065 359.843 144.065 367.583V692.403" stroke="#3C356D"/>
<path d="M373.688 10.7564V270.737C373.688 278.477 370.697 285.917 365.339 291.503L312.286 346.816C306.929 352.402 303.937 359.843 303.937 367.583V692.403" stroke="#3C356D"/>
<path d="M148.385 10.7565V275.949C148.385 280.557 149.447 285.102 151.487 289.233L181.086 349.17C183.126 353.301 184.187 357.846 184.187 362.454V693.179" stroke="#3C356D"/>
<path d="M299.616 10.7565V275.949C299.616 280.557 298.555 285.102 296.515 289.233L266.916 349.17C264.876 353.301 263.815 357.846 263.815 362.454V693.179" stroke="#3C356D"/>
<path d="M223.693 692.403L223.693 250.142L223.693 10.7564" stroke="#3C356D"/>
</g>
<defs>
<linearGradient id="paint0_linear_1076_25568" x1="224" y1="-7.25191" x2="224" y2="484.844" gradientUnits="userSpaceOnUse">
<stop stop-color="#D9D9D9" stop-opacity="0"/>
<stop offset="0.2" stop-color="#D9D9D9"/>
<stop offset="0.8" stop-color="#D9D9D9"/>
<stop offset="1" stop-color="#D9D9D9" stop-opacity="0"/>
</linearGradient>
</defs>
</svg>
