<svg width="640" height="649" viewBox="0 0 640 649" fill="none" xmlns="http://www.w3.org/2000/svg">
<mask id="mask0_1079_33427" style="mask-type:alpha" maskUnits="userSpaceOnUse" x="0" y="0" width="640" height="649">
<rect width="640" height="649" transform="matrix(1 0 0 -1 0 649)" fill="url(#paint0_linear_1079_33427)"/>
</mask>
<g mask="url(#mask0_1079_33427)">
<path d="M46.5 331.789L593.5 331.789" stroke="#3C356D"/>
<path d="M80 313.472L559.5 313.472" stroke="#3C356D"/>
<path d="M115.5 293.324L524.5 293.324" stroke="#3C356D"/>
<path d="M134 283.25L505.5 283.25" stroke="#3C356D"/>
<path d="M149 248.299H491" stroke="#3C356D"/>
<path d="M149 190.299H491" stroke="#3C356D"/>
<path d="M149 131.299H491" stroke="#3C356D"/>
<path d="M149 71.2988H491" stroke="#3C356D"/>
<path d="M149 13.2988H491" stroke="#3C356D"/>
<path d="M1 666.299V375.195C1 364.317 6.88852 354.291 16.3893 348.993L133.611 283.628C143.111 278.33 149 268.304 149 257.426V-107.701" stroke="#3C356D"/>
<path d="M639 666.299V375.195C639 364.317 633.111 354.291 623.611 348.993L506.389 283.628C496.888 278.33 491 268.304 491 257.426V-107.701" stroke="#3C356D"/>
<path d="M106.22 665.836V371.053C106.22 362.123 110.199 353.656 117.074 347.957L194.975 283.381C201.85 277.682 205.829 269.216 205.829 260.285V-108.118" stroke="#3C356D"/>
<path d="M533.745 665.836V371.053C533.745 362.123 529.767 353.656 522.891 347.957L444.991 283.381C438.115 277.682 434.136 269.216 434.136 260.285V-108.118" stroke="#3C356D"/>
<path d="M211.999 665.836V365.337C211.999 359.743 213.563 354.26 216.515 349.508L258.61 281.734C261.562 276.982 263.126 271.5 263.126 265.906V-109" stroke="#3C356D"/>
<path d="M427.966 665.836V365.337C427.966 359.743 426.402 354.26 423.45 349.508L381.355 281.734C378.403 276.982 376.839 271.5 376.839 265.906V-109" stroke="#3C356D"/>
<path d="M319.543 -108.118L319.542 394.033L319.542 665.836" stroke="#3C356D"/>
<path d="M6.5 358.299H634" stroke="#3C356D"/>
<path d="M1 458H639" stroke="#3C356D"/>
<path d="M1 558H639" stroke="#3C356D"/>
<path d="M1 641.299L1 1042.55C1 1053.43 6.89011 1063.46 16.3929 1068.76L133.607 1134.1C143.11 1139.39 149 1149.42 149 1160.3V1525.3" stroke="#3C356D"/>
<path d="M639 619.299V1042.8C639 1053.68 633.107 1063.71 623.601 1069.01L506.399 1134.31C496.893 1139.6 491 1149.63 491 1160.51V1525.3" stroke="#3C356D"/>
<path d="M106.22 643.299L106.22 1046.37C106.22 1055.3 110.199 1063.76 117.074 1069.46L194.975 1134.04C201.85 1139.74 205.829 1148.2 205.829 1157.13V1525.54" stroke="#3C356D"/>
<path d="M533.745 621.299V1046.37C533.745 1055.3 529.767 1063.76 522.891 1069.46L444.991 1134.04C438.115 1139.74 434.136 1148.2 434.136 1157.13V1525.54" stroke="#3C356D"/>
<path d="M211.999 608.299L211.999 1052.08C211.999 1057.68 213.563 1063.16 216.515 1067.91L258.61 1135.69C261.562 1140.44 263.126 1145.92 263.126 1151.51V1526.42" stroke="#3C356D"/>
<path d="M427.966 644.299L427.966 1052.08C427.966 1057.68 426.402 1063.16 423.45 1067.91L381.355 1135.69C378.403 1140.44 376.839 1145.92 376.839 1151.51V1526.42" stroke="#3C356D"/>
<path d="M319.543 1525.54L319.542 1023.39L319.542 623.799" stroke="#3C356D"/>
</g>
<defs>
<linearGradient id="paint0_linear_1079_33427" x1="320" y1="-9.41298" x2="320" y2="629.328" gradientUnits="userSpaceOnUse">
<stop stop-color="#D9D9D9" stop-opacity="0"/>
<stop offset="0.2" stop-color="#D9D9D9"/>
<stop offset="0.8" stop-color="#D9D9D9"/>
<stop offset="1" stop-color="#D9D9D9" stop-opacity="0"/>
</linearGradient>
</defs>
</svg>
