<svg width="640" height="562" viewBox="0 0 640 562" fill="none" xmlns="http://www.w3.org/2000/svg">
<mask id="mask0_1082_34195" style="mask-type:alpha" maskUnits="userSpaceOnUse" x="0" y="0" width="640" height="562">
<rect y="0.179688" width="640" height="561" fill="url(#paint0_linear_1082_34195)"/>
</mask>
<g mask="url(#mask0_1082_34195)">
<path d="M1 83H639" stroke="#3C356D"/>
<path d="M1 183H639" stroke="#3C356D"/>
<path d="M5.5 283.299L635 283.299" stroke="#3C356D"/>
<path d="M47 310.736L593.5 310.736" stroke="#3C356D"/>
<path d="M79.5 328.953L561 328.953" stroke="#3C356D"/>
<path d="M116 348.992L525 348.992" stroke="#3C356D"/>
<path d="M133.5 359.012L507 359.012" stroke="#3C356D"/>
<path d="M149 393.299H491" stroke="#3C356D"/>
<path d="M149 452.299H491" stroke="#3C356D"/>
<path d="M149 511.299H491" stroke="#3C356D"/>
<path d="M1 -133.701L1 267.553C1 278.433 6.89011 288.46 16.3929 293.757L133.607 359.097C143.11 364.394 149 374.421 149 385.301V750.299" stroke="#3C356D"/>
<path d="M639 -155.701V267.802C639 278.684 633.107 288.713 623.601 294.009L506.399 359.307C496.893 364.603 491 374.632 491 385.514V750.299" stroke="#3C356D"/>
<path d="M106.22 -131.701L106.22 271.367C106.22 280.297 110.199 288.764 117.074 294.463L194.975 359.039C201.85 364.738 205.829 373.204 205.829 382.135V750.538" stroke="#3C356D"/>
<path d="M533.745 -153.701V271.367C533.745 280.297 529.767 288.764 522.891 294.463L444.991 359.039C438.115 364.738 434.136 373.204 434.136 382.135V750.538" stroke="#3C356D"/>
<path d="M211.999 -166.701L211.999 277.083C211.999 282.677 213.563 288.16 216.515 292.912L258.61 360.685C261.562 365.438 263.126 370.92 263.126 376.514V751.42" stroke="#3C356D"/>
<path d="M427.966 -130.701L427.966 277.083C427.966 282.677 426.402 288.16 423.45 292.912L381.355 360.685C378.403 365.438 376.839 370.92 376.839 376.514V751.42" stroke="#3C356D"/>
<path d="M319.543 750.538L319.542 248.387L319.542 -151.202" stroke="#3C356D"/>
</g>
<defs>
<linearGradient id="paint0_linear_1082_34195" x1="320" y1="-7.95695" x2="320" y2="544.175" gradientUnits="userSpaceOnUse">
<stop stop-color="#D9D9D9" stop-opacity="0"/>
<stop offset="0.2" stop-color="#D9D9D9"/>
<stop offset="0.8" stop-color="#D9D9D9"/>
<stop offset="1" stop-color="#D9D9D9" stop-opacity="0"/>
</linearGradient>
</defs>
</svg>
