<svg width="640" height="789" viewBox="0 0 640 789" fill="none" xmlns="http://www.w3.org/2000/svg">
<mask id="mask0_1079_32011" style="mask-type:alpha" maskUnits="userSpaceOnUse" x="0" y="0" width="640" height="789">
<rect width="640" height="788" transform="matrix(1 0 0 -1 0 788.179)" fill="url(#paint0_linear_1079_32011)"/>
</mask>
<g mask="url(#mask0_1079_32011)">
<path d="M1 55.2989V-235.805C1 -246.683 6.88852 -256.709 16.3893 -262.007L133.611 -327.372C143.111 -332.67 149 -342.696 149 -353.574V-718.701" stroke="#3C356D"/>
<path d="M639 55.2989V-235.805C639 -246.683 633.111 -256.709 623.611 -262.007L506.389 -327.372C496.889 -332.67 491 -342.696 491 -353.574V-718.701" stroke="#3C356D"/>
<path d="M106.22 54.8359V-239.947C106.22 -248.878 110.199 -257.344 117.074 -263.043L194.975 -327.619C201.85 -333.318 205.829 -341.785 205.829 -350.715V-719.118" stroke="#3C356D"/>
<path d="M533.745 54.8359V-239.947C533.745 -248.878 529.767 -257.344 522.891 -263.043L444.991 -327.619C438.115 -333.318 434.136 -341.785 434.136 -350.715V-719.118" stroke="#3C356D"/>
<path d="M211.999 54.8357V-245.663C211.999 -251.257 213.563 -256.74 216.515 -261.492L258.61 -329.266C261.562 -334.018 263.126 -339.5 263.126 -345.094V-720" stroke="#3C356D"/>
<path d="M427.966 54.8357V-245.663C427.966 -251.257 426.402 -256.74 423.45 -261.492L381.355 -329.266C378.403 -334.018 376.839 -339.5 376.839 -345.094V-720" stroke="#3C356D"/>
<path d="M319.543 -719.118L319.542 -216.967L319.542 54.8359" stroke="#3C356D"/>
<path d="M1 47.2988L639 47.2989" stroke="#3C356D"/>
<path d="M1 147.299L639 147.299" stroke="#3C356D"/>
<path d="M1 247.299L639 247.299" stroke="#3C356D"/>
<path d="M1 347.299H639" stroke="#3C356D"/>
<path d="M5.5 447.299L635 447.299" stroke="#3C356D"/>
<path d="M47 474.736L593.5 474.736" stroke="#3C356D"/>
<path d="M79.5 492.953L561 492.953" stroke="#3C356D"/>
<path d="M116 512.992L525 512.992" stroke="#3C356D"/>
<path d="M133.5 523.012L507 523.012" stroke="#3C356D"/>
<path d="M149 557.299H491" stroke="#3C356D"/>
<path d="M149 616.299H491" stroke="#3C356D"/>
<path d="M149 675.299H491" stroke="#3C356D"/>
<path d="M149 734.299H491" stroke="#3C356D"/>
<path d="M1 30.2988L1 431.553C1 442.433 6.89012 452.46 16.3929 457.757L133.607 523.097C143.11 528.394 149 538.421 149 549.301V914.299" stroke="#3C356D"/>
<path d="M639 8.29884V431.802C639 442.684 633.107 452.713 623.601 458.009L506.399 523.307C496.893 528.603 491 538.632 491 549.514V914.299" stroke="#3C356D"/>
<path d="M106.22 32.2988L106.22 435.367C106.22 444.297 110.199 452.764 117.074 458.463L194.975 523.039C201.85 528.738 205.829 537.205 205.829 546.135V914.538" stroke="#3C356D"/>
<path d="M533.745 10.2988V435.367C533.745 444.297 529.767 452.764 522.891 458.463L444.991 523.039C438.115 528.738 434.136 537.205 434.136 546.135V914.538" stroke="#3C356D"/>
<path d="M211.999 -2.70117L211.999 441.083C211.999 446.677 213.563 452.16 216.515 456.912L258.61 524.685C261.562 529.438 263.126 534.92 263.126 540.514V915.42" stroke="#3C356D"/>
<path d="M427.966 33.2988L427.966 441.083C427.966 446.677 426.402 452.16 423.45 456.912L381.355 524.685C378.403 529.438 376.839 534.92 376.839 540.514V915.42" stroke="#3C356D"/>
<path d="M319.543 914.539L319.542 412.387L319.542 12.799" stroke="#3C356D"/>
</g>
<defs>
<linearGradient id="paint0_linear_1079_32011" x1="320" y1="0" x2="320" y2="707.465" gradientUnits="userSpaceOnUse">
<stop stop-color="#D9D9D9" stop-opacity="0"/>
<stop offset="0.215" stop-color="#D9D9D9"/>
<stop offset="0.725957" stop-color="#D9D9D9"/>
<stop offset="1" stop-color="#737373" stop-opacity="0"/>
</linearGradient>
</defs>
</svg>
