<svg width="640" height="1212" viewBox="0 0 640 1212" fill="none" xmlns="http://www.w3.org/2000/svg">
<mask id="mask0_1074_21948" style="mask-type:alpha" maskUnits="userSpaceOnUse" x="0" y="0" width="640" height="1212">
<rect width="640" height="1212" fill="url(#paint0_linear_1074_21948)"/>
</mask>
<g mask="url(#mask0_1074_21948)">
<path d="M46.5 110.49L593.5 110.49" stroke="#3C356D"/>
<path d="M80 92.173L559.5 92.173" stroke="#3C356D"/>
<path d="M115.5 72.0249L524.5 72.0249" stroke="#3C356D"/>
<path d="M134 61.9514L505.5 61.9514" stroke="#3C356D"/>
<path d="M149 27H491" stroke="#3C356D"/>
<path d="M1 445V153.896C1 143.018 6.88852 132.992 16.3893 127.695L133.611 62.3287C143.111 57.0309 149 47.0051 149 36.1271V-329" stroke="#3C356D"/>
<path d="M639 445V153.896C639 143.018 633.111 132.992 623.611 127.695L506.389 62.3287C496.889 57.0309 491 47.0051 491 36.1271V-329" stroke="#3C356D"/>
<path d="M106.22 444.537V149.754C106.22 140.824 110.199 132.357 117.074 126.658L194.975 62.0823C201.85 56.3829 205.829 47.9166 205.829 38.986V-329.417" stroke="#3C356D"/>
<path d="M533.745 444.537V149.754C533.745 140.824 529.767 132.357 522.891 126.658L444.991 62.0823C438.115 56.3829 434.136 47.9166 434.136 38.986V-329.417" stroke="#3C356D"/>
<path d="M211.999 444.537V144.038C211.999 138.444 213.563 132.961 216.515 128.209L258.61 60.4356C261.562 55.6836 263.126 50.2009 263.126 44.6069V-330.299" stroke="#3C356D"/>
<path d="M427.966 444.537V144.038C427.966 138.444 426.402 132.961 423.45 128.209L381.355 60.4356C378.403 55.6836 376.839 50.2009 376.839 44.6069V-330.299" stroke="#3C356D"/>
<path d="M319.543 -329.417L319.542 172.734L319.542 444.537" stroke="#3C356D"/>
<path d="M6.5 137H634" stroke="#3C356D"/>
<path d="M1 237L639 237" stroke="#3C356D"/>
<path d="M1 337L639 337" stroke="#3C356D"/>
<path d="M1 437L639 437" stroke="#3C356D"/>
<path d="M1 537L639 537" stroke="#3C356D"/>
<path d="M1 637L639 637" stroke="#3C356D"/>
<path d="M1 737H639" stroke="#3C356D"/>
<path d="M5.5 837L635 837" stroke="#3C356D"/>
<path d="M47 864.438H593.5" stroke="#3C356D"/>
<path d="M79.5 882.655L561 882.655" stroke="#3C356D"/>
<path d="M116 902.694L525 902.694" stroke="#3C356D"/>
<path d="M133.5 912.713L507 912.713" stroke="#3C356D"/>
<path d="M149 947H491" stroke="#3C356D"/>
<path d="M149 1006H491" stroke="#3C356D"/>
<path d="M149 1065H491" stroke="#3C356D"/>
<path d="M149 1124H491" stroke="#3C356D"/>
<path d="M149 1184H491" stroke="#3C356D"/>
<path d="M1 420L1 821.254C1 832.134 6.89012 842.161 16.3929 847.458L133.607 912.798C143.11 918.096 149 928.122 149 939.002V1304" stroke="#3C356D"/>
<path d="M639 398V821.503C639 832.385 633.107 842.414 623.601 847.71L506.399 913.008C496.893 918.304 491 928.333 491 939.215V1304" stroke="#3C356D"/>
<path d="M106.22 422L106.22 825.068C106.22 833.999 110.199 842.465 117.074 848.164L194.975 912.74C201.85 918.439 205.829 926.906 205.829 935.836V1304.24" stroke="#3C356D"/>
<path d="M533.745 400V825.068C533.745 833.999 529.767 842.465 522.891 848.164L444.991 912.74C438.115 918.439 434.136 926.906 434.136 935.836V1304.24" stroke="#3C356D"/>
<path d="M211.999 387L211.999 830.784C211.999 836.378 213.563 841.861 216.515 846.613L258.61 914.387C261.562 919.139 263.126 924.621 263.126 930.215V1305.12" stroke="#3C356D"/>
<path d="M427.966 423L427.966 830.784C427.966 836.378 426.402 841.861 423.45 846.613L381.355 914.387C378.403 919.139 376.839 924.621 376.839 930.215V1305.12" stroke="#3C356D"/>
<path d="M319.543 1304.24L319.542 802.088L319.542 402.5" stroke="#3C356D"/>
</g>
<defs>
<linearGradient id="paint0_linear_1074_21948" x1="320" y1="24.5855" x2="320" y2="1175.94" gradientUnits="userSpaceOnUse">
<stop stop-color="#D9D9D9" stop-opacity="0"/>
<stop offset="0.169369" stop-color="#D9D9D9"/>
<stop offset="0.736397" stop-color="#D9D9D9"/>
<stop offset="0.987273" stop-color="#D9D9D9" stop-opacity="0"/>
</linearGradient>
</defs>
</svg>
