<svg width="506" height="325" viewBox="0 0 506 325" fill="none" xmlns="http://www.w3.org/2000/svg">
<mask id="mask0_1240_13672" style="mask-type:alpha" maskUnits="userSpaceOnUse" x="0" y="0" width="506" height="325">
<ellipse cx="253" cy="162.5" rx="253" ry="162.5" fill="url(#paint0_radial_1240_13672)"/>
</mask>
<g mask="url(#mask0_1240_13672)">
<rect x="143.813" y="158.499" width="55.0021" height="55.0021" rx="15.8279" fill="url(#paint1_linear_1240_13672)"/>
<mask id="mask1_1240_13672" style="mask-type:luminance" maskUnits="userSpaceOnUse" x="150" y="173" width="26" height="26">
<path d="M162.627 186.235C162.627 186.24 162.627 186.241 162.627 186.24C162.628 186.238 162.628 186.237 162.627 186.235ZM165.1 184.061L167.575 181.891L170.051 179.721L172.529 177.551L170.053 179.721L167.575 181.891L165.099 184.064L162.624 186.234C162.62 186.234 162.617 186.22 162.624 186.228C162.634 186.217 162.624 186.224 162.624 186.228L165.099 184.058M159.52 174.889C157.925 175.518 156.451 176.418 155.163 177.549L155.158 177.553C153.864 178.687 152.774 180.036 151.937 181.539C151.123 182.994 150.583 184.586 150.343 186.236C150.189 187.368 150.191 188.516 150.349 189.648C150.632 191.59 151.452 193.414 152.717 194.915L152.722 194.92C153.712 196.064 154.945 196.973 156.331 197.58C157.772 198.203 159.327 198.522 160.897 198.514C162.551 198.505 164.188 198.188 165.726 197.58C167.321 196.95 168.795 196.05 170.084 194.92L170.089 194.915C171.382 193.781 172.471 192.434 173.309 190.931C174.123 189.476 174.663 187.883 174.903 186.233C174.903 186.233 174.929 186.032 174.966 185.631C174.981 185.43 175.014 185.178 175.015 184.879C175.017 184.581 175.02 184.231 175.003 183.836C174.943 183.054 174.83 182.073 174.456 180.985C174.043 179.726 173.388 178.56 172.529 177.551C171.665 176.552 170.613 175.732 169.433 175.138C168.416 174.61 167.468 174.362 166.709 174.19C166.325 174.119 165.983 174.071 165.69 174.032C165.397 173.992 165.147 173.989 164.949 173.976C164.552 173.957 164.352 173.954 164.352 173.954C162.698 173.963 161.06 174.28 159.523 174.889" fill="white"/>
</mask>
<g mask="url(#mask1_1240_13672)">
<circle cx="164.761" cy="185.448" r="16.1098" transform="rotate(180 164.761 185.448)" fill="url(#paint2_angular_1240_13672)"/>
</g>
<mask id="mask2_1240_13672" style="mask-type:luminance" maskUnits="userSpaceOnUse" x="167" y="173" width="26" height="26">
<path d="M180.086 186.158L180.09 186.154V186.158M180.097 186.158C180.101 186.158 180.103 186.172 180.093 186.163L180.097 186.158ZM180.086 186.163C180.087 186.165 180.087 186.166 180.086 186.168V186.163ZM176.983 174.824C175.389 175.453 173.915 176.353 172.626 177.484L172.622 177.488C171.328 178.622 170.239 179.97 169.401 181.472C168.588 182.924 168.047 184.513 167.804 186.16C167.804 186.16 167.779 186.361 167.741 186.762C167.727 186.962 167.694 187.214 167.693 187.513C167.691 187.812 167.687 188.16 167.705 188.555C167.765 189.339 167.878 190.318 168.252 191.408C168.666 192.667 169.321 193.833 170.181 194.842C171.046 195.84 172.098 196.66 173.277 197.254C174.294 197.783 175.243 198.03 176.002 198.203C176.385 198.273 176.727 198.321 177.02 198.361C177.313 198.4 177.563 198.403 177.761 198.417C178.159 198.436 178.359 198.438 178.359 198.438C180.012 198.429 181.65 198.112 183.188 197.504C184.784 196.875 186.26 195.975 187.551 194.844L187.556 194.84C188.849 193.706 189.938 192.358 190.776 190.855C191.59 189.399 192.13 187.807 192.371 186.157C192.524 185.024 192.523 183.876 192.365 182.744C192.082 180.802 191.261 178.977 189.996 177.477V177.473C189.006 176.328 187.773 175.419 186.386 174.813C184.945 174.189 183.39 173.87 181.82 173.878C180.166 173.887 178.528 174.204 176.991 174.813" fill="white"/>
</mask>
<g mask="url(#mask2_1240_13672)">
<circle cx="180.309" cy="184.511" r="14.4239" fill="url(#paint3_angular_1240_13672)"/>
</g>
<rect x="168.347" y="222.998" width="55.0021" height="55.0021" rx="15.8279" fill="url(#paint4_radial_1240_13672)"/>
<path fill-rule="evenodd" clip-rule="evenodd" d="M197.407 243.865L199.494 234.718C199.533 234.545 199.708 234.44 199.88 234.482C207.22 236.275 212.665 242.854 212.665 250.696C212.665 258.538 207.22 265.117 199.88 266.91C199.708 266.952 199.533 266.847 199.494 266.674L197.407 257.527C197.335 257.212 197.515 256.891 197.824 256.792C200.419 255.964 202.298 253.549 202.298 250.696C202.298 247.844 200.419 245.428 197.824 244.6C197.515 244.502 197.335 244.18 197.407 243.865ZM193.872 256.793C194.181 256.891 194.361 257.212 194.289 257.527L192.201 266.675C192.162 266.848 191.987 266.953 191.815 266.911C184.475 265.117 179.03 258.539 179.03 250.696C179.03 242.854 184.475 236.276 191.815 234.482C191.987 234.441 192.161 234.546 192.201 234.718L194.288 243.866C194.36 244.181 194.18 244.501 193.871 244.6C191.276 245.429 189.397 247.844 189.397 250.696C189.397 253.549 191.276 255.964 193.872 256.793Z" fill="white"/>
<rect x="232.847" y="222.998" width="55.0021" height="55.0021" rx="15.8279" fill="#FF5500"/>
<path d="M260.544 233.286C257.1 233.286 253.734 234.307 250.871 236.22C248.007 238.133 245.776 240.853 244.458 244.034C243.14 247.215 242.796 250.716 243.467 254.094C244.139 257.471 245.797 260.573 248.232 263.008C250.667 265.443 253.77 267.101 257.147 267.773C260.524 268.445 264.025 268.1 267.206 266.782C270.388 265.464 273.107 263.233 275.02 260.37C276.933 257.507 277.954 254.14 277.954 250.697C277.954 246.079 276.12 241.651 272.855 238.386C269.59 235.12 265.161 233.286 260.544 233.286ZM266.631 259.401H254.457C253.763 259.401 253.097 259.125 252.606 258.634C252.115 258.143 251.839 257.478 251.839 256.783V244.609C251.839 243.915 252.115 243.249 252.606 242.758C253.097 242.267 253.763 241.991 254.457 241.991H266.631C267.325 241.991 267.991 242.267 268.482 242.758C268.973 243.249 269.249 243.915 269.249 244.609V256.783C269.249 257.478 268.973 258.143 268.482 258.634C267.991 259.125 267.325 259.401 266.631 259.401Z" fill="white"/>
<g clip-path="url(#clip0_1240_13672)">
<rect x="208.312" y="158.499" width="55.0021" height="55.0021" rx="15.8279" fill="black"/>
<mask id="mask3_1240_13672" style="mask-type:alpha" maskUnits="userSpaceOnUse" x="207" y="157" width="61" height="61">
<path d="M254.124 157.312H220.559C213.139 157.312 207.124 163.327 207.124 170.747V204.311C207.124 211.731 213.139 217.747 220.559 217.747H254.124C261.544 217.747 267.559 211.731 267.559 204.311V170.747C267.559 163.327 261.544 157.312 254.124 157.312Z" fill="white"/>
</mask>
<g mask="url(#mask3_1240_13672)">
<path d="M207.064 161.511C207.064 159.157 208.972 157.25 211.325 157.25H263.32C265.673 157.25 267.581 159.157 267.581 161.511V213.506C267.581 215.859 265.673 217.767 263.32 217.767H211.325C208.972 217.767 207.064 215.859 207.064 213.506V161.511Z" fill="white"/>
<path d="M207.126 157.312H267.658V217.843H207.126V157.312Z" fill="url(#paint5_radial_1240_13672)"/>
</g>
<path d="M235.796 186.768L207.124 172.628V204.312C207.124 211.731 213.139 217.747 220.559 217.747H252.243L236.02 186.985C235.97 186.891 235.892 186.814 235.796 186.767V186.768Z" fill="black"/>
<path d="M254.123 157.312H222.44L238.883 188.184C238.933 188.277 239.011 188.353 239.106 188.4L267.559 202.431V170.747C267.558 163.327 261.543 157.312 254.123 157.312Z" fill="black"/>
</g>
<rect x="272.812" y="158.499" width="55.0021" height="55.0021" rx="15.8279" fill="#E91179"/>
<path d="M312.298 194.803C309.391 194.803 307.04 192.403 307.04 189.446V181.424H313.821V176.758H307.04V169.041L301.844 171.868V176.758H291.988C285.119 176.758 283.313 185.193 288.597 188.334L293.97 192.013C295.159 192.91 294.674 194.794 293.001 194.794H285.691V199.505H293.001C299.915 199.505 301.676 191.07 296.392 187.93L291.064 184.251C289.875 183.353 290.315 181.424 291.988 181.424H301.844V189.509C301.844 195.611 305.983 199.51 312.236 199.51H313.822V194.803H312.298Z" fill="white"/>
<rect x="168.347" y="94" width="55.0021" height="55.0021" rx="15.8279" fill="url(#paint6_linear_1240_13672)"/>
<path d="M209.489 111.93L205.813 108.254L201.181 105.895L196.045 105.08L190.909 105.895L186.277 108.254L182.6 111.93L180.242 116.563L179.427 121.698L180.242 126.833L182.6 131.466L186.277 135.143L190.909 137.504L196.045 138.319L201.181 137.504L205.814 135.143L209.49 131.466L211.851 126.833L212.665 121.698L211.85 116.563L209.489 111.93Z" stroke="white" stroke-width="1.58279" stroke-miterlimit="10"/>
<path d="M199.798 116.536L196.044 110.238" stroke="white" stroke-width="0.791397" stroke-linecap="round" stroke-linejoin="round"/>
<path d="M188.324 111.074L196.045 110.238L203.768 111.074" stroke="white" stroke-width="0.791397" stroke-miterlimit="10"/>
<path d="M192.292 116.533H199.797M196.044 110.238L192.292 116.536" stroke="white" stroke-width="0.791397" stroke-linecap="round" stroke-linejoin="round"/>
<path d="M188.324 111.074L190.91 105.896L196.045 110.238L201.18 105.896L203.768 111.074" stroke="white" stroke-width="0.791397" stroke-miterlimit="10"/>
<path d="M205.813 108.254L196.046 121.699L186.277 108.254" stroke="white" stroke-width="0.791397" stroke-linecap="round" stroke-linejoin="round"/>
<path d="M185.145 118.156L192.294 116.534L189.974 123.674L196.046 128.085L202.785 130.974M185.145 118.16L189.974 123.676" stroke="white" stroke-width="0.791397" stroke-linecap="round" stroke-linejoin="round"/>
<path d="M183.551 125.76L179.426 121.701L185.143 118.159M183.551 125.76L185.143 118.159M183.551 125.76L189.308 130.976L196.045 134.84L201.18 137.508L202.783 130.977L209.488 131.471L208.538 125.761M185.143 118.159L182.599 111.933L188.323 111.075L185.143 118.159Z" stroke="white" stroke-width="0.791397" stroke-miterlimit="10"/>
<path d="M189.974 123.673L189.308 130.974M189.308 130.972L196.045 128.083" stroke="white" stroke-width="0.791397" stroke-linecap="round" stroke-linejoin="round"/>
<path d="M196.044 134.84L190.909 137.507L189.308 130.975L182.6 131.469L183.551 125.76" stroke="white" stroke-width="0.791397" stroke-miterlimit="10"/>
<path d="M180.242 126.833L196.046 121.697V138.319M202.118 123.676L202.783 130.976L208.538 125.76M202.118 123.676L199.797 116.536L206.946 118.159M202.118 123.676L206.947 118.159L208.538 125.76M208.538 125.76L212.664 121.701L206.946 118.159M206.946 118.159L209.489 111.933L203.767 111.075L206.946 118.159ZM196.044 121.697L211.849 126.833M196.044 128.085L202.117 123.673" stroke="white" stroke-width="0.791397" stroke-linecap="round" stroke-linejoin="round"/>
<path d="M196.044 134.841L202.783 130.975L205.811 135.146M196.044 110.237V105.08M206.946 118.157L211.849 116.564M189.308 130.976L186.277 135.146M185.145 118.157L180.242 116.564" stroke="white" stroke-width="0.791397" stroke-linecap="round" stroke-linejoin="round"/>
<g clip-path="url(#clip1_1240_13672)">
<rect x="232.847" y="94" width="55.0021" height="55.0021" rx="15.8279" fill="#121212"/>
<rect x="233.241" y="94.396" width="54.6064" height="54.6064" rx="27.3032" fill="#121212"/>
<path d="M244.614 112.457H251.303V121.821H244.614V112.457Z" fill="#FF661E"/>
<rect x="244.614" y="105.767" width="6.68895" height="6.68895" rx="3.34447" fill="#FFCDC4"/>
<rect x="253.979" y="121.821" width="6.68895" height="16.0535" fill="#EBFFBF"/>
<path d="M244.614 121.821V121.821C249.786 121.821 253.979 126.014 253.979 131.186V137.875H244.614V121.821Z" fill="#12BB77"/>
<path d="M251.302 113.794C251.302 109.361 254.896 105.767 259.329 105.767H276.72V121.821H259.329C254.896 121.821 251.302 118.227 251.302 113.794V113.794Z" fill="#F8C81D"/>
<path d="M257.991 113.794C257.991 113.055 258.59 112.457 259.329 112.457H276.72V115.132H259.329C258.59 115.132 257.991 114.533 257.991 113.794V113.794Z" fill="#121212"/>
<path d="M260.667 129.847C260.667 128.793 260.875 127.749 261.278 126.775C261.682 125.802 262.273 124.917 263.018 124.171C263.764 123.426 264.649 122.835 265.622 122.431C266.596 122.028 267.64 121.82 268.694 121.82L268.694 129.847H260.667Z" fill="#CECBFF"/>
<path d="M276.721 129.847C276.721 130.901 276.513 131.945 276.11 132.919C275.706 133.893 275.115 134.778 274.37 135.523C273.625 136.268 272.74 136.86 271.766 137.263C270.792 137.666 269.748 137.874 268.694 137.874L268.694 129.847H276.721Z" fill="#4B65FF"/>
<path d="M268.694 121.82H276.721L268.694 129.847V121.82Z" fill="#CECBFF"/>
<path d="M268.694 137.874H260.667L268.694 129.847V137.874Z" fill="#4B65FF"/>
</g>
<rect x="297.345" y="222.998" width="55.0021" height="55.0021" rx="15.8279" fill="#240A34"/>
<path d="M325.091 266.791C325.066 266.793 325.043 266.795 325.019 266.797C325.412 266.754 325.882 266.883 326.284 266.889C326.768 266.897 327.252 266.872 327.732 266.812C328.877 266.67 329.997 266.33 331.035 265.829C331.035 265.829 331.02 265.816 330.995 265.789C330.907 265.697 330.7 265.442 330.705 265.107C328.996 266.004 327.1 266.588 325.091 266.791Z" fill="#781C6D"/>
<path d="M311.585 261.255C310.5 259.947 309.628 258.458 309.02 256.839C309.048 257.261 309.092 257.698 309.158 258.149C309.162 258.175 309.166 258.202 309.17 258.228C309.195 258.39 309.21 258.542 309.218 258.685C309.568 260.372 310.26 262.088 311.777 263.49C311.777 263.49 311.766 263.456 311.752 263.398C311.751 263.394 311.749 263.39 311.749 263.386C311.58 263.082 311.147 262.15 311.585 261.255Z" fill="#781C6D"/>
<path d="M320.242 266.519C319.61 266.385 318.993 266.211 318.391 266C318.896 266.501 319.466 266.965 320.103 267.339C320.121 267.349 320.14 267.361 320.16 267.372C320.185 267.378 320.209 267.383 320.234 267.388C320.234 267.388 320.232 267.379 320.228 267.364C320.207 267.264 320.135 266.87 320.242 266.519Z" fill="#781C6D"/>
<path d="M312.102 240.962C314.163 238.716 316.882 237.08 319.953 236.357L319.18 236.265L319.152 236.261C319.162 236.266 319.171 236.271 319.18 236.277C319.18 236.277 312.946 236.074 309.432 241.012C309.432 241.012 309.45 241.009 309.483 241.006L309.485 241.005C309.502 241.001 309.529 240.993 309.567 240.983C309.909 240.892 311.057 240.638 312.102 240.962Z" fill="#781C6D"/>
<path d="M308.107 249.927C308.244 248.482 308.581 247.094 309.09 245.793C308.888 245.987 308.703 246.174 308.543 246.352C308.486 246.417 308.431 246.481 308.38 246.543C308.309 246.632 308.246 246.698 308.194 246.739C307.173 248.07 306.238 249.642 306.077 251.491C306.091 251.472 306.106 251.452 306.12 251.431C306.665 250.687 307.381 249.937 308.107 249.927Z" fill="#781C6D"/>
<path d="M339.113 248.656L338.826 249.027L338.787 249.077L338.6 249.09L338.047 249.128C338.192 249.843 338.267 250.583 338.267 251.341C338.267 254.25 337.153 256.898 335.33 258.886C334.249 260.501 332.891 261.486 331.563 262.11C331.52 262.129 331.478 262.149 331.435 262.167C331.17 262.288 330.907 262.393 330.647 262.487C330.635 262.491 330.623 262.496 330.611 262.5C328.74 263.169 327.076 263.221 326.519 263.459C326.417 263.502 326.352 263.551 326.33 263.612C326.002 264.498 327.219 264.924 327.219 264.924C323.445 265.27 321.103 263.517 319.547 262.246L319.544 262.244C318.789 261.625 318.22 261.122 317.763 261.032C317.736 261.025 317.71 261.021 317.684 261.019C316.303 260.887 316.336 262.036 316.336 262.036C314.33 259.279 313.641 255.077 312.359 255.438C311.076 255.799 311.011 256.981 311.011 256.981C310.024 254.388 310.978 251.138 312.588 249.693C314.199 248.25 313.805 246.345 312.588 246.411C311.373 246.476 310.879 247.396 310.879 247.396C310.87 247.352 310.862 247.308 310.856 247.263L310.879 247.231C310.879 247.231 311.032 243.74 315.883 241.844C316.271 241.692 316.69 241.55 317.141 241.422C324.39 239.353 316.993 236.202 323.782 239.935L323.762 239.951C318.914 241.176 315.326 245.561 315.326 250.783C315.326 254.011 316.696 256.919 318.889 258.958C317.373 257.336 316.337 255.265 316.003 252.966C316.001 252.962 316.001 252.957 316 252.953C316 252.949 315.999 252.947 315.999 252.943C315.923 252.419 315.884 251.885 315.884 251.341C315.884 251.071 315.893 250.803 315.913 250.538C315.914 250.522 315.916 250.507 315.917 250.491C316.35 244.717 321.181 240.166 327.076 240.166C327.298 240.166 327.52 240.173 327.739 240.186L327.106 236.36C325.955 236.088 324.756 235.943 323.522 235.943C322.295 235.943 321.1 236.086 319.955 236.357C316.884 237.079 314.165 238.715 312.104 240.962C312.328 241.03 312.546 241.127 312.752 241.256C313.918 241.994 310.853 244.11 309.089 245.793C308.58 247.093 308.243 248.481 308.106 249.926C308.23 249.925 308.355 249.944 308.478 249.988C309.86 250.488 308.77 253.061 309.02 256.838C309.627 258.457 310.499 259.946 311.585 261.255C311.672 261.074 311.795 260.895 311.963 260.722C313.146 259.509 314.856 260.558 315.711 262.2C316.194 263.126 317.076 264.693 318.392 265.999C318.993 266.211 319.61 266.385 320.242 266.519C320.31 266.294 320.449 266.087 320.721 265.985C320.738 265.977 320.754 265.972 320.772 265.965C321.053 265.877 321.463 265.891 322.056 266.088C322.94 266.382 323.934 266.659 325.02 266.797H325.025C327.059 266.6 328.978 266.013 330.705 265.106C330.705 265.106 330.696 264.857 330.797 264.668C330.913 264.452 331.162 264.281 331.361 264.141C331.712 263.895 332.107 263.715 332.507 263.565C332.87 263.428 333.204 263.332 333.624 263.125L333.628 263.122C336.342 260.786 338.236 257.525 338.818 253.83C338.847 253.645 339.109 253.636 339.151 253.818C339.152 253.822 339.153 253.826 339.153 253.829C339.177 253.642 339.196 253.452 339.213 253.259C339.334 251.889 339.316 250.36 339.113 248.656Z" fill="#451065"/>
<path d="M335.978 261.277C335.945 261.311 335.913 261.346 335.879 261.38C335.833 261.428 335.786 261.475 335.74 261.521C335.723 261.538 335.706 261.557 335.687 261.575C335.786 261.48 335.883 261.38 335.978 261.277Z" fill="white"/>
<path d="M338.017 244.232C337.875 245.863 337.626 247.684 337.208 249.647C336.865 251.254 336.459 252.723 336.032 254.043C336.463 253.851 336.893 253.659 337.324 253.467C337.157 254.549 336.46 257.796 333.958 259.692C332.135 261.014 329.868 261.823 327.402 261.882H327.397C327.303 261.884 327.208 261.885 327.112 261.885C320.914 261.885 315.888 257.159 315.888 251.329C315.888 246.94 318.875 242.631 323.484 241.996C323.847 242.503 324.361 243.03 325.135 243.03C327.679 243.03 328.765 242.668 330.145 243.03C331.524 243.393 333.012 244.879 333.012 244.879L334.356 243.538L334.791 244.879C334.791 244.879 336.146 242.321 336.146 239.712C336.146 239.712 334.064 241.401 332.25 238.246C331.597 236.288 320.488 233.896 319.907 229.329C319.907 229.329 318.019 233.533 322.448 235.853L318.019 233.823C318.019 233.823 318.306 235.469 319.673 236.774C315.968 237.446 313.487 239.371 311.829 241.683C311.883 241.779 311.92 241.892 311.932 242.021C312.014 242.921 311.341 243.877 310.621 244.36C310.483 244.454 310.34 244.537 310.195 244.619C308.692 248.15 308.528 251.762 308.563 252.976C310.64 265.179 324.281 265.304 324.444 265.304C330.4 265.304 335.569 261.654 337.814 256.491L337.816 256.487L337.817 256.484C338.342 255.274 338.708 253.981 338.884 252.632C339.752 246.839 338.017 244.232 338.017 244.232Z" fill="#451065"/>
<mask id="mask4_1240_13672" style="mask-type:luminance" maskUnits="userSpaceOnUse" x="308" y="229" width="32" height="37">
<path d="M322.447 235.854L318.019 233.824C318.019 233.824 318.305 235.47 319.672 236.775C309.207 238.672 308.492 250.563 308.562 252.977C310.639 265.179 324.28 265.304 324.443 265.304C330.399 265.304 335.568 261.654 337.813 256.491L337.815 256.488L337.816 256.485C338.341 255.274 338.707 253.981 338.883 252.633C339.751 246.839 338.016 244.232 338.016 244.232C337.874 245.864 337.625 247.685 337.207 249.647C336.864 251.254 336.458 252.723 336.031 254.044C336.462 253.851 336.893 253.659 337.323 253.467C337.156 254.549 336.459 257.797 333.958 259.692C332.134 261.015 329.867 261.823 327.401 261.883H327.397C327.302 261.884 327.207 261.885 327.111 261.885C320.913 261.885 315.887 257.159 315.887 251.329C315.887 246.941 318.874 242.632 323.483 241.997C323.846 242.504 324.36 243.031 325.134 243.031C327.678 243.03 328.764 242.668 330.144 243.031C331.523 243.393 333.012 244.879 333.012 244.879L334.355 243.538L334.79 244.879C334.79 244.879 336.145 242.322 336.145 239.712C336.145 239.712 334.063 241.401 332.249 238.246C331.596 236.289 320.487 233.896 319.906 229.329C319.906 229.329 318.019 233.534 322.447 235.854Z" fill="#8A267E"/>
</mask>
<g mask="url(#mask4_1240_13672)">
<path d="M318.352 233.505L333.406 240.451L334.585 243.537C334.001 242.77 333.054 241.72 331.638 240.887C329.064 239.373 326.984 239.781 324.727 239.194C322.795 238.692 319.745 237.335 318.352 233.505Z" fill="#8A267E"/>
</g>
<mask id="mask5_1240_13672" style="mask-type:luminance" maskUnits="userSpaceOnUse" x="308" y="229" width="32" height="37">
<path d="M322.447 235.854L318.019 233.824C318.019 233.824 318.305 235.47 319.672 236.775C309.207 238.672 308.492 250.563 308.562 252.977C310.639 265.179 324.28 265.304 324.443 265.304C330.399 265.304 335.568 261.654 337.813 256.491L337.815 256.488L337.816 256.485C338.341 255.274 338.707 253.981 338.883 252.633C339.751 246.839 338.016 244.232 338.016 244.232C337.874 245.864 337.625 247.685 337.207 249.647C336.864 251.254 336.458 252.723 336.031 254.044C336.462 253.851 336.893 253.659 337.323 253.467C337.156 254.549 336.459 257.797 333.958 259.692C332.134 261.015 329.867 261.823 327.401 261.883H327.397C327.302 261.884 327.207 261.885 327.111 261.885C320.913 261.885 315.887 257.159 315.887 251.329C315.887 246.941 318.874 242.632 323.483 241.997C323.846 242.504 324.36 243.031 325.134 243.031C327.678 243.03 328.764 242.668 330.144 243.031C331.523 243.393 333.012 244.879 333.012 244.879L334.355 243.538L334.79 244.879C334.79 244.879 336.145 242.322 336.145 239.712C336.145 239.712 334.063 241.401 332.249 238.246C331.596 236.289 320.487 233.896 319.906 229.329C319.906 229.329 318.019 233.534 322.447 235.854Z" fill="#781C6D"/>
</mask>
<g mask="url(#mask5_1240_13672)">
<path d="M319.245 232.891L334.3 239.837L335.478 242.923C334.894 242.155 333.948 241.106 332.532 240.273C329.957 238.759 327.878 239.166 325.621 238.58C323.689 238.077 320.638 236.72 319.245 232.891Z" fill="#781C6D"/>
</g>
<mask id="mask6_1240_13672" style="mask-type:luminance" maskUnits="userSpaceOnUse" x="308" y="229" width="32" height="37">
<path d="M322.447 235.854L318.019 233.824C318.019 233.824 318.305 235.47 319.672 236.775C309.207 238.672 308.492 250.563 308.562 252.977C310.639 265.179 324.28 265.304 324.443 265.304C330.399 265.304 335.568 261.654 337.813 256.491L337.815 256.488L337.816 256.485C338.341 255.274 338.707 253.981 338.883 252.633C339.751 246.839 338.016 244.232 338.016 244.232C337.874 245.864 337.625 247.685 337.207 249.647C336.864 251.254 336.458 252.723 336.031 254.044C336.462 253.851 336.893 253.659 337.323 253.467C337.156 254.549 336.459 257.797 333.958 259.692C332.134 261.015 329.867 261.823 327.401 261.883H327.397C327.302 261.884 327.207 261.885 327.111 261.885C320.913 261.885 315.887 257.159 315.887 251.329C315.887 246.941 318.874 242.632 323.483 241.997C323.846 242.504 324.36 243.031 325.134 243.031C327.678 243.03 328.764 242.668 330.144 243.031C331.523 243.393 333.012 244.879 333.012 244.879L334.355 243.538L334.79 244.879C334.79 244.879 336.145 242.322 336.145 239.712C336.145 239.712 334.063 241.401 332.249 238.246C331.596 236.289 320.487 233.896 319.906 229.329C319.906 229.329 318.019 233.534 322.447 235.854Z" fill="#C0177B"/>
</mask>
<g mask="url(#mask6_1240_13672)">
<path d="M320.245 228.202C320.245 228.202 320.455 231.358 323.913 232.963C327.37 234.568 332.752 236.344 333.37 238.152C333.989 239.959 336.796 238.283 336.796 238.283C336.796 238.283 335.888 244.571 334.978 245.48L334.355 243.538L334.162 243.001C333.733 241.697 332.849 240.587 331.661 239.897C331.082 239.56 330.358 239.23 329.459 238.954C327.927 238.483 324.973 237.243 322.447 235.854C322.065 235.644 321.648 235.443 321.313 235.193C318.818 233.334 317.533 230.909 320.245 228.202Z" fill="#C0177B"/>
</g>
<mask id="mask7_1240_13672" style="mask-type:luminance" maskUnits="userSpaceOnUse" x="319" y="229" width="18" height="16">
<path d="M322.262 235.753C322.324 235.786 322.386 235.82 322.447 235.853C324.973 237.243 327.927 238.483 329.459 238.954C330.358 239.23 331.081 239.559 331.661 239.896C332.848 240.587 333.733 241.696 334.162 243L334.354 243.538L334.79 244.879C334.79 244.879 336.144 242.321 336.144 239.711C336.144 239.711 334.062 241.401 332.248 238.246C331.595 236.288 320.486 233.896 319.905 229.329C319.905 229.329 318.071 233.415 322.262 235.753Z" fill="#E84A86"/>
</mask>
<g mask="url(#mask7_1240_13672)">
<path d="M334.848 244.994C334.848 244.994 335.759 243.995 335.277 242.016C334.795 240.037 331.295 239.252 330.598 238.557C329.902 237.861 330.598 237.576 330.598 237.576C330.598 237.576 316.437 232.405 320.562 228.286C324.687 224.167 335.098 235.383 335.098 235.383L339.125 238.272V241.517C339.125 241.766 334.848 244.994 334.848 244.994Z" fill="#E84A86"/>
</g>
<mask id="mask8_1240_13672" style="mask-type:luminance" maskUnits="userSpaceOnUse" x="308" y="229" width="32" height="37">
<path d="M322.447 235.854L318.019 233.824C318.019 233.824 318.305 235.47 319.672 236.775C309.207 238.672 308.492 250.563 308.562 252.977C310.639 265.179 324.28 265.304 324.443 265.304C330.399 265.304 335.568 261.654 337.813 256.491L337.815 256.488L337.816 256.485C338.341 255.274 338.707 253.981 338.883 252.633C339.751 246.839 338.016 244.232 338.016 244.232C337.874 245.864 337.625 247.685 337.207 249.647C336.864 251.254 336.458 252.723 336.031 254.044C336.462 253.851 336.893 253.659 337.323 253.467C337.156 254.549 336.459 257.797 333.958 259.692C332.134 261.015 329.867 261.823 327.401 261.883H327.397C327.302 261.884 327.207 261.885 327.111 261.885C320.913 261.885 315.887 257.159 315.887 251.329C315.887 246.941 318.874 242.632 323.483 241.997C323.846 242.504 324.36 243.031 325.134 243.031C327.678 243.03 328.764 242.668 330.144 243.031C331.523 243.393 333.012 244.879 333.012 244.879L334.355 243.538L334.79 244.879C334.79 244.879 336.145 242.322 336.145 239.712C336.145 239.712 334.063 241.401 332.249 238.246C331.596 236.289 320.487 233.896 319.906 229.329C319.906 229.329 318.019 233.534 322.447 235.854Z" fill="#2B0042"/>
</mask>
<g mask="url(#mask8_1240_13672)">
<path d="M321.761 260.524C321.761 260.524 332.797 266.836 338.422 254.8C344.048 242.764 337.833 243.46 337.833 243.46L331.993 250.146L321.761 260.524Z" fill="#2B0042"/>
</g>
<path d="M330.145 243.03C330.145 243.03 326.825 242.931 321.893 243.719C321.893 243.719 323.472 241.553 325.74 240.765C328.008 239.977 330.145 243.03 330.145 243.03Z" fill="#451065"/>
<path d="M321.893 243.719C321.893 243.719 330.671 242.111 333.038 242.455C333.038 242.455 329.054 241.563 326.693 241.356C323.891 241.109 321.893 243.719 321.893 243.719Z" fill="#781C6D"/>
<path d="M333.038 242.456L321.893 243.719C321.893 243.719 323.052 240.896 333.038 242.456Z" fill="#C0177B"/>
<path d="M327.266 243.104L333.036 242.456C333.036 242.456 332.074 243.405 333.011 244.879C333.011 244.879 330.423 243.079 327.266 243.104Z" fill="#310C4A"/>
<path d="M318.889 258.958C316.696 256.92 315.326 254.012 315.326 250.784C315.326 245.562 318.913 241.177 323.762 239.951L323.782 239.936C316.993 236.203 324.39 239.354 317.141 241.422C316.689 241.551 316.27 241.692 315.883 241.844C311.031 243.74 310.879 247.232 310.879 247.232L310.856 247.264C310.862 247.308 310.87 247.352 310.879 247.397C310.879 247.397 311.372 246.477 312.588 246.412C313.804 246.345 314.199 248.25 312.588 249.694C310.978 251.139 310.024 254.388 311.01 256.982C311.01 256.982 311.076 255.8 312.359 255.438C313.64 255.077 314.33 259.279 316.335 262.036C316.335 262.036 316.303 260.888 317.684 261.019C317.71 261.022 317.736 261.026 317.763 261.032C318.22 261.123 318.788 261.626 319.543 262.244L319.547 262.247C321.102 263.518 323.445 265.271 327.219 264.925C327.219 264.925 326.002 264.499 326.33 263.613C326.352 263.552 326.417 263.502 326.519 263.459C327.189 263.176 328.014 263.164 328.722 263.019C330.986 262.554 333.114 261.566 334.642 259.792C334.889 259.505 335.119 259.202 335.33 258.887C336.095 257.743 336.749 256.283 337.132 254.411C337.127 254.427 337.12 254.443 337.113 254.46C337.026 254.687 336.942 254.915 336.838 255.135C336.729 255.364 336.618 255.591 336.505 255.818C336.402 256.023 336.296 256.226 336.18 256.424C335.899 256.904 335.581 257.362 335.232 257.795C334.535 258.656 333.71 259.415 332.793 260.037C330.96 261.279 328.741 261.958 326.517 261.958C323.57 261.958 320.888 260.82 318.889 258.958Z" fill="#53009C"/>
<path d="M333.628 263.123C333.693 263.09 333.759 263.053 333.827 263.014C336.445 261.544 338.078 258.696 338.785 255.86C338.944 255.222 339.153 254.492 339.153 253.83C339.071 253.473 338.998 253.146 338.939 252.87C338.555 256.959 336.575 260.587 333.628 263.123Z" fill="#781C6D"/>
<path d="M318.392 265.999C317.076 264.693 316.194 263.126 315.711 262.2C314.856 260.558 313.146 259.508 311.963 260.722C311.796 260.895 311.672 261.074 311.585 261.255C311.146 262.15 311.58 263.082 311.749 263.386C311.677 263.088 311.526 262.225 312.049 261.792C312.15 261.71 312.273 261.642 312.428 261.598C312.446 261.591 312.466 261.586 312.484 261.582C312.649 261.541 312.844 261.525 313.077 261.541C314.315 261.623 315.082 263.585 316.604 265.241C317.469 266.185 318.58 267.028 320.161 267.371C320.141 267.361 320.122 267.349 320.103 267.338C319.467 266.964 318.897 266.5 318.392 265.999Z" fill="#310C4A"/>
<path d="M309.157 258.149C309.091 257.698 309.047 257.261 309.019 256.839C308.769 253.062 309.86 250.489 308.478 249.989C308.354 249.945 308.229 249.925 308.106 249.926C307.38 249.937 306.664 250.687 306.119 251.431C306.104 251.452 306.09 251.471 306.076 251.491C306.059 251.677 306.05 251.865 306.05 252.056C306.05 252.056 306.065 252.043 306.096 252.022C306.18 251.964 306.371 251.838 306.614 251.746C306.656 251.729 306.699 251.713 306.743 251.699C306.752 251.696 306.761 251.694 306.769 251.691C306.803 251.681 306.838 251.671 306.873 251.664C307.248 251.577 307.688 251.608 308.048 252.008C308.234 252.216 308.399 252.524 308.522 252.966C308.772 253.864 308.792 255.146 308.92 256.569C308.982 257.251 309.069 257.966 309.217 258.686C309.209 258.543 309.194 258.391 309.169 258.228C309.165 258.202 309.161 258.175 309.157 258.149Z" fill="#310C4A"/>
<path d="M308.379 246.543C308.43 246.48 308.485 246.417 308.542 246.352C308.702 246.174 308.887 245.987 309.089 245.793C310.853 244.11 313.918 241.995 312.752 241.257C312.546 241.127 312.328 241.031 312.104 240.962C311.059 240.637 309.911 240.892 309.569 240.983C309.531 240.993 309.504 241.001 309.487 241.005C309.75 240.981 310.895 240.952 311.095 242.178C311.115 242.296 311.125 242.428 311.125 242.571C311.125 243.331 310.238 244.296 309.206 245.503C308.875 245.89 308.53 246.301 308.193 246.739C308.245 246.697 308.308 246.631 308.379 246.543Z" fill="#310C4A"/>
<rect x="361.843" y="222.998" width="55.0021" height="55.0021" rx="15.8279" fill="#ABE20D"/>
<path d="M407.348 252.092V260.882C407.348 261.56 406.58 261.9 406.13 261.419L395.484 250.074C395.454 250.04 395.417 250.014 395.376 249.996C395.335 249.978 395.291 249.968 395.246 249.968C395.201 249.968 395.157 249.978 395.116 249.996C395.075 250.014 395.038 250.04 395.008 250.074L384.361 261.419C383.915 261.9 383.147 261.56 383.147 260.882V252.092C383.147 251.893 383.221 251.701 383.356 251.556L394.742 239.418C394.806 239.348 394.884 239.292 394.971 239.254C395.058 239.216 395.152 239.196 395.246 239.196C395.341 239.196 395.435 239.216 395.522 239.254C395.608 239.292 395.686 239.348 395.751 239.418L407.139 251.556C407.274 251.701 407.349 251.893 407.348 252.092Z" fill="white"/>
<path d="M388.276 244.35L383.648 239.419C383.584 239.348 383.506 239.291 383.419 239.252C383.332 239.213 383.238 239.193 383.142 239.193C383.047 239.193 382.953 239.213 382.865 239.252C382.778 239.291 382.7 239.348 382.636 239.419L371.251 251.555C371.116 251.701 371.041 251.893 371.042 252.093V260.883C371.042 261.56 371.809 261.899 372.259 261.42L388.276 244.35Z" fill="white"/>
<path d="M395.247 252.092V260.882C395.247 261.56 394.48 261.899 394.03 261.419L390.121 257.254L395.205 251.835C395.233 251.918 395.247 252.005 395.247 252.092Z" fill="white"/>
<rect x="402.11" y="158.499" width="55.0021" height="55.0021" rx="15.8279" fill="#684EEC"/>
<rect x="337.311" y="158.499" width="55.0021" height="55.0021" rx="15.8279" fill="url(#paint7_linear_1240_13672)"/>
<g clip-path="url(#clip2_1240_13672)" filter="url(#filter0_f_1240_13672)">
<path d="M377.606 177.652C377.237 177.131 376.193 176.053 375.139 175.436C374.298 174.936 373.397 174.838 372.267 175.163C372.129 174.946 371.904 174.605 371.758 174.404C370.471 172.612 368.883 171.442 367.229 170.962C364.123 170.058 360.34 172.421 359.378 174.883C358.001 174.893 356.641 175.179 355.431 175.907C352.555 177.636 352.71 180.951 353.127 182.967L353.312 182.905C353.47 182.393 353.702 181.059 356.126 179.852C356.126 179.852 354.762 181.275 354.308 183.212C357.132 182.501 363.506 183.24 363.909 181.718C363.506 180.706 359.95 181.827 358.305 182.12C356.282 182.479 354.516 183.052 353.096 183.733C350.618 184.926 349.22 186.455 349.451 187.773C349.651 188.913 351.069 189.426 352.303 189.657L352.287 189.589C350.278 188.976 348.709 187.543 353.397 185.84C357.493 184.352 372.439 183.2 372.439 183.2C372.439 183.2 360.183 185.909 357.214 187.302C354.648 188.503 354.255 189.507 354.175 189.796C354.509 190.894 354.992 191.937 355.609 192.893C355.425 195.817 355.568 200.575 360.259 201.542C362.711 202.047 365.439 200.21 365.439 200.21L365.997 199.807C368.243 197.968 370.675 195.249 372.25 191.774C374.019 187.87 374.607 185 374.724 183.625L374.884 183.331C377.496 186.596 377.693 189.884 377.315 191.703C377.026 193.1 376.647 195.025 374.72 196.73C373.624 197.704 371.702 198.166 370.868 198.197L370.742 198.339C372.072 198.479 373.58 197.857 374.44 197.337C377.178 195.665 378.97 193.036 379.888 188.61C380.872 183.818 379.331 180.094 377.606 177.652ZM366.369 176.645C364.671 175.851 362.546 174.985 359.86 174.888L359.892 174.786C360.808 174.503 362.695 174.176 365.361 175.204C368.65 176.473 373.827 181.638 374.652 182.775C374.383 182.485 369.41 178.068 366.369 176.645ZM372.3 186.957C372.3 186.957 366.644 195.87 360.591 196.412C358.485 196.599 356.668 194.586 355.927 193.545L355.929 193.387C356.673 194.412 358.676 196.58 361.681 195.404C366.447 193.54 372.25 187.461 372.25 187.461L374.587 183.454L372.3 186.957ZM374.851 182.816C374.847 182.714 374.825 182.498 374.811 182.384C374.507 179.887 373.682 177.494 372.391 175.368C373.553 175.062 374.496 175.141 375.147 175.68C377.631 177.74 374.849 182.816 374.849 182.816L374.851 182.816Z" fill="white"/>
</g>
<g clip-path="url(#clip3_1240_13672)">
<path d="M377.606 177.652C377.237 177.131 376.193 176.053 375.139 175.436C374.298 174.936 373.397 174.838 372.267 175.163C372.129 174.946 371.904 174.605 371.758 174.404C370.471 172.612 368.883 171.442 367.229 170.962C364.123 170.058 360.34 172.421 359.378 174.883C358.001 174.893 356.641 175.179 355.431 175.907C352.555 177.636 352.71 180.951 353.127 182.967L353.312 182.905C353.47 182.393 353.702 181.059 356.126 179.852C356.126 179.852 354.762 181.275 354.308 183.212C357.132 182.501 363.506 183.24 363.909 181.718C363.506 180.706 359.95 181.827 358.305 182.12C356.282 182.479 354.516 183.052 353.096 183.733C350.618 184.926 349.22 186.455 349.451 187.773C349.651 188.913 351.069 189.426 352.303 189.657L352.287 189.589C350.278 188.976 348.709 187.543 353.397 185.84C357.493 184.352 372.439 183.2 372.439 183.2C372.439 183.2 360.183 185.909 357.214 187.302C354.648 188.503 354.255 189.507 354.175 189.796C354.509 190.894 354.992 191.937 355.609 192.893C355.425 195.817 355.568 200.575 360.259 201.542C362.711 202.047 365.439 200.21 365.439 200.21L365.997 199.807C368.243 197.968 370.675 195.249 372.25 191.774C374.019 187.87 374.607 185 374.724 183.625L374.884 183.331C377.496 186.596 377.693 189.884 377.315 191.703C377.026 193.1 376.647 195.025 374.72 196.73C373.624 197.704 371.702 198.166 370.868 198.197L370.742 198.339C372.072 198.479 373.58 197.857 374.44 197.337C377.178 195.665 378.97 193.036 379.888 188.61C380.872 183.818 379.331 180.094 377.606 177.652ZM366.369 176.645C364.671 175.851 362.546 174.985 359.86 174.888L359.892 174.786C360.808 174.503 362.695 174.176 365.361 175.204C368.65 176.473 373.827 181.638 374.652 182.775C374.383 182.485 369.41 178.068 366.369 176.645ZM372.3 186.957C372.3 186.957 366.644 195.87 360.591 196.412C358.485 196.599 356.668 194.586 355.927 193.545L355.929 193.387C356.673 194.412 358.676 196.58 361.681 195.404C366.447 193.54 372.25 187.461 372.25 187.461L374.587 183.454L372.3 186.957ZM374.851 182.816C374.847 182.714 374.825 182.498 374.811 182.384C374.507 179.887 373.682 177.494 372.391 175.368C373.553 175.062 374.496 175.141 375.147 175.68C377.631 177.74 374.849 182.816 374.849 182.816L374.851 182.816Z" fill="white"/>
</g>
<rect x="361.843" y="94" width="55.0021" height="55.0021" rx="15.8279" fill="url(#paint8_linear_1240_13672)"/>
<path d="M382.068 120.116C380.885 120.116 379.843 119.856 378.942 119.337C378.048 118.817 377.349 118.045 376.844 117.019C376.34 115.993 376.088 114.72 376.088 113.201C376.088 111.675 376.337 110.4 376.834 109.374C377.338 108.348 378.041 107.575 378.942 107.056C379.843 106.53 380.885 106.267 382.068 106.267C383.775 106.267 385.076 106.661 385.97 107.45C386.864 108.239 387.395 109.262 387.563 110.518L384.135 111.1C383.98 110.535 383.735 110.068 383.399 109.699C383.069 109.325 382.626 109.137 382.068 109.137C381.57 109.137 381.13 109.285 380.747 109.581C380.37 109.87 380.078 110.314 379.869 110.913C379.661 111.511 379.557 112.274 379.557 113.201C379.557 114.109 379.664 114.862 379.88 115.46C380.095 116.052 380.39 116.493 380.767 116.782C381.15 117.071 381.584 117.216 382.068 117.216C382.76 117.216 383.278 117.038 383.621 116.683C383.963 116.322 384.135 115.884 384.135 115.371H387.543C387.543 116.391 387.331 117.255 386.908 117.966C386.491 118.669 385.876 119.205 385.062 119.573C384.249 119.935 383.251 120.116 382.068 120.116Z" fill="white"/>
<path d="M389.542 119.325L394.132 106.267H398.264L402.6 119.325H399.178L398.437 117.028H393.736L392.994 119.325H389.542ZM394.558 114.722H397.696L396.152 109.945L394.558 114.722Z" fill="white"/>
<path d="M382.075 123.677V134.011H387.565V136.735H378.859V123.677H382.075Z" fill="white"/>
<path d="M397.105 137.131C395.922 137.131 394.88 136.879 393.979 136.374C393.085 135.869 392.386 135.119 391.881 134.122C391.378 133.126 391.125 131.889 391.125 130.414C391.125 128.932 391.374 127.692 391.871 126.696C392.376 125.699 393.078 124.949 393.979 124.444C394.88 123.933 395.922 123.677 397.105 123.677C398.813 123.677 400.113 124.06 401.008 124.827C401.902 125.594 402.433 126.587 402.6 127.807L399.173 128.373C399.018 127.823 398.772 127.37 398.437 127.012C398.107 126.648 397.663 126.466 397.105 126.466C396.608 126.466 396.168 126.609 395.785 126.897C395.408 127.178 395.115 127.609 394.907 128.191C394.698 128.772 394.594 129.513 394.594 130.414C394.594 131.295 394.702 132.027 394.917 132.608C395.132 133.183 395.427 133.611 395.804 133.892C396.187 134.173 396.622 134.314 397.105 134.314C397.798 134.314 398.315 134.141 398.659 133.796C399.001 133.445 399.173 133.02 399.173 132.522H402.581C402.581 133.512 402.369 134.352 401.945 135.042C401.529 135.726 400.914 136.246 400.101 136.604C399.286 136.955 398.289 137.131 397.105 137.131Z" fill="white"/>
<g clip-path="url(#clip4_1240_13672)">
<rect x="297.345" y="94" width="55.0021" height="55.0021" rx="15.8279" fill="#0B3075"/>
<path d="M321.062 100.943C315.468 101.15 311.082 103.105 307.104 107.025C303.531 110.557 301.355 116.342 304.13 120.369C307.212 124.397 310.024 124.384 312.346 127.107C315.253 130.512 315.076 135.77 317.994 139.176C319.826 141.318 322.615 142.481 325.303 142.504C327.997 142.53 329.457 142.306 333.289 139.774C337.586 136.934 340.167 132.129 341.334 128.276C342.61 124.044 343.142 121.957 342.615 117.578C342.065 112.95 338.438 106.682 332.246 103.363C327.099 101.129 325.662 100.773 321.062 100.943Z" fill="#5493F6" fill-opacity="0.75"/>
<path d="M321.046 122.45C317.877 124.501 315.709 127.399 315.201 130.711C314.787 133.32 315.794 136.565 316.737 137.824C317.777 139.42 318.765 140.462 320.454 141.42C321.976 142.311 323.588 142.558 325.993 142.634C328.152 142.659 330.183 141.537 331.312 140.919C334.06 139.444 336.952 136.65 338.291 134.89C339.497 133.305 341.012 130.734 341.757 128.33C342.503 126.059 342.922 123.471 343.007 121.087C343.093 118.644 343.02 116.2 340.564 115.576C337.929 114.908 326.037 119.161 321.046 122.45Z" fill="#2043B5" fill-opacity="0.8"/>
<path d="M327.748 104.609C322.877 104.538 320.105 105.236 317.275 106.338C314.462 107.453 310.411 109.551 307.984 114.928C303.826 122.751 306.12 134.102 312.558 140.352C315.043 142.767 318.481 144.613 321.81 144.694C323.413 144.748 325 144.38 326.404 143.474C329.443 141.443 330.547 137.557 333.325 135.225C336.821 132.313 342.236 132.383 345.745 129.292C348.817 126.653 349.647 122.031 348.344 118.232C347.252 114.945 341.458 109.237 336.944 107.003C334.718 105.9 332.971 104.685 327.748 104.609Z" fill="#3573EC" fill-opacity="0.7"/>
<path d="M328.162 130.866L324.963 124.554L322.83 126.472L321.862 130.866H318.217L321.714 114.696H325.384L324.02 120.985L331.064 114.696H336.148L327.84 122.029L332.552 130.866H328.162Z" fill="white"/>
</g>
</g>
<defs>
<filter id="filter0_f_1240_13672" x="346.808" y="168.787" width="36.0085" height="34.8212" filterUnits="userSpaceOnUse" color-interpolation-filters="sRGB">
<feFlood flood-opacity="0" result="BackgroundImageFix"/>
<feBlend mode="normal" in="SourceGraphic" in2="BackgroundImageFix" result="shape"/>
<feGaussianBlur stdDeviation="0.989246" result="effect1_foregroundBlur_1240_13672"/>
</filter>
<radialGradient id="paint0_radial_1240_13672" cx="0" cy="0" r="1" gradientUnits="userSpaceOnUse" gradientTransform="translate(374.763 135.086) rotate(180) scale(362.763 233)">
<stop offset="0.4" stop-color="#D9D9D9"/>
<stop offset="1" stop-color="#737373" stop-opacity="0"/>
</radialGradient>
<linearGradient id="paint1_linear_1240_13672" x1="195.056" y1="163.049" x2="145.792" y2="213.501" gradientUnits="userSpaceOnUse">
<stop stop-color="#00F0FF"/>
<stop offset="1" stop-color="#4230FF"/>
</linearGradient>
<radialGradient id="paint2_angular_1240_13672" cx="0" cy="0" r="1" gradientUnits="userSpaceOnUse" gradientTransform="translate(164.761 185.448) rotate(134.397) scale(12.5841)">
<stop stop-color="white"/>
<stop offset="0.282107" stop-color="white"/>
<stop offset="1" stop-color="white" stop-opacity="0.55"/>
</radialGradient>
<radialGradient id="paint3_angular_1240_13672" cx="0" cy="0" r="1" gradientUnits="userSpaceOnUse" gradientTransform="translate(180.309 184.511) rotate(134.397) scale(11.2672 10.3897)">
<stop stop-color="white"/>
<stop offset="0.247101" stop-color="white"/>
<stop offset="1" stop-color="white" stop-opacity="0.55"/>
</radialGradient>
<radialGradient id="paint4_radial_1240_13672" cx="0" cy="0" r="1" gradientUnits="userSpaceOnUse" gradientTransform="translate(195.848 250.498) scale(27.3453 28.0249)">
<stop offset="0.256717" stop-color="#FF4B94"/>
<stop offset="1" stop-color="#FF2E79"/>
</radialGradient>
<radialGradient id="paint5_radial_1240_13672" cx="0" cy="0" r="1" gradientUnits="userSpaceOnUse" gradientTransform="translate(237.392 187.577) rotate(-135) scale(51.3627 38.7357)">
<stop offset="0.140625" stop-color="#FFFBD8"/>
<stop offset="0.307292" stop-color="#5FECDB" stop-opacity="0.64"/>
<stop offset="0.520833" stop-color="#4FBAF7"/>
<stop offset="0.791667" stop-color="#A745F4"/>
</radialGradient>
<linearGradient id="paint6_linear_1240_13672" x1="195.848" y1="94" x2="195.848" y2="149.002" gradientUnits="userSpaceOnUse">
<stop stop-color="#FE735F"/>
<stop offset="1" stop-color="#FF2A2A"/>
</linearGradient>
<linearGradient id="paint7_linear_1240_13672" x1="364.812" y1="158.499" x2="364.812" y2="213.501" gradientUnits="userSpaceOnUse">
<stop stop-color="#6A97FF"/>
<stop offset="1" stop-color="#92D8FF"/>
</linearGradient>
<linearGradient id="paint8_linear_1240_13672" x1="366.591" y1="99.7376" x2="414.471" y2="147.221" gradientUnits="userSpaceOnUse">
<stop stop-color="#FB9B29"/>
<stop offset="1" stop-color="#F4B67C"/>
</linearGradient>
<clipPath id="clip0_1240_13672">
<rect x="208.312" y="158.499" width="55.0021" height="55.0021" rx="15.8279" fill="white"/>
</clipPath>
<clipPath id="clip1_1240_13672">
<rect x="232.847" y="94" width="55.0021" height="55.0021" rx="15.8279" fill="white"/>
</clipPath>
<clipPath id="clip2_1240_13672">
<rect width="32.0516" height="30.8645" fill="white" transform="translate(348.787 170.765)"/>
</clipPath>
<clipPath id="clip3_1240_13672">
<rect width="32.0516" height="30.8645" fill="white" transform="translate(348.787 170.765)"/>
</clipPath>
<clipPath id="clip4_1240_13672">
<rect x="297.345" y="94" width="55.0021" height="55.0021" rx="15.8279" fill="white"/>
</clipPath>
</defs>
</svg>
