<svg width="236" height="196" viewBox="0 0 236 196" fill="none" xmlns="http://www.w3.org/2000/svg">
<g id="liquid">
<g id="Group 10075">
<g id="Group 10079">
<path id="Union" d="M74.2525 47.2191C88.9727 51.1634 97.9597 62.5347 101.699 77.3938C104.556 87.4852 111.263 92.8919 118.849 94.9597C126.453 96.9628 135.388 95.7474 142.908 88.435C153.768 77.1883 167.045 72.0827 181.765 76.0269C201.89 81.4194 213.833 102.106 208.44 122.231C203.048 142.356 182.362 154.299 162.237 148.906C147.517 144.962 138.915 133.308 134.79 118.733C131.934 108.64 124.877 103.263 117.29 101.195C109.686 99.1924 101.101 100.378 93.5815 107.69C82.9943 118.343 69.4448 124.043 54.7245 120.099C34.5994 114.706 22.6562 94.02 28.0487 73.8949C33.4412 53.7698 54.1274 41.8266 74.2525 47.2191Z" fill="url(#paint0_radial_1023_37905)"/>
</g>
<g id="Group 10072">
<g id="Group 10082">
<mask id="mask0_1023_37905" style="mask-type:alpha" maskUnits="userSpaceOnUse" x="37" y="61" width="55" height="50">
<path id="Union_2" d="M90.4805 81.0717C87.9091 70.0449 77.1841 61.7739 64.3439 61.7739C51.5039 61.7739 40.779 70.0449 38.2075 81.0717H37.6333V85.4356C37.6251 85.6831 37.6211 85.9315 37.6211 86.1809C37.6211 86.4302 37.6251 86.6786 37.6333 86.9261V87.4225H37.655C38.363 100.325 50.0412 110.588 64.3439 110.588C78.6469 110.588 90.3251 100.325 91.033 87.4225H91.0546V86.9317C91.0628 86.6823 91.067 86.432 91.067 86.1809C91.067 85.9297 91.0628 85.6794 91.0546 85.43V81.0717H90.4805Z" fill="url(#paint1_linear_1023_37905)"/>
</mask>
<g mask="url(#mask0_1023_37905)">
<path id="Union_3" d="M90.4805 81.0717C87.9091 70.0449 77.1841 61.7739 64.3439 61.7739C51.5039 61.7739 40.779 70.0449 38.2075 81.0717H37.6333V85.4356C37.6251 85.6831 37.6211 85.9315 37.6211 86.1809C37.6211 86.4302 37.6251 86.6786 37.6333 86.9261V87.4225H37.655C38.363 100.325 50.0412 110.588 64.3439 110.588C78.6469 110.588 90.3251 100.325 91.033 87.4225H91.0546V86.9317C91.0628 86.6823 91.067 86.432 91.067 86.1809C91.067 85.9297 91.0628 85.6794 91.0546 85.43V81.0717H90.4805Z" fill="url(#paint2_linear_1023_37905)"/>
</g>
</g>
<path id="Ellipse 268" d="M64.344 57.3536C78.8386 57.3536 90.499 68.0741 90.499 81.1927C90.499 94.3113 78.8386 105.032 64.344 105.032C49.8494 105.032 38.189 94.3113 38.189 81.1927C38.189 68.0741 49.8494 57.3536 64.344 57.3536Z" fill="url(#paint3_linear_1023_37905)" stroke="#FF7C51" stroke-width="1.13574"/>
<path id="Star 12" d="M88.9369 67.8995C89.0767 67.5218 89.6109 67.5218 89.7506 67.8995C90.4341 69.7466 91.8905 71.2029 93.7376 71.8864C94.1153 72.0262 94.1153 72.5603 93.7376 72.7001C91.8905 73.3836 90.4341 74.8399 89.7506 76.687C89.6109 77.0647 89.0767 77.0647 88.9369 76.687C88.2534 74.8399 86.7971 73.3836 84.95 72.7001C84.5723 72.5603 84.5723 72.0262 84.95 71.8864C86.7971 71.2029 88.2534 69.7466 88.9369 67.8995Z" fill="url(#paint4_linear_1023_37905)"/>
</g>
<g id="Group 10084">
<g id="Group 10076">
<g id="Group 10073">
<path id="Union_4" d="M196.973 108.352C194.499 97.7419 184.179 89.7837 171.825 89.7837C159.47 89.7837 149.151 97.7419 146.677 108.352H146.124V112.551C146.116 112.789 146.112 113.028 146.112 113.268C146.112 113.508 146.116 113.747 146.124 113.985V114.462H146.145C146.826 126.877 158.063 136.752 171.825 136.752C185.587 136.752 196.823 126.877 197.504 114.462H197.525V113.99C197.533 113.75 197.537 113.509 197.537 113.268C197.537 113.026 197.533 112.785 197.525 112.545V108.352H196.973Z" fill="url(#paint5_linear_1023_37905)"/>
<path id="Union_5" d="M196.973 108.352C194.499 97.7419 184.179 89.7837 171.825 89.7837C159.47 89.7837 149.151 97.7419 146.677 108.352H146.124V112.551C146.116 112.789 146.112 113.028 146.112 113.268C146.112 113.508 146.116 113.747 146.124 113.985V114.462H146.145C146.826 126.877 158.063 136.752 171.825 136.752C185.587 136.752 196.823 126.877 197.504 114.462H197.525V113.99C197.533 113.75 197.537 113.509 197.537 113.268C197.537 113.026 197.533 112.785 197.525 112.545V108.352H196.973Z" fill="#310D52"/>
<path id="Ellipse 268_2" d="M171.825 85.5516C185.761 85.5516 196.969 95.8589 196.969 108.468C196.969 121.077 185.761 131.384 171.825 131.384C157.888 131.384 146.68 121.077 146.68 108.468C146.68 95.8589 157.888 85.5516 171.825 85.5516Z" fill="url(#paint6_linear_1023_37905)" stroke="#310D52" stroke-width="1.13574"/>
</g>
</g>
<g id="lines">
<path id="Ellipse 269" d="M171.856 88.9792C183.91 88.9792 193.613 97.7794 193.613 108.554C193.613 119.33 183.91 128.13 171.856 128.13C159.801 128.13 150.098 119.33 150.098 108.554C150.098 97.7794 159.801 88.9792 171.856 88.9792Z" stroke="#310D52" stroke-width="0.757158"/>
<path id="Vector 355" d="M153.461 97.9541L155.877 100.853C156.33 101.397 156.578 102.083 156.578 102.792V115.148C156.578 115.919 156.284 116.662 155.755 117.224L153.772 119.33" stroke="#310D52" stroke-width="0.757158"/>
<path id="Vector 358" d="M190.25 97.9541L187.834 100.853C187.38 101.397 187.132 102.083 187.132 102.792V115.148C187.132 115.919 187.426 116.662 187.955 117.224L189.938 119.33" stroke="#310D52" stroke-width="0.757158"/>
<path id="Vector 353" d="M181.209 126.014V121.75C181.209 120.892 181.573 120.074 182.211 119.499L183.324 118.498C183.962 117.924 184.327 117.105 184.327 116.247V99.5199C184.327 98.7166 184.008 97.9463 183.44 97.3783L182.408 96.3464C181.84 95.7785 181.521 95.0081 181.521 94.2049V91.0945" stroke="#310D52" stroke-width="0.757158"/>
<path id="Polygon 1" d="M171.371 101.431C171.62 101.119 172.095 101.119 172.344 101.431L176.007 106.007C177.966 108.455 177.355 112.05 174.695 113.724C172.963 114.814 170.753 114.814 169.02 113.724C166.36 112.05 165.749 108.455 167.708 106.007L171.371 101.431Z" stroke="#310D52" stroke-width="0.757158"/>
<path id="Vector 354" d="M176.844 111.049L178.139 112.345C178.707 112.913 179.477 113.232 180.28 113.232L184.326 113.232" stroke="#310D52" stroke-width="0.757158"/>
<path id="Vector 350" d="M168.114 105.249L164.536 101.314C164.03 100.756 163.749 100.03 163.749 99.2765V90.1587" stroke="#310D52" stroke-width="0.757158"/>
<path id="Vector 352" d="M170.297 89.2243V94.6805C170.297 95.7997 171.204 96.707 172.323 96.707V96.707C173.442 96.707 174.35 95.7997 174.35 94.6805V89.2243" stroke="#310D52" stroke-width="0.757158"/>
<path id="Vector 357" d="M170.297 127.884V122.428C170.297 121.309 171.204 120.401 172.323 120.401V120.401C173.442 120.401 174.35 121.309 174.35 122.428V127.884" stroke="#310D52" stroke-width="0.757158"/>
<path id="Vector 356" d="M159.695 92.342V111.665C159.695 112.468 160.014 113.239 160.582 113.806L164.42 117.644C164.988 118.212 165.307 118.983 165.307 119.786V127.261" stroke="#310D52" stroke-width="0.757158"/>
</g>
</g>
<path id="Ellipse 273" d="M64.3049 48.1934C45.0136 48.1934 29.375 63.6921 29.375 82.8109C29.375 93.0281 33.8413 102.211 40.9445 108.548C43.0027 110.384 45.7572 111.173 48.5264 111.173C51.4431 111.173 54.2761 110.237 56.5172 108.387C59.6753 105.78 64.8215 101.332 71.3315 95.0005C72.7407 93.6298 74.2419 92.3514 75.8114 91.164C80.1213 87.9033 84.2855 84.4848 87.805 81.4876C93.9904 76.2199 96.6358 67.4015 91.5191 61.1077C85.1164 53.2321 75.3044 48.1934 64.3049 48.1934Z" fill="url(#paint7_linear_1023_37905)"/>
</g>
<g id="Group 10077">
<circle id="Ellipse 268_3" cx="184.029" cy="63.5185" r="5.64182" transform="rotate(-44.948 184.029 63.5185)" fill="url(#paint8_radial_1023_37905)"/>
<circle id="Ellipse 270" cx="101.567" cy="132.58" r="6.61728" transform="rotate(11.9939 101.567 132.58)" fill="url(#paint9_radial_1023_37905)"/>
<circle id="Ellipse 269_2" cx="43.752" cy="37.9751" r="5.69565" transform="rotate(11.9939 43.752 37.9751)" fill="url(#paint10_radial_1023_37905)"/>
<circle id="Ellipse 271" cx="2.58148" cy="2.58148" r="2.58148" transform="matrix(0.707749 -0.706464 0.706465 0.707748 190.985 69.9648)" fill="url(#paint11_radial_1023_37905)"/>
<circle id="Ellipse 272" cx="90.4123" cy="133.622" r="2.58148" transform="rotate(15 90.4123 133.622)" fill="url(#paint12_radial_1023_37905)"/>
</g>
</g>
<defs>
<radialGradient id="paint0_radial_1023_37905" cx="0" cy="0" r="1" gradientUnits="userSpaceOnUse" gradientTransform="translate(39.0335 69.3939) rotate(22.7806) scale(179.561 124.801)">
<stop stop-color="#FFAAF1"/>
<stop offset="0.145474" stop-color="#FE56E3"/>
<stop offset="0.315" stop-color="#D714B8"/>
<stop offset="0.484678" stop-color="#D920E7"/>
<stop offset="0.782585" stop-color="#A01DFB"/>
<stop offset="1" stop-color="#5900B2"/>
</radialGradient>
<linearGradient id="paint1_linear_1023_37905" x1="85.8245" y1="103.113" x2="71.8653" y2="69.2317" gradientUnits="userSpaceOnUse">
<stop stop-color="#FF7C51"/>
<stop offset="0.163935" stop-color="#EB6474"/>
<stop offset="0.65444" stop-color="#FFBF65"/>
<stop offset="1" stop-color="#EBECD9"/>
</linearGradient>
<linearGradient id="paint2_linear_1023_37905" x1="85.8245" y1="103.113" x2="71.8653" y2="69.2317" gradientUnits="userSpaceOnUse">
<stop stop-color="#FF7C51"/>
<stop offset="0.163935" stop-color="#EB6474"/>
<stop offset="0.65444" stop-color="#FFBF65"/>
<stop offset="1" stop-color="#EBECD9"/>
</linearGradient>
<linearGradient id="paint3_linear_1023_37905" x1="87.0743" y1="98.0213" x2="79.0309" y2="58.7199" gradientUnits="userSpaceOnUse">
<stop stop-color="#FFE0EA"/>
<stop offset="0.225" stop-color="#FFD6C1"/>
<stop offset="0.532697" stop-color="#FFBF65"/>
<stop offset="1" stop-color="#FF7B50"/>
</linearGradient>
<linearGradient id="paint4_linear_1023_37905" x1="89.3436" y1="66.8003" x2="89.3436" y2="77.7869" gradientUnits="userSpaceOnUse">
<stop stop-color="white"/>
<stop offset="0.755" stop-color="#E3FDFF"/>
</linearGradient>
<linearGradient id="paint5_linear_1023_37905" x1="192.493" y1="129.559" x2="179.062" y2="96.9595" gradientUnits="userSpaceOnUse">
<stop stop-color="#FF7C51"/>
<stop offset="0.163935" stop-color="#EB6474"/>
<stop offset="0.65444" stop-color="#FFBF65"/>
<stop offset="1" stop-color="#EBECD9"/>
</linearGradient>
<linearGradient id="paint6_linear_1023_37905" x1="191.499" y1="92.0297" x2="145.98" y2="116.66" gradientUnits="userSpaceOnUse">
<stop stop-color="#8E32E4"/>
<stop offset="0.487949" stop-color="#A835F8"/>
<stop offset="1" stop-color="#C626FE"/>
</linearGradient>
<linearGradient id="paint7_linear_1023_37905" x1="37.6342" y1="61.0338" x2="70.0397" y2="95.9045" gradientUnits="userSpaceOnUse">
<stop stop-color="#FFF5FE" stop-opacity="0.52"/>
<stop offset="1" stop-color="#FFA5FA" stop-opacity="0"/>
</linearGradient>
<radialGradient id="paint8_radial_1023_37905" cx="0" cy="0" r="1" gradientUnits="userSpaceOnUse" gradientTransform="translate(184.029 57.8767) rotate(90) scale(10.0902 12.917)">
<stop stop-color="#FFAFF2"/>
<stop offset="0.19" stop-color="#FF8DED"/>
<stop offset="0.495" stop-color="#FB30DB"/>
<stop offset="1" stop-color="#A31DF9"/>
</radialGradient>
<radialGradient id="paint9_radial_1023_37905" cx="0" cy="0" r="1" gradientUnits="userSpaceOnUse" gradientTransform="translate(101.567 125.963) rotate(90) scale(11.8347 15.1503)">
<stop stop-color="#FFAFF2"/>
<stop offset="0.19" stop-color="#FF8DED"/>
<stop offset="0.495" stop-color="#FB30DB"/>
<stop offset="1" stop-color="#A31DF9"/>
</radialGradient>
<radialGradient id="paint10_radial_1023_37905" cx="0" cy="0" r="1" gradientUnits="userSpaceOnUse" gradientTransform="translate(43.752 32.2795) rotate(90) scale(10.1864 13.0402)">
<stop stop-color="#FFAFF2"/>
<stop offset="0.19" stop-color="#FF8DED"/>
<stop offset="0.495" stop-color="#FB30DB"/>
<stop offset="1" stop-color="#A31DF9"/>
</radialGradient>
<radialGradient id="paint11_radial_1023_37905" cx="0" cy="0" r="1" gradientUnits="userSpaceOnUse" gradientTransform="translate(2.58148) rotate(90) scale(4.61688 5.91031)">
<stop stop-color="#FFAFF2"/>
<stop offset="0.19" stop-color="#FF8DED"/>
<stop offset="0.495" stop-color="#FB30DB"/>
<stop offset="1" stop-color="#A31DF9"/>
</radialGradient>
<radialGradient id="paint12_radial_1023_37905" cx="0" cy="0" r="1" gradientUnits="userSpaceOnUse" gradientTransform="translate(90.4123 131.04) rotate(90) scale(4.61688 5.91031)">
<stop stop-color="#FFAFF2"/>
<stop offset="0.19" stop-color="#FF8DED"/>
<stop offset="0.495" stop-color="#FB30DB"/>
<stop offset="1" stop-color="#A31DF9"/>
</radialGradient>
</defs>
</svg>
