<svg width="170" height="101" viewBox="0 0 170 101" fill="none" xmlns="http://www.w3.org/2000/svg">
<mask id="mask0_1023_37802" style="mask-type:alpha" maskUnits="userSpaceOnUse" x="77" y="17" width="93" height="41">
<path d="M137.07 17.4852C164.907 17.6746 169.973 31.9249 169.736 41.8669C169.736 49.2524 166.501 52.4402 165.002 53.466C148.751 36.2945 115.71 41.8669 97.7049 57.9707L91.1473 55.8331L80.9685 51.3335L77.1811 44.4688C84.5192 36.8939 106.297 17.2759 137.07 17.4852Z" fill="url(#paint0_linear_1023_37802)"/>
</mask>
<g mask="url(#mask0_1023_37802)">
<path d="M137.069 17.4852C164.906 17.6746 169.972 31.9249 169.735 41.8669C169.735 49.2524 166.5 52.4402 165.001 53.466C148.749 36.2945 115.709 41.8669 97.7038 57.9707L91.1462 55.8331L80.9674 51.3335L77.18 44.4688C84.5181 36.8939 106.296 17.2759 137.069 17.4852Z" fill="url(#paint1_linear_1023_37802)"/>
<path opacity="0.6" fill-rule="evenodd" clip-rule="evenodd" d="M120.799 66.5305V41.5035C117.856 42.3207 115.052 43.3464 112.387 44.5246V66.5305H111.944V44.7224C109.186 45.9663 106.579 47.3721 104.122 48.8764V66.5305H103.68V49.1495C100.643 51.0373 97.8392 53.0718 95.2679 55.1309V66.5305H94.8252V55.4875C91.6621 58.0503 88.8583 60.6401 86.4124 63.022V66.5305H85.9696V63.4547C84.5322 64.8642 83.2229 66.1942 82.0415 67.3943L82.0413 67.3945C81.3743 68.072 80.748 68.7082 80.1624 69.2939L79.8493 68.9809C80.4353 68.3948 81.063 67.757 81.7324 67.0767L81.7325 67.0767C82.996 65.7928 84.4083 64.3577 85.9696 62.8338V57.1054C84.6663 58.4085 83.5247 59.6486 82.5537 60.7838L82.2172 60.496C83.2715 59.2635 84.5261 57.9076 85.9696 56.4813V50.9803C83.3088 53.2591 81.1454 55.4076 79.5702 57.2299L79.2352 56.9404C80.8819 55.0354 83.1604 52.7823 85.9696 50.3985V44.9161C83.3134 47.0121 81.1477 48.9957 79.5576 50.6922L79.2346 50.3894C80.8948 48.6181 83.1714 46.5416 85.9696 44.3531V39.7759C81.0576 43.6469 77.2279 47.4462 74.7153 50.464L74.375 50.1807C76.9497 47.0884 80.8973 43.1811 85.9696 39.2133V8.0874H86.4124V38.8691C88.9533 36.9051 91.7676 34.9317 94.8252 33.0401V8.0874H95.2679V32.7678C97.9014 31.1578 100.712 29.6109 103.68 28.1839V8.0874H104.122V27.9725C106.623 26.7866 109.234 25.687 111.944 24.7072V8.0874H112.387V24.5486C115.097 23.5859 117.904 22.7439 120.799 22.0556V8.0874H121.242V21.9517C123.972 21.3191 126.78 20.8241 129.654 20.4941V8.0874H130.097V20.4447C132.286 20.2069 134.514 20.0653 136.776 20.0318C137.359 20.0232 137.937 20.0249 138.51 20.0365V8.0874H138.953V20.0476C141.676 20.1278 144.283 20.4344 146.774 20.9354V8.0874H147.217V21.0267C150.187 21.6547 152.991 22.5592 155.63 23.6852V8.0874H156.073V23.8768C159.094 25.2033 161.897 26.82 164.483 28.6424V8.0874H164.926V28.9579C167.401 30.7412 169.675 32.712 171.748 34.7941C180.109 43.1875 185.235 53.3978 187.277 60.4581L186.851 60.5811C184.829 53.5864 179.738 43.4429 171.435 35.1065C169.449 33.1129 167.28 31.2232 164.926 29.5047V33.7069C167.405 35.5967 169.629 37.7027 171.613 39.9261C178.745 47.9194 182.776 57.4347 184.399 63.8958L183.97 64.0036C182.361 57.5985 178.359 48.1513 171.283 40.2209C169.388 38.0975 167.274 36.0832 164.926 34.2651V38.326C167.424 40.2313 169.682 42.3522 171.708 44.5954C179.08 52.7588 183.388 62.5487 185.013 69.4904L184.582 69.5913C182.972 62.715 178.696 52.9945 171.379 44.8922C169.443 42.7483 167.294 40.7182 164.926 38.8842V43.9945C167.296 45.8273 169.476 47.8378 171.462 49.9509C179.358 58.3517 184.214 68.3889 185.834 75.3704L185.403 75.4705C183.801 68.5684 178.985 58.6005 171.139 50.2541C169.243 48.2371 167.171 46.3157 164.926 44.5555V49.3192C167.013 51.1221 168.908 53.083 170.619 55.1357C177.44 63.3168 181.353 72.9626 182.91 79.8978L182.478 79.9948C180.934 73.1172 177.048 63.5383 170.279 55.4192C168.662 53.4789 166.88 51.6224 164.926 49.9062V66.5305H164.483V49.5222C161.964 47.3651 159.166 45.442 156.073 43.8695V66.5305H155.63V43.6478C153.033 42.3673 150.232 41.3333 147.217 40.6129V66.5305H146.774V40.5097C144.872 40.0776 142.887 39.7699 140.815 39.6032C140.19 39.5528 139.569 39.5127 138.953 39.4826V66.5305H138.51V39.4626C135.607 39.3424 132.803 39.442 130.097 39.7284V66.5305H129.654V39.777C126.735 40.1093 123.93 40.6584 121.242 41.3824V66.5305H120.799ZM130.097 39.2833C132.803 38.9991 135.608 38.9002 138.51 39.0194V34.772C135.627 34.6944 132.821 34.8162 130.097 35.1076V39.2833ZM129.654 35.1566V39.3316C126.735 39.6612 123.931 40.206 121.242 40.9244V36.6886C123.946 36.0104 126.753 35.4876 129.654 35.1566ZM130.097 34.6622C132.821 34.3729 135.627 34.252 138.51 34.3291V29.8761C135.666 29.8594 132.856 30.0454 130.097 30.4027V34.6622ZM129.654 30.4616V34.7108C126.753 35.0393 123.946 35.5584 121.242 36.2318V32.1485C123.98 31.4263 126.79 30.8522 129.654 30.4616ZM130.097 29.9563C132.856 29.6014 135.665 29.4167 138.51 29.4334V25.5137C135.662 25.5125 132.853 25.6922 130.097 26.0248V29.9563ZM129.654 26.0796V30.0148C126.79 30.4028 123.98 30.9731 121.242 31.6907V27.6338C123.977 26.972 126.787 26.4435 129.654 26.0796ZM130.097 25.5789C132.853 25.2483 135.662 25.0698 138.51 25.0709V20.4794C137.939 20.4677 137.364 20.4659 136.783 20.4745C134.518 20.508 132.288 20.6506 130.097 20.8901V25.5789ZM129.654 20.9399V25.6333C126.787 25.995 123.977 26.5203 121.242 27.1784V22.4064C123.972 21.7701 126.779 21.272 129.654 20.9399ZM94.8252 54.9174C91.6663 57.4577 88.8623 60.029 86.4124 62.4031V56.6664C88.7449 54.3731 91.5649 51.9026 94.8252 49.4759V54.9174ZM94.8252 48.9251C91.579 51.3216 88.7598 53.7661 86.4124 56.0475V50.6038C88.8435 48.551 91.6694 46.4024 94.8252 44.2984V48.9251ZM94.8252 43.7668C91.6805 45.8499 88.8553 47.981 86.4124 50.0254V44.5692C88.8456 42.6766 91.6705 40.7011 94.8252 38.7693V43.7668ZM94.8252 38.2506C91.6812 40.1639 88.857 42.124 86.4124 44.0092V39.4291C88.9478 37.4549 91.7625 35.4676 94.8252 33.5611V38.2506ZM138.953 39.0393C139.581 39.0698 140.213 39.1105 140.85 39.1618C142.909 39.3275 144.882 39.6308 146.774 40.0557V35.7822C144.28 35.226 141.672 34.8815 138.953 34.7856V39.0393ZM138.953 34.3426C141.672 34.4375 144.279 34.7782 146.774 35.3286V30.6352C144.604 30.2261 142.334 29.9743 139.963 29.9024C139.625 29.8922 139.289 29.8848 138.953 29.8804V34.3426ZM138.953 29.4376C139.293 29.4421 139.634 29.4495 139.976 29.4598C142.341 29.5316 144.607 29.7806 146.774 30.1847V26.1874C144.678 25.818 142.483 25.5938 140.184 25.5353C139.773 25.5248 139.362 25.5182 138.953 25.5153V29.4376ZM138.953 25.0725C139.366 25.0754 139.78 25.0821 140.196 25.0926C142.489 25.151 144.681 25.3727 146.774 25.7378V21.3872C144.284 20.8813 141.677 20.5716 138.953 20.4905V25.0725ZM103.68 48.629C100.645 50.5002 97.8411 52.5183 95.2679 54.5634V49.1486C97.8175 47.2771 100.629 45.4376 103.68 43.732V48.629ZM103.68 43.2252C100.633 44.916 97.8219 46.7408 95.2679 48.6005V44.005C97.5339 42.5119 99.9651 41.0447 102.538 39.654C102.916 39.45 103.296 39.2477 103.68 39.0471V43.2252ZM102.328 39.2645C99.8354 40.6116 97.4752 42.0303 95.2679 43.4753V38.4998C97.545 37.1219 99.9892 35.7694 102.578 34.4884C102.942 34.3081 103.31 34.1292 103.68 33.9519V38.5478C103.225 38.7843 102.774 39.0233 102.328 39.2645ZM102.382 34.0916C99.8686 35.3351 97.4905 36.646 95.2679 37.9827V33.2871C97.8991 31.6686 100.709 30.112 103.68 28.6756V33.4612C103.243 33.6692 102.81 33.8794 102.382 34.0916ZM147.217 40.1577C150.229 40.8692 153.03 41.8901 155.63 43.1548V38.8069C152.99 37.5744 150.185 36.5789 147.217 35.8835V40.1577ZM147.217 35.4287C150.183 36.1162 152.989 37.1001 155.63 38.3188V33.3527C153.013 32.216 150.211 31.3186 147.217 30.7211V35.4287ZM147.217 30.2696C150.209 30.8601 153.011 31.7469 155.63 32.8704V28.7965C153.027 27.6947 150.226 26.8312 147.217 26.2678V30.2696ZM147.217 25.8174C150.223 26.3741 153.024 27.2272 155.63 28.3161V24.167C152.992 23.0289 150.189 22.1143 147.217 21.4795V25.8174ZM111.944 44.2376C109.188 45.471 106.58 46.8652 104.122 48.358V43.4864C106.581 42.133 109.192 40.8685 111.944 39.7448V44.2376ZM111.944 39.2666C109.193 40.3816 106.582 41.6369 104.122 42.9814V38.8171C106.614 37.5308 109.228 36.3228 111.944 35.2359V39.2666ZM111.944 34.7592C109.228 35.8395 106.615 37.0403 104.122 38.3191V33.7411C106.613 32.5633 109.226 31.4573 111.944 30.4616V34.7592ZM111.944 29.9902C109.227 30.9802 106.613 32.08 104.122 33.2516V28.4629C106.622 27.2706 109.233 26.1644 111.944 25.1784V29.9902ZM156.073 43.3735C159.161 44.9223 161.959 46.8159 164.483 48.9415V44.2123C161.903 42.2338 159.098 40.4696 156.073 39.0166V43.3735ZM156.073 38.526C159.095 39.9604 161.9 41.7019 164.483 43.6559V38.5456C161.932 36.6184 159.131 34.9195 156.073 33.5481V38.526ZM156.073 33.0634C159.127 34.4158 161.928 36.091 164.483 37.9924V33.9267C161.951 32.0161 159.153 30.3344 156.073 28.9871V33.0634ZM156.073 28.5043C159.148 29.8322 161.946 31.4895 164.483 33.3738V29.185C161.9 27.3408 159.097 25.7039 156.073 24.3608V28.5043ZM120.799 41.0445C117.857 41.855 115.053 42.8724 112.387 44.0415V39.5658C115.063 38.4943 117.87 37.5571 120.799 36.8012V41.0445ZM120.799 36.3437C117.871 37.094 115.064 38.0245 112.387 39.0888V35.0602C115.097 33.9932 117.908 33.048 120.799 32.2667V36.3437ZM120.799 31.8082C117.908 32.5846 115.098 33.5239 112.387 34.5845V30.3007C115.095 29.3248 117.905 28.4595 120.799 27.7422V31.8082ZM120.799 27.2862C117.905 27.9992 115.095 28.8597 112.387 29.8302V25.0188C115.096 24.0507 117.904 23.2036 120.799 22.511V27.2862Z" fill="url(#paint2_linear_1023_37802)"/>
</g>
<mask id="mask1_1023_37802" style="mask-type:alpha" maskUnits="userSpaceOnUse" x="0" y="46" width="93" height="41">
<path d="M32.6744 86.9435C4.83672 86.7541 -0.229323 72.5039 0.00776458 62.5618C0.00776458 55.1763 3.24284 51.9885 4.74204 50.9628C20.9936 68.1342 54.0341 62.5618 72.0393 46.458L78.5969 48.5956L88.7756 53.0952L92.5631 59.9599C85.2249 67.5348 63.4474 87.1528 32.6744 86.9435Z" fill="url(#paint3_linear_1023_37802)"/>
</mask>
<g mask="url(#mask1_1023_37802)">
<path d="M32.6774 86.9445C4.83965 86.7551 -0.226394 72.5048 0.0106943 62.5628C0.0106943 55.1773 3.24577 51.9895 4.74497 50.9637C20.9965 68.1352 54.037 62.5628 72.0422 46.459L78.5998 48.5966L88.7786 53.0961L92.566 59.9609C85.2278 67.5358 63.4504 87.1538 32.6774 86.9445Z" fill="url(#paint4_linear_1023_37802)"/>
<path opacity="0.55" fill-rule="evenodd" clip-rule="evenodd" d="M48.9443 37.8982V62.925C51.8875 62.1078 54.6913 61.0821 57.3561 59.9039V37.8982H57.7988V59.7061C60.5574 58.4618 63.1653 57.0557 65.6227 55.5509V37.8982H66.0654V55.2778C69.1023 53.3899 71.906 51.3552 74.4772 49.296V37.8982H74.9199V48.9394C78.0826 46.3768 80.886 43.7873 83.3317 41.4056V37.8982H83.7744V40.973C85.2114 39.5639 86.5203 38.2343 87.7014 37.0345L87.7016 37.0342L87.7021 37.0338C88.369 36.3563 88.9952 35.7202 89.5808 35.1346L89.8939 35.4476C89.3079 36.0337 88.6802 36.6715 88.0107 37.3518L88.0107 37.3518L88.0106 37.3519C86.7474 38.6355 85.3353 40.0703 83.7744 41.5939V47.3234C85.0777 46.0202 86.2194 44.7801 87.1905 43.6449L87.5269 43.9327C86.4726 45.1653 85.218 46.5212 83.7744 47.9475V53.4485C86.4353 51.1696 88.5987 49.0211 90.174 47.1988L90.5089 47.4883C88.8622 49.3933 86.5837 51.6465 83.7744 54.0303V59.5125C86.4305 57.4165 88.5963 55.4329 90.1863 53.7365L90.5093 54.0393C88.8491 55.8106 86.5726 57.8871 83.7744 60.0755V64.6539C88.687 60.7825 92.517 56.9829 95.0299 53.9649L95.3701 54.2482C92.7952 57.3408 88.8472 61.2483 83.7744 65.2164V96.3413H83.3317V65.5607C80.7911 67.5244 77.9771 69.4975 74.9199 71.3888V96.3413H74.4772V71.6611C71.8437 73.2711 69.0336 74.818 66.0654 76.245V96.3413H65.6227V76.4564C63.1214 77.6426 60.5098 78.7424 57.7988 79.7224V96.3413H57.3561V79.881C54.6464 80.8436 51.8388 81.6856 48.9443 82.3738V96.3413H48.5016V82.4777C45.7711 83.1101 42.9641 83.605 40.0898 83.9349V96.3413H39.6471V83.9843C37.4582 84.222 35.2308 84.3636 32.9687 84.3971C32.3851 84.4057 31.8068 84.404 31.2335 84.3923V96.3413H30.7907V84.3813C28.0675 84.3009 25.4608 83.9943 22.9697 83.4933V96.3413H22.527V83.402C19.5575 82.774 16.7541 81.8695 14.1152 80.7437V96.3413H13.6725V80.5521C10.6507 79.2254 7.84754 77.6085 5.26074 75.7858V96.3413H4.81799V75.4703C2.34323 73.6872 0.0701599 71.7166 -2.00338 69.6348C-10.3634 61.2414 -15.4898 51.0311 -17.5315 43.9708L-17.1062 43.8478C-15.0834 50.8425 -9.99295 60.986 -1.68969 69.3224C0.295708 71.3157 2.46424 73.2052 4.81799 74.9235V70.7219C2.33878 68.8321 0.114571 66.7261 -1.86929 64.5026C-9.00112 56.5093 -13.0324 46.994 -14.6552 40.5329L-14.2258 40.4251C-12.6171 46.8302 -8.61467 56.2774 -1.53893 64.2078C0.355667 66.3312 2.47022 68.3456 4.81799 70.1637V66.1027C2.3203 64.1974 0.0624313 62.0765 -1.96342 59.8333C-9.33595 51.6699 -13.6437 41.88 -15.2692 34.9383L-14.8381 34.8374C-13.228 41.7137 -8.95226 51.4342 -1.63484 59.5365C0.301346 61.6804 2.44993 63.7105 4.81799 65.5444V60.4342C2.44804 58.6014 0.268433 56.5909 -1.7178 54.4778C-9.6143 46.077 -14.4696 36.0399 -16.0897 29.0583L-15.6584 28.9582C-14.0567 35.8603 -9.24057 45.8282 -1.39519 54.1746C0.500748 56.1916 2.57269 58.113 4.81799 59.8732V55.1101C2.73064 53.307 0.835457 51.3458 -0.876144 49.2928C-7.69683 41.1117 -11.6099 31.4659 -13.1664 24.5307L-12.7344 24.4337C-11.1909 31.3113 -7.30508 40.8902 -0.536079 49.0093C1.08184 50.9499 2.86404 52.8067 4.81799 54.5231V37.8982H5.26074V54.9071C7.7804 57.0644 10.5792 58.9875 13.6725 60.56V37.8982H14.1152V60.7817C16.7119 62.0619 19.5128 63.0956 22.527 63.8158V37.8982H22.9697V63.919C24.8713 64.351 26.8567 64.6586 28.9282 64.8253C29.5535 64.8757 30.1743 64.9158 30.7907 64.946V37.8982H31.2335V64.966C34.1366 65.0862 36.9411 64.9864 39.6471 64.7V37.8982H40.0898V64.6514C43.0091 64.3191 45.813 63.77 48.5016 63.0461V37.8982H48.9443ZM39.6471 65.1451C36.9404 65.4294 34.1359 65.5284 31.2335 65.4091V69.6567C34.1164 69.7344 36.9231 69.6125 39.6471 69.3211V65.1451ZM40.0898 69.2722V65.0969C43.0084 64.7672 45.8123 64.2225 48.5016 63.5041V67.7404C45.7976 68.4184 42.9911 68.9412 40.0898 69.2722ZM39.6471 69.7665C36.9227 70.0559 34.1161 70.1767 31.2335 70.0996V74.5526C34.0779 74.5694 36.8873 74.3834 39.6471 74.026V69.7665ZM40.0898 73.9671V69.718C42.9905 69.3894 45.797 68.8705 48.5016 68.1971V72.2804C45.7632 73.0025 42.9538 73.5765 40.0898 73.9671ZM39.6471 74.4724C36.8877 74.8273 34.0784 75.012 31.2335 74.9953V78.915C34.0817 78.9162 36.8907 78.7366 39.6471 78.4039V74.4724ZM40.0898 78.3491V74.414C42.954 74.026 45.7633 73.4557 48.5016 72.7382V76.7951C45.766 77.4568 42.957 77.9853 40.0898 78.3491ZM39.6471 78.8498C36.8909 79.1805 34.0819 79.3589 31.2335 79.3578V83.9495C31.8046 83.9612 32.3808 83.963 32.9621 83.9544C35.2265 83.9209 37.4562 83.7783 39.6471 83.5389V78.8498ZM40.0898 83.4891V78.7954C42.957 78.4338 45.766 77.9084 48.5016 77.2505V82.0229C45.7714 82.6591 42.9644 83.1572 40.0898 83.4891ZM74.9199 49.5095C78.0784 46.9695 80.882 44.3983 83.3317 42.0245V47.7624C80.9994 50.0554 78.1798 52.5256 74.9199 54.9521V49.5095ZM74.9199 55.5029C78.1657 53.1067 80.9845 50.6624 83.3317 48.3813V53.825C80.9008 55.8775 78.0752 58.0259 74.9199 60.1296V55.5029ZM74.9199 60.6612C78.0642 58.5784 80.889 56.4475 83.3317 54.4034V59.8594C80.8987 61.7518 78.0742 63.7271 74.9199 65.6587V60.6612ZM74.9199 66.1774C78.0635 64.2643 80.8873 62.3044 83.3317 60.4194V65.0007C80.7965 66.9746 77.9822 68.9615 74.9199 70.8678V66.1774ZM30.7907 65.3892C30.1626 65.3587 29.5299 65.318 28.8927 65.2667C26.8349 65.101 24.8613 64.7978 22.9697 64.373V68.6465C25.4636 69.2027 28.0711 69.5471 30.7907 69.6431V65.3892ZM30.7907 70.0861C28.0719 69.9911 25.4645 69.6504 22.9697 69.1001V73.7935C25.1402 74.2026 27.4102 74.4544 29.7815 74.5263C30.1184 74.5365 30.4548 74.5439 30.7907 74.5483V70.0861ZM30.7907 74.9911C30.4503 74.9866 30.1095 74.9792 29.7681 74.9689C27.4027 74.8971 25.1372 74.6481 22.9697 74.244V78.2414C25.0657 78.6108 27.2612 78.835 29.5596 78.8934C29.9707 78.9039 30.3811 78.9105 30.7907 78.9134V74.9911ZM30.7907 79.3562C30.3774 79.3533 29.9632 79.3466 29.5483 79.3361C27.2553 79.2777 25.0634 79.056 22.9697 78.691V83.0415C25.4597 83.5474 28.0664 83.8572 30.7907 83.9383V79.3562ZM66.0654 55.7983C69.1002 53.9269 71.904 51.9088 74.4772 49.8635V55.2794C71.9277 57.151 69.1165 58.9905 66.0654 60.6962V55.7983ZM66.0654 61.203C69.1123 59.5121 71.9232 57.6872 74.4772 55.8275V60.4231C72.2109 61.9164 69.7794 63.3838 67.2059 64.7747C66.8287 64.9785 66.4486 65.1807 66.0654 65.3811V61.203ZM67.4164 65.1642C69.9091 63.817 72.2697 62.398 74.4772 60.9528V65.9282C72.1997 67.3063 69.7551 68.6591 67.1659 69.9403C66.8019 70.1204 66.4351 70.2991 66.0654 70.4762V65.8804C66.5199 65.6441 66.9703 65.4053 67.4164 65.1642ZM67.3623 70.3371C69.8758 69.0934 72.2543 67.7822 74.4772 66.4453V71.1418C71.8461 72.7603 69.0357 74.3169 66.0654 75.7533V70.967C66.5016 70.7591 66.9339 70.5491 67.3623 70.3371ZM22.527 64.271C19.5155 63.5597 16.7145 62.5391 14.1152 61.2747V65.6222C16.7548 66.8546 19.5595 67.8499 22.527 68.5452V64.271ZM22.527 69C19.561 68.3126 16.7562 67.3288 14.1152 66.1104V71.0764C16.7314 72.2129 19.5335 73.1102 22.527 73.7076V69ZM22.527 74.159C19.5359 73.5686 16.7336 72.6821 14.1152 71.5587V75.6327C16.7178 76.7342 19.5186 77.5976 22.527 78.1609V74.159ZM22.527 78.6114C19.5214 78.0547 16.7205 77.2018 14.1152 76.1131V80.2619C16.7523 81.3998 19.5557 82.3143 22.527 82.9492V78.6114ZM57.7988 60.1909C60.5563 58.9572 63.1642 57.5626 65.6227 56.0693V60.9418C63.1639 62.2955 60.5522 63.5604 57.7988 64.6843V60.1909ZM57.7988 65.1625C60.5506 64.0472 63.1621 62.7916 65.6227 61.4468V65.6111C63.1304 66.8977 60.5159 68.106 57.7988 69.1932V65.1625ZM57.7988 69.6699C60.5155 68.5893 63.13 67.3883 65.6227 66.1091V70.687C63.132 71.8652 60.5178 72.9715 57.7988 73.9674V69.6699ZM57.7988 74.4388C60.5173 73.4485 63.1314 72.3484 65.6227 71.1766V75.966C63.1225 77.1586 60.5107 78.2651 57.7988 79.2512V74.4388ZM13.6725 61.056C10.584 59.5072 7.78501 57.6135 5.26074 55.4878V60.2164C7.84167 62.1951 10.6469 63.9594 13.6725 65.4125V61.056ZM13.6725 65.9032C10.6496 64.4687 7.84438 62.727 5.26074 60.7728V65.8831C7.81225 67.8105 10.6133 69.5096 13.6725 70.881V65.9032ZM13.6725 71.3658C10.6173 70.0133 7.81606 68.3379 5.26074 66.4363V70.5021C7.79356 72.413 10.5921 74.0948 13.6725 75.4421V71.3658ZM13.6725 75.925C10.5969 74.5969 7.79803 72.9396 5.26074 71.055V75.2431C7.84472 77.0876 10.6477 78.7248 13.6725 80.0681V75.925ZM48.9443 63.384C51.8866 62.5735 54.6904 61.5561 57.3561 60.387V64.8633C54.6806 65.9347 51.8734 66.8719 48.9443 67.6278V63.384ZM48.9443 68.0853C51.8724 67.335 54.6796 66.4046 57.3561 65.3403V69.3689C54.6457 70.4359 51.8353 71.381 48.9443 72.1622V68.0853ZM48.9443 72.6208C51.8353 71.8444 54.6456 70.9051 57.3561 69.8445V74.1283C54.648 75.1041 51.838 75.9694 48.9443 76.6866V72.6208ZM48.9443 77.1427C51.8378 76.4297 54.6478 75.5693 57.3561 74.5987V79.4108C54.647 80.3788 51.8394 81.2259 48.9443 81.9184V77.1427Z" fill="url(#paint5_linear_1023_37802)"/>
</g>
<mask id="mask2_1023_37802" style="mask-type:alpha" maskUnits="userSpaceOnUse" x="77" y="40" width="93" height="50">
<path d="M169.734 64.5914C169.734 75.4333 161.857 87.8506 141.565 89.4465C118.862 91.2322 102.056 73.7 89.1749 60.2613L89.0145 60.0938L89.0093 60.0885C84.2136 55.0855 83.5677 54.4117 77.1787 51.5721C77.1787 51.5721 79.5459 52.2822 86.884 54.176C103.217 58.3911 119.15 64.8828 138.961 63.6446C161.104 62.2606 169.577 48.1791 169.734 40.6831V64.5914Z" fill="url(#paint6_linear_1023_37802)"/>
</mask>
<g mask="url(#mask2_1023_37802)">
<path d="M169.734 64.5914C169.734 75.4333 161.857 87.8506 141.565 89.4465C118.862 91.2322 102.056 73.7 89.1749 60.2613L89.0145 60.0938L89.0093 60.0885C84.2136 55.0855 83.5677 54.4117 77.1787 51.5721C77.1787 51.5721 79.5459 52.2822 86.884 54.176C103.217 58.3911 119.15 64.8828 138.961 63.6446C161.104 62.2606 169.577 48.1791 169.734 40.6831V64.5914Z" fill="url(#paint7_linear_1023_37802)"/>
<path opacity="0.5" d="M172.893 63.2636L172.892 44C169.721 64.9261 140.658 76.5649 131.019 69.7459L133.47 83.556C155.848 84.2401 165.733 74.5562 172.893 63.2636Z" fill="url(#paint8_linear_1023_37802)"/>
</g>
<path d="M0.00976562 42.8115C0.00976562 31.9695 7.88679 19.5522 28.1789 17.9563C50.8826 16.1707 67.6877 33.7028 80.5692 47.1416L80.7297 47.309L80.7348 47.3144C85.5305 52.3174 86.1764 52.9912 92.5654 55.8307C92.5654 55.8307 90.1983 55.1206 82.8601 53.2269C66.5267 49.0117 50.5945 42.52 30.7828 43.7583C8.6403 45.1422 0.167576 59.2237 0.00976562 66.7197V42.8115Z" fill="url(#paint9_linear_1023_37802)"/>
<mask id="mask3_1023_37802" style="mask-type:alpha" maskUnits="userSpaceOnUse" x="92" y="71" width="50" height="30">
<path d="M141.804 85.4116C141.805 85.4732 141.806 85.5348 141.806 85.5966C141.806 93.65 130.782 100.179 117.183 100.179C103.584 100.179 92.5594 93.65 92.5594 85.5966C92.5594 85.5348 92.5601 85.4732 92.5614 85.4116H92.5594V79.7129H94.6461C98.4652 74.59 107.119 71.0146 117.183 71.0146C127.246 71.0146 135.9 74.59 139.719 79.7129L141.806 80.9711V85.4116H141.804Z" fill="url(#paint10_linear_1023_37802)"/>
</mask>
<g mask="url(#mask3_1023_37802)">
<path d="M141.804 85.4116C141.805 85.4732 141.806 85.5348 141.806 85.5966C141.806 93.65 130.782 100.179 117.183 100.179C103.584 100.179 92.5594 93.65 92.5594 85.5966C92.5594 85.5348 92.5601 85.4732 92.5614 85.4116H92.5594V79.7129H94.6461C98.4652 74.59 107.119 71.0146 117.183 71.0146C127.246 71.0146 135.9 74.59 139.719 79.7129L141.806 80.9711V85.4116H141.804Z" fill="url(#paint11_linear_1023_37802)"/>
<rect width="7.254" height="57.1098" transform="matrix(0.999992 -0.00388481 0.0052695 0.999986 132.125 63.3955)" fill="url(#paint12_linear_1023_37802)"/>
</g>
<ellipse cx="24.6232" cy="15.47" rx="24.6232" ry="15.47" transform="matrix(1 0 0 -1 92.5594 96.2393)" fill="url(#paint13_linear_1023_37802)"/>
<path d="M141.093 80.7692C141.093 76.8299 138.55 73.1573 134.215 70.4337C129.889 67.716 123.869 66.0118 117.183 66.0118C110.496 66.0118 104.476 67.716 100.151 70.4337C95.8153 73.1573 93.2721 76.8299 93.2721 80.7692C93.2721 84.7086 95.8153 88.3811 100.151 91.1048C104.476 93.8224 110.496 95.5266 117.183 95.5266C123.869 95.5266 129.889 93.8224 134.215 91.1048C138.55 88.3811 141.093 84.7086 141.093 80.7692Z" fill="url(#paint14_linear_1023_37802)" stroke="#FF7C51" stroke-width="1.42525"/>
<path opacity="0.88" d="M57.2813 28.7967C42.8917 21.5964 28.2747 21.1698 12.8435 24.9589L14.6144 34.6993C29.0776 31.1573 43.4778 33.7306 56.3776 38.1931L57.2813 28.7967Z" fill="url(#paint15_linear_1023_37802)"/>
<mask id="mask4_1023_37802" style="mask-type:alpha" maskUnits="userSpaceOnUse" x="39" y="5" width="47" height="31">
<path d="M84.7518 28.1519C84.7716 28.098 84.791 28.0439 84.8097 27.9896C87.2578 20.8979 79.5346 11.7978 67.5595 7.664C55.5844 3.53019 43.8921 5.92803 41.4441 13.0197C41.4253 13.0741 41.4071 13.1286 41.3895 13.1832L41.3878 13.1826L39.6556 18.2008L41.493 18.8351C43.2988 24.5071 49.8323 30.2861 58.6943 33.3453C67.5563 36.4044 76.2634 35.8865 81.1838 32.5364L83.0212 33.1706L84.7535 28.1525L84.7518 28.1519Z" fill="url(#paint16_linear_1023_37802)"/>
</mask>
<g mask="url(#mask4_1023_37802)">
<path d="M84.7518 28.1519C84.7716 28.098 84.791 28.0439 84.8097 27.9896C87.2578 20.8979 79.5346 11.7978 67.5595 7.664C55.5844 3.53019 43.8921 5.92803 41.4441 13.0197C41.4253 13.0741 41.4071 13.1286 41.3895 13.1832L41.3878 13.1826L39.6556 18.2008L41.493 18.8351C43.2988 24.5071 49.8323 30.2861 58.6943 33.3453C67.5563 36.4044 76.2634 35.8865 81.1838 32.5363L83.0212 33.1706L84.7535 28.1525L84.7518 28.1519Z" fill="url(#paint17_linear_1023_37802)"/>
<rect width="7.254" height="40.0095" transform="matrix(0.960615 0.277884 -0.276554 0.960998 50.704 -7.59082)" fill="url(#paint18_linear_1023_37802)"/>
</g>
<path d="M82.6689 32.0089C81.4789 35.4564 78.1411 37.9094 73.5051 38.9878C68.8802 40.0636 63.0705 39.7357 57.1897 37.7056C51.3089 35.6755 46.5341 32.3497 43.5577 28.6499C40.5742 24.9413 39.4604 20.9516 40.6505 17.5041C41.8406 14.0567 45.1784 11.6037 49.8143 10.5253C54.4392 9.44945 60.2489 9.7774 66.1297 11.8075C72.0106 13.8375 76.7854 17.1633 79.7618 20.8632C82.7452 24.5718 83.859 28.5615 82.6689 32.0089Z" fill="url(#paint19_linear_1023_37802)" stroke="#FF7C51" stroke-width="1.42525"/>
<path d="M58.4704 8.35018C58.5796 8.05515 58.9968 8.05515 59.106 8.35018C59.6399 9.79303 60.7775 10.9306 62.2204 11.4645C62.5154 11.5737 62.5154 11.991 62.2204 12.1002C60.7775 12.6341 59.6399 13.7717 59.106 15.2145C58.9968 15.5095 58.5796 15.5095 58.4704 15.2145C57.9365 13.7717 56.7989 12.6341 55.356 12.1002C55.061 11.991 55.061 11.5737 55.356 11.4645C56.7989 10.9306 57.9365 9.79303 58.4704 8.35018Z" fill="url(#paint20_linear_1023_37802)"/>
<defs>
<linearGradient id="paint0_linear_1023_37802" x1="83.5655" y1="29.5485" x2="169.192" y2="55.0365" gradientUnits="userSpaceOnUse">
<stop stop-color="#D920BB"/>
<stop offset="1" stop-color="#880E75"/>
</linearGradient>
<linearGradient id="paint1_linear_1023_37802" x1="168.249" y1="24.0265" x2="89.9572" y2="45.8539" gradientUnits="userSpaceOnUse">
<stop stop-color="#D52EBA"/>
<stop offset="1" stop-color="#9903A6"/>
</linearGradient>
<linearGradient id="paint2_linear_1023_37802" x1="148.472" y1="32.2912" x2="86.7818" y2="53.8384" gradientUnits="userSpaceOnUse">
<stop stop-color="#56125C"/>
<stop offset="1" stop-color="#490672" stop-opacity="0.35"/>
</linearGradient>
<linearGradient id="paint3_linear_1023_37802" x1="86.1787" y1="74.8802" x2="0.551673" y2="49.3922" gradientUnits="userSpaceOnUse">
<stop stop-color="#D920BB"/>
<stop offset="1" stop-color="#880E75"/>
</linearGradient>
<linearGradient id="paint4_linear_1023_37802" x1="1.49721" y1="80.4032" x2="79.7887" y2="58.5758" gradientUnits="userSpaceOnUse">
<stop stop-color="#D52EBA"/>
<stop offset="1" stop-color="#9903A6"/>
</linearGradient>
<linearGradient id="paint5_linear_1023_37802" x1="21.2733" y1="72.1374" x2="82.9634" y2="50.5903" gradientUnits="userSpaceOnUse">
<stop stop-color="#56125C"/>
<stop offset="1" stop-color="#490672" stop-opacity="0.35"/>
</linearGradient>
<linearGradient id="paint6_linear_1023_37802" x1="83.5626" y1="55.5148" x2="180.379" y2="62.6162" gradientUnits="userSpaceOnUse">
<stop stop-color="#C716AB"/>
<stop offset="0.637908" stop-color="#E64DCD"/>
<stop offset="1" stop-color="#F08BE0"/>
</linearGradient>
<linearGradient id="paint7_linear_1023_37802" x1="185.331" y1="58.9462" x2="81.7064" y2="52.6358" gradientUnits="userSpaceOnUse">
<stop stop-color="#F652DC"/>
<stop offset="1" stop-color="#A032F6"/>
</linearGradient>
<linearGradient id="paint8_linear_1023_37802" x1="142.357" y1="83.3972" x2="172.034" y2="67.6278" gradientUnits="userSpaceOnUse">
<stop stop-color="#320D49"/>
<stop offset="1" stop-color="#E44CE1" stop-opacity="0"/>
</linearGradient>
<linearGradient id="paint9_linear_1023_37802" x1="76.9348" y1="47.7029" x2="-2.65474" y2="56.2889" gradientUnits="userSpaceOnUse">
<stop stop-color="#F652DC"/>
<stop offset="1" stop-color="#A635FF"/>
</linearGradient>
<linearGradient id="paint10_linear_1023_37802" x1="137.549" y1="103.721" x2="138.796" y2="75.4196" gradientUnits="userSpaceOnUse">
<stop stop-color="#FF7C51"/>
<stop offset="0.163935" stop-color="#EB6474"/>
<stop offset="0.65444" stop-color="#FFBF65"/>
<stop offset="1" stop-color="#EBECD9"/>
</linearGradient>
<linearGradient id="paint11_linear_1023_37802" x1="137.549" y1="103.721" x2="138.796" y2="75.4196" gradientUnits="userSpaceOnUse">
<stop stop-color="#FF7C51"/>
<stop offset="0.163935" stop-color="#EB6474"/>
<stop offset="0.65444" stop-color="#FFBF65"/>
<stop offset="1" stop-color="#EBECD9"/>
</linearGradient>
<linearGradient id="paint12_linear_1023_37802" x1="2.94214" y1="11.8646" x2="6.70349" y2="39.4678" gradientUnits="userSpaceOnUse">
<stop stop-color="white"/>
<stop offset="1" stop-color="white" stop-opacity="0"/>
</linearGradient>
<linearGradient id="paint13_linear_1023_37802" x1="7.64543" y1="28.6287" x2="44.294" y2="15.5577" gradientUnits="userSpaceOnUse">
<stop stop-color="#FFE0EA"/>
<stop offset="0.225" stop-color="#FFD6C1"/>
<stop offset="0.532697" stop-color="#FFBF65"/>
<stop offset="1" stop-color="#FF7B50"/>
</linearGradient>
<linearGradient id="paint14_linear_1023_37802" x1="100.205" y1="67.6105" x2="136.853" y2="80.6815" gradientUnits="userSpaceOnUse">
<stop stop-color="#FFE0EA"/>
<stop offset="0.225" stop-color="#FFD6C1"/>
<stop offset="0.532697" stop-color="#FFBF65"/>
<stop offset="1" stop-color="#FF7B50"/>
</linearGradient>
<linearGradient id="paint15_linear_1023_37802" x1="48.9604" y1="39.0944" x2="21.5502" y2="30.245" gradientUnits="userSpaceOnUse">
<stop stop-color="#320D49"/>
<stop offset="1" stop-color="#6226AE" stop-opacity="0"/>
</linearGradient>
<linearGradient id="paint16_linear_1023_37802" x1="84.4834" y1="20.1477" x2="73.3096" y2="41.7544" gradientUnits="userSpaceOnUse">
<stop stop-color="#FF7C51"/>
<stop offset="0.163935" stop-color="#EB6474"/>
<stop offset="0.65444" stop-color="#FFBF65"/>
<stop offset="1" stop-color="#EBECD9"/>
</linearGradient>
<linearGradient id="paint17_linear_1023_37802" x1="84.4834" y1="20.1477" x2="73.3096" y2="41.7544" gradientUnits="userSpaceOnUse">
<stop stop-color="#FF7C51"/>
<stop offset="0.163935" stop-color="#EB6474"/>
<stop offset="0.65444" stop-color="#FFBF65"/>
<stop offset="1" stop-color="#EBECD9"/>
</linearGradient>
<linearGradient id="paint18_linear_1023_37802" x1="2.94214" y1="8.31202" x2="4.80551" y2="27.8312" gradientUnits="userSpaceOnUse">
<stop stop-color="white"/>
<stop offset="1" stop-color="white" stop-opacity="0"/>
</linearGradient>
<linearGradient id="paint19_linear_1023_37802" x1="42.7094" y1="31.183" x2="80.1183" y2="29.0157" gradientUnits="userSpaceOnUse">
<stop stop-color="#FFE0EA"/>
<stop offset="0.225" stop-color="#FFD6C1"/>
<stop offset="0.629517" stop-color="#FFBF65"/>
<stop offset="1" stop-color="#FF7B50"/>
</linearGradient>
<linearGradient id="paint20_linear_1023_37802" x1="58.7881" y1="7.49157" x2="58.7881" y2="16.0736" gradientUnits="userSpaceOnUse">
<stop stop-color="white"/>
<stop offset="0.755" stop-color="#E3FDFF"/>
</linearGradient>
</defs>
</svg>
