<svg width="136" height="136" viewBox="0 0 136 136" fill="none" xmlns="http://www.w3.org/2000/svg">
<mask id="mask0_1023_37718" style="mask-type:alpha" maskUnits="userSpaceOnUse" x="0" y="54" width="136" height="82">
<path d="M135.799 99.589H135.797C135.525 119.27 105.451 135.179 68.3933 135.179C31.3351 135.179 1.26158 119.27 0.98917 99.589H0.987305V70.8163H11.3852C23.3295 60.7704 44.397 54.0996 68.3933 54.0996C92.3895 54.0996 113.457 60.7704 125.401 70.8163H135.799V99.589Z" fill="url(#paint0_radial_1023_37718)"/>
</mask>
<g mask="url(#mask0_1023_37718)">
<path d="M135.799 99.589H135.797C135.525 119.27 105.451 135.179 68.3933 135.179C31.3351 135.179 1.26158 119.27 0.98917 99.589H0.987305V70.8163H11.3852C23.3295 60.7704 44.397 54.0996 68.3933 54.0996C92.3895 54.0996 113.457 60.7704 125.401 70.8163H135.799V99.589Z" fill="url(#paint1_linear_1023_37718)"/>
<path d="M103.513 81.7461H127.303V171.81H103.513L103.513 81.7461Z" fill="url(#paint2_linear_1023_37718)"/>
<path d="M137.842 107.738L131.356 101.312C130.714 100.676 130.353 99.8093 130.353 98.905V87.3116V87.3116C130.353 86.8976 130.109 86.5224 129.731 86.3543L127.289 85.269" stroke="#71136C" stroke-width="0.847163"/>
<path d="M26.1799 99.5672V110.513C26.1799 111.423 26.5462 112.295 27.1963 112.933L30.951 116.614C31.601 117.251 31.9673 118.123 31.9673 119.034V130.602C31.9673 131.642 32.4447 132.624 33.2624 133.266L36.7334 135.994" stroke="#71136C" stroke-width="0.847163"/>
<path d="M5.75391 115.227V87.3848C5.75391 86.2728 6.29945 85.2316 7.2137 84.5987L10.1795 82.5454" stroke="#71136C" stroke-width="0.847163"/>
<path d="M5.75375 95.4819L3.98708 97.3025C3.37347 97.9348 3.03027 98.7812 3.03027 99.6624L3.03027 112.163" stroke="#71136C" stroke-width="0.847163"/>
<path d="M45.9258 134.632V123.738C45.9258 122.422 46.9927 121.355 48.3088 121.355V121.355C49.6249 121.355 50.6919 122.422 50.6919 123.738V135.653" stroke="#71136C" stroke-width="0.847163"/>
<path d="M119.118 89.0136L123.827 91.7838C124.495 92.1767 124.905 92.8937 124.905 93.6685V103.312C124.905 104.628 123.838 105.695 122.522 105.695V105.695C121.206 105.695 120.139 104.628 120.139 103.312V96.7109C120.139 96.1568 119.858 95.6405 119.393 95.3395L114.352 92.0775" stroke="#71136C" stroke-width="0.847163"/>
</g>
<mask id="mask1_1023_37718" style="mask-type:alpha" maskUnits="userSpaceOnUse" x="0" y="34" width="136" height="75">
<ellipse cx="68.3933" cy="71.8335" rx="67.406" ry="37.1016" fill="url(#paint3_linear_1023_37718)"/>
</mask>
<g mask="url(#mask1_1023_37718)">
<ellipse cx="68.3933" cy="71.8335" rx="67.406" ry="37.1016" fill="url(#paint4_linear_1023_37718)"/>
<path d="M124.104 84.2041L129.812 86.4206C130.138 86.5471 130.353 86.8607 130.353 87.2103L130.353 92.4178" stroke="#AB3E9A" stroke-width="0.847163"/>
<path d="M32.3075 95.4824L26.8338 99.7397C26.4211 100.061 26.1797 100.554 26.1797 101.077V105.015" stroke="#AB3E9A" stroke-width="0.847163"/>
<path d="M5.75391 87.6524V87.3853C5.75391 86.2733 6.29945 85.2321 7.2137 84.5992L10.1795 82.5459" stroke="#AB3E9A" stroke-width="0.847163"/>
<path d="M120.139 98.2054V97.5002C120.139 96.2566 119.458 95.1129 118.364 94.5206L111.969 91.0563L118.777 89.0137L123.032 91.141C124.18 91.715 124.905 92.8884 124.905 94.1719V96.1628" stroke="#AB3E9A" stroke-width="0.847163"/>
</g>
<mask id="mask2_1023_37718" style="mask-type:alpha" maskUnits="userSpaceOnUse" x="5" y="0" width="128" height="104">
<path fill-rule="evenodd" clip-rule="evenodd" d="M132.402 0.179199H5.52039V70.4173H6.08903C6.08754 70.5118 6.08679 70.6063 6.08679 70.701C6.08679 89.0018 33.983 103.838 68.3948 103.838C102.807 103.838 130.703 89.0018 130.703 70.701C130.703 70.6063 130.702 70.5118 130.701 70.4173H132.402V0.179199Z" fill="#D9D9D9"/>
</mask>
<g mask="url(#mask2_1023_37718)">
<ellipse cx="68.3929" cy="70.701" rx="62.308" ry="33.1365" fill="url(#paint5_linear_1023_37718)"/>
<ellipse cx="68.3929" cy="70.701" rx="62.308" ry="33.1365" fill="url(#paint6_linear_1023_37718)"/>
<g opacity="0.6">
<path fill-rule="evenodd" clip-rule="evenodd" d="M28.7956 17.7389C27.9826 17.7389 27.3235 18.398 27.3235 19.211V34.5977C27.3235 35.2233 26.8163 35.7306 26.1906 35.7306C25.5649 35.7306 25.0577 35.2233 25.0577 34.5977V19.211C25.0577 17.1466 26.7312 15.4731 28.7956 15.4731C30.3288 15.4731 31.7066 16.4095 32.271 17.835L44.2066 47.981C45.5787 51.4465 46.2833 55.1401 46.2833 58.8674V150.285C46.2833 150.911 45.7761 151.418 45.1504 151.418C44.5248 151.418 44.0176 150.911 44.0176 150.285V58.8674C44.0176 55.4257 43.3669 52.0151 42.1 48.8151L30.1643 18.6691C29.9421 18.1076 29.3994 17.7389 28.7956 17.7389Z" fill="url(#paint7_linear_1023_37718)"/>
<path fill-rule="evenodd" clip-rule="evenodd" d="M45.4488 67.5852C45.763 68.1262 45.5791 68.8195 45.038 69.1337L29.4378 78.1919C28.8968 78.506 28.2035 78.3221 27.8893 77.781C27.5751 77.24 27.7591 76.5466 28.3001 76.2325L43.9003 67.1743C44.4413 66.8602 45.1347 67.0441 45.4488 67.5852Z" fill="url(#paint8_linear_1023_37718)"/>
<path fill-rule="evenodd" clip-rule="evenodd" d="M45.4476 82.3126C45.7745 82.846 45.6071 83.5435 45.0737 83.8705L29.4459 93.4488C28.9125 93.7757 28.215 93.6083 27.888 93.0749C27.5611 92.5414 27.7285 91.8439 28.2619 91.517L43.8897 81.9387C44.4231 81.6117 45.1206 81.7791 45.4476 82.3126Z" fill="url(#paint9_linear_1023_37718)"/>
<path fill-rule="evenodd" clip-rule="evenodd" d="M45.4488 100.439C45.763 100.98 45.5791 101.673 45.038 101.987L29.4378 111.045C28.8968 111.36 28.2035 111.176 27.8893 110.635C27.5751 110.093 27.7591 109.4 28.3001 109.086L43.9003 100.028C44.4413 99.7137 45.1347 99.8976 45.4488 100.439Z" fill="url(#paint10_linear_1023_37718)"/>
<path fill-rule="evenodd" clip-rule="evenodd" d="M13.0119 27.2189C12.3146 27.2189 11.7493 27.7842 11.7493 28.4815V45.0199C11.7493 45.6456 11.2421 46.1528 10.6164 46.1528C9.99073 46.1528 9.48352 45.6456 9.48352 45.0199V28.4815C9.48352 26.5328 11.0632 24.9531 13.0119 24.9531C14.4879 24.9531 15.808 25.8719 16.3206 27.2561L27.5139 57.4778C28.7315 60.7653 29.3548 64.2431 29.3548 67.7488V151.486C29.3548 152.111 28.8476 152.618 28.2219 152.618C27.5963 152.618 27.0891 152.111 27.0891 151.486V67.7488C27.0891 64.5117 26.5135 61.3003 25.3892 58.2647L14.1959 28.043C14.0125 27.5477 13.5401 27.2189 13.0119 27.2189Z" fill="url(#paint11_linear_1023_37718)"/>
</g>
<path d="M132.4 80.8962C132.4 98.5714 104.504 112.9 70.0921 112.9C35.6803 112.9 7.78406 98.5714 7.78406 80.8962C7.78406 63.2211 35.6803 48.8926 70.0921 48.8926C104.504 48.8926 132.4 63.2211 132.4 80.8962Z" fill="url(#paint12_linear_1023_37718)"/>
<path opacity="0.25" d="M116.117 95.9071C116.117 100.216 112.919 104.21 107.544 107.151C102.185 110.083 94.7521 111.91 86.5191 111.91C78.2861 111.91 70.8535 110.083 65.4942 107.151C60.1193 104.21 56.9215 100.216 56.9215 95.9071C56.9215 91.598 60.1193 87.6043 65.4942 84.6633C70.8535 81.7309 78.2861 79.9041 86.5191 79.9041C94.7521 79.9041 102.185 81.7309 107.544 84.6633C112.919 87.6043 116.117 91.598 116.117 95.9071Z" stroke="url(#paint13_linear_1023_37718)" stroke-width="0.847163"/>
<path opacity="0.25" d="M124.613 96.4728C124.613 102.032 120.465 107.159 113.552 110.92C106.655 114.673 97.0982 117.007 86.5185 117.007C75.9389 117.007 66.3819 114.673 59.4849 110.92C52.5716 107.159 48.4244 102.032 48.4244 96.4728C48.4244 90.9136 52.5716 85.7868 59.4849 82.0252C66.3819 78.2724 75.9389 75.9382 86.5185 75.9382C97.0982 75.9382 106.655 78.2724 113.552 82.0252C120.465 85.7868 124.613 90.9136 124.613 96.4728Z" stroke="url(#paint14_linear_1023_37718)" stroke-width="0.847163"/>
<path opacity="0.65" d="M106.488 94.4908C106.488 97.1437 104.386 99.6528 100.745 101.524C97.1262 103.384 92.0974 104.546 86.5195 104.546C80.9416 104.546 75.9128 103.384 72.294 101.524C68.6531 99.6528 66.5514 97.1437 66.5514 94.4908C66.5514 91.8379 68.6531 89.3288 72.294 87.4577C75.9128 85.598 80.9416 84.4353 86.5195 84.4353C92.0974 84.4353 97.1262 85.598 100.745 87.4577C104.386 89.3288 106.488 91.8379 106.488 94.4908Z" stroke="url(#paint15_linear_1023_37718)" stroke-width="0.847163"/>
<path opacity="0.44" d="M97.4244 64.753C97.4244 66.1003 96.8082 67.4162 95.6279 68.6493C94.4455 69.8845 92.7145 71.0161 90.5428 71.9757C86.2006 73.8943 80.1723 75.0917 73.4912 75.0917C66.81 75.0917 60.7817 73.8943 56.4395 71.9757C54.2679 71.0161 52.5368 69.8845 51.3545 68.6493C50.1742 67.4162 49.558 66.1003 49.558 64.753C49.558 63.4057 50.1742 62.0898 51.3545 60.8568C52.5368 59.6216 54.2679 58.4899 56.4395 57.5304C60.7817 55.6117 66.81 54.4143 73.4912 54.4143C80.1723 54.4143 86.2006 55.6117 90.5428 57.5304C92.7145 58.4899 94.4455 59.6216 95.6279 60.8568C96.8082 62.0898 97.4244 63.4057 97.4244 64.753Z" stroke="url(#paint16_linear_1023_37718)" stroke-width="0.847163"/>
<path opacity="0.25" d="M106.487 67.0189C106.487 71.14 102.952 74.9982 96.9409 77.8511C90.9615 80.6888 82.6712 82.4556 73.4912 82.4556C64.3111 82.4556 56.0208 80.6888 50.0414 77.8511C44.03 74.9982 40.495 71.14 40.495 67.0189C40.495 62.8978 44.03 59.0396 50.0414 56.1867C56.0208 53.349 64.3111 51.5823 73.4912 51.5823C82.6712 51.5823 90.9615 53.349 96.9409 56.1867C102.952 59.0396 106.487 62.8978 106.487 67.0189Z" stroke="url(#paint17_linear_1023_37718)" stroke-width="0.847163"/>
<g opacity="0.44">
<mask id="mask3_1023_37718" style="mask-type:alpha" maskUnits="userSpaceOnUse" x="53" y="46" width="32" height="32">
<path d="M58.2793 48.3232L58.473 48.5169L58.7467 48.5312C60.67 48.6313 63.066 49.4274 65.6528 50.8722C68.2302 52.3117 70.9547 54.3717 73.5281 56.9451C76.1015 59.5185 78.1615 62.243 79.601 64.8204C81.0458 67.4072 81.8419 69.8032 81.942 71.7265L81.9563 72.0002L82.1501 72.194L83.03 73.0739L80.9025 75.2014L80.9025 75.2014L80.8989 75.205L80.884 75.2201L80.8839 75.2202C80.2233 75.8808 79.2598 76.2504 77.9998 76.2862C76.7346 76.3223 75.2128 76.0182 73.5241 75.374C70.1483 74.0863 66.2329 71.4884 62.6088 67.8644C58.9848 64.2403 56.3869 60.325 55.0992 56.9492C54.455 55.2604 54.1509 53.7386 54.1869 52.4734C54.2228 51.2134 54.5924 50.2499 55.2529 49.5893C55.2529 49.5893 55.253 49.5893 55.253 49.5893L57.3992 47.4431L58.2793 48.3232Z" fill="url(#paint18_linear_1023_37718)" stroke="url(#paint19_linear_1023_37718)" stroke-width="1.42693"/>
</mask>
<g mask="url(#mask3_1023_37718)">
<path d="M58.7847 47.8191L57.4002 46.4346L54.7494 49.0853C51.4556 52.3792 54.7489 61.013 62.1053 68.3694C69.4617 75.7258 78.0955 79.019 81.3894 75.7251C81.3956 75.7189 81.4018 75.7127 81.408 75.7064L84.04 73.0744L82.6555 71.6899C82.4398 67.5465 79.2635 61.671 74.0336 56.4411C68.8037 51.2112 62.9281 48.0349 58.7847 47.8191Z" fill="url(#paint20_linear_1023_37718)"/>
<path d="M58.2802 48.3236L58.474 48.5174L58.7476 48.5316C60.6709 48.6318 63.067 49.4279 65.6538 50.8727C68.2312 52.3122 70.9557 54.3722 73.5291 56.9456C76.1025 59.519 78.1625 62.2435 79.602 64.8209C81.0467 67.4077 81.8429 69.8037 81.943 71.727L81.9573 72.0007L82.151 72.1944L83.031 73.0744L80.9035 75.2019L80.9034 75.2019L80.8999 75.2055L80.8849 75.2206L80.8849 75.2206C80.2242 75.8813 79.2608 76.2508 78.0008 76.2867C76.7356 76.3228 75.2138 76.0187 73.525 75.3745C70.1492 74.0868 66.2339 71.4889 62.6098 67.8649C58.9858 64.2408 56.3879 60.3254 55.1002 56.9496C54.456 55.2609 54.1519 53.7391 54.1879 52.4739C54.2238 51.2138 54.5933 50.2504 55.2539 49.5898C55.2539 49.5898 55.2539 49.5898 55.2539 49.5898L57.4002 47.4436L58.2802 48.3236Z" stroke="url(#paint21_linear_1023_37718)" stroke-width="1.42693"/>
</g>
<mask id="mask4_1023_37718" style="mask-type:alpha" maskUnits="userSpaceOnUse" x="56" y="45" width="30" height="30">
<path d="M57.9043 46.9392C57.2437 47.5998 56.8741 48.5632 56.8382 49.8232C56.8022 51.0885 57.1063 52.6102 57.7505 54.299C59.0381 57.6748 61.636 61.5902 65.2601 65.2142C68.8841 68.8383 72.7995 71.4362 76.1753 72.7238C77.8641 73.368 79.3858 73.6721 80.6511 73.6361C81.9111 73.6002 82.8745 73.2306 83.5351 72.57C84.1958 71.9094 84.5653 70.946 84.6012 69.6859C84.6373 68.4207 84.3332 66.8989 83.689 65.2102C82.4013 61.8344 79.8034 57.919 76.1794 54.2949C72.5553 50.6709 68.6399 48.073 65.2641 46.7853C63.5754 46.1412 62.0536 45.837 60.7884 45.8731C59.5284 45.909 58.5649 46.2785 57.9043 46.9392Z" fill="url(#paint22_linear_1023_37718)" stroke="#FF7C51" stroke-width="1.42693"/>
</mask>
<g mask="url(#mask4_1023_37718)">
<path d="M57.9043 46.9392C57.2437 47.5998 56.8741 48.5632 56.8382 49.8232C56.8022 51.0885 57.1063 52.6102 57.7505 54.299C59.0381 57.6748 61.636 61.5902 65.2601 65.2142C68.8841 68.8383 72.7995 71.4362 76.1753 72.7238C77.8641 73.368 79.3858 73.6721 80.6511 73.6361C81.9111 73.6002 82.8745 73.2306 83.5351 72.57C84.1958 71.9094 84.5653 70.946 84.6012 69.6859C84.6373 68.4207 84.3332 66.8989 83.689 65.2102C82.4013 61.8344 79.8034 57.919 76.1794 54.2949C72.5553 50.6709 68.6399 48.073 65.2641 46.7853C63.5754 46.1412 62.0536 45.837 60.7884 45.8731C59.5284 45.909 58.5649 46.2785 57.9043 46.9392Z" fill="url(#paint23_linear_1023_37718)" stroke="#FF7C51" stroke-width="1.42693"/>
</g>
</g>
<mask id="mask5_1023_37718" style="mask-type:alpha" maskUnits="userSpaceOnUse" x="41" y="32" width="53" height="37">
<path d="M93.8836 53.9899C93.8836 55.8114 85.1345 53.0903 80.0059 57.3885C75.2971 61.3349 76.6072 68.1508 65.8449 68.1508C51.9238 68.1508 41.205 59.2831 41.205 49.7416C41.205 40.2002 52.4903 32.4653 66.4114 32.4653C80.3325 32.4653 93.8836 44.4485 93.8836 53.9899Z" fill="#D9D9D9"/>
</mask>
<g mask="url(#mask5_1023_37718)">
<mask id="mask6_1023_37718" style="mask-type:alpha" maskUnits="userSpaceOnUse" x="53" y="46" width="32" height="32">
<path d="M58.2793 48.3232L58.473 48.5169L58.7467 48.5312C60.67 48.6313 63.066 49.4274 65.6528 50.8722C68.2302 52.3117 70.9547 54.3717 73.5281 56.9451C76.1015 59.5185 78.1615 62.243 79.601 64.8204C81.0458 67.4072 81.8419 69.8032 81.942 71.7265L81.9563 72.0002L82.1501 72.194L83.03 73.0739L80.9025 75.2014L80.9025 75.2014L80.8989 75.205L80.884 75.2201L80.8839 75.2202C80.2233 75.8808 79.2598 76.2504 77.9998 76.2862C76.7346 76.3223 75.2128 76.0182 73.5241 75.374C70.1483 74.0863 66.2329 71.4884 62.6088 67.8644C58.9848 64.2403 56.3869 60.325 55.0992 56.9492C54.455 55.2604 54.1509 53.7386 54.1869 52.4734C54.2228 51.2134 54.5924 50.2499 55.2529 49.5893C55.2529 49.5893 55.253 49.5893 55.253 49.5893L57.3992 47.4431L58.2793 48.3232Z" fill="url(#paint24_linear_1023_37718)" stroke="url(#paint25_linear_1023_37718)" stroke-width="1.42693"/>
</mask>
<g mask="url(#mask6_1023_37718)">
<path d="M58.7847 47.8191L57.4002 46.4346L54.7494 49.0853C51.4556 52.3792 54.7489 61.013 62.1053 68.3694C69.4617 75.7258 78.0955 79.019 81.3894 75.7251C81.3956 75.7189 81.4018 75.7127 81.408 75.7064L84.04 73.0744L82.6555 71.6899C82.4398 67.5465 79.2635 61.671 74.0336 56.4411C68.8037 51.2112 62.9281 48.0349 58.7847 47.8191Z" fill="url(#paint26_linear_1023_37718)"/>
<path d="M58.2802 48.3236L58.474 48.5174L58.7476 48.5316C60.6709 48.6318 63.067 49.4279 65.6538 50.8727C68.2312 52.3122 70.9557 54.3722 73.5291 56.9456C76.1025 59.519 78.1625 62.2435 79.602 64.8209C81.0467 67.4077 81.8429 69.8037 81.943 71.727L81.9573 72.0007L82.151 72.1944L83.031 73.0744L80.9035 75.2019L80.9034 75.2019L80.8999 75.2055L80.8849 75.2206L80.8849 75.2206C80.2242 75.8813 79.2608 76.2508 78.0008 76.2867C76.7356 76.3228 75.2138 76.0187 73.525 75.3745C70.1492 74.0868 66.2339 71.4889 62.6098 67.8649C58.9858 64.2408 56.3879 60.3254 55.1002 56.9496C54.456 55.2609 54.1519 53.7391 54.1879 52.4739C54.2238 51.2138 54.5933 50.2504 55.2539 49.5898C55.2539 49.5898 55.2539 49.5898 55.2539 49.5898L57.4002 47.4436L58.2802 48.3236Z" stroke="url(#paint27_linear_1023_37718)" stroke-width="1.42693"/>
</g>
<mask id="mask7_1023_37718" style="mask-type:alpha" maskUnits="userSpaceOnUse" x="56" y="45" width="30" height="30">
<path d="M57.9043 46.9392C57.2437 47.5998 56.8741 48.5632 56.8382 49.8232C56.8022 51.0885 57.1063 52.6102 57.7505 54.299C59.0381 57.6748 61.636 61.5902 65.2601 65.2142C68.8841 68.8383 72.7995 71.4362 76.1753 72.7238C77.8641 73.368 79.3858 73.6721 80.6511 73.6361C81.9111 73.6002 82.8745 73.2306 83.5351 72.57C84.1958 71.9094 84.5653 70.946 84.6012 69.6859C84.6373 68.4207 84.3332 66.8989 83.689 65.2102C82.4013 61.8344 79.8034 57.919 76.1794 54.2949C72.5553 50.6709 68.6399 48.073 65.2641 46.7853C63.5754 46.1412 62.0536 45.837 60.7884 45.8731C59.5284 45.909 58.5649 46.2785 57.9043 46.9392Z" fill="url(#paint28_linear_1023_37718)" stroke="#FF7C51" stroke-width="1.42693"/>
</mask>
<g mask="url(#mask7_1023_37718)">
<path d="M57.9043 46.9392C57.2437 47.5998 56.8741 48.5632 56.8382 49.8232C56.8022 51.0885 57.1063 52.6102 57.7505 54.299C59.0381 57.6748 61.636 61.5902 65.2601 65.2142C68.8841 68.8383 72.7995 71.4362 76.1753 72.7238C77.8641 73.368 79.3858 73.6721 80.6511 73.6361C81.9111 73.6002 82.8745 73.2306 83.5351 72.57C84.1958 71.9094 84.5653 70.946 84.6012 69.6859C84.6373 68.4207 84.3332 66.8989 83.689 65.2102C82.4013 61.8344 79.8034 57.919 76.1794 54.2949C72.5553 50.6709 68.6399 48.073 65.2641 46.7853C63.5754 46.1412 62.0536 45.837 60.7884 45.8731C59.5284 45.909 58.5649 46.2785 57.9043 46.9392Z" fill="url(#paint29_linear_1023_37718)" stroke="#FF7C51" stroke-width="1.42693"/>
</g>
</g>
<g opacity="0.44">
<mask id="mask8_1023_37718" style="mask-type:alpha" maskUnits="userSpaceOnUse" x="79" y="70" width="37" height="37">
<path d="M110.193 72.5914L109.999 72.7852L109.726 72.7994C107.419 72.9196 104.558 73.8728 101.482 75.5909C98.4157 77.3037 95.1767 79.7531 92.1187 82.811C89.0608 85.869 86.6114 89.108 84.8986 92.1746C83.1805 95.2508 82.2273 98.1109 82.1071 100.418L82.0929 100.692L81.8991 100.886L80.7626 102.022L83.3779 104.637L83.3814 104.641L83.3999 104.659C84.2131 105.473 85.391 105.919 86.9081 105.962C88.4305 106.005 90.2521 105.639 92.2641 104.872C96.2866 103.338 100.943 100.246 105.248 95.9407C109.554 91.6351 112.645 86.9789 114.18 82.9565C114.947 80.9444 115.313 79.1228 115.27 77.6004C115.226 76.0833 114.78 74.9054 113.967 74.0922C113.967 74.0922 113.967 74.0922 113.967 74.0922L111.33 71.4548L110.193 72.5914Z" fill="url(#paint30_linear_1023_37718)" stroke="url(#paint31_linear_1023_37718)" stroke-width="1.42693"/>
</mask>
<g mask="url(#mask8_1023_37718)">
<path d="M109.689 72.0869L111.33 70.4458L114.472 73.5877C118.376 77.492 114.472 87.7257 105.753 96.4452C97.0333 105.165 86.7997 109.068 82.8954 105.164C82.8881 105.157 82.8807 105.149 82.8734 105.142L79.7536 102.022L81.3946 100.381C81.6503 95.4699 85.4152 88.5056 91.6142 82.3066C97.8133 76.1075 104.778 72.3426 109.689 72.0869Z" fill="url(#paint32_linear_1023_37718)"/>
<path d="M110.193 72.5914L109.999 72.7852L109.726 72.7994C107.419 72.9196 104.558 73.8728 101.482 75.5909C98.4157 77.3037 95.1767 79.7531 92.1187 82.811C89.0608 85.869 86.6114 89.108 84.8986 92.1746C83.1805 95.2508 82.2273 98.1109 82.1071 100.418L82.0929 100.692L81.8991 100.886L80.7626 102.022L83.3779 104.637L83.3814 104.641L83.3999 104.659C84.2131 105.473 85.391 105.919 86.9081 105.962C88.4305 106.005 90.2521 105.639 92.2641 104.872C96.2866 103.338 100.943 100.246 105.248 95.9407C109.554 91.6351 112.645 86.9789 114.18 82.9565C114.947 80.9444 115.313 79.1228 115.27 77.6004C115.226 76.0833 114.78 74.9054 113.967 74.0922C113.967 74.0922 113.967 74.0922 113.967 74.0922L111.33 71.4548L110.193 72.5914Z" stroke="url(#paint33_linear_1023_37718)" stroke-width="1.42693"/>
</g>
<mask id="mask9_1023_37718" style="mask-type:alpha" maskUnits="userSpaceOnUse" x="78" y="68" width="35" height="36">
<path d="M110.825 70.9502C111.638 71.7634 112.084 72.9413 112.127 74.4584C112.17 75.9808 111.805 77.8023 111.037 79.8144C109.503 83.8369 106.412 88.493 102.106 92.7986C97.8003 97.1043 93.1442 100.196 89.1217 101.73C87.1097 102.497 85.2881 102.863 83.7657 102.82C82.2486 102.777 81.0707 102.331 80.2575 101.517C79.4443 100.704 78.9984 99.5264 78.9552 98.0092C78.9119 96.4869 79.2776 94.6653 80.0451 92.6532C81.5795 88.6308 84.6707 83.9746 88.9763 79.669C93.282 75.3634 97.9381 72.2721 101.961 70.7378C103.973 69.9703 105.794 69.6045 107.317 69.6479C108.834 69.6911 110.012 70.137 110.825 70.9502Z" fill="url(#paint34_linear_1023_37718)" stroke="#FF7C51" stroke-width="1.42693"/>
</mask>
<g mask="url(#mask9_1023_37718)">
<path d="M110.825 70.9502C111.638 71.7634 112.084 72.9413 112.127 74.4584C112.17 75.9808 111.805 77.8023 111.037 79.8144C109.503 83.8369 106.412 88.493 102.106 92.7986C97.8003 97.1043 93.1442 100.196 89.1217 101.73C87.1097 102.497 85.2881 102.863 83.7657 102.82C82.2486 102.777 81.0707 102.331 80.2575 101.517C79.4443 100.704 78.9984 99.5264 78.9552 98.0092C78.9119 96.4869 79.2776 94.6653 80.0451 92.6532C81.5795 88.6308 84.6707 83.9746 88.9763 79.669C93.282 75.3634 97.9381 72.2721 101.961 70.7378C103.973 69.9703 105.794 69.6045 107.317 69.6479C108.834 69.6911 110.012 70.137 110.825 70.9502Z" fill="url(#paint35_linear_1023_37718)" stroke="#FF7C51" stroke-width="1.42693"/>
</g>
</g>
<mask id="mask10_1023_37718" style="mask-type:alpha" maskUnits="userSpaceOnUse" x="78" y="59" width="45" height="37">
<path d="M79.4393 76.3651C79.4393 78.1866 75.7267 83.3956 80.8553 87.6939C85.1036 92.2253 93.6002 86.561 101.247 93.9247C107.817 100.251 122.551 86.0892 122.551 76.5478C122.551 67.0064 111.265 59.2715 97.3442 59.2715C83.4231 59.2715 79.4393 66.8237 79.4393 76.3651Z" fill="#D9D9D9"/>
</mask>
<g mask="url(#mask10_1023_37718)">
<mask id="mask11_1023_37718" style="mask-type:alpha" maskUnits="userSpaceOnUse" x="79" y="70" width="37" height="37">
<path d="M110.193 72.5914L109.999 72.7852L109.726 72.7994C107.419 72.9196 104.558 73.8728 101.482 75.5909C98.4157 77.3037 95.1767 79.7531 92.1187 82.811C89.0608 85.869 86.6114 89.108 84.8986 92.1746C83.1805 95.2508 82.2273 98.1109 82.1071 100.418L82.0929 100.692L81.8991 100.886L80.7626 102.022L83.3779 104.637L83.3814 104.641L83.3999 104.659C84.2131 105.473 85.391 105.919 86.9081 105.962C88.4305 106.005 90.2521 105.639 92.2641 104.872C96.2866 103.338 100.943 100.246 105.248 95.9407C109.554 91.6351 112.645 86.9789 114.18 82.9565C114.947 80.9444 115.313 79.1228 115.27 77.6004C115.226 76.0833 114.78 74.9054 113.967 74.0922C113.967 74.0922 113.967 74.0922 113.967 74.0922L111.33 71.4548L110.193 72.5914Z" fill="url(#paint36_linear_1023_37718)" stroke="url(#paint37_linear_1023_37718)" stroke-width="1.42693"/>
</mask>
<g mask="url(#mask11_1023_37718)">
<path d="M109.689 72.0869L111.33 70.4458L114.472 73.5877C118.376 77.492 114.472 87.7257 105.753 96.4452C97.0333 105.165 86.7997 109.068 82.8954 105.164C82.8881 105.157 82.8807 105.149 82.8734 105.142L79.7536 102.022L81.3946 100.381C81.6503 95.4699 85.4152 88.5056 91.6142 82.3066C97.8133 76.1075 104.778 72.3426 109.689 72.0869Z" fill="url(#paint38_linear_1023_37718)"/>
<path d="M110.193 72.5914L109.999 72.7852L109.726 72.7994C107.419 72.9196 104.558 73.8728 101.482 75.5909C98.4157 77.3037 95.1767 79.7531 92.1187 82.811C89.0608 85.869 86.6114 89.108 84.8986 92.1746C83.1805 95.2508 82.2273 98.1109 82.1071 100.418L82.0929 100.692L81.8991 100.886L80.7626 102.022L83.3779 104.637L83.3814 104.641L83.3999 104.659C84.2131 105.473 85.391 105.919 86.9081 105.962C88.4305 106.005 90.2521 105.639 92.2641 104.872C96.2866 103.338 100.943 100.246 105.248 95.9407C109.554 91.6351 112.645 86.9789 114.18 82.9565C114.947 80.9444 115.313 79.1228 115.27 77.6004C115.226 76.0833 114.78 74.9054 113.967 74.0922C113.967 74.0922 113.967 74.0922 113.967 74.0922L111.33 71.4548L110.193 72.5914Z" stroke="url(#paint39_linear_1023_37718)" stroke-width="1.42693"/>
</g>
<mask id="mask12_1023_37718" style="mask-type:alpha" maskUnits="userSpaceOnUse" x="78" y="68" width="35" height="36">
<path d="M110.825 70.9502C111.638 71.7634 112.084 72.9413 112.127 74.4584C112.17 75.9808 111.805 77.8023 111.037 79.8144C109.503 83.8369 106.412 88.493 102.106 92.7986C97.8003 97.1043 93.1442 100.196 89.1217 101.73C87.1097 102.497 85.2881 102.863 83.7657 102.82C82.2486 102.777 81.0707 102.331 80.2575 101.517C79.4443 100.704 78.9984 99.5264 78.9552 98.0092C78.9119 96.4869 79.2776 94.6653 80.0451 92.6532C81.5795 88.6308 84.6707 83.9746 88.9763 79.669C93.282 75.3634 97.9381 72.2721 101.961 70.7378C103.973 69.9703 105.794 69.6045 107.317 69.6479C108.834 69.6911 110.012 70.137 110.825 70.9502Z" fill="url(#paint40_linear_1023_37718)" stroke="#FF7C51" stroke-width="1.42693"/>
</mask>
<g mask="url(#mask12_1023_37718)">
<path d="M110.825 70.9502C111.638 71.7634 112.084 72.9413 112.127 74.4584C112.17 75.9808 111.805 77.8023 111.037 79.8144C109.503 83.8369 106.412 88.493 102.106 92.7986C97.8003 97.1043 93.1442 100.196 89.1217 101.73C87.1097 102.497 85.2881 102.863 83.7657 102.82C82.2486 102.777 81.0707 102.331 80.2575 101.517C79.4443 100.704 78.9984 99.5264 78.9552 98.0092C78.9119 96.4869 79.2776 94.6653 80.0451 92.6532C81.5795 88.6308 84.6707 83.9746 88.9763 79.669C93.282 75.3634 97.9381 72.2721 101.961 70.7378C103.973 69.9703 105.794 69.6045 107.317 69.6479C108.834 69.6911 110.012 70.137 110.825 70.9502Z" fill="url(#paint41_linear_1023_37718)" stroke="#FF7C51" stroke-width="1.42693"/>
</g>
</g>
<path fill-rule="evenodd" clip-rule="evenodd" d="M28.7956 17.7389C27.9826 17.7389 27.3235 18.398 27.3235 19.211V35.7306C27.3235 36.3562 26.8163 36.8634 26.1906 36.8634C25.5649 36.8634 25.0577 36.3562 25.0577 35.7306V19.211C25.0577 17.1466 26.7312 15.4731 28.7956 15.4731C30.3288 15.4731 31.7066 16.4095 32.271 17.835L44.2066 47.981C45.5787 51.4465 46.2833 55.1401 46.2833 58.8674V77.498C46.2833 78.1236 45.7761 78.6308 45.1504 78.6308C44.5248 78.6308 44.0176 78.1236 44.0176 77.498V58.8674C44.0176 55.4257 43.3669 52.0151 42.1 48.8151L30.1643 18.6691C29.9421 18.1076 29.3994 17.7389 28.7956 17.7389Z" fill="url(#paint42_linear_1023_37718)"/>
<path fill-rule="evenodd" clip-rule="evenodd" d="M45.4488 67.5852C45.763 68.1262 45.5791 68.8195 45.038 69.1337L29.4378 78.1919C28.8968 78.506 28.2035 78.3221 27.8893 77.781C27.5751 77.24 27.7591 76.5466 28.3001 76.2325L43.9003 67.1743C44.4413 66.8602 45.1347 67.0441 45.4488 67.5852Z" fill="url(#paint43_linear_1023_37718)"/>
<path fill-rule="evenodd" clip-rule="evenodd" d="M13.0119 27.2189C12.3146 27.2189 11.7493 27.7842 11.7493 28.4815V45.0199C11.7493 45.6456 11.2421 46.1528 10.6164 46.1528C9.99073 46.1528 9.48352 45.6456 9.48352 45.0199V28.4815C9.48352 26.5328 11.0632 24.9531 13.0119 24.9531C14.4879 24.9531 15.808 25.8719 16.3206 27.2561L27.5139 57.4778C28.7315 60.7653 29.3548 64.2431 29.3548 67.7488V83.7289C29.3548 84.3545 28.8476 84.8617 28.2219 84.8617C27.5963 84.8617 27.0891 84.3545 27.0891 83.7289V67.7488C27.0891 64.5117 26.5135 61.3003 25.3892 58.2647L14.1959 28.043C14.0125 27.5477 13.5401 27.2189 13.0119 27.2189Z" fill="url(#paint44_linear_1023_37718)"/>
</g>
<path d="M104.461 65.2758C104.564 64.9973 104.958 64.9973 105.061 65.2758C105.565 66.6378 106.639 67.7116 108.001 68.2156C108.28 68.3186 108.28 68.7125 108.001 68.8156C106.639 69.3195 105.565 70.3934 105.061 71.7554C104.958 72.0339 104.564 72.0339 104.461 71.7554C103.957 70.3934 102.884 69.3195 101.522 68.8156C101.243 68.7125 101.243 68.3186 101.522 68.2156C102.884 67.7116 103.957 66.6378 104.461 65.2758Z" fill="url(#paint45_linear_1023_37718)"/>
<defs>
<radialGradient id="paint0_radial_1023_37718" cx="0" cy="0" r="1" gradientUnits="userSpaceOnUse" gradientTransform="translate(68.3932 67.3021) rotate(90) scale(106.773 166.412)">
<stop offset="0.359725" stop-color="#D533BB"/>
<stop offset="1" stop-color="#130834" stop-opacity="0"/>
</radialGradient>
<linearGradient id="paint1_linear_1023_37718" x1="68.3933" y1="100.09" x2="68.3933" y2="137.969" gradientUnits="userSpaceOnUse">
<stop stop-color="#FA28D8"/>
<stop offset="1" stop-color="#A320FF"/>
</linearGradient>
<linearGradient id="paint2_linear_1023_37718" x1="115.408" y1="81.7461" x2="115.408" y2="163.596" gradientUnits="userSpaceOnUse">
<stop stop-color="white" stop-opacity="0.65"/>
<stop offset="1" stop-color="#CA14C2" stop-opacity="0"/>
</linearGradient>
<linearGradient id="paint3_linear_1023_37718" x1="68.3933" y1="34.7319" x2="68.3933" y2="108.935" gradientUnits="userSpaceOnUse">
<stop stop-color="#E762D2"/>
<stop offset="1" stop-color="#E79CDB"/>
</linearGradient>
<linearGradient id="paint4_linear_1023_37718" x1="68.3933" y1="34.7319" x2="68.3933" y2="108.935" gradientUnits="userSpaceOnUse">
<stop stop-color="#E762D2"/>
<stop offset="1" stop-color="#E79CDB"/>
</linearGradient>
<linearGradient id="paint5_linear_1023_37718" x1="68.3929" y1="31.0263" x2="53.2971" y2="53.4646" gradientUnits="userSpaceOnUse">
<stop stop-color="#EE30D0"/>
<stop offset="1" stop-color="#8B1879"/>
</linearGradient>
<linearGradient id="paint6_linear_1023_37718" x1="68.3929" y1="37.5644" x2="68.3929" y2="103.838" gradientUnits="userSpaceOnUse">
<stop stop-color="#840A71"/>
<stop offset="1" stop-color="#4F0843"/>
</linearGradient>
<linearGradient id="paint7_linear_1023_37718" x1="35.6705" y1="2.06155" x2="73.5826" y2="141.641" gradientUnits="userSpaceOnUse">
<stop stop-color="#E272D0"/>
<stop offset="1" stop-color="#D44ABE"/>
</linearGradient>
<linearGradient id="paint8_linear_1023_37718" x1="36.6691" y1="65.4063" x2="37.0382" y2="78.7971" gradientUnits="userSpaceOnUse">
<stop stop-color="#E272D0"/>
<stop offset="1" stop-color="#D44ABE"/>
</linearGradient>
<linearGradient id="paint9_linear_1023_37718" x1="36.6678" y1="80.0943" x2="37.0694" y2="94.0778" gradientUnits="userSpaceOnUse">
<stop stop-color="#E272D0"/>
<stop offset="1" stop-color="#D44ABE"/>
</linearGradient>
<linearGradient id="paint10_linear_1023_37718" x1="36.6691" y1="98.2598" x2="37.0382" y2="111.651" gradientUnits="userSpaceOnUse">
<stop stop-color="#E272D0"/>
<stop offset="1" stop-color="#D44ABE"/>
</linearGradient>
<linearGradient id="paint11_linear_1023_37718" x1="19.4192" y1="12.3583" x2="55.1174" y2="143.381" gradientUnits="userSpaceOnUse">
<stop stop-color="#E272D0"/>
<stop offset="1" stop-color="#D44ABE"/>
</linearGradient>
<linearGradient id="paint12_linear_1023_37718" x1="70.0921" y1="48.8926" x2="70.0921" y2="92.6583" gradientUnits="userSpaceOnUse">
<stop stop-color="#D786F2" stop-opacity="0.75"/>
<stop offset="1" stop-color="#620482" stop-opacity="0.14"/>
</linearGradient>
<linearGradient id="paint13_linear_1023_37718" x1="86.5191" y1="79.4805" x2="86.5191" y2="112.334" gradientUnits="userSpaceOnUse">
<stop stop-color="white" stop-opacity="0.23"/>
<stop offset="0.0001" stop-color="white" stop-opacity="0.38"/>
<stop offset="1" stop-color="white" stop-opacity="0"/>
</linearGradient>
<linearGradient id="paint14_linear_1023_37718" x1="86.5185" y1="75.5146" x2="86.5185" y2="117.431" gradientUnits="userSpaceOnUse">
<stop stop-color="white" stop-opacity="0.23"/>
<stop offset="0.0001" stop-color="white" stop-opacity="0.38"/>
<stop offset="1" stop-color="white" stop-opacity="0"/>
</linearGradient>
<linearGradient id="paint15_linear_1023_37718" x1="75.2504" y1="94.4908" x2="102.995" y2="84.4651" gradientUnits="userSpaceOnUse">
<stop stop-color="white" stop-opacity="0.38"/>
<stop offset="1" stop-color="white" stop-opacity="0"/>
</linearGradient>
<linearGradient id="paint16_linear_1023_37718" x1="73.4912" y1="53.9907" x2="73.4912" y2="75.5153" gradientUnits="userSpaceOnUse">
<stop stop-color="white" stop-opacity="0.23"/>
<stop offset="0.0001" stop-color="white" stop-opacity="0.38"/>
<stop offset="1" stop-color="white" stop-opacity="0"/>
</linearGradient>
<linearGradient id="paint17_linear_1023_37718" x1="73.4912" y1="51.1587" x2="73.4912" y2="82.8791" gradientUnits="userSpaceOnUse">
<stop stop-color="white" stop-opacity="0.23"/>
<stop offset="0.0001" stop-color="white" stop-opacity="0.38"/>
<stop offset="1" stop-color="white" stop-opacity="0"/>
</linearGradient>
<linearGradient id="paint18_linear_1023_37718" x1="82.6539" y1="74.7744" x2="79.2861" y2="46.1341" gradientUnits="userSpaceOnUse">
<stop stop-color="#FF7C51"/>
<stop offset="0.163935" stop-color="#EB6474"/>
<stop offset="0.65444" stop-color="#FFBF65"/>
<stop offset="1" stop-color="#EBECD9"/>
</linearGradient>
<linearGradient id="paint19_linear_1023_37718" x1="53.5543" y1="50.2543" x2="79.41" y2="77.4459" gradientUnits="userSpaceOnUse">
<stop stop-color="#EDE9D1"/>
<stop offset="0.360529" stop-color="#FF7C51"/>
<stop offset="0.711797" stop-color="#ED6771"/>
<stop offset="1" stop-color="#FD7A56"/>
</linearGradient>
<linearGradient id="paint20_linear_1023_37718" x1="82.6549" y1="74.7749" x2="79.2871" y2="46.1346" gradientUnits="userSpaceOnUse">
<stop stop-color="#FF7C51"/>
<stop offset="0.163935" stop-color="#EB6474"/>
<stop offset="0.65444" stop-color="#FFBF65"/>
<stop offset="1" stop-color="#EBECD9"/>
</linearGradient>
<linearGradient id="paint21_linear_1023_37718" x1="53.5552" y1="50.2548" x2="79.411" y2="77.4464" gradientUnits="userSpaceOnUse">
<stop stop-color="#EDE9D1"/>
<stop offset="0.360529" stop-color="#FF7C51"/>
<stop offset="0.711797" stop-color="#ED6771"/>
<stop offset="1" stop-color="#FD7A56"/>
</linearGradient>
<linearGradient id="paint22_linear_1023_37718" x1="74.8308" y1="74.0117" x2="70.7282" y2="46.057" gradientUnits="userSpaceOnUse">
<stop stop-color="#FFE0EA"/>
<stop offset="0.225" stop-color="#FFD6C1"/>
<stop offset="0.735" stop-color="#FFBF65"/>
<stop offset="1" stop-color="#FF7B50"/>
</linearGradient>
<linearGradient id="paint23_linear_1023_37718" x1="74.8308" y1="74.0117" x2="70.7282" y2="46.057" gradientUnits="userSpaceOnUse">
<stop stop-color="#FFE0EA"/>
<stop offset="0.225" stop-color="#FFD6C1"/>
<stop offset="0.735" stop-color="#FFBF65"/>
<stop offset="1" stop-color="#FF7B50"/>
</linearGradient>
<linearGradient id="paint24_linear_1023_37718" x1="82.6539" y1="74.7744" x2="79.2861" y2="46.1341" gradientUnits="userSpaceOnUse">
<stop stop-color="#FF7C51"/>
<stop offset="0.163935" stop-color="#EB6474"/>
<stop offset="0.65444" stop-color="#FFBF65"/>
<stop offset="1" stop-color="#EBECD9"/>
</linearGradient>
<linearGradient id="paint25_linear_1023_37718" x1="53.5543" y1="50.2543" x2="79.41" y2="77.4459" gradientUnits="userSpaceOnUse">
<stop stop-color="#EDE9D1"/>
<stop offset="0.360529" stop-color="#FF7C51"/>
<stop offset="0.711797" stop-color="#ED6771"/>
<stop offset="1" stop-color="#FD7A56"/>
</linearGradient>
<linearGradient id="paint26_linear_1023_37718" x1="82.6549" y1="74.7749" x2="79.2871" y2="46.1346" gradientUnits="userSpaceOnUse">
<stop stop-color="#FF7C51"/>
<stop offset="0.163935" stop-color="#EB6474"/>
<stop offset="0.65444" stop-color="#FFBF65"/>
<stop offset="1" stop-color="#EBECD9"/>
</linearGradient>
<linearGradient id="paint27_linear_1023_37718" x1="53.5552" y1="50.2548" x2="79.411" y2="77.4464" gradientUnits="userSpaceOnUse">
<stop stop-color="#EDE9D1"/>
<stop offset="0.360529" stop-color="#FF7C51"/>
<stop offset="0.711797" stop-color="#ED6771"/>
<stop offset="1" stop-color="#FD7A56"/>
</linearGradient>
<linearGradient id="paint28_linear_1023_37718" x1="74.8308" y1="74.0117" x2="70.7282" y2="46.057" gradientUnits="userSpaceOnUse">
<stop stop-color="#FFE0EA"/>
<stop offset="0.225" stop-color="#FFD6C1"/>
<stop offset="0.735" stop-color="#FFBF65"/>
<stop offset="1" stop-color="#FF7B50"/>
</linearGradient>
<linearGradient id="paint29_linear_1023_37718" x1="74.8308" y1="74.0117" x2="70.7282" y2="46.057" gradientUnits="userSpaceOnUse">
<stop stop-color="#FFE0EA"/>
<stop offset="0.225" stop-color="#FFD6C1"/>
<stop offset="0.735" stop-color="#FFBF65"/>
<stop offset="1" stop-color="#FF7B50"/>
</linearGradient>
<linearGradient id="paint30_linear_1023_37718" x1="81.3954" y1="104.038" x2="85.3872" y2="70.0902" gradientUnits="userSpaceOnUse">
<stop stop-color="#FF7C51"/>
<stop offset="0.163935" stop-color="#EB6474"/>
<stop offset="0.65444" stop-color="#FFBF65"/>
<stop offset="1" stop-color="#EBECD9"/>
</linearGradient>
<linearGradient id="paint31_linear_1023_37718" x1="115.887" y1="74.974" x2="85.2404" y2="107.204" gradientUnits="userSpaceOnUse">
<stop stop-color="#EDE9D1"/>
<stop offset="0.360529" stop-color="#FF7C51"/>
<stop offset="0.711797" stop-color="#ED6771"/>
<stop offset="1" stop-color="#FD7A56"/>
</linearGradient>
<linearGradient id="paint32_linear_1023_37718" x1="81.3954" y1="104.038" x2="85.3872" y2="70.0902" gradientUnits="userSpaceOnUse">
<stop stop-color="#FF7C51"/>
<stop offset="0.163935" stop-color="#EB6474"/>
<stop offset="0.65444" stop-color="#FFBF65"/>
<stop offset="1" stop-color="#EBECD9"/>
</linearGradient>
<linearGradient id="paint33_linear_1023_37718" x1="115.887" y1="74.974" x2="85.2404" y2="107.204" gradientUnits="userSpaceOnUse">
<stop stop-color="#EDE9D1"/>
<stop offset="0.360529" stop-color="#FF7C51"/>
<stop offset="0.711797" stop-color="#ED6771"/>
<stop offset="1" stop-color="#FD7A56"/>
</linearGradient>
<linearGradient id="paint34_linear_1023_37718" x1="90.6683" y1="103.133" x2="95.5311" y2="69.998" gradientUnits="userSpaceOnUse">
<stop stop-color="#FFE0EA"/>
<stop offset="0.225" stop-color="#FFD6C1"/>
<stop offset="0.735" stop-color="#FFBF65"/>
<stop offset="1" stop-color="#FF7B50"/>
</linearGradient>
<linearGradient id="paint35_linear_1023_37718" x1="90.6683" y1="103.133" x2="95.5311" y2="69.998" gradientUnits="userSpaceOnUse">
<stop stop-color="#FFE0EA"/>
<stop offset="0.225" stop-color="#FFD6C1"/>
<stop offset="0.735" stop-color="#FFBF65"/>
<stop offset="1" stop-color="#FF7B50"/>
</linearGradient>
<linearGradient id="paint36_linear_1023_37718" x1="81.3954" y1="104.038" x2="85.3872" y2="70.0902" gradientUnits="userSpaceOnUse">
<stop stop-color="#FF7C51"/>
<stop offset="0.163935" stop-color="#EB6474"/>
<stop offset="0.65444" stop-color="#FFBF65"/>
<stop offset="1" stop-color="#EBECD9"/>
</linearGradient>
<linearGradient id="paint37_linear_1023_37718" x1="115.887" y1="74.974" x2="85.2404" y2="107.204" gradientUnits="userSpaceOnUse">
<stop stop-color="#EDE9D1"/>
<stop offset="0.360529" stop-color="#FF7C51"/>
<stop offset="0.711797" stop-color="#ED6771"/>
<stop offset="1" stop-color="#FD7A56"/>
</linearGradient>
<linearGradient id="paint38_linear_1023_37718" x1="81.3954" y1="104.038" x2="85.3872" y2="70.0902" gradientUnits="userSpaceOnUse">
<stop stop-color="#FF7C51"/>
<stop offset="0.163935" stop-color="#EB6474"/>
<stop offset="0.65444" stop-color="#FFBF65"/>
<stop offset="1" stop-color="#EBECD9"/>
</linearGradient>
<linearGradient id="paint39_linear_1023_37718" x1="115.887" y1="74.974" x2="85.2404" y2="107.204" gradientUnits="userSpaceOnUse">
<stop stop-color="#EDE9D1"/>
<stop offset="0.360529" stop-color="#FF7C51"/>
<stop offset="0.711797" stop-color="#ED6771"/>
<stop offset="1" stop-color="#FD7A56"/>
</linearGradient>
<linearGradient id="paint40_linear_1023_37718" x1="90.6683" y1="103.133" x2="95.5311" y2="69.998" gradientUnits="userSpaceOnUse">
<stop stop-color="#FFE0EA"/>
<stop offset="0.225" stop-color="#FFD6C1"/>
<stop offset="0.735" stop-color="#FFBF65"/>
<stop offset="1" stop-color="#FF7B50"/>
</linearGradient>
<linearGradient id="paint41_linear_1023_37718" x1="90.6683" y1="103.133" x2="95.5311" y2="69.998" gradientUnits="userSpaceOnUse">
<stop stop-color="#FFE0EA"/>
<stop offset="0.225" stop-color="#FFD6C1"/>
<stop offset="0.735" stop-color="#FFBF65"/>
<stop offset="1" stop-color="#FF7B50"/>
</linearGradient>
<linearGradient id="paint42_linear_1023_37718" x1="35.6705" y1="9.24234" x2="44.3193" y2="77.7812" gradientUnits="userSpaceOnUse">
<stop stop-color="#F22FD3"/>
<stop offset="1" stop-color="#F043D5"/>
</linearGradient>
<linearGradient id="paint43_linear_1023_37718" x1="45.7363" y1="68.4348" x2="30.8094" y2="75.0812" gradientUnits="userSpaceOnUse">
<stop stop-color="#ED0DC9"/>
<stop offset="1" stop-color="#F043D5"/>
</linearGradient>
<linearGradient id="paint44_linear_1023_37718" x1="19.4192" y1="19.0429" x2="27.7279" y2="84.0287" gradientUnits="userSpaceOnUse">
<stop stop-color="#F22FD3"/>
<stop offset="1" stop-color="#F043D5"/>
</linearGradient>
<linearGradient id="paint45_linear_1023_37718" x1="104.761" y1="64.4653" x2="104.761" y2="72.5664" gradientUnits="userSpaceOnUse">
<stop stop-color="white"/>
<stop offset="0.755" stop-color="#E3FDFF"/>
</linearGradient>
</defs>
</svg>
