<svg width="960" height="788" viewBox="0 0 960 788" fill="none" xmlns="http://www.w3.org/2000/svg">
<mask id="mask0_1017_25184" style="mask-type:alpha" maskUnits="userSpaceOnUse" x="0" y="0" width="960" height="788">
<rect width="960" height="788" transform="matrix(1 0 0 -1 0 788)" fill="url(#paint0_linear_1017_25184)"/>
</mask>
<g mask="url(#mask0_1017_25184)">
<path d="M7.5 445.934L953.75 445.934" stroke="#3C356D"/>
<path d="M1.23633 359.671H961.236" stroke="#3C356D"/>
<path d="M0.833008 188.26H960.833" stroke="#3C356D"/>
<path d="M0.833008 16.0764H960.833" stroke="#3C356D"/>
<path d="M1.23633 273.965H961.236" stroke="#3C356D"/>
<path d="M0.833008 101.782H960.833" stroke="#3C356D"/>
<path d="M70.416 468.219L892.083 468.219" stroke="#3C356D"/>
<path d="M119.583 483.532L842.916 483.532" stroke="#3C356D"/>
<path d="M173.75 500.376L788.75 500.376" stroke="#3C356D"/>
<path d="M201.25 508.799L761.25 508.799" stroke="#3C356D"/>
<path d="M224.583 537.815H738.75" stroke="#3C356D"/>
<path d="M224.166 587.447H738.333" stroke="#3C356D"/>
<path d="M224.166 636.863H738.333" stroke="#3C356D"/>
<path d="M224.166 687.051H738.333" stroke="#3C356D"/>
<path d="M224.166 736.467H738.333" stroke="#3C356D"/>
<path d="M224.166 785.883H738.333" stroke="#3C356D"/>
<path d="M0.833008 -327.518V424.623C0.833008 437.78 9.4056 449.402 21.9759 453.286L203.023 509.232C215.594 513.116 224.166 524.738 224.166 537.894V837.615" stroke="#3C356D"/>
<path d="M960.532 -327.259V424.814C960.532 437.954 951.981 449.565 939.433 453.463L759.413 509.39C746.864 513.288 738.313 524.899 738.313 538.039V837.906" stroke="#3C356D"/>
<path d="M97.8174 -328L97.8174 426.429C97.8174 438.78 105.387 449.869 116.889 454.368L256.224 508.868C267.727 513.367 275.296 524.455 275.296 536.806V837.906" stroke="#3C356D"/>
<path d="M864.611 -327.63V426.429C864.611 438.78 857.042 449.869 845.539 454.368L706.205 508.868C694.702 513.367 687.133 524.456 687.133 536.807V837.906" stroke="#3C356D"/>
<path d="M192.127 -327.63V428.557C192.127 439.78 198.391 450.064 208.364 455.213L310.24 507.814C320.213 512.963 326.477 523.247 326.477 534.47V837.906" stroke="#3C356D"/>
<path d="M770.312 -327.63L770.312 428.557C770.312 439.78 764.048 450.064 754.076 455.213L652.199 507.814C642.227 512.963 635.962 523.247 635.962 534.47V837.906" stroke="#3C356D"/>
<path d="M287.291 -326.518V432.192C287.291 441.514 291.624 450.306 299.017 455.984L365.931 507.378C373.324 513.056 377.658 521.848 377.658 531.17V837.906" stroke="#3C356D"/>
<path d="M675.147 -327.63V432.192C675.147 441.514 670.814 450.306 663.421 455.984L596.507 507.378C589.114 513.056 584.781 521.848 584.781 531.17V837.906" stroke="#3C356D"/>
<path d="M383.255 -328V438C383.255 443.949 385.023 449.764 388.336 454.705L424.557 508.737C427.869 513.678 429.638 519.493 429.638 525.442V838.646" stroke="#3C356D"/>
<path d="M579.185 -327.63V438C579.185 443.949 577.416 449.764 574.104 454.705L537.883 508.737C534.57 513.678 532.802 519.493 532.802 525.442V838.646" stroke="#3C356D"/>
<path d="M480.82 837.906L480.82 415.81L480.82 -328" stroke="#3C356D"/>
</g>
<defs>
<linearGradient id="paint0_linear_1017_25184" x1="480" y1="0" x2="480" y2="707.465" gradientUnits="userSpaceOnUse">
<stop stop-color="#D9D9D9" stop-opacity="0"/>
<stop offset="0.215" stop-color="#D9D9D9"/>
<stop offset="0.725957" stop-color="#D9D9D9"/>
<stop offset="1" stop-color="#737373" stop-opacity="0"/>
</linearGradient>
</defs>
</svg>
