<svg width="960" height="604" viewBox="0 0 960 604" fill="none" xmlns="http://www.w3.org/2000/svg">
<mask id="mask0_1017_28941" style="mask-type:alpha" maskUnits="userSpaceOnUse" x="0" y="0" width="960" height="604">
<rect width="960" height="604" transform="matrix(1 0 0 -1 0 604)" fill="url(#paint0_linear_1017_28941)"/>
</mask>
<g mask="url(#mask0_1017_28941)">
<path d="M10 241.765L950 241.765" stroke="#3C356D"/>
<path d="M1 332.133H959" stroke="#3C356D"/>
<path d="M1 511.843H959" stroke="#3C356D"/>
<path d="M1 422.501H959" stroke="#3C356D"/>
<path d="M1 602.211H959" stroke="#3C356D"/>
<path d="M70.3271 218.708L890.936 218.708" stroke="#3C356D"/>
<path d="M119.43 202.681L841.831 202.681" stroke="#3C356D"/>
<path d="M173.526 185.05L787.734 185.05" stroke="#3C356D"/>
<path d="M200.991 176.235L760.27 176.235" stroke="#3C356D"/>
<path d="M224.295 145.865H737.799" stroke="#3C356D"/>
<path d="M223.879 93.918H737.383" stroke="#3C356D"/>
<path d="M223.879 42.1968H737.383" stroke="#3C356D"/>
<path d="M0.833008 1051.57V262.994C0.833008 249.987 9.21543 238.461 21.5903 234.454L203.121 175.666C215.496 171.658 223.879 160.133 223.879 147.125V-167.92" stroke="#3C356D"/>
<path d="M959 1050.97V262.859C959 249.866 950.636 238.35 938.281 234.331L757.719 175.589C745.364 171.569 737 160.053 737 147.06V-167.973" stroke="#3C356D"/>
<path d="M97.6924 1052.07L97.6924 261.138C97.6924 248.964 105.049 237.997 116.314 233.38L256.321 175.989C267.585 171.371 274.943 160.404 274.943 148.23V-168.224" stroke="#3C356D"/>
<path d="M863.499 1051.68V261.138C863.499 248.964 856.142 237.997 844.878 233.379L704.87 175.988C693.606 171.371 686.249 160.404 686.249 148.23V-168.225" stroke="#3C356D"/>
<path d="M191.881 1051.68V258.972C191.881 247.958 197.917 237.829 207.604 232.587L310.335 176.999C320.022 171.758 326.058 161.629 326.058 150.614V-168.224" stroke="#3C356D"/>
<path d="M769.321 1051.68L769.321 258.972C769.321 247.958 763.285 237.829 753.598 232.587L650.867 176.999C641.18 171.758 635.144 161.629 635.144 150.614V-168.224" stroke="#3C356D"/>
<path d="M286.923 1050.52V255.304C286.923 246.222 291.037 237.629 298.112 231.934L365.984 177.302C373.059 171.607 377.173 163.014 377.173 153.932V-168.224" stroke="#3C356D"/>
<path d="M674.279 1051.68V255.304C674.279 246.222 670.165 237.629 663.09 231.934L595.218 177.302C588.143 171.607 584.029 163.014 584.029 153.932V-168.224" stroke="#3C356D"/>
<path d="M382.763 1052.07V249.56C382.763 243.83 384.403 238.221 387.491 233.394L424.358 175.758C427.445 170.932 429.086 165.322 429.086 159.593V-169" stroke="#3C356D"/>
<path d="M578.439 1051.68V249.56C578.439 243.83 576.799 238.221 573.712 233.394L536.844 175.758C533.757 170.932 532.116 165.322 532.116 159.593V-169" stroke="#3C356D"/>
<path d="M480.201 -168.224L480.201 273.562L480.201 1052.07" stroke="#3C356D"/>
</g>
<defs>
<linearGradient id="paint0_linear_1017_28941" x1="480" y1="0" x2="480" y2="542.27" gradientUnits="userSpaceOnUse">
<stop stop-color="#D9D9D9" stop-opacity="0"/>
<stop offset="0.215" stop-color="#D9D9D9"/>
<stop offset="0.725957" stop-color="#D9D9D9"/>
<stop offset="1" stop-color="#737373" stop-opacity="0"/>
</linearGradient>
</defs>
</svg>
