<svg width="962" height="758" viewBox="0 0 962 758" fill="none" xmlns="http://www.w3.org/2000/svg">
<mask id="mask0_1017_25656" style="mask-type:alpha" maskUnits="userSpaceOnUse" x="0" y="0" width="962" height="758">
<rect width="962" height="758" fill="url(#paint0_linear_1017_25656)"/>
</mask>
<g mask="url(#mask0_1017_25656)">
<path d="M9.49963 92.2598H953" stroke="#3C356D"/>
<path d="M1.99982 185H961" stroke="#3C356D"/>
<path d="M1.99982 278H961" stroke="#3C356D"/>
<path d="M69.9879 68.1558L892 68.1558" stroke="#3C356D"/>
<path d="M119.027 51.5325L842.975 51.5324" stroke="#3C356D"/>
<path d="M173.885 33.2468L788.95 33.2468" stroke="#3C356D"/>
<path d="M201.312 24.1039L760.689 24.1039" stroke="#3C356D"/>
<path d="M1.48322 371.444V112.652C1.48322 99.7588 9.72159 88.3073 21.9461 84.2085L203.322 23.3939C215.546 19.2951 223.785 7.84363 223.785 -5.04979V-331.081" stroke="#3C356D"/>
<path d="M960.487 371.444V112.652C960.487 99.7588 952.249 88.3073 940.024 84.2085L758.648 23.3939C746.424 19.2951 738.185 7.84363 738.185 -5.04979V-331.081" stroke="#3C356D"/>
<path d="M97.4402 371.444V110.969C97.4402 98.9086 104.662 88.0209 115.773 83.3306L256.652 23.8585C267.763 19.1681 274.985 8.28044 274.985 -3.77971V-331.081" stroke="#3C356D"/>
<path d="M864.529 371.444V110.969C864.529 98.9086 857.307 88.0209 846.196 83.3306L705.317 23.8585C694.206 19.1681 686.985 8.28044 686.985 -3.77971V-331.081" stroke="#3C356D"/>
<path d="M191.785 371.319V108.78C191.785 97.8993 197.677 87.8712 207.182 82.5746L310.788 24.84C320.293 19.5433 326.185 9.51524 326.185 -1.36588V-331.081" stroke="#3C356D"/>
<path d="M770.184 371.319V108.78C770.184 97.8993 764.293 87.8712 754.788 82.5746L651.181 24.84C641.676 19.5433 635.784 9.51524 635.784 -1.36588V-331.081" stroke="#3C356D"/>
<path d="M286.984 371.319V105.094C286.984 96.163 290.963 87.6967 297.839 81.9972L366.53 25.0556C373.406 19.3562 377.384 10.8899 377.384 1.95925V-331.081" stroke="#3C356D"/>
<path d="M674.984 371.319V105.094C674.984 96.163 671.005 87.6967 664.13 81.9972L595.438 25.0556C588.563 19.3562 584.584 10.8899 584.584 1.95925V-331.081" stroke="#3C356D"/>
<path d="M382.984 371.319V99.3937C382.984 93.7996 384.548 88.317 387.5 83.5649L424.868 23.4015C427.82 18.6495 429.384 13.1668 429.384 7.57274V-331.881" stroke="#3C356D"/>
<path d="M578.984 371.319V99.3937C578.984 93.7996 577.42 88.317 574.468 83.5649L537.1 23.4015C534.148 18.6495 532.584 13.1668 532.584 7.57274V-331.881" stroke="#3C356D"/>
<path d="M480.585 -331.081L480.585 124.646L480.585 371.319" stroke="#3C356D"/>
<path d="M10.4998 465L951.5 465" stroke="#3C356D"/>
<path d="M1.99982 372H961" stroke="#3C356D"/>
<path d="M69.9879 488.303L891.598 488.303" stroke="#3C356D"/>
<path d="M119.443 504.836L842.56 504.836" stroke="#3C356D"/>
<path d="M173.885 523.022L788.534 523.022" stroke="#3C356D"/>
<path d="M200.481 532.115L761.105 532.115" stroke="#3C356D"/>
<path d="M223.754 563.532H738.247" stroke="#3C356D"/>
<path d="M223.754 616.727H738.247" stroke="#3C356D"/>
<path d="M223.754 670.753H738.247" stroke="#3C356D"/>
<path d="M223.754 723.948H738.247" stroke="#3C356D"/>
<path d="M1.48322 184.92V443.711C1.48322 456.605 9.72159 468.056 21.9461 472.155L203.322 532.969C215.546 537.068 223.785 548.52 223.785 561.413V887.444" stroke="#3C356D"/>
<path d="M960.487 184.919V443.711C960.487 456.605 952.249 468.056 940.024 472.155L758.648 532.969C746.424 537.068 738.185 548.52 738.185 561.413V887.444" stroke="#3C356D"/>
<path d="M97.4402 184.92V445.395C97.4402 457.455 104.662 468.342 115.773 473.033L256.652 532.505C267.763 537.195 274.985 548.083 274.985 560.143V887.444" stroke="#3C356D"/>
<path d="M864.529 184.919V445.395C864.529 457.455 857.307 468.342 846.196 473.033L705.317 532.505C694.206 537.195 686.985 548.083 686.985 560.143V887.444" stroke="#3C356D"/>
<path d="M191.785 185.044V447.583C191.785 458.464 197.677 468.492 207.182 473.789L310.788 531.523C320.293 536.82 326.185 546.848 326.185 557.729V887.444" stroke="#3C356D"/>
<path d="M770.184 185.044V447.583C770.184 458.464 764.293 468.492 754.788 473.789L651.181 531.523C641.676 536.82 635.784 546.848 635.784 557.729V887.444" stroke="#3C356D"/>
<path d="M286.984 185.044V451.27C286.984 460.2 290.963 468.667 297.839 474.366L366.53 531.308C373.406 537.007 377.384 545.473 377.384 554.404V887.444" stroke="#3C356D"/>
<path d="M674.984 185.044V451.27C674.984 460.2 671.005 468.667 664.13 474.366L595.438 531.308C588.563 537.007 584.584 545.473 584.584 554.404V887.444" stroke="#3C356D"/>
<path d="M382.984 185.044V456.97C382.984 462.564 384.548 468.046 387.5 472.798L424.868 532.962C427.82 537.714 429.384 543.196 429.384 548.791V888.244" stroke="#3C356D"/>
<path d="M578.984 185.044V456.97C578.984 462.564 577.42 468.046 574.468 472.798L537.1 532.962C534.148 537.714 532.584 543.196 532.584 548.791V888.244" stroke="#3C356D"/>
<path d="M480.585 887.444L480.585 431.718L480.585 185.044" stroke="#3C356D"/>
</g>
<defs>
<linearGradient id="paint0_linear_1017_25656" x1="481" y1="15.3761" x2="481" y2="735.449" gradientUnits="userSpaceOnUse">
<stop stop-color="#D9D9D9" stop-opacity="0"/>
<stop offset="0.169369" stop-color="#D9D9D9"/>
<stop offset="0.736397" stop-color="#D9D9D9"/>
<stop offset="0.987273" stop-color="#D9D9D9" stop-opacity="0"/>
</linearGradient>
</defs>
</svg>
