<svg width="960" height="570" viewBox="0 0 960 570" fill="none" xmlns="http://www.w3.org/2000/svg">
<mask id="mask0_1017_29730" style="mask-type:alpha" maskUnits="userSpaceOnUse" x="0" y="0" width="960" height="570">
<rect width="960" height="570" transform="matrix(1 0 0 -1 0 570)" fill="url(#paint0_linear_1017_29730)"/>
</mask>
<g mask="url(#mask0_1017_29730)">
<path d="M9 283L952 283" stroke="#3C356D"/>
<path d="M1.23633 190.066H961.236" stroke="#3C356D"/>
<path d="M0.833008 4.84668H960.833" stroke="#3C356D"/>
<path d="M1.23633 97.4565H961.236" stroke="#3C356D"/>
<path d="M70.416 307.358L892.083 307.358" stroke="#3C356D"/>
<path d="M119.583 323.904L842.916 323.904" stroke="#3C356D"/>
<path d="M173.75 342.105L788.75 342.105" stroke="#3C356D"/>
<path d="M201.25 351.206L761.25 351.206" stroke="#3C356D"/>
<path d="M224.583 382.561H738.75" stroke="#3C356D"/>
<path d="M224.166 436.19H738.333" stroke="#3C356D"/>
<path d="M224.166 489.587H738.333" stroke="#3C356D"/>
<path d="M224.166 543.817H738.333" stroke="#3C356D"/>
<path d="M0.833008 -552.479V262.551C0.833008 275.458 9.0888 286.919 21.3316 291.007L203.668 351.889C215.911 355.977 224.166 367.438 224.166 380.345V706.51" stroke="#3C356D"/>
<path d="M960.532 -552.198V262.756C960.532 275.646 952.299 287.095 940.079 291.197L758.766 352.062C746.546 356.164 738.313 367.613 738.313 380.503V706.824" stroke="#3C356D"/>
<path d="M97.8174 -553L97.8174 264.44C97.8174 276.496 105.034 287.38 116.138 292.074L256.975 351.598C268.08 356.291 275.296 367.176 275.296 379.231V706.824" stroke="#3C356D"/>
<path d="M864.611 -552.599V264.441C864.611 276.496 857.395 287.381 846.291 292.074L705.453 351.599C694.349 356.292 687.133 367.176 687.133 379.232V706.824" stroke="#3C356D"/>
<path d="M192.127 -552.599V266.63C192.127 277.505 198.013 287.529 207.511 292.828L311.094 350.618C320.591 355.917 326.477 365.941 326.477 376.817V706.824" stroke="#3C356D"/>
<path d="M770.312 -552.599L770.312 266.63C770.312 277.505 764.426 287.529 754.929 292.828L651.346 350.618C641.848 355.917 635.962 365.941 635.962 376.817V706.824" stroke="#3C356D"/>
<path d="M287.291 -551.398V270.317C287.291 279.242 291.264 287.703 298.132 293.402L366.817 350.406C373.684 356.105 377.658 364.567 377.658 373.491V706.824" stroke="#3C356D"/>
<path d="M675.147 -552.599V270.317C675.147 279.242 671.174 287.703 664.307 293.402L595.622 350.406C588.754 356.105 584.781 364.567 584.781 373.491V706.824" stroke="#3C356D"/>
<path d="M383.255 -552.999V276.015C383.255 281.604 384.816 287.081 387.762 291.83L425.13 352.064C428.077 356.813 429.638 362.291 429.638 367.88V707.625" stroke="#3C356D"/>
<path d="M579.185 -552.599V276.015C579.185 281.604 577.623 287.081 574.677 291.83L537.309 352.064C534.363 356.813 532.802 362.291 532.802 367.88V707.625" stroke="#3C356D"/>
<path d="M480.82 706.824L480.82 250.727L480.82 -553" stroke="#3C356D"/>
</g>
<defs>
<linearGradient id="paint0_linear_1017_29730" x1="480" y1="0" x2="480" y2="511.745" gradientUnits="userSpaceOnUse">
<stop stop-color="#D9D9D9" stop-opacity="0"/>
<stop offset="0.215" stop-color="#D9D9D9"/>
<stop offset="0.725957" stop-color="#D9D9D9"/>
<stop offset="1" stop-color="#737373" stop-opacity="0"/>
</linearGradient>
</defs>
</svg>
