<svg width="20" height="20" viewBox="0 0 20 20" fill="none" xmlns="http://www.w3.org/2000/svg">
<path d="M9.81283 12.0625L6.79199 9.04171C6.75033 9.00004 6.71908 8.9549 6.69824 8.90629C6.67741 8.85768 6.66699 8.8056 6.66699 8.75004C6.66699 8.63893 6.70519 8.54171 6.78158 8.45837C6.85796 8.37504 6.95866 8.33337 7.08366 8.33337H13.417C13.542 8.33337 13.6427 8.37504 13.7191 8.45837C13.7955 8.54171 13.8337 8.63893 13.8337 8.75004C13.8337 8.77782 13.792 8.87504 13.7087 9.04171L10.6878 12.0625C10.6184 12.132 10.5489 12.1806 10.4795 12.2084C10.41 12.2362 10.3337 12.25 10.2503 12.25C10.167 12.25 10.0906 12.2362 10.0212 12.2084C9.95171 12.1806 9.88227 12.132 9.81283 12.0625Z" fill="#F7F7F7"/>
</svg>
