<svg width="24" height="24" viewBox="0 0 24 24" fill="none" xmlns="http://www.w3.org/2000/svg">
<path d="M7.67105 11.3421C7.18896 11.3421 6.71159 11.2472 6.2662 11.0627C5.82081 10.8782 5.41612 10.6078 5.07523 10.2669C4.73434 9.92599 4.46393 9.5213 4.27944 9.0759C4.09495 8.63051 4 8.15314 4 7.67105C4 7.18896 4.09495 6.71159 4.27944 6.2662C4.46393 5.82081 4.73434 5.41612 5.07523 5.07523C5.41612 4.73434 5.82081 4.46393 6.2662 4.27944C6.71159 4.09495 7.18896 4 7.67105 4C8.64468 4 9.57842 4.38677 10.2669 5.07523C10.9553 5.76368 11.3421 6.69743 11.3421 7.67105C11.3421 8.64468 10.9553 9.57842 10.2669 10.2669C9.57842 10.9553 8.64468 11.3421 7.67105 11.3421ZM7.67105 19.5C6.69743 19.5 5.76368 19.1132 5.07523 18.4248C4.38677 17.7363 4 16.8026 4 15.8289C4 14.8553 4.38677 13.9216 5.07523 13.2331C5.76368 12.5447 6.69743 12.1579 7.67105 12.1579C8.64468 12.1579 9.57842 12.5447 10.2669 13.2331C10.9553 13.9216 11.3421 14.8553 11.3421 15.8289C11.3421 16.8026 10.9553 17.7363 10.2669 18.4248C9.57842 19.1132 8.64468 19.5 7.67105 19.5ZM15.8289 11.3421C15.3469 11.3421 14.8695 11.2472 14.4241 11.0627C13.9787 10.8782 13.574 10.6078 13.2331 10.2669C12.8922 9.92599 12.6218 9.5213 12.4373 9.0759C12.2528 8.63051 12.1579 8.15314 12.1579 7.67105C12.1579 7.18896 12.2528 6.71159 12.4373 6.2662C12.6218 5.82081 12.8922 5.41612 13.2331 5.07523C13.574 4.73434 13.9787 4.46393 14.4241 4.27944C14.8695 4.09495 15.3469 4 15.8289 4C16.8026 4 17.7363 4.38677 18.4248 5.07523C19.1132 5.76368 19.5 6.69743 19.5 7.67105C19.5 8.64468 19.1132 9.57842 18.4248 10.2669C17.7363 10.9553 16.8026 11.3421 15.8289 11.3421ZM15.8289 19.5C14.8553 19.5 13.9216 19.1132 13.2331 18.4248C12.5447 17.7363 12.1579 16.8026 12.1579 15.8289C12.1579 14.8553 12.5447 13.9216 13.2331 13.2331C13.9216 12.5447 14.8553 12.1579 15.8289 12.1579C16.8026 12.1579 17.7363 12.5447 18.4248 13.2331C19.1132 13.9216 19.5 14.8553 19.5 15.8289C19.5 16.8026 19.1132 17.7363 18.4248 18.4248C17.7363 19.1132 16.8026 19.5 15.8289 19.5Z" fill="#D44ABE"/>
</svg>
