<svg width="25" height="24" viewBox="0 0 25 24" fill="none" xmlns="http://www.w3.org/2000/svg">
<rect x="0.333008" width="24" height="24" rx="6" fill="#742968"/>
<rect x="0.833008" y="0.5" width="23" height="23" rx="5.5" stroke="#F9F8F7" stroke-opacity="0.2"/>
<path d="M6.25989 8.21522C6.24023 8.23961 6.25902 8.276 6.2905 8.27626C6.49087 8.27789 6.91346 8.33582 6.9995 8.81269C7.23719 10.4401 4.79159 11.1738 4.70806 12.8341C4.70644 12.8662 4.74648 12.8846 4.77309 12.8662C5.02564 12.6913 5.457 12.7009 5.66365 12.9132C6.19053 13.4285 5.99004 14.4418 6.03332 15.0908C6.10288 16.1341 6.23184 16.977 7.22409 17.8724C7.25362 17.8991 7.30946 17.8608 7.30022 17.8223C7.24855 17.607 7.26371 17.3356 7.41958 17.2108C8.15811 16.633 8.80147 18.1215 9.16715 18.5751C9.44858 18.9242 10.1361 19.6091 10.72 19.8545C10.7478 19.8662 10.7761 19.8397 10.7695 19.8104C10.6629 19.337 11.0032 18.9828 11.6036 19.1912C12.9207 19.6393 14.1114 19.6632 15.5257 19.1051C15.5501 19.0954 15.5558 19.063 15.5385 19.0434C14.9374 18.3614 16.8187 17.7912 17.1295 17.4761C17.1312 17.4744 17.1327 17.4731 17.1347 17.4718C18.1003 16.797 19.2659 15.2959 19.333 12.4063C19.259 10.7609 18.8832 9.92039 18.7365 9.65093C18.7195 9.6197 18.6775 9.63219 18.6773 9.66769C18.6666 11.14 18.4487 12.3891 17.8508 13.7548C17.8375 13.7853 17.8689 13.8166 17.8996 13.8031C18.0361 13.743 18.1756 13.6822 18.3118 13.6176C18.3385 13.6049 18.3685 13.6287 18.3635 13.6577C17.4653 18.8192 9.04948 18.0305 9.04948 12.6584C9.04948 10.779 10.3042 8.93132 12.2415 8.59966C12.2763 8.59372 12.2978 8.63507 12.2728 8.65973C12.116 8.81445 11.7656 9.16314 11.6107 9.34175C11.5891 9.36664 11.6109 9.40119 11.6433 9.39467C13.3321 9.0553 15.0876 8.46792 16.4585 9.81369C16.4729 9.82784 16.4965 9.82829 16.5109 9.81407L17.0309 9.29813C17.0502 9.27901 17.083 9.28677 17.0915 9.31246L17.2392 9.75819C17.2493 9.78868 17.2906 9.79178 17.3045 9.76281C17.4315 9.4987 17.8323 8.59439 17.8535 7.65687C17.8542 7.62623 17.8171 7.60759 17.7909 7.62388C17.5717 7.76033 16.8227 8.10243 16.1572 6.93914C15.1862 4.97547 11.2215 5.0371 10.8109 3.17355C10.803 3.13763 10.7545 3.13129 10.7428 3.16619C10.6063 3.57417 10.2937 4.91322 11.6895 5.77712L11.6787 5.79492L10.0119 5.029C9.98512 5.01669 9.95642 5.03899 9.96346 5.06744C10.0069 5.24271 10.1555 5.72864 10.5499 6.16638C10.5707 6.18946 10.5559 6.22695 10.5248 6.22899C9.01419 6.32787 7.33278 6.8842 6.25989 8.21522Z" fill="#F7F7F7"/>
</svg>
