<svg width="130" height="32" viewBox="0 0 130 32" fill="none" xmlns="http://www.w3.org/2000/svg">
<path d="M36.4614 18.2485C36.4614 14.0339 39.4998 11.0005 43.6745 11.0005C47.8491 11.0005 50.8876 14.0339 50.8876 18.2485C50.8876 22.4631 47.8491 25.4965 43.6745 25.4965C39.5263 25.4965 36.4614 22.4631 36.4614 18.2485ZM47.8755 18.2485C47.8755 15.6178 46.2109 13.6313 43.6745 13.6313C41.138 13.6313 39.4998 15.6178 39.4998 18.2485C39.4998 20.8524 41.138 22.8658 43.6745 22.8658C46.2109 22.8389 47.8755 20.8524 47.8755 18.2485Z" fill="white"/>
<path d="M52.0229 23.2669L53.6083 20.9851C54.5859 22.0052 56.0919 22.8643 57.9942 22.8643C59.6059 22.8643 60.3986 22.1126 60.3986 21.3073C60.3986 18.8376 52.4457 20.5288 52.4457 15.2404C52.4457 12.905 54.4273 10.9722 57.6772 10.9722C59.8701 10.9722 61.6932 11.6433 63.0672 12.9318L61.429 15.1062C60.3193 14.0593 58.8133 13.5761 57.413 13.5761C56.1447 13.5761 55.4578 14.1398 55.4578 14.972C55.4578 17.2 63.3842 15.6968 63.3842 20.9314C63.3842 23.5085 61.5875 25.4413 57.8621 25.4413C55.22 25.495 53.3176 24.5823 52.0229 23.2669Z" fill="white"/>
<path d="M77.3879 25.2527V15.4276L73.5038 25.2527H72.2093L68.3254 15.4276V25.2527H65.3926V11.213H69.5143L72.8698 19.6958L76.2252 11.213H80.3734V25.2258H77.3879V25.2527Z" fill="white"/>
<path d="M82.4077 18.2474C82.4077 14.0328 85.4461 10.9994 89.6207 10.9994C93.7953 10.9994 96.8336 14.0328 96.8336 18.2474C96.8336 22.462 93.7953 25.4954 89.6207 25.4954C85.4461 25.4954 82.4077 22.462 82.4077 18.2474ZM93.8217 18.2474C93.8217 15.6166 92.1573 13.6301 89.6207 13.6301C87.0841 13.6301 85.4461 15.6166 85.4461 18.2474C85.4461 20.8513 87.0841 22.8646 89.6207 22.8646C92.1573 22.8378 93.8217 20.8513 93.8217 18.2474Z" fill="white"/>
<path d="M97.9702 23.2669L99.5554 20.9851C100.533 22.0052 102.039 22.8643 103.941 22.8643C105.553 22.8643 106.346 22.1126 106.346 21.3073C106.346 18.8376 98.3927 20.5288 98.3927 15.2404C98.3927 12.905 100.375 10.9722 103.624 10.9722C105.817 10.9722 107.641 11.6433 109.014 12.9318L107.376 15.1062C106.267 14.0593 104.761 13.5761 103.36 13.5761C102.092 13.5761 101.405 14.1398 101.405 14.972C101.405 17.2 109.331 15.6968 109.331 20.9314C109.331 23.5085 107.535 25.4413 103.809 25.4413C101.167 25.495 99.2649 24.5823 97.9702 23.2669Z" fill="white"/>
<path d="M111.313 25.2527V11.213H114.273V25.2258H111.313V25.2527Z" fill="white"/>
<path d="M116.068 23.2669L117.654 20.9851C118.631 22.0052 120.137 22.8643 122.039 22.8643C123.651 22.8643 124.444 22.1126 124.444 21.3073C124.444 18.8376 116.491 20.5288 116.491 15.2404C116.491 12.905 118.472 10.9722 121.723 10.9722C123.915 10.9722 125.739 11.6433 127.113 12.9318L125.474 15.1062C124.365 14.0593 122.859 13.5761 121.458 13.5761C120.19 13.5761 119.503 14.1398 119.503 14.972C119.503 17.2 127.43 15.6968 127.43 20.9314C127.43 23.5085 125.633 25.4413 121.907 25.4413C119.239 25.495 117.337 24.5823 116.068 23.2669Z" fill="white"/>
<path d="M31.2535 6.08071C30.9405 4.85598 29.9343 3.63126 28.1232 2.26787C26.6698 1.18178 25.1271 0.557861 23.8973 0.557861C23.6513 0.557861 23.4278 0.580964 23.2042 0.627184C22.6452 0.742727 22.1533 1.15867 21.8403 1.78259C21.4601 2.52206 21.3707 3.51572 21.6167 4.11653C21.7061 4.3014 21.8179 4.53246 21.9521 4.74043C20.7671 5.47991 20.0962 5.68789 20.0068 5.71101C23.0924 6.77394 25.6637 8.99238 27.2736 11.8809L27.2959 11.6036C27.363 10.841 27.5866 9.96288 27.8996 9.06168C28.2126 9.1541 28.5257 9.20035 28.8387 9.20035C29.666 9.20035 30.3815 8.8537 30.8287 8.22977C31.2759 7.60585 31.4548 6.77394 31.2535 6.08071Z" fill="#5E12A0"/>
<path d="M28.034 8.39165C30.0687 8.9694 30.8959 7.35184 30.6276 6.26571C30.337 5.17966 29.3979 4.07044 27.7432 2.82259C26.0887 1.57475 24.4118 1.06636 23.3385 1.29745C22.2652 1.52853 21.9522 3.21543 22.2206 3.86246C22.3323 4.11665 22.5783 4.48635 22.9137 4.9023C22.4889 5.2027 22.0864 5.43381 21.751 5.64178C23.808 6.58924 25.5968 8.06819 26.9383 9.91685C27.0948 9.29293 27.3185 8.7383 27.5197 8.25305C27.6762 8.27617 27.8551 8.32235 28.034 8.39165Z" fill="url(#paint0_radial_2001_3188)"/>
<path d="M16.385 31.0375C23.288 31.0375 28.8839 25.2541 28.8839 18.12C28.8839 10.9859 23.288 5.20251 16.385 5.20251C9.48216 5.20251 3.88623 10.9859 3.88623 18.12C3.88623 25.2541 9.48216 31.0375 16.385 31.0375Z" fill="url(#paint1_radial_2001_3188)"/>
<path opacity="0.6" d="M29.5993 5.20256C27.9 3.35388 26.4691 2.86861 24.7474 2.47577C23.4058 2.15225 23.7636 1.36658 25.3958 1.52833C24.6132 1.25103 23.8753 1.18171 23.3387 1.29725C22.2655 1.52833 21.9525 3.21524 22.2208 3.86227C22.3325 4.11645 22.5785 4.4862 22.9139 4.90215C22.3102 5.31811 21.7959 5.61851 21.3711 5.84961C21.5724 5.94203 21.8183 6.05751 22.109 6.21931C22.8692 6.63526 23.6965 7.32849 23.6965 7.32849C22.4444 6.21931 22.7127 5.71093 24.4343 4.46308C24.9709 4.07024 25.9548 4.11645 26.8715 4.60175C27.7882 5.087 28.8615 6.31174 28.8615 6.31174L27.833 8.34525C27.9 8.36837 27.9671 8.3915 28.0342 8.41462C28.6826 8.59947 29.1969 8.55322 29.5993 8.3915C30.0689 8.0911 31.2986 7.07434 29.5993 5.20256Z" fill="#A98698"/>
<path d="M24.7243 3.58524C25.1715 3.77011 25.7528 4.09363 26.4683 4.57893C27.318 5.15661 28.0558 5.80367 28.5253 6.31204C27.7428 7.37497 27.2285 8.8308 26.9155 9.84756C27.072 10.0787 27.2509 10.3098 27.4074 10.5409C27.5639 9.96311 27.8323 9.10808 28.19 8.25313C28.2795 8.27625 28.3912 8.27625 28.503 8.27625C28.7713 8.27625 29.0843 8.23 29.3303 8.02203C29.5092 7.88335 29.7104 7.6292 29.688 7.167C29.688 6.72799 29.3526 6.17337 28.6596 5.50326C28.1676 5.01794 27.4968 4.48643 26.8261 4.0012C24.9032 2.68402 23.5616 2.31429 22.9579 2.93821C22.5555 3.35417 22.6002 3.86255 22.7343 4.23228C22.0188 4.71753 21.4151 5.06419 21.0127 5.29529C21.281 5.38771 21.527 5.50326 21.7953 5.61874C22.5107 5.22591 23.5393 4.55581 24.7243 3.58524ZM28.9502 6.88972C29.0173 7.00527 29.0396 7.12082 29.0396 7.19012C29.0396 7.3981 28.9725 7.4674 28.9279 7.51365C28.8384 7.58295 28.6595 7.6292 28.503 7.6292C28.6372 7.35192 28.7937 7.12082 28.9502 6.88972ZM23.4275 3.4466C23.4945 3.37728 23.6734 3.33105 23.9641 3.37727C23.7405 3.56214 23.5169 3.7239 23.2933 3.88565C23.271 3.7239 23.2933 3.56214 23.4275 3.4466Z" fill="#5E12A0"/>
<path d="M16.3847 4.44031C9.07316 4.44031 3.14795 10.564 3.14795 18.1204C3.14795 25.6768 9.07316 31.8005 16.3847 31.8005C23.6961 31.8005 29.6213 25.6768 29.6213 18.1204C29.6213 10.564 23.6737 4.44031 16.3847 4.44031ZM16.3847 31.0379C9.4756 31.0379 3.88581 25.2609 3.88581 18.1204C3.88581 10.98 9.4756 5.20291 16.3847 5.20291C23.2936 5.20291 28.8835 10.98 28.8835 18.1204C28.8835 25.2609 23.2713 31.0379 16.3847 31.0379Z" fill="#5E12A0"/>
<path opacity="0.6" d="M16.385 31.0375C23.288 31.0375 28.8839 25.2541 28.8839 18.12C28.8839 10.9859 23.288 5.20251 16.385 5.20251C9.48216 5.20251 3.88623 10.9859 3.88623 18.12C3.88623 25.2541 9.48216 31.0375 16.385 31.0375Z" fill="url(#paint2_linear_2001_3188)"/>
<path opacity="0.6" d="M16.2953 29.4664C9.47569 28.3341 4.84731 21.7021 5.96525 14.654C6.45718 11.5345 7.97756 8.87702 10.1241 6.95898C6.99378 8.83077 4.66844 12.089 4.04238 16.0637C2.94677 23.1117 7.57512 29.7438 14.3724 30.8761C18.1734 31.5231 21.8403 30.2983 24.5458 27.895C22.1534 29.3278 19.2467 29.9517 16.2953 29.4664Z" fill="#A98698"/>
<path opacity="0.6" d="M18.3748 5.38741C15.2222 4.8559 12.159 5.59538 9.65481 7.23607C9.61007 7.28232 9.5654 7.32849 9.5654 7.32849C10.5268 6.72769 11.9355 6.19619 11.9355 6.19619C8.31325 8.36837 7.19531 10.841 7.19531 10.841C8.60395 8.0218 12.7404 6.03446 15.9824 5.89578C19.2246 5.75718 21.3487 6.75081 23.9423 8.89987C26.536 11.0721 28.1012 15.5089 27.9446 19.0213C27.8105 22.5337 26.0218 25.3761 26.0218 25.3761C27.2515 23.7354 27.9894 22.5337 28.459 21.309C28.5484 20.9393 28.6378 20.5696 28.6826 20.1767C29.8005 13.1518 25.1944 6.51971 18.3748 5.38741Z" fill="url(#paint3_linear_2001_3188)"/>
<path d="M28.2576 18.0048C28.2576 24.7755 22.9361 30.2753 16.3849 30.2753C9.83362 30.2753 4.48975 24.7755 4.48975 18.0048H28.2576Z" fill="url(#paint4_linear_2001_3188)"/>
<g opacity="0.6">
<path opacity="0.6" d="M27.3187 18.0048C27.3187 24.6137 22.2656 30.021 15.9155 30.2753C16.0721 30.2753 16.2286 30.2753 16.385 30.2753C22.9363 30.2753 28.2578 24.7755 28.2578 18.0048H27.3187Z" fill="url(#paint5_linear_2001_3188)"/>
</g>
<g opacity="0.7">
<path opacity="0.7" d="M6.1667 18.0048H4.48975C4.48975 24.7755 9.81128 30.2753 16.3625 30.2753C16.6532 30.2753 16.9215 30.2753 17.1898 30.2521C11.041 29.79 6.1667 24.4751 6.1667 18.0048Z" fill="url(#paint6_linear_2001_3188)"/>
</g>
<path d="M28.2353 18.1198C28.2353 16.7103 25.8652 15.9015 22.7125 15.6242C20.4319 15.4393 18.1289 15.6704 15.4905 16.5023C13.2098 17.1955 11.1528 17.08 9.65473 16.8951C6.32318 16.5023 4.48975 16.456 4.48975 18.1198C4.48975 20.5231 9.22987 23.5272 16.3401 22.4873C19.94 21.9558 21.7958 20.8698 23.9199 20.1303C26.2229 19.3446 28.2353 19.3677 28.2353 18.1198Z" fill="url(#paint7_linear_2001_3188)"/>
<path d="M20.275 12.2969C21.3864 12.2969 22.2873 11.3658 22.2873 10.2172C22.2873 9.0686 21.3864 8.13745 20.275 8.13745C19.1636 8.13745 18.2627 9.0686 18.2627 10.2172C18.2627 11.3658 19.1636 12.2969 20.275 12.2969Z" fill="white"/>
<path d="M23.5611 13.8452C24.0304 13.8452 24.4107 13.4521 24.4107 12.9671C24.4107 12.4821 24.0304 12.089 23.5611 12.089C23.0918 12.089 22.7114 12.4821 22.7114 12.9671C22.7114 13.4521 23.0918 13.8452 23.5611 13.8452Z" fill="white"/>
<g opacity="0.6">
<path opacity="0.6" d="M26.6029 8.55293C26.5806 8.55293 26.5582 8.55293 26.5582 8.55293C26.424 8.5298 26.3346 8.3912 26.3569 8.2294C26.5582 7.16647 27.4078 6.14964 27.4525 6.10347C27.5419 5.98792 27.7208 5.98792 27.8103 6.08034C27.9221 6.17277 27.9221 6.35762 27.8326 6.45012C27.8103 6.47317 27.0277 7.42062 26.8489 8.34495C26.8265 8.48363 26.7147 8.55293 26.6029 8.55293Z" fill="url(#paint8_linear_2001_3188)"/>
</g>
<path opacity="0.2" d="M15.5592 27.7561C15.9049 27.7561 16.1852 27.4664 16.1852 27.1091C16.1852 26.7517 15.9049 26.462 15.5592 26.462C15.2134 26.462 14.9331 26.7517 14.9331 27.1091C14.9331 27.4664 15.2134 27.7561 15.5592 27.7561Z" fill="white"/>
<g opacity="0.4">
<path opacity="0.6" d="M15.1997 27.5258C14.9538 27.2716 14.9538 26.8557 15.1997 26.6015C15.2444 26.5553 15.2891 26.5322 15.3338 26.486C15.2444 26.5091 15.1773 26.5553 15.1103 26.6246C14.8643 26.8788 14.8643 27.2947 15.1103 27.549C15.3115 27.7569 15.6245 27.8031 15.8705 27.6645C15.6469 27.7569 15.3786 27.7107 15.1997 27.5258Z" fill="url(#paint9_linear_2001_3188)"/>
</g>
<path opacity="0.3" d="M15.7806 26.924C15.8547 26.924 15.9149 26.862 15.9149 26.7854C15.9149 26.7088 15.8547 26.6467 15.7806 26.6467C15.7065 26.6467 15.6465 26.7088 15.6465 26.7854C15.6465 26.862 15.7065 26.924 15.7806 26.924Z" fill="white"/>
<path opacity="0.2" d="M18.8233 27.4329C19.1691 27.4329 19.4494 27.1433 19.4494 26.786C19.4494 26.4286 19.1691 26.1389 18.8233 26.1389C18.4776 26.1389 18.1973 26.4286 18.1973 26.786C18.1973 27.1433 18.4776 27.4329 18.8233 27.4329Z" fill="white"/>
<g opacity="0.4">
<path opacity="0.6" d="M18.4648 27.2022C18.2188 26.948 18.2188 26.5321 18.4648 26.2779C18.5095 26.2317 18.5542 26.2086 18.5989 26.1624C18.5095 26.1855 18.4425 26.2317 18.3754 26.301C18.1294 26.5552 18.1294 26.9711 18.3754 27.2254C18.5766 27.4333 18.8897 27.4795 19.1355 27.3409C18.912 27.4333 18.6437 27.3871 18.4648 27.2022Z" fill="url(#paint10_linear_2001_3188)"/>
</g>
<path opacity="0.3" d="M19.0458 26.601C19.1199 26.601 19.1799 26.5389 19.1799 26.4623C19.1799 26.3857 19.1199 26.3236 19.0458 26.3236C18.9717 26.3236 18.9116 26.3857 18.9116 26.4623C18.9116 26.5389 18.9717 26.601 19.0458 26.601Z" fill="white"/>
<path opacity="0.2" d="M17.2123 28.9347C17.4716 28.9347 17.6818 28.7175 17.6818 28.4494C17.6818 28.1814 17.4716 27.9641 17.2123 27.9641C16.9529 27.9641 16.7427 28.1814 16.7427 28.4494C16.7427 28.7175 16.9529 28.9347 17.2123 28.9347Z" fill="white"/>
<g opacity="0.4">
<path opacity="0.6" d="M16.9439 28.7506C16.765 28.5658 16.765 28.2423 16.9439 28.0574C16.9663 28.0343 17.011 28.0112 17.0333 27.988C16.9663 28.0112 16.9215 28.0574 16.8768 28.1036C16.698 28.2884 16.698 28.612 16.8768 28.7968C17.0333 28.9586 17.2569 28.9817 17.4582 28.8662C17.2793 28.9355 17.0781 28.8893 16.9439 28.7506Z" fill="url(#paint11_linear_2001_3188)"/>
</g>
<path opacity="0.3" d="M17.3678 28.2879C17.4171 28.2879 17.4572 28.2465 17.4572 28.1955C17.4572 28.1444 17.4171 28.103 17.3678 28.103C17.3184 28.103 17.2783 28.1444 17.2783 28.1955C17.2783 28.2465 17.3184 28.2879 17.3678 28.2879Z" fill="white"/>
<path opacity="0.2" d="M20.0965 28.5881C20.3558 28.5881 20.566 28.3708 20.566 28.1028C20.566 27.8348 20.3558 27.6176 20.0965 27.6176C19.8372 27.6176 19.627 27.8348 19.627 28.1028C19.627 28.3708 19.8372 28.5881 20.0965 28.5881Z" fill="white"/>
<g opacity="0.4">
<path opacity="0.6" d="M19.8282 28.4042C19.6493 28.2193 19.6493 27.8958 19.8282 27.7109C19.8505 27.6878 19.8953 27.6647 19.9176 27.6416C19.8505 27.6647 19.8058 27.7109 19.7611 27.7572C19.5822 27.942 19.5822 28.2655 19.7611 28.4504C19.9176 28.6122 20.1412 28.6352 20.3425 28.5197C20.1636 28.5891 19.9623 28.5428 19.8282 28.4042Z" fill="url(#paint12_linear_2001_3188)"/>
</g>
<path opacity="0.3" d="M20.2535 27.9415C20.3029 27.9415 20.343 27.9001 20.343 27.849C20.343 27.798 20.3029 27.7566 20.2535 27.7566C20.2041 27.7566 20.1641 27.798 20.1641 27.849C20.1641 27.9001 20.2041 27.9415 20.2535 27.9415Z" fill="white"/>
<path opacity="0.2" d="M12.8962 27.5251C13.4643 27.5251 13.9247 27.0491 13.9247 26.4621C13.9247 25.875 13.4643 25.399 12.8962 25.399C12.3281 25.399 11.8677 25.875 11.8677 26.4621C11.8677 27.0491 12.3281 27.5251 12.8962 27.5251Z" fill="white"/>
<g opacity="0.4">
<path opacity="0.6" d="M12.3159 27.1327C11.9134 26.7167 11.9134 26.0466 12.3159 25.6306C12.3829 25.5613 12.45 25.515 12.5395 25.4689C12.4053 25.515 12.2935 25.6075 12.1817 25.7C11.7793 26.1159 11.7793 26.786 12.1817 27.202C12.5172 27.5486 13.0314 27.6179 13.4339 27.3637C13.0538 27.5255 12.6066 27.4562 12.3159 27.1327Z" fill="url(#paint13_linear_2001_3188)"/>
</g>
<path opacity="0.3" d="M13.2543 26.1385C13.3778 26.1385 13.478 26.0351 13.478 25.9075C13.478 25.7798 13.3778 25.6764 13.2543 25.6764C13.1309 25.6764 13.0308 25.7798 13.0308 25.9075C13.0308 26.0351 13.1309 26.1385 13.2543 26.1385Z" fill="white"/>
<path opacity="0.2" d="M22.0866 24.9143C22.6546 24.9143 23.1152 24.4384 23.1152 23.8513C23.1152 23.2642 22.6546 22.7883 22.0866 22.7883C21.5186 22.7883 21.0581 23.2642 21.0581 23.8513C21.0581 24.4384 21.5186 24.9143 22.0866 24.9143Z" fill="white"/>
<g opacity="0.4">
<path opacity="0.6" d="M21.4824 24.5214C21.0799 24.1054 21.0799 23.4353 21.4824 23.0193C21.5494 22.95 21.6165 22.9038 21.706 22.8575C21.5719 22.9038 21.46 22.9962 21.3482 23.0886C20.9458 23.5046 20.9458 24.1748 21.3482 24.5907C21.6836 24.9373 22.1979 25.0067 22.6004 24.7525C22.2203 24.9142 21.7954 24.8449 21.4824 24.5214Z" fill="url(#paint14_linear_2001_3188)"/>
</g>
<path opacity="0.3" d="M22.4434 23.5273C22.5669 23.5273 22.6669 23.4238 22.6669 23.2962C22.6669 23.1685 22.5669 23.0651 22.4434 23.0651C22.3198 23.0651 22.2197 23.1685 22.2197 23.2962C22.2197 23.4238 22.3198 23.5273 22.4434 23.5273Z" fill="white"/>
<defs>
<radialGradient id="paint0_radial_2001_3188" cx="0" cy="0" r="1" gradientUnits="userSpaceOnUse" gradientTransform="translate(30.2198 4.80988) scale(9.99335 10.3281)">
<stop stop-color="#FFEAFF" stop-opacity="0.6"/>
<stop offset="0.6807" stop-color="#A087C9"/>
<stop offset="1" stop-color="#10002F"/>
</radialGradient>
<radialGradient id="paint1_radial_2001_3188" cx="0" cy="0" r="1" gradientUnits="userSpaceOnUse" gradientTransform="translate(24.6603 9.2144) scale(24.4501 25.2691)">
<stop stop-color="#FFEAFF" stop-opacity="0.6"/>
<stop offset="0.6807" stop-color="#A087C9"/>
<stop offset="1" stop-color="#10002F"/>
</radialGradient>
<linearGradient id="paint2_linear_2001_3188" x1="14.3801" y1="30.8543" x2="18.6428" y2="5.40871" gradientUnits="userSpaceOnUse">
<stop stop-color="#81FFFF"/>
<stop offset="0.6202" stop-color="white" stop-opacity="0"/>
</linearGradient>
<linearGradient id="paint3_linear_2001_3188" x1="25.1933" y1="9.34738" x2="14.5477" y2="18.7985" gradientUnits="userSpaceOnUse">
<stop offset="0.2888" stop-color="white"/>
<stop offset="0.7796" stop-color="white" stop-opacity="0"/>
</linearGradient>
<linearGradient id="paint4_linear_2001_3188" x1="4.4998" y1="24.1329" x2="28.2519" y2="24.1329" gradientUnits="userSpaceOnUse">
<stop stop-color="#0002E9"/>
<stop offset="0.9952" stop-color="#FF00C7"/>
</linearGradient>
<linearGradient id="paint5_linear_2001_3188" x1="29.3765" y1="19.0815" x2="16.0472" y2="31.27" gradientUnits="userSpaceOnUse">
<stop offset="0.2888" stop-color="white"/>
<stop offset="0.7796" stop-color="white" stop-opacity="0"/>
</linearGradient>
<linearGradient id="paint6_linear_2001_3188" x1="4.4998" y1="24.1329" x2="17.207" y2="24.1329" gradientUnits="userSpaceOnUse">
<stop stop-color="#000292"/>
<stop offset="0.9952" stop-color="#7D00C7"/>
</linearGradient>
<linearGradient id="paint7_linear_2001_3188" x1="4.51575" y1="19.1392" x2="28.2359" y2="19.1392" gradientUnits="userSpaceOnUse">
<stop stop-color="#000292"/>
<stop offset="0.9952" stop-color="#BE00C7"/>
</linearGradient>
<linearGradient id="paint8_linear_2001_3188" x1="27.8466" y1="5.9909" x2="26.0591" y2="8.80142" gradientUnits="userSpaceOnUse">
<stop offset="0.2888" stop-color="white"/>
<stop offset="0.7796" stop-color="white" stop-opacity="0"/>
</linearGradient>
<linearGradient id="paint9_linear_2001_3188" x1="14.9252" y1="27.1297" x2="15.8712" y2="27.1297" gradientUnits="userSpaceOnUse">
<stop offset="0.2888" stop-color="white"/>
<stop offset="0.7796" stop-color="white" stop-opacity="0"/>
</linearGradient>
<linearGradient id="paint10_linear_2001_3188" x1="18.188" y1="26.8017" x2="19.134" y2="26.8017" gradientUnits="userSpaceOnUse">
<stop offset="0.2888" stop-color="white"/>
<stop offset="0.7796" stop-color="white" stop-opacity="0"/>
</linearGradient>
<linearGradient id="paint11_linear_2001_3188" x1="16.7398" y1="28.4558" x2="17.45" y2="28.4558" gradientUnits="userSpaceOnUse">
<stop offset="0.2888" stop-color="white"/>
<stop offset="0.7796" stop-color="white" stop-opacity="0"/>
</linearGradient>
<linearGradient id="paint12_linear_2001_3188" x1="19.6144" y1="28.1084" x2="20.3245" y2="28.1084" gradientUnits="userSpaceOnUse">
<stop offset="0.2888" stop-color="white"/>
<stop offset="0.7796" stop-color="white" stop-opacity="0"/>
</linearGradient>
<linearGradient id="paint13_linear_2001_3188" x1="11.8697" y1="26.4896" x2="13.4145" y2="26.4896" gradientUnits="userSpaceOnUse">
<stop offset="0.2888" stop-color="white"/>
<stop offset="0.7796" stop-color="white" stop-opacity="0"/>
</linearGradient>
<linearGradient id="paint14_linear_2001_3188" x1="21.0447" y1="23.8775" x2="22.5896" y2="23.8775" gradientUnits="userSpaceOnUse">
<stop offset="0.2888" stop-color="white"/>
<stop offset="0.7796" stop-color="white" stop-opacity="0"/>
</linearGradient>
</defs>
</svg>
