<svg width="24" height="24" viewBox="0 0 24 24" fill="none" xmlns="http://www.w3.org/2000/svg">
<path d="M16 11C16.2833 11 16.5208 10.9042 16.7125 10.7125C16.9042 10.5208 17 10.2833 17 10C17 9.71667 16.9042 9.47917 16.7125 9.2875C16.5208 9.09583 16.2833 9 16 9C15.7167 9 15.4792 9.09583 15.2875 9.2875C15.0958 9.47917 15 9.71667 15 10C15 10.2833 15.0958 10.5208 15.2875 10.7125C15.4792 10.9042 15.7167 11 16 11ZM8 9H13V7H8V9ZM4.79811 21C4.62123 21 4.46534 20.8838 4.41485 20.7143C3.87738 18.9099 3.34743 17.1093 2.825 15.3125C2.275 13.4208 2 11.4833 2 9.5C2 7.96667 2.53333 6.66667 3.6 5.6C4.66667 4.53333 5.96667 4 7.5 4H12.5C12.9833 3.36667 13.5708 2.875 14.2625 2.525C14.9542 2.175 15.7 2 16.5 2C16.9167 2 17.2708 2.14583 17.5625 2.4375C17.8542 2.72917 18 3.08333 18 3.5C18 3.58333 17.9583 3.775 17.875 4.075C17.8083 4.25833 17.7458 4.44583 17.6875 4.6375C17.6292 4.82917 17.5833 5.025 17.55 5.225L19.825 7.5H21.35C21.709 7.5 22 7.79102 22 8.15V14.0039C22 14.2849 21.8194 14.5341 21.5523 14.6216L19.175 15.4L17.5854 20.7146C17.5347 20.884 17.3789 21 17.2021 21H12.4C12.1791 21 12 20.8209 12 20.6V19H10V20.6C10 20.8209 9.82091 21 9.6 21H4.79811Z" fill="#E8722F"/>
</svg>
