<svg width="24" height="24" viewBox="0 0 24 24" fill="none" xmlns="http://www.w3.org/2000/svg">
<rect width="24" height="24" rx="6" fill="#742968"/>
<rect x="0.5" y="0.5" width="23" height="23" rx="5.5" stroke="#F9F8F7" stroke-opacity="0.2"/>
<path d="M8.24219 6H15.758V7.47292H8.24219V6Z" fill="#F7F7F7"/>
<path d="M10.2228 17.652C10.7763 17.884 11.4024 18 12.101 18C12.8178 18 13.4393 17.8654 13.9656 17.5963C14.4918 17.3273 14.8911 16.9654 15.1633 16.5107C15.4446 16.056 15.5853 15.5504 15.5853 14.9937C15.5853 14.4091 15.4446 13.9312 15.1633 13.5601C14.8821 13.1889 14.5463 12.9059 14.1561 12.711C13.775 12.5162 13.276 12.3121 12.6591 12.0986C12.0421 11.8945 11.5884 11.7043 11.298 11.528C11.0077 11.3517 10.8625 11.1058 10.8625 10.7903C10.8625 10.5027 10.9487 10.2847 11.1211 10.1362C11.2935 9.97845 11.5203 9.89956 11.8016 9.89956C12.1282 9.89956 12.3959 9.99234 12.6046 10.178C12.8133 10.3542 12.9267 10.6001 12.9449 10.9156H15.4628C15.4174 9.99701 15.0725 9.28254 14.4284 8.77222C13.7842 8.25258 12.9358 7.99278 11.8832 7.99278C10.8489 7.99278 10.0096 8.25258 9.36537 8.77222C8.72114 9.28254 8.39904 9.99234 8.39904 10.9017C8.39904 11.5141 8.53968 12.0105 8.82096 12.3909C9.10224 12.7714 9.43794 13.059 9.82811 13.2539C10.2183 13.4488 10.7218 13.6436 11.3388 13.8384C11.7653 13.9684 12.092 14.0843 12.3188 14.1864C12.5547 14.2884 12.7498 14.4184 12.904 14.5761C13.0674 14.7338 13.149 14.9333 13.149 15.1746C13.149 15.4622 13.0492 15.6895 12.8496 15.8566C12.6499 16.0143 12.3778 16.0932 12.0329 16.0932C11.6973 16.0932 11.425 16.0004 11.2163 15.8148C11.0077 15.62 10.8852 15.3416 10.8489 14.9797H8.37183C8.38997 15.62 8.56236 16.1674 8.88903 16.6221C9.22473 17.0767 9.66934 17.4201 10.2228 17.652Z" fill="#F7F7F7"/>
</svg>
