<svg width="24" height="24" viewBox="0 0 24 24" fill="none" xmlns="http://www.w3.org/2000/svg">
<rect width="24" height="24" rx="6" fill="#742968"/>
<rect x="0.5" y="0.5" width="23" height="23" rx="5.5" stroke="#F9F8F7" stroke-opacity="0.2"/>
<path fill-rule="evenodd" clip-rule="evenodd" d="M11.5388 4.58008C7.60033 4.58008 4.41016 7.78502 4.41016 11.7354C4.41016 14.3925 5.95209 16.7537 8.08072 17.9878C8.74985 18.4676 9.49085 18.5504 10.0898 18.3892C12.0097 17.8722 13.1219 15.8108 13.3352 12.9659C14.2869 12.5249 15.243 12.0195 15.8951 11.3962C16.6691 10.6563 17.1694 9.92552 17.3853 9.24055C17.6046 8.54452 17.5301 7.88555 17.1375 7.35858C15.8356 5.61107 13.8725 4.58008 11.5388 4.58008ZM5.17158 11.7354C5.17158 8.20271 8.02368 5.3415 11.5388 5.3415C13.6303 5.3415 15.3677 6.25756 16.5269 7.81349C16.7468 8.10857 16.8193 8.50288 16.659 9.01172C16.4952 9.53161 16.0892 10.1573 15.369 10.8457C14.6783 11.5059 13.5431 12.046 12.368 12.5673C12.2522 12.6187 12.1361 12.6699 12.0203 12.7209C11.5615 12.9231 11.1075 13.1232 10.7006 13.323C10.1941 13.5717 9.72655 13.8358 9.3893 14.1293C8.45871 14.9389 7.79446 15.8736 7.79445 16.8844C6.23549 15.7034 5.17158 13.8119 5.17158 11.7354ZM12.5377 13.3249C12.4644 13.3573 12.3916 13.3894 12.3194 13.4212C11.8623 13.6227 11.4276 13.8143 11.0362 14.0065C10.5408 14.2498 10.1479 14.4785 9.8891 14.7037C8.76661 15.6803 8.34241 16.59 8.66398 17.4604C9.10104 17.7204 9.54631 17.747 9.89189 17.6539C11.2543 17.2871 12.2632 15.8125 12.5377 13.3249Z" fill="#F7F7F7"/>
<path fill-rule="evenodd" clip-rule="evenodd" d="M17.5777 12.0513C16.6195 12.3094 16.1442 13.3357 16.0768 14.5958C15.7161 14.7711 15.3535 14.9776 15.0899 15.2299C14.7414 15.5633 14.4993 15.908 14.3916 16.25C14.2805 16.603 14.313 16.9622 14.5311 17.2551C15.1321 18.0625 16.0413 18.5395 17.1149 18.5395C18.9309 18.5395 20.4 17.0606 20.4 15.2403C20.4 14.054 19.7374 13.0013 18.8124 12.4198C18.7509 12.3469 18.6777 12.2767 18.5919 12.2152C18.3376 12.0324 17.9913 11.9399 17.5777 12.0513ZM17.2355 14.0674C17.1232 14.1226 17.0025 14.1776 16.8747 14.2346C17.0002 13.3456 17.3724 12.8952 17.7757 12.7865C17.9564 12.7378 18.0667 12.7776 18.1409 12.8288C18.2427 13.0764 18.1599 13.3823 17.6825 13.7981C17.5934 13.8757 17.4456 13.9641 17.2355 14.0674ZM17.1149 17.7781C18.5069 17.7781 19.6386 16.6436 19.6386 15.2403C19.6386 14.5483 19.339 13.9043 18.873 13.437C18.7505 13.7926 18.4844 14.1094 18.1825 14.3723C18.015 14.5182 17.7925 14.642 17.5713 14.7507C17.3918 14.839 17.1912 14.9275 16.9933 15.0148L16.846 15.0799C16.333 15.3076 15.8814 15.5264 15.6163 15.78C15.3216 16.062 15.1736 16.3016 15.1179 16.4786C15.0656 16.6447 15.0964 16.7393 15.1419 16.8005C15.6003 17.4163 16.2837 17.7781 17.1149 17.7781Z" fill="#F7F7F7"/>
</svg>
