<svg width="25" height="24" viewBox="0 0 25 24" fill="none" xmlns="http://www.w3.org/2000/svg">
<path d="M11.895 17.7L7.74503 20.2C7.5617 20.3167 7.37003 20.3667 7.17003 20.35C6.97003 20.3333 6.79503 20.2667 6.64503 20.15C6.49503 20.0333 6.37837 19.8875 6.29503 19.7125C6.2117 19.5375 6.19503 19.3417 6.24503 19.125L7.34503 14.4L3.67003 11.225C3.50337 11.075 3.3992 10.9042 3.35753 10.7125C3.31587 10.5208 3.32837 10.3333 3.39503 10.15C3.4617 9.96667 3.5617 9.81667 3.69503 9.7C3.82837 9.58333 4.0117 9.50833 4.24503 9.475L9.09503 9.05L10.97 4.6C11.0534 4.4 11.1825 4.25 11.3575 4.15C11.5325 4.05 11.7117 4 11.895 4C12.0784 4 12.2575 4.05 12.4325 4.15C12.6075 4.25 12.7367 4.4 12.82 4.6L14.695 9.05L19.545 9.475C19.7784 9.50833 19.9617 9.58333 20.095 9.7C20.2284 9.81667 20.3284 9.96667 20.395 10.15C20.4617 10.3333 20.4742 10.5208 20.4325 10.7125C20.3909 10.9042 20.2867 11.075 20.12 11.225L16.445 14.4L17.545 19.125C17.595 19.3417 17.5784 19.5375 17.495 19.7125C17.4117 19.8875 17.295 20.0333 17.145 20.15C16.995 20.2667 16.82 20.3333 16.62 20.35C16.42 20.3667 16.2284 20.3167 16.045 20.2L11.895 17.7Z" fill="#5AB6E9"/>
</svg>
