<svg width="22" height="22" viewBox="0 0 22 22" fill="none" xmlns="http://www.w3.org/2000/svg">
<path d="M10.5071 0.414102C10.6034 -0.138035 11.396 -0.138034 11.4923 0.414103L11.8431 2.42609C12.4953 6.16565 15.4236 9.09399 19.1632 9.74612L21.1752 10.097C21.7273 10.1933 21.7273 10.9858 21.1752 11.0821L19.1632 11.433C15.4236 12.0851 12.4953 15.0135 11.8431 18.753L11.4923 20.765C11.396 21.3171 10.6034 21.3171 10.5071 20.765L10.1563 18.753C9.50415 15.0135 6.57581 12.0851 2.83624 11.433L0.824258 11.0821C0.272121 10.9858 0.272123 10.1933 0.824259 10.097L2.83625 9.74612C6.57581 9.09399 9.50415 6.16565 10.1563 2.42609L10.5071 0.414102Z" fill="#2C2261"/>
</svg>
