<svg width="24" height="24" viewBox="0 0 24 24" fill="none" xmlns="http://www.w3.org/2000/svg">
<rect width="24" height="24" rx="6" fill="#742968"/>
<rect x="0.5" y="0.5" width="23" height="23" rx="5.5" stroke="#F9F8F7" stroke-opacity="0.2"/>
<path d="M16.4614 15.1464C15.4341 15.1464 14.603 14.201 14.603 13.0365V9.87706H16.9999V8.03935H14.603V5L12.7663 6.11329V8.03935H9.28297C6.85485 8.03935 6.2167 11.3613 8.08449 12.5983L9.98338 14.0472C10.4036 14.4007 10.2324 15.1428 9.6409 15.1428H7.05724V16.9982H9.64102C12.0847 16.9982 12.7072 13.6762 10.8395 12.4393L8.95613 10.9903C8.53589 10.6368 8.69155 9.87706 9.28303 9.87706H12.7664V13.0613C12.7664 15.4644 14.2295 17 16.4397 17H17V15.1464H16.4614Z" fill="#F7F7F7"/>
</svg>
