<svg width="20" height="20" viewBox="0 0 20 20" fill="none" xmlns="http://www.w3.org/2000/svg">
<path fill-rule="evenodd" clip-rule="evenodd" d="M15.8598 3.42554C16.0544 3.34361 16.2675 3.31535 16.4768 3.34371C16.6861 3.37207 16.884 3.45601 17.0499 3.58679C17.2157 3.71757 17.3435 3.89042 17.4199 4.08734C17.4962 4.28426 17.5184 4.49805 17.4842 4.70647L15.6975 15.5439C15.5242 16.5893 14.3772 17.1888 13.4185 16.6681C12.6165 16.2324 11.4254 15.5612 10.354 14.8609C9.81832 14.5103 8.17738 13.3878 8.37905 12.589C8.55236 11.906 11.3096 9.33938 12.8851 7.81346C13.5035 7.21396 13.2215 6.86812 12.4912 7.41957C10.6778 8.78872 7.76616 10.8708 6.8035 11.4569C5.95428 11.9737 5.51155 12.0619 4.98216 11.9737C4.01635 11.813 3.12065 11.5641 2.38959 11.2608C1.40172 10.8511 1.44978 9.49299 2.38881 9.09753L15.8598 3.42554Z" fill="#F7F7F7"/>
</svg>
