<svg width="25" height="24" viewBox="0 0 25 24" fill="none" xmlns="http://www.w3.org/2000/svg">
<path d="M11.2892 12.8667L12.4448 14.0222C12.6077 14.1852 12.8151 14.2667 13.067 14.2667C13.3188 14.2667 13.5263 14.1852 13.6892 14.0222L16.2225 11.4889V12.0222C16.2225 12.2741 16.3077 12.4815 16.4781 12.6444C16.6485 12.8074 16.8596 12.8889 17.1114 12.8889C17.3633 12.8889 17.5744 12.8037 17.7448 12.6333C17.9151 12.463 18.0003 12.2519 18.0003 12V9.33333C18.0003 9.08148 17.9151 8.87037 17.7448 8.7C17.5744 8.52963 17.3633 8.44444 17.1114 8.44444H14.4225C14.1707 8.44444 13.9633 8.52963 13.8003 8.7C13.6374 8.87037 13.5559 9.08148 13.5559 9.33333C13.5559 9.58519 13.6411 9.7963 13.8114 9.96667C13.9818 10.137 14.1929 10.2222 14.4448 10.2222H14.9559L13.067 12.1333L11.9114 10.9778C11.7485 10.8 11.5411 10.7111 11.2892 10.7111C11.0374 10.7111 10.83 10.8 10.667 10.9778L7.95588 13.6889C7.7781 13.8519 7.68921 14.0593 7.68921 14.3111C7.68921 14.563 7.7781 14.7704 7.95588 14.9333C8.11884 15.1111 8.32625 15.2 8.5781 15.2C8.82996 15.2 9.03736 15.1111 9.20033 14.9333L11.2892 12.8667ZM6.44477 20C5.95588 20 5.53736 19.8259 5.18921 19.4778C4.84107 19.1296 4.66699 18.7111 4.66699 18.2222V5.77778C4.66699 5.28889 4.84107 4.87037 5.18921 4.52222C5.53736 4.17407 5.95588 4 6.44477 4H18.8892C19.3781 4 19.7966 4.17407 20.1448 4.52222C20.4929 4.87037 20.667 5.28889 20.667 5.77778V18.2222C20.667 18.7111 20.4929 19.1296 20.1448 19.4778C19.7966 19.8259 19.3781 20 18.8892 20H6.44477Z" fill="#37D56D"/>
</svg>
