<svg width="24" height="24" viewBox="0 0 24 24" fill="none" xmlns="http://www.w3.org/2000/svg">
<path d="M9.24687 14.9824H6.04957C5.63702 14.9824 5.3319 14.8017 5.13421 14.4405C4.93653 14.0793 4.95802 13.7307 5.19868 13.3946L12.9083 2.55773C13.0802 2.32251 13.3037 2.1587 13.5787 2.06629C13.8537 1.97388 14.1374 1.97809 14.4296 2.07889C14.7218 2.1797 14.9367 2.35612 15.0742 2.60814C15.2117 2.86016 15.2633 3.12898 15.2289 3.4146L14.4038 9.94195H18.4004C18.8474 9.94195 19.1611 10.1352 19.3416 10.5216C19.5221 10.908 19.4662 11.2693 19.174 11.6053L10.6908 21.5349C10.5017 21.7533 10.2697 21.8961 9.99462 21.9633C9.71959 22.0305 9.45314 22.0053 9.1953 21.8877C8.93745 21.7701 8.73547 21.5895 8.58936 21.3459C8.44325 21.1023 8.38738 20.8376 8.42176 20.552L9.24687 14.9824Z" fill="#D44ABE"/>
</svg>
